#N canvas 129 115 1409 623 12;
#X obj 25 16 inlet;
#X obj 25 106 t b b b b b b b;
#X msg 443 178 0;
#X msg 406 178 1;
#X obj 157 74 t b b b;
#X obj 76 74 t b b b;
#X obj 394 209 spigot;
#X obj 414 47 ==;
#X obj 394 74 spigot 0;
#X obj 375 16 notein;
#X obj 327 74 spigot 0;
#X obj 25 47 ../../../common/step-seq-sel-3 \$0;
#X obj 432 16 r dbi-#;
#X obj 935 217 ../../../zoom/ctrl;
#X floatatom 827 144 5 0 0 0 - - -;
#X floatatom 703 144 5 0 0 0 - - -;
#X floatatom 1139 188 5 0 0 0 - - -;
#X msg 1015 156 2 2;
#X connect 0 0 11 0;
#X connect 2 0 6 1;
#X connect 3 0 6 1;
#X connect 4 2 2 0;
#X connect 5 2 3 0;
#X connect 7 0 8 1;
#X connect 7 0 10 1;
#X connect 8 0 6 0;
#X connect 9 0 10 0;
#X connect 9 1 8 0;
#X connect 9 2 7 0;
#X connect 11 0 1 0;
#X connect 11 1 5 0;
#X connect 11 2 4 0;
#X connect 12 0 7 1;
#X connect 14 0 13 1;
#X connect 15 0 13 0;
#X connect 16 0 13 3;
#X connect 17 0 13 2;
