#N canvas 129 115 849 649 12;
#X obj 25 16 inlet;
#X obj 25 106 t b b b b b b b;
#X msg 341 176 0;
#X msg 304 176 1;
#X obj 292 207 spigot;
#X obj 25 47 ../../../common/step-seq-sel-3 \$0;
#X obj 124 547 ../../../zoom/ctrl;
#X obj 292 238 spigot;
#X msg 124 455 1;
#X obj 292 267 select 0 1 2 3;
#X msg 137 481 3;
#X msg 190 481 1;
#X msg 232 481 1;
#X obj 417 15 r tick;
#X obj 505 15 r reset;
#X obj 417 385 f;
#X obj 458 385 + 1;
#X obj 417 234 spigot 0;
#X msg 484 199 0;
#X msg 447 199 1;
#X msg 350 206 0;
#X obj 505 45 t a b b b b;
#X obj 76 74 t b b b b;
#X obj 163 76 t b b b b;
#X msg 435 358 0;
#X obj 417 415 route 0 2 3;
#X obj 292 15 r enc-3;
#X obj 315 306 t b b;
#X connect 0 0 5 0;
#X connect 1 0 8 0;
#X connect 1 1 24 0;
#X connect 2 0 4 1;
#X connect 3 0 4 1;
#X connect 4 0 7 0;
#X connect 5 0 1 0;
#X connect 5 1 22 0;
#X connect 5 2 23 0;
#X connect 5 4 7 1;
#X connect 7 0 9 0;
#X connect 8 0 6 0;
#X connect 9 0 8 0;
#X connect 9 1 27 0;
#X connect 10 0 6 0;
#X connect 11 0 6 1;
#X connect 12 0 6 2;
#X connect 13 0 17 0;
#X connect 14 0 21 0;
#X connect 15 0 16 0;
#X connect 15 0 25 0;
#X connect 16 0 15 1;
#X connect 17 0 15 0;
#X connect 18 0 17 1;
#X connect 19 0 17 1;
#X connect 20 0 7 1;
#X connect 21 0 24 0;
#X connect 21 1 2 0;
#X connect 21 2 18 0;
#X connect 21 3 20 0;
#X connect 21 4 8 0;
#X connect 22 1 19 0;
#X connect 22 2 3 0;
#X connect 22 3 10 0;
#X connect 23 1 18 0;
#X connect 23 2 2 0;
#X connect 23 3 8 0;
#X connect 24 0 15 1;
#X connect 25 0 11 0;
#X connect 25 1 12 0;
#X connect 25 2 24 0;
#X connect 26 0 4 0;
#X connect 27 0 10 0;
#X connect 27 1 24 0;
