#N canvas 557 156 1027 801 12;
#X obj 25 16 inlet;
#X obj 25 47 ../../common/step-seq-sel-3 \$0;
#X obj 412 447 ../../kp3/program;
#X obj 519 651 ../../kp3/pad-on;
#X msg 412 408 b 0 \, p 118;
#X obj 244 443 ../../kp3/touch-hi-res;
#X obj 680 613 ../../kp3/pad-off;
#X obj 142 670 ../../kp3/vol;
#X msg 141 632 0;
#X msg 67 628 127;
#X obj 27 122 t b b b b b b b;
#X obj 500 165 spigot;
#X msg 531 113 0;
#X msg 470 119 1;
#X msg 423 632 play \$1;
#X msg 453 599 1;
#X msg 640 598 0;
#X obj 500 68 delay 300;
#X floatatom 504 30 5 0 0 0 - - -;
#X obj 461 542 t b b b;
#X obj 648 568 t b b b;
#X obj 273 91 t b b b;
#X obj 182 105 t b b b;
#X obj 799 205 spigot;
#X obj 714 316 sel 0;
#X obj 748 60 notein 11;
#X msg 244 414 100 110;
#X connect 0 0 1 0;
#X connect 1 0 10 0;
#X connect 1 1 22 0;
#X connect 1 2 21 0;
#X connect 4 0 2 0;
#X connect 8 0 7 0;
#X connect 9 0 7 0;
#X connect 10 0 8 0;
#X connect 10 2 20 0;
#X connect 10 3 26 0;
#X connect 10 4 4 0;
#X connect 11 0 6 0;
#X connect 12 0 11 1;
#X connect 12 0 23 1;
#X connect 13 0 11 1;
#X connect 13 0 23 1;
#X connect 15 0 14 0;
#X connect 16 0 14 0;
#X connect 17 0 11 0;
#X connect 18 0 17 1;
#X connect 19 0 15 0;
#X connect 19 1 3 0;
#X connect 20 0 16 0;
#X connect 20 1 6 0;
#X connect 21 0 20 0;
#X connect 21 1 8 0;
#X connect 21 2 12 0;
#X connect 22 0 19 0;
#X connect 22 1 9 0;
#X connect 22 2 13 0;
#X connect 23 0 24 0;
#X connect 24 0 6 0;
#X connect 24 1 3 0;
#X connect 25 1 23 0;
#X connect 26 0 5 0;
