#N canvas 465 311 1049 641 12;
#X obj 25 16 inlet;
#X msg 294 352 b 0 \, p 118;
#X msg 25 352 0;
#X obj 25 106 t b b b b b b b;
#X msg 443 178 0;
#X msg 406 178 1;
#X obj 157 74 t b b b;
#X obj 76 74 t b b b;
#X obj 394 209 spigot;
#X obj 394 244 sel 0;
#X obj 432 16 r tr-s1-#;
#X obj 414 47 ==;
#X obj 394 74 spigot 0;
#X obj 375 16 notein;
#X msg 126 351 100 \$1;
#X obj 327 74 spigot 0;
#X obj 126 325 + 32;
#X obj 25 47 ../../../../common/step-seq-sel-3 \$0;
#X obj 25 402 ../../../../kp3/vol;
#X obj 126 428 ../../../../kp3/touch-hi-res;
#X obj 294 402 ../../../../kp3/program;
#X obj 426 428 ../../../../kp3/pad-on;
#X obj 567 402 ../../../../kp3/pad-off;
#X connect 0 0 17 0;
#X connect 1 0 20 0;
#X connect 2 0 18 0;
#X connect 3 0 2 0;
#X connect 3 2 22 0;
#X connect 3 4 1 0;
#X connect 4 0 8 1;
#X connect 5 0 8 1;
#X connect 6 0 22 0;
#X connect 6 1 2 0;
#X connect 6 2 4 0;
#X connect 7 2 5 0;
#X connect 8 0 9 0;
#X connect 9 0 22 0;
#X connect 9 1 21 0;
#X connect 10 0 11 1;
#X connect 11 0 12 1;
#X connect 11 0 15 1;
#X connect 12 0 8 0;
#X connect 13 0 15 0;
#X connect 13 1 12 0;
#X connect 13 2 11 0;
#X connect 14 0 19 0;
#X connect 15 0 16 0;
#X connect 16 0 14 0;
#X connect 17 0 3 0;
#X connect 17 1 7 0;
#X connect 17 2 6 0;
