#N canvas 422 230 456 290 12;
#X obj 112 228 ctlout;
#X obj 233 23 inlet;
#X text 241 46 parameter (cc);
#X obj 368 23 inlet;
#X text 371 46 channel;
#X obj 24 129 ../common/lfo;
#X obj 24 23 inlet;
#X text 30 46 tick;
#X obj 112 23 inlet;
#X text 121 46 lfo params;
#X obj 68 23 inlet;
#X text 77 46 reset;
#X connect 1 0 0 1;
#X connect 3 0 0 2;
#X connect 5 1 0 0;
#X connect 6 0 5 0;
#X connect 8 0 5 2;
#X connect 10 0 5 1;
