#N canvas 137 602 521 365 12;
#X obj 41 12 inlet;
#X obj 259 281 noteout;
#X obj 41 47 ../common/step-seq-sel-3 \$0;
#X obj 383 12 r tr-d-#;
#X obj 305 12 r vd-1-#;
#X obj 166 196 ../controller/note-filter;
#X msg 252 164 62;
#X connect 0 0 2 0;
#X connect 2 0 6 0;
#X connect 2 4 5 0;
#X connect 3 0 5 2;
#X connect 4 0 1 2;
#X connect 5 0 1 0;
#X connect 5 1 1 1;
#X connect 6 0 5 1;
