#N canvas 125 522 489 172 12;
#X obj 41 12 inlet;
#X obj 41 47 ../common/step-seq-sel-3 \$0;
#X obj 312 12 r tr-d-#;
#X obj 390 12 r vd-1-#;
#X msg 230 94 62;
#X obj 189 127 ../controller/note-xlate;
#X connect 0 0 1 0;
#X connect 1 0 4 0;
#X connect 1 4 5 0;
#X connect 2 0 5 3;
#X connect 3 0 5 4;
#X connect 4 0 5 1;
