#N canvas 464 268 477 191 12;
#X obj 41 12 inlet;
#X obj 41 47 ../common/step-seq-sel-3 \$0;
#X obj 312 15 r tr-d-#;
#X msg 230 97 64;
#X obj 189 128 ../controller/note-xlate;
#X obj 385 13 r vd-5-#;
#X connect 0 0 1 0;
#X connect 1 0 3 0;
#X connect 1 4 4 0;
#X connect 2 0 4 3;
#X connect 3 0 4 1;
#X connect 5 0 4 4;
