#N canvas 0 0 450 300 12;
#X obj 250 112 r tr-d-#;
#X msg 138 112 62;
#X obj 190 112 r dbi-#;
#X obj 290 176 r tr-d-#;
#X msg 178 176 62;
#X obj 230 176 r dbi-#;
#X obj 87 86 t b b b b;
#X obj 87 14 inlet;
#X obj 13 14 inlet;
#X text 25 36 arm;
#X text 94 36 spigot;
#X obj 35 146 ../controller/note-xlate;
#X obj 75 210 ../controller/note-xlate;
#X obj 35 86 t f f;
#X msg 87 112 38;
#X msg 127 176 50;
#X connect 0 0 11 4;
#X connect 1 0 11 2;
#X connect 2 0 11 3;
#X connect 3 0 12 4;
#X connect 4 0 12 2;
#X connect 5 0 12 3;
#X connect 6 0 14 0;
#X connect 6 1 1 0;
#X connect 6 2 15 0;
#X connect 6 3 4 0;
#X connect 7 0 13 0;
#X connect 8 0 6 0;
#X connect 13 0 11 0;
#X connect 13 1 12 0;
#X connect 14 0 11 1;
#X connect 15 0 12 1;
