#N canvas 137 602 450 300 12;
#X obj 41 12 inlet;
#X obj 259 251 noteout;
#X obj 41 47 ../common/step-seq-sel-3 \$0;
#X obj 166 196 ../common/note-in;
#X obj 368 12 r ea-1-#;
#X obj 282 12 r tr-s2-#;
#X connect 0 0 2 0;
#X connect 2 4 3 0;
#X connect 3 0 1 0;
#X connect 3 1 1 1;
#X connect 4 0 1 2;
#X connect 5 0 3 1;
