#N canvas 390 658 221 195 12;
#X obj 29 17 pgmin;
#X obj 79 18 r tr-pr-#;
#X obj 61 49 ==;
#X obj 29 81 spigot;
#X obj 29 113 - 3;
#X obj 29 146 s tune;
#X connect 0 0 3 0;
#X connect 0 1 2 0;
#X connect 1 0 2 1;
#X connect 2 0 3 1;
#X connect 3 0 4 0;
#X connect 4 0 5 0;
