#N canvas 417 460 353 289 12;
#X obj 29 17 pgmin;
#X obj 79 17 r tr-pr-#;
#X obj 61 49 ==;
#X obj 29 81 spigot;
#X obj 29 249 s tune;
#X msg 29 140 1;
#X msg 49 169 2;
#X obj 29 218 change;
#X obj 183 17 r set-start;
#X obj 29 113 sel 3 4 5;
#X msg 69 192 3;
#X connect 0 0 3 0;
#X connect 0 1 2 0;
#X connect 1 0 2 1;
#X connect 2 0 3 1;
#X connect 3 0 9 0;
#X connect 5 0 7 0;
#X connect 6 0 7 0;
#X connect 7 0 4 0;
#X connect 8 0 10 0;
#X connect 9 0 5 0;
#X connect 9 1 6 0;
#X connect 9 2 10 0;
#X connect 10 0 7 0;
