#N canvas 417 460 353 289 12;
#X obj 29 17 pgmin;
#X obj 79 17 r tr-pr-#;
#X obj 61 49 ==;
#X obj 29 81 spigot;
#X obj 29 249 s tune;
#X obj 29 113 sel 3 4;
#X msg 29 140 1;
#X msg 52 166 2;
#X obj 29 218 change;
#X obj 183 17 r set-start;
#X connect 0 0 3 0;
#X connect 0 1 2 0;
#X connect 1 0 2 1;
#X connect 2 0 3 1;
#X connect 3 0 5 0;
#X connect 5 0 6 0;
#X connect 5 1 7 0;
#X connect 6 0 8 0;
#X connect 7 0 8 0;
#X connect 8 0 4 0;
#X connect 9 0 7 0;
