#N canvas 147 262 442 289 10;
#X obj 279 172 r \$0-seq;
#X obj 28 230 t b b;
#X msg 279 70 b d \, p 12;
#X msg 68 98 play \$1;
#X msg 279 123 124 32 0 127 7 1;
#X msg 279 201 ch 1 \, 34 8 0 \, -1;
#X obj 28 15 inlet;
#X obj 28 51 route arm play;
#X obj 279 92 ../pattern;
#X obj 279 149 ../encoder;
#X obj 279 229 ../sequence-player;
#X connect 0 0 5 0;
#X connect 1 1 2 0;
#X connect 1 1 4 0;
#X connect 2 0 8 0;
#X connect 3 0 10 0;
#X connect 4 0 9 0;
#X connect 5 0 10 0;
#X connect 6 0 7 0;
#X connect 7 0 1 0;
#X connect 7 1 3 0;
