#N canvas 340 286 572 446 10;
#X msg 28 91 play \$1;
#X obj 28 15 inlet;
#X obj 419 396 ../pattern;
#X obj 28 396 ../sequence-player;
#X obj 28 51 route play arm;
#X msg 202 253 add2 \$1;
#X obj 202 230 float;
#X obj 229 15 r ea_1_#;
#X msg 115 284 ch \$1;
#X obj 272 396 ../encoder-motion;
#X msg 272 253 set 3 0 127 7;
#X msg 419 282 b d \, p 12;
#X msg 272 283 3 0 127 7 3;
#X obj 102 91 t b b b b b;
#X msg 102 253 34 0 0 \, -1;
#X obj 63 178 ../../common/drone-resize;
#X msg 63 140 note 34 \, gran 0.25 \, min 0 \, max 64;
#X obj 318 15 r reset;
#X connect 0 0 3 0;
#X connect 0 0 15 0;
#X connect 1 0 4 0;
#X connect 4 0 0 0;
#X connect 4 1 13 0;
#X connect 5 0 12 0;
#X connect 6 0 5 0;
#X connect 6 0 8 0;
#X connect 7 0 6 1;
#X connect 8 0 3 0;
#X connect 10 0 12 0;
#X connect 11 0 2 0;
#X connect 12 0 9 0;
#X connect 13 0 16 0;
#X connect 13 0 14 0;
#X connect 13 1 12 0;
#X connect 13 2 6 0;
#X connect 13 3 10 0;
#X connect 13 4 11 0;
#X connect 14 0 3 0;
#X connect 15 0 3 0;
#X connect 16 0 15 0;
#X connect 17 0 16 0;
