#N canvas 277 462 1357 446 10;
#X msg 28 80 play \$1;
#X obj 28 15 inlet;
#X obj 398 396 ../pattern;
#X obj 28 396 ../sequence-player;
#X msg 202 244 add2 \$1;
#X msg 68 282 ch \$1;
#X obj 272 396 ../encoder-motion;
#X msg 398 282 b d \, p 12;
#X obj 63 178 ../../common/drone-resize;
#X obj 318 15 r reset;
#X obj 217 15 r ea-1-#;
#X obj 202 221 f;
#X obj 882 33 r subpart;
#X obj 622 141 ../../controller/encoder-val;
#X msg 272 282 40 0 75 7 3;
#X obj 381 192 spigot;
#X msg 412 141 1;
#X msg 354 162 0;
#X obj 354 141 t b b;
#X msg 272 221 set 40 0 75 7;
#X msg 63 141 note 34 \, int 0 \, gran 0.25 \, min 0.25 \, max 64;
#X msg 116 282 34 0.25 0 \, -1;
#X obj 102 80 t b b b b b b;
#X obj 622 190 t f b;
#X msg 480 282 reset;
#X obj 622 221 select 0 1 2 3;
#X msg 771 282 39 0.25 0 \, 36 0.25 0 \, 34 0.25 0 \, -1;
#X msg 611 282 offset 2;
#X msg 689 282 offset 5;
#X msg 540 282 offset 0;
#X obj 28 51 route play arm listen;
#X obj 844 111 spigot 0;
#X obj 900 191 print out;
#X msg 622 80 gran 1 \, min 0 \, max 3;
#X msg 659 47 gran 0.5 \, min 1 \, max 2.5;
#X msg 608 9 gran 0.25 \, min 5.25 \, max 6;
#X connect 0 0 3 0;
#X connect 0 0 8 0;
#X connect 0 0 18 0;
#X connect 1 0 30 0;
#X connect 4 0 14 0;
#X connect 5 0 3 0;
#X connect 7 0 2 0;
#X connect 8 0 3 0;
#X connect 9 0 20 0;
#X connect 9 0 33 0;
#X connect 10 0 11 1;
#X connect 11 0 4 0;
#X connect 11 0 5 0;
#X connect 12 0 31 0;
#X connect 13 0 32 0;
#X connect 14 0 6 0;
#X connect 15 0 14 0;
#X connect 16 0 15 1;
#X connect 17 0 15 1;
#X connect 18 0 17 0;
#X connect 18 1 15 0;
#X connect 19 0 14 0;
#X connect 20 0 8 0;
#X connect 21 0 3 0;
#X connect 22 0 20 0;
#X connect 22 1 21 0;
#X connect 22 2 11 0;
#X connect 22 3 19 0;
#X connect 22 4 7 0;
#X connect 22 5 16 0;
#X connect 23 0 25 0;
#X connect 23 1 24 0;
#X connect 24 0 3 0;
#X connect 25 0 29 0;
#X connect 25 1 27 0;
#X connect 25 2 28 0;
#X connect 25 3 26 0;
#X connect 26 0 3 0;
#X connect 27 0 3 0;
#X connect 28 0 3 0;
#X connect 29 0 3 0;
#X connect 30 0 0 0;
#X connect 30 1 22 0;
#X connect 30 2 31 1;
#X connect 31 0 13 0;
#X connect 33 0 13 0;
#X connect 34 0 13 0;
#X connect 35 0 13 0;
