#N canvas 154 365 1357 588 10;
#X msg 28 79 play \$1;
#X obj 28 15 inlet;
#X obj 398 506 ../pattern;
#X obj 28 506 ../sequence-player;
#X msg 202 354 add2 \$1;
#X msg 68 392 ch \$1;
#X obj 272 506 ../encoder-motion;
#X msg 398 392 b d \, p 12;
#X obj 63 288 ../../common/drone-resize;
#X obj 318 15 r reset;
#X obj 217 15 r ea-1-#;
#X obj 202 331 f;
#X obj 672 15 r subpart;
#X obj 672 112 ../../controller/encoder-val;
#X msg 272 392 40 0 75 7 3;
#X obj 381 302 spigot;
#X msg 412 251 1;
#X msg 354 272 0;
#X obj 354 251 t b b;
#X msg 272 331 set 40 0 75 7;
#X msg 116 392 34 0.25 0 \, -1;
#X msg 889 452 reset;
#X msg 943 387 39 0.25 0 \, 36 0.25 0 \, 34 0.25 0 \, -1;
#X msg 798 387 offset 2;
#X msg 876 387 offset 5;
#X msg 727 387 offset 0;
#X obj 28 51 route play arm listen;
#X obj 674 61 spigot 0;
#X obj 750 15 loadbang;
#X obj 110 78 t f f;
#X obj 706 274 f;
#X obj 501 208 expr ($i1 == 0) && ($i2 == 1);
#X msg 672 183 1;
#X msg 642 182 0;
#X obj 706 302 t f b b;
#X obj 501 234 sel 1;
#X obj 943 357 t b b;
#X text 749 205 don't send triggers if subpart was not changed;
#X obj 474 298 print;
#X msg 600 387 34 0.25 0 \, -1;
#X msg 750 61 gran 1 \, min 0 \, max 4;
#X obj 706 326 select 0 1 2 3 4;
#X obj 600 61 spigot 0;
#X obj 508 61 spigot 0;
#X obj 508 15 r note-len;
#X obj 600 357 t b b b;
#X obj 600 15 r br-len;
#X msg 63 251 note 34 \, int 0 \, gran 0.25 \, min 0.25 \, max 20;
#X obj 102 190 t b b b b b b b;
#X msg 238 217 gran 0.25 \, min 0 \, max 20;
#X connect 0 0 3 0;
#X connect 0 0 18 0;
#X connect 1 0 26 0;
#X connect 4 0 14 0;
#X connect 5 0 3 0;
#X connect 7 0 2 0;
#X connect 8 0 3 0;
#X connect 9 0 47 0;
#X connect 9 0 40 0;
#X connect 10 0 11 1;
#X connect 11 0 4 0;
#X connect 11 0 5 0;
#X connect 12 0 27 0;
#X connect 13 0 30 1;
#X connect 13 0 32 0;
#X connect 14 0 6 0;
#X connect 15 0 14 0;
#X connect 16 0 15 1;
#X connect 17 0 15 1;
#X connect 18 0 17 0;
#X connect 18 1 15 0;
#X connect 19 0 14 0;
#X connect 20 0 3 0;
#X connect 21 0 3 0;
#X connect 22 0 3 0;
#X connect 23 0 3 0;
#X connect 24 0 3 0;
#X connect 25 0 3 0;
#X connect 26 0 0 0;
#X connect 26 1 48 0;
#X connect 26 2 29 0;
#X connect 27 0 13 0;
#X connect 28 0 40 0;
#X connect 29 0 27 1;
#X connect 29 0 42 1;
#X connect 29 0 43 1;
#X connect 29 1 31 0;
#X connect 30 0 34 0;
#X connect 31 0 35 0;
#X connect 32 0 31 1;
#X connect 33 0 31 1;
#X connect 34 0 41 0;
#X connect 34 2 33 0;
#X connect 35 0 30 0;
#X connect 36 0 22 0;
#X connect 36 1 21 0;
#X connect 39 0 3 0;
#X connect 40 0 13 0;
#X connect 41 0 45 0;
#X connect 41 1 25 0;
#X connect 41 2 23 0;
#X connect 41 3 24 0;
#X connect 41 4 36 0;
#X connect 42 0 8 3;
#X connect 43 0 8 1;
#X connect 44 0 43 0;
#X connect 45 0 39 0;
#X connect 45 1 21 0;
#X connect 45 2 25 0;
#X connect 46 0 42 0;
#X connect 47 0 8 0;
#X connect 48 0 47 0;
#X connect 48 1 20 0;
#X connect 48 2 11 0;
#X connect 48 3 19 0;
#X connect 48 4 7 0;
#X connect 48 5 16 0;
#X connect 48 6 49 0;
#X connect 49 0 8 2;
