#N canvas -14 275 1421 712 10;
#X msg 27 231 play \$1;
#X obj 28 15 inlet;
#X obj 398 636 ../pattern;
#X obj 28 636 ../sequence-player;
#X msg 202 354 add2 \$1;
#X msg 68 392 ch \$1;
#X obj 173 636 ../encoder-motion;
#X msg 398 392 b d \, p 12;
#X obj 63 288 ../../common/drone-resize;
#X obj 318 15 r reset;
#X obj 217 15 r ea-1-#;
#X obj 202 331 f;
#X msg 272 392 0 75 7 19;
#X obj 381 302 spigot;
#X msg 414 251 1;
#X msg 354 272 0;
#X obj 354 251 t b b;
#X msg 126 392 34 0.25 0 \, -1;
#X msg 619 583 reset;
#X msg 669 518 39 0.25 0 \, 36 0.25 0 \, 34 0.25 0 \, -1;
#X msg 639 440 offset 2;
#X msg 659 467 offset 5;
#X msg 623 415 offset 0;
#X obj 669 494 t b b;
#X msg 600 387 34 0.25 0 \, -1;
#X obj 600 129 spigot 0;
#X obj 508 129 spigot 0;
#X obj 600 357 t b b b;
#X obj 431 129 spigot 0;
#X msg 27 181 0;
#X obj 72 181 f -1;
#X obj 961 636 ../random-player;
#X obj 961 508 spigot 0;
#X msg 1006 471 1;
#X msg 1054 471 57 60 62;
#X obj 961 15 r tick-4;
#X msg 967 471 0;
#X obj 706 200 t f b;
#X obj 1006 447 t b b;
#X obj 1262 636 intro-d12;
#X msg 1262 549 arm;
#X obj 28 68 t b b b b b b b b b;
#X msg 1262 571 listen \$1;
#X msg 696 545 play 0;
#X msg 1262 596 play 0;
#X obj 136 15 r tick-8;
#X obj 72 148 t b b;
#X msg 272 331 set 0 75 7;
#X obj 28 39 ../../common/step-seq-sel-3 \$0;
#X obj 768 636 ../encoder-set;
#X obj 768 557 f;
#X msg 768 583 1.6 8 \$1;
#X obj 706 15 r enc-1;
#X obj 431 15 r enc-3;
#X obj 508 15 r enc-6;
#X obj 600 15 r enc-7;
#X obj 1104 15 r notes;
#X obj 1104 581 spigot 0;
#X msg 1121 550 1;
#X msg 1156 549 0;
#X obj 1104 636 noteout;
#X obj 1104 605 unpack;
#X obj 706 129 spigot 0;
#X obj 967 398 sel 0;
#X obj 318 39 t b b;
#X obj 776 129 spigot 0;
#X obj 776 15 r enc-2;
#X obj 205 68 t f f f f f f;
#X obj 776 164 + 5;
#X obj 706 263 ../../controller/skip;
#X msg 829 237 2;
#X obj 650 357 t b b;
#X msg 795 236 3;
#X obj 508 155 t f b b;
#X msg 63 251 note 34;
#X msg 710 583 7 7 \$1;
#X obj 706 300 select 0 1 2 3 4 5 6 7;
#X connect 0 0 3 0;
#X connect 1 0 48 0;
#X connect 4 0 12 0;
#X connect 5 0 3 0;
#X connect 5 0 31 1;
#X connect 7 0 2 0;
#X connect 8 0 3 0;
#X connect 9 0 64 0;
#X connect 10 0 11 1;
#X connect 10 0 50 1;
#X connect 10 0 60 2;
#X connect 11 0 4 0;
#X connect 11 0 5 0;
#X connect 12 0 6 2;
#X connect 13 0 12 0;
#X connect 14 0 13 1;
#X connect 15 0 13 1;
#X connect 16 0 15 0;
#X connect 16 1 13 0;
#X connect 17 0 3 0;
#X connect 18 0 3 0;
#X connect 19 0 3 0;
#X connect 20 0 3 0;
#X connect 20 0 31 1;
#X connect 21 0 3 0;
#X connect 21 0 31 1;
#X connect 22 0 3 0;
#X connect 22 0 31 1;
#X connect 23 0 19 0;
#X connect 23 1 18 0;
#X connect 24 0 3 0;
#X connect 25 0 8 2;
#X connect 26 0 73 0;
#X connect 27 0 24 0;
#X connect 27 1 18 0;
#X connect 27 2 22 0;
#X connect 28 0 30 1;
#X connect 29 0 0 0;
#X connect 30 0 0 0;
#X connect 32 0 31 0;
#X connect 33 0 32 1;
#X connect 34 0 31 1;
#X connect 35 0 32 0;
#X connect 36 0 32 1;
#X connect 37 0 69 0;
#X connect 37 1 59 0;
#X connect 38 0 33 0;
#X connect 38 1 34 0;
#X connect 40 0 39 0;
#X connect 41 0 74 0;
#X connect 41 1 17 0;
#X connect 41 2 11 0;
#X connect 41 3 47 0;
#X connect 41 4 7 0;
#X connect 41 5 14 0;
#X connect 41 8 40 0;
#X connect 42 0 39 0;
#X connect 43 0 3 0;
#X connect 44 0 39 0;
#X connect 45 0 6 0;
#X connect 46 0 30 0;
#X connect 46 1 6 1;
#X connect 47 0 12 0;
#X connect 48 0 41 0;
#X connect 48 1 16 0;
#X connect 48 1 46 0;
#X connect 48 2 36 0;
#X connect 48 2 44 0;
#X connect 48 2 29 0;
#X connect 48 2 59 0;
#X connect 48 4 67 0;
#X connect 50 0 51 0;
#X connect 50 0 75 0;
#X connect 51 0 49 0;
#X connect 52 0 62 0;
#X connect 53 0 28 0;
#X connect 54 0 26 0;
#X connect 55 0 25 0;
#X connect 56 0 57 0;
#X connect 57 0 61 0;
#X connect 58 0 57 1;
#X connect 59 0 57 1;
#X connect 61 0 60 0;
#X connect 61 1 60 1;
#X connect 62 0 37 0;
#X connect 63 0 36 0;
#X connect 64 1 74 0;
#X connect 65 0 68 0;
#X connect 66 0 65 0;
#X connect 67 0 25 1;
#X connect 67 0 26 1;
#X connect 67 0 28 1;
#X connect 67 2 42 0;
#X connect 67 3 62 1;
#X connect 67 4 63 0;
#X connect 67 5 65 1;
#X connect 68 0 37 0;
#X connect 69 0 76 0;
#X connect 70 0 69 1;
#X connect 71 0 21 0;
#X connect 71 1 70 0;
#X connect 72 0 69 1;
#X connect 73 0 8 1;
#X connect 73 1 72 0;
#X connect 73 2 70 0;
#X connect 74 0 8 0;
#X connect 75 0 49 0;
#X connect 76 0 27 0;
#X connect 76 1 22 0;
#X connect 76 2 20 0;
#X connect 76 3 71 0;
#X connect 76 6 38 0;
#X connect 76 6 50 0;
#X connect 76 7 58 0;
#X connect 76 7 36 0;
#X connect 76 7 50 0;
#X connect 76 7 43 0;
