#N canvas 981 291 521 437 10;
#X msg 419 368 b d \, p 12;
#X msg 28 89 play \$1;
#X obj 28 15 inlet;
#X obj 419 396 ../pattern;
#X obj 28 396 ../sequence-player;
#X obj 28 51 route play arm;
#X obj 171 110 t b b b b b;
#X msg 272 283 32 0 127 7 3;
#X msg 202 253 add2 \$1;
#X obj 202 230 float;
#X obj 229 15 r ea_1_#;
#X msg 95 283 ch \$1;
#X obj 272 396 ../encoder-motion;
#X obj 67 154 print count;
#X msg 87 253 34 2 0 \, -1;
#X msg 272 253 set 3 0 127 7;
#X connect 0 0 3 0;
#X connect 1 0 4 0;
#X connect 1 0 13 0;
#X connect 2 0 5 0;
#X connect 5 0 1 0;
#X connect 5 1 6 0;
#X connect 6 0 14 0;
#X connect 6 1 7 0;
#X connect 6 2 9 0;
#X connect 6 3 15 0;
#X connect 6 4 0 0;
#X connect 7 0 12 0;
#X connect 8 0 7 0;
#X connect 9 0 8 0;
#X connect 9 0 11 0;
#X connect 10 0 9 1;
#X connect 11 0 4 0;
#X connect 14 0 4 0;
#X connect 15 0 7 0;
