#N canvas 418 343 1137 604 10;
#X msg 28 91 play \$1;
#X obj 28 15 inlet;
#X obj 28 51 route play arm;
#X obj 189 15 r ea-2-#;
#X obj 28 441 ../sequence-player;
#X msg 174 194 ch \$1;
#X obj 174 171 f;
#X msg 328 73 reset;
#X msg 284 38 play 0;
#X obj 764 327 ../pattern;
#X msg 705 111 ch 3;
#X msg 794 112 ch 4;
#X msg 414 117 play 1;
#X msg 38 168 nlb 1;
#X msg 101 169 offset 0;
#X msg 732 222 b a \, p 40;
#X msg 881 202 b a \, p 52;
#X msg 889 230 b c \, p 23;
#X msg 893 258 b d \, p 12;
#X obj 564 18 r tick;
#X obj 102 91 t b b b b;
#X msg 651 10 0;
#X obj 534 47 spigot 0;
#X msg 695 10 1;
#X msg 214 348 34 3.26606 0.234363 \, 34 0.231358 0 \, -1;
#X msg 486 294 offset 10;
#X obj 535 79 ../../common/beat-filter 16;
#X connect 0 0 4 0;
#X connect 1 0 2 0;
#X connect 2 0 0 0;
#X connect 2 1 20 0;
#X connect 3 0 6 1;
#X connect 5 0 4 0;
#X connect 6 0 5 0;
#X connect 7 0 4 0;
#X connect 8 0 4 0;
#X connect 10 0 4 0;
#X connect 11 0 4 0;
#X connect 12 0 4 0;
#X connect 13 0 4 0;
#X connect 14 0 4 0;
#X connect 15 0 9 0;
#X connect 16 0 9 0;
#X connect 17 0 9 0;
#X connect 18 0 9 0;
#X connect 19 0 22 0;
#X connect 20 0 13 0;
#X connect 20 1 14 0;
#X connect 20 2 6 0;
#X connect 20 3 24 0;
#X connect 21 0 22 1;
#X connect 22 0 26 0;
#X connect 23 0 22 1;
#X connect 24 0 4 0;
#X connect 25 0 4 0;
#X connect 26 0 12 0;
