#N canvas 528 267 1137 604 10;
#X msg 28 74 play \$1;
#X obj 28 15 inlet;
#X obj 160 13 r ea-2-#;
#X obj 28 552 ../sequence-player;
#X msg 144 191 ch \$1;
#X obj 144 168 f;
#X msg 358 386 reset;
#X msg 244 340 play 0;
#X obj 705 537 ../pattern;
#X msg 670 383 ch 3;
#X msg 759 384 ch 4;
#X msg 444 430 play 1;
#X msg 38 168 nlb 1;
#X msg 81 167 offset 0;
#X msg 656 265 0;
#X obj 499 319 spigot 0;
#X msg 700 265 1;
#X msg 227 466 34 3.26606 0.234363 \, 34 0.231358 0 \, -1;
#X msg 427 504 offset 10;
#X obj 28 40 route play arm listen;
#X obj 569 273 r tick-64;
#X obj 280 13 r sub-2;
#X obj 280 215 spigot 0;
#X obj 102 74 t b b b b b;
#X msg 255 189 gran 1 \, min 0 \, max 1;
#X obj 280 258 ../../controller/subpart-selector;
#X obj 280 288 select 0 1 2 3 4 5;
#X obj 189 74 t f f;
#X msg 299 341 play 1;
#X msg 615 453 b a \, p 31;
#X msg 701 452 b a \, p 19;
#X msg 830 440 b a \, p 34;
#X msg 833 468 b d \, p 2;
#X connect 0 0 3 0;
#X connect 1 0 19 0;
#X connect 2 0 5 1;
#X connect 4 0 3 0;
#X connect 5 0 4 0;
#X connect 6 0 3 0;
#X connect 7 0 3 0;
#X connect 9 0 3 0;
#X connect 10 0 3 0;
#X connect 11 0 3 0;
#X connect 12 0 3 0;
#X connect 13 0 3 0;
#X connect 14 0 15 1;
#X connect 15 0 11 0;
#X connect 16 0 15 1;
#X connect 17 0 3 0;
#X connect 18 0 3 0;
#X connect 19 0 0 0;
#X connect 19 1 23 0;
#X connect 19 2 27 0;
#X connect 20 0 15 0;
#X connect 21 0 22 0;
#X connect 22 0 25 0;
#X connect 23 0 12 0;
#X connect 23 1 13 0;
#X connect 23 2 5 0;
#X connect 23 3 17 0;
#X connect 23 4 24 0;
#X connect 24 0 25 0;
#X connect 25 0 26 0;
#X connect 26 0 7 0;
#X connect 26 1 28 0;
#X connect 27 0 22 1;
#X connect 27 1 25 1;
#X connect 28 0 3 0;
#X connect 29 0 8 0;
#X connect 30 0 8 0;
#X connect 31 0 8 0;
#X connect 32 0 8 0;
