#N canvas 431 257 1137 604 10;
#X msg 28 91 play \$1;
#X obj 28 15 inlet;
#X obj 28 51 route play arm;
#X obj 189 15 r ea-2-#;
#X obj 28 441 ../sequence-player;
#X msg 174 194 ch \$1;
#X obj 102 91 t b b b b;
#X obj 174 171 f;
#X msg 328 73 reset;
#X msg 284 38 play 0;
#X obj 764 327 ../pattern;
#X msg 705 111 ch 3;
#X msg 794 112 ch 4;
#X msg 417 50 play 1;
#X msg 38 168 nlb 1;
#X msg 101 169 offset 0;
#X msg 732 222 b a \, p 40;
#X msg 881 202 b a \, p 52;
#X msg 889 230 b c \, p 23;
#X msg 893 258 b d \, p 12;
#X msg 214 348 71 0.351544 0.459712 \, 69 0.255395 0.555861 \, 73 0.393609
2.14232 \, 71 0.318493 0.417647 \, 69 0.21333 0.597926 \, 73 0.321498
0.537833 \, 71 0.243377 0.624968 \, 69 0.288447 0.27804 \, -1;
#X obj 564 18 r tick;
#X obj 568 56 ../../common/beat-filter 8;
#X msg 672 464 5000;
#X obj 611 533 stripnote;
#X msg 693 535 4;
#X obj 617 564 noteout 100;
#X obj 610 502 makenote 3;
#X msg 543 455 69;
#X msg 590 410 71;
#X msg 592 458 74;
#X obj 831 498 ../notes;
#X obj 886 426 noteout;
#X msg 899 381 1;
#X msg 855 371 70;
#X msg 754 369 0;
#X msg 824 391 30;
#X floatatom 896 342 5 0 0 0 - - -;
#X connect 0 0 4 0;
#X connect 1 0 2 0;
#X connect 2 0 0 0;
#X connect 2 1 6 0;
#X connect 3 0 7 1;
#X connect 5 0 4 0;
#X connect 6 0 14 0;
#X connect 6 1 15 0;
#X connect 6 2 7 0;
#X connect 6 3 20 0;
#X connect 7 0 5 0;
#X connect 8 0 4 0;
#X connect 9 0 4 0;
#X connect 11 0 4 0;
#X connect 12 0 4 0;
#X connect 13 0 4 0;
#X connect 14 0 4 0;
#X connect 15 0 4 0;
#X connect 16 0 10 0;
#X connect 17 0 10 0;
#X connect 18 0 10 0;
#X connect 19 0 10 0;
#X connect 20 0 4 0;
#X connect 21 0 22 0;
#X connect 22 0 13 0;
#X connect 23 0 27 2;
#X connect 24 0 26 0;
#X connect 24 1 26 1;
#X connect 25 0 26 2;
#X connect 25 0 32 2;
#X connect 27 0 31 0;
#X connect 27 1 24 1;
#X connect 28 0 27 0;
#X connect 29 0 27 0;
#X connect 30 0 27 0;
#X connect 33 0 32 1;
#X connect 34 0 32 0;
#X connect 35 0 32 1;
#X connect 36 0 32 0;
#X connect 37 0 32 0;
