#N canvas 536 235 1137 782 10;
#X msg 28 74 play \$1;
#X obj 28 15 inlet;
#X obj 160 15 r ea-2-#;
#X obj 28 647 ../sequence-player;
#X msg 145 166 ch \$1;
#X obj 145 143 f;
#X msg 177 384 reset;
#X msg 407 281 play 0;
#X msg 38 166 nlb 1;
#X msg 81 166 offset 0;
#X obj 28 40 route play arm listen;
#X obj 455 194 ../../controller/subpart-selector;
#X obj 189 74 t f f;
#X obj 398 15 r tick;
#X msg 398 582 play 1;
#X obj 398 555 spigot 0;
#X msg 443 520 0;
#X msg 482 520 1;
#X obj 455 220 sel 0;
#X obj 455 247 t b b;
#X obj 482 281 t b f b;
#X obj 102 15 r reset;
#X obj 102 74 t b b b b b b;
#X obj 455 15 r part-2;
#X obj 501 308 sel 1 2 3;
#X msg 650 145 gran 1 \, min 0 \, max 3;
#X msg 501 380 33 0.952475 0.047525 \, -1;
#X obj 297 301 select 0;
#X msg 520 443 33 0.255395 0.291451 \, 33 0.321498 0.504782 \, 33 0.384596
0.570884 \, 33 0.330512 0.222344 \, 36 0.300465 0.201312 \, 38 0.321498
0.267414 \, -1;
#X obj 877 469 ../setting;
#X obj 520 332 t b b b;
#X msg 876 443 38 12 4;
#X msg 935 443 38 13 4;
#X msg 535 508 33 0.25 0.5 \, 33 0.25 0.75 \, 33 0.25 0.75 \, 33 0.25
0.25 \, 36 0.25 0 \, 38 0.25 0.25 \, -1;
#X obj 880 300 ../../common/step-seq-player;
#X connect 0 0 3 0;
#X connect 1 0 10 0;
#X connect 2 0 5 1;
#X connect 4 0 3 0;
#X connect 5 0 4 0;
#X connect 6 0 3 0;
#X connect 7 0 3 0;
#X connect 8 0 3 0;
#X connect 9 0 3 0;
#X connect 10 0 0 0;
#X connect 10 0 27 0;
#X connect 10 1 22 0;
#X connect 10 2 12 0;
#X connect 11 0 18 0;
#X connect 12 1 11 1;
#X connect 13 0 15 0;
#X connect 14 0 3 0;
#X connect 15 0 14 0;
#X connect 16 0 15 1;
#X connect 17 0 15 1;
#X connect 18 0 19 0;
#X connect 18 1 20 0;
#X connect 19 0 7 0;
#X connect 19 1 16 0;
#X connect 20 0 17 0;
#X connect 20 1 24 0;
#X connect 20 2 6 0;
#X connect 21 0 22 0;
#X connect 22 0 8 0;
#X connect 22 1 9 0;
#X connect 22 2 5 0;
#X connect 22 3 26 0;
#X connect 22 4 25 0;
#X connect 22 5 6 0;
#X connect 23 0 11 0;
#X connect 24 0 26 0;
#X connect 24 1 30 0;
#X connect 24 2 33 0;
#X connect 25 0 11 2;
#X connect 26 0 3 0;
#X connect 27 0 16 0;
#X connect 28 0 3 0;
#X connect 30 0 28 0;
#X connect 30 1 31 0;
#X connect 30 2 32 0;
#X connect 31 0 29 0;
#X connect 32 0 29 0;
#X connect 33 0 3 0;
