#N canvas 316 373 1191 663 10;
#X msg 28 91 play \$1;
#X obj 28 15 inlet;
#X obj 419 396 ../pattern;
#X obj 28 396 ../sequence-player;
#X obj 28 51 route play arm;
#X msg 202 253 add2 \$1;
#X obj 202 230 float;
#X obj 229 15 r ea_1_#;
#X msg 95 283 ch \$1;
#X obj 272 396 ../encoder-motion;
#X msg 272 253 set 3 0 127 7;
#X msg 419 282 b d \, p 12;
#X msg 272 283 3 0 127 7 3;
#X obj 102 91 t b b b b b;
#X msg 87 253 34 0 0 \, -1;
#X obj 63 201 ../../common/drone-resize;
#X msg 63 150 note 34 \, gran 0.25 \, min 0 \, max 64;
#X obj 318 15 r reset;
#X msg 770 288 0;
#X obj 769 380 f;
#X obj 704 332 bng 15 250 50 0 empty empty empty 17 7 0 10 -262144
-1 -1;
#X obj 821 379 + 1;
#X floatatom 699 489 5 0 0 0 - - -;
#X obj 756 415 mod 16;
#X floatatom 782 589 5 0 0 0 - - -;
#X obj 869 529 >= 0;
#X floatatom 869 591 5 0 0 0 - - -;
#N canvas 193 251 754 540 (subpatch) 0;
#X array notes 16 float 3;
#A 0 0 3 12 9 9 15 15 -1 3 -1 3 0 3 0 3 -1;
#X coords 0 540 1 539 200 140 0;
#X restore 817 126 graph;
#X obj 782 472 tabread notes;
#N canvas 193 251 754 540 (subpatch) 0;
#X array notes2 16 float 3;
#A 0 0 3 12 3 3 3 5 -1 3 -1 3 0 3 0 3 -1;
#X coords 0 540 1 539 200 140 0;
#X restore 890 134 graph;
#X floatatom 937 588 5 0 0 0 - - -;
#X obj 1024 528 >= 0;
#X floatatom 1024 590 5 0 0 0 - - -;
#X obj 937 471 tabread notes2;
#X obj 1101 589 print note;
#X msg 634 74 0;
#X obj 624 163 f;
#X obj 568 118 bng 15 250 50 0 empty empty empty 17 7 0 10 -262144
-1 -1;
#X obj 615 284 bang;
#X obj 973 260 ../../tools/counter;
#X obj 932 199 bng 15 250 50 0 empty empty empty 17 7 0 10 -262144
-1 -1;
#X obj 973 283 print count;
#X obj 658 254 moses 16;
#X obj 576 360 print here;
#X obj 708 194 + 1;
#X obj 536 328 delay 0;
#X obj 780 44 pipe;
#X msg 964 177 from 7 \, to 18;
#X connect 0 0 3 0;
#X connect 0 0 15 0;
#X connect 1 0 4 0;
#X connect 4 0 0 0;
#X connect 4 1 13 0;
#X connect 5 0 12 0;
#X connect 6 0 5 0;
#X connect 6 0 8 0;
#X connect 7 0 6 1;
#X connect 8 0 3 0;
#X connect 10 0 12 0;
#X connect 11 0 2 0;
#X connect 12 0 9 0;
#X connect 13 0 16 0;
#X connect 13 0 14 0;
#X connect 13 1 12 0;
#X connect 13 2 6 0;
#X connect 13 3 10 0;
#X connect 13 4 11 0;
#X connect 14 0 3 0;
#X connect 15 0 3 0;
#X connect 16 0 15 0;
#X connect 17 0 16 0;
#X connect 18 0 19 1;
#X connect 19 0 21 0;
#X connect 19 0 23 0;
#X connect 20 0 19 0;
#X connect 21 0 19 1;
#X connect 23 0 22 0;
#X connect 23 0 28 0;
#X connect 23 0 33 0;
#X connect 25 0 26 0;
#X connect 28 0 24 0;
#X connect 28 0 25 0;
#X connect 31 0 32 0;
#X connect 33 0 30 0;
#X connect 33 0 31 0;
#X connect 33 0 34 0;
#X connect 35 0 36 1;
#X connect 36 0 42 0;
#X connect 36 0 44 0;
#X connect 36 0 43 0;
#X connect 37 0 36 0;
#X connect 38 0 43 0;
#X connect 38 0 45 0;
#X connect 39 0 41 0;
#X connect 40 0 39 0;
#X connect 42 0 38 0;
#X connect 44 0 36 1;
#X connect 45 0 36 0;
#X connect 47 0 39 0;
