#N canvas 261 88 1191 776 10;
#X msg 28 91 play \$1;
#X obj 28 15 inlet;
#X obj 419 396 ../pattern;
#X obj 28 396 ../sequence-player;
#X obj 28 51 route play arm;
#X msg 202 253 add2 \$1;
#X obj 202 230 float;
#X obj 229 15 r ea_1_#;
#X msg 95 283 ch \$1;
#X obj 272 396 ../encoder-motion;
#X msg 272 253 set 3 0 127 7;
#X msg 419 282 b d \, p 12;
#X msg 272 283 3 0 127 7 3;
#X obj 102 91 t b b b b b;
#X msg 87 253 34 0 0 \, -1;
#X obj 63 201 ../../common/drone-resize;
#X msg 63 150 note 34 \, gran 0.25 \, min 0 \, max 64;
#X obj 318 15 r reset;
#N canvas 193 251 754 540 (subpatch) 0;
#X array notes 16 float 3;
#A 0 0 3 12 9 9 15 15 -1 3 -1 3 0 3 0 3 -1;
#X coords 0 540 1 539 200 140 0;
#X restore 836 20 graph;
#X obj 765 251 tabread notes;
#N canvas 193 251 754 540 (subpatch) 0;
#X array notes2 16 float 3;
#A 0 0 3 12 3 3 3 5 -1 3 -1 3 0 3 0 3 -1;
#X coords 0 540 1 539 200 140 0;
#X restore 951 19 graph;
#X floatatom 1017 340 5 0 0 0 - - -;
#X obj 1051 303 >= 0;
#X floatatom 1052 339 5 0 0 0 - - -;
#X obj 1016 249 tabread notes2;
#X obj 735 169 ../../tools/counter;
#X msg 815 138 from 0 \, to 15;
#X text 797 20 notes;
#X text 904 20 notes2;
#X msg 628 312 set;
#X msg 710 625 0 1 0 \, 3 1 0 \, 12 1 0 \, 9 1 0 \, 9 1 0 \, 15 1 0
\, 15 1 0 \, 0 0 1 \, 3 1 0 \, 0 0 1 \, 3 1 0 \, 0 1 0 \, 3 1 0 \,
0 1 0 \, 3 1 0 \, 0 0 1 \, -1;
#X obj 783 296 moses 0;
#X msg 836 553 add2 \$1 1 0 \,;
#X msg 727 463 add2 0 0 1 \,;
#X obj 862 338 t b f;
#X obj 787 328 t b b;
#X msg 807 407 addcomma;
#X obj 573 43 bng 15 250 50 0 empty empty empty 17 7 0 10 -262144 -1
-1;
#X obj 629 48 loadbang;
#X obj 625 84 t b b b b b;
#X msg 929 310 add2 -1;
#X obj 157 489 print z1;
#X obj 233 489 print z2;
#X obj 157 461 route list float symbol bang;
#X obj 310 489 print z3;
#X obj 387 489 print z4;
#X obj 461 489 print z5;
#X obj 756 201 route float bang;
#X obj 884 253 t b b;
#X connect 0 0 3 0;
#X connect 0 0 15 0;
#X connect 1 0 4 0;
#X connect 4 0 0 0;
#X connect 4 1 13 0;
#X connect 5 0 12 0;
#X connect 6 0 5 0;
#X connect 6 0 8 0;
#X connect 7 0 6 1;
#X connect 8 0 3 0;
#X connect 10 0 12 0;
#X connect 11 0 2 0;
#X connect 12 0 9 0;
#X connect 13 0 16 0;
#X connect 13 0 14 0;
#X connect 13 1 12 0;
#X connect 13 2 6 0;
#X connect 13 3 10 0;
#X connect 13 4 11 0;
#X connect 14 0 3 0;
#X connect 15 0 3 0;
#X connect 16 0 15 0;
#X connect 17 0 16 0;
#X connect 19 0 31 0;
#X connect 22 0 23 0;
#X connect 24 0 21 0;
#X connect 24 0 22 0;
#X connect 25 0 47 0;
#X connect 26 0 25 0;
#X connect 29 0 30 0;
#X connect 31 0 35 0;
#X connect 31 1 34 0;
#X connect 32 0 30 0;
#X connect 33 0 30 0;
#X connect 34 0 36 0;
#X connect 34 1 32 0;
#X connect 35 0 36 0;
#X connect 35 1 33 0;
#X connect 36 0 30 0;
#X connect 37 0 39 0;
#X connect 38 0 39 0;
#X connect 39 2 25 0;
#X connect 39 3 26 0;
#X connect 39 4 29 0;
#X connect 40 0 30 0;
#X connect 43 0 41 0;
#X connect 43 1 42 0;
#X connect 43 2 44 0;
#X connect 43 3 45 0;
#X connect 43 4 46 0;
#X connect 47 0 19 0;
#X connect 47 1 48 0;
#X connect 48 0 30 0;
#X connect 48 1 40 0;
