#N canvas 523 242 1137 782 10;
#X msg 28 74 play \$1;
#X obj 28 15 inlet;
#X obj 160 15 r ea-2-#;
#X obj 28 647 ../sequence-player;
#X msg 145 166 ch \$1;
#X obj 145 143 f;
#X msg 177 384 reset;
#X msg 407 281 play 0;
#X msg 38 166 nlb 1;
#X msg 81 167 offset 0;
#X obj 28 40 route play arm listen;
#X obj 455 166 spigot 0;
#X obj 455 194 ../../controller/subpart-selector;
#X obj 189 74 t f f;
#X obj 398 15 r tick;
#X msg 398 582 play 1;
#X obj 398 555 spigot 0;
#X msg 443 520 0;
#X msg 482 521 1;
#X msg 147 421 57 0.889377 14.1609 \, -1;
#X msg 518 336 57 0.889377 7.0609 \, -1;
#X obj 455 220 sel 0;
#X obj 455 247 t b b;
#X obj 482 281 t b f b;
#X obj 102 15 r reset;
#X obj 102 74 t b b b b b b;
#X obj 455 15 r part-2;
#X msg 535 365 57 0.279433 0.204316 \, 60 0.288447 0.225349 \, 62 0.276428
0.500678 \, -1;
#X obj 501 308 sel 1 2 3;
#X msg 428 139 gran 1 \, min 0 \, max 3;
#X connect 0 0 3 0;
#X connect 1 0 10 0;
#X connect 2 0 5 1;
#X connect 4 0 3 0;
#X connect 5 0 4 0;
#X connect 6 0 3 0;
#X connect 7 0 3 0;
#X connect 8 0 3 0;
#X connect 9 0 3 0;
#X connect 10 0 0 0;
#X connect 10 1 25 0;
#X connect 10 2 13 0;
#X connect 11 0 12 0;
#X connect 12 0 21 0;
#X connect 13 0 11 1;
#X connect 13 1 12 1;
#X connect 14 0 16 0;
#X connect 15 0 3 0;
#X connect 16 0 15 0;
#X connect 17 0 16 1;
#X connect 18 0 16 1;
#X connect 19 0 3 0;
#X connect 20 0 3 0;
#X connect 21 0 22 0;
#X connect 21 1 23 0;
#X connect 22 0 7 0;
#X connect 22 1 17 0;
#X connect 23 0 18 0;
#X connect 23 1 28 0;
#X connect 23 2 6 0;
#X connect 24 0 25 0;
#X connect 25 0 8 0;
#X connect 25 1 9 0;
#X connect 25 2 5 0;
#X connect 25 3 19 0;
#X connect 25 4 29 0;
#X connect 25 5 6 0;
#X connect 26 0 11 0;
#X connect 27 0 3 0;
#X connect 28 0 19 0;
#X connect 28 1 20 0;
#X connect 28 2 27 0;
#X connect 29 0 12 0;
