#N canvas 214 421 680 476 10;
#X msg 28 91 play \$1;
#X obj 28 15 inlet;
#X obj 28 51 route play arm;
#X obj 189 15 r ea-2-#;
#X obj 28 396 ../sequence-player;
#X msg 174 194 ch \$1;
#X msg 101 169 offset 80;
#X msg 38 168 nlb 0.25;
#X obj 102 91 t b b b b;
#X msg 223 138 0 1 0 \, 3 1 0 \, 12 1 0 \, 3 1 0 \, 3 1 0 \, 3 1 0
\, 5 1 1 \, 3 1 1 \, 3 1 0 \, 0 1 0 \, 3 1 0 \, 0 1 0 \, 3 1 1 \, -1
;
#X msg 240 194 0 1 0 \, 3 1 0 \, 12 1 13 \, -1;
#X obj 174 171 f;
#X msg 328 73 reset;
#X msg 238 243 0 1 0 \, 3 1 0 \, 14 1 13 \, -1;
#X msg 307 283 2 0.5 3.5 \, 2 0.5 3.75 \, -1;
#X connect 0 0 4 0;
#X connect 1 0 2 0;
#X connect 2 0 0 0;
#X connect 2 1 8 0;
#X connect 3 0 11 1;
#X connect 5 0 4 0;
#X connect 6 0 4 0;
#X connect 7 0 4 0;
#X connect 8 0 7 0;
#X connect 8 1 6 0;
#X connect 8 2 11 0;
#X connect 8 3 10 0;
#X connect 9 0 4 0;
#X connect 10 0 4 0;
#X connect 11 0 5 0;
#X connect 12 0 4 0;
#X connect 13 0 4 0;
#X connect 14 0 4 0;
