#N canvas 468 235 1137 782 10;
#X msg 28 74 play \$1;
#X obj 28 15 inlet;
#X obj 160 15 r ea-2-#;
#X obj 28 647 ../sequence-player;
#X msg 145 166 ch \$1;
#X obj 145 143 f;
#X msg 174 383 reset;
#X msg 171 493 play 0;
#X msg 38 166 nlb 1;
#X msg 81 166 offset 0;
#X obj 28 40 route play arm listen;
#X obj 455 194 ../../controller/subpart-selector;
#X obj 201 74 t f f;
#X obj 265 15 r tick;
#X msg 265 573 play 1;
#X obj 265 546 spigot 0;
#X msg 310 511 0;
#X msg 347 510 1;
#X obj 455 220 sel 0;
#X obj 455 247 t b b;
#X obj 102 15 r reset;
#X obj 455 15 r part-2;
#X obj 494 247 sel 1 2 3;
#X msg 650 170 gran 1 \, min 0 \, max 3;
#X obj 310 468 select 0;
#X obj 586 647 ../../common/step-seq-player;
#X msg 677 573 play 1;
#X obj 524 417 ../../common/queued-open;
#X msg 633 384 1;
#X msg 881 384 3 13 4;
#X msg 822 384 3 12 4;
#X obj 822 417 ../encoder-set;
#X msg 665 384 0;
#X msg 702 384 size 16 \, -1 -1 33 -1 -1 -1 33 -1 -1 -1 33 -1 33 33
-1 33, f 17;
#X msg 545 573 play 0;
#X obj 102 74 t b b b b b b b;
#X obj 605 282 t b b b b b b b;
#X msg 494 329 36 0.952475 0.047525 \, -1, f 13;
#X obj 494 282 t b b b b;
#X obj 524 15 r tick-16;
#X msg 935 384 0.25;
#X connect 0 0 3 0;
#X connect 1 0 10 0;
#X connect 2 0 5 1;
#X connect 4 0 3 0;
#X connect 4 0 25 0;
#X connect 5 0 4 0;
#X connect 6 0 3 0;
#X connect 7 0 3 0;
#X connect 8 0 3 0;
#X connect 9 0 3 0;
#X connect 10 0 0 0;
#X connect 10 0 24 0;
#X connect 10 1 35 0;
#X connect 10 2 12 0;
#X connect 11 0 18 0;
#X connect 12 1 11 1;
#X connect 13 0 15 0;
#X connect 14 0 3 0;
#X connect 15 0 14 0;
#X connect 16 0 15 1;
#X connect 17 0 15 1;
#X connect 18 0 19 0;
#X connect 18 1 22 0;
#X connect 19 0 7 0;
#X connect 19 0 32 0;
#X connect 19 1 16 0;
#X connect 20 0 35 0;
#X connect 21 0 11 0;
#X connect 22 0 38 0;
#X connect 22 1 36 0;
#X connect 23 0 11 2;
#X connect 24 0 16 0;
#X connect 26 0 25 0;
#X connect 27 0 25 0;
#X connect 28 0 27 1;
#X connect 29 0 31 0;
#X connect 30 0 31 0;
#X connect 32 0 27 1;
#X connect 33 0 25 0;
#X connect 34 0 25 0;
#X connect 35 0 8 0;
#X connect 35 1 9 0;
#X connect 35 2 5 0;
#X connect 35 3 37 0;
#X connect 35 4 23 0;
#X connect 35 5 6 0;
#X connect 35 6 25 0;
#X connect 36 0 28 0;
#X connect 36 1 33 0;
#X connect 36 2 30 0;
#X connect 36 3 29 0;
#X connect 36 4 40 0;
#X connect 36 5 26 0;
#X connect 36 6 16 0;
#X connect 37 0 3 0;
#X connect 38 0 37 0;
#X connect 38 1 6 0;
#X connect 38 2 17 0;
#X connect 38 3 34 0;
#X connect 39 0 27 0;
#X connect 40 0 25 1;
