#N canvas 238 307 1517 776 10;
#X msg 653 63 0 1 0 \, 3 1 0 \, 12 1 0 \, 3 1 0 \, 3 1 0 \, 3 1 0 \,
5 1 1 \, 3 1 1 \, 3 1 0 \, 0 1 0 \, 3 1 0 \, 0 1 0 \, 3 1 1 \, -1;
#X msg 1051 63 0 1 0 \, 3 1 0 \, 12 1 0 \, 9 1 0 \, 9 1 0 \, 15 1 0
\, 15 1 1 \, 3 1 1 \, 3 1 0 \, 0 1 0 \, 3 1 0 \, 0 1 0 \, 3 1 1 \,
-1;
#X obj 983 263 ../sequence-player;
#X obj 115 245 ../pattern;
#X msg 115 131 b a \, p 7;
#X msg 209 130 ch 3;
#X msg 254 129 ch 4;
#X msg 1040 142 reset;
#X msg 249 64 0 4 0 \, 3 4 0 \, 12 4 0 \, 3 4 0 \, 3 4 0 \, 3 4 0 \,
5 4 4 \, 3 4 4 \, 3 4 0 \, 0 4 0 \, 3 4 0 \, 0 4 0 \, 3 4 4 \, -1;
#X msg 822 130 offset 20;
#X msg 1170 138 play 1;
#X obj 1210 389 print len;
#X obj 1210 366 r beat-len;
#X msg 1086 142 32 1 0 \, -1;
#X connect 0 0 2 0;
#X connect 1 0 2 0;
#X connect 4 0 3 0;
#X connect 5 0 2 0;
#X connect 6 0 2 0;
#X connect 7 0 2 0;
#X connect 8 0 2 0;
#X connect 9 0 2 0;
#X connect 10 0 2 0;
#X connect 12 0 11 0;
#X connect 13 0 2 0;
