#N canvas 682 190 1175 690 12;
#X obj 36 24 inlet;
#X msg 375 127 1;
#X msg 334 147 0;
#X obj 307 207 f;
#X obj 375 151 t f f;
#X msg 161 234 play \$1;
#X obj 480 195 ../../controller/subpart-selector;
#X obj 708 24 loadbang;
#X obj 169 173 ../../common/queued-open;
#X obj 36 234 ../setting;
#X msg 36 202 18 10 2;
#X msg 307 237 ch \$1;
#X obj 36 80 t b b b b b;
#X obj 161 651 ../../common/step-seq-player \$0;
#X obj 480 24 r part-2;
#X msg 533 374 size 8 \, 61 62 61 67 62 61 -1 -1;
#X msg 708 166 gran 1 \, min 0 \, max 2;
#X obj 533 312 select 1 2;
#X obj 325 24 r ea-2-#;
#X obj 36 52 route arm play stop listen;
#X obj 169 24 r tick-4;
#X msg 268 623 1;
#X obj 215 133 bng 15 250 50 0 empty empty empty 17 7 0 10 -262144
-1 -1;
#X obj 533 287 t f b;
#X obj 480 227 t f b;
#X obj 480 259 select 0;
#X obj 533 341 t b b;
#X obj 28 636 ../sequence-player;
#X msg 106 181 1;
#X connect 0 0 19 0;
#X connect 1 0 4 0;
#X connect 2 0 8 1;
#X connect 3 0 11 0;
#X connect 4 0 8 1;
#X connect 4 1 5 0;
#X connect 5 0 13 0;
#X connect 5 0 27 0;
#X connect 6 0 24 0;
#X connect 7 0 16 0;
#X connect 8 0 13 0;
#X connect 10 0 9 0;
#X connect 11 0 13 0;
#X connect 11 0 27 0;
#X connect 12 0 10 0;
#X connect 12 2 3 0;
#X connect 12 3 16 0;
#X connect 14 0 6 0;
#X connect 15 0 13 0;
#X connect 16 0 6 2;
#X connect 17 0 26 0;
#X connect 18 0 3 1;
#X connect 19 0 12 0;
#X connect 19 2 2 0;
#X connect 19 3 6 1;
#X connect 20 0 8 0;
#X connect 21 0 13 2;
#X connect 22 0 3 0;
#X connect 23 0 17 0;
#X connect 23 1 1 0;
#X connect 24 0 25 0;
#X connect 25 0 2 0;
#X connect 25 1 23 0;
#X connect 26 0 15 0;
#X connect 26 1 21 0;
#X connect 28 0 5 0;
