#N canvas 242 224 1175 690 12;
#X obj 36 24 inlet;
#X msg 366 251 1;
#X msg 334 115 0;
#X obj 307 204 f;
#X obj 366 275 t f f;
#X msg 161 234 play \$1;
#X obj 480 195 ../../controller/subpart-selector;
#X obj 708 24 loadbang;
#X obj 169 173 ../../common/queued-open;
#X obj 36 234 ../setting;
#X msg 36 202 18 10 2;
#X msg 307 234 ch \$1;
#X obj 36 80 t b b b b b;
#X obj 169 24 r tick-16;
#X msg 512 295 0;
#X msg 512 322 swing \$1;
#X msg 445 240 0;
#X msg 534 429 size 4 \, 3 3 4 11;
#X obj 169 599 ../../common/step-seq-player \$0;
#X obj 480 24 r part-2;
#X msg 507 401 size 8 \, 61 62 61 67 62 61 -1 -1;
#X msg 708 166 gran 1 \, min 0 \, max 2;
#X obj 480 363 select 1 2;
#X obj 480 231 select 0;
#X msg 377 115 1;
#X obj 480 267 t f b b;
#X obj 325 24 r ea-2-#;
#X msg 912 334 play \$1;
#X obj 912 275 inlet;
#X obj 912 300 route play arm listen;
#X obj 986 275 r reset;
#X obj 986 334 t b b b b b b;
#X text 924 238 comment;
#X obj 36 52 route arm play stop listen;
#X connect 0 0 33 0;
#X connect 1 0 4 0;
#X connect 2 0 8 1;
#X connect 3 0 11 0;
#X connect 4 0 8 1;
#X connect 4 1 5 0;
#X connect 5 0 18 0;
#X connect 6 0 23 0;
#X connect 7 0 21 0;
#X connect 8 0 18 0;
#X connect 10 0 9 0;
#X connect 11 0 18 0;
#X connect 12 0 10 0;
#X connect 12 1 16 0;
#X connect 12 2 3 0;
#X connect 12 3 21 0;
#X connect 13 0 8 0;
#X connect 14 0 15 0;
#X connect 15 0 18 0;
#X connect 16 0 25 0;
#X connect 17 0 18 0;
#X connect 19 0 6 0;
#X connect 20 0 18 0;
#X connect 21 0 6 2;
#X connect 22 0 20 0;
#X connect 22 1 17 0;
#X connect 23 0 2 0;
#X connect 23 1 25 0;
#X connect 24 0 8 1;
#X connect 25 0 22 0;
#X connect 25 1 14 0;
#X connect 25 2 24 0;
#X connect 26 0 3 1;
#X connect 28 0 29 0;
#X connect 29 0 27 0;
#X connect 29 1 31 0;
#X connect 30 0 31 0;
#X connect 33 0 12 0;
#X connect 33 2 2 0;
#X connect 33 3 18 4;
#X connect 33 3 6 1;
