#N canvas 481 210 1045 887 10;
#X obj 650 12 r reset;
#X obj 722 17 r ea-1-#;
#X obj 55 779 ../pattern;
#X obj 950 13 r tick;
#X obj 41 12 inlet;
#X obj 41 39 ../../common/step-seq-sel-3 \$0;
#X obj 41 68 t b b b b b b b b;
#X msg 55 741 b d \, p 14;
#X msg 652 353 0;
#X msg 459 335 1;
#X obj 614 489 ../../common/seq-rec-poly;
#X msg 739 411 0;
#X msg 769 412 1;
#X obj 830 13 r rec-dev;
#X obj 830 37 route ea;
#X obj 604 383 spigot;
#X obj 856 417 bng 15 250 50 0 empty empty empty 17 7 0 10 -262144
-1 -1;
#X obj 757 268 spigot;
#X obj 536 13 r rec;
#X obj 618 136 tgl 15 0 empty empty empty 17 7 0 10 -262144 -1 -1 0
1;
#X obj 575 623 noteout;
#X obj 568 569 unpack 0 0;
#X obj 428 11 r tick-16;
#X connect 1 0 20 2;
#X connect 4 0 5 0;
#X connect 5 0 6 0;
#X connect 5 1 9 0;
#X connect 5 2 8 0;
#X connect 5 3 15 1;
#X connect 6 1 7 0;
#X connect 6 2 8 0;
#X connect 6 7 10 3;
#X connect 7 0 2 0;
#X connect 8 0 15 1;
#X connect 9 0 15 1;
#X connect 10 0 21 0;
#X connect 11 0 10 2;
#X connect 12 0 10 2;
#X connect 13 0 14 0;
#X connect 14 0 17 1;
#X connect 15 0 10 0;
#X connect 16 0 10 3;
#X connect 17 0 10 1;
#X connect 18 0 19 0;
#X connect 19 0 17 0;
#X connect 21 0 20 0;
#X connect 21 1 20 1;
#X connect 22 0 15 0;
