#N canvas 325 114 1076 872 12;
#X obj 36 18 inlet;
#X msg 442 196 0;
#X obj 480 196 ../../controller/subpart-selector;
#X obj 708 18 loadbang;
#X obj 315 227 ../../common/queued-open;
#X obj 36 80 t b b b b b;
#X obj 480 18 r part-2;
#X obj 217 18 r ea-2-#;
#X obj 36 52 route arm play stop listen;
#X obj 315 366 moses 9;
#X obj 377 366 moses 22;
#X obj 452 366 moses 34;
#X obj 530 366 moses 46;
#X obj 606 366 moses 56;
#X obj 753 541 random;
#X msg 400 439 25;
#X msg 475 439 18;
#X msg 553 439 15;
#X msg 629 439 12;
#X msg 711 439 6;
#X obj 688 366 moses 58;
#X obj 753 567 moses 5;
#X msg 268 331 bang;
#X msg 704 541 bang;
#X obj 377 400 t b b f;
#X obj 452 400 t b b f;
#X obj 530 400 t b b f;
#X obj 606 400 t b b f;
#X obj 688 400 t b b f;
#X msg 342 720 set \$1;
#X msg 342 760 24 17 0 \, -1;
#X msg 447 760 play 1;
#X msg 787 439 58 0.25 0.5 \, -1;
#X msg 869 683 add2 \$1 0;
#X msg 851 656 addcomma;
#X obj 291 821 ../sequence-player;
#X msg 834 629 add2 -1;
#X msg 218 760 ch \$1;
#X msg 506 760 reset;
#X obj 764 400 t b b b;
#X obj 799 602 t b b b b f b;
#X msg 764 472 play 18;
#X obj 315 18 r tick;
#X msg 708 165 gran 1 \, min 0 \, max 1;
#X obj 315 296 ../../common/beat-skip;
#X msg 466 270 5;
#X obj 315 331 random 74;
#X connect 0 0 8 0;
#X connect 1 0 4 1;
#X connect 2 0 4 1;
#X connect 3 0 43 0;
#X connect 4 0 44 0;
#X connect 5 2 45 0;
#X connect 5 3 43 0;
#X connect 5 4 44 1;
#X connect 6 0 2 0;
#X connect 7 0 37 0;
#X connect 8 0 5 0;
#X connect 8 2 1 0;
#X connect 8 3 2 1;
#X connect 9 0 22 0;
#X connect 9 1 10 0;
#X connect 10 0 24 0;
#X connect 10 1 11 0;
#X connect 11 0 25 0;
#X connect 11 1 12 0;
#X connect 12 0 26 0;
#X connect 12 1 13 0;
#X connect 13 0 27 0;
#X connect 13 1 20 0;
#X connect 14 0 21 0;
#X connect 15 0 14 1;
#X connect 16 0 14 1;
#X connect 17 0 14 1;
#X connect 18 0 14 1;
#X connect 19 0 14 1;
#X connect 20 0 28 0;
#X connect 20 1 39 0;
#X connect 21 0 23 0;
#X connect 21 1 40 0;
#X connect 22 0 46 0;
#X connect 23 0 14 0;
#X connect 24 0 14 0;
#X connect 24 1 15 0;
#X connect 24 2 29 0;
#X connect 25 0 14 0;
#X connect 25 1 16 0;
#X connect 25 2 29 0;
#X connect 26 0 14 0;
#X connect 26 1 17 0;
#X connect 26 2 29 0;
#X connect 27 0 14 0;
#X connect 27 1 18 0;
#X connect 27 2 29 0;
#X connect 28 0 14 0;
#X connect 28 1 19 0;
#X connect 28 2 29 0;
#X connect 29 0 30 0;
#X connect 30 0 35 0;
#X connect 31 0 35 0;
#X connect 32 0 35 0;
#X connect 33 0 30 0;
#X connect 34 0 30 0;
#X connect 36 0 30 0;
#X connect 37 0 35 0;
#X connect 38 0 35 0;
#X connect 39 0 41 0;
#X connect 39 1 32 0;
#X connect 39 2 38 0;
#X connect 40 0 31 0;
#X connect 40 1 30 0;
#X connect 40 2 36 0;
#X connect 40 3 34 0;
#X connect 40 4 33 0;
#X connect 40 5 38 0;
#X connect 41 0 35 0;
#X connect 42 0 4 0;
#X connect 43 0 2 2;
#X connect 44 0 46 0;
#X connect 45 0 44 2;
#X connect 46 0 9 0;
