#N canvas 16 116 1667 887 10;
#X msg 545 610 ch \$1;
#X obj 575 584 f;
#X obj 314 705 ../../common/queued-open;
#X msg 620 705 0.2;
#X obj 725 12 r ea-1-#;
#X obj 55 779 ../pattern;
#X msg 55 741 b d \, p 13;
#X msg 424 668 0;
#X msg 455 668 1;
#X msg 504 705 play \$1;
#X msg 524 668 0;
#X msg 495 668 1;
#X obj 314 12 r tick-16;
#X obj 870 779 ../../kp3/pad-off;
#X obj 990 779 ../../kp3/program;
#X msg 657 705 12;
#X obj 767 703 f;
#X obj 767 779 ../encoder-set;
#X msg 946 741 b 0 \, p 20;
#X obj 238 779 ../../kp3/touch;
#X msg 238 741 4 4;
#X obj 337 779 ../../kp3/pad-on;
#X obj 950 455 ../../common/part-iterator;
#X msg 685 705 17;
#X msg 969 528 size 5 \, 57 60 64 65 64;
#X msg 508 431 size 3 \, 57 60 64;
#X msg 961 348 0;
#X msg 995 244 1;
#X obj 950 12 r tick;
#X obj 950 382 spigot 0;
#X obj 950 424 ../../common/beat-skip;
#X msg 1079 398 2;
#X obj 638 383 t b b b;
#X msg 1058 310 size 3 \, 57 60 60;
#X obj 41 12 inlet;
#X obj 41 39 ../../common/step-seq-sel-3 \$0;
#X obj 238 703 t b b;
#X obj 455 330 t b b b b b b b b b b b b;
#X msg 950 506 size 3 \, 57 60 60;
#X obj 565 779 ../../common/step-seq-player \$0;
#X obj 995 350 t f b b f;
#X msg 1530 718 listen \$1;
#X obj 41 82 t b b b b b b b b;
#X msg 1522 691 arm;
#X obj 822 163 spigot;
#X obj 822 188 - 45;
#X obj 1037 286 t b b b b;
#X msg 1103 424 0 2 9999;
#X obj 950 480 sel 0 1;
#X obj 1104 584 sel 2 3 4 5 6 7 8 9;
#X msg 1164 424 2 10 9999;
#X msg 1016 575 size 3;
#X msg 1104 615 57 60 64;
#X msg 1117 637 57 60 65;
#X msg 1131 663 57 60 67;
#X msg 1201 683 57 60 69;
#X msg 1330 653 57 -1 -1 -1 -1;
#X msg 1346 682 57 60 -1 -1 -1;
#X msg 1337 624 -1 -1 -1 -1 -1;
#X obj 1167 712 ../../common/silence-msg-3;
#X obj 989 549 t f b;
#X msg 1541 741 stop;
#X obj 1522 779 seagull-d13;
#X obj 455 12 r enc-1;
#X obj 822 12 r notes;
#X obj 822 68 unpack 0 0;
#X obj 455 166 sel 0 1 2 3 4 5 6 7 8 9;
#X obj 455 110 spigot 0;
#X obj 1359 779 ../../tracks/drum-vol-lfo;
#X obj 1359 21 r tick-8;
#X obj 1359 446 spigot 0;
#X msg 1366 416 1;
#X msg 1404 416 0;
#X obj 995 214 t b b;
#X obj 1506 24 r tr-d-#;
#X msg 1432 741 23;
#X obj 1164 387 t b b b b;
#X msg 1031 741 b 0 \, p 4;
#X msg 767 741 7.5 7 \$1;
#X obj 524 110 spigot 0;
#X obj 524 12 r enc-2;
#X obj 218 68 t f f f f f;
#X obj 524 134 + 5;
#X obj 524 76 ../../controller/skip;
#X msg 647 50 2;
#X obj 576 198 t b b;
#X connect 0 0 39 0;
#X connect 1 0 0 0;
#X connect 2 0 39 0;
#X connect 3 0 39 2;
#X connect 4 0 1 1;
#X connect 4 0 16 1;
#X connect 6 0 5 0;
#X connect 7 0 2 1;
#X connect 8 0 2 1;
#X connect 9 0 39 0;
#X connect 10 0 9 0;
#X connect 11 0 9 0;
#X connect 12 0 2 0;
#X connect 15 0 39 3;
#X connect 16 0 78 0;
#X connect 18 0 14 0;
#X connect 20 0 19 0;
#X connect 22 0 48 0;
#X connect 23 0 39 3;
#X connect 24 0 39 0;
#X connect 25 0 39 0;
#X connect 26 0 29 1;
#X connect 27 0 40 0;
#X connect 28 0 29 0;
#X connect 29 0 30 0;
#X connect 30 0 22 0;
#X connect 31 0 30 2;
#X connect 32 0 25 0;
#X connect 32 1 15 0;
#X connect 32 2 26 0;
#X connect 33 0 39 0;
#X connect 34 0 35 0;
#X connect 35 0 42 0;
#X connect 35 1 11 0;
#X connect 35 1 8 0;
#X connect 35 2 10 0;
#X connect 35 2 26 0;
#X connect 35 2 61 0;
#X connect 35 3 39 4;
#X connect 35 4 81 0;
#X connect 36 0 20 0;
#X connect 36 1 21 0;
#X connect 37 2 15 0;
#X connect 37 3 11 0;
#X connect 37 4 25 0;
#X connect 37 5 3 0;
#X connect 37 6 16 0;
#X connect 37 7 18 0;
#X connect 37 8 13 0;
#X connect 37 9 1 0;
#X connect 37 10 26 0;
#X connect 37 11 47 0;
#X connect 38 0 39 0;
#X connect 40 0 29 1;
#X connect 40 1 30 1;
#X connect 40 2 31 0;
#X connect 40 3 48 0;
#X connect 41 0 62 0;
#X connect 42 0 36 0;
#X connect 42 1 6 0;
#X connect 42 2 75 0;
#X connect 42 4 37 0;
#X connect 42 5 7 0;
#X connect 42 6 10 0;
#X connect 42 7 43 0;
#X connect 43 0 62 0;
#X connect 44 0 45 0;
#X connect 45 0 39 3;
#X connect 46 1 33 0;
#X connect 46 2 26 0;
#X connect 46 3 71 0;
#X connect 47 0 22 1;
#X connect 48 0 38 0;
#X connect 48 1 24 0;
#X connect 48 2 60 0;
#X connect 49 0 52 0;
#X connect 49 1 53 0;
#X connect 49 2 54 0;
#X connect 49 3 53 0;
#X connect 49 4 52 0;
#X connect 49 5 53 0;
#X connect 49 6 54 0;
#X connect 49 7 55 0;
#X connect 50 0 22 1;
#X connect 51 0 39 0;
#X connect 52 0 59 0;
#X connect 53 0 59 0;
#X connect 54 0 59 0;
#X connect 55 0 59 0;
#X connect 56 0 59 1;
#X connect 57 0 59 1;
#X connect 58 0 59 1;
#X connect 59 0 39 0;
#X connect 60 0 49 0;
#X connect 60 1 51 0;
#X connect 61 0 62 0;
#X connect 63 0 67 0;
#X connect 64 0 65 0;
#X connect 65 0 44 0;
#X connect 66 1 23 0;
#X connect 66 2 15 0;
#X connect 66 3 46 0;
#X connect 66 4 32 0;
#X connect 66 5 73 0;
#X connect 66 6 76 0;
#X connect 66 7 56 0;
#X connect 66 8 57 0;
#X connect 66 9 85 0;
#X connect 67 0 66 0;
#X connect 69 0 70 0;
#X connect 70 0 68 0;
#X connect 71 0 70 1;
#X connect 72 0 70 1;
#X connect 73 0 27 0;
#X connect 73 1 72 0;
#X connect 74 0 68 2;
#X connect 75 0 68 1;
#X connect 76 0 50 0;
#X connect 76 1 58 0;
#X connect 76 2 77 0;
#X connect 76 3 13 0;
#X connect 77 0 14 0;
#X connect 78 0 17 0;
#X connect 79 0 82 0;
#X connect 80 0 83 0;
#X connect 81 1 67 1;
#X connect 81 2 41 0;
#X connect 81 3 44 1;
#X connect 81 4 79 1;
#X connect 82 0 66 0;
#X connect 83 0 79 0;
#X connect 84 0 83 1;
#X connect 85 0 7 0;
#X connect 85 1 84 0;
