#N canvas 119 338 1667 887 10;
#X msg 545 610 ch \$1;
#X obj 575 584 f;
#X obj 455 194 ../../controller/subpart-selector;
#X obj 650 12 r reset;
#X obj 314 705 ../../common/queued-open;
#X msg 620 705 0.2;
#X obj 455 12 r part-1;
#X obj 725 10 r ea-1-#;
#X obj 55 779 ../pattern;
#X msg 55 741 b d \, p 13;
#X msg 424 668 0;
#X msg 455 668 1;
#X msg 505 705 play \$1;
#X msg 533 668 0;
#X msg 496 668 1;
#X obj 314 12 r tick-16;
#X obj 1025 705 ../../kp3/pad-off;
#X obj 1026 779 ../../kp3/program;
#X msg 657 705 12;
#X obj 848 705 f;
#X obj 848 779 ../encoder-set;
#X msg 848 741 5 7 \$1;
#X msg 1026 741 b 0 \, p 20;
#X obj 190 779 ../../kp3/touch;
#X msg 190 741 4 4;
#X obj 289 779 ../../kp3/pad-on;
#X obj 1082 490 ../../common/part-iterator;
#X msg 685 705 17;
#X msg 1101 563 size 5 \, 57 60 64 65 64;
#X msg 508 431 size 3 \, 57 60 64;
#X msg 1374 307 size 1 \, 57;
#X msg 1093 383 0;
#X msg 1127 345 1;
#X obj 1082 10 r tick;
#X obj 1082 417 spigot 0;
#X obj 1082 459 ../../common/beat-skip;
#X msg 1211 433 2;
#X obj 660 330 t b b b;
#X obj 1374 270 t b b;
#X msg 1190 307 size 3 \, 57 60 60;
#X obj 41 12 inlet;
#X obj 41 39 ../../common/step-seq-sel-3 \$0;
#X obj 190 705 t b b;
#X obj 455 330 t b b b b b b b b b b b b;
#X msg 1082 541 size 3 \, 57 60 60;
#X obj 565 779 ../../common/step-seq-player \$0;
#X obj 455 222 sel 0 1 2 3 4 5 6 7 8 9;
#X msg 650 171 gran 1 \, min 0 \, max 9;
#X obj 1127 385 t f b b f;
#X obj 1560 598 lead-d13;
#X msg 1559 529 listen \$1;
#X msg 1559 551 play 0;
#X obj 41 68 t b b b b b b b b;
#X msg 1559 506 arm;
#X obj 822 10 r kyb-offset;
#X obj 822 163 spigot;
#X obj 218 68 t f f f f;
#X obj 822 188 - 45;
#X obj 1173 270 t b b b b;
#X msg 1288 563 size 3 \, 57 60 65;
#X msg 1302 589 size 3 \, 57 60 67;
#X msg 1372 616 size 3 \, 57 60 69;
#X msg 1235 459 0 2 9999;
#X obj 1082 515 sel 0 1;
#X obj 1275 515 sel 2 3 4 5 6 7 8 9;
#X msg 1275 541 size 3 \, 57 60 64;
#X msg 1321 460 2 10 9999;
#X connect 0 0 45 0;
#X connect 1 0 0 0;
#X connect 2 0 46 0;
#X connect 3 0 47 0;
#X connect 4 0 45 0;
#X connect 5 0 45 2;
#X connect 6 0 2 0;
#X connect 7 0 1 1;
#X connect 7 0 19 1;
#X connect 9 0 8 0;
#X connect 10 0 4 1;
#X connect 11 0 4 1;
#X connect 12 0 45 0;
#X connect 13 0 12 0;
#X connect 14 0 12 0;
#X connect 15 0 4 0;
#X connect 18 0 45 3;
#X connect 19 0 21 0;
#X connect 21 0 20 0;
#X connect 22 0 17 0;
#X connect 24 0 23 0;
#X connect 26 0 63 0;
#X connect 27 0 45 3;
#X connect 28 0 45 0;
#X connect 29 0 45 0;
#X connect 30 0 45 0;
#X connect 31 0 34 1;
#X connect 32 0 48 0;
#X connect 33 0 34 0;
#X connect 34 0 35 0;
#X connect 35 0 26 0;
#X connect 36 0 35 2;
#X connect 37 0 29 0;
#X connect 37 1 18 0;
#X connect 37 2 31 0;
#X connect 38 0 30 0;
#X connect 38 1 31 0;
#X connect 39 0 45 0;
#X connect 40 0 41 0;
#X connect 41 0 52 0;
#X connect 41 1 14 0;
#X connect 41 1 11 0;
#X connect 41 2 13 0;
#X connect 41 2 31 0;
#X connect 41 2 51 0;
#X connect 41 3 45 4;
#X connect 41 4 56 0;
#X connect 42 0 24 0;
#X connect 42 1 25 0;
#X connect 43 2 18 0;
#X connect 43 3 14 0;
#X connect 43 4 29 0;
#X connect 43 5 5 0;
#X connect 43 6 19 0;
#X connect 43 7 22 0;
#X connect 43 8 16 0;
#X connect 43 9 1 0;
#X connect 43 10 31 0;
#X connect 43 11 62 0;
#X connect 44 0 45 0;
#X connect 46 0 43 0;
#X connect 46 1 42 0;
#X connect 46 2 27 0;
#X connect 46 3 18 0;
#X connect 46 4 58 0;
#X connect 46 5 32 0;
#X connect 46 6 38 0;
#X connect 46 7 37 0;
#X connect 46 8 66 0;
#X connect 47 0 2 2;
#X connect 48 0 34 1;
#X connect 48 1 35 1;
#X connect 48 2 36 0;
#X connect 48 3 63 0;
#X connect 50 0 49 0;
#X connect 51 0 49 0;
#X connect 52 1 9 0;
#X connect 52 4 47 0;
#X connect 52 4 43 0;
#X connect 52 5 10 0;
#X connect 52 6 13 0;
#X connect 52 7 53 0;
#X connect 53 0 49 0;
#X connect 54 0 55 0;
#X connect 55 0 57 0;
#X connect 56 1 2 1;
#X connect 56 2 50 0;
#X connect 56 3 55 1;
#X connect 57 0 45 3;
#X connect 58 0 11 0;
#X connect 58 1 39 0;
#X connect 58 2 31 0;
#X connect 58 3 10 0;
#X connect 59 0 45 0;
#X connect 60 0 45 0;
#X connect 61 0 45 0;
#X connect 62 0 26 1;
#X connect 63 0 44 0;
#X connect 63 1 28 0;
#X connect 63 2 64 0;
#X connect 64 0 65 0;
#X connect 64 1 59 0;
#X connect 64 2 60 0;
#X connect 64 3 59 0;
#X connect 64 4 65 0;
#X connect 64 5 59 0;
#X connect 64 6 60 0;
#X connect 64 7 61 0;
#X connect 65 0 45 0;
#X connect 66 0 26 1;
