#N canvas 345 181 1137 782 10;
#X msg 126 245 play \$1;
#X obj 28 15 inlet;
#X msg 145 166 ch \$1;
#X obj 145 143 f;
#X obj 28 40 route play arm listen;
#X obj 455 194 ../../controller/subpart-selector;
#X obj 201 74 t f f;
#X obj 455 220 sel 0;
#X obj 455 247 t b b;
#X obj 102 15 r reset;
#X obj 134 346 select 0;
#X obj 586 647 ../../common/step-seq-player;
#X msg 677 573 play 1;
#X obj 524 417 ../../common/queued-open;
#X msg 633 384 1;
#X msg 927 459 3 13 4;
#X msg 868 459 3 12 4;
#X obj 868 492 ../encoder-set;
#X msg 665 384 0;
#X msg 702 384 size 16 \, -1 -1 33 -1 -1 -1 33 -1 -1 -1 33 -1 33 33
-1 33, f 17;
#X msg 541 573 play 0;
#X obj 102 74 t b b b b b b b;
#X obj 605 282 t b b b b b b b;
#X obj 524 15 r tick-16;
#X msg 494 329 33 0.952475 0.047525 \, -1, f 13;
#X obj 494 282 t b b b b b;
#X msg 650 170 gran 1 \, min 0 \, max 5;
#X obj 494 247 sel 1 2 3 4 5;
#X msg 822 384 0.2;
#X obj 455 15 r part-1;
#X obj 160 15 r ea-1-#;
#X obj 64 638 ../pattern;
#X msg 64 394 b d \, p 13;
#X connect 1 0 4 0;
#X connect 2 0 11 0;
#X connect 3 0 2 0;
#X connect 4 0 10 0;
#X connect 4 0 0 0;
#X connect 4 1 21 0;
#X connect 4 2 6 0;
#X connect 5 0 7 0;
#X connect 6 1 5 1;
#X connect 7 0 8 0;
#X connect 7 1 27 0;
#X connect 8 0 18 0;
#X connect 9 0 21 0;
#X connect 10 0 20 0;
#X connect 12 0 11 0;
#X connect 13 0 11 0;
#X connect 14 0 13 1;
#X connect 15 0 17 0;
#X connect 16 0 17 0;
#X connect 18 0 13 1;
#X connect 19 0 11 0;
#X connect 20 0 11 0;
#X connect 21 1 32 0;
#X connect 21 2 3 0;
#X connect 21 3 24 0;
#X connect 21 4 26 0;
#X connect 21 6 11 0;
#X connect 22 0 14 0;
#X connect 22 1 19 0;
#X connect 22 2 28 0;
#X connect 22 5 12 0;
#X connect 23 0 13 0;
#X connect 25 0 24 0;
#X connect 25 3 20 0;
#X connect 26 0 5 2;
#X connect 27 0 25 0;
#X connect 27 2 22 0;
#X connect 27 3 16 0;
#X connect 27 4 15 0;
#X connect 28 0 11 1;
#X connect 29 0 5 0;
#X connect 30 0 3 1;
#X connect 32 0 31 0;
