#N canvas 317 130 1584 887 10;
#X msg 145 166 ch \$1;
#X obj 145 143 f;
#X obj 455 194 ../../controller/subpart-selector;
#X obj 181 16 r reset;
#X obj 586 647 ../../common/step-seq-player;
#X obj 266 538 ../../common/queued-open;
#X obj 70 129 t b b b b b b b;
#X msg 636 520 0.2;
#X obj 455 15 r part-1;
#X obj 563 12 r ea-1-#;
#X obj 82 646 ../pattern;
#X msg 82 618 b d \, p 13;
#X msg 377 508 0;
#X msg 407 505 1;
#X msg 438 560 play \$1;
#X msg 494 500 0;
#X msg 450 494 1;
#X obj 259 15 r tick-16;
#X msg 208 43 4;
#X obj 926 539 ../../kp3/pad-off;
#X obj 462 355 t b b b b b b b b b;
#X obj 926 597 ../../kp3/program;
#X msg 583 528 12;
#X obj 815 606 f;
#X obj 815 655 ../encoder-set;
#X msg 815 632 5 7 \$1;
#X msg 926 565 b 0 \, p 20;
#X obj 1002 844 ../../kp3/touch;
#X msg 1002 810 4 4;
#X obj 1138 809 ../../kp3/pad-on;
#X obj 1239 280 ../../common/part-iterator;
#X msg 1242 373 size 3 \, 57 60 60;
#X msg 819 339 17;
#X msg 1264 345 size 5 \, 57 60 64 65 64;
#X obj 1054 764 t b b b;
#X msg 535 426 size 3 \, 57 60 64;
#X msg 989 345 size 1 \, 57;
#X obj 1240 313 sel 0 1;
#X msg 1395 253 2 9999;
#X obj 1259 14 loadbang;
#X msg 1105 196 0;
#X msg 1205 129 1;
#X obj 1114 22 r tick;
#X obj 1205 192 spigot 0;
#X obj 1222 236 ../../common/beat-skip;
#X obj 1247 158 t f b b;
#X msg 1329 203 2;
#X obj 542 304 t b b b;
#X obj 978 126 t b b;
#X obj 801 22 sel 0 1 2 3 4 5 6 7;
#X obj 888 118 t b b;
#X msg 899 337 size 3 \, 57 60 60;
#X msg 650 170 gran 1 \, min 0 \, max 7;
#X obj 1099 687 bng 15 250 50 0 empty empty empty 17 7 0 10 -262144
-1 -1;
#X obj 31 17 inlet;
#X obj 31 53 route arm play listen;
#X connect 0 0 4 0;
#X connect 1 0 0 0;
#X connect 2 0 49 0;
#X connect 3 0 6 0;
#X connect 5 0 4 0;
#X connect 6 1 11 0;
#X connect 6 2 1 0;
#X connect 6 4 52 0;
#X connect 6 4 20 0;
#X connect 6 5 12 0;
#X connect 6 6 15 0;
#X connect 7 0 4 1;
#X connect 8 0 2 0;
#X connect 9 0 1 1;
#X connect 9 0 23 1;
#X connect 11 0 10 0;
#X connect 12 0 5 1;
#X connect 13 0 5 1;
#X connect 14 0 4 0;
#X connect 15 0 14 0;
#X connect 16 0 14 0;
#X connect 17 0 5 0;
#X connect 18 0 1 1;
#X connect 20 0 13 0;
#X connect 20 2 22 0;
#X connect 20 3 16 0;
#X connect 20 4 35 0;
#X connect 20 5 7 0;
#X connect 20 6 23 0;
#X connect 20 7 26 0;
#X connect 20 8 19 0;
#X connect 22 0 4 2;
#X connect 23 0 25 0;
#X connect 25 0 24 0;
#X connect 26 0 21 0;
#X connect 28 0 27 0;
#X connect 30 0 37 0;
#X connect 31 0 4 0;
#X connect 32 0 4 2;
#X connect 33 0 4 0;
#X connect 34 0 28 0;
#X connect 34 1 29 0;
#X connect 35 0 4 0;
#X connect 36 0 4 0;
#X connect 37 0 31 0;
#X connect 37 1 33 0;
#X connect 38 0 30 1;
#X connect 39 0 38 0;
#X connect 40 0 43 1;
#X connect 41 0 45 0;
#X connect 42 0 43 0;
#X connect 43 0 44 0;
#X connect 44 0 30 0;
#X connect 45 0 43 1;
#X connect 45 1 44 1;
#X connect 45 2 46 0;
#X connect 46 0 44 2;
#X connect 47 0 35 0;
#X connect 47 1 22 0;
#X connect 47 2 40 0;
#X connect 48 0 36 0;
#X connect 48 1 40 0;
#X connect 49 0 20 0;
#X connect 49 1 34 0;
#X connect 49 2 32 0;
#X connect 49 3 22 0;
#X connect 49 4 50 0;
#X connect 49 5 41 0;
#X connect 49 6 48 0;
#X connect 49 7 47 0;
#X connect 50 0 51 0;
#X connect 50 1 40 0;
#X connect 51 0 4 0;
#X connect 52 0 2 2;
#X connect 53 0 34 0;
#X connect 54 0 55 0;
#X connect 55 0 6 0;
#X connect 55 1 14 0;
#X connect 55 2 2 1;
