#N canvas 282 186 1584 887 10;
#X msg 545 610 ch \$1;
#X obj 575 584 f;
#X obj 455 194 ../../controller/subpart-selector;
#X obj 160 12 r reset;
#X obj 565 779 ../../common/step-seq-player;
#X obj 314 706 ../../common/queued-open;
#X obj 41 101 t b b b b b b b;
#X msg 620 706 0.2;
#X obj 455 12 r part-1;
#X obj 689 12 r ea-1-#;
#X obj 55 779 ../pattern;
#X msg 55 741 b d \, p 13;
#X msg 424 668 0;
#X msg 455 668 1;
#X msg 505 706 play \$1;
#X msg 533 668 0;
#X msg 496 668 1;
#X obj 314 12 r tick-16;
#X obj 1016 706 ../../kp3/pad-off;
#X obj 1026 779 ../../kp3/program;
#X msg 657 706 12;
#X obj 848 706 f;
#X obj 848 779 ../encoder-set;
#X msg 848 741 5 7 \$1;
#X msg 1026 741 b 0 \, p 20;
#X obj 1225 779 ../../kp3/touch;
#X msg 1225 741 4 4;
#X obj 1324 779 ../../kp3/pad-on;
#X obj 1081 590 ../../common/part-iterator;
#X msg 685 706 17;
#X msg 1100 665 size 5 \, 57 60 64 65 64;
#X msg 508 431 size 3 \, 57 60 64;
#X msg 1305 434 size 1 \, 57;
#X obj 1081 616 sel 0 1;
#X msg 1234 558 2 9999;
#X msg 1091 485 0;
#X msg 1126 434 1;
#X obj 1081 12 r tick;
#X obj 1081 517 spigot 0;
#X obj 1081 559 ../../common/beat-skip;
#X msg 1210 533 2;
#X obj 1154 276 t b b b;
#X obj 1305 394 t b b;
#X obj 455 231 sel 0 1 2 3 4 5 6 7;
#X obj 1199 305 t b b;
#X msg 1199 345 size 3 \, 57 60 60;
#X msg 650 171 gran 1 \, min 0 \, max 7;
#X obj 41 12 inlet;
#X obj 41 42 route listen;
#X obj 41 72 ../../common/step-seq-sel-3 \$0;
#X obj 1225 706 t b b;
#X obj 214 356 print arm;
#X msg 1081 643 size 3 \, 57 60 61;
#X msg 1336 547 1;
#X obj 455 330 t b b b b b b b b b b b b;
#X obj 1126 485 t f b b b;
#X connect 0 0 4 0;
#X connect 1 0 0 0;
#X connect 2 0 43 0;
#X connect 3 0 6 0;
#X connect 5 0 4 0;
#X connect 6 1 11 0;
#X connect 6 4 46 0;
#X connect 6 4 54 0;
#X connect 6 5 12 0;
#X connect 6 6 15 0;
#X connect 7 0 4 2;
#X connect 8 0 2 0;
#X connect 9 0 1 1;
#X connect 9 0 21 1;
#X connect 11 0 10 0;
#X connect 12 0 5 1;
#X connect 13 0 5 1;
#X connect 14 0 4 0;
#X connect 15 0 14 0;
#X connect 16 0 14 0;
#X connect 17 0 5 0;
#X connect 20 0 4 3;
#X connect 21 0 23 0;
#X connect 23 0 22 0;
#X connect 24 0 19 0;
#X connect 26 0 25 0;
#X connect 28 0 33 0;
#X connect 29 0 4 3;
#X connect 30 0 4 0;
#X connect 31 0 4 0;
#X connect 32 0 4 0;
#X connect 33 0 52 0;
#X connect 33 1 30 0;
#X connect 34 0 28 1;
#X connect 35 0 38 1;
#X connect 36 0 55 0;
#X connect 37 0 38 0;
#X connect 38 0 39 0;
#X connect 39 0 28 0;
#X connect 40 0 39 2;
#X connect 41 0 31 0;
#X connect 41 1 20 0;
#X connect 41 2 35 0;
#X connect 42 0 32 0;
#X connect 42 1 35 0;
#X connect 43 0 54 0;
#X connect 43 1 50 0;
#X connect 43 2 29 0;
#X connect 43 3 20 0;
#X connect 43 4 44 0;
#X connect 43 5 36 0;
#X connect 43 6 42 0;
#X connect 43 7 41 0;
#X connect 44 0 45 0;
#X connect 44 1 35 0;
#X connect 45 0 4 0;
#X connect 46 0 2 2;
#X connect 47 0 48 0;
#X connect 48 0 49 1;
#X connect 48 0 2 1;
#X connect 48 1 49 0;
#X connect 49 0 6 0;
#X connect 49 0 51 0;
#X connect 49 1 16 0;
#X connect 49 1 13 0;
#X connect 49 2 15 0;
#X connect 49 2 35 0;
#X connect 49 3 4 4;
#X connect 50 0 26 0;
#X connect 50 1 27 0;
#X connect 52 0 4 0;
#X connect 53 0 33 0;
#X connect 54 2 20 0;
#X connect 54 3 16 0;
#X connect 54 4 31 0;
#X connect 54 5 7 0;
#X connect 54 6 21 0;
#X connect 54 7 24 0;
#X connect 54 8 18 0;
#X connect 54 9 1 0;
#X connect 54 10 35 0;
#X connect 54 11 34 0;
#X connect 55 0 38 1;
#X connect 55 1 39 1;
#X connect 55 2 40 0;
#X connect 55 3 53 0;
