#N canvas 149 152 1137 782 10;
#X obj 28 15 inlet;
#X msg 145 166 ch \$1;
#X obj 145 143 f;
#X obj 28 40 route play arm listen;
#X obj 455 194 ../../controller/subpart-selector;
#X obj 87 14 r reset;
#X obj 586 647 ../../common/step-seq-player;
#X obj 266 538 ../../common/queued-open;
#X msg 747 425 3 12 4;
#X obj 747 448 ../encoder-set;
#X obj 69 71 t b b b b b b b;
#X obj 456 391 t b b b b b b b;
#X msg 650 170 gran 1 \, min 0 \, max 5;
#X msg 750 549 0.2;
#X obj 455 15 r part-1;
#X obj 160 15 r ea-1-#;
#X obj 105 634 ../pattern;
#X msg 105 606 b d \, p 13;
#X obj 455 220 sel 0 1 2 3 4 5;
#X msg 377 508 0;
#X msg 407 505 1;
#X msg 438 560 play \$1;
#X msg 494 500 0;
#X msg 531 539 1;
#X msg 583 528 0;
#X msg 535 426 size 3 \, 57 60 64;
#X msg 786 507 3;
#X obj 259 15 r tick-16;
#X msg 846 513 5;
#X floatatom 899 476 5 0 0 0 - - -;
#X connect 0 0 3 0;
#X connect 1 0 6 0;
#X connect 2 0 1 0;
#X connect 3 0 21 0;
#X connect 3 1 10 0;
#X connect 3 2 4 1;
#X connect 4 0 18 0;
#X connect 5 0 10 0;
#X connect 7 0 6 0;
#X connect 8 0 9 0;
#X connect 10 1 17 0;
#X connect 10 2 2 0;
#X connect 10 4 12 0;
#X connect 10 4 11 0;
#X connect 10 5 19 0;
#X connect 10 6 22 0;
#X connect 11 0 20 0;
#X connect 11 2 24 0;
#X connect 11 3 23 0;
#X connect 11 4 25 0;
#X connect 11 5 13 0;
#X connect 11 6 8 0;
#X connect 12 0 4 2;
#X connect 13 0 6 1;
#X connect 14 0 4 0;
#X connect 15 0 2 1;
#X connect 17 0 16 0;
#X connect 18 0 11 0;
#X connect 19 0 7 1;
#X connect 20 0 7 1;
#X connect 21 0 6 0;
#X connect 22 0 21 0;
#X connect 23 0 21 0;
#X connect 24 0 6 2;
#X connect 25 0 6 0;
#X connect 26 0 6 2;
#X connect 27 0 7 0;
#X connect 28 0 6 2;
#X connect 29 0 6 2;
