#N canvas 203 182 317 619 12;
#X obj 94 546 ctlout;
#X obj 94 482 unpack 0 0;
#X obj 15 63 t b b b b;
#X obj 101 244 t b b b b;
#X obj 94 513 swap;
#X obj 15 13 inlet;
#X obj 132 13 r tr-pr-#;
#X msg 15 100 115 65;
#X msg 101 281 115 0;
#X obj 15 38 select 1 0;
#X connect 1 0 4 0;
#X connect 1 1 4 1;
#X connect 2 0 7 0;
#X connect 3 0 8 0;
#X connect 4 0 0 0;
#X connect 4 1 0 1;
#X connect 5 0 9 0;
#X connect 6 0 0 2;
#X connect 7 0 1 0;
#X connect 8 0 1 0;
#X connect 9 0 2 0;
#X connect 9 1 3 0;
