#N canvas 0 0 593 299 12;
#X obj 58 154 ../../../kp3/pad-on;
#X obj 231 254 ../../../kp3/pad-off;
#X obj 38 203 ../../../kp3/touch;
#X msg 38 177 6 6;
#X obj 18 43 select 0 1;
#X obj 18 10 inlet;
#X msg 78 99 0 68;
#X obj 78 126 ../../../kp3/pc;
#X obj 18 254 ../../../kp3/fx-depth;
#X obj 18 70 t b b b b;
#X msg 18 228 0;
#X obj 208 75 t b b b;
#X obj 417 254 s 2b-kp3-delay-reset;
#X connect 3 0 2 0;
#X connect 4 0 9 0;
#X connect 4 1 11 0;
#X connect 5 0 4 0;
#X connect 6 0 7 0;
#X connect 9 0 10 0;
#X connect 9 1 3 0;
#X connect 9 2 0 0;
#X connect 9 3 6 0;
#X connect 10 0 8 0;
#X connect 11 0 10 0;
#X connect 11 1 1 0;
#X connect 11 2 12 0;
