#N canvas 0 0 450 300 12;
#X obj 41 158 ../../../kp3/pad-on;
#X obj 252 212 ../../../kp3/pad-off;
#X obj 18 212 ../../../kp3/touch;
#X msg 18 186 6 6;
#X obj 18 43 select 0 1;
#X obj 18 70 t b b b;
#X obj 18 10 inlet;
#X msg 64 101 0 68;
#X obj 64 132 ../../../kp3/pc;
#X connect 3 0 2 0;
#X connect 4 0 5 0;
#X connect 4 1 1 0;
#X connect 5 0 3 0;
#X connect 5 1 0 0;
#X connect 5 2 7 0;
#X connect 6 0 4 0;
#X connect 7 0 8 0;
