#N canvas 384 184 612 590 10;
#X obj 44 181 unpack 0 0 0 0, f 30;
#X obj 407 416 float;
#X text 107 65 bpm duration_beats start end;
#X obj 17 307 metro;
#X obj 266 416 float;
#X obj 331 416 + 1;
#X obj 299 317 <;
#X obj 440 317 >;
#X obj 470 416 - 1;
#X obj 266 352 spigot;
#X obj 407 352 spigot;
#X obj 145 470 ==;
#X msg 112 470 0;
#X obj 112 502 spigot;
#X obj 343 224 -;
#X obj 343 245 abs;
#X obj 44 273 expr (((60000 / $f1) * $f2) / $f3);
#X msg 293 379 0;
#X msg 434 379 0;
#X floatatom 350 497 5 0 0 0 - - -, f 5;
#X obj 38 41 bng 15 250 50 0 empty empty empty 17 7 0 10 -262144 -1
-1;
#X obj 44 102 list 60 5 20 10;
#X connect 0 0 16 0;
#X connect 0 1 16 1;
#X connect 0 2 6 0;
#X connect 0 2 7 0;
#X connect 0 2 14 0;
#X connect 0 2 4 1;
#X connect 0 2 1 1;
#X connect 0 3 6 1;
#X connect 0 3 7 1;
#X connect 0 3 11 1;
#X connect 0 3 14 1;
#X connect 1 0 8 0;
#X connect 1 0 11 0;
#X connect 1 0 19 0;
#X connect 3 0 10 0;
#X connect 3 0 9 0;
#X connect 3 0 12 0;
#X connect 4 0 5 0;
#X connect 4 0 11 0;
#X connect 4 0 19 0;
#X connect 5 0 4 1;
#X connect 6 0 9 1;
#X connect 7 0 10 1;
#X connect 8 0 1 1;
#X connect 9 0 4 0;
#X connect 10 0 1 0;
#X connect 11 0 13 1;
#X connect 12 0 13 0;
#X connect 13 0 3 0;
#X connect 14 0 15 0;
#X connect 15 0 16 2;
#X connect 16 0 3 1;
#X connect 16 0 3 0;
#X connect 17 0 4 1;
#X connect 18 0 1 1;
#X connect 20 0 21 0;
#X connect 21 0 0 0;
