#N canvas 404 203 542 435 10;
#X obj 43 62 unpack 0 0 0 0, f 30;
#X obj 406 297 float;
#X obj 16 188 metro;
#X obj 265 297 float;
#X obj 330 297 + 1;
#X obj 298 198 <;
#X obj 439 198 >;
#X obj 469 297 - 1;
#X obj 265 233 spigot;
#X obj 406 233 spigot;
#X obj 108 252 ==;
#X msg 75 252 0;
#X obj 75 284 spigot;
#X obj 342 105 -;
#X obj 342 126 abs;
#X obj 43 154 expr (((60000 / $f1) * $f2) / $f3);
#X msg 292 260 0;
#X msg 433 260 0;
#X obj 43 20 inlet;
#X obj 337 399 outlet;
#X text 87 19 bpm \, duration_beats \, start \, end;
#X connect 0 0 15 0;
#X connect 0 1 15 1;
#X connect 0 2 5 0;
#X connect 0 2 6 0;
#X connect 0 2 13 0;
#X connect 0 2 3 1;
#X connect 0 2 1 1;
#X connect 0 3 5 1;
#X connect 0 3 6 1;
#X connect 0 3 10 1;
#X connect 0 3 13 1;
#X connect 1 0 7 0;
#X connect 1 0 10 0;
#X connect 1 0 19 0;
#X connect 2 0 9 0;
#X connect 2 0 8 0;
#X connect 2 0 11 0;
#X connect 3 0 4 0;
#X connect 3 0 10 0;
#X connect 3 0 19 0;
#X connect 4 0 3 1;
#X connect 5 0 8 1;
#X connect 6 0 9 1;
#X connect 7 0 1 1;
#X connect 8 0 3 0;
#X connect 9 0 1 0;
#X connect 10 0 12 1;
#X connect 11 0 12 0;
#X connect 12 0 2 0;
#X connect 13 0 14 0;
#X connect 14 0 15 2;
#X connect 15 0 2 1;
#X connect 15 0 2 0;
#X connect 16 0 3 1;
#X connect 17 0 1 1;
#X connect 18 0 0 0;
