#N canvas 962 559 1447 857 10;
#X obj 166 139 makenote 3.2 500;
#X floatatom 100 25 5 0 0 0 - - -, f 5;
#X floatatom 355 77 5 0 0 0 - - -, f 5;
#X floatatom 250 77 5 0 0 0 - - -, f 5;
#X obj 173 220 noteout;
#X floatatom 307 185 5 0 0 0 - - -, f 5;
#X msg 166 81 70;
#X msg 136 48 65;
#X connect 0 0 4 0;
#X connect 0 1 4 1;
#X connect 1 0 0 0;
#X connect 2 0 0 2;
#X connect 3 0 0 1;
#X connect 5 0 4 2;
#X connect 6 0 0 0;
#X connect 7 0 0 0;
