#N canvas 202 283 290 349 12;
#X obj 24 13 inlet;
#X text 64 12 reset;
#X obj 24 100 controller/note-filter;
#X msg 99 75 60;
#X msg 24 75 1;
#X obj 61 132 sel 127;
#X obj 175 75 r tr-d-#;
#X obj 132 265 r smpl-pc-#;
#X obj 93 291 pgmout;
#X obj 93 226 spigot;
#X msg 151 198 1;
#X msg 114 198 0;
#X obj 24 40 t b b b;
#X obj 61 162 t b b;
#X obj 93 263 f 1;
#X obj 150 13 inlet;
#X text 192 12 scene;
#X connect 0 0 12 0;
#X connect 2 1 5 0;
#X connect 3 0 2 1;
#X connect 4 0 2 0;
#X connect 5 0 13 0;
#X connect 6 0 2 2;
#X connect 7 0 8 1;
#X connect 9 0 14 0;
#X connect 10 0 9 1;
#X connect 11 0 9 1;
#X connect 12 0 4 0;
#X connect 12 1 3 0;
#X connect 12 2 10 0;
#X connect 13 0 11 0;
#X connect 13 1 9 0;
#X connect 14 0 8 0;
#X connect 15 0 14 1;
