#N canvas 175 442 2698 1276 10;
#X obj 166 139 makenote 3.2 500;
#X floatatom 100 25 5 0 0 0 - - -, f 5;
#X floatatom 230 76 5 0 0 0 - - -, f 5;
#X obj 173 220 noteout;
#X floatatom 587 75 5 0 0 0 - - -, f 5;
#X msg 136 48 22;
#X obj 186 287 bng 15 250 50 0 empty empty empty 17 7 0 10 -262144
-1 -1;
#X obj 453 264 bng 15 250 50 0 empty empty empty 17 7 0 10 -262144
-1 -1;
#X obj 267 277 bng 15 250 50 0 empty empty empty 17 7 0 10 -262144
-1 -1;
#X floatatom 355 77 5 0 0 0 - - -, f 5;
#X floatatom 198 334 5 0 0 0 - - -, f 5;
#X floatatom 298 309 5 0 0 0 - - -, f 5;
#X floatatom 453 299 5 0 0 0 - - -, f 5;
#X obj 241 370 ctlout 99 11;
#X obj 352 366 ctlout 98 11;
#X obj 496 349 ctlout 6 11;
#X msg 166 81 33;
#X obj 187 427 bng 15 250 50 0 empty empty empty 17 7 0 10 -262144
-1 -1;
#X obj 281 426 bng 15 250 50 0 empty empty empty 17 7 0 10 -262144
-1 -1;
#X floatatom 199 474 5 0 0 0 - - -, f 5;
#X floatatom 312 458 5 0 0 0 - - -, f 5;
#X obj 242 510 ctlout 0 11;
#X obj 366 515 ctlout 32 11;
#X floatatom 457 440 5 0 0 0 - - -, f 5;
#X obj 479 497 pgmout;
#X obj 278 22 metro 800;
#X floatatom 223 8 5 0 0 0 - - -, f 5;
#X floatatom 514 440 5 0 0 0 - - -, f 5;
#X obj 458 402 bng 15 250 50 0 empty empty empty 17 7 0 10 -262144
-1 -1;
#X obj 307 65 delay;
#X floatatom 349 36 5 0 0 0 - - -, f 5;
#X obj 712 251 makenote 3.2 500;
#X floatatom 646 137 5 0 0 0 - - -, f 5;
#X floatatom 901 189 5 0 0 0 - - -, f 5;
#X floatatom 796 189 5 0 0 0 - - -, f 5;
#X obj 719 332 noteout;
#X floatatom 877 236 5 0 0 0 - - -, f 5;
#X msg 712 193 70;
#X msg 682 160 65;
#X floatatom 964 239 5 0 0 0 - - -, f 5;
#X obj 968 283 ctlout 43;
#X connect 0 0 3 0;
#X connect 0 1 3 1;
#X connect 1 0 0 0;
#X connect 2 0 0 1;
#X connect 4 0 3 2;
#X connect 5 0 0 0;
#X connect 6 0 10 0;
#X connect 6 0 8 0;
#X connect 7 0 12 0;
#X connect 8 0 11 0;
#X connect 8 0 7 0;
#X connect 9 0 0 2;
#X connect 10 0 13 0;
#X connect 11 0 14 0;
#X connect 12 0 15 0;
#X connect 16 0 0 0;
#X connect 17 0 19 0;
#X connect 17 0 18 0;
#X connect 18 0 20 0;
#X connect 19 0 21 0;
#X connect 20 0 22 0;
#X connect 23 0 24 0;
#X connect 25 0 5 0;
#X connect 25 0 29 0;
#X connect 25 0 38 0;
#X connect 26 0 25 0;
#X connect 27 0 24 1;
#X connect 28 0 23 0;
#X connect 28 0 27 0;
#X connect 29 0 16 0;
#X connect 30 0 29 1;
#X connect 31 0 35 0;
#X connect 31 1 35 1;
#X connect 32 0 31 0;
#X connect 33 0 31 2;
#X connect 34 0 31 1;
#X connect 36 0 35 2;
#X connect 36 0 40 2;
#X connect 37 0 31 0;
#X connect 38 0 31 0;
#X connect 39 0 40 0;
