#N canvas 0 57 1680 993 10;
#X obj 193 427 makenote 3.2 500;
#X floatatom 127 313 5 0 0 0 - - -, f 5;
#X floatatom 257 364 5 0 0 0 - - -, f 5;
#X obj 200 508 noteout;
#X floatatom 608 371 5 0 0 0 - - -, f 5;
#X msg 163 336 22;
#X obj 1032 347 bng 15 250 50 0 empty empty empty 17 7 0 10 -262144
-1 -1;
#X obj 1255 345 bng 15 250 50 0 empty empty empty 17 7 0 10 -262144
-1 -1;
#X obj 1113 337 bng 15 250 50 0 empty empty empty 17 7 0 10 -262144
-1 -1;
#X floatatom 382 365 5 0 0 0 - - -, f 5;
#X floatatom 1044 394 5 0 0 0 - - -, f 5;
#X floatatom 1144 369 5 0 0 0 - - -, f 5;
#X floatatom 1265 377 5 0 0 0 - - -, f 5;
#X msg 193 369 33;
#X obj 1191 719 bng 15 250 50 0 empty empty empty 17 7 0 10 -262144
-1 -1;
#X obj 1321 715 bng 15 250 50 0 empty empty empty 17 7 0 10 -262144
-1 -1;
#X floatatom 1191 773 5 0 0 0 - - -, f 5;
#X floatatom 1321 771 5 0 0 0 - - -, f 5;
#X floatatom 1468 772 5 0 0 0 - - -, f 5;
#X obj 1468 710 bng 15 250 50 0 empty empty empty 17 7 0 10 -262144
-1 -1;
#X obj 193 242 delay;
#X floatatom 205 179 5 0 0 0 - - -, f 5;
#X obj 1212 139 makenote 3.2 500;
#X floatatom 1146 25 5 0 0 0 - - -, f 5;
#X floatatom 1401 77 5 0 0 0 - - -, f 5;
#X floatatom 1296 77 5 0 0 0 - - -, f 5;
#X obj 1219 220 noteout;
#X msg 1212 81 70;
#X floatatom 1495 186 5 0 0 0 - - -, f 5;
#X obj 1495 213 ctlout 43;
#X floatatom 61 8 5 0 0 0 - - -, f 5;
#X obj 61 31 expr (60000 / $f1);
#X obj 4 57 metro 1000;
#X text 1483 59 11 chn 1 - 12 chn 2;
#X msg 1182 48 50;
#X text 915 317 controller params;
#X text 1296 825 lsb;
#X text 1419 825 program;
#X floatatom 81 825 5 0 0 0 - - -, f 5;
#X obj 49 780 bng 15 250 50 0 empty empty empty 17 7 0 10 -262144 -1
-1;
#X floatatom 217 821 5 0 0 0 - - -, f 5;
#X obj 185 776 bng 15 250 50 0 empty empty empty 17 7 0 10 -262144
-1 -1;
#X obj 95 890 ctlout 42 11;
#X obj 231 886 ctlout 43 11;
#X text 1160 679 korg pattern;
#X text 1279 771 bank;
#X text 1415 772 pattern;
#X obj 1191 826 ctlout 0;
#X obj 1321 825 ctlout 32;
#X obj 1468 824 pgmout;
#X msg 1090 161 12;
#X msg 1045 161 11;
#X obj 1087 211 s note_ch;
#X obj 1520 119 r note_ch;
#X obj 1535 782 r pattern_ch;
#X msg 1033 704 12;
#X msg 988 704 11;
#X obj 1030 754 s pattern_ch;
#X obj 3 7 tgl 15 0 empty empty empty 17 7 0 10 -262144 -1 -1 0 1;
#X msg 857 359 12;
#X msg 812 359 11;
#X obj 854 409 s control_ch;
#X obj 1087 430 ctlout 99;
#X obj 1198 426 ctlout 98;
#X obj 1308 427 ctlout 6;
#X obj 1360 365 r control_ch;
#X text 1161 826 msb;
#X text 1061 432 msb;
#X text 1163 433 lsb;
#X connect 0 0 3 0;
#X connect 0 1 3 1;
#X connect 1 0 0 0;
#X connect 2 0 0 1;
#X connect 4 0 3 2;
#X connect 5 0 0 0;
#X connect 6 0 10 0;
#X connect 6 0 8 0;
#X connect 7 0 12 0;
#X connect 8 0 11 0;
#X connect 8 0 7 0;
#X connect 9 0 0 2;
#X connect 10 0 62 0;
#X connect 11 0 63 0;
#X connect 12 0 64 0;
#X connect 13 0 0 0;
#X connect 14 0 16 0;
#X connect 14 0 15 0;
#X connect 15 0 17 0;
#X connect 15 0 19 0;
#X connect 16 0 47 0;
#X connect 17 0 48 0;
#X connect 18 0 49 0;
#X connect 19 0 18 0;
#X connect 20 0 13 0;
#X connect 21 0 20 1;
#X connect 22 0 26 0;
#X connect 22 1 26 1;
#X connect 23 0 22 0;
#X connect 24 0 22 2;
#X connect 25 0 22 1;
#X connect 27 0 22 0;
#X connect 28 0 29 0;
#X connect 30 0 31 0;
#X connect 31 0 32 1;
#X connect 32 0 5 0;
#X connect 32 0 20 0;
#X connect 32 0 34 0;
#X connect 34 0 22 0;
#X connect 38 0 42 0;
#X connect 39 0 38 0;
#X connect 40 0 43 0;
#X connect 41 0 40 0;
#X connect 50 0 52 0;
#X connect 51 0 52 0;
#X connect 53 0 26 2;
#X connect 53 0 29 2;
#X connect 54 0 47 2;
#X connect 54 0 48 2;
#X connect 54 0 49 1;
#X connect 55 0 57 0;
#X connect 56 0 57 0;
#X connect 58 0 32 0;
#X connect 59 0 61 0;
#X connect 60 0 61 0;
#X connect 65 0 62 2;
#X connect 65 0 63 2;
#X connect 65 0 64 2;
