#N canvas 0 57 1680 993 10;
#X text 1105 873 lsb;
#X text 1248 874 program;
#X floatatom 81 825 5 0 0 0 - - -, f 5;
#X obj 49 780 bng 15 250 50 0 empty empty empty 17 7 0 10 -262144 -1
-1;
#X floatatom 217 821 5 0 0 0 - - -, f 5;
#X obj 185 776 bng 15 250 50 0 empty empty empty 17 7 0 10 -262144
-1 -1;
#X obj 95 890 ctlout 42 11;
#X obj 231 886 ctlout 43 11;
#X text 989 728 korg pattern;
#X obj 1130 873 ctlout 32 11;
#X obj 1297 873 pgmout 11;
#X floatatom 866 728 5 0 0 0 - - -, f 5;
#X floatatom 783 733 5 0 0 0 - - -, f 5;
#X obj 756 804 s lsb;
#X obj 1097 735 r lsb;
#X obj 864 793 s pattern;
#X obj 1344 788 r pattern;
#X msg 578 867 12;
#X msg 533 878 11;
#X msg 578 867 12;
#X msg 533 878 11;
#X obj 543 927 noteout 0;
#X obj 429 928 noteout;
#X obj 442 883 makenote 0 0;
#X msg 483 794 50;
#X obj 193 427 makenote 3.2 500;
#X floatatom 127 313 5 0 0 0 - - -, f 5;
#X floatatom 257 364 5 0 0 0 - - -, f 5;
#X obj 200 508 noteout;
#X floatatom 608 371 5 0 0 0 - - -, f 5;
#X msg 163 336 22;
#X obj 1072 558 bng 15 250 50 0 empty empty empty 17 7 0 10 -262144
-1 -1;
#X obj 1295 556 bng 15 250 50 0 empty empty empty 17 7 0 10 -262144
-1 -1;
#X obj 1153 548 bng 15 250 50 0 empty empty empty 17 7 0 10 -262144
-1 -1;
#X floatatom 382 365 5 0 0 0 - - -, f 5;
#X floatatom 1084 605 5 0 0 0 - - -, f 5;
#X floatatom 1184 580 5 0 0 0 - - -, f 5;
#X floatatom 1305 588 5 0 0 0 - - -, f 5;
#X msg 193 369 33;
#X obj 193 242 delay;
#X floatatom 205 179 5 0 0 0 - - -, f 5;
#X floatatom 198 16 5 0 0 0 - - -, f 5;
#X obj 198 39 expr (60000 / $f1);
#X obj 141 65 metro 1000;
#X text 1483 59 11 chn 1 - 12 chn 2;
#X text 955 528 controller params;
#X msg 1090 161 12;
#X msg 1045 161 11;
#X obj 1087 211 s note_ch;
#X obj 139 15 tgl 15 0 empty empty empty 17 7 0 10 -262144 -1 -1 0
1;
#X obj 1127 641 ctlout 99;
#X obj 1238 637 ctlout 98;
#X obj 1348 638 ctlout 6;
#X text 1101 643 msb;
#X text 1203 644 lsb;
#X msg 897 570 12;
#X msg 852 570 11;
#X obj 894 620 s control_ch;
#X obj 1400 576 r control_ch;
#X obj 1512 633 bng 15 250 50 0 empty empty empty 17 7 0 10 -262144
-1 -1;
#X obj 1448 764 value pattern;
#X obj 1532 822 spigot;
#X obj 1564 716 tgl 15 0 empty empty empty 17 7 0 10 -262144 -1 -1
0 1;
#X floatatom 1144 0 5 0 0 0 - - -, f 5;
#X floatatom 1399 52 5 0 0 0 - - -, f 5;
#X floatatom 1294 52 5 0 0 0 - - -, f 5;
#X msg 1210 56 70;
#X text 1481 34 11 chn 1 - 12 chn 2;
#X msg 1180 23 50;
#X obj 1210 114 makenote 1 500;
#X floatatom 979 237 5 0 0 0 - - -, f 5;
#X floatatom 1234 289 5 0 0 0 - - -, f 5;
#X floatatom 1129 289 5 0 0 0 - - -, f 5;
#X msg 1045 293 70;
#X msg 1015 260 50;
#X obj 1045 351 makenote 1 500;
#X obj 1217 195 noteout 11;
#X obj 1052 432 noteout 12;
#X connect 2 0 6 0;
#X connect 3 0 2 0;
#X connect 4 0 7 0;
#X connect 5 0 4 0;
#X connect 11 0 15 0;
#X connect 12 0 13 0;
#X connect 14 0 9 0;
#X connect 16 0 10 0;
#X connect 17 0 21 2;
#X connect 18 0 22 2;
#X connect 23 0 22 0;
#X connect 23 0 21 0;
#X connect 23 1 22 1;
#X connect 23 1 21 1;
#X connect 24 0 23 0;
#X connect 25 0 28 0;
#X connect 25 1 28 1;
#X connect 26 0 25 0;
#X connect 27 0 25 1;
#X connect 29 0 28 2;
#X connect 30 0 25 0;
#X connect 31 0 35 0;
#X connect 31 0 33 0;
#X connect 32 0 37 0;
#X connect 33 0 36 0;
#X connect 33 0 32 0;
#X connect 34 0 25 2;
#X connect 35 0 50 0;
#X connect 36 0 51 0;
#X connect 37 0 52 0;
#X connect 38 0 25 0;
#X connect 39 0 38 0;
#X connect 40 0 39 1;
#X connect 41 0 42 0;
#X connect 42 0 43 1;
#X connect 43 0 30 0;
#X connect 43 0 39 0;
#X connect 43 0 68 0;
#X connect 46 0 48 0;
#X connect 47 0 48 0;
#X connect 49 0 43 0;
#X connect 55 0 57 0;
#X connect 56 0 57 0;
#X connect 58 0 50 2;
#X connect 58 0 51 2;
#X connect 58 0 52 2;
#X connect 59 0 62 0;
#X connect 60 0 61 0;
#X connect 62 0 61 1;
#X connect 63 0 69 0;
#X connect 64 0 69 2;
#X connect 65 0 69 1;
#X connect 66 0 69 0;
#X connect 68 0 69 0;
#X connect 69 0 76 0;
#X connect 69 1 76 1;
#X connect 70 0 75 0;
#X connect 71 0 75 2;
#X connect 72 0 75 1;
#X connect 73 0 75 0;
#X connect 74 0 75 0;
#X connect 75 0 77 0;
#X connect 75 1 77 1;
