#N canvas 376 267 922 716 10;
#X obj 118 13 tgl 15 0 empty empty empty 17 7 0 10 -262144 -1 -1 0
1;
#X obj 118 160 metro;
#X obj 118 182 float;
#X obj 118 204 mod 16;
#X obj 192 182 + 1;
#X obj 181 298 + 1;
#X obj 118 298 float;
#X obj 245 353 float;
#X obj 332 375 list;
#X text 162 12 bmp;
#X floatatom 189 13 5 0 0 0 - - -, f 5;
#X obj 189 130 expr (60000 / $f1);
#X text 19 12 reset;
#X obj 61 13 bng 15 250 50 0 empty empty empty 17 7 0 10 -262144 -1
-1;
#X text 96 12 on;
#X msg 61 160 0;
#X obj 457 163 s beat-len;
#X msg 391 360 reset;
#X obj 245 331 bang;
#X text 29 223 16 steps;
#X text 247 399 the tune;
#X obj 118 226 sel 15;
#X obj 332 400 choons/a1;
#X obj 118 320 mod 32;
#X text 33 325 32 groups;
#X msg 229 13 124;
#X obj 555 109 s ea_1_#;
#X obj 640 111 s ea_2_#;
#X obj 705 111 s sample-#;
#X msg 556 64 1;
#X msg 635 64 2;
#X msg 716 61 11;
#X obj 464 95 s bpm;
#X obj 460 213 s tick;
#X connect 0 0 1 0;
#X connect 1 0 2 0;
#X connect 1 0 33 0;
#X connect 2 0 3 0;
#X connect 2 0 4 0;
#X connect 3 0 8 1;
#X connect 3 0 18 0;
#X connect 3 0 21 0;
#X connect 4 0 2 1;
#X connect 5 0 6 1;
#X connect 6 0 5 0;
#X connect 6 0 23 0;
#X connect 7 0 8 0;
#X connect 8 0 22 0;
#X connect 10 0 11 0;
#X connect 10 0 32 0;
#X connect 11 0 1 1;
#X connect 11 0 16 0;
#X connect 13 0 15 0;
#X connect 13 0 17 0;
#X connect 15 0 6 0;
#X connect 15 0 2 1;
#X connect 17 0 22 0;
#X connect 18 0 7 0;
#X connect 21 0 6 0;
#X connect 23 0 7 1;
#X connect 25 0 11 0;
#X connect 25 0 32 0;
#X connect 29 0 26 0;
#X connect 30 0 27 0;
#X connect 31 0 28 0;
