#N canvas -14 60 1680 959 10;
#X text 646 573 on;
#X obj 31 13 loadbang;
#X msg 1253 494 1;
#X msg 1317 494 2;
#X msg 31 38 bang;
#X obj 31 770 s reset;
#X obj 1464 797 s beat-len;
#X obj 1385 242 s ea-1-#;
#X obj 1446 242 s ea-2-#;
#X msg 648 132 1;
#X msg 724 132 2;
#X obj 648 154 s apc-ctl-#;
#X obj 724 154 s apc-key-#;
#X obj 456 13 apc/apc-ctl;
#X msg 800 132 6;
#X obj 800 154 s kp3-#;
#X obj 211 13 midirealtimein;
#X obj 382 740 + 1;
#X obj 341 740 f;
#X obj 341 770 sel 24;
#X obj 669 574 tgl 15 0 empty empty empty 17 7 0 10 -262144 -1 -1 0
1;
#X obj 341 797 s tick-4;
#X obj 1084 797 s tick-96;
#X obj 1108 154 s tr-s1-#;
#X obj 1175 154 s tr-s2-#;
#X obj 1239 154 s tr-d-#;
#X obj 928 154 s tr-m1-#;
#X obj 990 154 s tr-m2-#;
#X msg 1175 132 12;
#X msg 1239 132 13;
#X obj 624 604 spigot 0;
#X text 714 826 anything over 16 ticks cannot be queued without changing
open counter, f 70;
#X msg 356 715 1;
#X msg 330 689 24;
#X obj 997 740 f;
#X msg 986 689 1;
#X msg 1012 715 1;
#X obj 1038 740 + 1;
#X obj 997 770 sel 2;
#X obj 997 797 s tick-48;
#X obj 907 740 f;
#X msg 922 715 1;
#X obj 948 740 + 1;
#X msg 896 689 2;
#X obj 907 770 sel 3;
#X obj 907 797 s tick-32;
#X obj 713 740 f;
#X msg 728 713 1;
#X obj 754 740 + 1;
#X obj 813 740 f;
#X msg 828 715 1;
#X obj 854 740 + 1;
#X msg 802 689 4;
#X obj 813 770 sel 4;
#X obj 813 797 s tick-24;
#X obj 616 740 f;
#X msg 631 714 1;
#X obj 657 740 + 1;
#X msg 605 688 8;
#X obj 616 770 sel 8;
#X obj 616 797 s tick-12;
#X msg 702 687 6;
#X obj 713 770 sel 6;
#X obj 713 797 s tick-16;
#X obj 571 740 + 1;
#X obj 530 740 f;
#X msg 545 715 1;
#X msg 519 689 12;
#X obj 530 770 sel 12;
#X obj 530 797 s tick-8;
#X obj 267 740 + 1;
#X obj 226 740 f;
#X msg 241 715 1;
#X msg 215 689 48;
#X obj 226 770 sel 48;
#X obj 226 797 s tick-2;
#X obj 150 740 + 1;
#X obj 109 740 f;
#X msg 124 715 1;
#X msg 98 689 96;
#X msg 669 544 1;
#X obj 109 797 s tick;
#X obj 995 242 s amb-1-#;
#X obj 1059 242 s amb-2-#;
#X obj 132 818 s open;
#X obj 155 839 s fern;
#X obj 109 770 sel 96 91 75;
#X obj 1253 520 s 1a-id;
#X obj 484 740 + 1;
#X obj 443 740 f;
#X msg 458 715 1;
#X msg 432 689 16;
#X obj 443 770 sel 16;
#X obj 443 797 s tick-6;
#X msg 1054 132 10;
#X obj 1054 154 s dbi-#;
#X obj 1125 242 s amb-3-#;
#X obj 1190 242 s amb-4-#;
#X obj 1255 242 s amb-5-#;
#X obj 1321 242 s amb-6-#;
#X obj 31 740 delay 2000;
#X obj 1252 545 choons/1a;
#X msg 1285 307 3;
#X obj 1285 329 s zoom-port-#;
#X msg 1226 307 48;
#X obj 1226 329 s zoom-#;
#X msg 1108 132 11;
#X msg 1298 132 16;
#X obj 1298 154 s tr-pr-#;
#X obj 1317 545 choons/1b;
#X obj 1317 520 s 1b-id;
#X obj 1182 670 f;
#X obj 1223 670 + 1;
#X obj 1182 612 r tick-16;
#X obj 1182 701 t f f f f f f;
#X obj 1389 740 mod 16;
#X msg 1197 645 0;
#X obj 1389 770 + 1;
#X obj 1335 770 + 1;
#X obj 1335 740 mod 32;
#X obj 1280 770 + 1;
#X obj 1280 740 mod 64;
#X obj 1220 770 + 1;
#X obj 1220 740 mod 128;
#X obj 1159 770 + 1;
#X obj 1159 740 mod 256;
#X obj 1122 701 sel 511;
#X obj 1389 797 s cnt-16;
#X obj 1335 797 s cnt-32;
#X obj 1280 797 s cnt-64;
#X obj 1220 797 s cnt-128;
#X obj 1159 797 s cnt-256;
#X text 1252 306 (16);
#X msg 852 132 7;
#X obj 852 154 s kp3-ctl-#;
#X obj 554 13 kp3/kp3-ctl;
#X obj 1162 329 s pulse-#;
#X msg 1421 59 16;
#X obj 1425 106 common/seq-midi-in-trig-rec;
#X obj 1520 56 r dbi-2#;
#X text 1018 219 (8);
#X text 1082 219 (9);
#X text 1148 219 (10);
#X text 1214 219 (11);
#X text 1280 219 (12);
#X msg 1321 220 29;
#X text 1344 219 (13);
#X text 1409 219 (15);
#X text 1473 219 (16);
#X msg 1385 220 31;
#X msg 1446 220 32;
#X msg 648 103 bang;
#X msg 650 188 bang;
#X obj 650 242 s vd-1-#;
#X obj 708 242 s vd-2-#;
#X obj 766 242 s vd-3-#;
#X obj 823 242 s vd-4-#;
#X obj 880 242 s vd-5-#;
#X obj 937 242 s vd-6-#;
#X text 673 219 (1);
#X text 731 219 (2);
#X text 789 219 (3);
#X text 847 219 (4);
#X text 905 219 (5);
#X text 960 219 (6);
#X msg 651 276 bang;
#X msg 1253 458 bang;
#X obj 211 38 route 248 250 251 252;
#X msg 650 220 17;
#X msg 708 220 18;
#X msg 766 220 19;
#X msg 823 220 20;
#X msg 880 220 21;
#X msg 937 220 22;
#X msg 995 220 24;
#X msg 1059 220 25;
#X msg 1125 220 26;
#X msg 1190 220 27;
#X msg 1255 220 28;
#X obj 1105 329 s beat-#;
#X msg 1424 473 1;
#X obj 1464 501 tgl 15 0 empty empty empty 17 7 0 10 -262144 -1 -1
0 1;
#X obj 1464 551 timer;
#X obj 1535 689 +;
#X obj 1535 715 / 2;
#X obj 1479 621 t b f f;
#X obj 1479 646 f 0;
#X obj 1535 770 int;
#X obj 1535 740 + 0.499999;
#X obj 1464 473 r tick-16;
#X obj 1479 595 expr 90000 / (6 * $f1);
#X obj 1464 522 sel 0 1;
#X obj 1535 797 s bpm;
#X obj 1524 437 common/arp-chord;
#X text 1131 306 (7);
#X msg 651 307 33;
#X text 677 306 (1);
#X obj 651 329 s model-1-#;
#X msg 726 307 34;
#X text 752 306 (2);
#X obj 726 329 s model-2-#;
#X msg 803 307 35;
#X text 829 306 (3);
#X obj 803 329 s model-3-#;
#X text 904 306 (4);
#X msg 878 307 36;
#X obj 878 329 s model-4-#;
#X msg 954 307 37;
#X text 980 306 (5);
#X obj 954 329 s model-5-#;
#X msg 1029 307 38;
#X text 1055 306 (6);
#X obj 1029 329 s model-6-#;
#X msg 1105 307 39;
#X text 1188 306 (9);
#X msg 928 132 8;
#X msg 990 132 9;
#X text 615 102 pd_1;
#X text 616 187 pd_2;
#X text 618 275 pd_3;
#X msg 1162 307 46;
#X connect 1 0 4 0;
#X connect 2 0 87 0;
#X connect 3 0 110 0;
#X connect 4 0 33 0;
#X connect 4 0 61 0;
#X connect 4 0 67 0;
#X connect 4 0 73 0;
#X connect 4 0 79 0;
#X connect 4 0 43 0;
#X connect 4 0 91 0;
#X connect 4 0 35 0;
#X connect 4 0 100 0;
#X connect 4 0 116 0;
#X connect 4 0 151 0;
#X connect 4 0 152 0;
#X connect 4 0 165 0;
#X connect 4 0 166 0;
#X connect 9 0 11 0;
#X connect 10 0 12 0;
#X connect 14 0 15 0;
#X connect 16 0 167 0;
#X connect 17 0 18 1;
#X connect 18 0 17 0;
#X connect 18 0 19 0;
#X connect 19 0 32 0;
#X connect 19 0 21 0;
#X connect 20 0 30 1;
#X connect 28 0 24 0;
#X connect 29 0 25 0;
#X connect 30 0 18 0;
#X connect 30 0 46 0;
#X connect 30 0 65 0;
#X connect 30 0 71 0;
#X connect 30 0 77 0;
#X connect 30 0 40 0;
#X connect 30 0 89 0;
#X connect 30 0 34 0;
#X connect 30 0 22 0;
#X connect 30 0 49 0;
#X connect 32 0 18 1;
#X connect 33 0 18 1;
#X connect 34 0 37 0;
#X connect 34 0 38 0;
#X connect 35 0 34 1;
#X connect 36 0 34 1;
#X connect 37 0 34 1;
#X connect 38 0 36 0;
#X connect 38 0 39 0;
#X connect 40 0 42 0;
#X connect 40 0 44 0;
#X connect 41 0 40 1;
#X connect 42 0 40 1;
#X connect 43 0 40 1;
#X connect 44 0 41 0;
#X connect 44 0 45 0;
#X connect 46 0 48 0;
#X connect 46 0 62 0;
#X connect 47 0 46 1;
#X connect 48 0 46 1;
#X connect 49 0 51 0;
#X connect 49 0 53 0;
#X connect 50 0 49 1;
#X connect 51 0 49 1;
#X connect 52 0 49 1;
#X connect 53 0 50 0;
#X connect 53 0 54 0;
#X connect 55 0 57 0;
#X connect 55 0 59 0;
#X connect 56 0 55 1;
#X connect 57 0 55 1;
#X connect 58 0 55 1;
#X connect 59 0 56 0;
#X connect 59 0 60 0;
#X connect 61 0 46 1;
#X connect 62 0 47 0;
#X connect 62 0 63 0;
#X connect 64 0 65 1;
#X connect 65 0 64 0;
#X connect 65 0 68 0;
#X connect 66 0 65 1;
#X connect 67 0 65 1;
#X connect 68 0 66 0;
#X connect 68 0 69 0;
#X connect 70 0 71 1;
#X connect 71 0 70 0;
#X connect 71 0 74 0;
#X connect 72 0 71 1;
#X connect 73 0 71 1;
#X connect 74 0 72 0;
#X connect 74 0 75 0;
#X connect 76 0 77 1;
#X connect 77 0 76 0;
#X connect 77 0 86 0;
#X connect 78 0 77 1;
#X connect 79 0 77 1;
#X connect 80 0 20 0;
#X connect 86 0 78 0;
#X connect 86 0 81 0;
#X connect 86 1 84 0;
#X connect 86 2 85 0;
#X connect 88 0 89 1;
#X connect 89 0 88 0;
#X connect 89 0 92 0;
#X connect 90 0 89 1;
#X connect 91 0 89 1;
#X connect 92 0 90 0;
#X connect 92 0 93 0;
#X connect 94 0 95 0;
#X connect 100 0 5 0;
#X connect 102 0 103 0;
#X connect 104 0 105 0;
#X connect 106 0 23 0;
#X connect 107 0 108 0;
#X connect 111 0 112 0;
#X connect 111 0 114 0;
#X connect 112 0 111 1;
#X connect 113 0 111 0;
#X connect 114 0 126 0;
#X connect 114 1 125 0;
#X connect 114 2 123 0;
#X connect 114 3 121 0;
#X connect 114 4 119 0;
#X connect 114 5 115 0;
#X connect 115 0 117 0;
#X connect 116 0 111 1;
#X connect 117 0 127 0;
#X connect 118 0 128 0;
#X connect 119 0 118 0;
#X connect 120 0 129 0;
#X connect 121 0 120 0;
#X connect 122 0 130 0;
#X connect 123 0 122 0;
#X connect 124 0 131 0;
#X connect 125 0 124 0;
#X connect 126 0 116 0;
#X connect 133 0 134 0;
#X connect 137 0 138 0;
#X connect 139 0 138 1;
#X connect 145 0 99 0;
#X connect 149 0 7 0;
#X connect 150 0 8 0;
#X connect 151 0 9 0;
#X connect 151 0 10 0;
#X connect 151 0 14 0;
#X connect 151 0 133 0;
#X connect 151 0 94 0;
#X connect 151 0 106 0;
#X connect 151 0 28 0;
#X connect 151 0 29 0;
#X connect 151 0 107 0;
#X connect 151 0 216 0;
#X connect 151 0 215 0;
#X connect 152 0 168 0;
#X connect 152 0 169 0;
#X connect 152 0 170 0;
#X connect 152 0 171 0;
#X connect 152 0 172 0;
#X connect 152 0 173 0;
#X connect 152 0 149 0;
#X connect 152 0 150 0;
#X connect 152 0 174 0;
#X connect 152 0 177 0;
#X connect 152 0 176 0;
#X connect 152 0 178 0;
#X connect 152 0 175 0;
#X connect 152 0 145 0;
#X connect 152 0 220 0;
#X connect 165 0 104 0;
#X connect 165 0 102 0;
#X connect 165 0 213 0;
#X connect 165 0 195 0;
#X connect 165 0 198 0;
#X connect 165 0 201 0;
#X connect 165 0 205 0;
#X connect 165 0 207 0;
#X connect 165 0 210 0;
#X connect 166 0 2 0;
#X connect 166 0 3 0;
#X connect 167 0 30 0;
#X connect 167 1 80 0;
#X connect 168 0 153 0;
#X connect 169 0 154 0;
#X connect 170 0 155 0;
#X connect 171 0 156 0;
#X connect 172 0 157 0;
#X connect 173 0 158 0;
#X connect 174 0 82 0;
#X connect 175 0 83 0;
#X connect 176 0 96 0;
#X connect 177 0 97 0;
#X connect 178 0 98 0;
#X connect 180 0 181 0;
#X connect 181 0 191 0;
#X connect 182 0 6 0;
#X connect 182 0 190 0;
#X connect 183 0 184 0;
#X connect 184 0 186 1;
#X connect 184 0 188 0;
#X connect 185 0 186 0;
#X connect 185 2 183 1;
#X connect 186 0 183 0;
#X connect 187 0 192 0;
#X connect 188 0 187 0;
#X connect 189 0 181 0;
#X connect 190 0 185 0;
#X connect 191 0 182 0;
#X connect 191 1 182 1;
#X connect 195 0 197 0;
#X connect 198 0 200 0;
#X connect 201 0 203 0;
#X connect 205 0 206 0;
#X connect 207 0 209 0;
#X connect 210 0 212 0;
#X connect 213 0 179 0;
#X connect 215 0 26 0;
#X connect 216 0 27 0;
#X connect 220 0 136 0;
