#N canvas 225 115 1445 871 10;
#X text 650 154 bmp;
#X text 646 573 on;
#X msg 676 91 11;
#X obj 694 216 s bpm;
#X msg 551 91 3;
#X msg 614 91 4;
#X msg 1018 143 5;
#X obj 31 13 loadbang;
#X obj 618 186 expr (60000 / $i1);
#X msg 557 265 1;
#X msg 609 265 2;
#X msg 31 38 bang;
#X obj 1016 306 choons/a1;
#X obj 553 155 s reset;
#X obj 618 216 s beat-len;
#X obj 551 113 s ea-1-#;
#X obj 614 113 s ea-2-#;
#X obj 1018 165 s pulse-#;
#X obj 676 113 s sample-#;
#X obj 557 288 s a1-id;
#X obj 609 288 s a2-id;
#X msg 618 155 124;
#X msg 749 91 1;
#X msg 825 91 2;
#X obj 749 113 s apc-ctl-#;
#X obj 825 113 s apc-key-#;
#X obj 106 13 apc/apc-ctl;
#X obj 813 13 nbx 4 35 -1e+37 1e+37 0 0 empty enc-val empty 0 -8 0
30 -13381 -257985 -232576 0 256;
#X msg 902 91 6;
#X obj 902 113 s kp3-#;
#X obj 211 13 midirealtimein;
#X obj 379 740 + 1;
#X msg 335 740 0;
#X obj 320 773 f;
#X obj 379 773 sel 24;
#X obj 505 740 + 1;
#X msg 461 740 0;
#X obj 446 773 f;
#X obj 1132 740 + 1;
#X msg 1088 740 0;
#X obj 1073 773 f;
#X obj 1005 740 + 1;
#X msg 961 740 0;
#X obj 946 773 f;
#X obj 505 773 sel 12;
#X obj 1005 773 sel 3;
#X obj 669 574 tgl 15 0 empty empty empty 17 7 0 10 -262144 -1 -1 1
1;
#X obj 379 803 s tick-4;
#X obj 505 803 s tick-8;
#X obj 1005 803 s tick-32;
#X obj 257 740 + 1;
#X msg 213 740 0;
#X obj 198 773 f;
#X obj 881 740 + 1;
#X msg 837 740 0;
#X obj 822 773 f;
#X obj 1359 803 s tick-96;
#X obj 257 773 sel 48;
#X obj 257 803 s tick-2;
#X obj 881 773 sel 4;
#X obj 755 740 + 1;
#X msg 711 740 0;
#X obj 696 773 f;
#X obj 630 740 + 1;
#X msg 586 740 0;
#X obj 571 773 f;
#X obj 881 803 s tick-24;
#X obj 755 773 sel 6;
#X obj 755 803 s tick-16;
#X obj 630 773 sel 8;
#X obj 630 803 s tick-12;
#X msg 1215 740 0;
#X obj 1200 773 f;
#X obj 1259 740 + 0.5;
#X obj 1259 773 sel 3;
#X obj 1259 803 s tick-64;
#X obj 90 740 + 1;
#X msg 46 740 0;
#X obj 31 773 f;
#X obj 90 773 sel 96;
#X obj 90 803 s tick;
#X obj 1132 773 sel 2;
#X obj 1132 803 s tick-48;
#X obj 729 13 tgl 20 0 empty shift empty 21 10 0 20 -66577 -257985
-1 0 1;
#X obj 1015 113 s tr-s1-#;
#X obj 1091 113 s tr-s2-#;
#X obj 1161 113 s tr-d-#;
#X obj 1228 113 s tr-m1-#;
#X obj 1298 113 s tr-m2-#;
#X msg 1015 91 10;
#X msg 1091 91 12;
#X msg 1161 91 13;
#X msg 1228 91 14;
#X msg 1298 91 15;
#X msg 31 707 95;
#X msg 194 707 47;
#X msg 318 707 23;
#X msg 441 707 11;
#X msg 568 707 7;
#X msg 686 707 5;
#X msg 817 707 3;
#X msg 942 707 2;
#X msg 1070 707 1;
#X msg 1194 707 2.5;
#X obj 211 38 route 248 250 252;
#X obj 624 604 spigot 0;
#X obj 133 773 sel 91;
#X obj 133 803 s open;
#X text 829 830 anything over 16 ticks cannot be queued without changing
open counter, f 77;
#X connect 2 0 18 0;
#X connect 4 0 15 0;
#X connect 5 0 16 0;
#X connect 6 0 17 0;
#X connect 7 0 11 0;
#X connect 8 0 14 0;
#X connect 9 0 19 0;
#X connect 10 0 20 0;
#X connect 11 0 2 0;
#X connect 11 0 5 0;
#X connect 11 0 4 0;
#X connect 11 0 9 0;
#X connect 11 0 10 0;
#X connect 11 0 21 0;
#X connect 11 0 22 0;
#X connect 11 0 23 0;
#X connect 11 0 28 0;
#X connect 11 0 94 0;
#X connect 11 0 95 0;
#X connect 11 0 96 0;
#X connect 11 0 97 0;
#X connect 11 0 99 0;
#X connect 11 0 13 0;
#X connect 21 0 3 0;
#X connect 21 0 8 0;
#X connect 22 0 24 0;
#X connect 23 0 25 0;
#X connect 28 0 29 0;
#X connect 30 0 104 0;
#X connect 31 0 34 0;
#X connect 32 0 33 1;
#X connect 33 0 31 0;
#X connect 34 0 32 0;
#X connect 34 0 47 0;
#X connect 34 1 33 1;
#X connect 35 0 44 0;
#X connect 36 0 37 1;
#X connect 37 0 35 0;
#X connect 38 0 81 0;
#X connect 39 0 40 1;
#X connect 40 0 38 0;
#X connect 41 0 45 0;
#X connect 42 0 43 1;
#X connect 43 0 41 0;
#X connect 44 0 36 0;
#X connect 44 0 48 0;
#X connect 44 1 37 1;
#X connect 45 0 42 0;
#X connect 45 0 49 0;
#X connect 45 1 43 1;
#X connect 46 0 105 1;
#X connect 50 0 57 0;
#X connect 51 0 52 1;
#X connect 52 0 50 0;
#X connect 53 0 59 0;
#X connect 54 0 55 1;
#X connect 55 0 53 0;
#X connect 57 0 51 0;
#X connect 57 0 58 0;
#X connect 57 1 52 1;
#X connect 59 0 54 0;
#X connect 59 0 66 0;
#X connect 59 1 55 1;
#X connect 60 0 67 0;
#X connect 61 0 62 1;
#X connect 62 0 60 0;
#X connect 63 0 69 0;
#X connect 64 0 65 1;
#X connect 65 0 63 0;
#X connect 67 0 61 0;
#X connect 67 0 68 0;
#X connect 67 1 62 1;
#X connect 69 0 64 0;
#X connect 69 0 70 0;
#X connect 69 1 65 1;
#X connect 71 0 72 1;
#X connect 72 0 73 0;
#X connect 73 0 74 0;
#X connect 74 0 71 0;
#X connect 74 0 75 0;
#X connect 74 1 72 1;
#X connect 76 0 106 0;
#X connect 76 0 79 0;
#X connect 77 0 78 1;
#X connect 78 0 76 0;
#X connect 79 0 77 0;
#X connect 79 0 80 0;
#X connect 79 1 78 1;
#X connect 81 0 39 0;
#X connect 81 0 82 0;
#X connect 81 1 40 1;
#X connect 89 0 84 0;
#X connect 90 0 85 0;
#X connect 91 0 86 0;
#X connect 92 0 87 0;
#X connect 93 0 88 0;
#X connect 94 0 78 1;
#X connect 95 0 52 1;
#X connect 96 0 33 1;
#X connect 97 0 37 1;
#X connect 98 0 65 1;
#X connect 99 0 62 1;
#X connect 100 0 55 1;
#X connect 101 0 43 1;
#X connect 102 0 40 1;
#X connect 103 0 72 1;
#X connect 104 0 105 0;
#X connect 104 1 46 0;
#X connect 104 2 46 0;
#X connect 105 0 62 0;
#X connect 105 0 33 0;
#X connect 105 0 37 0;
#X connect 105 0 52 0;
#X connect 105 0 78 0;
#X connect 106 0 107 0;
