#N canvas 511 120 923 737 10;
#X obj 77 98 tgl 15 0 empty empty empty 17 7 0 10 -262144 -1 -1 0 1
;
#X obj 77 262 metro;
#X text 121 97 bmp;
#X floatatom 148 98 5 0 0 0 - - -, f 5;
#X obj 148 160 expr (60000 / $f1);
#X text 55 97 on;
#X obj 314 196 s beat-len;
#X msg 188 98 124;
#X obj 439 117 s ea_1_#;
#X obj 502 117 s ea_2_#;
#X obj 637 117 s sample-#;
#X msg 637 92 11;
#X obj 314 146 s bpm;
#X text 189 221 8 per beat 32 ticks per 4 bar;
#X obj 77 323 float;
#X obj 144 323 + 1;
#X msg 104 296 0;
#X obj 144 377 sel 1;
#X obj 148 222 / 8;
#X obj 144 349 == 2;
#X obj 74 445 float;
#X obj 145 445 + 1;
#X msg 101 418 0;
#X obj 145 499 sel 1;
#X obj 145 471 == 2;
#X obj 78 569 float;
#X obj 146 569 + 1;
#X msg 105 543 0;
#X obj 146 624 sel 1;
#X obj 146 597 == 2;
#X msg 439 92 3;
#X msg 502 92 4;
#X msg 567 92 5;
#X obj 567 117 s pulse_#;
#X obj 315 296 s tick_8;
#X obj 314 409 s tick_4;
#X obj 313 533 s tick_2;
#X obj 311 665 s tick;
#X obj 79 14 loadbang;
#X obj 79 42 bng 15 250 50 0 empty empty empty 17 7 0 10 -262144 -1
-1;
#X connect 0 0 1 0;
#X connect 1 0 14 0;
#X connect 1 0 34 0;
#X connect 3 0 4 0;
#X connect 3 0 12 0;
#X connect 4 0 6 0;
#X connect 4 0 18 0;
#X connect 7 0 4 0;
#X connect 7 0 12 0;
#X connect 11 0 10 0;
#X connect 14 0 15 0;
#X connect 15 0 14 1;
#X connect 15 0 19 0;
#X connect 16 0 14 1;
#X connect 17 0 16 0;
#X connect 17 0 20 0;
#X connect 17 0 35 0;
#X connect 18 0 1 1;
#X connect 19 0 17 0;
#X connect 20 0 21 0;
#X connect 21 0 20 1;
#X connect 21 0 24 0;
#X connect 22 0 20 1;
#X connect 23 0 22 0;
#X connect 23 0 25 0;
#X connect 23 0 36 0;
#X connect 24 0 23 0;
#X connect 25 0 26 0;
#X connect 26 0 25 1;
#X connect 26 0 29 0;
#X connect 27 0 25 1;
#X connect 28 0 27 0;
#X connect 28 0 37 0;
#X connect 29 0 28 0;
#X connect 30 0 8 0;
#X connect 31 0 9 0;
#X connect 32 0 33 0;
#X connect 38 0 39 0;
#X connect 39 0 30 0;
#X connect 39 0 31 0;
#X connect 39 0 32 0;
#X connect 39 0 11 0;
#X connect 39 0 7 0;
#X connect 39 0 16 0;
#X connect 39 0 22 0;
#X connect 39 0 27 0;
