#N canvas 129 214 756 722 10;
#X obj 77 98 tgl 15 0 empty empty empty 17 7 0 10 -262144 -1 -1 0 1
;
#X obj 77 262 metro;
#X text 121 97 bmp;
#X text 55 97 on;
#X obj 314 196 s beat-len;
#X msg 148 99 124;
#X obj 439 114 s ea_1_#;
#X obj 502 114 s ea_2_#;
#X obj 637 114 s sample-#;
#X msg 637 92 11;
#X obj 314 146 s bpm;
#X text 189 221 8 per beat 32 ticks per 4 bar;
#X obj 77 323 float;
#X obj 144 323 + 1;
#X msg 104 296 0;
#X obj 144 377 sel 1;
#X obj 148 222 / 8;
#X obj 144 349 == 2;
#X obj 74 445 float;
#X obj 145 445 + 1;
#X msg 101 418 0;
#X obj 145 499 sel 1;
#X obj 145 471 == 2;
#X obj 78 569 float;
#X obj 146 569 + 1;
#X msg 105 543 0;
#X obj 146 624 sel 1;
#X obj 146 597 == 2;
#X msg 439 92 3;
#X msg 502 92 4;
#X msg 567 92 5;
#X obj 567 114 s pulse_#;
#X obj 315 296 s tick_8;
#X obj 314 409 s tick_4;
#X obj 313 533 s tick_2;
#X obj 311 665 s tick;
#X obj 79 14 loadbang;
#X obj 146 14 controller/keyboard_map;
#X obj 148 160 expr (60000 / $i1);
#X msg 441 171 1;
#X msg 442 229 2;
#X msg 79 39 bang;
#X obj 441 198 s a1_id;
#X obj 442 256 s a2_id;
#X obj 549 198 choons/a1;
#X obj 375 114 s reset;
#X connect 0 0 1 0;
#X connect 1 0 12 0;
#X connect 1 0 32 0;
#X connect 5 0 10 0;
#X connect 5 0 38 0;
#X connect 9 0 8 0;
#X connect 12 0 13 0;
#X connect 13 0 12 1;
#X connect 13 0 17 0;
#X connect 14 0 12 1;
#X connect 15 0 14 0;
#X connect 15 0 18 0;
#X connect 15 0 33 0;
#X connect 16 0 1 1;
#X connect 17 0 15 0;
#X connect 18 0 19 0;
#X connect 19 0 18 1;
#X connect 19 0 22 0;
#X connect 20 0 18 1;
#X connect 21 0 20 0;
#X connect 21 0 23 0;
#X connect 21 0 34 0;
#X connect 22 0 21 0;
#X connect 23 0 24 0;
#X connect 24 0 23 1;
#X connect 24 0 27 0;
#X connect 25 0 23 1;
#X connect 26 0 25 0;
#X connect 26 0 35 0;
#X connect 27 0 26 0;
#X connect 28 0 6 0;
#X connect 29 0 7 0;
#X connect 30 0 31 0;
#X connect 36 0 41 0;
#X connect 38 0 4 0;
#X connect 38 0 16 0;
#X connect 39 0 42 0;
#X connect 40 0 43 0;
#X connect 41 0 9 0;
#X connect 41 0 30 0;
#X connect 41 0 29 0;
#X connect 41 0 28 0;
#X connect 41 0 39 0;
#X connect 41 0 40 0;
#X connect 41 0 5 0;
#X connect 41 0 14 0;
#X connect 41 0 20 0;
#X connect 41 0 25 0;
#X connect 41 0 45 0;
