#N canvas 130 60 1591 871 10;
#X text 650 154 bmp;
#X text 646 573 on;
#X msg 676 91 11;
#X obj 694 216 s bpm;
#X msg 551 91 3;
#X obj 31 13 loadbang;
#X obj 618 186 expr (60000 / $i1);
#X msg 557 265 1;
#X msg 609 265 2;
#X msg 31 38 bang;
#X obj 553 155 s reset;
#X obj 618 216 s beat-len;
#X obj 551 113 s ea-1-#;
#X obj 614 113 s ea-2-#;
#X obj 1303 233 s pulse-#;
#X obj 676 113 s sample-#;
#X msg 618 155 124;
#X msg 749 91 1;
#X msg 825 91 2;
#X obj 749 113 s apc-ctl-#;
#X obj 825 113 s apc-key-#;
#X obj 106 13 apc/apc-ctl;
#X obj 813 11 nbx 4 35 -1e+37 1e+37 0 0 empty enc-val empty 0 -8 0
30 -13381 -257985 -232576 1 256;
#X msg 902 91 6;
#X obj 902 113 s kp3-#;
#X obj 211 13 midirealtimein;
#X obj 382 740 + 1;
#X obj 341 740 f;
#X obj 341 770 sel 24;
#X obj 669 574 tgl 15 0 empty empty empty 17 7 0 10 -262144 -1 -1 1
1;
#X obj 341 797 s tick-4;
#X obj 1359 803 s tick-96;
#X obj 687 11 tgl 20 0 empty shift empty 21 10 0 20 -13381 -257985
-1 1 1;
#X obj 1098 188 s tr-s1-#;
#X obj 1174 188 s tr-s2-#;
#X obj 1244 188 s tr-d-#;
#X obj 1303 188 s tr-m1-#;
#X obj 1373 188 s tr-m2-#;
#X msg 1098 166 10;
#X msg 1174 166 12;
#X msg 1244 166 13;
#X msg 1303 166 14;
#X msg 1373 166 15;
#X obj 211 38 route 248 250 252;
#X obj 624 604 spigot 0;
#X text 829 830 anything over 16 ticks cannot be queued without changing
open counter, f 77;
#X msg 356 715 1;
#X msg 330 689 24;
#X obj 997 740 f;
#X msg 986 689 1;
#X msg 1012 715 1;
#X obj 1038 740 + 1;
#X obj 997 770 sel 2;
#X obj 997 797 s tick-48;
#X obj 907 740 f;
#X msg 922 715 1;
#X obj 948 740 + 1;
#X msg 896 689 2;
#X obj 907 770 sel 3;
#X obj 907 797 s tick-32;
#X obj 713 738 f;
#X msg 728 713 1;
#X obj 754 738 + 1;
#X obj 813 740 f;
#X msg 828 715 1;
#X obj 854 740 + 1;
#X msg 802 689 4;
#X obj 813 770 sel 4;
#X obj 813 797 s tick-24;
#X obj 616 739 f;
#X msg 631 714 1;
#X obj 657 739 + 1;
#X msg 605 688 8;
#X obj 616 769 sel 8;
#X obj 616 796 s tick-12;
#X msg 702 687 6;
#X obj 713 768 sel 6;
#X obj 713 795 s tick-16;
#X obj 571 740 + 1;
#X obj 530 740 f;
#X msg 545 715 1;
#X msg 519 689 12;
#X obj 530 770 sel 12;
#X obj 530 797 s tick-8;
#X obj 267 740 + 1;
#X obj 226 740 f;
#X msg 241 715 1;
#X msg 215 689 48;
#X obj 226 770 sel 48;
#X obj 226 797 s tick-2;
#X obj 150 740 + 1;
#X obj 109 740 f;
#X msg 124 715 1;
#X msg 98 689 96;
#X msg 669 544 1;
#X obj 109 797 s tick;
#X msg 1303 211 14;
#X msg 954 91 7;
#X obj 954 113 s amb-1-#;
#X msg 1021 91 8;
#X obj 1021 113 s amb-2-#;
#X obj 774 11 bng 35 250 50 0 empty fern empty 7 7 0 25 -13381 -257985
-1;
#X obj 132 818 s open;
#X obj 155 839 s fern;
#X obj 109 770 sel 96 91 75;
#X obj 1019 306 choons/1a;
#X obj 557 288 s 1a-id;
#X obj 609 288 s 2a-id;
#X obj 484 740 + 1;
#X obj 443 740 f;
#X msg 458 715 1;
#X msg 432 689 16;
#X obj 443 770 sel 16;
#X obj 443 797 s tick-6;
#X text 939 165 remaining midi: 5 \, 9 \, 16;
#X msg 614 91 4;
#X connect 2 0 15 0;
#X connect 4 0 12 0;
#X connect 5 0 9 0;
#X connect 6 0 11 0;
#X connect 7 0 106 0;
#X connect 8 0 107 0;
#X connect 9 0 2 0;
#X connect 9 0 115 0;
#X connect 9 0 4 0;
#X connect 9 0 7 0;
#X connect 9 0 8 0;
#X connect 9 0 16 0;
#X connect 9 0 17 0;
#X connect 9 0 18 0;
#X connect 9 0 23 0;
#X connect 9 0 47 0;
#X connect 9 0 10 0;
#X connect 9 0 75 0;
#X connect 9 0 81 0;
#X connect 9 0 87 0;
#X connect 9 0 93 0;
#X connect 9 0 57 0;
#X connect 9 0 111 0;
#X connect 9 0 49 0;
#X connect 9 0 97 0;
#X connect 9 0 99 0;
#X connect 16 0 3 0;
#X connect 16 0 6 0;
#X connect 17 0 19 0;
#X connect 18 0 20 0;
#X connect 23 0 24 0;
#X connect 25 0 43 0;
#X connect 26 0 27 1;
#X connect 27 0 26 0;
#X connect 27 0 28 0;
#X connect 28 0 46 0;
#X connect 28 0 30 0;
#X connect 29 0 44 1;
#X connect 38 0 33 0;
#X connect 39 0 34 0;
#X connect 40 0 35 0;
#X connect 41 0 36 0;
#X connect 42 0 37 0;
#X connect 43 0 44 0;
#X connect 43 1 94 0;
#X connect 44 0 27 0;
#X connect 44 0 60 0;
#X connect 44 0 79 0;
#X connect 44 0 85 0;
#X connect 44 0 91 0;
#X connect 44 0 54 0;
#X connect 44 0 109 0;
#X connect 44 0 48 0;
#X connect 46 0 27 1;
#X connect 47 0 27 1;
#X connect 48 0 51 0;
#X connect 48 0 52 0;
#X connect 49 0 48 1;
#X connect 50 0 48 1;
#X connect 51 0 48 1;
#X connect 52 0 50 0;
#X connect 52 0 53 0;
#X connect 54 0 56 0;
#X connect 54 0 58 0;
#X connect 55 0 54 1;
#X connect 56 0 54 1;
#X connect 57 0 54 1;
#X connect 58 0 55 0;
#X connect 58 0 59 0;
#X connect 60 0 62 0;
#X connect 60 0 76 0;
#X connect 61 0 60 1;
#X connect 62 0 60 1;
#X connect 63 0 65 0;
#X connect 63 0 67 0;
#X connect 64 0 63 1;
#X connect 65 0 63 1;
#X connect 66 0 63 1;
#X connect 67 0 64 0;
#X connect 67 0 68 0;
#X connect 69 0 71 0;
#X connect 69 0 73 0;
#X connect 70 0 69 1;
#X connect 71 0 69 1;
#X connect 72 0 69 1;
#X connect 73 0 70 0;
#X connect 73 0 74 0;
#X connect 75 0 60 1;
#X connect 76 0 61 0;
#X connect 76 0 77 0;
#X connect 78 0 79 1;
#X connect 79 0 78 0;
#X connect 79 0 82 0;
#X connect 80 0 79 1;
#X connect 81 0 79 1;
#X connect 82 0 80 0;
#X connect 82 0 83 0;
#X connect 84 0 85 1;
#X connect 85 0 84 0;
#X connect 85 0 88 0;
#X connect 86 0 85 1;
#X connect 87 0 85 1;
#X connect 88 0 86 0;
#X connect 88 0 89 0;
#X connect 90 0 91 1;
#X connect 91 0 90 0;
#X connect 91 0 104 0;
#X connect 92 0 91 1;
#X connect 93 0 91 1;
#X connect 94 0 29 0;
#X connect 96 0 14 0;
#X connect 97 0 98 0;
#X connect 99 0 100 0;
#X connect 104 0 92 0;
#X connect 104 0 95 0;
#X connect 104 1 102 0;
#X connect 104 2 103 0;
#X connect 108 0 109 1;
#X connect 109 0 108 0;
#X connect 109 0 112 0;
#X connect 110 0 109 1;
#X connect 111 0 109 1;
#X connect 112 0 110 0;
#X connect 112 0 113 0;
#X connect 115 0 13 0;
