#N canvas 645 319 936 618 10;
#X obj 77 98 tgl 15 0 empty empty empty 17 7 0 10 -262144 -1 -1 0 1
;
#X obj 77 262 metro;
#X text 121 97 bmp;
#X text 55 97 on;
#X msg 637 92 11;
#X obj 314 146 s bpm;
#X text 189 221 8 per beat 32 ticks per 4 bar;
#X obj 136 332 + 1;
#X msg 92 332 0;
#X obj 148 222 / 8;
#X msg 439 92 3;
#X msg 502 92 4;
#X msg 567 92 5;
#X obj 79 14 loadbang;
#X obj 148 160 expr (60000 / $i1);
#X msg 441 171 1;
#X msg 442 229 2;
#X msg 79 39 bang;
#X obj 549 198 choons/a1;
#X obj 375 114 s reset;
#X obj 136 355 sel 2;
#X obj 146 14 controller/keyboard-map;
#X obj 314 196 s beat-len;
#X obj 207 305 s tick-8;
#X obj 207 386 s tick-4;
#X obj 439 114 s ea-1-#;
#X obj 502 114 s ea-2-#;
#X obj 567 114 s pulse-#;
#X obj 637 114 s sample-#;
#X obj 441 198 s a1-id;
#X obj 442 256 s a2-id;
#X obj 77 355 f;
#X obj 137 423 + 1;
#X msg 93 423 0;
#X obj 137 446 sel 2;
#X obj 78 446 f;
#X obj 138 504 + 1;
#X msg 94 504 0;
#X obj 138 527 sel 2;
#X obj 79 527 f;
#X obj 208 477 s tick-2;
#X obj 209 558 s tick;
#X msg 148 99 124;
#X msg 710 92 1;
#X msg 786 92 2;
#X obj 710 114 s apc-ctl-#;
#X obj 786 114 s apc-key-#;
#X obj 306 14 apc/apc-ctl;
#X connect 0 0 1 0;
#X connect 1 0 23 0;
#X connect 1 0 31 0;
#X connect 4 0 28 0;
#X connect 7 0 20 0;
#X connect 8 0 31 1;
#X connect 9 0 1 1;
#X connect 10 0 25 0;
#X connect 11 0 26 0;
#X connect 12 0 27 0;
#X connect 13 0 17 0;
#X connect 14 0 9 0;
#X connect 14 0 22 0;
#X connect 15 0 29 0;
#X connect 16 0 30 0;
#X connect 17 0 4 0;
#X connect 17 0 12 0;
#X connect 17 0 11 0;
#X connect 17 0 10 0;
#X connect 17 0 15 0;
#X connect 17 0 16 0;
#X connect 17 0 42 0;
#X connect 17 0 8 0;
#X connect 17 0 19 0;
#X connect 17 0 33 0;
#X connect 17 0 37 0;
#X connect 17 0 43 0;
#X connect 17 0 44 0;
#X connect 20 0 24 0;
#X connect 20 0 8 0;
#X connect 20 0 35 0;
#X connect 20 1 31 1;
#X connect 31 0 7 0;
#X connect 32 0 34 0;
#X connect 33 0 35 1;
#X connect 34 0 33 0;
#X connect 34 0 40 0;
#X connect 34 0 39 0;
#X connect 34 1 35 1;
#X connect 35 0 32 0;
#X connect 36 0 38 0;
#X connect 37 0 39 1;
#X connect 38 0 37 0;
#X connect 38 0 41 0;
#X connect 38 1 39 1;
#X connect 39 0 36 0;
#X connect 42 0 5 0;
#X connect 42 0 14 0;
#X connect 43 0 45 0;
#X connect 44 0 46 0;
