#N canvas 137 116 1431 871 10;
#X text 121 97 bmp;
#X text 58 100 on;
#X msg 637 92 11;
#X obj 314 146 s bpm;
#X msg 439 92 3;
#X msg 502 92 4;
#X msg 567 92 5;
#X obj 79 14 loadbang;
#X obj 148 160 expr (60000 / $i1);
#X msg 441 171 1;
#X msg 442 229 2;
#X msg 79 39 bang;
#X obj 549 198 choons/a1;
#X obj 375 114 s reset;
#X obj 314 196 s beat-len;
#X obj 439 114 s ea-1-#;
#X obj 502 114 s ea-2-#;
#X obj 567 114 s pulse-#;
#X obj 637 114 s sample-#;
#X obj 441 194 s a1-id;
#X obj 442 252 s a2-id;
#X msg 148 99 124;
#X msg 710 92 1;
#X msg 786 92 2;
#X obj 710 114 s apc-ctl-#;
#X obj 786 114 s apc-key-#;
#X obj 154 14 apc/apc-ctl;
#X obj 680 29 nbx 4 35 -1e+37 1e+37 0 0 empty enc-val empty 0 -8 0
30 -13381 -257985 -232576 0.75 256;
#X msg 863 92 6;
#X obj 863 114 s kp3-#;
#X obj 251 14 midirealtimein;
#X obj 79 173 sel 248;
#X obj 379 741 + 1;
#X msg 335 741 0;
#X obj 320 774 f;
#X obj 379 774 sel 24;
#X obj 510 741 + 1;
#X msg 466 741 0;
#X obj 451 774 f;
#X obj 1109 741 + 1;
#X msg 1065 741 0;
#X obj 1050 774 f;
#X obj 998 741 + 1;
#X msg 954 741 0;
#X obj 939 774 f;
#X obj 510 774 sel 12;
#X obj 998 774 sel 3;
#X obj 79 150 spigot;
#X obj 80 101 tgl 15 0 empty empty empty 17 7 0 10 -262144 -1 -1 1
1;
#X obj 379 804 s tick-4;
#X obj 510 804 s tick-8;
#X obj 998 804 s tick-32;
#X obj 251 741 + 1;
#X msg 207 741 0;
#X obj 192 774 f;
#X obj 881 741 + 1;
#X msg 837 741 0;
#X obj 822 774 f;
#X obj 1321 804 s tick-96;
#X obj 251 774 sel 48;
#X obj 251 804 s tick-2;
#X obj 881 774 sel 4;
#X obj 755 741 + 1;
#X msg 711 741 0;
#X obj 696 774 f;
#X obj 632 741 + 1;
#X msg 588 741 0;
#X obj 573 774 f;
#X obj 881 804 s tick-24;
#X obj 755 774 sel 6;
#X obj 755 804 s tick-16;
#X obj 632 774 sel 8;
#X obj 632 804 s tick-12;
#X msg 1192 741 0;
#X obj 1177 774 f;
#X obj 1236 741 + 0.5;
#X obj 1236 774 sel 3;
#X obj 1236 804 s tick-64;
#X obj 138 741 + 1;
#X msg 94 741 0;
#X obj 79 774 f;
#X obj 138 774 sel 96;
#X obj 138 804 s tick;
#X obj 1109 774 sel 2;
#X obj 1109 804 s tick-48;
#X connect 2 0 18 0;
#X connect 4 0 15 0;
#X connect 5 0 16 0;
#X connect 6 0 17 0;
#X connect 7 0 11 0;
#X connect 8 0 14 0;
#X connect 9 0 19 0;
#X connect 10 0 20 0;
#X connect 11 0 2 0;
#X connect 11 0 6 0;
#X connect 11 0 5 0;
#X connect 11 0 4 0;
#X connect 11 0 9 0;
#X connect 11 0 10 0;
#X connect 11 0 21 0;
#X connect 11 0 13 0;
#X connect 11 0 22 0;
#X connect 11 0 23 0;
#X connect 11 0 28 0;
#X connect 11 0 33 0;
#X connect 11 0 63 0;
#X connect 11 0 73 0;
#X connect 21 0 3 0;
#X connect 21 0 8 0;
#X connect 22 0 24 0;
#X connect 23 0 25 0;
#X connect 28 0 29 0;
#X connect 30 0 47 0;
#X connect 31 0 64 0;
#X connect 31 0 34 0;
#X connect 31 0 74 0;
#X connect 31 0 80 0;
#X connect 32 0 35 0;
#X connect 33 0 34 1;
#X connect 34 0 32 0;
#X connect 35 0 33 0;
#X connect 35 0 49 0;
#X connect 35 1 34 1;
#X connect 36 0 45 0;
#X connect 37 0 38 1;
#X connect 38 0 36 0;
#X connect 39 0 83 0;
#X connect 40 0 41 1;
#X connect 41 0 39 0;
#X connect 42 0 46 0;
#X connect 43 0 44 1;
#X connect 44 0 42 0;
#X connect 45 0 37 0;
#X connect 45 0 50 0;
#X connect 45 1 38 1;
#X connect 46 0 43 0;
#X connect 46 0 51 0;
#X connect 46 1 44 1;
#X connect 47 0 31 0;
#X connect 48 0 47 1;
#X connect 52 0 59 0;
#X connect 53 0 54 1;
#X connect 54 0 52 0;
#X connect 55 0 61 0;
#X connect 56 0 57 1;
#X connect 57 0 55 0;
#X connect 59 0 53 0;
#X connect 59 0 60 0;
#X connect 59 1 54 1;
#X connect 61 0 56 0;
#X connect 61 0 68 0;
#X connect 61 1 57 1;
#X connect 62 0 69 0;
#X connect 63 0 64 1;
#X connect 64 0 62 0;
#X connect 65 0 71 0;
#X connect 66 0 67 1;
#X connect 67 0 65 0;
#X connect 69 0 63 0;
#X connect 69 0 70 0;
#X connect 69 1 64 1;
#X connect 71 0 66 0;
#X connect 71 0 72 0;
#X connect 71 1 67 1;
#X connect 73 0 74 1;
#X connect 74 0 75 0;
#X connect 75 0 76 0;
#X connect 76 0 73 0;
#X connect 76 0 77 0;
#X connect 76 1 74 1;
#X connect 78 0 81 0;
#X connect 79 0 80 1;
#X connect 80 0 78 0;
#X connect 81 0 79 0;
#X connect 81 0 82 0;
#X connect 81 1 80 1;
#X connect 83 0 40 0;
#X connect 83 0 84 0;
#X connect 83 1 41 1;
