#N canvas 582 197 756 654 10;
#X obj 77 98 tgl 15 0 empty empty empty 17 7 0 10 -262144 -1 -1 1 1
;
#X obj 77 262 metro;
#X text 121 97 bmp;
#X text 55 97 on;
#X msg 148 99 124;
#X msg 637 92 11;
#X obj 314 146 s bpm;
#X text 189 221 8 per beat 32 ticks per 4 bar;
#X obj 121 323 + 1;
#X msg 92 296 0;
#X obj 148 222 / 8;
#X obj 119 419 + 1;
#X msg 89 390 0;
#X obj 124 515 + 1;
#X msg 93 490 0;
#X msg 439 92 3;
#X msg 502 92 4;
#X msg 567 92 5;
#X obj 258 580 s tick;
#X obj 79 14 loadbang;
#X obj 148 160 expr (60000 / $i1);
#X msg 441 171 1;
#X msg 442 229 2;
#X msg 79 39 bang;
#X obj 549 198 choons/a1;
#X obj 375 114 s reset;
#X obj 121 350 sel 2;
#X obj 119 447 sel 2;
#X obj 124 543 sel 2;
#X obj 146 14 controller/keyboard-map;
#X obj 314 196 s beat-len;
#X obj 258 304 s tick-8;
#X obj 257 390 s tick-4;
#X obj 259 488 s tick-2;
#X obj 439 114 s ea-1-#;
#X obj 502 114 s ea-2-#;
#X obj 567 114 s pulse-#;
#X obj 637 114 s sample-#;
#X obj 441 198 s a1-id;
#X obj 442 256 s a2-id;
#X obj 77 323 f;
#X obj 74 417 f;
#X obj 78 515 f;
#X obj 378 444 print;
#X connect 0 0 1 0;
#X connect 1 0 31 0;
#X connect 1 0 40 0;
#X connect 4 0 6 0;
#X connect 4 0 20 0;
#X connect 5 0 37 0;
#X connect 8 0 26 0;
#X connect 8 0 40 1;
#X connect 9 0 40 1;
#X connect 10 0 1 1;
#X connect 11 0 27 0;
#X connect 11 0 41 1;
#X connect 12 0 41 1;
#X connect 13 0 28 0;
#X connect 13 0 42 1;
#X connect 14 0 42 1;
#X connect 15 0 34 0;
#X connect 16 0 35 0;
#X connect 17 0 36 0;
#X connect 19 0 23 0;
#X connect 20 0 10 0;
#X connect 20 0 30 0;
#X connect 21 0 38 0;
#X connect 22 0 39 0;
#X connect 23 0 5 0;
#X connect 23 0 17 0;
#X connect 23 0 16 0;
#X connect 23 0 15 0;
#X connect 23 0 21 0;
#X connect 23 0 22 0;
#X connect 23 0 4 0;
#X connect 23 0 9 0;
#X connect 23 0 12 0;
#X connect 23 0 14 0;
#X connect 23 0 25 0;
#X connect 26 0 9 0;
#X connect 26 0 32 0;
#X connect 26 0 41 0;
#X connect 27 0 12 0;
#X connect 27 0 33 0;
#X connect 27 0 42 0;
#X connect 28 0 14 0;
#X connect 28 0 18 0;
#X connect 40 0 8 0;
#X connect 41 0 11 0;
#X connect 42 0 13 0;
