#N canvas 438 38 1072 684 12;
#X obj 31 13 loadbang;
#X msg 31 38 bang;
#X obj 31 264 s reset;
#X obj 31 234 delay 2000;
#X obj 178 14 common/ports;
#X obj 275 14 apc/apc-ctl;
#X obj 364 14 kp3/kp3-ctl;
#X msg 192 99 bang;
#X obj 192 188 s 2a-id;
#X msg 192 164 1;
#X obj 192 131 t b b;
#X obj 452 14 tracks/tracks-ctl;
#X obj 581 14 beat/beat-ctl;
#X obj 581 67 s tune;
#X msg 581 42 2;
#X msg 224 242 2;
#X obj 224 266 s 2b-id;
#X obj 222 291 choons/2b;
#X obj 191 213 choons/2a;
#X obj 683 14 common/clock-16;
#X obj 590 377 common/cc-seq;
#X msg 782 306 1;
#X msg 755 307 2;
#X obj 546 205 bng 15 250 50 0 empty empty empty 17 7 0 10 #fcfcfc
#000000 #000000;
#X obj 853 200 bng 15 250 50 0 empty empty empty 17 7 0 10 #fcfcfc
#000000 #000000;
#X msg 519 322 1;
#X obj 585 318 bng 15 250 50 0 empty empty empty 17 7 0 10 #fcfcfc
#000000 #000000;
#X msg 615 297 1 3 5 7 -1;
#X msg 659 218 22 3;
#X msg 450 311 0;
#X floatatom 597 253 5 0 0 0 - - - 0;
#X connect 0 0 1 0;
#X connect 1 0 3 0;
#X connect 1 0 7 0;
#X connect 3 0 2 0;
#X connect 7 0 10 0;
#X connect 9 0 8 0;
#X connect 10 0 9 0;
#X connect 10 1 15 0;
#X connect 12 0 14 0;
#X connect 14 0 13 0;
#X connect 15 0 16 0;
#X connect 21 0 20 7;
#X connect 22 0 20 6;
#X connect 23 0 21 0;
#X connect 23 0 22 0;
#X connect 23 0 25 0;
#X connect 24 0 20 3;
#X connect 25 0 20 0;
#X connect 26 0 20 1;
#X connect 27 0 20 4;
#X connect 28 0 20 5;
#X connect 29 0 20 0;
#X connect 30 0 20 2;
