#N canvas 550 190 886 684 12;
#X obj 31 13 loadbang;
#X msg 31 38 bang;
#X obj 31 264 s reset;
#X obj 31 234 delay 2000;
#X obj 178 14 common/ports;
#X obj 275 14 apc/apc-ctl;
#X obj 364 14 kp3/kp3-ctl;
#X msg 192 99 bang;
#X obj 192 188 s 2a-id;
#X obj 191 213 choons/2a;
#X msg 192 164 1;
#X obj 192 131 t b b;
#X obj 452 14 tracks/tracks-ctl;
#X obj 581 14 beat/beat-boot;
#X connect 0 0 1 0;
#X connect 1 0 3 0;
#X connect 1 0 7 0;
#X connect 3 0 2 0;
#X connect 7 0 11 0;
#X connect 10 0 8 0;
#X connect 11 0 10 0;
