#N canvas 727 73 886 684 12;
#X obj 31 13 loadbang;
#X msg 31 38 bang;
#X obj 31 264 s reset;
#X obj 31 234 delay 2000;
#X obj 178 14 common/ports;
#X obj 275 14 apc/apc-ctl;
#X obj 364 14 kp3/kp3-ctl;
#X msg 192 99 bang;
#X obj 192 188 s 2a-id;
#X msg 192 164 1;
#X obj 192 131 t b b;
#X obj 452 14 tracks/tracks-ctl;
#X obj 581 14 beat/beat-ctl;
#X obj 581 67 s tune;
#X msg 581 42 2;
#X msg 224 242 2;
#X obj 224 266 s 2b-id;
#X obj 222 291 choons/2b;
#X obj 191 213 choons/2a;
#X connect 0 0 1 0;
#X connect 1 0 3 0;
#X connect 1 0 7 0;
#X connect 3 0 2 0;
#X connect 7 0 10 0;
#X connect 9 0 8 0;
#X connect 10 0 9 0;
#X connect 10 1 15 0;
#X connect 12 0 14 0;
#X connect 14 0 13 0;
#X connect 15 0 16 0;
