#N canvas 594 186 1072 684 12;
#X obj 31 13 loadbang;
#X msg 31 38 bang;
#X obj 31 264 s reset;
#X obj 31 234 delay 2000;
#X obj 178 14 common/ports;
#X obj 275 14 apc/apc-ctl;
#X obj 364 14 kp3/kp3-ctl;
#X msg 192 99 bang;
#X obj 192 188 s 2a-id;
#X msg 192 164 1;
#X obj 192 131 t b b;
#X obj 452 14 tracks/tracks-ctl;
#X obj 581 14 beat/beat-ctl;
#X obj 581 67 s tune;
#X msg 581 42 2;
#X msg 224 242 2;
#X obj 224 266 s 2b-id;
#X obj 222 291 choons/2b;
#X obj 191 213 choons/2a;
#X obj 606 318 common/arp-chord;
#X msg 890 299 1;
#X obj 752 587 noteout;
#X obj 851 502 r tr-s1-#;
#X floatatom 715 218 5 0 0 0 - - - 0;
#X msg 726 285 3 7 8 0;
#X msg 641 253 45 78;
#X connect 0 0 1 0;
#X connect 1 0 3 0;
#X connect 1 0 7 0;
#X connect 3 0 2 0;
#X connect 7 0 10 0;
#X connect 9 0 8 0;
#X connect 10 0 9 0;
#X connect 10 1 15 0;
#X connect 12 0 14 0;
#X connect 14 0 13 0;
#X connect 15 0 16 0;
#X connect 19 0 21 0;
#X connect 19 1 21 1;
#X connect 20 0 19 6;
#X connect 22 0 21 2;
#X connect 23 0 19 4;
#X connect 24 0 19 5;
#X connect 25 0 19 3;
