#N canvas 438 38 1072 684 12;
#X obj 31 13 loadbang;
#X msg 31 38 bang;
#X obj 31 264 s reset;
#X obj 31 234 delay 2000;
#X obj 178 14 common/ports;
#X obj 275 14 apc/apc-ctl;
#X obj 364 14 kp3/kp3-ctl;
#X msg 192 99 bang;
#X obj 192 188 s 2a-id;
#X msg 192 164 1;
#X obj 452 14 tracks/tracks-ctl;
#X obj 581 14 beat/beat-ctl;
#X msg 215 244 2;
#X obj 215 268 s 2b-id;
#X obj 215 292 choons/2b;
#X obj 191 213 choons/2a;
#X obj 683 14 common/clocks;
#X obj 581 47 s set-start;
#X obj 554 498 smpltrek/scene;
#X obj 556 465 bng 15 250 50 0 empty empty empty 17 7 0 10 #fcfcfc
#000000 #000000;
#X obj 192 131 t b b b;
#X msg 238 322 3;
#X obj 238 346 s 3a-id;
#X obj 238 370 choons/3a;
#X connect 0 0 1 0;
#X connect 1 0 3 0;
#X connect 1 0 7 0;
#X connect 3 0 2 0;
#X connect 7 0 20 0;
#X connect 9 0 8 0;
#X connect 11 0 17 0;
#X connect 12 0 13 0;
#X connect 19 0 18 0;
#X connect 20 0 9 0;
#X connect 20 1 12 0;
#X connect 20 2 21 0;
#X connect 21 0 22 0;
