#N canvas 610 399 618 354 12;
#X obj 31 13 loadbang;
#X msg 31 38 bang;
#X obj 31 264 s reset;
#X obj 31 234 delay 2000;
#X obj 178 14 common/ports;
#X obj 275 14 apc/apc-ctl;
#X obj 364 14 kp3/kp3-ctl;
#X msg 192 99 bang;
#X obj 192 167 s 2a-id;
#X obj 191 192 choons/2a;
#X msg 192 143 1;
#X obj 398 197 midiout;
#X floatatom 446 126 5 0 0 0 - - -;
#X obj 443 160 t b f;
#X msg 385 154 250;
#X msg 311 159 248;
#X connect 0 0 1 0;
#X connect 1 0 3 0;
#X connect 1 0 7 0;
#X connect 3 0 2 0;
#X connect 7 0 10 0;
#X connect 10 0 8 0;
#X connect 12 0 13 0;
#X connect 13 0 14 0;
#X connect 13 1 11 1;
#X connect 14 0 11 0;
#X connect 15 0 11 0;
