#N canvas 269 176 1316 655 10;
#X obj 156 21 tgl 15 0 empty empty empty 17 7 0 10 -262144 -1 -1 0
1;
#X obj 156 73 metro;
#X obj 156 111 float;
#X obj 156 134 mod 16;
#X obj 222 111 + 1;
#X msg 121 111 0;
#X obj 282 168 hradio 15 1 0 16 empty empty empty 0 -8 0 10 -262144
-1 -1 0;
#X obj 219 240 + 1;
#X obj 156 264 mod 8;
#X obj 156 243 float;
#X obj 282 218 float;
#X obj 369 236 list;
#X obj 282 193 bng 15 250 50 0 empty empty empty 17 7 0 10 -262144
-1 -1;
#X obj 156 167 sel 15;
#X floatatom 111 239 5 0 0 0 - - -, f 5;
#X text 200 20 bmp;
#X floatatom 227 21 5 0 0 0 - - -, f 5;
#X obj 227 41 expr (60000 / $f1);
#X text 15 20 reset;
#X obj 57 21 bng 15 250 50 0 empty empty empty 17 7 0 10 -262144 -1
-1;
#X obj 280 292 hradio 15 1 0 8 empty empty empty 0 -8 0 10 -262144
-1 -1 0;
#X obj 435 339 print;
#X obj 435 292 spigot;
#X text 134 20 on;
#X obj 468 21 tgl 15 0 empty empty empty 17 7 0 10 -262144 -1 -1 0
1;
#X text 419 20 disable;
#X connect 0 0 1 0;
#X connect 1 0 2 0;
#X connect 2 0 3 0;
#X connect 2 0 4 0;
#X connect 3 0 6 0;
#X connect 3 0 13 0;
#X connect 4 0 2 1;
#X connect 5 0 2 1;
#X connect 6 0 11 1;
#X connect 6 0 12 0;
#X connect 7 0 9 1;
#X connect 8 0 20 0;
#X connect 9 0 7 0;
#X connect 9 0 8 0;
#X connect 10 0 11 0;
#X connect 11 0 22 0;
#X connect 12 0 10 0;
#X connect 13 0 9 0;
#X connect 14 0 9 1;
#X connect 16 0 17 0;
#X connect 17 0 1 1;
#X connect 19 0 5 0;
#X connect 19 0 14 0;
#X connect 19 0 2 0;
#X connect 19 0 9 0;
#X connect 20 0 10 1;
#X connect 22 0 21 0;
#X connect 24 0 22 1;
