#N canvas 92 237 1405 770 10;
#X obj 38 6 tgl 15 0 empty empty empty 17 7 0 10 -262144 -1 -1 0 1
;
#X obj 40 75 metro;
#X floatatom 209 15 5 0 0 0 - - -, f 5;
#X obj 40 121 float;
#X obj 41 159 mod 16;
#X obj 133 121 + 1;
#X floatatom 131 165 5 0 0 0 - - -, f 5;
#X floatatom 40 224 5 0 0 0 - - -, f 5;
#X msg 92 83 0;
#X obj 191 231 hradio 15 1 0 16 empty empty empty 0 -8 0 10 -262144
-1 -1 3;
#X obj 187 277 select 0 1 2 3 4 5 6 7 8 9 10 11 12 13 14 15;
#X obj 497 207 metro;
#X obj 497 253 float;
#X obj 498 291 mod 16;
#X obj 590 253 + 1;
#X floatatom 588 297 5 0 0 0 - - -, f 5;
#X floatatom 497 356 5 0 0 0 - - -, f 5;
#X msg 549 215 0;
#X obj 640 356 hradio 15 1 0 16 empty empty empty 0 -8 0 10 -262144
-1 -1 8;
#X obj 644 409 select 0 1 2 3 4 5 6 7 8 9 10 11 12 13 14 15;
#X obj 542 136 print second;
#X obj 213 60 print 1;
#X obj 398 83 / 2;
#X obj 1124 95 bng 15 250 50 0 empty empty empty 17 7 0 10 -262144
-1 -1;
#X obj 870 95 bng 15 250 50 0 empty empty empty 17 7 0 10 -262144 -1
-1;
#X obj 1002 95 bng 15 250 50 0 empty empty empty 17 7 0 10 -262144
-1 -1;
#X obj 733 95 bng 15 250 50 0 empty empty empty 17 7 0 10 -262144 -1
-1;
#X obj 899 158 electribe/notes;
#X obj 1084 205 bng 15 250 50 0 empty empty empty 17 7 0 10 -262144
-1 -1;
#X msg 1084 225 bank 0;
#X obj 1147 205 bng 15 250 50 0 empty empty empty 17 7 0 10 -262144
-1 -1;
#X msg 1147 225 bank 1;
#X obj 1198 273 electribe/pattern;
#X obj 1219 205 bng 15 250 50 0 empty empty empty 17 7 0 10 -262144
-1 -1;
#X msg 1219 225 pat 1;
#X obj 1286 205 bng 15 250 50 0 empty empty empty 17 7 0 10 -262144
-1 -1;
#X msg 1286 225 pat 42;
#X obj 1127 11 bng 15 250 50 0 empty empty empty 17 7 0 10 -262144
-1 -1;
#X obj 873 11 bng 15 250 50 0 empty empty empty 17 7 0 10 -262144 -1
-1;
#X obj 1005 11 bng 15 250 50 0 empty empty empty 17 7 0 10 -262144
-1 -1;
#X obj 736 11 bng 15 250 50 0 empty empty empty 17 7 0 10 -262144 -1
-1;
#X msg 736 31 ch 11;
#X obj 873 31 list -1 65 2;
#X obj 1000 31 list 0 65 3;
#X obj 1127 31 list 4 42 500;
#X obj 902 74 electribe/notes;
#X msg 733 115 ch 12;
#X obj 870 115 list -1 38 2;
#X obj 997 115 list 0 38 3;
#X obj 1124 115 list 4 59 500;
#X obj 819 587 electribe/rotary;
#X connect 0 0 1 0;
#X connect 0 0 11 0;
#X connect 0 0 8 0;
#X connect 0 0 17 0;
#X connect 1 0 3 0;
#X connect 2 0 1 1;
#X connect 2 0 21 0;
#X connect 2 0 22 0;
#X connect 3 0 4 0;
#X connect 3 0 5 0;
#X connect 3 0 6 0;
#X connect 4 0 7 0;
#X connect 4 0 9 0;
#X connect 5 0 3 1;
#X connect 8 0 3 1;
#X connect 9 0 10 0;
#X connect 11 0 12 0;
#X connect 12 0 13 0;
#X connect 12 0 14 0;
#X connect 12 0 15 0;
#X connect 13 0 16 0;
#X connect 13 0 18 0;
#X connect 14 0 12 1;
#X connect 17 0 12 1;
#X connect 18 0 19 0;
#X connect 22 0 20 0;
#X connect 22 0 11 1;
#X connect 23 0 49 0;
#X connect 24 0 47 0;
#X connect 25 0 48 0;
#X connect 26 0 46 0;
#X connect 28 0 29 0;
#X connect 29 0 32 0;
#X connect 30 0 31 0;
#X connect 31 0 32 0;
#X connect 33 0 34 0;
#X connect 34 0 32 0;
#X connect 35 0 36 0;
#X connect 36 0 32 0;
#X connect 37 0 44 0;
#X connect 38 0 42 0;
#X connect 39 0 43 0;
#X connect 40 0 41 0;
#X connect 41 0 45 0;
#X connect 42 0 45 0;
#X connect 43 0 45 0;
#X connect 44 0 45 0;
#X connect 46 0 27 0;
#X connect 47 0 27 0;
#X connect 48 0 27 0;
#X connect 49 0 27 0;
