#N canvas 55 262 1534 770 10;
#X obj 39 6 tgl 15 0 empty empty empty 17 7 0 10 -262144 -1 -1 0 1
;
#X obj 40 75 metro;
#X floatatom 209 15 5 0 0 0 - - -, f 5;
#X obj 40 121 float;
#X obj 72 161 mod 16;
#X obj 133 121 + 1;
#X msg 92 83 0;
#X obj 191 231 hradio 15 1 0 16 empty empty empty 0 -8 0 10 -262144
-1 -1 7;
#X obj 497 207 metro;
#X obj 497 253 float;
#X obj 498 291 mod 16;
#X obj 590 253 + 1;
#X floatatom 588 297 5 0 0 0 - - -, f 5;
#X floatatom 497 356 5 0 0 0 - - -, f 5;
#X msg 549 215 0;
#X obj 640 356 hradio 15 1 0 16 empty empty empty 0 -8 0 10 -262144
-1 -1 0;
#X obj 542 136 print second;
#X obj 213 60 print 1;
#X obj 398 83 / 2;
#X obj 1124 95 bng 15 250 50 0 empty empty empty 17 7 0 10 -262144
-1 -1;
#X obj 870 95 bng 15 250 50 0 empty empty empty 17 7 0 10 -262144 -1
-1;
#X obj 1002 95 bng 15 250 50 0 empty empty empty 17 7 0 10 -262144
-1 -1;
#X obj 733 95 bng 15 250 50 0 empty empty empty 17 7 0 10 -262144 -1
-1;
#X obj 899 158 electribe/notes;
#X obj 1095 161 bng 15 250 50 0 empty empty empty 17 7 0 10 -262144
-1 -1;
#X msg 1095 181 bank 0;
#X obj 1158 161 bng 15 250 50 0 empty empty empty 17 7 0 10 -262144
-1 -1;
#X msg 1158 181 bank 1;
#X obj 1209 229 electribe/pattern;
#X obj 1230 161 bng 15 250 50 0 empty empty empty 17 7 0 10 -262144
-1 -1;
#X msg 1230 181 pat 1;
#X obj 1297 161 bng 15 250 50 0 empty empty empty 17 7 0 10 -262144
-1 -1;
#X msg 1297 181 pat 42;
#X obj 1127 11 bng 15 250 50 0 empty empty empty 17 7 0 10 -262144
-1 -1;
#X obj 873 11 bng 15 250 50 0 empty empty empty 17 7 0 10 -262144 -1
-1;
#X obj 1005 11 bng 15 250 50 0 empty empty empty 17 7 0 10 -262144
-1 -1;
#X obj 736 11 bng 15 250 50 0 empty empty empty 17 7 0 10 -262144 -1
-1;
#X msg 736 31 ch 11;
#X obj 873 31 list -1 65 2;
#X obj 1000 31 list 0 65 3;
#X obj 1127 31 list 4 42 500;
#X obj 902 74 electribe/notes;
#X msg 733 115 ch 12;
#X obj 870 115 list -1 38 2;
#X obj 997 115 list 0 38 3;
#X obj 1124 115 list 4 59 500;
#X obj 128 506 + 1;
#X obj 37 527 mod 8;
#X obj 1247 1014 print korg4;
#X obj 1364 1006 print korg5;
#X obj 1515 1006 print korg6;
#X msg 922 626 list 0 0;
#X msg 1012 638 list 0 1;
#X msg 1090 636 list 0 2;
#X msg 1170 633 list 1 0;
#X msg 1238 634 list 1 1;
#X msg 1309 638 list 1 2;
#X obj 1265 950 sel 0 1 2;
#X obj 1262 823 sel 0 1 2;
#X obj 986 704 route 0 1;
#X obj 1244 887 print korg1;
#X obj 1361 879 print korg2;
#X obj 1512 879 print korg3;
#X obj 6 80 bng 15 250 50 0 empty empty empty 17 7 0 10 -262144 -1
-1;
#X obj 35 506 float;
#X obj 268 412 float;
#X obj 379 462 list;
#X obj 221 433 bng 15 250 50 0 empty empty empty 17 7 0 10 -262144
-1 -1;
#X obj 38 367 sel 15;
#X obj 12 445 bng 15 250 50 0 empty empty empty 17 7 0 10 -262144 -1
-1;
#X obj 172 248 vradio 15 1 0 8 empty empty empty 0 -8 0 10 -262144
-1 -1 1;
#X floatatom 93 470 5 0 0 0 - - -, f 5;
#X obj 1111 286 bng 15 250 50 0 empty empty empty 17 7 0 10 -262144
-1 -1;
#X obj 970 286 bng 15 250 50 0 empty empty empty 17 7 0 10 -262144
-1 -1;
#X obj 1401 286 bng 15 250 50 0 empty empty empty 17 7 0 10 -262144
-1 -1;
#X obj 1257 286 bng 15 250 50 0 empty empty empty 17 7 0 10 -262144
-1 -1;
#X obj 1401 320 list 60 5 0 127 14 12;
#X obj 1257 320 list 60 6 0 127 15 12;
#X obj 1178 394 electribe/encoder;
#X obj 1111 320 list 60 5 60 127 14 11;
#X obj 970 320 list 60 6 60 127 15 11;
#X obj 1215 538 electribe/setting;
#X obj 1048 461 list 0 5 11;
#X obj 1048 431 bng 15 250 50 0 empty empty empty 17 7 0 10 -262144
-1 -1;
#X obj 1136 431 bng 15 250 50 0 empty empty empty 17 7 0 10 -262144
-1 -1;
#X obj 1220 431 bng 15 250 50 0 empty empty empty 17 7 0 10 -262144
-1 -1;
#X obj 1317 431 bng 15 250 50 0 empty empty empty 17 7 0 10 -262144
-1 -1;
#X obj 1136 461 list 1 5 11;
#X obj 1220 461 list 2 5 11;
#X obj 1305 461 list 3 5 11;
#X connect 0 0 1 0;
#X connect 0 0 8 0;
#X connect 0 0 14 0;
#X connect 1 0 3 0;
#X connect 2 0 1 1;
#X connect 2 0 17 0;
#X connect 2 0 18 0;
#X connect 3 0 4 0;
#X connect 3 0 5 0;
#X connect 4 0 7 0;
#X connect 4 0 68 0;
#X connect 5 0 3 1;
#X connect 6 0 3 1;
#X connect 7 0 66 1;
#X connect 7 0 67 0;
#X connect 8 0 9 0;
#X connect 9 0 10 0;
#X connect 9 0 11 0;
#X connect 9 0 12 0;
#X connect 10 0 13 0;
#X connect 10 0 15 0;
#X connect 11 0 9 1;
#X connect 14 0 9 1;
#X connect 18 0 16 0;
#X connect 18 0 8 1;
#X connect 19 0 45 0;
#X connect 20 0 43 0;
#X connect 21 0 44 0;
#X connect 22 0 42 0;
#X connect 24 0 25 0;
#X connect 25 0 28 0;
#X connect 26 0 27 0;
#X connect 27 0 28 0;
#X connect 29 0 30 0;
#X connect 30 0 28 0;
#X connect 31 0 32 0;
#X connect 32 0 28 0;
#X connect 33 0 40 0;
#X connect 34 0 38 0;
#X connect 35 0 39 0;
#X connect 36 0 37 0;
#X connect 37 0 41 0;
#X connect 38 0 41 0;
#X connect 39 0 41 0;
#X connect 40 0 41 0;
#X connect 42 0 23 0;
#X connect 43 0 23 0;
#X connect 44 0 23 0;
#X connect 45 0 23 0;
#X connect 46 0 64 1;
#X connect 47 0 70 0;
#X connect 51 0 59 0;
#X connect 52 0 59 0;
#X connect 53 0 59 0;
#X connect 54 0 59 0;
#X connect 55 0 59 0;
#X connect 56 0 59 0;
#X connect 57 0 48 0;
#X connect 57 1 49 0;
#X connect 57 2 50 0;
#X connect 58 0 60 0;
#X connect 58 1 61 0;
#X connect 58 2 62 0;
#X connect 59 0 58 0;
#X connect 59 1 57 0;
#X connect 63 0 3 0;
#X connect 64 0 46 0;
#X connect 64 0 47 0;
#X connect 65 0 66 0;
#X connect 66 0 59 0;
#X connect 67 0 65 0;
#X connect 68 0 64 0;
#X connect 69 0 64 0;
#X connect 70 0 65 1;
#X connect 71 0 64 1;
#X connect 72 0 79 0;
#X connect 73 0 80 0;
#X connect 74 0 76 0;
#X connect 75 0 77 0;
#X connect 76 0 78 0;
#X connect 77 0 78 0;
#X connect 79 0 78 0;
#X connect 80 0 78 0;
#X connect 82 0 81 0;
#X connect 83 0 82 0;
#X connect 84 0 87 0;
#X connect 85 0 88 0;
#X connect 86 0 89 0;
#X connect 87 0 81 0;
#X connect 88 0 81 0;
#X connect 89 0 81 0;
