#N canvas 225 241 1316 655 10;
#X obj 51 16 tgl 15 0 empty empty empty 17 7 0 10 -262144 -1 -1 0 1
;
#X obj 51 44 metro;
#X obj 51 75 float;
#X obj 51 106 mod 16;
#X floatatom 51 137 5 0 0 0 - - -, f 5;
#X floatatom 101 16 5 0 0 0 - - -, f 5;
#X obj 132 72 + 1;
#X msg 6 51 0;
#X obj 51 167 hradio 15 1 0 16 empty empty empty 0 -8 0 10 -262144
-1 -1 13;
#X obj 51 195 select 0 1 2 3 4 5 6 7 8 9 10 12 13 14 15;
#X obj 887 278 noteout 11;
#X obj 708 12 bng 15 250 50 0 empty empty empty 17 7 0 10 -262144 -1
-1;
#X obj 708 79 unpack 0 0 0;
#X obj 887 243 makenote 1;
#X obj 610 12 bng 15 250 50 0 empty empty empty 17 7 0 10 -262144 -1
-1;
#X obj 877 207 f;
#X obj 610 44 list 3 62 2000;
#X obj 553 240 f;
#X obj 605 240 - 1;
#X obj 629 337 spigot 0;
#X obj 700 307 == 1;
#X obj 637 182 metro;
#X obj 708 44 list 4 50 500;
#X msg 649 307 0;
#X connect 0 0 1 0;
#X connect 1 0 2 0;
#X connect 2 0 3 0;
#X connect 2 0 6 0;
#X connect 3 0 4 0;
#X connect 4 0 8 0;
#X connect 5 0 1 1;
#X connect 6 0 2 1;
#X connect 7 0 2 0;
#X connect 8 0 9 0;
#X connect 11 0 22 0;
#X connect 12 0 17 1;
#X connect 12 0 21 0;
#X connect 12 1 15 1;
#X connect 12 2 13 2;
#X connect 12 2 21 1;
#X connect 13 0 10 0;
#X connect 13 1 10 1;
#X connect 14 0 16 0;
#X connect 15 0 13 0;
#X connect 16 0 12 0;
#X connect 17 0 18 0;
#X connect 17 0 20 0;
#X connect 18 0 17 1;
#X connect 19 0 21 0;
#X connect 20 0 19 1;
#X connect 21 0 17 0;
#X connect 21 0 15 0;
#X connect 21 0 23 0;
#X connect 22 0 12 0;
#X connect 23 0 19 0;
