#N canvas 1243 417 1691 1017 10;
#X obj 38 247 print x1;
#X msg 114 193 2.3;
#X msg 157 192 2.2;
#X obj 106 251 print x2;
#X obj 185 252 print x3;
#X obj 70 149 trigger b b b;
#X obj 57 105 bng 15 250 50 0 empty empty empty 17 7 0 10 -262144 -1
-1;
#X msg 57 189 2.5;
#X connect 1 0 3 0;
#X connect 2 0 4 0;
#X connect 5 0 7 0;
#X connect 5 1 1 0;
#X connect 5 2 2 0;
#X connect 6 0 5 0;
#X connect 7 0 0 0;
