#N canvas 616 319 601 257 12;
#X obj 463 27 inlet;
#X obj 271 27 inlet;
#X text 314 26 vol level;
#X obj 53 27 inlet;
#X text 94 26 spigot;
#X obj 225 73 r beat-#;
#X obj 252 210 ctlout;
#X obj 394 27 inlet;
#X text 435 26 cc;
#X obj 225 157 f;
#X msg 182 157 0;
#X obj 53 102 ../controller/note-filter;
#X text 504 26 channel-out;
#X obj 157 27 inlet;
#X text 198 26 in-note;
#X connect 0 0 6 2;
#X connect 1 0 9 1;
#X connect 3 0 11 0;
#X connect 5 0 11 2;
#X connect 7 0 6 1;
#X connect 9 0 6 0;
#X connect 10 0 6 0;
#X connect 11 3 10 0;
#X connect 11 4 9 0;
#X connect 13 0 11 1;
