#N canvas 188 222 1104 444 12;
#X obj 330 9 r beat-#;
#X obj 19 99 ../controller/note-filter;
#X obj 19 9 loadbang;
#X msg 157 136 1;
#X msg 113 139 0;
#X obj 175 389 noteout;
#X obj 157 288 t b b;
#X msg 202 336 1;
#X msg 236 336 0;
#X obj 200 288 t b b;
#X obj 157 213 tgl 15 0 empty empty empty 17 7 0 10 -262144 -1 -1 0
1;
#X obj 157 182 metro 1 90 permin;
#X obj 157 241 sel 0 1;
#X obj 417 326 ../controller/cc-filter;
#X msg 496 295 87;
#X msg 417 295 1;
#X obj 417 257 t b b;
#X obj 417 358 sel 0;
#X obj 417 389 s reset-song;
#X obj 19 389 outlet;
#X obj 19 231 t b b b;
#X text 68 388 init;
#X msg 19 67 43;
#X msg 157 336 43;
#X obj 19 37 t b b b b;
#X connect 0 0 1 2;
#X connect 0 0 5 2;
#X connect 0 0 13 2;
#X connect 1 0 20 0;
#X connect 2 0 24 0;
#X connect 3 0 11 0;
#X connect 3 0 1 0;
#X connect 4 0 11 0;
#X connect 4 0 1 0;
#X connect 6 0 23 0;
#X connect 6 1 7 0;
#X connect 7 0 5 1;
#X connect 8 0 5 1;
#X connect 9 0 23 0;
#X connect 9 1 8 0;
#X connect 10 0 12 0;
#X connect 11 0 10 0;
#X connect 12 0 6 0;
#X connect 12 1 9 0;
#X connect 13 0 17 0;
#X connect 14 0 13 1;
#X connect 15 0 13 0;
#X connect 16 0 15 0;
#X connect 16 1 14 0;
#X connect 17 0 18 0;
#X connect 20 0 19 0;
#X connect 20 1 9 0;
#X connect 20 2 4 0;
#X connect 22 0 1 1;
#X connect 23 0 5 0;
#X connect 24 0 22 0;
#X connect 24 1 3 0;
#X connect 24 2 16 0;
