#N canvas 550 190 426 537 12;
#X obj 31 13 loadbang;
#X msg 31 62 bang;
#X obj 30 396 midiout;
#X msg 47 306 250;
#X msg 8 306 248;
#X msg 31 162 1;
#X obj 189 162 r beat-#;
#X obj 31 90 delay 200;
#X msg 110 162 87;
#X obj 31 231 sel 1 0;
#X obj 135 13 r reset;
#X obj 31 199 ../controller/cc-filter;
#X msg 203 303 3;
#X obj 31 268 t b b b;
#X obj 31 129 t b b b;
#X msg 93 309 252;
#X connect 0 0 1 0;
#X connect 1 0 7 0;
#X connect 3 0 2 0;
#X connect 4 0 2 0;
#X connect 5 0 11 0;
#X connect 6 0 11 2;
#X connect 7 0 14 0;
#X connect 8 0 11 1;
#X connect 9 0 13 0;
#X connect 10 0 1 0;
#X connect 11 0 9 0;
#X connect 12 0 2 1;
#X connect 13 0 4 0;
#X connect 13 1 3 0;
#X connect 14 0 5 0;
#X connect 14 1 8 0;
#X connect 14 2 12 0;
#X connect 15 0 2 0;
