#N canvas 188 222 1104 444 12;
#X obj 330 9 r beat-#;
#X obj 19 99 ../controller/note-filter;
#X obj 19 9 loadbang;
#X msg 157 139 1;
#X msg 113 139 0;
#X obj 157 389 noteout;
#X obj 157 288 t b b;
#X msg 200 356 1;
#X msg 232 356 0;
#X obj 200 288 t b b;
#X obj 157 213 tgl 15 0 empty empty empty 17 7 0 10 #fcfcfc #000000
#000000 0 1;
#X obj 157 182 metro 1 90 permin;
#X obj 157 254 sel 0 1;
#X obj 346 288 ../controller/cc-filter;
#X msg 425 254 87;
#X msg 346 254 1;
#X obj 346 213 t b b;
#X obj 346 320 sel 0;
#X obj 346 389 s reset-song;
#X obj 19 389 outlet;
#X obj 19 231 t b b b;
#X text 68 388 init;
#X obj 346 356 f;
#X obj 417 320 r tune;
#X msg 19 67 127;
#X msg 157 356 127;
#X obj 558 389 noteout;
#X obj 558 288 t b b;
#X msg 600 356 1;
#X msg 633 356 0;
#X obj 601 288 t b b;
#X obj 558 213 tgl 15 0 empty empty empty 17 7 0 10 #fcfcfc #000000
#000000 0 1;
#X obj 558 254 sel 0 1;
#X obj 19 37 t b b b b b;
#X msg 558 356 126;
#X obj 558 182 metro 1 312 permin;
#X connect 0 0 1 2;
#X connect 0 0 5 2;
#X connect 0 0 13 2;
#X connect 0 0 26 2;
#X connect 1 1 20 0;
#X connect 2 0 33 0;
#X connect 3 0 11 0;
#X connect 3 0 1 0;
#X connect 4 0 11 0;
#X connect 4 0 1 0;
#X connect 6 0 25 0;
#X connect 6 1 7 0;
#X connect 7 0 5 1;
#X connect 8 0 5 1;
#X connect 9 0 25 0;
#X connect 9 1 8 0;
#X connect 10 0 12 0;
#X connect 11 0 10 0;
#X connect 12 0 6 0;
#X connect 12 1 9 0;
#X connect 13 0 17 0;
#X connect 14 0 13 1;
#X connect 15 0 13 0;
#X connect 16 0 15 0;
#X connect 16 1 14 0;
#X connect 17 0 22 0;
#X connect 20 0 19 0;
#X connect 20 1 9 0;
#X connect 20 2 4 0;
#X connect 22 0 18 0;
#X connect 23 0 22 1;
#X connect 24 0 1 1;
#X connect 25 0 5 0;
#X connect 27 0 34 0;
#X connect 27 1 28 0;
#X connect 28 0 26 1;
#X connect 29 0 26 1;
#X connect 30 0 34 0;
#X connect 30 1 29 0;
#X connect 31 0 32 0;
#X connect 32 0 27 0;
#X connect 32 1 30 0;
#X connect 33 0 24 0;
#X connect 33 1 3 0;
#X connect 33 3 16 0;
#X connect 33 4 35 0;
#X connect 34 0 26 0;
#X connect 35 0 31 0;
