#N canvas 173 32 513 296 12;
#X obj 415 19 inlet;
#X obj 251 19 inlet;
#X text 254 37 vol level;
#X obj 53 19 inlet;
#X text 56 37 spigot;
#X obj 225 76 r beat-#;
#X obj 287 235 ctlout;
#X obj 357 19 inlet;
#X obj 182 172 f;
#X msg 225 172 0;
#X obj 53 102 ../controller/note-filter;
#X text 418 37 channel-out;
#X obj 168 19 inlet;
#X text 171 37 in-note;
#X text 360 37 cc-out;
#X obj 118 19 inlet;
#X text 121 48 inital 0 - off 1 - on;
#X obj 150 136 sel 1 0;
#X obj 57 235 noteout;
#X obj 103 204 r beat-#;
#X obj 118 76 t f f;
#X obj 57 204 f;
#X obj 168 76 t f f;
#X obj 57 153 t b f;
#X connect 0 0 6 2;
#X connect 1 0 8 1;
#X connect 3 0 10 0;
#X connect 5 0 10 2;
#X connect 7 0 6 1;
#X connect 8 0 6 0;
#X connect 9 0 6 0;
#X connect 10 3 8 0;
#X connect 10 4 9 0;
#X connect 12 0 22 0;
#X connect 15 0 20 0;
#X connect 17 0 8 0;
#X connect 17 1 9 0;
#X connect 19 0 18 2;
#X connect 20 0 23 0;
#X connect 20 1 17 0;
#X connect 21 0 18 0;
#X connect 22 0 10 1;
#X connect 22 1 21 1;
#X connect 23 0 21 0;
#X connect 23 1 18 1;
