#N canvas 616 319 616 344 12;
#X obj 471 23 inlet;
#X text 512 22 channel;
#X obj 243 23 inlet;
#X text 286 22 vol level;
#X obj 123 23 inlet;
#X text 164 22 spigot;
#X obj 225 101 r beat-#;
#X msg 139 101 3;
#X obj 22 23 inlet;
#X text 63 22 arm;
#X obj 252 291 ctlout;
#X obj 366 23 inlet;
#X text 407 22 cc;
#X obj 225 238 f;
#X msg 182 238 0;
#X obj 53 130 ../controller/note-filter;
#X connect 0 0 10 2;
#X connect 2 0 13 1;
#X connect 4 0 15 0;
#X connect 6 0 15 2;
#X connect 7 0 15 1;
#X connect 8 0 7 0;
#X connect 11 0 10 1;
#X connect 13 0 10 0;
#X connect 14 0 10 0;
#X connect 15 3 14 0;
#X connect 15 4 13 0;
