#N canvas 188 222 451 444 12;
#X obj 329 9 r beat-#;
#X msg 19 67 60;
#X obj 19 99 ../controller/note-filter;
#X obj 19 9 loadbang;
#X msg 157 136 1;
#X msg 119 136 0;
#X obj 175 392 noteout;
#X msg 157 336 60;
#X obj 157 288 t b b;
#X msg 202 336 1;
#X msg 236 336 0;
#X obj 200 288 t b b;
#X obj 157 213 tgl 15 0 empty empty empty 17 7 0 10 -262144 -1 -1 0
1;
#X obj 157 182 metro 1 90 permin;
#X obj 157 241 sel 0 1;
#X obj 19 231 t b b;
#X obj 19 37 t b b;
#X connect 0 0 2 2;
#X connect 0 0 6 2;
#X connect 1 0 2 1;
#X connect 2 0 15 0;
#X connect 3 0 16 0;
#X connect 4 0 13 0;
#X connect 4 0 2 0;
#X connect 5 0 13 0;
#X connect 5 0 2 0;
#X connect 7 0 6 0;
#X connect 8 0 7 0;
#X connect 8 1 9 0;
#X connect 9 0 6 1;
#X connect 10 0 6 1;
#X connect 11 0 7 0;
#X connect 11 1 10 0;
#X connect 12 0 14 0;
#X connect 13 0 12 0;
#X connect 14 0 8 0;
#X connect 14 1 11 0;
#X connect 15 0 11 0;
#X connect 15 1 5 0;
#X connect 16 0 1 0;
#X connect 16 1 4 0;
