#N canvas 736 128 412 444 12;
#X obj 134 10 inlet;
#X obj 17 10 inlet;
#X text 58 9 spigot;
#X text 179 9 cc;
#X obj 89 212 r beat-#;
#X obj 17 263 ../controller/rel-enc;
#X obj 161 309 outlet;
#X obj 214 10 loadbang;
#X text 214 308 cc;
#X obj 17 379 outlet;
#X text 66 378 value;
#X obj 17 294 / 3;
#X obj 17 324 int;
#X obj 17 352 change;
#X obj 295 10 inlet;
#X text 341 9 range;
#X obj 295 40 unpack 0 0 0;
#X obj 376 68 * 3;
#X obj 295 95 pack 0 0 0;
#X obj 332 68 * 3;
#X obj 295 68 * 3;
#X msg 125 236 0 0 33;
#X connect 0 0 5 1;
#X connect 1 0 5 0;
#X connect 4 0 5 2;
#X connect 5 0 11 0;
#X connect 5 1 6 0;
#X connect 7 0 21 0;
#X connect 11 0 12 0;
#X connect 12 0 13 0;
#X connect 13 0 9 0;
#X connect 14 0 16 0;
#X connect 16 0 20 0;
#X connect 16 1 19 0;
#X connect 16 2 17 0;
#X connect 17 0 18 2;
#X connect 18 0 5 3;
#X connect 19 0 18 1;
#X connect 20 0 18 0;
#X connect 21 0 5 3;
