#N canvas 253 152 1113 731 12;
#X obj 42 13 inlet;
#X text 82 12 arm/reset;
#X obj 296 13 inlet;
#X obj 42 396 t b b b b;
#X obj 296 396 t f f f f;
#X obj 531 14 inlet;
#X text 339 12 play;
#X text 573 13 stop;
#X obj 487 396 t b b b b;
#X obj 42 69 t b b b b b;
#X obj 296 69 t f f f f f;
#X obj 296 42 ../../../routings/play-stop-spigot;
#X obj 413 69 t b b b b b;
#X connect 0 0 9 0;
#X connect 2 0 11 0;
#X connect 5 0 11 1;
#X connect 9 0 3 0;
#X connect 10 0 4 0;
#X connect 11 0 10 0;
#X connect 11 1 12 0;
#X connect 12 4 8 0;
