#N canvas 150 121 1305 765 12;
#X obj 41 12 inlet;
#X text 89 11 arm/reset;
#X obj 41 329 t b b b b;
#X obj 296 329 t f f f f;
#X obj 41 74 t b b b b b;
#X obj 296 74 t f f f f f;
#X obj 296 12 inlet;
#X obj 531 12 inlet;
#X text 339 11 play;
#X text 573 11 stop;
#X obj 413 329 t b b b b;
#X obj 296 38 ../../../routings/play-stop-spigot;
#X obj 413 74 t b b b b b;
#X obj 55 214 ../../../beat/beat-mute-note;
#X msg 170 185 20;
#X msg 93 185 0;
#X obj 93 150 t b b b b;
#X obj 248 185 r vd-#;
#X msg 132 185 52;
#X msg 209 185 15;
#X text 57 239 vd-1;
#X connect 0 0 4 0;
#X connect 4 0 2 0;
#X connect 4 1 16 0;
#X connect 5 0 3 0;
#X connect 5 1 13 0;
#X connect 6 0 11 0;
#X connect 7 0 11 1;
#X connect 11 0 5 0;
#X connect 11 1 12 0;
#X connect 12 0 10 0;
#X connect 14 0 13 3;
#X connect 15 0 13 1;
#X connect 16 0 15 0;
#X connect 16 1 18 0;
#X connect 16 2 14 0;
#X connect 16 3 19 0;
#X connect 17 0 13 5;
#X connect 18 0 13 2;
#X connect 19 0 13 4;
