#N canvas 279 144 574 333 12;
#X obj 25 16 inlet;
#X obj 285 259 noteout;
#X obj 285 47 unpack 0 0;
#X obj 285 16 r notes;
#X obj 285 213 spigot;
#X msg 128 83 0;
#X obj 25 47 ../../../common/step-seq-sel-3 \$0;
#X obj 377 16 r tr-s1-#;
#X connect 0 0 6 0;
#X connect 2 0 4 0;
#X connect 2 1 1 1;
#X connect 3 0 2 0;
#X connect 4 0 1 0;
#X connect 5 0 4 1;
#X connect 6 0 5 0;
#X connect 6 2 5 0;
#X connect 6 4 4 1;
#X connect 7 0 1 2;
