#N canvas 603 233 661 333 10;
#X obj 365 217 ctlout 99;
#X obj 266 217 ctlout 98;
#X text 343 216 msb;
#X text 244 216 lsb;
#X obj 118 217 ctlout 6;
#X msg 365 182 3;
#X obj 281 147 * 32;
#X obj 266 182 +;
#X obj 200 21 inlet;
#X text 62 216 setting;
#X obj 365 147 bang;
#X obj 21 147 ../tools/metro-mult;
#X obj 281 91 mod;
#X obj 386 21 r ea-1-#;
#X obj 21 21 inlet;
#X obj 76 21 inlet;
#X text 28 40 ticks;
#X text 82 40 start;
#X text 199 4 step sequence[start \, end] \, encoder \, channel;
#X obj 200 91 pack 0 0;
#X obj 200 55 unpack 0 0 0 0;
#X connect 5 0 0 0;
#X connect 6 0 7 1;
#X connect 7 0 1 0;
#X connect 7 0 10 0;
#X connect 8 0 20 0;
#X connect 10 0 5 0;
#X connect 11 0 4 0;
#X connect 12 0 6 0;
#X connect 13 0 12 1;
#X connect 14 0 11 0;
#X connect 15 0 11 1;
#X connect 19 0 11 2;
#X connect 20 0 19 0;
#X connect 20 0 4 0;
#X connect 20 1 19 1;
#X connect 20 2 7 0;
#X connect 20 3 4 2;
#X connect 20 3 1 2;
#X connect 20 3 0 2;
#X connect 20 3 12 0;
