#N canvas 52 195 1549 726 10;
#X obj 124 20 inlet;
#X obj 217 68 bng 15 250 50 0 empty empty empty 17 7 0 10 -262144 -1
-1;
#X obj 212 140 unpack 0 0 0, f 30;
#X obj 148 292 metro;
#X obj 131 335 float;
#X obj 224 335 + 1;
#X obj 563 281 metro;
#X obj 563 327 float;
#X obj 656 327 - 1;
#X obj 217 205 <;
#X obj 561 197 >;
#X obj 420 542 ==;
#X obj 382 617 spigot 0;
#X msg 345 578 0;
#X obj 217 92 list 12 7 500;
#X connect 1 0 14 0;
#X connect 2 0 4 1;
#X connect 2 0 7 1;
#X connect 2 0 9 0;
#X connect 2 0 10 0;
#X connect 2 1 9 1;
#X connect 2 1 10 1;
#X connect 2 1 11 1;
#X connect 2 2 6 1;
#X connect 2 2 3 1;
#X connect 3 0 4 0;
#X connect 3 0 13 0;
#X connect 4 0 5 0;
#X connect 4 0 11 0;
#X connect 5 0 4 1;
#X connect 6 0 7 0;
#X connect 6 0 13 0;
#X connect 7 0 8 0;
#X connect 7 0 11 0;
#X connect 8 0 7 1;
#X connect 9 0 3 0;
#X connect 10 0 6 0;
#X connect 11 0 12 1;
#X connect 12 0 3 0;
#X connect 12 0 6 0;
#X connect 13 0 12 0;
#X connect 14 0 2 0;
