#N canvas 94 144 394 357 10;
#X obj 223 89 ctlout 99;
#X obj 167 207 ctlout 98;
#X text 194 88 msb;
#X text 126 206 lsb;
#X obj 261 290 ctlout 6;
#X msg 223 53 3;
#X obj 32 248 ../encoder-steps;
#X obj 223 22 loadbang;
#X obj 32 89 pack 0 0 0 0;
#X obj 32 53 unpack 0 0 0 0 0 0;
#X obj 131 130 mod 11;
#X obj 131 156 * 32;
#X obj 116 179 +;
#X obj 32 22 inlet;
#X text 202 291 setting;
#X connect 5 0 0 0;
#X connect 6 0 4 0;
#X connect 7 0 5 0;
#X connect 8 0 6 0;
#X connect 9 0 8 0;
#X connect 9 1 8 1;
#X connect 9 2 8 2;
#X connect 9 3 8 3;
#X connect 9 4 12 0;
#X connect 9 5 4 2;
#X connect 9 5 1 2;
#X connect 9 5 0 2;
#X connect 9 5 10 0;
#X connect 10 0 11 0;
#X connect 11 0 12 1;
#X connect 12 0 1 0;
#X connect 13 0 9 0;
