#N canvas 680 244 661 333 10;
#X obj 300 210 ctlout 99;
#X obj 215 210 ctlout 98;
#X text 278 209 msb;
#X text 193 209 lsb;
#X obj 557 266 ctlout 6;
#X msg 300 181 3;
#X obj 216 147 * 32;
#X obj 201 181 +;
#X obj 32 22 inlet;
#X text 511 265 setting;
#X obj 300 147 bang;
#X obj 32 248 ../tools/metro-mult;
#X obj 316 22 r ea_1_#;
#X obj 216 124 mod;
#X text 31 2 step sequence[duration_beats \, start \, end] \, encoder
\, channel;
#X obj 32 89 pack 0 0 0;
#X obj 32 53 unpack 0 0 0 0 0;
#X obj 372 66 print enc;
#X connect 5 0 0 0;
#X connect 6 0 7 1;
#X connect 7 0 1 0;
#X connect 7 0 10 0;
#X connect 8 0 16 0;
#X connect 8 0 17 0;
#X connect 10 0 5 0;
#X connect 11 0 4 0;
#X connect 12 0 13 1;
#X connect 13 0 6 0;
#X connect 15 0 11 0;
#X connect 16 0 15 0;
#X connect 16 1 15 1;
#X connect 16 2 15 2;
#X connect 16 3 7 0;
#X connect 16 4 1 2;
#X connect 16 4 13 0;
#X connect 16 4 4 2;
#X connect 16 4 0 2;
