#N canvas 1056 270 661 333 10;
#X obj 407 210 ctlout 99;
#X obj 215 210 ctlout 98;
#X text 385 209 msb;
#X text 193 209 lsb;
#X obj 558 266 ctlout 6;
#X msg 407 181 3;
#X obj 32 89 pack 0 0 0 0;
#X obj 32 53 unpack 0 0 0 0 0 0;
#X obj 216 147 * 32;
#X obj 201 181 +;
#X obj 32 22 inlet;
#X text 511 265 setting;
#X obj 407 147 bang;
#X text 76 21 step sequence \, encoder \, channel;
#X obj 32 248 ../tools/metro-mult;
#X obj 316 22 r ea_1_#;
#X obj 216 119 mod;
#X connect 5 0 0 0;
#X connect 6 0 14 0;
#X connect 7 0 6 0;
#X connect 7 1 6 1;
#X connect 7 2 6 2;
#X connect 7 3 6 3;
#X connect 7 4 9 0;
#X connect 7 5 4 2;
#X connect 7 5 1 2;
#X connect 7 5 0 2;
#X connect 7 5 16 0;
#X connect 8 0 9 1;
#X connect 9 0 1 0;
#X connect 9 0 12 0;
#X connect 10 0 7 0;
#X connect 12 0 5 0;
#X connect 14 0 4 0;
#X connect 15 0 16 1;
#X connect 16 0 8 0;
