#N canvas 394 287 650 264 12;
#X obj 9 146 setting;
#X obj 9 13 inlet;
#X obj 9 119 pack 0 0 0;
#X obj 9 73 * 12.7;
#X obj 329 16 inlet;
#X text 375 15 explicit value;
#X obj 192 14 inlet;
#X text 385 25;
#X text 53 11 pos \, encoder;
#X text 238 12 channel;
#X obj 9 38 unpack 0 0;
#X obj 76 67 t f b;
#X obj 108 93 f;
#X connect 1 0 10 0;
#X connect 2 0 0 0;
#X connect 3 0 2 0;
#X connect 4 0 0 0;
#X connect 6 0 12 1;
#X connect 10 0 3 0;
#X connect 10 1 11 0;
#X connect 11 0 2 1;
#X connect 11 1 12 0;
#X connect 12 0 2 2;
