#N canvas 394 287 650 264 12;
#X obj 9 146 setting;
#X obj 9 13 inlet;
#X text 53 11 pos \, encoder \, channel;
#X obj 9 38 unpack 0 0 0;
#X obj 9 119 pack 0 0 0;
#X obj 9 73 * 12.7;
#X obj 295 12 inlet;
#X text 341 11 explicit value;
#X connect 1 0 3 0;
#X connect 3 0 5 0;
#X connect 3 1 4 1;
#X connect 3 2 4 2;
#X connect 4 0 0 0;
#X connect 5 0 4 0;
#X connect 6 0 0 0;
