#N canvas 384 184 899 799 10;
#X obj 61 68 bng 15 250 50 0 empty empty empty 17 7 0 10 -262144 -1
-1;
#X obj 112 190 unpack 0 0 0 0, f 30;
#X obj 494 447 float;
#X text 107 65 bpm duration_beats start end;
#X obj 29 312 metro;
#X obj 274 454 float;
#X obj 337 450 + 1;
#X obj 307 345 <;
#X obj 527 343 >;
#X obj 557 443 - 1;
#X obj 274 385 spigot;
#X obj 494 379 spigot;
#X floatatom 133 415 5 0 0 0 - - -, f 5;
#X floatatom 71 485 5 0 0 0 - - -, f 5;
#X obj 133 392 ==;
#X msg 80 385 0;
#X obj 71 462 spigot;
#X obj 194 221 -;
#X obj 194 244 abs;
#X obj 44 273 expr (((60000 / $f1) * $f2) / $f3);
#X msg 306 416 0;
#X msg 521 407 0;
#X obj 491 539 print decr;
#X obj 278 544 print incr;
#X obj 25 141 tgl 15 0 empty empty empty 17 7 0 10 -262144 -1 -1 0
1;
#X obj 91 97 list 60 5 20 10;
#X obj 180 128 route list reset;
#X msg 336 49 reset;
#X obj 345 155 bang;
#X obj 345 197 bng 15 250 50 0 empty empty empty 17 7 0 10 -262144
-1 -1;
#X connect 0 0 25 0;
#X connect 1 0 19 0;
#X connect 1 1 19 1;
#X connect 1 2 7 0;
#X connect 1 2 8 0;
#X connect 1 2 17 0;
#X connect 1 2 5 1;
#X connect 1 2 2 1;
#X connect 1 3 7 1;
#X connect 1 3 8 1;
#X connect 1 3 14 1;
#X connect 1 3 17 1;
#X connect 2 0 9 0;
#X connect 2 0 14 0;
#X connect 2 0 22 0;
#X connect 4 0 11 0;
#X connect 4 0 10 0;
#X connect 4 0 15 0;
#X connect 5 0 6 0;
#X connect 5 0 23 0;
#X connect 5 0 14 0;
#X connect 6 0 5 1;
#X connect 7 0 10 1;
#X connect 8 0 11 1;
#X connect 9 0 2 1;
#X connect 10 0 5 0;
#X connect 11 0 2 0;
#X connect 12 0 16 1;
#X connect 14 0 12 0;
#X connect 15 0 16 0;
#X connect 16 0 13 0;
#X connect 16 0 4 0;
#X connect 17 0 18 0;
#X connect 18 0 19 2;
#X connect 19 0 4 1;
#X connect 20 0 5 1;
#X connect 21 0 2 1;
#X connect 24 0 4 0;
#X connect 25 0 26 0;
#X connect 26 2 28 0;
#X connect 27 0 26 0;
#X connect 28 0 29 0;
