#N canvas 383 324 1098 643 10;
#X obj 795 104 float;
#X obj 888 104 + 1;
#X obj 382 74 bng 15 250 50 0 empty empty empty 17 7 0 10 -262144 -1
-1;
#X floatatom 795 127 5 0 0 0 - - -, f 5;
#X obj 262 315 float;
#X obj 219 248 bng 15 250 50 0 empty empty empty 17 7 0 10 -262144
-1 -1;
#X floatatom 262 338 5 0 0 0 - - -, f 5;
#X obj 143 338 bng 15 250 50 0 empty empty empty 17 7 0 10 -262144
-1 -1;
#X obj 244 421 list;
#X obj 160 364 list;
#X obj 288 488 list;
#X obj 337 445 list;
#X msg 360 410 2000;
#X obj 167 295 delay 20;
#X msg 183 329 4;
#X obj 355 315 + 5;
#X obj 577 288 float;
#X obj 534 221 bng 15 250 50 0 empty empty empty 17 7 0 10 -262144
-1 -1;
#X floatatom 577 311 5 0 0 0 - - -, f 5;
#X obj 458 311 bng 15 250 50 0 empty empty empty 17 7 0 10 -262144
-1 -1;
#X obj 559 394 list;
#X obj 475 337 list;
#X obj 603 461 list;
#X obj 652 418 list;
#X msg 675 383 2000;
#X obj 482 268 delay 20;
#X msg 498 302 4;
#X obj 670 288 + 5;
#X text 265 68 note tester;
#X obj 831 264 pattern;
#X obj 432 557 notes;
#X obj 89 549 notes;
#X obj 423 373 delay 20;
#X floatatom 808 57 5 0 0 0 - - -, f 5;
#X msg 1002 204 p \$1;
#X msg 303 280 40;
#X msg 618 253 40;
#X msg 827 194 b c;
#X msg 739 195 b a;
#X msg 776 196 b b;
#X msg 877 194 b d;
#X msg 69 481 ch 3;
#X msg 397 506 ch 4;
#X connect 0 0 1 0;
#X connect 0 0 3 0;
#X connect 0 0 34 0;
#X connect 1 0 0 1;
#X connect 2 0 0 0;
#X connect 2 0 35 0;
#X connect 2 0 36 0;
#X connect 2 0 14 0;
#X connect 2 0 26 0;
#X connect 2 0 24 0;
#X connect 2 0 12 0;
#X connect 2 0 42 0;
#X connect 2 0 41 0;
#X connect 2 0 32 0;
#X connect 4 0 6 0;
#X connect 4 0 15 0;
#X connect 5 0 4 0;
#X connect 5 0 13 0;
#X connect 6 0 8 1;
#X connect 7 0 9 0;
#X connect 8 0 10 0;
#X connect 9 0 8 0;
#X connect 10 0 31 0;
#X connect 11 0 10 1;
#X connect 12 0 11 1;
#X connect 13 0 7 0;
#X connect 14 0 9 1;
#X connect 15 0 4 1;
#X connect 16 0 18 0;
#X connect 16 0 27 0;
#X connect 17 0 16 0;
#X connect 17 0 25 0;
#X connect 18 0 20 1;
#X connect 19 0 21 0;
#X connect 20 0 22 0;
#X connect 21 0 20 0;
#X connect 22 0 30 0;
#X connect 23 0 22 1;
#X connect 24 0 23 1;
#X connect 25 0 19 0;
#X connect 26 0 21 1;
#X connect 27 0 16 1;
#X connect 32 0 23 0;
#X connect 32 0 11 0;
#X connect 33 0 0 0;
#X connect 34 0 29 0;
#X connect 35 0 4 1;
#X connect 36 0 16 1;
#X connect 37 0 29 0;
#X connect 38 0 29 0;
#X connect 39 0 29 0;
#X connect 40 0 29 0;
#X connect 41 0 31 0;
#X connect 42 0 30 0;
