#N canvas 0 57 1680 993 10;
#X msg 69 481 ch 11;
#X msg 397 506 ch 12;
#X msg 723 195 bank 0;
#X msg 786 195 bank 1;
#X obj 795 104 float;
#X obj 888 104 + 1;
#X msg 833 50 0;
#X obj 382 74 bng 15 250 50 0 empty empty empty 17 7 0 10 -262144 -1
-1;
#X floatatom 795 127 5 0 0 0 - - -, f 5;
#X obj 262 315 float;
#X msg 303 280 0;
#X obj 219 248 bng 15 250 50 0 empty empty empty 17 7 0 10 -262144
-1 -1;
#X floatatom 262 338 5 0 0 0 - - -, f 5;
#X obj 143 338 bng 15 250 50 0 empty empty empty 17 7 0 10 -262144
-1 -1;
#X obj 244 421 list;
#X obj 160 364 list;
#X obj 288 488 list;
#X obj 337 445 list;
#X msg 360 410 2000;
#X obj 288 533 print;
#X obj 167 295 delay 20;
#X msg 183 329 4;
#X obj 355 315 + 5;
#X obj 577 288 float;
#X msg 618 253 0;
#X obj 534 221 bng 15 250 50 0 empty empty empty 17 7 0 10 -262144
-1 -1;
#X floatatom 577 311 5 0 0 0 - - -, f 5;
#X obj 458 311 bng 15 250 50 0 empty empty empty 17 7 0 10 -262144
-1 -1;
#X obj 559 394 list;
#X obj 475 337 list;
#X obj 603 461 list;
#X obj 652 418 list;
#X msg 675 383 2000;
#X obj 482 268 delay 20;
#X msg 498 302 4;
#X obj 670 288 + 5;
#X msg 1002 204 pat \$1;
#X text 265 68 note tester;
#X obj 831 264 pattern;
#X obj 432 557 notes;
#X obj 89 549 notes;
#X obj 423 373 delay 20;
#X connect 0 0 40 0;
#X connect 1 0 39 0;
#X connect 2 0 38 0;
#X connect 3 0 38 0;
#X connect 4 0 5 0;
#X connect 4 0 8 0;
#X connect 4 0 36 0;
#X connect 5 0 4 1;
#X connect 6 0 4 1;
#X connect 7 0 4 0;
#X connect 7 0 10 0;
#X connect 7 0 24 0;
#X connect 7 0 21 0;
#X connect 7 0 34 0;
#X connect 7 0 32 0;
#X connect 7 0 18 0;
#X connect 7 0 1 0;
#X connect 7 0 0 0;
#X connect 7 0 41 0;
#X connect 9 0 12 0;
#X connect 9 0 22 0;
#X connect 10 0 9 1;
#X connect 11 0 9 0;
#X connect 11 0 20 0;
#X connect 12 0 14 1;
#X connect 13 0 15 0;
#X connect 14 0 16 0;
#X connect 15 0 14 0;
#X connect 16 0 19 0;
#X connect 16 0 40 0;
#X connect 17 0 16 1;
#X connect 18 0 17 1;
#X connect 20 0 13 0;
#X connect 21 0 15 1;
#X connect 22 0 9 1;
#X connect 23 0 26 0;
#X connect 23 0 35 0;
#X connect 24 0 23 1;
#X connect 25 0 23 0;
#X connect 25 0 33 0;
#X connect 26 0 28 1;
#X connect 27 0 29 0;
#X connect 28 0 30 0;
#X connect 29 0 28 0;
#X connect 30 0 39 0;
#X connect 31 0 30 1;
#X connect 32 0 31 1;
#X connect 33 0 27 0;
#X connect 34 0 29 1;
#X connect 35 0 23 1;
#X connect 36 0 38 0;
#X connect 41 0 31 0;
#X connect 41 0 17 0;
