#N canvas 677 388 1098 700 10;
#X obj 169 89 route -1 0;
#X obj 300 204 unpack 0 0 0;
#X obj 85 201 unpack 0 0;
#X obj 190 201 unpack 0 0;
#X obj 300 239 makenote 1;
#X obj 300 265 noteout;
#X msg 104 236 1;
#X obj 85 264 noteout;
#X obj 190 262 noteout;
#X msg 209 236 0;
#X obj 55 32 inlet;
#X obj 55 69 route ch;
#X obj 113 164 loadbang;
#X connect 0 0 2 0;
#X connect 0 1 3 0;
#X connect 0 2 1 0;
#X connect 1 1 4 0;
#X connect 1 2 4 2;
#X connect 2 0 7 0;
#X connect 3 0 8 0;
#X connect 4 0 5 0;
#X connect 4 1 5 1;
#X connect 6 0 7 1;
#X connect 9 0 8 1;
#X connect 10 0 11 0;
#X connect 11 0 7 2;
#X connect 11 0 8 2;
#X connect 11 0 5 2;
#X connect 11 1 0 0;
#X connect 12 0 6 0;
#X connect 12 0 9 0;
