#N canvas 973 419 516 365 10;
#X obj 169 89 route -1 0;
#X obj 300 204 unpack 0 0 0;
#X obj 300 239 makenote 1;
#X obj 300 265 noteout;
#X msg 323 55 1;
#X obj 85 264 noteout;
#X obj 190 262 noteout;
#X msg 364 55 0;
#X obj 124 20 inlet;
#X obj 124 55 route ch;
#X obj 345 20 loadbang;
#X text 155 4 channel|note: type \, note \, duration;
#X obj 85 201 unpack 0;
#X obj 190 201 unpack 0;
#X connect 0 0 12 0;
#X connect 0 1 13 0;
#X connect 0 2 1 0;
#X connect 1 1 2 0;
#X connect 1 2 2 2;
#X connect 2 0 3 0;
#X connect 2 1 3 1;
#X connect 4 0 5 1;
#X connect 7 0 6 1;
#X connect 8 0 9 0;
#X connect 9 0 5 2;
#X connect 9 0 6 2;
#X connect 9 0 3 2;
#X connect 9 1 0 0;
#X connect 10 0 4 0;
#X connect 10 0 7 0;
#X connect 12 0 5 0;
#X connect 13 0 6 0;
