#N canvas 280 330 464 383 10;
#X text 99 28 sound bank|pattern;
#X obj 53 61 route b p;
#X obj 53 139 select a b c d;
#X obj 53 100 symbol \$1;
#X msg 53 265 0;
#X msg 98 265 1;
#X obj 221 173 t b b;
#X obj 162 173 t b b;
#X obj 105 173 t b b;
#X obj 53 173 t b b;
#X msg 189 265 0;
#X msg 248 265 64;
#X obj 174 309 +;
#X obj 85 353 ctlout;
#X obj 174 353 pgmout;
#X obj 53 29 inlet;
#X obj 232 29 loadbang;
#X msg 232 61 32;
#X text 17 352 lsb/bank;
#X text 215 352 pattern;
#X obj 311 29 r ea-1-#;
#X connect 1 0 3 0;
#X connect 1 1 12 0;
#X connect 2 0 9 0;
#X connect 2 1 8 0;
#X connect 2 2 7 0;
#X connect 2 3 6 0;
#X connect 3 0 2 0;
#X connect 4 0 13 0;
#X connect 5 0 13 0;
#X connect 6 0 5 0;
#X connect 6 1 11 0;
#X connect 7 0 5 0;
#X connect 7 1 10 0;
#X connect 8 0 4 0;
#X connect 8 1 11 0;
#X connect 9 0 4 0;
#X connect 9 1 10 0;
#X connect 10 0 12 1;
#X connect 11 0 12 1;
#X connect 12 0 14 0;
#X connect 15 0 1 0;
#X connect 16 0 17 0;
#X connect 17 0 13 1;
#X connect 20 0 13 2;
#X connect 20 0 14 1;
