#N canvas 750 391 739 466 12;
#X obj 198 183 ../common/list-random;
#X obj 233 12 inlet;
#X obj 27 12 inlet;
#X obj 451 12 r beat-len;
#X obj 465 126 *;
#X obj 244 330 f;
#X obj 188 376 pack 0 0 0;
#X obj 198 290 t b f b;
#X msg 212 126 ch \$1;
#X obj 212 422 notes;
#X msg 198 330 1;
#X obj 451 58 t b f;
#X msg 451 94 0.5;
#X msg 122 58 rnd -4;
#X text 71 11 tick;
#X text 279 11 ch \, note-len \, drop-rnd \, note list, f 19;
#X obj 122 12 r reset;
#X obj 198 261 + 0;
#X obj 233 58 route ch len drp offset;
#X obj 27 126 ../common/rnd-note;
#X connect 0 0 17 0;
#X connect 1 0 18 0;
#X connect 2 0 19 0;
#X connect 3 0 11 0;
#X connect 4 0 5 1;
#X connect 5 0 6 2;
#X connect 6 0 9 0;
#X connect 7 0 10 0;
#X connect 7 1 6 1;
#X connect 7 2 5 0;
#X connect 8 0 9 0;
#X connect 10 0 6 0;
#X connect 11 0 12 0;
#X connect 11 1 4 1;
#X connect 12 0 4 0;
#X connect 13 0 19 1;
#X connect 16 0 13 0;
#X connect 17 0 7 0;
#X connect 18 0 8 0;
#X connect 18 1 4 0;
#X connect 18 2 19 1;
#X connect 18 3 17 1;
#X connect 18 4 0 1;
#X connect 19 0 0 0;
