#N canvas 1523 323 1230 1088 10;
#X obj 16 349 ../electribe/notes;
#X obj 100 253 ../common/note-walker;
#X obj 22 7 inlet;
#X obj 16 179 t f b;
#X msg 43 211 reset;
#X msg 16 249 ch \$1;
#X msg 304 58 ch 11 \, 51 0.5 2 \, 55 1 3 \, 60 2 4 \, -1;
#X msg 320 210 len;
#X obj 150 393 print notes;
#X obj 362 318 s beat-len;
#X msg 358 286 200;
#X obj 99 284 route len done;
#X obj 225 354 print len;
#X obj 413 396 print done;
#X obj 22 30 route ch play;
#X text 119 6 ch[channel]|play (next note)[-1 for ever|0 stop]|n|reset|offset[pitch]||sequence[note
\, dur \, break];
#X msg 113 214 play;
#X obj 397 174 float;
#X obj 452 172 - 1;
#X obj 512 214 print to play;
#X obj 402 253 sel 1;
#X obj 400 223 != 0;
#X obj 215 86 t b f f;
#X obj 230 156 spigot;
#X obj 264 131 != 0;
#X msg 511 24 play 0;
#X connect 1 0 11 0;
#X connect 2 0 14 0;
#X connect 3 0 5 0;
#X connect 3 1 4 0;
#X connect 4 0 1 0;
#X connect 5 0 0 0;
#X connect 6 0 14 0;
#X connect 7 0 1 0;
#X connect 10 0 9 0;
#X connect 11 0 12 0;
#X connect 11 1 13 0;
#X connect 11 1 17 0;
#X connect 11 2 8 0;
#X connect 11 2 0 0;
#X connect 14 0 3 0;
#X connect 14 1 22 0;
#X connect 14 2 1 0;
#X connect 16 0 1 0;
#X connect 17 0 18 0;
#X connect 17 0 19 0;
#X connect 17 0 21 0;
#X connect 18 0 17 1;
#X connect 20 0 16 0;
#X connect 21 0 20 0;
#X connect 22 0 23 0;
#X connect 22 1 17 1;
#X connect 22 2 24 0;
#X connect 23 0 17 0;
#X connect 24 0 23 1;
#X connect 25 0 14 0;
