#N canvas 801 339 493 418 10;
#X obj 91 276 ../common/note-walker;
#X obj 16 7 inlet;
#X obj 16 204 t f b;
#X msg 43 236 reset;
#X msg 16 274 ch \$1;
#X obj 91 307 route len done;
#X msg 103 238 play;
#X obj 164 160 float;
#X obj 219 158 - 1;
#X obj 164 69 t b f f;
#X obj 164 132 spigot;
#X obj 203 98 != 0;
#X obj 16 30 route ch play;
#X obj 16 368 notes;
#X text 119 6 ch[channel]|play (next note)[-1 for ever|0 stop|n]|reset|offset[pitch]||sequence[note
\, dur \, break];
#X obj 164 188 sel 0;
#X connect 0 0 5 0;
#X connect 1 0 12 0;
#X connect 2 0 4 0;
#X connect 2 1 3 0;
#X connect 3 0 0 0;
#X connect 4 0 13 0;
#X connect 5 1 7 0;
#X connect 5 2 13 0;
#X connect 6 0 0 0;
#X connect 7 0 8 0;
#X connect 7 0 15 0;
#X connect 8 0 7 1;
#X connect 9 0 10 0;
#X connect 9 1 7 1;
#X connect 9 2 11 0;
#X connect 10 0 7 0;
#X connect 11 0 10 1;
#X connect 12 0 2 0;
#X connect 12 1 9 0;
#X connect 12 2 0 0;
#X connect 15 1 6 0;
