#N canvas 834 219 991 790 10;
#X obj 15 368 ../electribe/notes;
#X obj 90 277 ../common/note-walker;
#X obj 16 7 inlet;
#X obj 16 204 t f b;
#X msg 43 236 reset;
#X msg 16 274 ch \$1;
#X obj 89 308 route len done;
#X obj 16 30 route ch play;
#X text 119 6 ch[channel]|play (next note)[-1 for ever|0 stop]|n|reset|offset[pitch]||sequence[note
\, dur \, break];
#X msg 103 238 play;
#X obj 159 146 float;
#X obj 214 144 - 1;
#X obj 159 201 sel 1;
#X obj 160 174 != 0;
#X obj 122 55 t b f f;
#X obj 122 118 spigot;
#X obj 162 84 != 0;
#X connect 1 0 6 0;
#X connect 2 0 7 0;
#X connect 3 0 5 0;
#X connect 3 1 4 0;
#X connect 4 0 1 0;
#X connect 5 0 0 0;
#X connect 6 1 10 0;
#X connect 6 2 0 0;
#X connect 7 0 3 0;
#X connect 7 1 14 0;
#X connect 7 2 1 0;
#X connect 9 0 1 0;
#X connect 10 0 11 0;
#X connect 10 0 13 0;
#X connect 11 0 10 1;
#X connect 12 0 9 0;
#X connect 13 0 12 0;
#X connect 14 0 15 0;
#X connect 14 1 10 1;
#X connect 14 2 16 0;
#X connect 15 0 10 0;
#X connect 16 0 15 1;
