#N canvas 205 661 379 339 10;
#X obj 153 229 ctlout 99;
#X obj 50 229 ctlout 98;
#X text 129 228 msb;
#X text 28 228 lsb;
#X obj 280 229 ctlout 6;
#X msg 153 171 3;
#X obj 53 139 * 32;
#X obj 38 169 +;
#X obj 32 22 inlet;
#X text 234 228 setting;
#X text 76 21 value \, encoder \, channel;
#X obj 32 53 unpack 0 0 0;
#X obj 53 105 mod;
#X obj 232 22 r ea-1-#;
#X obj 44 199 t b f;
#X connect 5 0 0 0;
#X connect 6 0 7 1;
#X connect 7 0 14 0;
#X connect 8 0 11 0;
#X connect 11 0 4 0;
#X connect 11 1 7 0;
#X connect 11 2 1 2;
#X connect 11 2 0 2;
#X connect 11 2 4 2;
#X connect 11 2 12 0;
#X connect 12 0 6 0;
#X connect 13 0 12 1;
#X connect 14 0 5 0;
#X connect 14 1 1 0;
