#N canvas 255 48 1119 641 12;
#X obj 20 17 inlet;
#X obj 253 396 ../common/arp-chord;
#X obj 20 49 ../common/step-seq-sel-3 \$0;
#X obj 253 453 noteout;
#X obj 299 11 r amb-2-#;
#X obj 360 455 noteout;
#X obj 406 10 r tr-m2-#;
#X obj 450 289 ../common/beat-art-enc;
#X obj 296 333 r dbi-#;
#X msg 281 362 42;
#X obj 168 91 t f f f;
#X obj 339 211 ../common/note-in;
#X obj 455 180 r beat-#;
#X msg 401 283 0;
#X msg 364 333 1;
#X obj 20 187 t b b b b b b b;
#X msg 384 308 3 4 0;
#X msg 324 362 1 0;
#X obj 339 273 pack 0 0;
#X obj 455 239 moses 1;
#X connect 0 0 2 0;
#X connect 1 0 5 0;
#X connect 1 0 3 0;
#X connect 1 1 5 1;
#X connect 1 1 3 1;
#X connect 2 0 15 0;
#X connect 2 4 10 0;
#X connect 4 0 3 2;
#X connect 6 0 5 2;
#X connect 7 0 1 7;
#X connect 7 1 1 8;
#X connect 7 2 1 9;
#X connect 8 0 1 3;
#X connect 9 0 1 2;
#X connect 10 0 11 0;
#X connect 10 1 1 0;
#X connect 10 2 7 0;
#X connect 11 0 18 0;
#X connect 11 1 19 0;
#X connect 12 0 11 1;
#X connect 13 0 1 9;
#X connect 14 0 1 7;
#X connect 15 1 9 0;
#X connect 15 2 17 0;
#X connect 15 3 14 0;
#X connect 15 4 16 0;
#X connect 15 5 13 0;
#X connect 15 6 1 4;
#X connect 16 0 1 8;
#X connect 17 0 1 6;
#X connect 18 0 1 6;
#X connect 19 1 18 1;
