#N canvas 731 100 339 173 12;
#X obj 17 6 inlet;
#X obj 115 6 inlet;
#X text 60 5 play;
#X text 157 5 stop;
#X msg 17 57 1;
#X msg 115 57 0;
#X obj 17 107 outlet;
#X obj 115 31 t b b;
#X obj 165 104 outlet;
#X obj 94 106 outlet;
#X text 95 127 play;
#X text 169 126 stop;
#X text 16 126 spigot;
#X obj 17 31 t b b;
#X connect 0 0 13 0;
#X connect 1 0 7 0;
#X connect 4 0 6 0;
#X connect 5 0 6 0;
#X connect 7 0 5 0;
#X connect 7 1 8 0;
#X connect 13 0 4 0;
#X connect 13 1 9 0;
