#N canvas 420 250 1007 568 12;
#X obj 21 11 inlet;
#X text 64 10 routing vals;
#X obj 21 239 route 24 25 26 27 28 29 30 31;
#X obj 242 239 route 16 17 18 19 20 21 22 23;
#X obj 669 238 route 0 1 2 3 4 5 6 7;
#X obj 463 239 route 8 9 10 11 12 13 14 15;
#X obj 669 281 ../apc/key-to-ea1;
#X obj 687 307 ../apc/key-to-ea2;
#X obj 777 439 ../apc/key-to-pulse;
#X obj 705 334 ../apc/key-to-amb1;
#X obj 723 360 ../apc/key-to-amb2;
#X obj 741 386 ../apc/key-to-syn1;
#X obj 759 412 ../apc/key-to-syn2;
#X obj 242 281 ../tracks/s2-to-ea1;
#X obj 267 307 ../tracks/s2-to-ea2;
#X obj 392 439 ../tracks/s2-to-pulse;
#X obj 463 281 ../m2s/to-tr-m1;
#X obj 486 307 ../m2s/to-tr-m2;
#X obj 603 439 ../m2s/to-pulse;
#X obj 509 334 ../m2s/to-amb1;
#X obj 532 360 ../m2s/to-amb2;
#X obj 556 386 ../m2s/to-syn1;
#X obj 579 412 ../m2s/to-syn2;
#X obj 317 360 arp-amb2;
#X obj 239 12 inlet;
#X text 286 12 init;
#X obj 319 182 s on-load;
#X obj 239 41 t b b;
#X obj 239 70 delay 150;
#X obj 319 70 delay 100;
#X obj 21 281 ../tracks/d2-to-vd1;
#X obj 46 307 ../tracks/d3-to-vd2;
#X obj 71 334 ../tracks/d4-to-vd3;
#X obj 96 360 ../tracks/d2-to-vd4;
#X obj 121 386 ../tracks/d3-to-vd5;
#X obj 146 412 ../tracks/d4-to-vd6;
#X obj 170 439 ../xv/d2-xv;
#X obj 417 468 ../tracks/m2-to-s1;
#X msg 319 130 0 \, 1 \, 2 \, 3 \, 4 \, 5 \, 6 \, 8 \, 9 \, 10 \, 11
\, 12 \, 13 \, 14 \, 16 \, 17 \, 18 \, 19 \, 22 \, 23 \, 24 \, 25 \,
26 \, 27 \, 28 \, 29 \, 30;
#X connect 0 0 2 0;
#X connect 2 0 30 0;
#X connect 2 1 31 0;
#X connect 2 2 32 0;
#X connect 2 3 33 0;
#X connect 2 4 34 0;
#X connect 2 5 35 0;
#X connect 2 6 36 0;
#X connect 2 8 3 0;
#X connect 3 0 13 0;
#X connect 3 1 14 0;
#X connect 3 3 23 0;
#X connect 3 6 15 0;
#X connect 3 7 37 0;
#X connect 3 8 5 0;
#X connect 4 0 6 0;
#X connect 4 1 7 0;
#X connect 4 2 9 0;
#X connect 4 3 10 0;
#X connect 4 4 11 0;
#X connect 4 5 12 0;
#X connect 4 6 8 0;
#X connect 5 0 16 0;
#X connect 5 1 17 0;
#X connect 5 2 19 0;
#X connect 5 3 20 0;
#X connect 5 4 21 0;
#X connect 5 5 22 0;
#X connect 5 6 18 0;
#X connect 5 8 4 0;
#X connect 24 0 27 0;
#X connect 27 0 28 0;
#X connect 27 1 29 0;
#X connect 28 0 38 0;
#X connect 29 0 38 0;
#X connect 38 0 26 0;
