#N canvas 477 141 815 654 12;
#X obj 276 12 notein;
#X obj 336 197 spigot;
#X obj 276 335 noteout;
#X obj 315 65 t f f;
#X obj 276 197 spigot;
#X obj 315 38 ==;
#X obj 276 286 sel 60 62 64 65;
#X msg 333 12 r tr-d-#;
#X obj 633 12 r vd-#;
#X obj 336 226 t f f f f;
#X obj 301 388 noteout;
#X msg 301 364 62;
#X obj 327 439 noteout;
#X obj 352 493 noteout;
#X msg 276 311 60;
#X msg 327 415 64;
#X msg 352 469 66;
#X obj 390 527 noteout;
#X obj 425 577 noteout;
#X obj 633 226 t f f f f f f;
#X msg 425 553 69;
#X obj 454 12 notein;
#X obj 514 197 spigot;
#X obj 493 65 t f f;
#X obj 454 197 spigot;
#X obj 493 38 ==;
#X msg 511 12 r model-1-#;
#X text 239 336 vd-1;
#X text 238 388 vd-2;
#X text 238 439 vd-3;
#X text 239 495 vd-4;
#X text 240 532 vd-5;
#X text 241 576 vd-6;
#X obj 276 171 spigot;
#X obj 454 172 spigot;
#X text 39 11;
#X msg 23 65 1;
#X obj 23 12 inlet;
#X msg 64 65 0;
#X msg 23 96 \$1;
#X obj 23 38 ../common/step-seq-sel-3 \$0;
#X connect 0 0 33 0;
#X connect 0 1 1 0;
#X connect 0 2 5 0;
#X connect 1 0 9 0;
#X connect 3 0 4 1;
#X connect 3 1 1 1;
#X connect 4 0 6 0;
#X connect 5 0 3 0;
#X connect 6 0 14 0;
#X connect 6 1 11 0;
#X connect 6 2 15 0;
#X connect 6 3 16 0;
#X connect 7 0 5 1;
#X connect 8 0 19 0;
#X connect 9 0 2 1;
#X connect 9 1 10 1;
#X connect 9 2 12 1;
#X connect 9 3 13 1;
#X connect 11 0 10 0;
#X connect 14 0 2 0;
#X connect 15 0 12 0;
#X connect 16 0 13 0;
#X connect 19 0 2 2;
#X connect 19 1 10 2;
#X connect 19 2 12 2;
#X connect 19 3 13 2;
#X connect 19 4 17 2;
#X connect 19 5 18 2;
#X connect 20 0 18 0;
#X connect 21 0 34 0;
#X connect 21 1 22 0;
#X connect 21 2 25 0;
#X connect 22 0 17 1;
#X connect 23 0 24 1;
#X connect 23 1 22 1;
#X connect 24 0 17 0;
#X connect 25 0 23 0;
#X connect 26 0 25 1;
#X connect 33 0 4 0;
#X connect 34 0 24 0;
#X connect 36 0 39 0;
#X connect 37 0 40 0;
#X connect 38 0 39 0;
#X connect 39 0 34 1;
#X connect 39 0 33 1;
#X connect 40 0 36 0;
#X connect 40 1 36 0;
#X connect 40 2 38 0;
