#N canvas 0 0 450 300 12;
#X obj 35 146 ../../../controller/note-xlate;
#X obj 250 112 r tr-d-#;
#X msg 138 112 62;
#X obj 190 112 r dbi-#;
#X obj 75 210 ../../../controller/note-xlate;
#X obj 290 176 r tr-d-#;
#X msg 178 176 62;
#X obj 230 176 r dbi-#;
#X obj 87 83 t b b b b;
#X msg 86 112 38;
#X msg 126 176 50;
#X obj 87 14 inlet;
#X obj 13 14 inlet;
#X obj 13 81 t b b;
#X text 25 36 arm;
#X text 94 36 spigot;
#X connect 1 0 0 4;
#X connect 2 0 0 2;
#X connect 3 0 0 3;
#X connect 5 0 4 4;
#X connect 6 0 4 2;
#X connect 7 0 4 3;
#X connect 8 0 9 0;
#X connect 8 1 2 0;
#X connect 8 2 10 0;
#X connect 8 3 6 0;
#X connect 9 0 0 1;
#X connect 10 0 4 1;
#X connect 11 0 8 0;
#X connect 12 0 13 0;
#X connect 13 0 0 0;
#X connect 13 1 4 0;
