#N canvas 368 385 1065 412 12;
#X obj 12 14 inlet;
#X obj 134 14 inlet;
#X obj 257 14 loadbang;
#X obj 192 310 ctlout;
#X obj 60 310 ctlout;
#X obj 327 310 ctlout;
#X obj 99 274 r tr-d-#;
#X obj 231 274 r tr-d-#;
#X obj 366 274 r tr-d-#;
#X obj 464 310 ctlout;
#X text 464 329 delay send;
#X obj 503 274 r tr-pr-#;
#X msg 66 274 46;
#X msg 196 274 47;
#X msg 332 274 48;
#X msg 469 274 109;
#X text 327 329 dist;
#X text 192 329 decay;
#X text 58 329 pitch;
#X obj 12 42 t b b b b b b b;
#X obj 134 42 t b b b b b b b;
#X obj 257 42 t b b b b b b b;
#X text 56 13 on;
#X text 177 13 off;
#X msg 30 240 69;
#X msg 60 240 64;
#X msg 162 240 80;
#X msg 192 240 127;
#X msg 294 240 14;
#X msg 327 240 0;
#X msg 431 240 40;
#X msg 464 240 0;
#X connect 0 0 19 0;
#X connect 1 0 20 0;
#X connect 2 0 21 0;
#X connect 6 0 4 2;
#X connect 7 0 3 2;
#X connect 8 0 5 2;
#X connect 11 0 9 2;
#X connect 12 0 4 1;
#X connect 13 0 3 1;
#X connect 14 0 5 1;
#X connect 15 0 9 1;
#X connect 19 0 24 0;
#X connect 19 1 26 0;
#X connect 19 2 28 0;
#X connect 19 4 30 0;
#X connect 20 0 25 0;
#X connect 20 1 27 0;
#X connect 20 2 29 0;
#X connect 20 4 31 0;
#X connect 21 0 12 0;
#X connect 21 1 13 0;
#X connect 21 2 14 0;
#X connect 21 4 15 0;
#X connect 24 0 4 0;
#X connect 25 0 4 0;
#X connect 26 0 3 0;
#X connect 27 0 3 0;
#X connect 28 0 5 0;
#X connect 29 0 5 0;
#X connect 30 0 9 0;
#X connect 31 0 9 0;
