#N canvas 368 385 1065 412 12;
#X obj 12 14 inlet;
#X obj 134 14 inlet;
#X obj 257 14 loadbang;
#X obj 192 310 ctlout;
#X obj 60 310 ctlout;
#X obj 327 310 ctlout;
#X obj 99 274 r tr-d-#;
#X obj 231 274 r tr-d-#;
#X obj 366 274 r tr-d-#;
#X obj 594 310 ctlout;
#X text 594 329 delay send;
#X obj 633 274 r tr-pr-#;
#X obj 748 310 ctlout;
#X obj 787 274 r tr-pr-#;
#X msg 66 274 46;
#X msg 196 274 47;
#X msg 332 274 48;
#X text 748 329 reverb send;
#X msg 599 274 109;
#X msg 753 274 115;
#X msg 715 240 0;
#X msg 748 240 15;
#X msg 561 240 0;
#X msg 594 240 40;
#X msg 30 240 64;
#X msg 60 240 69;
#X msg 162 240 127;
#X msg 294 240 0;
#X msg 327 240 14;
#X obj 454 310 ctlout;
#X obj 493 274 r tr-d-#;
#X msg 421 240 0;
#X text 454 329 eq;
#X text 327 329 dist;
#X text 192 329 decay;
#X text 58 329 pitch;
#X msg 459 274 49;
#X msg 454 240 0;
#X text 56 13 off;
#X text 177 13 on;
#X obj 890 310 ctlout;
#X text 890 329 volume;
#X obj 929 274 r tr-d-#;
#X obj 12 42 t b b b b b b b;
#X obj 134 42 t b b b b b b b;
#X obj 257 42 t b b b b b b b;
#X msg 192 240 80;
#X msg 895 274 45;
#X msg 890 240 30;
#X msg 857 240 25;
#X connect 0 0 43 0;
#X connect 1 0 44 0;
#X connect 2 0 45 0;
#X connect 6 0 4 2;
#X connect 7 0 3 2;
#X connect 8 0 5 2;
#X connect 11 0 9 2;
#X connect 13 0 12 2;
#X connect 14 0 4 1;
#X connect 15 0 3 1;
#X connect 16 0 5 1;
#X connect 18 0 9 1;
#X connect 19 0 12 1;
#X connect 20 0 12 0;
#X connect 21 0 12 0;
#X connect 22 0 9 0;
#X connect 23 0 9 0;
#X connect 24 0 4 0;
#X connect 25 0 4 0;
#X connect 26 0 3 0;
#X connect 27 0 5 0;
#X connect 28 0 5 0;
#X connect 30 0 29 2;
#X connect 31 0 29 0;
#X connect 36 0 29 1;
#X connect 37 0 29 0;
#X connect 42 0 40 2;
#X connect 43 0 24 0;
#X connect 43 1 26 0;
#X connect 43 2 27 0;
#X connect 43 4 22 0;
#X connect 44 0 25 0;
#X connect 44 1 46 0;
#X connect 44 2 28 0;
#X connect 44 4 23 0;
#X connect 45 0 14 0;
#X connect 45 1 15 0;
#X connect 45 2 16 0;
#X connect 45 4 18 0;
#X connect 46 0 3 0;
#X connect 47 0 40 1;
#X connect 48 0 40 0;
#X connect 49 0 40 0;
