#N canvas 474 629 515 280 12;
#X obj 112 13 inlet;
#X obj 28 13 inlet;
#X obj 217 13 loadbang;
#X obj 202 196 ctlout;
#X msg 206 157 33;
#X obj 70 196 ctlout;
#X msg 76 160 31;
#X text 202 215 delay send;
#X text 68 215 reverb send;
#X msg 28 128 127;
#X msg 61 128 0;
#X obj 337 194 ctlout;
#X text 337 213 delay send;
#X obj 217 41 t b b b;
#X msg 342 156 13;
#X msg 297 128 20;
#X msg 329 128 31;
#X obj 109 157 r tr-s1-#;
#X obj 241 157 r tr-s1-#;
#X obj 376 155 r tr-s1-#;
#X obj 28 41 t b b b;
#X obj 112 41 t b b b;
#X msg 169 128 127;
#X msg 200 128 0;
#X text 156 12 off;
#X text 71 12 on;
#X connect 0 0 21 0;
#X connect 1 0 20 0;
#X connect 2 0 13 0;
#X connect 4 0 3 1;
#X connect 6 0 5 1;
#X connect 9 0 5 0;
#X connect 10 0 5 0;
#X connect 13 0 6 0;
#X connect 13 1 4 0;
#X connect 13 2 14 0;
#X connect 14 0 11 1;
#X connect 15 0 11 0;
#X connect 16 0 11 0;
#X connect 17 0 5 2;
#X connect 18 0 3 2;
#X connect 19 0 11 2;
#X connect 20 0 9 0;
#X connect 20 1 22 0;
#X connect 20 2 15 0;
#X connect 21 0 10 0;
#X connect 21 1 23 0;
#X connect 21 2 16 0;
#X connect 22 0 3 0;
#X connect 23 0 3 0;
