#N canvas 116 253 455 345 12;
#X obj 31 18 inlet;
#X obj 31 154 ../../../dbi/hit;
#X obj 31 67 ../../../common/step-seq-sel-3 \$0;
#X msg 31 248 1;
#X msg 31 125 10;
#X obj 331 18 r vd-1-#;
#X msg 63 248 127;
#X obj 31 90 t b b;
#X obj 31 274 noteout;
#X connect 0 0 2 0;
#X connect 1 0 3 0;
#X connect 2 0 7 0;
#X connect 3 0 8 0;
#X connect 4 0 1 0;
#X connect 5 0 8 2;
#X connect 6 0 8 1;
#X connect 7 0 4 0;
#X connect 7 1 6 0;
