#N canvas 279 144 1027 801 12;
#X obj 25 16 inlet;
#X obj 25 47 ../../common/step-seq-sel-3 \$0;
#X obj 27 122 t b b b b b b b;
#X obj 224 170 t b b b;
#X obj 182 105 t b b b;
#X obj 640 19 r tr-s2-#;
#X obj 505 545 noteout;
#X obj 400 40 unpack 0 0;
#X obj 400 15 r notes;
#X obj 404 254 spigot;
#X msg 414 210 0;
#X msg 453 210 1;
#X obj 191 391 print listen;
#X connect 0 0 1 0;
#X connect 1 0 2 0;
#X connect 1 1 4 0;
#X connect 1 2 3 0;
#X connect 1 4 9 1;
#X connect 1 4 12 0;
#X connect 2 6 10 0;
#X connect 3 0 10 0;
#X connect 5 0 6 2;
#X connect 7 0 9 0;
#X connect 7 1 6 1;
#X connect 8 0 7 0;
#X connect 9 0 6 0;
#X connect 10 0 9 1;
#X connect 11 0 9 1;
