#N canvas 557 156 1027 801 12;
#X obj 25 16 inlet;
#X obj 25 47 ../../common/step-seq-sel-3 \$0;
#X obj 412 447 ../../kp3/program;
#X obj 519 651 ../../kp3/pad-on;
#X msg 412 408 b 0 \, p 118;
#X obj 244 443 ../../kp3/touch-hi-res;
#X obj 680 613 ../../kp3/pad-off;
#X obj 142 670 ../../kp3/vol;
#X msg 141 632 0;
#X obj 27 122 t b b b b b b b;
#X obj 500 165 spigot;
#X msg 531 113 0;
#X msg 470 119 1;
#X msg 423 632 play \$1;
#X msg 453 599 1;
#X msg 640 598 0;
#X obj 500 68 delay 300;
#X floatatom 504 30 5 0 0 0 - - -;
#X obj 461 542 t b b b;
#X obj 648 568 t b b b;
#X obj 273 91 t b b b;
#X obj 182 105 t b b b;
#X obj 799 205 spigot;
#X obj 714 316 sel 0;
#X msg 244 414 100 110;
#X obj 829 388 notein;
#X obj 904 529 ==;
#X obj 939 415 bng 15 250 50 0 empty empty empty 17 7 0 10 -262144
-1 -1;
#X obj 870 663 pack 0 0 0;
#X obj 819 589 spigot 0;
#X msg 928 473 2;
#X obj 820 724 noteout;
#X obj 939 730 print;
#X msg 939 586 14;
#X connect 0 0 1 0;
#X connect 1 0 9 0;
#X connect 1 1 21 0;
#X connect 1 2 20 0;
#X connect 4 0 2 0;
#X connect 8 0 7 0;
#X connect 9 0 8 0;
#X connect 9 2 19 0;
#X connect 9 3 24 0;
#X connect 9 4 4 0;
#X connect 10 0 6 0;
#X connect 11 0 10 1;
#X connect 11 0 22 1;
#X connect 12 0 10 1;
#X connect 12 0 22 1;
#X connect 14 0 13 0;
#X connect 15 0 13 0;
#X connect 16 0 10 0;
#X connect 17 0 16 1;
#X connect 18 0 14 0;
#X connect 18 1 3 0;
#X connect 19 0 15 0;
#X connect 19 1 6 0;
#X connect 20 0 19 0;
#X connect 20 1 8 0;
#X connect 20 2 11 0;
#X connect 21 0 18 0;
#X connect 21 2 12 0;
#X connect 22 0 23 0;
#X connect 23 0 6 0;
#X connect 23 1 3 0;
#X connect 24 0 5 0;
#X connect 25 0 29 0;
#X connect 25 1 31 1;
#X connect 25 1 28 1;
#X connect 25 2 26 0;
#X connect 26 0 29 1;
#X connect 27 0 30 0;
#X connect 27 0 33 0;
#X connect 28 0 32 0;
#X connect 29 0 31 0;
#X connect 29 0 28 0;
#X connect 30 0 26 1;
#X connect 33 0 28 2;
#X connect 33 0 31 2;
