#N canvas 1016 349 365 221 12;
#X obj 15 38 select 0 1;
#X obj 15 13 inlet;
#X obj 48 130 ../../../ambika/program;
#X text 96 9 change arp;
#X msg 15 67 0 6;
#X msg 48 93 0 7;
#X connect 0 0 4 0;
#X connect 0 1 5 0;
#X connect 1 0 0 0;
#X connect 4 0 2 0;
#X connect 5 0 2 0;
