#N canvas 444 617 735 280 12;
#X obj 106 12 inlet;
#X obj 25 12 inlet;
#X obj 217 12 loadbang;
#X obj 106 40 t b b;
#X obj 25 40 t b b;
#X obj 202 196 ctlout;
#X msg 249 84 33;
#X obj 70 196 ctlout;
#X msg 217 84 31;
#X text 202 215 delay send;
#X text 68 215 reverb send;
#X obj 241 157 r tr-pr-#;
#X obj 109 157 r tr-pr-#;
#X obj 323 196 ctlout;
#X obj 362 157 r tr-pr-#;
#X obj 217 40 t b b b;
#X msg 342 84 13;
#X text 323 215 volume;
#X text 150 11 off;
#X text 68 11 on;
#X msg 340 120 44;
#X msg 303 120 22;
#X obj 420 12 inlet;
#X text 463 11 back on 6;
#X msg 25 84 127;
#X msg 106 84 0;
#X connect 0 0 3 0;
#X connect 1 0 4 0;
#X connect 2 0 15 0;
#X connect 3 0 25 0;
#X connect 3 1 20 0;
#X connect 4 0 24 0;
#X connect 4 1 21 0;
#X connect 6 0 5 1;
#X connect 8 0 7 1;
#X connect 11 0 5 2;
#X connect 12 0 7 2;
#X connect 14 0 13 2;
#X connect 15 0 8 0;
#X connect 15 1 6 0;
#X connect 15 2 16 0;
#X connect 16 0 13 1;
#X connect 20 0 13 0;
#X connect 21 0 13 0;
#X connect 22 0 20 0;
#X connect 24 0 5 0;
#X connect 24 0 7 0;
#X connect 25 0 7 0;
#X connect 25 0 5 0;
