#N canvas 474 629 515 280 12;
#X obj 12 14 inlet;
#X obj 119 14 inlet;
#X obj 217 14 loadbang;
#X obj 12 42 t b b;
#X obj 119 42 t b b;
#X obj 202 196 ctlout;
#X msg 249 86 33;
#X obj 70 196 ctlout;
#X msg 217 86 31;
#X text 202 215 delay send;
#X text 68 215 reverb send;
#X msg 119 86 127;
#X msg 12 86 0;
#X text 56 13 on;
#X text 162 13 off;
#X obj 241 157 r tr-pr-#;
#X obj 109 157 r tr-pr-#;
#X obj 323 196 ctlout;
#X text 323 215 delay send;
#X obj 362 157 r tr-pr-#;
#X obj 217 42 t b b b;
#X msg 342 86 13;
#X msg 329 117 20;
#X msg 296 117 31;
#X connect 0 0 3 0;
#X connect 1 0 4 0;
#X connect 2 0 20 0;
#X connect 3 0 12 0;
#X connect 3 1 23 0;
#X connect 4 0 11 0;
#X connect 4 1 22 0;
#X connect 6 0 5 1;
#X connect 8 0 7 1;
#X connect 11 0 5 0;
#X connect 11 0 7 0;
#X connect 12 0 7 0;
#X connect 12 0 5 0;
#X connect 15 0 5 2;
#X connect 16 0 7 2;
#X connect 19 0 17 2;
#X connect 20 0 8 0;
#X connect 20 1 6 0;
#X connect 20 2 21 0;
#X connect 21 0 17 1;
#X connect 22 0 17 0;
#X connect 23 0 17 0;
