#N canvas 474 629 616 338 12;
#X msg 12 79 0 40 0 40;
#X msg 98 79 24 23 0 0;
#X obj 12 130 ../../../ambika/envelopes;
#X obj 184 106 r amb-1-#;
#X msg 98 106 2;
#X obj 44 221 ../../../ambika/envelopes;
#X obj 216 197 r amb-1-#;
#X msg 44 170 2 60 60 64;
#X msg 129 170 0 53 21 52;
#X msg 130 197 3;
#X obj 12 14 inlet;
#X obj 119 14 inlet;
#X text 56 13 off;
#X text 172 13 on;
#X obj 217 14 loadbang;
#X obj 12 42 t b b;
#X obj 119 42 t b b;
#X obj 217 42 t b b;
#X connect 0 0 2 0;
#X connect 1 0 2 0;
#X connect 3 0 2 2;
#X connect 4 0 2 1;
#X connect 6 0 5 2;
#X connect 7 0 5 0;
#X connect 8 0 5 0;
#X connect 9 0 5 1;
#X connect 10 0 15 0;
#X connect 11 0 16 0;
#X connect 14 0 17 0;
#X connect 15 0 0 0;
#X connect 15 1 7 0;
#X connect 16 0 1 0;
#X connect 16 1 8 0;
#X connect 17 0 4 0;
#X connect 17 1 9 0;
