#N canvas 582 236 629 487 12;
#X obj 91 18 inlet;
#X obj 299 18 inlet;
#X obj 75 209 r beat-#;
#X obj 137 209 r amb-1-#;
#X obj 21 245 ../../../controller/rel-enc-xlate;
#X obj 91 75 t b b b b b b b b;
#X obj 299 75 t f f f f f f f f;
#X text 342 17 spigot;
#X text 136 17 arm/reset;
#X text 262 244 osc1 range;
#X msg 21 209 27 14;
#X obj 136 305 r beat-#;
#X obj 198 305 r amb-1-#;
#X obj 82 341 ../../../controller/rel-enc-xlate;
#X text 323 340 cutoff;
#X msg 82 305 27 74;
#X msg 270 305 57 57 127;
#X msg 209 209 32 32 95;
#X obj 21 179 t b b b;
#X obj 82 275 t b b b;
#X msg 280 209 2;
#X msg 349 305 2;
#X connect 0 0 5 0;
#X connect 1 0 6 0;
#X connect 2 0 4 2;
#X connect 3 0 4 3;
#X connect 5 0 18 0;
#X connect 5 1 19 0;
#X connect 6 0 4 0;
#X connect 6 1 13 0;
#X connect 10 0 4 1;
#X connect 11 0 13 2;
#X connect 12 0 13 3;
#X connect 15 0 13 1;
#X connect 16 0 13 4;
#X connect 17 0 4 4;
#X connect 18 0 10 0;
#X connect 18 1 17 0;
#X connect 18 2 20 0;
#X connect 19 0 15 0;
#X connect 19 1 16 0;
#X connect 19 2 21 0;
#X connect 20 0 4 8;
#X connect 21 0 13 8;
