#N canvas 558 197 874 665 12;
#X obj 91 18 inlet;
#X obj 299 18 inlet;
#X obj 75 209 r beat-#;
#X obj 137 209 r amb-1-#;
#X obj 21 245 ../../../controller/rel-enc-xlate;
#X obj 21 179 t b b;
#X obj 79 313 r beat-#;
#X obj 141 313 r amb-1-#;
#X obj 25 349 ../../../controller/rel-enc-xlate;
#X obj 25 283 t b b;
#X obj 81 438 r beat-#;
#X obj 143 438 r amb-1-#;
#X obj 27 474 ../../../controller/rel-enc-xlate;
#X obj 27 408 t b b;
#X obj 83 555 r beat-#;
#X obj 145 555 r amb-1-#;
#X obj 29 591 ../../../controller/rel-enc-xlate;
#X obj 29 525 t b b;
#X text 262 244 env2-a: 0-29;
#X text 265 348 env2-d: 40-71;
#X text 269 473 env2-s: 0-63;
#X text 269 590 env2-r: 40-42;
#X obj 516 209 r beat-#;
#X obj 578 209 r amb-1-#;
#X obj 462 245 ../../../controller/rel-enc-xlate;
#X obj 462 179 t b b;
#X obj 520 313 r beat-#;
#X obj 582 313 r amb-1-#;
#X obj 466 349 ../../../controller/rel-enc-xlate;
#X obj 466 283 t b b;
#X obj 522 438 r beat-#;
#X obj 584 438 r amb-1-#;
#X obj 468 474 ../../../controller/rel-enc-xlate;
#X obj 524 555 r beat-#;
#X obj 586 555 r amb-1-#;
#X obj 470 591 ../../../controller/rel-enc-xlate;
#X text 705 244 env3-a: 2-28;
#X text 706 348 env3-d: 60-69;
#X text 711 473 env3-s: 60-56;
#X text 713 590 env3-r: 64-50;
#X msg 729 555 1;
#X msg 658 555 64 50 64;
#X obj 470 525 t b b b;
#X obj 91 75 t b b b b b b b b;
#X msg 727 438 1;
#X obj 468 408 t b b b;
#X msg 654 313 60 60 69;
#X msg 650 209 2 2 28;
#X msg 217 555 40 40 42;
#X msg 215 438 0 0 63;
#X msg 213 313 40 40 71;
#X msg 209 209 0 0 29;
#X obj 299 75 t f f f f f f f f;
#X msg 21 209 31 81;
#X msg 25 313 31 83;
#X msg 27 438 31 78;
#X msg 29 555 31 80;
#X msg 656 438 60 56 60;
#X msg 462 209 31 89;
#X msg 466 313 31 91;
#X msg 468 438 31 86;
#X msg 470 555 31 88;
#X text 136 17 arm;
#X text 342 17 spigot;
#X connect 0 0 43 0;
#X connect 1 0 52 0;
#X connect 2 0 4 2;
#X connect 3 0 4 3;
#X connect 5 0 53 0;
#X connect 5 1 51 0;
#X connect 6 0 8 2;
#X connect 7 0 8 3;
#X connect 9 0 54 0;
#X connect 9 1 50 0;
#X connect 10 0 12 2;
#X connect 11 0 12 3;
#X connect 13 0 55 0;
#X connect 13 1 49 0;
#X connect 14 0 16 2;
#X connect 15 0 16 3;
#X connect 17 0 56 0;
#X connect 17 1 48 0;
#X connect 22 0 24 2;
#X connect 23 0 24 3;
#X connect 25 0 58 0;
#X connect 25 1 47 0;
#X connect 26 0 28 2;
#X connect 27 0 28 3;
#X connect 29 0 59 0;
#X connect 29 1 46 0;
#X connect 30 0 32 2;
#X connect 31 0 32 3;
#X connect 33 0 35 2;
#X connect 34 0 35 3;
#X connect 40 0 35 8;
#X connect 41 0 35 4;
#X connect 42 0 61 0;
#X connect 42 1 41 0;
#X connect 42 2 40 0;
#X connect 43 0 5 0;
#X connect 43 1 9 0;
#X connect 43 2 13 0;
#X connect 43 3 17 0;
#X connect 43 4 25 0;
#X connect 43 5 29 0;
#X connect 43 6 45 0;
#X connect 43 7 42 0;
#X connect 44 0 32 8;
#X connect 45 0 60 0;
#X connect 45 1 57 0;
#X connect 45 2 44 0;
#X connect 46 0 28 4;
#X connect 47 0 24 4;
#X connect 48 0 16 4;
#X connect 49 0 12 4;
#X connect 50 0 8 4;
#X connect 51 0 4 4;
#X connect 52 0 4 0;
#X connect 52 1 8 0;
#X connect 52 2 12 0;
#X connect 52 3 16 0;
#X connect 52 4 24 0;
#X connect 52 5 28 0;
#X connect 52 6 32 0;
#X connect 52 7 35 0;
#X connect 53 0 4 1;
#X connect 54 0 8 1;
#X connect 55 0 12 1;
#X connect 56 0 16 1;
#X connect 57 0 32 4;
#X connect 58 0 24 1;
#X connect 59 0 28 1;
#X connect 60 0 32 1;
#X connect 61 0 35 1;
