#N canvas 488 166 1049 641 12;
#X obj 25 16 inlet;
#X obj 25 47 ../../common/step-seq-sel-3 \$0;
#X obj 294 383 ../../kp3/program;
#X obj 431 383 ../../kp3/pad-on;
#X msg 294 352 b 0 \, p 118;
#X obj 126 383 ../../kp3/touch-hi-res;
#X obj 569 383 ../../kp3/pad-off;
#X obj 25 383 ../../kp3/vol;
#X msg 25 352 0;
#X obj 25 106 t b b b b b b b;
#X msg 443 178 0;
#X msg 406 178 1;
#X obj 157 74 t b b b;
#X obj 76 74 t b b b;
#X obj 394 209 spigot;
#X obj 394 243 sel 0;
#X msg 126 352 100 110;
#X obj 432 16 r tr-s1-#;
#X obj 414 47 ==;
#X obj 394 74 spigot 0;
#X obj 375 16 notein;
#X obj 580 421 print listen;
#X obj 44 488 print arm;
#X obj 125 424 print play;
#X obj 274 425 print stop;
#X obj 420 424 print pause;
#X connect 0 0 1 0;
#X connect 1 0 9 0;
#X connect 1 0 22 0;
#X connect 1 1 13 0;
#X connect 1 1 23 0;
#X connect 1 2 12 0;
#X connect 1 2 24 0;
#X connect 1 3 25 0;
#X connect 1 4 21 0;
#X connect 4 0 2 0;
#X connect 8 0 7 0;
#X connect 9 0 8 0;
#X connect 9 2 6 0;
#X connect 9 3 16 0;
#X connect 9 4 4 0;
#X connect 10 0 14 1;
#X connect 11 0 14 1;
#X connect 12 0 6 0;
#X connect 12 1 8 0;
#X connect 12 2 10 0;
#X connect 13 0 3 0;
#X connect 13 2 11 0;
#X connect 14 0 15 0;
#X connect 15 0 6 0;
#X connect 15 1 3 0;
#X connect 16 0 5 0;
#X connect 17 0 18 1;
#X connect 18 0 19 1;
#X connect 19 0 14 0;
#X connect 20 1 19 0;
#X connect 20 2 18 0;
