#N canvas 670 416 847 316 12;
#X obj 31 18 inlet;
#X obj 31 67 ../../../common/step-seq-sel-3 \$0;
#X obj 259 104 sel 1 0;
#X obj 259 261 s ctrl-1b-2;
#X obj 417 18 r enc-r-3;
#X obj 417 96 spigot 0;
#X msg 417 162 kp3 vol \$1;
#X msg 355 223 tracks listen;
#X msg 477 223 ea listen;
#X obj 594 76 ctlin;
#X obj 282 134 t b b b;
#X msg 173 223 kp3 part 2;
#X msg 259 223 kp3 part 3;
#X connect 0 0 1 0;
#X connect 1 4 5 1;
#X connect 1 4 2 0;
#X connect 2 0 11 0;
#X connect 2 1 10 0;
#X connect 4 0 5 0;
#X connect 5 0 6 0;
#X connect 6 0 3 0;
#X connect 7 0 3 0;
#X connect 8 0 3 0;
#X connect 10 0 12 0;
#X connect 10 1 7 0;
#X connect 10 2 8 0;
#X connect 11 0 3 0;
#X connect 12 0 3 0;
