#N canvas 289 291 1276 623 12;
#X obj 25 16 inlet;
#X msg 294 352 b 0 \, p 118;
#X msg 25 352 0;
#X obj 25 106 t b b b b b b b;
#X msg 443 121 0;
#X msg 406 121 1;
#X obj 82 77 t b b b;
#X obj 394 152 spigot;
#X obj 394 324 sel 0;
#X obj 432 16 r tr-s1-#;
#X obj 414 47 ==;
#X obj 394 74 spigot 0;
#X obj 375 16 notein;
#X msg 126 352 100 \$1;
#X obj 327 74 spigot 0;
#X obj 168 324 + 32;
#X obj 25 47 ../../../common/step-seq-sel-3 \$0;
#X obj 25 402 ../../../kp3/vol;
#X obj 126 428 ../../../kp3/touch-hi-res;
#X obj 426 428 ../../../kp3/pad-on;
#X obj 294 402 ../../../kp3/program;
#X obj 566 402 ../../../kp3/pad-off;
#X obj 638 47 ==;
#X obj 618 74 spigot 0;
#X obj 599 16 notein;
#X obj 551 74 spigot 0;
#X obj 656 16 r apc-key-#;
#X msg 670 121 0;
#X msg 630 121 1;
#X obj 618 152 spigot;
#X obj 157 74 t b b b b;
#X obj 618 252 spigot 0;
#X obj 551 252 spigot 0;
#X obj 394 252 spigot 0;
#X obj 327 252 spigot 0;
#X obj 825 188 == 0;
#X msg 63 352 80;
#X obj 126 324 - 28;
#X obj 820 15 r enc-1;
#X obj 875 215 sel 0 1;
#X obj 1032 15 r tr-pr-#;
#X msg 816 352 12;
#X obj 755 428 ../../../tracks/cc;
#X obj 820 113 t f f f f f;
#X obj 755 352 * 20;
#X obj 820 64 spigot 0;
#X connect 0 0 16 0;
#X connect 1 0 20 0;
#X connect 2 0 17 0;
#X connect 3 0 2 0;
#X connect 3 2 21 0;
#X connect 3 4 1 0;
#X connect 3 6 41 0;
#X connect 4 0 7 1;
#X connect 5 0 7 1;
#X connect 6 0 36 0;
#X connect 6 1 28 0;
#X connect 6 2 5 0;
#X connect 7 0 33 0;
#X connect 8 0 21 0;
#X connect 8 1 19 0;
#X connect 9 0 10 1;
#X connect 10 0 11 1;
#X connect 10 0 14 1;
#X connect 11 0 7 0;
#X connect 12 0 14 0;
#X connect 12 1 11 0;
#X connect 12 2 10 0;
#X connect 13 0 18 0;
#X connect 14 0 34 0;
#X connect 15 0 13 0;
#X connect 16 0 3 0;
#X connect 16 1 6 0;
#X connect 16 2 30 0;
#X connect 16 4 32 1;
#X connect 16 4 31 1;
#X connect 22 0 23 1;
#X connect 22 0 25 1;
#X connect 23 0 29 0;
#X connect 24 0 25 0;
#X connect 24 1 23 0;
#X connect 24 2 22 0;
#X connect 25 0 32 0;
#X connect 26 0 22 1;
#X connect 27 0 29 1;
#X connect 28 0 29 1;
#X connect 29 0 31 0;
#X connect 30 0 21 0;
#X connect 30 1 2 0;
#X connect 30 2 4 0;
#X connect 30 3 27 0;
#X connect 31 0 8 0;
#X connect 32 0 15 0;
#X connect 33 0 8 0;
#X connect 34 0 37 0;
#X connect 35 0 31 1;
#X connect 35 0 32 1;
#X connect 35 0 44 0;
#X connect 36 0 17 0;
#X connect 37 0 13 0;
#X connect 38 0 45 0;
#X connect 39 0 21 0;
#X connect 40 0 42 2;
#X connect 41 0 42 1;
#X connect 43 0 34 1;
#X connect 43 1 33 1;
#X connect 43 2 35 0;
#X connect 43 3 39 0;
#X connect 44 0 42 0;
#X connect 45 0 43 0;
