#N canvas 289 291 1276 623 12;
#X obj 25 16 inlet;
#X obj 25 45 ../../../common/step-seq-sel-3 \$0;
#X obj 160 158 ../../../kp3/program;
#X msg 25 131 127;
#X obj 25 158 ../../../kp3/level;
#X msg 160 131 b 0 \, p 78;
#X obj 446 158 ../../../kp3/pad-on;
#X obj 310 158 ../../../kp3/touch;
#X obj 589 158 ../../../kp3/pad-off;
#X obj 25 74 t b b;
#X obj 82 73 t b b;
#X msg 310 131 2.5 8;
#X connect 0 0 1 0;
#X connect 1 0 9 0;
#X connect 1 1 10 0;
#X connect 1 2 8 0;
#X connect 3 0 4 0;
#X connect 5 0 2 0;
#X connect 9 0 3 0;
#X connect 9 1 5 0;
#X connect 10 0 11 0;
#X connect 10 1 6 0;
#X connect 11 0 7 0;
