#N canvas 336 349 1276 623 12;
#X obj 25 16 inlet;
#X obj 25 91 ../../../common/step-seq-sel-3 \$0;
#X obj 160 399 ../../../kp3/program;
#X msg 25 372 127;
#X obj 25 399 ../../../kp3/level;
#X msg 160 372 b 0 \, p 78;
#X obj 446 399 ../../../kp3/pad-on;
#X obj 310 399 ../../../kp3/touch;
#X obj 589 399 ../../../kp3/pad-off;
#X obj 25 120 t b b;
#X obj 82 119 t b b;
#X msg 310 372 2.5 8;
#X obj 345 16 r ctrl-1b-2;
#X obj 345 47 route kp3;
#X obj 1087 16 r notes;
#X obj 1087 320 spigot 0;
#X msg 930 372 0;
#X obj 930 399 ../../../kp3/fx-depth;
#X msg 1140 257 1;
#X msg 1171 257 0;
#X obj 738 399 ../../../kp3/touch-hi-res;
#X msg 173 344 b 0 \, p 118;
#X obj 1087 399 ../../../kp3/touch-y;
#X obj 911 198 abs;
#X obj 911 256 int;
#X obj 911 288 change;
#X obj 1069 295 f;
#X obj 1087 139 stripnote;
#X obj 771 132 route part vol;
#X obj 771 183 t b b b b b b b b b;
#X obj 911 168 - 127;
#X obj 1087 352 + 40;
#X msg 738 372 98 103;
#X obj 417 129 clip 0 63;
#X obj 911 227 clip 0 63;
#X obj 771 158 sel 2 3;
#X connect 0 0 1 0;
#X connect 1 0 9 0;
#X connect 1 1 10 0;
#X connect 1 2 8 0;
#X connect 1 5 28 0;
#X connect 3 0 4 0;
#X connect 5 0 2 0;
#X connect 9 0 3 0;
#X connect 9 1 5 0;
#X connect 10 0 11 0;
#X connect 10 1 6 0;
#X connect 11 0 7 0;
#X connect 12 0 13 0;
#X connect 13 0 1 0;
#X connect 14 0 27 0;
#X connect 15 0 31 0;
#X connect 16 0 17 0;
#X connect 18 0 15 1;
#X connect 19 0 15 1;
#X connect 21 0 2 0;
#X connect 23 0 34 0;
#X connect 24 0 25 0;
#X connect 25 0 17 0;
#X connect 26 0 15 0;
#X connect 27 0 26 1;
#X connect 28 0 35 0;
#X connect 28 1 30 0;
#X connect 29 0 26 0;
#X connect 29 1 18 0;
#X connect 29 2 6 0;
#X connect 29 3 32 0;
#X connect 29 4 16 0;
#X connect 29 5 21 0;
#X connect 29 6 8 0;
#X connect 30 0 23 0;
#X connect 31 0 22 0;
#X connect 32 0 20 0;
#X connect 34 0 24 0;
#X connect 35 0 29 0;
#X connect 35 1 8 0;
