#N canvas 289 291 1276 623 12;
#X obj 25 16 inlet;
#X obj 25 47 ../../../common/step-seq-sel-3 \$0;
#X obj 25 75 t b b;
#X obj 200 158 ../../../kp3/program;
#X msg 200 114 b 0 \, p 85;
#X msg 25 114 127;
#X obj 25 158 ../../../kp3/level;
#X connect 0 0 1 0;
#X connect 1 0 2 0;
#X connect 2 0 5 0;
#X connect 2 1 4 0;
#X connect 4 0 3 0;
#X connect 5 0 6 0;
