#N canvas 670 416 847 316 12;
#X obj 31 18 inlet;
#X obj 31 50 ../../../common/step-seq-sel-3 \$0;
#X obj 118 135 ../../../common/note-in;
#X obj 118 18 r tr-m2-#;
#X obj 170 195 pack 0 0;
#X obj 170 225 s 1b-base-1;
#X msg 31 85 0;
#X obj 144 165 spigot 0;
#X connect 0 0 1 0;
#X connect 1 0 6 0;
#X connect 1 4 7 1;
#X connect 2 0 7 0;
#X connect 2 1 4 1;
#X connect 3 0 2 0;
#X connect 4 0 5 0;
#X connect 6 0 7 1;
#X connect 7 0 4 0;
