#N canvas 116 253 531 595 12;
#X obj 31 18 inlet;
#X obj 31 67 ../../../common/step-seq-sel-3 \$0;
#X obj 259 124 s 1b-route-tracks;
#X msg 259 95 twinkle \$1;
#X connect 0 0 1 0;
#X connect 1 4 3 0;
#X connect 3 0 2 0;
