#N canvas 210 301 690 489 12;
#X obj 25 16 inlet;
#X obj 575 430 noteout;
#X obj 531 264 unpack 0 0;
#X obj 531 384 spigot;
#X msg 25 90 0;
#X obj 25 40 ../../../common/step-seq-sel-3 \$0;
#X obj 253 65 t f f;
#X obj 25 65 t b b b b b b b;
#X obj 348 16 r tr-d-#;
#X msg 531 160 65 127 \, 65 0;
#X obj 59 430 ../../../tracks/cc;
#X msg 95 384 50;
#X msg 59 384 44;
#X obj 59 329 t b b;
#X obj 531 16 r launch;
#X obj 531 126 select 1 2 3 4;
#X connect 0 0 5 0;
#X connect 2 0 3 0;
#X connect 2 1 1 1;
#X connect 3 0 1 0;
#X connect 4 0 3 1;
#X connect 5 0 7 0;
#X connect 5 4 6 0;
#X connect 6 0 3 1;
#X connect 7 0 4 0;
#X connect 7 2 13 0;
#X connect 8 0 1 2;
#X connect 8 0 10 2;
#X connect 9 0 2 0;
#X connect 11 0 10 1;
#X connect 12 0 10 0;
#X connect 13 0 12 0;
#X connect 13 1 11 0;
#X connect 14 0 15 0;
#X connect 15 0 9 0;
