#N canvas 250 144 1504 825 12;
#X obj 25 16 inlet;
#X obj 635 490 noteout;
#X obj 635 39 unpack 0 0;
#X obj 635 16 r notes;
#X obj 635 325 spigot;
#X msg 25 115 0;
#X obj 25 40 ../../../common/step-seq-sel-3 \$0;
#X obj 503 16 r tr-s1-#;
#X obj 256 16 r tr-d-#;
#X obj 40 490 ../../../tracks/cc;
#X msg 72 438 13;
#X msg 40 438 20;
#X text 46 390 pulse vol;
#X obj 40 412 t b b;
#X obj 133 612 ../../../tracks/cc;
#X obj 125 534 t b b;
#X msg 157 560 12;
#X text 131 512 kick vol;
#X obj 201 534 t b b;
#X text 207 512 dist;
#X msg 233 560 16;
#X obj 163 16 r tr-pr-#;
#X obj 274 534 t b b;
#X text 280 512 eq;
#X msg 274 560 40;
#X msg 306 560 17;
#X obj 468 490 ../../../tracks/pc;
#X msg 468 438 6;
#X obj 279 491 ../../../tracks/cc;
#X msg 311 439 12;
#X obj 402 16 r tr-pr-#;
#X text 292 391 syn1 vol;
#X obj 834 158 select 0 1 2 3 4;
#X obj 834 132 t f b;
#X obj 834 109 spigot 0;
#X msg 201 560 60;
#X obj 279 413 t b b b;
#X obj 635 438 + 0;
#X obj 413 612 ../../../tracks/cc;
#X msg 413 560 127;
#X msg 445 560 111;
#X obj 578 612 ../../../tracks/cc;
#X msg 545 560 0;
#X obj 491 517 t b b b b;
#X text 379 535 syn1 delay;
#X text 576 535 syn1 reverb;
#X msg 578 560 100;
#X msg 610 560 88;
#X msg 279 439 15;
#X obj 551 258 t b b b b;
#X obj 758 612 ../../../tracks/cc;
#X obj 923 612 ../../../tracks/cc;
#X text 752 535 syn1 knob 1;
#X msg 790 560 80;
#X msg 758 560 17;
#X msg 923 560 90;
#X obj 876 502 t b b b b;
#X obj 834 16 r enc-1;
#X msg 955 560 82;
#X msg 380 560 40;
#X text 918 535 syn1 knob 3;
#X msg 866 187 0;
#X obj 1375 612 noteout;
#X obj 1375 254 unpack 0 0;
#X obj 1375 16 r notes;
#X obj 1375 550 spigot;
#X msg 1392 584 0;
#X msg 1414 522 1;
#X msg 746 245 1;
#X msg 125 560 45;
#X obj 1375 473 spigot;
#X obj 635 392 spigot;
#X obj 25 65 t b b b b b b b b b b b b b b b;
#X obj 1099 610 ../../../common/panic;
#X obj 1099 560 sel 0;
#X obj 253 65 t f f f f f f;
#X obj 734 490 ../../../pulse/pc;
#X msg 734 438 414;
#X msg 246 439 8;
#X obj 1058 699 ../../../tracks/cc;
#X obj 1060 644 t b b;
#X text 1125 671 syn2 vol;
#X msg 1092 672 14;
#X msg 1060 672 78;
#X obj 910 203 t b b b b;
#X obj 331 16 r cnt-64;
#X obj 329 193 spigot;
#X msg 368 166 1;
#X obj 868 304 t b b b b;
#X obj 352 322 == -1;
#X obj 397 322 == -1;
#X obj 329 218 t f f f;
#X obj 378 247 f;
#X msg 352 439 0;
#X msg 397 442 7;
#X obj 426 268 + 16;
#X obj 917 16 r 1b-route-tracks;
#X obj 917 48 route twinkle;
#X obj 917 76 sel 1 0;
#X msg 977 136 -1;
#X obj 352 345 sel 1;
#X obj 397 346 sel 1;
#X obj 616 721 ../../../tracks/cc;
#X msg 616 687 0;
#X msg 677 685 31;
#X obj 627 645 t b b;
#X obj 725 16 r ctrl-1b-2;
#X obj 725 39 route tracks;
#X obj 940 103 t b b b;
#X msg 355 127 0;
#X obj 426 295 mod 64;
#X obj 1216 16 r 1b-base-1;
#X obj 1105 16 r tr-s2-#;
#X obj 835 709 noteout;
#X msg 882 679 11;
#X msg 846 661 127;
#X msg 898 652 0;
#X msg 804 669 57;
#X connect 0 0 6 0;
#X connect 2 0 4 0;
#X connect 2 1 1 1;
#X connect 3 0 2 0;
#X connect 4 0 71 0;
#X connect 5 0 4 1;
#X connect 5 0 65 1;
#X connect 6 0 72 0;
#X connect 6 2 109 0;
#X connect 6 4 75 0;
#X connect 7 0 1 2;
#X connect 7 0 26 1;
#X connect 7 0 51 2;
#X connect 7 0 50 2;
#X connect 8 0 14 2;
#X connect 10 0 9 1;
#X connect 11 0 9 0;
#X connect 13 0 11 0;
#X connect 13 1 10 0;
#X connect 15 0 69 0;
#X connect 15 1 16 0;
#X connect 16 0 14 1;
#X connect 18 0 35 0;
#X connect 18 1 20 0;
#X connect 20 0 14 1;
#X connect 21 0 9 2;
#X connect 22 0 24 0;
#X connect 22 1 25 0;
#X connect 24 0 14 0;
#X connect 25 0 14 1;
#X connect 27 0 26 0;
#X connect 29 0 28 1;
#X connect 30 0 28 2;
#X connect 30 0 38 2;
#X connect 30 0 41 2;
#X connect 30 0 102 2;
#X connect 32 0 48 0;
#X connect 32 1 68 0;
#X connect 32 2 49 0;
#X connect 32 3 88 0;
#X connect 32 4 84 0;
#X connect 33 0 32 0;
#X connect 33 1 61 0;
#X connect 34 0 33 0;
#X connect 35 0 14 0;
#X connect 36 0 48 0;
#X connect 36 1 29 0;
#X connect 37 0 1 0;
#X connect 39 0 38 0;
#X connect 40 0 38 1;
#X connect 42 0 41 0;
#X connect 43 0 39 0;
#X connect 43 1 40 0;
#X connect 43 2 46 0;
#X connect 43 3 47 0;
#X connect 46 0 41 0;
#X connect 47 0 41 1;
#X connect 48 0 28 0;
#X connect 49 0 78 0;
#X connect 49 1 59 0;
#X connect 49 2 42 0;
#X connect 53 0 50 1;
#X connect 54 0 50 0;
#X connect 55 0 51 0;
#X connect 56 0 54 0;
#X connect 56 1 53 0;
#X connect 56 2 55 0;
#X connect 56 3 58 0;
#X connect 57 0 34 0;
#X connect 58 0 51 1;
#X connect 59 0 38 0;
#X connect 61 0 65 1;
#X connect 61 0 71 1;
#X connect 61 0 86 1;
#X connect 63 0 70 0;
#X connect 63 1 62 1;
#X connect 64 0 63 0;
#X connect 65 0 62 0;
#X connect 66 0 62 1;
#X connect 67 0 65 1;
#X connect 68 0 71 1;
#X connect 69 0 14 0;
#X connect 70 0 65 0;
#X connect 71 0 37 0;
#X connect 72 0 5 0;
#X connect 72 1 13 0;
#X connect 72 2 15 0;
#X connect 72 3 18 0;
#X connect 72 4 22 0;
#X connect 72 5 36 0;
#X connect 72 6 43 0;
#X connect 72 7 27 0;
#X connect 72 8 77 0;
#X connect 72 12 61 0;
#X connect 72 13 66 0;
#X connect 72 14 68 0;
#X connect 74 0 73 0;
#X connect 75 1 4 1;
#X connect 75 2 34 1;
#X connect 75 4 70 1;
#X connect 75 5 74 0;
#X connect 77 0 76 0;
#X connect 78 0 28 0;
#X connect 80 0 83 0;
#X connect 80 1 82 0;
#X connect 82 0 79 1;
#X connect 83 0 79 0;
#X connect 84 0 87 0;
#X connect 84 1 67 0;
#X connect 84 2 105 0;
#X connect 84 3 80 0;
#X connect 85 0 86 0;
#X connect 86 0 91 0;
#X connect 87 0 86 1;
#X connect 88 0 78 0;
#X connect 88 1 56 0;
#X connect 89 0 100 0;
#X connect 90 0 101 0;
#X connect 91 0 89 0;
#X connect 91 1 90 0;
#X connect 91 2 92 1;
#X connect 92 0 95 0;
#X connect 92 0 89 1;
#X connect 93 0 28 0;
#X connect 94 0 28 0;
#X connect 95 0 110 0;
#X connect 96 0 97 0;
#X connect 97 0 98 0;
#X connect 98 0 93 0;
#X connect 98 0 92 0;
#X connect 98 1 108 0;
#X connect 99 0 89 1;
#X connect 99 0 90 1;
#X connect 100 0 93 0;
#X connect 101 0 94 0;
#X connect 103 0 102 0;
#X connect 104 0 102 1;
#X connect 105 0 103 0;
#X connect 105 1 104 0;
#X connect 106 0 107 0;
#X connect 107 0 6 0;
#X connect 108 0 94 0;
#X connect 108 1 99 0;
#X connect 108 2 87 0;
#X connect 109 0 86 1;
#X connect 110 0 90 1;
#X connect 111 0 63 0;
#X connect 112 0 73 1;
#X connect 112 0 79 2;
#X connect 112 0 62 2;
#X connect 114 0 113 2;
#X connect 115 0 113 1;
#X connect 116 0 113 1;
#X connect 117 0 113 0;
