#N canvas 620 148 671 426 12;
#X obj 25 16 inlet;
#X obj 285 356 noteout;
#X obj 285 44 unpack 0 0;
#X obj 285 16 r notes;
#X obj 285 243 spigot;
#X msg 25 115 0;
#X obj 25 44 ../../../common/step-seq-sel-3 \$0;
#X obj 581 16 r tr-pr-#;
#X msg 519 325 12;
#X obj 458 243 spigot;
#X msg 466 208 0;
#X msg 502 208 1;
#X obj 515 163 t b b;
#X obj 458 356 ../../../tracks/cc;
#X obj 458 278 tgl 15 0 empty empty empty 17 7 0 10 -262144 -1 -1 0
1;
#X obj 458 16 r tick-24;
#X obj 466 163 t b b;
#X obj 458 325 * 20;
#X obj 25 79 t b b b b;
#X obj 375 16 r tr-s1-#;
#X connect 0 0 6 0;
#X connect 2 0 4 0;
#X connect 2 1 1 1;
#X connect 3 0 2 0;
#X connect 4 0 1 0;
#X connect 5 0 4 1;
#X connect 6 0 18 0;
#X connect 6 1 12 0;
#X connect 6 2 10 0;
#X connect 6 4 4 1;
#X connect 7 0 13 2;
#X connect 8 0 13 1;
#X connect 9 0 14 0;
#X connect 10 0 9 1;
#X connect 11 0 9 1;
#X connect 12 1 11 0;
#X connect 14 0 17 0;
#X connect 15 0 9 0;
#X connect 16 0 10 0;
#X connect 16 1 8 0;
#X connect 17 0 13 0;
#X connect 18 0 5 0;
#X connect 18 2 16 0;
#X connect 19 0 1 2;
