#N canvas 136 138 1441 685 12;
#X obj 25 16 inlet;
#X obj 635 490 noteout;
#X obj 635 39 unpack 0 0;
#X obj 635 16 r notes;
#X obj 635 375 spigot;
#X msg 25 115 0;
#X obj 25 40 ../../../common/step-seq-sel-3 \$0;
#X obj 1303 16 r tr-pr-#;
#X msg 1241 438 12;
#X obj 1180 376 spigot;
#X msg 1188 351 0;
#X msg 1224 351 1;
#X obj 1237 306 t b b;
#X obj 1180 490 ../../../tracks/cc;
#X obj 1180 407 tgl 15 0 empty empty empty 17 7 0 10 -262144 -1 -1
0 1;
#X obj 1180 16 r tick-24;
#X obj 1188 306 t b b;
#X obj 1180 438 * 20;
#X obj 503 16 r tr-s1-#;
#X msg 1137 158 0;
#X obj 1180 240 spigot;
#X msg 1188 211 1;
#X obj 1016 158 select 0 1 2 3 4;
#X obj 256 16 r tr-d-#;
#X obj 42 490 ../../../tracks/cc;
#X msg 74 438 13;
#X msg 42 438 20;
#X text 48 390 pulse vol;
#X obj 42 412 t b b;
#X obj 133 612 ../../../tracks/cc;
#X obj 125 534 t b b;
#X msg 157 560 12;
#X text 131 512 kick vol;
#X obj 201 534 t b b;
#X text 207 512 dist;
#X msg 233 560 16;
#X obj 165 16 r tr-pr-#;
#X obj 274 534 t b b;
#X text 280 512 eq;
#X msg 274 560 40;
#X msg 306 560 17;
#X obj 1016 132 t f b;
#X obj 1016 16 r enc-2;
#X obj 468 490 ../../../tracks/pc;
#X msg 468 438 6;
#X obj 279 490 ../../../tracks/cc;
#X msg 311 438 12;
#X obj 402 16 r tr-pr-#;
#X text 292 390 syn1 vol;
#X obj 834 158 select 0 1 2 3 4;
#X obj 834 132 t f b;
#X obj 253 65 t f f f;
#X obj 1016 109 spigot 0;
#X obj 834 109 spigot 0;
#X obj 635 432 + 36;
#X msg 660 405 0;
#X obj 735 15 r cnt-16;
#X obj 751 492 ../../../tracks/cc;
#X obj 735 405 sel 12 15;
#X obj 25 65 t b b b b b b b b b;
#X msg 794 432 91;
#X msg 728 432 127;
#X msg 761 432 30;
#X obj 735 375 spigot 0;
#X msg 125 560 85;
#X msg 201 560 60;
#X msg 279 438 30;
#X msg 246 438 20;
#X msg 788 348 1;
#X obj 712 312 t b b b;
#X obj 279 412 t b b b;
#X obj 834 16 r enc-2;
#X connect 0 0 6 0;
#X connect 2 0 4 0;
#X connect 2 1 1 1;
#X connect 3 0 2 0;
#X connect 4 0 54 0;
#X connect 5 0 4 1;
#X connect 6 0 59 0;
#X connect 6 1 12 0;
#X connect 6 2 10 0;
#X connect 6 4 51 0;
#X connect 7 0 13 2;
#X connect 8 0 13 1;
#X connect 9 0 14 0;
#X connect 10 0 9 1;
#X connect 11 0 9 1;
#X connect 12 1 11 0;
#X connect 14 0 17 0;
#X connect 15 0 20 0;
#X connect 16 0 10 0;
#X connect 16 1 8 0;
#X connect 17 0 13 0;
#X connect 18 0 1 2;
#X connect 18 0 43 1;
#X connect 18 0 57 2;
#X connect 19 0 20 1;
#X connect 20 0 9 0;
#X connect 21 0 20 1;
#X connect 22 2 21 0;
#X connect 23 0 29 2;
#X connect 25 0 24 1;
#X connect 26 0 24 0;
#X connect 28 0 26 0;
#X connect 28 1 25 0;
#X connect 30 0 64 0;
#X connect 30 1 31 0;
#X connect 31 0 29 1;
#X connect 33 0 65 0;
#X connect 33 1 35 0;
#X connect 35 0 29 1;
#X connect 36 0 24 2;
#X connect 37 0 39 0;
#X connect 37 1 40 0;
#X connect 39 0 29 0;
#X connect 40 0 29 1;
#X connect 41 0 22 0;
#X connect 41 1 19 0;
#X connect 44 0 43 0;
#X connect 46 0 45 1;
#X connect 47 0 45 2;
#X connect 49 1 69 0;
#X connect 50 0 49 0;
#X connect 51 0 52 1;
#X connect 51 1 4 1;
#X connect 51 2 53 1;
#X connect 52 0 41 0;
#X connect 53 0 50 0;
#X connect 54 0 1 0;
#X connect 55 0 54 1;
#X connect 56 0 63 0;
#X connect 58 0 61 0;
#X connect 58 1 62 0;
#X connect 59 0 5 0;
#X connect 59 1 28 0;
#X connect 59 2 30 0;
#X connect 59 3 33 0;
#X connect 59 4 37 0;
#X connect 59 5 70 0;
#X connect 59 6 44 0;
#X connect 59 7 16 0;
#X connect 59 8 60 0;
#X connect 60 0 57 1;
#X connect 61 0 57 0;
#X connect 62 0 57 0;
#X connect 63 0 58 0;
#X connect 64 0 29 0;
#X connect 65 0 29 0;
#X connect 66 0 45 0;
#X connect 67 0 45 0;
#X connect 68 0 63 1;
#X connect 69 0 67 0;
#X connect 69 1 55 0;
#X connect 69 2 68 0;
#X connect 70 0 66 0;
#X connect 70 1 46 0;
#X connect 71 0 53 0;
