#N canvas 136 138 1441 685 12;
#X obj 25 16 inlet;
#X obj 635 490 noteout;
#X obj 635 39 unpack 0 0;
#X obj 635 16 r notes;
#X obj 631 325 spigot;
#X msg 25 115 0;
#X obj 25 40 ../../../common/step-seq-sel-3 \$0;
#X obj 1303 16 r tr-pr-#;
#X msg 1241 438 12;
#X obj 1180 376 spigot;
#X msg 1188 351 0;
#X msg 1224 351 1;
#X obj 1237 306 t b b;
#X obj 1180 490 ../../../tracks/cc;
#X obj 1180 407 tgl 15 0 empty empty empty 17 7 0 10 -262144 -1 -1
0 1;
#X obj 1180 16 r tick-24;
#X obj 1188 306 t b b;
#X obj 1180 438 * 20;
#X obj 503 16 r tr-s1-#;
#X msg 1137 158 0;
#X obj 1180 240 spigot;
#X msg 1188 211 1;
#X obj 1016 158 select 0 1 2 3 4;
#X obj 256 16 r tr-d-#;
#X obj 40 490 ../../../tracks/cc;
#X msg 72 438 13;
#X msg 40 438 20;
#X text 46 390 pulse vol;
#X obj 40 412 t b b;
#X obj 133 612 ../../../tracks/cc;
#X obj 125 534 t b b;
#X msg 157 560 12;
#X text 131 512 kick vol;
#X obj 201 534 t b b;
#X text 207 512 dist;
#X msg 233 560 16;
#X obj 163 16 r tr-pr-#;
#X obj 274 534 t b b;
#X text 280 512 eq;
#X msg 274 560 40;
#X msg 306 560 17;
#X obj 1016 132 t f b;
#X obj 468 490 ../../../tracks/pc;
#X msg 468 438 6;
#X obj 279 490 ../../../tracks/cc;
#X msg 311 438 12;
#X obj 402 16 r tr-pr-#;
#X text 292 390 syn1 vol;
#X obj 834 158 select 0 1 2 3 4;
#X obj 834 132 t f b;
#X obj 1016 109 spigot 0;
#X obj 834 109 spigot 0;
#X obj 735 15 r cnt-16;
#X obj 751 490 ../../../tracks/cc;
#X obj 735 412 sel 12 15;
#X msg 794 438 91;
#X msg 728 438 127;
#X msg 761 438 30;
#X obj 735 375 spigot 0;
#X msg 201 560 60;
#X msg 788 348 1;
#X obj 279 412 t b b b;
#X obj 635 438 + 0;
#X obj 413 612 ../../../tracks/cc;
#X msg 413 560 127;
#X msg 445 560 111;
#X obj 578 612 ../../../tracks/cc;
#X msg 545 560 0;
#X obj 491 517 t b b b b;
#X text 379 535 syn1 delay;
#X text 576 535 syn1 reverb;
#X msg 578 560 100;
#X msg 610 560 88;
#X msg 279 438 15;
#X obj 709 325 t b b b b;
#X obj 758 612 ../../../tracks/cc;
#X obj 923 612 ../../../tracks/cc;
#X text 752 535 syn1 knob 1;
#X msg 790 560 80;
#X msg 758 560 17;
#X msg 923 560 90;
#X obj 877 517 t b b b b;
#X obj 834 16 r enc-1;
#X msg 955 560 82;
#X msg 380 560 40;
#X text 918 535 syn1 knob 3;
#X obj 969 490 ../../../common/nrpn;
#X obj 1106 16 r tr-s2-#;
#X msg 1037 438 0 3;
#X msg 866 187 0;
#X msg 969 438 50;
#X obj 1375 612 noteout;
#X obj 1375 254 unpack 0 0;
#X obj 1375 16 r notes;
#X obj 1375 550 spigot;
#X msg 1392 584 0;
#X msg 1414 522 1;
#X msg 716 239 1;
#X obj 899 203 t b b;
#X msg 125 560 45;
#X obj 253 65 t f f f f f;
#X msg 246 438 10;
#X obj 1375 473 spigot;
#X obj 644 392 spigot;
#X obj 25 65 t b b b b b b b b b b b b b b b;
#X connect 0 0 6 0;
#X connect 2 0 4 0;
#X connect 2 1 1 1;
#X connect 3 0 2 0;
#X connect 4 0 103 0;
#X connect 5 0 4 1;
#X connect 5 0 94 1;
#X connect 6 0 104 0;
#X connect 6 1 12 0;
#X connect 6 2 10 0;
#X connect 6 4 100 0;
#X connect 7 0 13 2;
#X connect 8 0 13 1;
#X connect 9 0 14 0;
#X connect 10 0 9 1;
#X connect 11 0 9 1;
#X connect 12 1 11 0;
#X connect 14 0 17 0;
#X connect 15 0 20 0;
#X connect 16 0 10 0;
#X connect 16 1 8 0;
#X connect 17 0 13 0;
#X connect 18 0 1 2;
#X connect 18 0 42 1;
#X connect 18 0 53 2;
#X connect 18 0 76 2;
#X connect 18 0 75 2;
#X connect 19 0 20 1;
#X connect 20 0 9 0;
#X connect 21 0 20 1;
#X connect 22 2 21 0;
#X connect 23 0 29 2;
#X connect 25 0 24 1;
#X connect 26 0 24 0;
#X connect 28 0 26 0;
#X connect 28 1 25 0;
#X connect 30 0 99 0;
#X connect 30 1 31 0;
#X connect 31 0 29 1;
#X connect 33 0 59 0;
#X connect 33 1 35 0;
#X connect 35 0 29 1;
#X connect 36 0 24 2;
#X connect 37 0 39 0;
#X connect 37 1 40 0;
#X connect 39 0 29 0;
#X connect 40 0 29 1;
#X connect 41 0 22 0;
#X connect 41 1 19 0;
#X connect 43 0 42 0;
#X connect 45 0 44 1;
#X connect 46 0 44 2;
#X connect 46 0 63 2;
#X connect 46 0 66 2;
#X connect 48 1 97 0;
#X connect 48 2 74 0;
#X connect 48 3 81 0;
#X connect 48 4 98 0;
#X connect 49 0 48 0;
#X connect 49 1 89 0;
#X connect 50 0 41 0;
#X connect 51 0 49 0;
#X connect 52 0 58 0;
#X connect 54 0 56 0;
#X connect 54 1 57 0;
#X connect 55 0 53 1;
#X connect 56 0 53 0;
#X connect 57 0 53 0;
#X connect 58 0 54 0;
#X connect 59 0 29 0;
#X connect 60 0 58 1;
#X connect 61 0 73 0;
#X connect 61 1 45 0;
#X connect 62 0 1 0;
#X connect 64 0 63 0;
#X connect 65 0 63 1;
#X connect 67 0 66 0;
#X connect 68 0 64 0;
#X connect 68 1 65 0;
#X connect 68 2 71 0;
#X connect 68 3 72 0;
#X connect 71 0 66 0;
#X connect 72 0 66 1;
#X connect 73 0 44 0;
#X connect 74 0 101 0;
#X connect 74 1 84 0;
#X connect 74 2 67 0;
#X connect 74 3 60 0;
#X connect 78 0 75 1;
#X connect 79 0 75 0;
#X connect 80 0 76 0;
#X connect 81 0 79 0;
#X connect 81 1 78 0;
#X connect 81 2 80 0;
#X connect 81 3 83 0;
#X connect 82 0 51 0;
#X connect 83 0 76 1;
#X connect 84 0 63 0;
#X connect 87 0 86 2;
#X connect 87 0 91 2;
#X connect 88 0 86 1;
#X connect 89 0 86 0;
#X connect 89 0 94 1;
#X connect 89 0 103 1;
#X connect 90 0 86 0;
#X connect 92 0 102 0;
#X connect 92 1 91 1;
#X connect 93 0 92 0;
#X connect 94 0 91 0;
#X connect 95 0 91 1;
#X connect 96 0 94 1;
#X connect 97 0 103 1;
#X connect 98 0 90 0;
#X connect 98 1 96 0;
#X connect 99 0 29 0;
#X connect 100 0 50 1;
#X connect 100 1 4 1;
#X connect 100 2 51 1;
#X connect 100 4 102 1;
#X connect 101 0 44 0;
#X connect 102 0 94 0;
#X connect 103 0 62 0;
#X connect 104 0 5 0;
#X connect 104 1 28 0;
#X connect 104 2 30 0;
#X connect 104 3 33 0;
#X connect 104 4 37 0;
#X connect 104 5 61 0;
#X connect 104 6 68 0;
#X connect 104 7 43 0;
#X connect 104 8 55 0;
#X connect 104 9 16 0;
#X connect 104 11 88 0;
#X connect 104 12 89 0;
#X connect 104 13 95 0;
#X connect 104 14 97 0;
