#N canvas 533 147 1122 569 12;
#X obj 36 18 inlet;
#X obj 36 80 t b b b b b;
#X obj 36 48 ../../../common/step-seq-sel-3 \$0;
#X obj 36 524 ../../../electribe/pattern;
#X obj 364 524 noteout;
#X obj 364 256 unpack 0 0;
#X obj 364 18 r notes;
#X obj 364 391 spigot;
#X msg 36 496 b d \, p 15;
#X msg 403 365 0;
#X obj 440 18 r ea-1-#;
#X obj 523 213 select 0 1 2 3 4;
#X obj 523 122 spigot 0;
#X obj 523 18 r enc-2;
#X obj 513 420 <= 60;
#X msg 610 276 1;
#X msg 546 172 0;
#X obj 440 48 t f f;
#X obj 513 455 sel 1;
#X obj 513 358 spigot;
#X obj 513 521 ../../../electribe/encoder-set-simple;
#X obj 513 388 spigot;
#X msg 513 493 0 0;
#X msg 545 493 6 0;
#X msg 387 490 0;
#X obj 523 145 t f b b;
#X msg 261 435 67;
#X obj 261 469 makenote 127 60;
#X obj 227 18 r cnt-16;
#X obj 228 391 sel 1 4 7 10 13;
#X obj 228 355 spigot;
#X msg 267 328 1;
#X obj 914 477 noteout;
#X obj 960 18 r pulse-#;
#X obj 689 345 spigot 0;
#X obj 610 251 t b b;
#X obj 364 284 t f f f;
#X msg 688 406 48;
#X msg 718 428 51;
#X msg 756 436 53;
#X obj 610 314 spigot;
#X obj 819 354 ../../../pulse/pc;
#X msg 848 314 415;
#X msg 799 314 414;
#X obj 264 80 t f f f f;
#X obj 803 254 sel 0 1;
#X msg 756 288 0;
#X obj 689 376 sel 55 67 69 79 81;
#X connect 0 0 2 0;
#X connect 1 0 8 0;
#X connect 1 1 9 0;
#X connect 1 2 16 0;
#X connect 1 3 24 0;
#X connect 2 0 1 0;
#X connect 2 4 44 0;
#X connect 5 0 36 0;
#X connect 5 1 4 1;
#X connect 5 1 21 1;
#X connect 5 1 32 1;
#X connect 6 0 5 0;
#X connect 7 0 4 0;
#X connect 8 0 3 0;
#X connect 9 0 7 1;
#X connect 10 0 17 0;
#X connect 11 1 31 0;
#X connect 11 4 35 0;
#X connect 12 0 25 0;
#X connect 13 0 12 0;
#X connect 14 0 18 0;
#X connect 15 0 19 1;
#X connect 15 0 34 1;
#X connect 16 0 19 1;
#X connect 16 0 30 1;
#X connect 16 0 34 1;
#X connect 17 0 4 2;
#X connect 17 1 20 1;
#X connect 18 0 22 0;
#X connect 18 1 23 0;
#X connect 19 0 21 0;
#X connect 21 0 14 0;
#X connect 22 0 20 0;
#X connect 23 0 20 0;
#X connect 24 0 4 1;
#X connect 25 0 11 0;
#X connect 25 1 16 0;
#X connect 25 2 24 0;
#X connect 26 0 27 0;
#X connect 27 0 4 0;
#X connect 27 1 4 1;
#X connect 28 0 30 0;
#X connect 29 0 26 0;
#X connect 29 1 26 0;
#X connect 29 2 26 0;
#X connect 29 3 26 0;
#X connect 29 4 26 0;
#X connect 30 0 29 0;
#X connect 31 0 30 1;
#X connect 33 0 32 2;
#X connect 34 0 47 0;
#X connect 35 0 15 0;
#X connect 36 0 7 0;
#X connect 36 1 19 0;
#X connect 36 2 40 0;
#X connect 37 0 32 0;
#X connect 38 0 32 0;
#X connect 39 0 32 0;
#X connect 40 0 34 0;
#X connect 42 0 41 0;
#X connect 43 0 41 0;
#X connect 44 0 7 1;
#X connect 44 1 12 1;
#X connect 44 2 40 1;
#X connect 44 3 45 0;
#X connect 45 0 43 0;
#X connect 45 1 42 0;
#X connect 46 0 34 1;
#X connect 47 0 37 0;
#X connect 47 1 38 0;
#X connect 47 2 39 0;
#X connect 47 3 38 0;
#X connect 47 4 39 0;
