#N canvas 61 235 1594 899 12;
#X obj 36 18 inlet;
#X obj 36 48 ../../../common/step-seq-sel-3 \$0;
#X obj 36 524 ../../../electribe/pattern;
#X obj 364 524 noteout;
#X obj 364 256 unpack 0 0;
#X obj 364 18 r notes;
#X obj 364 391 spigot;
#X msg 36 496 b d \, p 15;
#X msg 403 365 0;
#X obj 440 18 r ea-1-#;
#X obj 523 207 select 0 1 2 3 4;
#X obj 523 122 spigot 0;
#X obj 523 18 r enc-2;
#X obj 507 423 <= 60;
#X msg 555 297 1;
#X msg 546 174 0;
#X obj 507 458 sel 1;
#X obj 507 365 spigot;
#X obj 507 524 ../../../electribe/encoder-set-simple;
#X obj 507 391 spigot;
#X msg 507 496 0 0;
#X msg 539 496 6 0;
#X msg 387 490 0;
#X obj 523 145 t f b b;
#X msg 261 435 67;
#X obj 261 469 makenote 127 60;
#X obj 228 18 r cnt-16;
#X obj 228 391 sel 1 4 7 10 13;
#X obj 228 355 spigot;
#X obj 986 672 noteout;
#X obj 1032 18 r pulse-#;
#X obj 689 351 spigot 0;
#X obj 364 284 t f f f;
#X msg 689 403 48;
#X msg 717 431 51;
#X msg 762 433 53;
#X obj 631 329 spigot;
#X obj 808 524 ../../../pulse/pc;
#X msg 842 496 415;
#X msg 808 496 414;
#X obj 808 458 sel 0 1;
#X obj 689 376 sel 55 67 69 79 81;
#X obj 983 524 ../../../tracks/cc;
#X msg 1015 477 13;
#X text 980 419 pulse vol;
#X obj 983 444 t b b;
#X obj 1264 444 ../../../common/lfo;
#X obj 1264 409 spigot 0;
#X obj 1138 477 ../../../electribe/encoder-set-simple;
#X msg 1138 444 5 8;
#X msg 1394 359 wave 0 \, step 1 \, pos 0 \, base 20 \, ceil 45;
#X text 1170 443 ea1 cutoff;
#X obj 1132 524 ../../../electribe/encoder-set-simple;
#X obj 440 48 t f f f f;
#X msg 1083 476 0 7;
#X obj 1388 271 spigot 0;
#X obj 267 80 t f f f f f f;
#X obj 1388 18 r enc-r-3;
#X obj 1264 18 r tick-48;
#X text 1085 457 ea vol;
#X text 594 497 ea1 portamento;
#X obj 1106 18 r tr-pr-#;
#X msg 983 477 19;
#X obj 1083 387 delay 200;
#X obj 749 705 ../../../tracks/cc;
#X obj 749 618 t b b;
#X text 814 645 syn2 vol;
#X msg 781 646 14;
#X obj 880 18 r tr-pr-#;
#X obj 763 586 spigot;
#X obj 714 586 spigot;
#X obj 644 586 spigot;
#X obj 713 548 t f f;
#X obj 763 548 t f f;
#X obj 664 545 t f f;
#X msg 707 646 48;
#X msg 749 646 78;
#X obj 555 272 t b b b;
#X obj 614 18 r ctrl-1b-2;
#X obj 1388 315 clip 0 95;
#X obj 797 18 r 1b-base-1;
#X obj 695 89 route part;
#X obj 614 41 route ea kp3;
#X obj 695 114 sel 2;
#X obj 662 623 spigot;
#X msg 546 623 1;
#X msg 585 625 0;
#X obj 36 80 t b b b b b b b b b b;
#X connect 0 0 1 0;
#X connect 1 0 87 0;
#X connect 1 4 56 0;
#X connect 4 0 32 0;
#X connect 4 1 3 1;
#X connect 4 1 19 1;
#X connect 4 1 29 1;
#X connect 4 1 71 1;
#X connect 4 1 70 1;
#X connect 4 1 69 1;
#X connect 5 0 4 0;
#X connect 6 0 3 0;
#X connect 7 0 2 0;
#X connect 8 0 6 1;
#X connect 9 0 53 0;
#X connect 10 1 77 0;
#X connect 11 0 23 0;
#X connect 12 0 11 0;
#X connect 13 0 16 0;
#X connect 14 0 17 1;
#X connect 14 0 31 1;
#X connect 15 0 17 1;
#X connect 15 0 28 1;
#X connect 15 0 31 1;
#X connect 16 0 20 0;
#X connect 16 1 21 0;
#X connect 17 0 19 0;
#X connect 19 0 13 0;
#X connect 20 0 18 0;
#X connect 21 0 18 0;
#X connect 22 0 3 1;
#X connect 23 0 10 0;
#X connect 23 1 15 0;
#X connect 23 2 22 0;
#X connect 24 0 25 0;
#X connect 25 0 3 0;
#X connect 25 1 3 1;
#X connect 26 0 28 0;
#X connect 27 0 24 0;
#X connect 27 1 24 0;
#X connect 27 2 24 0;
#X connect 27 3 24 0;
#X connect 27 4 24 0;
#X connect 28 0 27 0;
#X connect 30 0 29 2;
#X connect 31 0 41 0;
#X connect 32 0 6 0;
#X connect 32 1 17 0;
#X connect 32 2 36 0;
#X connect 33 0 74 0;
#X connect 34 0 72 0;
#X connect 35 0 73 0;
#X connect 36 0 31 0;
#X connect 38 0 37 0;
#X connect 39 0 37 0;
#X connect 40 0 39 0;
#X connect 40 1 38 0;
#X connect 41 0 33 0;
#X connect 41 1 34 0;
#X connect 41 2 35 0;
#X connect 41 3 34 0;
#X connect 41 4 35 0;
#X connect 43 0 42 1;
#X connect 45 0 62 0;
#X connect 45 1 43 0;
#X connect 46 1 48 2;
#X connect 47 0 46 0;
#X connect 49 0 48 0;
#X connect 50 0 46 2;
#X connect 53 0 3 2;
#X connect 53 1 18 1;
#X connect 53 2 48 1;
#X connect 53 3 52 1;
#X connect 54 0 52 0;
#X connect 55 0 79 0;
#X connect 56 0 6 1;
#X connect 56 1 11 1;
#X connect 56 2 36 1;
#X connect 56 3 40 0;
#X connect 56 4 47 1;
#X connect 56 5 55 1;
#X connect 57 0 55 0;
#X connect 58 0 47 0;
#X connect 61 0 42 2;
#X connect 62 0 42 0;
#X connect 63 0 54 0;
#X connect 65 0 76 0;
#X connect 65 1 67 0;
#X connect 67 0 64 1;
#X connect 68 0 64 2;
#X connect 69 0 76 0;
#X connect 70 0 76 0;
#X connect 71 0 84 0;
#X connect 72 0 29 0;
#X connect 72 1 70 0;
#X connect 73 0 29 0;
#X connect 73 1 69 0;
#X connect 74 0 29 0;
#X connect 74 1 71 0;
#X connect 75 0 64 0;
#X connect 76 0 64 0;
#X connect 77 0 14 0;
#X connect 77 1 62 0;
#X connect 77 2 54 0;
#X connect 78 0 82 0;
#X connect 79 0 52 2;
#X connect 80 0 4 0;
#X connect 81 0 83 0;
#X connect 82 0 1 1;
#X connect 82 1 81 0;
#X connect 83 0 86 0;
#X connect 84 0 75 0;
#X connect 85 0 84 1;
#X connect 86 0 84 1;
#X connect 87 0 63 0;
#X connect 87 1 8 0;
#X connect 87 2 15 0;
#X connect 87 3 22 0;
#X connect 87 4 49 0;
#X connect 87 5 50 0;
#X connect 87 6 7 0;
#X connect 87 7 45 0;
#X connect 87 8 65 0;
#X connect 87 9 85 0;
