#N canvas 199 100 893 569 12;
#X obj 36 18 inlet;
#X obj 36 80 t b b b b b;
#X obj 36 48 ../../../common/step-seq-sel-3 \$0;
#X obj 36 524 ../../../electribe/pattern;
#X obj 364 524 noteout;
#X obj 364 256 unpack 0 0;
#X obj 364 18 r notes;
#X obj 364 391 spigot;
#X msg 36 496 b d \, p 15;
#X msg 403 365 0;
#X obj 264 80 t f f f;
#X obj 218 18 r ea-1-#;
#X obj 600 197 select 0 1 2 3 4;
#X obj 600 161 t f b;
#X obj 600 125 spigot 0;
#X obj 600 18 r enc-2;
#X obj 590 423 <= 60;
#X msg 621 336 1;
#X msg 632 311 0;
#X obj 364 284 t f f;
#X obj 218 161 t f f;
#X obj 590 458 sel 1;
#X obj 590 361 spigot;
#X obj 590 524 ../../../electribe/encoder-set-simple;
#X obj 590 391 spigot;
#X msg 590 496 0 0;
#X msg 622 496 6 0;
#X connect 0 0 2 0;
#X connect 1 0 8 0;
#X connect 1 1 9 0;
#X connect 1 2 18 0;
#X connect 2 0 1 0;
#X connect 2 4 10 0;
#X connect 5 0 19 0;
#X connect 5 1 4 1;
#X connect 5 1 24 1;
#X connect 6 0 5 0;
#X connect 7 0 4 0;
#X connect 8 0 3 0;
#X connect 9 0 7 1;
#X connect 10 0 7 1;
#X connect 10 1 14 1;
#X connect 11 0 20 0;
#X connect 12 1 17 0;
#X connect 13 0 12 0;
#X connect 13 1 18 0;
#X connect 14 0 13 0;
#X connect 15 0 14 0;
#X connect 16 0 21 0;
#X connect 17 0 22 1;
#X connect 18 0 22 1;
#X connect 19 0 7 0;
#X connect 19 1 22 0;
#X connect 20 0 4 2;
#X connect 20 1 23 1;
#X connect 21 0 25 0;
#X connect 21 1 26 0;
#X connect 22 0 24 0;
#X connect 24 0 16 0;
#X connect 25 0 23 0;
#X connect 26 0 23 0;
