#N canvas 533 147 1122 569 12;
#X obj 36 18 inlet;
#X obj 541 18 r ea-2-#;
#X obj 286 15 r tick-32;
#X obj 380 20 r notes;
#X obj 500 503 noteout;
#X obj 36 48 ../../../common/looper-sel;
#X obj 462 383 ../../../common/seq-rec-poly;
#X obj 359 418 unpack 0 0;
#X obj 301 483 spigot;
#X msg 280 449 1;
#X obj 272 291 spigot;
#X msg 258 232 0;
#X obj 268 127 t f f f f;
#X obj 334 280 spigot;
#X obj 696 326 spigot;
#X msg 618 330 1;
#X obj 749 22 r enc-8;
#X msg 614 266 0;
#X obj 742 174 spigot;
#X msg 701 131 1;
#X obj 407 136 t f f;
#X msg 475 219 1;
#X obj 475 167 sel 0;
#X obj 378 292 == 0;
#X obj 840 367 until;
#X obj 840 501 noteout 0;
#X obj 867 411 f;
#X obj 905 411 + 1;
#X msg 840 340 128;
#X msg 889 379 0;
#X obj 838 302 t b b;
#X obj 36 104 t b b b b b b;
#X connect 0 0 5 0;
#X connect 1 0 4 2;
#X connect 1 0 25 2;
#X connect 2 0 6 0;
#X connect 3 0 10 0;
#X connect 3 0 13 0;
#X connect 5 0 31 0;
#X connect 5 1 10 1;
#X connect 5 1 19 0;
#X connect 5 2 12 0;
#X connect 5 2 19 0;
#X connect 5 3 31 0;
#X connect 5 4 20 0;
#X connect 6 0 7 0;
#X connect 6 1 14 0;
#X connect 7 0 8 0;
#X connect 7 1 4 1;
#X connect 8 0 4 0;
#X connect 9 0 8 1;
#X connect 10 0 4 0;
#X connect 11 0 10 1;
#X connect 12 1 10 1;
#X connect 12 2 13 1;
#X connect 12 3 6 2;
#X connect 13 0 6 1;
#X connect 14 0 15 0;
#X connect 15 0 6 3;
#X connect 16 0 18 0;
#X connect 17 0 14 1;
#X connect 17 0 18 1;
#X connect 18 0 14 1;
#X connect 19 0 18 1;
#X connect 20 0 23 0;
#X connect 20 1 22 0;
#X connect 21 0 6 3;
#X connect 22 0 21 0;
#X connect 22 0 30 0;
#X connect 23 0 8 1;
#X connect 24 0 26 0;
#X connect 26 0 27 0;
#X connect 26 0 25 0;
#X connect 27 0 26 1;
#X connect 28 0 24 0;
#X connect 29 0 26 1;
#X connect 30 0 28 0;
#X connect 30 1 29 0;
#X connect 31 1 9 0;
#X connect 31 2 6 4;
#X connect 31 3 11 0;
#X connect 31 4 15 0;
#X connect 31 5 30 0;
