#N canvas 501 210 813 445 10;
#X obj 616 12 r ea-1-#;
#X obj 41 12 inlet;
#X obj 41 68 t b b b b b b b b;
#X msg 138 116 0;
#X msg 88 116 1;
#X obj 471 12 r rec-dev;
#X obj 471 39 route ea;
#X obj 322 196 spigot;
#X obj 430 68 spigot;
#X obj 430 12 r rec;
#X obj 322 356 noteout;
#X obj 322 260 unpack 0 0;
#X obj 322 12 r tick-16;
#X obj 41 39 ../../../common/step-seq-sel-3 \$0;
#X obj 322 226 ../../../common/seq-rec-poly;
#X connect 0 0 10 2;
#X connect 1 0 13 0;
#X connect 2 2 3 0;
#X connect 2 7 14 3;
#X connect 3 0 7 1;
#X connect 4 0 7 1;
#X connect 5 0 6 0;
#X connect 6 0 8 1;
#X connect 7 0 14 0;
#X connect 8 0 14 1;
#X connect 9 0 8 0;
#X connect 11 0 10 0;
#X connect 11 1 10 1;
#X connect 12 0 7 0;
#X connect 13 0 2 0;
#X connect 13 1 4 0;
#X connect 13 2 3 0;
#X connect 13 3 7 1;
#X connect 14 0 11 0;
