#N canvas 331 351 1015 479 10;
#X obj 91 9 r sel;
#X obj 193 9 r tune;
#X obj 31 178 spigot;
#X obj 193 42 ==;
#X obj 31 268 ../electribe/presets/drone-d12;
#X obj 31 215 route 32 33 34 35 36 37 38 39;
#X obj 228 215 route 24 25 26 27 28 29 30 31;
#X obj 421 215 route 16 17 18 19 20 21 22 23;
#X obj 52 298 ../electribe/presets/twink-d13;
#X obj 254 9 r 1a-id;
#X obj 73 328 ../electribe/presets/rec-d14;
#X obj 793 215 route 0 1 2 3 4 5 6 7;
#X obj 612 215 route 8 9 10 11 12 13 14 15;
#X obj 793 268 ../kp3/presets/route-kp3;
#X obj 31 9 r listen;
#X obj 137 9 r pause;
#X msg 31 42 \$1 listen \$1;
#X msg 91 64 \$1 sel \$1;
#X msg 137 89 \$1 pause \$1;
#X connect 0 0 17 0;
#X connect 1 0 3 0;
#X connect 2 0 5 0;
#X connect 3 0 2 1;
#X connect 5 0 4 0;
#X connect 5 1 8 0;
#X connect 5 2 10 0;
#X connect 5 8 6 0;
#X connect 6 8 7 0;
#X connect 7 8 12 0;
#X connect 9 0 3 1;
#X connect 11 0 13 0;
#X connect 12 8 11 0;
#X connect 14 0 16 0;
#X connect 15 0 18 0;
#X connect 16 0 2 0;
#X connect 17 0 2 0;
#X connect 18 0 2 0;
