#N canvas 790 319 786 514 10;
#X obj 32 10 r sel;
#X obj 78 10 r tune;
#X obj 32 60 spigot;
#X obj 78 40 ==;
#X obj 32 348 ../electribe/presets/drone-d12;
#X obj 422 267 ../controller/clip-passthru;
#X obj 32 295 route 32 33 34 35 36 37 38 39;
#X obj 229 295 route 24 25 26 27 28 29 30 31;
#X obj 422 295 route 16 17 18 19 20 21 22 23;
#X obj 32 97 moses 8;
#X obj 95 97 moses 16;
#X obj 163 97 moses 24;
#X obj 236 96 moses 32;
#X obj 307 95 moses 40;
#X obj 229 267 ../controller/clip-passthru;
#X obj 229 348 ../sample/presets/twins-1;
#X obj 250 378 ../sample/presets/hihat-1;
#X obj 53 378 ../electribe/presets/twink-d13;
#X obj 272 408 ../sample/presets/cabas-1;
#X obj 32 267 ../controller/clip-passthru;
#X obj 139 10 r 1a-id;
#X obj 293 439 ../sample/presets/drop-1;
#X connect 0 0 2 0;
#X connect 1 0 3 0;
#X connect 2 0 9 0;
#X connect 3 0 2 1;
#X connect 5 0 8 0;
#X connect 6 0 4 0;
#X connect 6 1 17 0;
#X connect 7 0 15 0;
#X connect 7 1 16 0;
#X connect 7 2 18 0;
#X connect 7 3 21 0;
#X connect 9 1 10 0;
#X connect 10 1 11 0;
#X connect 11 0 5 0;
#X connect 11 1 12 0;
#X connect 12 0 14 0;
#X connect 12 1 13 0;
#X connect 13 0 19 0;
#X connect 14 0 7 0;
#X connect 19 0 6 0;
#X connect 20 0 3 1;
