#N canvas 321 336 1015 579 10;
#X obj 91 9 r sel;
#X obj 31 297 spigot;
#X obj 31 334 route 32 33 34 35 36 37 38 39;
#X obj 228 334 route 24 25 26 27 28 29 30 31;
#X obj 421 334 route 16 17 18 19 20 21 22 23;
#X obj 793 334 route 0 1 2 3 4 5 6 7;
#X obj 612 334 route 8 9 10 11 12 13 14 15;
#X obj 31 9 r listen;
#X obj 137 9 r pause;
#X msg 31 161 \$1 listen \$1;
#X msg 91 186 \$1 sel \$1;
#X msg 137 208 \$1 pause \$1;
#X obj 31 388 1b/electribe/seagull-d13;
#X obj 793 388 1b/kp3/route-kp3;
#X obj 808 419 1b/tracks/route-tracks;
#X obj 823 448 1b/zoom/snare;
#X obj 52 419 1b/electribe/rec-d14;
#X obj 839 477 1b/pulse/pulse-1b;
#X obj 193 9 r tune;
#X obj 193 35 ==;
#X obj 193 86 sel 1;
#X obj 193 182 s on-load;
#X obj 193 60 t f f;
#X obj 325 159 ../tracks/pc;
#X obj 193 110 t b b;
#X obj 394 9 r tr-pr-#;
#X obj 193 134 del 100;
#X msg 325 134 2;
#X msg 193 159 32 \, 0 \, 1 \, 2 \, 3;
#X obj 243 9 r 1b-id;
#X connect 0 0 10 0;
#X connect 1 0 2 0;
#X connect 2 0 12 0;
#X connect 2 1 16 0;
#X connect 2 8 3 0;
#X connect 3 8 4 0;
#X connect 4 8 6 0;
#X connect 5 0 13 0;
#X connect 5 1 14 0;
#X connect 5 2 15 0;
#X connect 5 3 17 0;
#X connect 6 8 5 0;
#X connect 7 0 9 0;
#X connect 8 0 11 0;
#X connect 9 0 1 0;
#X connect 10 0 1 0;
#X connect 11 0 1 0;
#X connect 18 0 19 0;
#X connect 19 0 22 0;
#X connect 20 0 24 0;
#X connect 22 0 20 0;
#X connect 22 1 1 1;
#X connect 24 0 26 0;
#X connect 24 1 27 0;
#X connect 25 0 23 1;
#X connect 26 0 28 0;
#X connect 27 0 23 0;
#X connect 28 0 21 0;
#X connect 29 0 19 1;
