#N canvas 97 285 1015 579 10;
#X obj 91 9 r sel;
#X obj 31 297 spigot;
#X obj 31 334 route 32 33 34 35 36 37 38 39;
#X obj 228 334 route 24 25 26 27 28 29 30 31;
#X obj 421 334 route 16 17 18 19 20 21 22 23;
#X obj 793 334 route 0 1 2 3 4 5 6 7;
#X obj 612 334 route 8 9 10 11 12 13 14 15;
#X obj 31 9 r listen;
#X obj 137 9 r pause;
#X msg 31 215 \$1 listen \$1;
#X msg 91 240 \$1 sel \$1;
#X msg 137 265 \$1 pause \$1;
#X obj 31 380 1b/tracks/route-tracks;
#X obj 193 9 r tune;
#X obj 193 35 ==;
#X obj 193 86 sel 1;
#X obj 193 297 s on-load;
#X obj 193 60 t f f;
#X obj 412 160 ../tracks/pc;
#X obj 193 110 t b b;
#X obj 481 8 r tr-pr-#;
#X obj 193 134 del 100;
#X msg 412 133 2;
#X obj 243 9 r 1b-id;
#X obj 52 409 1b/electribe/d15-routing;
#X obj 787 9 r record;
#X msg 787 186 \$1 record \$1;
#X obj 845 9 r clear;
#X obj 897 9 r mute;
#X msg 897 237 \$1 mute \$1;
#X obj 742 9 r thru;
#X msg 742 161 \$1 thru \$1;
#X msg 845 211 \$1 clear \$1;
#X obj 193 156 t b b;
#X obj 193 205 delay 200;
#X obj 73 437 1b/kp3/setting;
#X obj 228 380 1b/v-drum/route-1;
#X obj 442 409 1b/kp3/control-2;
#X obj 463 437 1b/tracks/base-line;
#X msg 220 182 32 \, 33 \, 34 \, 24 \, 16 \, 17 \, 18;
#X msg 193 232 32 \, 33 \, 34 \, 16 \, 17 \, 18;
#X connect 0 0 10 0;
#X connect 1 0 2 0;
#X connect 2 0 12 0;
#X connect 2 1 24 0;
#X connect 2 2 35 0;
#X connect 2 8 3 0;
#X connect 3 0 36 0;
#X connect 3 8 4 0;
#X connect 4 1 37 0;
#X connect 4 2 38 0;
#X connect 4 8 6 0;
#X connect 6 8 5 0;
#X connect 7 0 9 0;
#X connect 8 0 11 0;
#X connect 9 0 1 0;
#X connect 10 0 1 0;
#X connect 11 0 1 0;
#X connect 13 0 14 0;
#X connect 14 0 17 0;
#X connect 15 0 19 0;
#X connect 17 0 15 0;
#X connect 17 1 1 1;
#X connect 19 0 21 0;
#X connect 19 1 22 0;
#X connect 20 0 18 1;
#X connect 21 0 33 0;
#X connect 22 0 18 0;
#X connect 23 0 14 1;
#X connect 25 0 26 0;
#X connect 26 0 5 0;
#X connect 27 0 32 0;
#X connect 28 0 29 0;
#X connect 29 0 5 0;
#X connect 30 0 31 0;
#X connect 31 0 5 0;
#X connect 32 0 5 0;
#X connect 33 0 34 0;
#X connect 33 1 39 0;
#X connect 34 0 40 0;
#X connect 39 0 16 0;
#X connect 40 0 16 0;
