#N canvas 615 190 1015 709 10;
#X obj 91 9 r sel;
#X obj 31 297 spigot;
#X obj 31 429 route 32 33 34 35 36 37 38 39;
#X obj 228 429 route 24 25 26 27 28 29 30 31;
#X obj 421 429 route 16 17 18 19 20 21 22 23;
#X obj 793 429 route 0 1 2 3 4 5 6 7;
#X obj 612 429 route 8 9 10 11 12 13 14 15;
#X obj 31 9 r listen;
#X obj 137 9 r pause;
#X msg 31 215 \$1 listen \$1;
#X msg 91 240 \$1 sel \$1;
#X msg 137 265 \$1 pause \$1;
#X obj 193 9 r tune;
#X obj 193 35 ==;
#X obj 193 86 sel 1;
#X obj 212 296 s on-load;
#X obj 193 60 t f f;
#X obj 193 110 t b b;
#X obj 193 134 del 100;
#X obj 787 9 r record;
#X msg 787 68 \$1 record \$1;
#X obj 845 9 r clear;
#X obj 897 9 r mute;
#X msg 897 128 \$1 mute \$1;
#X obj 742 9 r thru;
#X msg 742 39 \$1 thru \$1;
#X msg 845 97 \$1 clear \$1;
#X obj 212 212 delay 200;
#X obj 243 9 r 2a-id;
#X obj 31 475 2a/beat/mapping;
#X obj 793 475 2a/samples/mute-1;
#X obj 52 499 2a/apc/enc-mapping;
#X obj 808 499 2a/samples/mute-2;
#X obj 823 525 2a/samples/mute-3;
#X obj 839 550 2a/samples/mute-4;
#X obj 854 575 2a/samples/mute-5;
#X obj 869 600 2a/samples/mute-6;
#X msg 239 189 32 \, 33 \, 0 \, 1 \, 2 \, 3 \, 4 \, 5;
#X msg 212 239 32 \, 33 \, 0 \, 1 \, 2 \, 3 \, 4 \, 5;
#X msg 193 348 1 \, 2 \, 3 \, 4 \, 5;
#X obj 193 374 s listen;
#X obj 193 156 t b b b;
#X obj 193 322 delay 400;
#X connect 0 0 10 0;
#X connect 1 0 2 0;
#X connect 2 0 29 0;
#X connect 2 1 31 0;
#X connect 2 8 3 0;
#X connect 3 8 4 0;
#X connect 4 8 6 0;
#X connect 5 0 30 0;
#X connect 5 1 32 0;
#X connect 5 2 33 0;
#X connect 5 3 34 0;
#X connect 5 4 35 0;
#X connect 5 5 36 0;
#X connect 6 8 5 0;
#X connect 7 0 9 0;
#X connect 8 0 11 0;
#X connect 9 0 1 0;
#X connect 10 0 1 0;
#X connect 11 0 1 0;
#X connect 12 0 13 0;
#X connect 13 0 16 0;
#X connect 14 0 17 0;
#X connect 16 0 14 0;
#X connect 16 1 1 1;
#X connect 17 0 18 0;
#X connect 18 0 41 0;
#X connect 19 0 20 0;
#X connect 21 0 26 0;
#X connect 22 0 23 0;
#X connect 24 0 25 0;
#X connect 27 0 38 0;
#X connect 28 0 13 1;
#X connect 37 0 15 0;
#X connect 38 0 15 0;
#X connect 39 0 40 0;
#X connect 41 0 42 0;
#X connect 41 1 27 0;
#X connect 41 2 37 0;
#X connect 42 0 39 0;
