#N canvas -31 237 1015 709 10;
#X obj 91 9 r sel;
#X obj 31 297 spigot;
#X obj 31 429 route 32 33 34 35 36 37 38 39;
#X obj 31 9 r listen;
#X obj 137 9 r pause;
#X msg 31 215 \$1 listen \$1;
#X msg 91 240 \$1 sel \$1;
#X msg 137 265 \$1 pause \$1;
#X obj 193 9 r tune;
#X obj 193 35 ==;
#X obj 193 86 sel 1;
#X obj 193 60 t f f;
#X obj 193 110 t b b;
#X obj 193 134 del 100;
#X obj 787 9 r record;
#X msg 787 68 \$1 record \$1;
#X obj 845 9 r clear;
#X obj 897 9 r mute;
#X msg 897 128 \$1 mute \$1;
#X obj 742 9 r thru;
#X msg 742 39 \$1 thru \$1;
#X msg 845 97 \$1 clear \$1;
#X obj 243 9 r 2a-id;
#X obj 31 475 2a/beat/mapping;
#X obj 193 374 s listen;
#X obj 193 322 delay 400;
#X obj 52 500 2a/ambika/seq-1-mapping;
#X obj 73 525 2a/ambika/seq-2-mapping;
#X msg 193 348;
#X obj 95 550 2a/resets;
#X obj 319 267 s on-load;
#X obj 235 429 ../routings/routes;
#X obj 237 195 delay 50;
#X obj 193 156 t b b b b;
#X msg 319 240 32 \, 33 \, 34 \, 35;
#X connect 0 0 6 0;
#X connect 1 0 2 0;
#X connect 2 0 23 0;
#X connect 2 1 26 0;
#X connect 2 2 27 0;
#X connect 2 3 29 0;
#X connect 2 8 31 0;
#X connect 3 0 5 0;
#X connect 4 0 7 0;
#X connect 5 0 1 0;
#X connect 6 0 1 0;
#X connect 7 0 1 0;
#X connect 8 0 9 0;
#X connect 9 0 11 0;
#X connect 10 0 12 0;
#X connect 11 0 10 0;
#X connect 11 1 1 1;
#X connect 12 0 13 0;
#X connect 13 0 33 0;
#X connect 14 0 15 0;
#X connect 16 0 21 0;
#X connect 17 0 18 0;
#X connect 19 0 20 0;
#X connect 22 0 9 1;
#X connect 25 0 28 0;
#X connect 28 0 24 0;
#X connect 32 0 34 0;
#X connect 33 0 25 0;
#X connect 33 1 31 1;
#X connect 33 2 32 0;
#X connect 33 3 34 0;
#X connect 34 0 30 0;
