#N canvas 486 227 1015 709 10;
#X obj 91 9 r sel;
#X obj 31 297 spigot;
#X obj 31 429 route 32 33 34 35 36 37 38 39;
#X obj 228 429 route 24 25 26 27 28 29 30 31;
#X obj 421 429 route 16 17 18 19 20 21 22 23;
#X obj 793 429 route 0 1 2 3 4 5 6 7;
#X obj 612 429 route 8 9 10 11 12 13 14 15;
#X obj 31 9 r listen;
#X obj 137 9 r pause;
#X msg 31 215 \$1 listen \$1;
#X msg 91 240 \$1 sel \$1;
#X msg 137 265 \$1 pause \$1;
#X obj 193 9 r tune;
#X obj 193 35 ==;
#X obj 193 86 sel 1;
#X obj 343 376 s on-load;
#X obj 193 60 t f f;
#X obj 193 110 t b b;
#X obj 193 134 del 100;
#X obj 787 9 r record;
#X msg 787 68 \$1 record \$1;
#X obj 845 9 r clear;
#X obj 897 9 r mute;
#X msg 897 128 \$1 mute \$1;
#X obj 742 9 r thru;
#X msg 742 39 \$1 thru \$1;
#X msg 845 97 \$1 clear \$1;
#X obj 244 265 delay 200;
#X obj 193 374 s listen;
#X obj 193 156 t b b b;
#X obj 193 322 delay 400;
#X obj 610 129 notein;
#X obj 793 475 ../apc/key-to-ea1;
#X obj 808 500 ../apc/key-to-ea2;
#X obj 885 627 ../apc/key-to-pulse;
#X obj 824 526 ../apc/key-to-amb1;
#X obj 839 552 ../apc/key-to-amb2;
#X obj 854 577 ../apc/key-to-syn1;
#X obj 869 602 ../apc/key-to-syn2;
#X obj 421 475 ../tracks/s2-to-ea1;
#X obj 442 500 ../tracks/s2-to-ea2;
#X obj 549 627 ../tracks/s2-to-pulse;
#X msg 193 348;
#X obj 243 9 r 2b-id;
#X obj 31 475 2b/beat/mapping;
#X obj 73 526 2b/ambika/seq-1-mapping;
#X obj 95 552 2b/ambika/seq-2-mapping;
#X obj 117 577 2b/resets;
#X obj 52 500 2b/beat/play-mapping;
#X obj 612 475 ../m2s/to-tr-m1;
#X obj 631 500 ../m2s/to-tr-m2;
#X obj 732 627 ../m2s/to-pulse;
#X obj 651 526 ../m2s/to-amb1;
#X obj 671 552 ../m2s/to-amb2;
#X obj 691 577 ../m2s/to-syn1;
#X obj 711 602 ../m2s/to-syn2;
#X obj 570 650 ../dbi/cowbell-to-xv;
#X msg 343 324 0 \, 1 \, 2 \, 3 \, 4 \, 5 \, 6 \, 8 \, 9 \, 10 \, 11
\, 12 \, 13 \, 14 \, 16 \, 17 \, 18 \, 19 \, 32 \, 33 \, 34 \, 35 \,
36;
#X obj 485 552 ../routings/arp-amb2;
#X connect 0 0 10 0;
#X connect 1 0 2 0;
#X connect 2 0 44 0;
#X connect 2 1 48 0;
#X connect 2 2 45 0;
#X connect 2 3 46 0;
#X connect 2 4 47 0;
#X connect 2 8 3 0;
#X connect 3 8 4 0;
#X connect 4 0 39 0;
#X connect 4 1 40 0;
#X connect 4 3 58 0;
#X connect 4 6 41 0;
#X connect 4 7 56 0;
#X connect 4 8 6 0;
#X connect 5 0 32 0;
#X connect 5 1 33 0;
#X connect 5 2 35 0;
#X connect 5 3 36 0;
#X connect 5 4 37 0;
#X connect 5 5 38 0;
#X connect 5 6 34 0;
#X connect 6 0 49 0;
#X connect 6 1 50 0;
#X connect 6 2 52 0;
#X connect 6 3 53 0;
#X connect 6 4 54 0;
#X connect 6 5 55 0;
#X connect 6 6 51 0;
#X connect 6 8 5 0;
#X connect 7 0 9 0;
#X connect 8 0 11 0;
#X connect 9 0 1 0;
#X connect 10 0 1 0;
#X connect 11 0 1 0;
#X connect 12 0 13 0;
#X connect 13 0 16 0;
#X connect 14 0 17 0;
#X connect 16 0 14 0;
#X connect 16 1 1 1;
#X connect 17 0 18 0;
#X connect 18 0 29 0;
#X connect 19 0 20 0;
#X connect 21 0 26 0;
#X connect 22 0 23 0;
#X connect 24 0 25 0;
#X connect 27 0 57 0;
#X connect 29 0 30 0;
#X connect 29 1 27 0;
#X connect 29 2 57 0;
#X connect 30 0 42 0;
#X connect 42 0 28 0;
#X connect 43 0 13 1;
#X connect 57 0 15 0;
