#N canvas 945 226 2108 1343 10;
#X obj 21 10 inlet;
#X obj 224 353 sel 0 1 2;
#X obj 282 258 sel 0 1 2;
#X msg 576 359 play;
#X msg 684 359 reset;
#X msg 623 359 restart;
#X obj 684 429 ../electribe/notes;
#X obj 21 95 t b b b;
#X obj 21 49 route reset;
#X obj 60 124 s \$0-reset;
#X obj 40 145 s \$0-seq;
#X obj 21 168 s \$0-ch;
#X obj 576 322 r \$0-ch;
#X obj 766 322 r \$0-seq;
#X obj 684 322 r \$0-reset;
#X msg 576 393 ch 11;
#X msg 766 359 50 0.5 2 \, 55 1 3 \, 60 2 4 \, -1;
#X obj 139 87 route 0 1;
#X msg 569 537 play;
#X msg 677 537 reset;
#X msg 616 537 restart;
#X obj 677 607 ../electribe/notes;
#X obj 569 500 r \$0-ch;
#X obj 759 500 r \$0-seq;
#X obj 677 500 r \$0-reset;
#X msg 759 537 50 0.5 2 \, 55 1 3 \, 60 2 4 \, -1;
#X msg 569 571 ch 12;
#X msg 434 62 play;
#X msg 542 62 reset;
#X msg 481 62 restart;
#X obj 278 43 s beat-len;
#X floatatom 275 10 5 0 0 0 - - -, f 5;
#X floatatom 847 34 5 0 0 0 - - -, f 5;
#X msg 859 73 offset \$1;
#X msg 624 62 51 0.5 2 \, 55 1 3 \, 60 2 4 \, -1;
#X obj 684 393 ../common/note-walker;
#X obj 542 115 print to play;
#X obj 542 96 ../common/note-walker;
#X obj 677 571 ../common/note-walker;
#X connect 0 0 8 0;
#X connect 1 0 5 0;
#X connect 1 0 20 0;
#X connect 2 0 3 0;
#X connect 2 1 18 0;
#X connect 3 0 35 0;
#X connect 4 0 35 0;
#X connect 5 0 35 0;
#X connect 7 0 11 0;
#X connect 7 1 10 0;
#X connect 7 2 9 0;
#X connect 8 0 7 0;
#X connect 8 1 17 0;
#X connect 12 0 15 0;
#X connect 13 0 16 0;
#X connect 14 0 4 0;
#X connect 15 0 6 0;
#X connect 16 0 35 0;
#X connect 17 0 2 0;
#X connect 17 1 1 0;
#X connect 18 0 38 0;
#X connect 19 0 38 0;
#X connect 20 0 38 0;
#X connect 22 0 26 0;
#X connect 23 0 25 0;
#X connect 24 0 19 0;
#X connect 25 0 38 0;
#X connect 26 0 21 0;
#X connect 27 0 37 0;
#X connect 28 0 37 0;
#X connect 29 0 37 0;
#X connect 31 0 30 0;
#X connect 32 0 33 0;
#X connect 33 0 37 0;
#X connect 34 0 37 0;
#X connect 35 0 6 0;
#X connect 37 0 36 0;
#X connect 38 0 21 0;
