#N canvas 235 258 1040 1078 10;
#X obj 21 10 inlet;
#X obj 21 95 t b b b;
#X obj 21 49 route reset;
#X obj 60 124 s \$0-reset;
#X obj 40 145 s \$0-seq;
#X obj 21 168 s \$0-ch;
#X obj 378 45 print notes;
#X obj 144 119 sel 0;
#X obj 146 517 sel 0;
#X obj 144 95 route 0 1 2 3 4 5 6 7 8 9 10 11 12 13 14 15;
#X obj 146 492 route 0 1 2 3 4 5 6 7 8 9 10 11 12 13 14 15;
#X obj 144 142 s \$0-drone1;
#N canvas 725 324 534 273 drone1 1;
#X obj 28 38 route bang play;
#X obj 279 215 ../electribe/sequence-player;
#X obj 279 158 r \$0-seq;
#X obj 279 78 ../electribe/pattern;
#X obj 28 216 t b b;
#X msg 279 56 b d \, p 12;
#X obj 279 135 ../electribe/encoder;
#X msg 225 188 play -1;
#X obj 28 15 r \$0-drone1;
#X obj 200 32 print here;
#X msg 71 84 play \$1;
#X msg 279 109 124 32 0 127 7 1;
#X msg 279 187 ch 1 \, 34 8 0 \, -1;
#X connect 0 0 4 0;
#X connect 0 1 10 0;
#X connect 2 0 12 0;
#X connect 4 0 7 0;
#X connect 4 1 5 0;
#X connect 4 1 11 0;
#X connect 5 0 3 0;
#X connect 7 0 1 0;
#X connect 8 0 0 0;
#X connect 8 0 9 0;
#X connect 10 0 1 0;
#X connect 11 0 6 0;
#X connect 12 0 1 0;
#X restore 859 398 pd drone1;
#X obj 146 570 s \$0-drone1;
#X obj 253 135 sel 0;
#X msg 253 162 play 0;
#X obj 253 188 s \$0-drone1;
#X msg 146 544 play 2;
#X obj 434 159 print;
#X obj 399 115 ../tools/group-num;
#X connect 0 0 2 0;
#X connect 1 0 5 0;
#X connect 1 1 4 0;
#X connect 1 2 3 0;
#X connect 2 0 1 0;
#X connect 2 1 6 0;
#X connect 2 1 9 0;
#X connect 7 0 11 0;
#X connect 8 0 17 0;
#X connect 9 0 7 0;
#X connect 9 8 14 0;
#X connect 9 16 19 0;
#X connect 10 0 8 0;
#X connect 14 0 15 0;
#X connect 15 0 16 0;
#X connect 17 0 13 0;
#X connect 19 0 10 0;
#X connect 19 0 18 0;
