#N canvas 790 319 786 514 10;
#X obj 32 10 r sel;
#X obj 78 10 r tune;
#X obj 32 60 spigot;
#X obj 78 40 ==;
#X obj 32 348 ../electribe/presets/drone-d12;
#X obj 39 373 ../electribe/presets/intro-d12;
#X obj 32 267 ../controller/clip-stage;
#X obj 139 10 r a1-id;
#X obj 282 395 ../sample/presets/bass-1;
#X obj 261 370 ../sample/presets/closehi-1;
#X obj 422 267 ../controller/clip-passthru;
#X obj 32 295 route 32 33 34 35 36 37 38 39;
#X obj 229 295 route 24 25 26 27 28 29 30 31;
#X obj 422 295 route 16 17 18 19 20 21 22 23;
#X obj 32 97 moses 8;
#X obj 95 97 moses 16;
#X obj 163 97 moses 24;
#X obj 236 96 moses 32;
#X obj 307 95 moses 40;
#X obj 240 346 ../sample/presets/block-1;
#X obj 304 420 ../sample/presets/hihats-1;
#X obj 229 267 ../controller/clip-passthru;
#X connect 0 0 2 0;
#X connect 1 0 3 0;
#X connect 2 0 14 0;
#X connect 3 0 2 1;
#X connect 6 0 11 0;
#X connect 7 0 3 1;
#X connect 10 0 13 0;
#X connect 11 0 4 0;
#X connect 12 0 19 0;
#X connect 12 1 9 0;
#X connect 12 2 8 0;
#X connect 12 3 20 0;
#X connect 14 1 15 0;
#X connect 15 1 16 0;
#X connect 16 0 10 0;
#X connect 16 1 17 0;
#X connect 17 0 21 0;
#X connect 17 1 18 0;
#X connect 18 0 6 0;
#X connect 21 0 12 0;
