#N canvas 527 206 1030 818 10;
#X obj 21 10 inlet;
#X obj 339 144 sel 0 1 2;
#X obj 282 258 sel 0 1 2;
#X msg 576 359 play;
#X msg 684 359 reset;
#X msg 623 359 restart;
#X obj 684 429 ../electribe/notes;
#X obj 684 393 ../common/note-walker;
#X obj 21 95 t b b b;
#X obj 139 87 route 0 1 reset;
#X obj 21 49 route reset;
#X obj 60 124 s \$0-reset;
#X obj 40 145 s \$0-seq;
#X obj 21 168 s \$0-ch;
#X obj 576 322 r \$0-ch;
#X obj 766 322 r \$0-seq;
#X obj 684 322 r \$0-reset;
#X msg 571 543 play;
#X msg 679 543 reset;
#X msg 618 543 restart;
#X msg 571 577 ch 12;
#X obj 679 613 ../electribe/notes;
#X obj 679 577 ../common/note-walker;
#X obj 571 506 r \$0-ch;
#X obj 761 506 r \$0-seq;
#X obj 679 506 r \$0-reset;
#X msg 761 543 51 0.5 2 \, 56 1 3 \, 61 2 4 \, -1;
#X msg 576 393 ch 11;
#X msg 766 359 50 0.5 2 \, 55 1 3 \, 60 2 4 \, -1;
#X connect 0 0 10 0;
#X connect 1 0 3 0;
#X connect 1 1 17 0;
#X connect 2 0 5 0;
#X connect 2 0 19 0;
#X connect 3 0 7 0;
#X connect 4 0 7 0;
#X connect 5 0 7 0;
#X connect 7 0 6 0;
#X connect 8 0 13 0;
#X connect 8 1 12 0;
#X connect 8 2 11 0;
#X connect 9 0 2 0;
#X connect 9 1 1 0;
#X connect 10 0 8 0;
#X connect 10 1 9 0;
#X connect 14 0 27 0;
#X connect 15 0 28 0;
#X connect 16 0 4 0;
#X connect 17 0 22 0;
#X connect 18 0 22 0;
#X connect 19 0 22 0;
#X connect 20 0 21 0;
#X connect 22 0 21 0;
#X connect 23 0 20 0;
#X connect 24 0 26 0;
#X connect 25 0 18 0;
#X connect 26 0 22 0;
#X connect 27 0 6 0;
#X connect 28 0 7 0;
