#N canvas 611 165 2108 1343 10;
#X obj 21 10 inlet;
#X obj 224 353 sel 0 1 2;
#X obj 282 258 sel 0 1 2;
#X obj 644 649 ../electribe/notes;
#X obj 21 95 t b b b;
#X obj 21 49 route reset;
#X obj 60 124 s \$0-reset;
#X obj 40 145 s \$0-seq;
#X obj 21 168 s \$0-ch;
#X obj 726 542 r \$0-seq;
#X obj 139 87 route 0 1;
#X msg 637 757 reset;
#X obj 637 827 ../electribe/notes;
#X obj 529 720 r \$0-ch;
#X obj 719 720 r \$0-seq;
#X obj 637 720 r \$0-reset;
#X msg 719 757 50 0.5 2 \, 55 1 3 \, 60 2 4 \, -1;
#X msg 529 791 ch 12;
#X msg 542 62 reset;
#X obj 278 43 s beat-len;
#X floatatom 275 10 5 0 0 0 - - -, f 5;
#X floatatom 847 34 5 0 0 0 - - -, f 5;
#X msg 859 73 offset \$1;
#X msg 624 62 51 0.5 2 \, 55 1 3 \, 60 2 4 \, -1;
#X obj 505 182 print to play;
#X msg 554 579 play;
#X msg 529 757 first;
#X msg 576 757 play;
#X msg 434 62 first;
#X msg 481 62 play;
#X obj 644 613 ../common/note-walker;
#X obj 641 362 ../electribe/sequence-player;
#X obj 641 305 r \$0-seq;
#X msg 641 334 ch 11 \, 50 0.5 2 \, 55 1 3 \, 60 2 4 \, -1;
#X msg 601 335 play;
#X msg 726 579 50 0.5 2 \, 55 1 3 \, 60 2 4 \, -1;
#X obj 637 791 ../common/note-walker;
#X obj 542 96 ../common/note-walker;
#X obj 640 458 ../electribe/sequence-player;
#X obj 640 401 r \$0-seq;
#X msg 600 431 play;
#X msg 640 430 ch 12 \, 50 0.5 2 \, 55 1 3 \, 60 2 4 \, -1;
#X connect 0 0 5 0;
#X connect 1 0 34 0;
#X connect 1 0 40 0;
#X connect 2 0 34 0;
#X connect 2 1 40 0;
#X connect 4 0 8 0;
#X connect 4 1 7 0;
#X connect 4 2 6 0;
#X connect 5 0 4 0;
#X connect 5 1 10 0;
#X connect 9 0 35 0;
#X connect 10 0 2 0;
#X connect 10 1 1 0;
#X connect 11 0 36 0;
#X connect 13 0 17 0;
#X connect 14 0 16 0;
#X connect 15 0 11 0;
#X connect 16 0 36 0;
#X connect 17 0 12 0;
#X connect 18 0 37 0;
#X connect 20 0 19 0;
#X connect 21 0 22 0;
#X connect 22 0 37 0;
#X connect 23 0 37 0;
#X connect 25 0 30 0;
#X connect 26 0 36 0;
#X connect 27 0 36 0;
#X connect 28 0 37 0;
#X connect 29 0 37 0;
#X connect 30 0 3 0;
#X connect 32 0 33 0;
#X connect 33 0 31 0;
#X connect 34 0 31 0;
#X connect 35 0 30 0;
#X connect 36 0 12 0;
#X connect 37 0 24 0;
#X connect 39 0 41 0;
#X connect 40 0 38 0;
#X connect 41 0 38 0;
