#N canvas 619 349 786 514 10;
#X obj 32 10 r sel;
#X obj 78 10 r tune;
#X obj 32 60 spigot;
#X obj 78 40 ==;
#X obj 32 167 route 11 12 13 14 15 16 17 18;
#X obj 229 167 route 21 22 23 24 25 26 27 28;
#X obj 422 167 route 31 32 33 34 35 36 37 38;
#X obj 32 87 moses 11;
#X obj 32 112 moses 21;
#X obj 32 220 ../electribe/presets/drone-d12;
#X obj 229 112 moses 31;
#X obj 422 112 moses 41;
#X obj 229 220 ../electribe/presets/intro-d12;
#X obj 32 139 ../controller/clip-stage;
#X obj 229 139 ../controller/clip-stage;
#X obj 139 10 r a1-id;
#X obj 422 220 ../sample/presets/bass-1;
#X obj 443 248 ../sample/presets/closehi-1;
#X obj 422 139 ../controller/clip-passthru;
#X obj 660 220 print;
#X connect 0 0 2 0;
#X connect 1 0 3 0;
#X connect 2 0 7 0;
#X connect 3 0 2 1;
#X connect 4 0 9 0;
#X connect 5 0 12 0;
#X connect 6 0 16 0;
#X connect 7 1 8 0;
#X connect 8 0 13 0;
#X connect 8 1 10 0;
#X connect 10 0 14 0;
#X connect 10 1 11 0;
#X connect 11 0 18 0;
#X connect 13 0 4 0;
#X connect 14 0 5 0;
#X connect 15 0 3 1;
#X connect 18 0 6 0;
