#N canvas 347 291 1251 727 10;
#X obj 49 8 key;
#X floatatom 78 32 5 0 0 0 - - -, f 5;
#X obj 107 337 print ea1;
#X obj 108 416 print ea2;
#X obj 49 64 route 97 115;
#X text 146 66 0 arm 1 start 2 stop;
#X obj 49 234 s ea1_1;
#X obj 112 235 s ea1_2;
#X obj 49 95 ../controller/clip_stage;
#X obj 112 119 ../controller/clip_stage;
#X obj 65 312 r ea1_1;
#X obj 66 382 r ea1_2;
#N canvas 831 544 725 469 drone1 0;
#X obj 279 359 ../electribe/sequence-player;
#X obj 279 302 r \$0-seq;
#X obj 279 222 ../electribe/pattern;
#X obj 28 360 t b b;
#X msg 279 200 b d \, p 12;
#X obj 279 279 ../electribe/encoder;
#X msg 225 332 play -1;
#X msg 71 228 play \$1;
#X msg 279 253 124 32 0 127 7 1;
#X msg 279 331 ch 1 \, 34 8 0 \, -1;
#X text 102 10 0 arm 1 start 2 stop;
#X obj 28 15 inlet;
#X obj 28 182 route 0 play;
#X connect 1 0 9 0;
#X connect 3 1 4 0;
#X connect 3 1 8 0;
#X connect 4 0 2 0;
#X connect 6 0 0 0;
#X connect 7 0 0 0;
#X connect 8 0 5 0;
#X connect 9 0 0 0;
#X connect 11 0 12 0;
#X connect 12 0 3 0;
#X connect 12 1 7 0;
#X restore 561 227 pd drone1;
#X obj 384 431 r reps;
#X floatatom 384 454 5 0 0 0 - - -, f 5;
#X obj 483 431 r sel;
#X floatatom 483 454 5 0 0 0 - - -, f 5;
#X obj 488 83 ../controller/map;
#X connect 0 0 1 0;
#X connect 0 0 4 0;
#X connect 4 0 8 0;
#X connect 4 1 9 0;
#X connect 8 0 6 0;
#X connect 9 0 7 0;
#X connect 10 0 2 0;
#X connect 11 0 3 0;
#X connect 13 0 14 0;
#X connect 15 0 16 0;
