#N canvas 94 198 1626 798 12;
#X obj 322 24 r sample-#;
#X obj 36 24 inlet;
#X obj 1151 714 ../setting;
#X msg 87 82 1;
#X obj 304 480 f;
#X obj 87 107 t f f;
#X msg 161 304 play \$1;
#X obj 169 24 r tick-16;
#X obj 169 253 ../../common/queued-open;
#X obj 463 284 ../../controller/subpart-selector;
#X obj 691 24 loadbang;
#X obj 1183 509 ../../kp3/program;
#X obj 1182 449 ../../kp3/pad-on;
#X obj 237 168 ../../kp3/pad-off;
#X obj 139 107 t b b;
#X obj 658 714 ../../kp3/touch;
#X msg 1183 477 b 0 \, p 28;
#X msg 576 647 0 0;
#X msg 616 647 0 7;
#X obj 576 24 r tick;
#X obj 576 525 f 0;
#X obj 617 525 + 1;
#X obj 576 556 mod 4;
#X obj 576 480 spigot 0;
#X msg 589 451 0;
#X msg 629 451 1;
#X obj 389 170 t b b b b b b b b b;
#X msg 658 647 0 7;
#X msg 703 647 7 7;
#X obj 36 57 ../../common/step-seq-sel-3 \$0;
#X obj 576 600 route 2 0;
#X msg 402 600 swing \$1;
#X obj 809 525 ../../common/lfo;
#X obj 402 480 spigot 0;
#X msg 816 451 0;
#X obj 809 480 spigot 0;
#X obj 809 24 r tick-4;
#X msg 918 480 wave 0 \, range 50 \, step 5;
#X msg 862 451 1;
#X obj 250 24 r tick-48;
#X obj 250 417 spigot;
#X msg 265 386 1;
#X msg 305 386 0;
#X msg 931 646 0 0 0 1 \, triplets 0 1 0 0;
#X obj 882 241 t b b b b;
#X msg 902 298 60 4 0;
#X msg 882 272 85 3 0;
#X msg 922 322 14 9 0;
#X msg 942 348 100 10 0;
#X obj 1020 241 t b b;
#X obj 304 714 ../../common/step-seq-player \$0;
#X msg 902 607 size 16 \, -1 -1 1 -1 -1 -1 1 -1 -1 -1 1 -1 1 1 -1 1
;
#X msg 322 556 size 4 \, 0 0 0 1;
#X msg 304 525 ch \$1;
#X msg 318 219 0;
#X msg 350 219 1;
#X obj 565 374 t b b b;
#X obj 243 107 t f f;
#X msg 943 569 size 8 \, 1 -1 -1 1 -1 -1 1 -1;
#X obj 647 398 t b b b;
#X msg 1020 272 95 3 1;
#X msg 1052 297 40 10 1;
#X msg 691 241 gran 1 \, min 0 \, max 7;
#X obj 463 331 select 0 1 2 3 4 5 6 7;
#X obj 1323 511 ../../common/lfo;
#X msg 1330 437 0;
#X obj 1323 466 spigot 0;
#X msg 1376 437 1;
#X obj 1323 24 r tick-8;
#X obj 463 307 t f b b;
#X obj 886 413 t b b;
#X obj 1400 399 t b b;
#X msg 1432 541 \$1 0 1;
#X msg 1432 434 wave 100 \, range 200 \, pos 25 \, step 1 \, cut 130
, f 20;
#X obj 463 24 r enc-1;
#X obj 402 253 ../../common/encoded-swing;
#X obj 402 24 r enc-8;
#X connect 0 0 4 1;
#X connect 1 0 29 0;
#X connect 3 0 5 0;
#X connect 4 0 53 0;
#X connect 5 0 8 1;
#X connect 5 1 6 0;
#X connect 6 0 50 0;
#X connect 7 0 8 0;
#X connect 8 0 50 0;
#X connect 9 0 69 0;
#X connect 10 0 62 0;
#X connect 14 0 54 0;
#X connect 14 1 34 0;
#X connect 16 0 11 0;
#X connect 17 0 15 0;
#X connect 18 0 15 0;
#X connect 19 0 23 0;
#X connect 20 0 21 0;
#X connect 20 0 22 0;
#X connect 21 0 20 1;
#X connect 22 0 30 0;
#X connect 23 0 20 0;
#X connect 24 0 23 1;
#X connect 25 0 23 1;
#X connect 26 0 52 0;
#X connect 26 1 4 0;
#X connect 26 2 17 0;
#X connect 26 3 62 0;
#X connect 26 4 16 0;
#X connect 26 5 12 0;
#X connect 26 6 44 0;
#X connect 26 8 49 0;
#X connect 27 0 15 0;
#X connect 28 0 15 0;
#X connect 29 0 26 0;
#X connect 29 1 3 0;
#X connect 29 1 41 0;
#X connect 29 2 14 0;
#X connect 29 2 42 0;
#X connect 29 3 50 4;
#X connect 29 4 57 0;
#X connect 30 0 17 0;
#X connect 30 1 18 0;
#X connect 31 0 50 0;
#X connect 32 1 31 0;
#X connect 33 0 31 0;
#X connect 34 0 35 1;
#X connect 35 0 32 0;
#X connect 36 0 35 0;
#X connect 37 0 32 1;
#X connect 38 0 35 1;
#X connect 39 0 40 0;
#X connect 40 0 50 1;
#X connect 41 0 40 1;
#X connect 42 0 40 1;
#X connect 44 0 46 0;
#X connect 44 1 45 0;
#X connect 44 2 47 0;
#X connect 44 3 48 0;
#X connect 45 0 2 0;
#X connect 46 0 2 0;
#X connect 47 0 2 0;
#X connect 48 0 2 0;
#X connect 49 0 60 0;
#X connect 49 1 61 0;
#X connect 51 0 50 0;
#X connect 52 0 50 0;
#X connect 53 0 50 0;
#X connect 54 0 8 1;
#X connect 55 0 8 1;
#X connect 56 0 55 0;
#X connect 56 1 51 0;
#X connect 56 2 54 0;
#X connect 57 0 33 1;
#X connect 57 1 9 1;
#X connect 58 0 50 0;
#X connect 59 1 58 0;
#X connect 60 0 2 0;
#X connect 61 0 2 0;
#X connect 62 0 9 2;
#X connect 63 0 24 0;
#X connect 63 0 52 0;
#X connect 63 1 25 0;
#X connect 63 2 24 0;
#X connect 63 2 27 0;
#X connect 63 3 28 0;
#X connect 63 4 70 0;
#X connect 63 5 56 0;
#X connect 63 6 59 0;
#X connect 63 7 71 0;
#X connect 64 1 72 0;
#X connect 65 0 66 1;
#X connect 66 0 64 0;
#X connect 67 0 66 1;
#X connect 68 0 66 0;
#X connect 69 0 63 0;
#X connect 69 1 34 0;
#X connect 69 2 65 0;
#X connect 70 0 38 0;
#X connect 70 1 37 0;
#X connect 71 0 67 0;
#X connect 71 1 73 0;
#X connect 72 0 2 0;
#X connect 73 0 64 1;
#X connect 74 0 9 0;
#X connect 75 0 33 0;
#X connect 76 0 75 0;
