#N canvas 516 189 1144 454 12;
#X obj 41 12 inlet;
#X obj 41 61 t b b b b b b b b;
#X text 94 8 arm/reset;
#X obj 296 14 inlet;
#X text 351 10 spigot;
#X obj 52 177 ../../../controller/cc-filter;
#X obj 252 150 r beat-#;
#X obj 52 204 ../tracks/drum-3-delay;
#X msg 152 150 60;
#X obj 41 294 t b b b b;
#X obj 296 294 t f f f f;
#X connect 0 0 1 0;
#X connect 1 0 9 0;
#X connect 1 1 8 0;
#X connect 3 0 5 0;
#X connect 3 0 10 0;
#X connect 5 0 7 0;
#X connect 6 0 5 2;
#X connect 8 0 5 1;
