#N canvas 196 151 1459 716 12;
#X obj 114 166 r beat-#;
#X obj 176 166 r model-1-#;
#X msg 261 166 13 13 33;
#X obj 60 138 t b b;
#X obj 821 407 r beat-#;
#X obj 883 407 r amb-1-#;
#X obj 767 379 t b b;
#X msg 60 166 21 80;
#X obj 60 199 ../../../controller/rel-enc-xlate;
#X obj 767 440 ../../../controller/rel-enc-xlate;
#X msg 955 407 13 13 80;
#X obj 1154 166 r beat-#;
#X obj 1100 138 t b b;
#X obj 1100 199 ../../../controller/rel-enc-xlate;
#X obj 1216 166 r model-4-#;
#X obj 96 407 r beat-#;
#X obj 68 471 ../../../controller/rel-enc-xlate;
#X obj 158 407 r model-5-#;
#X obj 167 506 r beat-#;
#X obj 102 532 ../../../controller/rel-enc-xlate;
#X obj 229 506 r model-5-#;
#X msg 314 506 0 0 127;
#X msg 377 506 64 127;
#X obj 145 586 ../../../controller/rel-enc-xlate;
#X obj 68 440 t f f f;
#X obj 42 379 t b b b b b b b;
#X obj 272 559 r amb-2-#;
#X obj 196 559 r beat-#;
#X msg 357 559 0 0 33;
#X msg 42 407 25 7;
#X msg 113 506 25 16;
#X msg 156 559 25 7;
#X msg 1100 166 24 7;
#X msg 767 407 27 83;
#X obj 42 13 inlet;
#X text 94 8 arm/reset;
#X obj 296 14 inlet;
#X text 351 10 spigot;
#X obj 42 297 t b b b b;
#X obj 296 298 t f f f f;
#X obj 42 58 t b b b b b;
#X msg 243 407 0 0 95;
#X msg 1301 166 60 60 70;
#X connect 0 0 8 2;
#X connect 1 0 8 3;
#X connect 2 0 8 4;
#X connect 3 0 7 0;
#X connect 3 1 2 0;
#X connect 4 0 9 2;
#X connect 5 0 9 3;
#X connect 6 0 33 0;
#X connect 6 1 10 0;
#X connect 7 0 8 1;
#X connect 10 0 9 4;
#X connect 11 0 13 2;
#X connect 12 0 32 0;
#X connect 12 1 42 0;
#X connect 14 0 13 3;
#X connect 15 0 16 2;
#X connect 17 0 16 3;
#X connect 18 0 19 2;
#X connect 20 0 19 3;
#X connect 21 0 19 4;
#X connect 22 0 19 5;
#X connect 24 0 16 0;
#X connect 24 1 19 0;
#X connect 24 2 23 0;
#X connect 25 0 29 0;
#X connect 25 1 41 0;
#X connect 25 2 30 0;
#X connect 25 3 21 0;
#X connect 25 4 22 0;
#X connect 25 5 31 0;
#X connect 25 6 28 0;
#X connect 26 0 23 3;
#X connect 27 0 23 2;
#X connect 28 0 23 4;
#X connect 29 0 16 1;
#X connect 30 0 19 1;
#X connect 31 0 23 1;
#X connect 32 0 13 1;
#X connect 33 0 9 1;
#X connect 34 0 40 0;
#X connect 36 0 39 0;
#X connect 36 0 13 0;
#X connect 36 0 8 0;
#X connect 38 0 25 0;
#X connect 38 2 6 0;
#X connect 39 0 25 0;
#X connect 39 1 24 0;
#X connect 39 2 9 0;
#X connect 40 0 38 0;
#X connect 40 1 3 0;
#X connect 40 4 12 0;
#X connect 41 0 16 4;
#X connect 42 0 13 4;
