#N canvas 196 151 1137 716 12;
#X obj 125 501 r beat-#;
#X obj 102 532 ../../../controller/rel-enc-xlate;
#X obj 187 501 r model-5-#;
#X obj 42 13 inlet;
#X text 94 8 arm/reset;
#X obj 296 14 inlet;
#X text 351 10 spigot;
#X obj 42 297 t b b b b;
#X obj 296 298 t f f f f;
#X obj 42 58 t b b b b b;
#X msg 71 501 33 16;
#X obj 42 379 t b b b b;
#X msg 361 501 74 100;
#X msg 272 501 100 74 100;
#X connect 0 0 1 2;
#X connect 2 0 1 3;
#X connect 3 0 9 0;
#X connect 5 0 8 0;
#X connect 7 0 11 0;
#X connect 8 0 11 0;
#X connect 8 1 1 0;
#X connect 9 0 7 0;
#X connect 10 0 1 1;
#X connect 11 0 10 0;
#X connect 11 1 13 0;
#X connect 11 2 12 0;
#X connect 11 3 1 7;
#X connect 12 0 1 5;
#X connect 13 0 1 4;
