#N canvas 4 76 1712 943 12;
#X obj 279 212 r beat-#;
#X msg 237 117 1;
#X obj 41 12 inlet;
#X obj 41 47 ../../../common/step-seq-sel-3 \$0;
#X obj 520 117 t b b b b b b b b;
#X obj 81 389 t b b b b b b b b;
#X obj 117 80 t b b;
#X obj 164 80 t b b;
#X msg 278 117 0;
#X obj 341 212 r model-1-#;
#X msg 426 212 13 13 33;
#X obj 61 574 t b b b b b b b b;
#X obj 178 711 r beat-#;
#X obj 246 711 r model-1-#;
#X msg 123 711 52 94;
#X msg 195 574 1;
#X msg 232 574 0;
#X obj 399 711 r beat-#;
#X obj 467 711 r model-2-#;
#X msg 344 711 53 94;
#X obj 620 711 r beat-#;
#X obj 688 711 r model-3-#;
#X msg 565 711 54 94;
#X obj 835 711 r beat-#;
#X obj 903 711 r model-4-#;
#X msg 780 711 55 94;
#X obj 177 776 r beat-#;
#X obj 245 776 r model-5-#;
#X msg 122 776 56 94;
#X obj 402 776 r beat-#;
#X obj 470 776 r model-6-#;
#X msg 347 776 57 94;
#X msg 210 605 \$1;
#X msg 237 148 \$1;
#X obj 225 184 t b b;
#X obj 1333 607 r beat-#;
#X obj 1395 607 r amb-1-#;
#X obj 1279 579 t b b;
#X text 763 10 channel 16 from circuit tracks \, pgmin changes with
song \, that can be used to change this mapping;
#X msg 225 212 21 80;
#X obj 225 245 ../../../controller/rel-enc-xlate;
#X obj 1279 634 ../../../controller/rel-enc-xlate;
#X obj 121 737 ../../../controller/cc-xlate;
#X obj 347 737 ../../../controller/cc-xlate;
#X obj 567 737 ../../../controller/cc-xlate;
#X obj 784 737 ../../../controller/cc-xlate;
#X obj 348 803 ../../../controller/cc-xlate;
#X obj 122 803 ../../../controller/cc-xlate;
#X obj 565 803 ../../../controller/cc-filter;
#X obj 765 776 r beat-#;
#X msg 665 776 58;
#X msg 1467 607 13 13 80;
#X obj 961 212 r beat-#;
#X obj 907 184 t b b;
#X obj 907 245 ../../../controller/rel-enc-xlate;
#X obj 1420 30 notein;
#X msg 1108 212 0 0 60;
#X obj 1023 212 r model-4-#;
#X obj 565 830 ../ambika/pad-7-syn1-settings;
#X obj 41 80 t b b b b;
#X obj 1255 212 r beat-#;
#X obj 1227 276 ../../../controller/rel-enc-xlate;
#X obj 1317 212 r model-5-#;
#X obj 1326 311 r beat-#;
#X obj 1261 337 ../../../controller/rel-enc-xlate;
#X obj 1388 311 r model-5-#;
#X msg 1473 311 0 0 127;
#X msg 1536 311 64 127;
#X obj 1304 391 ../../../controller/rel-enc-xlate;
#X obj 1227 245 t f f f;
#X obj 1201 184 t b b b b b b b;
#X obj 1431 364 r amb-2-#;
#X obj 1355 364 r beat-#;
#X msg 1516 364 0 0 33;
#X msg 1402 212 0 0 100;
#X msg 1201 212 25 7;
#X msg 1272 311 25 16;
#X msg 1315 364 25 7;
#X msg 907 212 24 7;
#X msg 1279 607 27 83;
#X obj 298 47 r reset-song;
#X msg 565 770 1;
#X connect 0 0 40 2;
#X connect 1 0 33 0;
#X connect 2 0 3 0;
#X connect 3 0 59 0;
#X connect 3 1 6 0;
#X connect 3 2 7 0;
#X connect 4 0 34 0;
#X connect 4 2 53 0;
#X connect 4 4 70 0;
#X connect 4 6 37 0;
#X connect 6 0 15 0;
#X connect 6 1 1 0;
#X connect 7 0 16 0;
#X connect 7 1 8 0;
#X connect 8 0 33 0;
#X connect 9 0 40 3;
#X connect 10 0 40 4;
#X connect 11 0 14 0;
#X connect 11 1 19 0;
#X connect 11 2 22 0;
#X connect 11 3 25 0;
#X connect 11 4 28 0;
#X connect 11 5 31 0;
#X connect 11 6 50 0;
#X connect 12 0 42 2;
#X connect 13 0 42 3;
#X connect 14 0 42 1;
#X connect 15 0 32 0;
#X connect 16 0 32 0;
#X connect 17 0 43 2;
#X connect 18 0 43 3;
#X connect 19 0 43 1;
#X connect 20 0 44 2;
#X connect 21 0 44 3;
#X connect 22 0 44 1;
#X connect 23 0 45 2;
#X connect 24 0 45 3;
#X connect 25 0 45 1;
#X connect 26 0 47 2;
#X connect 27 0 47 3;
#X connect 28 0 47 1;
#X connect 29 0 46 2;
#X connect 30 0 46 3;
#X connect 31 0 46 1;
#X connect 32 0 42 0;
#X connect 32 0 43 0;
#X connect 32 0 44 0;
#X connect 32 0 45 0;
#X connect 32 0 46 0;
#X connect 32 0 47 0;
#X connect 32 0 48 0;
#X connect 33 0 69 0;
#X connect 33 0 40 0;
#X connect 33 0 54 0;
#X connect 33 0 41 0;
#X connect 34 0 39 0;
#X connect 34 1 10 0;
#X connect 35 0 41 2;
#X connect 36 0 41 3;
#X connect 37 0 79 0;
#X connect 37 1 51 0;
#X connect 39 0 40 1;
#X connect 48 0 58 0;
#X connect 49 0 48 2;
#X connect 50 0 48 1;
#X connect 51 0 41 4;
#X connect 52 0 54 2;
#X connect 53 0 78 0;
#X connect 53 1 56 0;
#X connect 56 0 54 4;
#X connect 57 0 54 3;
#X connect 59 1 11 0;
#X connect 59 2 5 0;
#X connect 59 3 4 0;
#X connect 60 0 61 2;
#X connect 62 0 61 3;
#X connect 63 0 64 2;
#X connect 65 0 64 3;
#X connect 66 0 64 4;
#X connect 67 0 64 5;
#X connect 69 0 61 0;
#X connect 69 1 64 0;
#X connect 69 2 68 0;
#X connect 70 0 75 0;
#X connect 70 1 74 0;
#X connect 70 2 76 0;
#X connect 70 3 66 0;
#X connect 70 4 67 0;
#X connect 70 5 77 0;
#X connect 70 6 73 0;
#X connect 71 0 68 3;
#X connect 72 0 68 2;
#X connect 73 0 68 4;
#X connect 74 0 61 4;
#X connect 75 0 61 1;
#X connect 76 0 64 1;
#X connect 77 0 68 1;
#X connect 78 0 54 1;
#X connect 79 0 41 1;
#X connect 80 0 59 0;
#X connect 81 0 48 0;
