#N canvas 76 194 900 463 12;
#X msg 140 116 1;
#X obj 41 12 inlet;
#X obj 41 47 ../../../common/step-seq-sel-3 \$0;
#X msg 181 116 0;
#X msg 140 147 \$1;
#X text 425 15 channel 16 from circuit tracks \, pgmin changes with
song \, that can be used to change this mapping;
#X obj 41 80 t b b b b;
#X obj 298 47 r reset-song;
#X obj 185 81 t b b b;
#X obj 117 80 t b b b;
#X obj 41 239 enc-row-1;
#X obj 61 271 enc-row-2;
#X obj 81 349 pad-row-1;
#X obj 101 385 pad-row-2;
#X connect 0 0 4 0;
#X connect 1 0 2 0;
#X connect 2 0 6 0;
#X connect 2 1 9 0;
#X connect 2 2 8 0;
#X connect 3 0 4 0;
#X connect 4 0 10 1;
#X connect 4 0 12 1;
#X connect 4 0 13 1;
#X connect 4 0 11 1;
#X connect 6 0 10 0;
#X connect 6 1 11 0;
#X connect 6 2 12 0;
#X connect 6 3 13 0;
#X connect 7 0 6 0;
#X connect 8 1 3 0;
#X connect 9 1 0 0;
