#N canvas 516 189 1144 633 12;
#X obj 41 12 inlet;
#X text 94 8 arm/reset;
#X obj 296 14 inlet;
#X text 351 10 spigot;
#X obj 38 410 ../../../controller/cc-filter;
#X obj 238 383 r beat-#;
#X obj 38 437 ../tracks/drum-3-delay;
#X obj 41 294 t b b b b;
#X obj 296 294 t f f f f;
#X obj 41 61 t b b b b b;
#X msg 138 383 63;
#X connect 0 0 9 0;
#X connect 2 0 8 0;
#X connect 4 0 6 0;
#X connect 5 0 4 2;
#X connect 7 0 10 0;
#X connect 8 0 4 0;
#X connect 9 0 7 0;
#X connect 10 0 4 1;
