#N canvas 105 175 1305 657 12;
#X obj 41 12 inlet;
#X obj 114 243 r beat-#;
#X obj 182 243 r model-1-#;
#X msg 59 243 52 94;
#X obj 335 243 r beat-#;
#X obj 403 243 r model-2-#;
#X msg 280 243 53 94;
#X obj 556 243 r beat-#;
#X obj 624 243 r model-3-#;
#X msg 501 243 54 94;
#X obj 847 243 r beat-#;
#X obj 915 243 r model-4-#;
#X msg 792 243 55 94;
#X obj 96 427 r beat-#;
#X obj 164 427 r model-5-#;
#X msg 41 427 56 94;
#X obj 321 427 r beat-#;
#X obj 389 427 r model-6-#;
#X msg 266 427 57 94;
#X obj 484 454 ../../../controller/cc-filter;
#X obj 684 427 r beat-#;
#X msg 584 427 58;
#X obj 484 481 ../ambika/pad-7-syn1-settings;
#X text 94 8 arm/reset;
#X obj 296 14 inlet;
#X text 351 10 spigot;
#X obj 41 329 t b b b b;
#X obj 297 329 t f f f f;
#X obj 41 61 t b b b b b;
#X obj 57 269 ../../../samples/mute;
#X obj 283 269 ../../../samples/mute;
#X obj 503 269 ../../../samples/mute;
#X obj 796 269 ../../../samples/mute;
#X obj 41 454 ../../../samples/mute;
#X obj 267 454 ../../../samples/mute;
#X connect 0 0 28 0;
#X connect 1 0 29 2;
#X connect 2 0 29 3;
#X connect 3 0 29 1;
#X connect 4 0 30 2;
#X connect 5 0 30 3;
#X connect 6 0 30 1;
#X connect 7 0 31 2;
#X connect 8 0 31 3;
#X connect 9 0 31 1;
#X connect 10 0 32 2;
#X connect 11 0 32 3;
#X connect 12 0 32 1;
#X connect 13 0 33 2;
#X connect 14 0 33 3;
#X connect 15 0 33 1;
#X connect 16 0 34 2;
#X connect 17 0 34 3;
#X connect 18 0 34 1;
#X connect 19 0 22 0;
#X connect 20 0 19 2;
#X connect 21 0 19 1;
#X connect 24 0 27 0;
#X connect 24 0 29 0;
#X connect 24 0 30 0;
#X connect 24 0 31 0;
#X connect 24 0 32 0;
#X connect 26 0 15 0;
#X connect 26 1 18 0;
#X connect 26 2 21 0;
#X connect 27 0 33 0;
#X connect 27 1 34 0;
#X connect 27 2 19 0;
#X connect 28 0 26 0;
#X connect 28 1 3 0;
#X connect 28 2 6 0;
#X connect 28 3 9 0;
#X connect 28 4 12 0;
