#N canvas 264 308 477 299 12;
#X obj 186 9 inlet;
#X text 231 8 env;
#X obj 24 9 inlet;
#X obj 24 153 unpack 0 0 0 0;
#X obj 186 42 sel 1 2 3;
#X msg 206 92 81 83 78 80;
#X msg 226 117 89 91 86 88;
#X obj 340 9 inlet #;
#X obj 104 227 ctlout;
#X obj 158 228 ctlout;
#X obj 213 228 ctlout;
#X obj 267 227 ctlout;
#X text 71 8 adsr;
#X obj 340 153 t f f f f;
#X obj 186 153 unpack 0 0 0 0;
#X msg 186 68 73 75 70 72;
#X connect 0 0 4 0;
#X connect 2 0 3 0;
#X connect 3 0 8 0;
#X connect 3 1 9 0;
#X connect 3 2 10 0;
#X connect 3 3 11 0;
#X connect 4 0 15 0;
#X connect 4 1 5 0;
#X connect 4 2 6 0;
#X connect 5 0 14 0;
#X connect 6 0 14 0;
#X connect 7 0 13 0;
#X connect 13 0 8 2;
#X connect 13 1 9 2;
#X connect 13 2 10 2;
#X connect 13 3 11 2;
#X connect 14 0 8 1;
#X connect 14 1 9 1;
#X connect 14 2 10 1;
#X connect 14 3 11 1;
#X connect 15 0 14 0;
