#N canvas 821 354 384 293 10;
#X obj 53 29 inlet;
#X text 99 28 bank \, program;
#X obj 53 211 pc;
#X obj 53 61 unpack 0 0;
#X obj 53 85 + 26;
#X obj 53 114 pack 0 0;
#X obj 194 24 r amb-2-#;
#X connect 0 0 3 0;
#X connect 3 0 4 0;
#X connect 3 1 5 1;
#X connect 4 0 5 0;
#X connect 5 0 2 0;
#X connect 6 0 2 1;
