#N canvas 929 495 384 255 10;
#X obj 80 205 ctlout;
#X obj 151 205 pgmout;
#X obj 53 29 inlet;
#X obj 232 29 loadbang;
#X text 192 204 program;
#X text 99 28 bank \, program;
#X msg 232 62 0;
#X obj 311 29 inlet;
#X obj 53 62 unpack 0 0;
#X obj 95 136 f;
#X obj 53 86 t b f;
#X connect 2 0 8 0;
#X connect 3 0 6 0;
#X connect 6 0 0 1;
#X connect 7 0 0 2;
#X connect 7 0 1 1;
#X connect 8 0 10 0;
#X connect 8 1 9 1;
#X connect 9 0 1 0;
#X connect 10 0 9 0;
#X connect 10 1 0 0;
