#N canvas 795 388 384 195 10;
#X obj 93 145 ctlout;
#X obj 182 145 pgmout;
#X obj 53 29 inlet;
#X obj 232 29 loadbang;
#X text 223 144 program;
#X text 99 28 bank \, program;
#X obj 53 62 route b p;
#X msg 232 62 0;
#X obj 311 29 r amb-1-#;
#X connect 2 0 6 0;
#X connect 3 0 7 0;
#X connect 6 0 0 0;
#X connect 6 1 1 0;
#X connect 7 0 0 1;
#X connect 8 0 0 2;
#X connect 8 0 1 1;
