#N canvas 712 292 384 328 10;
#X obj 53 29 inlet;
#X text 99 28 bank \, program;
#X obj 194 24 r amb-1-#;
#X obj 53 104 pc;
#X msg 156 70 b 0 \, p 1;
#X connect 0 0 3 0;
#X connect 2 0 3 1;
#X connect 4 0 3 0;
