#N canvas 76 194 900 463 12;
#X obj 41 12 inlet;
#X obj 41 47 ../../../common/step-seq-sel-3 \$0;
#X text 425 15 channel 16 from circuit tracks \, pgmin changes with
song \, that can be used to change this mapping;
#X obj 41 80 t b b b b;
#X obj 89 12 ../reset-song;
#X obj 117 80 t b b b b;
#X obj 188 81 t b b b b;
#X obj 41 239 drum-enc-1;
#X obj 61 271 drum-enc-1;
#X obj 81 349 drum-pad-1;
#X obj 101 385 drum-pad-2;
#X connect 0 0 1 0;
#X connect 1 0 3 0;
#X connect 1 1 5 0;
#X connect 1 2 6 0;
#X connect 3 0 7 0;
#X connect 3 1 8 0;
#X connect 3 2 9 0;
#X connect 3 3 10 0;
#X connect 4 0 3 0;
#X connect 5 0 7 1;
#X connect 5 1 8 1;
#X connect 5 2 9 1;
#X connect 5 3 10 1;
#X connect 6 0 7 2;
#X connect 6 1 8 2;
#X connect 6 2 9 2;
#X connect 6 3 10 2;
