#N canvas 171 118 1305 765 12;
#X obj 41 12 inlet;
#X text 89 11 arm/reset;
#X obj 41 329 t b b b b;
#X obj 296 329 t f f f f;
#X obj 41 74 t b b b b b;
#X obj 296 74 t f f f f f;
#X obj 296 12 inlet;
#X obj 531 12 inlet;
#X text 339 11 play;
#X text 573 11 stop;
#X obj 413 329 t b b b b;
#X obj 296 38 ../../../routings/play-stop-spigot;
#X obj 413 74 t b b b b b;
#X msg 564 163 44;
#X obj 212 243 print on;
#X obj 340 245 print off;
#X obj 516 189 ../../../beat/beat-mute-note;
#X obj 709 163 r tr08-#;
#X connect 0 0 4 0;
#X connect 4 0 2 0;
#X connect 5 0 3 0;
#X connect 5 1 16 0;
#X connect 6 0 11 0;
#X connect 7 0 11 1;
#X connect 11 0 5 0;
#X connect 11 1 12 0;
#X connect 12 0 10 0;
#X connect 13 0 16 1;
#X connect 17 0 16 4;
