#N canvas 104 113 1459 843 12;
#X obj 815 537 r beat-#;
#X obj 877 537 r amb-1-#;
#X obj 761 573 ../../../controller/rel-enc-xlate;
#X obj 86 537 r beat-#;
#X obj 68 573 ../../../controller/rel-enc-xlate;
#X obj 148 537 r model-5-#;
#X msg 42 537 25 7;
#X obj 42 13 inlet;
#X text 94 8 arm/reset;
#X obj 296 14 inlet;
#X text 351 10 spigot;
#X obj 42 396 t b b b b;
#X obj 296 397 t f f f f;
#X obj 1178 537 r beat-#;
#X obj 1240 537 r amb-1-#;
#X obj 1124 573 ../../../controller/rel-enc-xlate;
#X msg 761 537 27 74;
#X msg 1124 537 28 71;
#X msg 949 537 57 57 110;
#X text 1023 536 cut off;
#X text 1384 536 res;
#X obj 761 507 t b b;
#X obj 1124 507 t b b;
#X msg 1312 537 58 58 127;
#X obj 42 58 t b b b b b b b;
#X obj 296 58 t f f f f f f f;
#X obj 42 507 t b b;
#X msg 238 537 60 50 70;
#X obj 372 573 ../../../controller/rel-enc-xlate;
#X obj 447 537 r beat-#;
#X obj 514 537 r amb-1-#;
#X msg 590 537 72 40 72;
#X obj 404 507 t b b;
#X text 659 536 volume;
#X msg 404 537 26 7;
#X connect 0 0 2 2;
#X connect 1 0 2 3;
#X connect 3 0 4 2;
#X connect 5 0 4 3;
#X connect 6 0 4 1;
#X connect 7 0 24 0;
#X connect 9 0 25 0;
#X connect 11 0 26 0;
#X connect 11 1 32 0;
#X connect 11 2 21 0;
#X connect 11 3 22 0;
#X connect 12 0 4 0;
#X connect 12 1 28 0;
#X connect 12 2 2 0;
#X connect 12 3 15 0;
#X connect 13 0 15 2;
#X connect 14 0 15 3;
#X connect 16 0 2 1;
#X connect 17 0 15 1;
#X connect 18 0 2 4;
#X connect 21 0 16 0;
#X connect 21 1 18 0;
#X connect 22 0 17 0;
#X connect 22 1 23 0;
#X connect 23 0 15 4;
#X connect 24 0 11 0;
#X connect 25 0 12 0;
#X connect 26 0 6 0;
#X connect 26 1 27 0;
#X connect 27 0 4 4;
#X connect 29 0 28 2;
#X connect 30 0 28 3;
#X connect 31 0 28 4;
#X connect 32 0 34 0;
#X connect 32 1 31 0;
#X connect 34 0 28 1;
