#N canvas 104 113 1459 843 12;
#X obj 86 537 r beat-#;
#X obj 68 573 ../../../controller/rel-enc-xlate;
#X obj 148 537 r model-5-#;
#X msg 42 537 25 7;
#X obj 42 13 inlet;
#X text 94 8 arm/reset;
#X obj 296 14 inlet;
#X text 351 10 spigot;
#X obj 42 396 t b b b b;
#X obj 296 397 t f f f f;
#X obj 42 58 t b b b b b b b;
#X obj 296 58 t f f f f f f f;
#X obj 42 507 t b b;
#X msg 238 537 60 50 70;
#X connect 0 0 1 2;
#X connect 2 0 1 3;
#X connect 3 0 1 1;
#X connect 4 0 10 0;
#X connect 6 0 11 0;
#X connect 8 0 12 0;
#X connect 9 0 1 0;
#X connect 10 0 8 0;
#X connect 11 0 9 0;
#X connect 12 0 3 0;
#X connect 12 1 13 0;
#X connect 13 0 1 4;
