#N canvas 325 330 1137 716 12;
#X obj 42 13 inlet;
#X text 94 8 arm/reset;
#X obj 296 14 inlet;
#X text 351 10 spigot;
#X obj 42 297 t b b b b;
#X obj 296 298 t f f f f;
#X obj 42 58 t b b b b b;
#X obj 296 58 t f f f f f;
#X obj 176 131 r beat-#;
#X obj 64 204 ../../../controller/rel-enc-xlate-nrpn;
#X obj 214 155 r tr-s1-#;
#X text 64 223 mod2-depth;
#X msg 251 180 63 0 63;
#X msg 101 180 29;
#X obj 101 110 t b b b;
#X msg 139 180 1 91;
#X connect 0 0 6 0;
#X connect 2 0 7 0;
#X connect 6 0 4 0;
#X connect 6 1 14 0;
#X connect 7 0 5 0;
#X connect 7 1 9 0;
#X connect 8 0 9 3;
#X connect 10 0 9 4;
#X connect 12 0 9 5;
#X connect 13 0 9 1;
#X connect 14 0 13 0;
#X connect 14 1 15 0;
#X connect 14 2 12 0;
#X connect 15 0 9 2;
