#N canvas 189 22 1534 872 12;
#X obj 42 13 inlet;
#X text 94 12 arm/reset;
#X obj 296 13 inlet;
#X text 351 12 spigot;
#X obj 42 297 t b b b b;
#X obj 296 298 t f f f f;
#X obj 42 58 t b b b b b;
#X obj 296 58 t f f f f f;
#X obj 176 131 r beat-#;
#X obj 64 204 ../../../controller/rel-enc-xlate-nrpn;
#X obj 214 155 r tr-s1-#;
#X text 64 223 mod2-depth;
#X msg 251 180 63 0 63;
#X msg 101 180 29;
#X obj 101 110 t b b b;
#X msg 139 180 1 91;
#X obj 491 131 r beat-#;
#X obj 379 204 ../../../controller/rel-enc-xlate-nrpn;
#X obj 529 155 r tr-s1-#;
#X obj 416 110 t b b b;
#X msg 416 180 30;
#X msg 454 180 0 76;
#X msg 566 180 81 0 100;
#X text 379 223 lfo1-rate;
#X obj 523 13 r reset-s2;
#X obj 972 165 r beat-#;
#X obj 1034 165 r amb-1-#;
#X obj 913 204 ../../../controller/rel-enc-xlate;
#X obj 913 131 t b b;
#X msg 915 165 32 3;
#X msg 1106 165 9 12 50;
#X obj 688 204 ../ambika/part-1-envs-2-3;
#X text 912 223 env2-filter;
#X connect 0 0 6 0;
#X connect 2 0 7 0;
#X connect 6 0 4 0;
#X connect 6 1 14 0;
#X connect 6 2 19 0;
#X connect 6 3 31 0;
#X connect 6 4 28 0;
#X connect 7 0 5 0;
#X connect 7 1 9 0;
#X connect 7 2 17 0;
#X connect 7 3 31 1;
#X connect 7 4 27 0;
#X connect 8 0 9 3;
#X connect 10 0 9 4;
#X connect 12 0 9 5;
#X connect 13 0 9 1;
#X connect 14 0 13 0;
#X connect 14 1 15 0;
#X connect 14 2 12 0;
#X connect 15 0 9 2;
#X connect 16 0 17 3;
#X connect 18 0 17 4;
#X connect 19 0 20 0;
#X connect 19 1 21 0;
#X connect 19 2 22 0;
#X connect 20 0 17 1;
#X connect 21 0 17 2;
#X connect 22 0 17 5;
#X connect 24 0 19 0;
#X connect 25 0 27 2;
#X connect 26 0 27 3;
#X connect 28 0 29 0;
#X connect 28 1 30 0;
#X connect 29 0 27 1;
#X connect 30 0 27 4;
