#N canvas 253 152 1113 731 12;
#X obj 42 13 inlet;
#X text 82 12 arm/reset;
#X obj 296 13 inlet;
#X obj 42 396 t b b b b;
#X obj 296 396 t f f f f;
#X obj 531 14 inlet;
#X text 339 12 play;
#X text 573 13 stop;
#X obj 487 396 t b b b b;
#X obj 42 69 t b b b b b;
#X obj 296 69 t f f f f f;
#X obj 296 42 ../../../routings/play-stop-spigot;
#X obj 413 69 t b b b b b;
#X obj 165 129 r beat-#;
#X obj 53 202 ../../../controller/rel-enc-xlate-nrpn;
#X obj 203 153 r tr-s1-#;
#X text 53 221 mod2-depth;
#X obj 60 113 t b b b;
#X msg 128 178 1 91;
#X msg 90 178 21;
#X obj 577 202 ../ambika/part-1-envs-2-3-enc;
#X obj 552 588 ../../../zoom/ctrl;
#X msg 675 559 1 3;
#X obj 552 528 ../../../controller/rel-enc;
#X obj 626 475 r beat-#;
#X obj 589 452 t b b b;
#X msg 663 500 6 6 70;
#X msg 589 500 27;
#X msg 240 178 63 0 63;
#X obj 64 582 ../../../zoom/ctrl;
#X obj 64 522 ../../../controller/rel-enc;
#X obj 138 469 r beat-#;
#X msg 101 494 25;
#X msg 187 553 2 5;
#X obj 102 614 ../../../zoom/ctrl;
#X obj 141 645 ../../../zoom/ctrl;
#X msg 225 585 2 6;
#X msg 264 616 2 7;
#X obj 101 446 t b b b b b;
#X obj 64 552 t f f f;
#X msg 175 494 12 12 21;
#X obj 854 167 r beat-#;
#X obj 800 202 ../../../controller/rel-enc-xlate;
#X obj 800 137 t b b;
#X text 799 225 syn2-send reverb;
#X obj 916 167 r tr-pr-#;
#X msg 800 167 24 32;
#X msg 988 167 0 0 76;
#X connect 0 0 9 0;
#X connect 2 0 11 0;
#X connect 3 0 38 0;
#X connect 3 2 25 0;
#X connect 4 0 30 0;
#X connect 4 2 23 0;
#X connect 5 0 11 1;
#X connect 8 0 38 0;
#X connect 8 1 25 0;
#X connect 9 0 3 0;
#X connect 9 1 17 0;
#X connect 9 3 20 0;
#X connect 9 4 43 0;
#X connect 10 0 4 0;
#X connect 10 1 14 0;
#X connect 10 3 20 1;
#X connect 10 4 42 0;
#X connect 11 0 10 0;
#X connect 11 1 12 0;
#X connect 12 0 17 0;
#X connect 12 2 20 0;
#X connect 12 3 43 0;
#X connect 12 4 8 0;
#X connect 13 0 14 3;
#X connect 15 0 14 4;
#X connect 17 0 28 0;
#X connect 17 1 19 0;
#X connect 17 2 18 0;
#X connect 18 0 14 2;
#X connect 19 0 14 1;
#X connect 22 0 21 1;
#X connect 23 0 21 0;
#X connect 24 0 23 2;
#X connect 25 0 27 0;
#X connect 25 1 26 0;
#X connect 25 2 22 0;
#X connect 26 0 23 3;
#X connect 27 0 23 1;
#X connect 28 0 14 5;
#X connect 30 0 39 0;
#X connect 31 0 30 2;
#X connect 32 0 30 1;
#X connect 33 0 29 1;
#X connect 36 0 34 1;
#X connect 37 0 35 1;
#X connect 38 0 32 0;
#X connect 38 1 40 0;
#X connect 38 2 33 0;
#X connect 38 3 36 0;
#X connect 38 4 37 0;
#X connect 39 0 29 0;
#X connect 39 1 34 0;
#X connect 39 2 35 0;
#X connect 40 0 30 3;
#X connect 41 0 42 2;
#X connect 43 0 46 0;
#X connect 43 1 47 0;
#X connect 45 0 42 3;
#X connect 46 0 42 1;
#X connect 47 0 42 4;
