#N canvas 45 67 1250 706 12;
#X obj 42 13 inlet;
#X text 89 12 arm/reset;
#X obj 42 367 t b b b b;
#X obj 296 366 t f f f f;
#X obj 42 67 t b b b b b;
#X obj 296 67 t f f f f f;
#X obj 161 125 r beat-#;
#X obj 49 198 ../../../controller/rel-enc-xlate-nrpn;
#X obj 199 149 r tr-s1-#;
#X obj 78 103 t b b b;
#X msg 124 174 0 76;
#X text 50 217 lfo1-rate;
#X obj 661 170 r beat-#;
#X obj 723 170 r amb-1-#;
#X obj 602 198 ../../../controller/rel-enc-xlate;
#X obj 604 136 t b b;
#X text 602 217 env2-filter;
#X msg 795 170 12 12 48;
#X msg 236 174 61 0 100;
#X obj 296 13 inlet;
#X obj 531 13 inlet;
#X text 339 12 play;
#X text 573 12 stop;
#X obj 487 368 t b b b b;
#X obj 296 38 ../../../routings/play-stop-spigot;
#X obj 413 67 t b b b b b;
#X obj 86 492 r beat-#;
#X obj 41 525 ../../../controller/rel-enc-xlate;
#X obj 148 492 r model-5-#;
#X obj 42 462 t b b;
#X msg 238 492 60 50 70;
#X msg 86 174 29;
#X msg 604 170 31 3;
#X obj 1025 170 r beat-#;
#X obj 966 198 ../../../controller/rel-enc-xlate;
#X obj 968 136 t b b;
#X text 966 217 env2-filter;
#X obj 1087 170 r amb-2-#;
#X msg 968 170 32 3;
#X obj 388 492 r beat-#;
#X obj 340 525 ../../../controller/rel-enc-xlate;
#X obj 341 462 t b b;
#X obj 450 492 r model-6-#;
#X msg 42 492 33 7;
#X msg 341 492 34 20;
#X text 337 547 length;
#X text 40 547 vol+dist;
#X msg 1159 170 50 10 50;
#X msg 863 170 48;
#X obj 826 136 sel 0 1;
#X msg 900 170 12;
#X obj 826 108 r pad-2b-16;
#X msg 540 492 6 6 33;
#X connect 0 0 4 0;
#X connect 2 0 29 0;
#X connect 2 1 41 0;
#X connect 3 0 27 0;
#X connect 3 1 40 0;
#X connect 4 0 2 0;
#X connect 4 1 9 0;
#X connect 4 3 15 0;
#X connect 4 4 35 0;
#X connect 5 0 3 0;
#X connect 5 1 7 0;
#X connect 5 3 14 0;
#X connect 5 4 34 0;
#X connect 6 0 7 3;
#X connect 8 0 7 4;
#X connect 9 0 18 0;
#X connect 9 1 31 0;
#X connect 9 2 10 0;
#X connect 10 0 7 2;
#X connect 12 0 14 2;
#X connect 13 0 14 3;
#X connect 15 0 32 0;
#X connect 15 1 17 0;
#X connect 17 0 14 4;
#X connect 18 0 7 5;
#X connect 19 0 24 0;
#X connect 20 0 24 1;
#X connect 24 0 5 0;
#X connect 24 1 25 0;
#X connect 25 0 9 0;
#X connect 25 4 23 0;
#X connect 26 0 27 2;
#X connect 28 0 27 3;
#X connect 29 0 43 0;
#X connect 29 1 30 0;
#X connect 30 0 27 4;
#X connect 31 0 7 1;
#X connect 32 0 14 1;
#X connect 33 0 34 2;
#X connect 35 0 38 0;
#X connect 35 1 47 0;
#X connect 37 0 34 3;
#X connect 38 0 34 1;
#X connect 39 0 40 2;
#X connect 41 0 44 0;
#X connect 41 1 52 0;
#X connect 42 0 40 3;
#X connect 43 0 27 1;
#X connect 44 0 40 1;
#X connect 47 0 34 4;
#X connect 48 0 14 9;
#X connect 49 0 48 0;
#X connect 49 1 50 0;
#X connect 50 0 14 9;
#X connect 51 0 49 0;
#X connect 52 0 40 4;
