#N canvas 168 157 1459 843 12;
#X obj 86 537 r beat-#;
#X obj 68 573 ../../../controller/rel-enc-xlate;
#X obj 148 537 r model-5-#;
#X msg 42 537 25 7;
#X obj 42 13 inlet;
#X text 82 12 arm/reset;
#X obj 296 13 inlet;
#X obj 42 396 t b b b b;
#X obj 296 396 t f f f f;
#X obj 42 507 t b b;
#X msg 238 537 60 50 70;
#X obj 673 13 r reset-s2;
#X obj 450 13 inlet;
#X text 339 12 play;
#X text 492 12 stop;
#X msg 384 64 1;
#X msg 450 64 0;
#X obj 673 93 t b b b b b;
#X obj 673 396 t b b b b;
#X obj 366 396 t b b b b;
#X obj 42 93 t b b b b b;
#X obj 296 93 t f f f f f;
#X obj 296 38 t b b b b b b;
#X connect 0 0 1 2;
#X connect 2 0 1 3;
#X connect 3 0 1 1;
#X connect 4 0 20 0;
#X connect 6 0 22 0;
#X connect 7 0 9 0;
#X connect 8 0 1 0;
#X connect 9 0 3 0;
#X connect 9 1 10 0;
#X connect 10 0 1 4;
#X connect 11 0 17 0;
#X connect 12 0 16 0;
#X connect 15 0 21 0;
#X connect 16 0 21 0;
#X connect 17 0 18 0;
#X connect 20 0 7 0;
#X connect 21 0 8 0;
#X connect 22 4 19 0;
#X connect 22 5 15 0;
