#N canvas 213 97 1137 716 12;
#X obj 42 13 inlet;
#X text 94 8 arm/reset;
#X obj 296 14 inlet;
#X text 351 10 spigot;
#X obj 42 297 t b b b b;
#X obj 296 298 t f f f f;
#X obj 42 58 t b b b b b;
#X obj 296 58 t f f f f f;
#X obj 304 152 r beat-#;
#X obj 218 183 ../../../controller/rel-enc-xlate;
#X obj 373 152 r kp3-#;
#X msg 250 152 30 94;
#X msg 441 152 0 0 70;
#X obj 396 119 r 2b-kp3-delay-reset;
#X obj 561 183 ../../../controller/rel-enc-xlate;
#X obj 636 152 r beat-#;
#X obj 703 152 r amb-1-#;
#X obj 250 119 t b b;
#X obj 726 119 r 2b-kp3-delay-reset;
#X msg 779 152 72 40 72;
#X obj 593 119 t b b;
#X msg 593 152 31 7;
#X text 218 205 kp3 fx-depth;
#X text 561 207 ambika volume;
#X connect 0 0 6 0;
#X connect 2 0 7 0;
#X connect 6 0 4 0;
#X connect 6 2 17 0;
#X connect 6 3 20 0;
#X connect 7 0 5 0;
#X connect 7 2 9 0;
#X connect 7 3 14 0;
#X connect 8 0 9 2;
#X connect 10 0 9 3;
#X connect 11 0 9 1;
#X connect 12 0 9 4;
#X connect 13 0 12 0;
#X connect 15 0 14 2;
#X connect 16 0 14 3;
#X connect 17 0 11 0;
#X connect 17 1 12 0;
#X connect 18 0 19 0;
#X connect 19 0 14 4;
#X connect 20 0 21 0;
#X connect 20 1 19 0;
#X connect 21 0 14 1;
