#N canvas 253 152 1113 731 12;
#X obj 42 13 inlet;
#X text 82 12 arm/reset;
#X obj 296 13 inlet;
#X obj 42 396 t b b b b;
#X obj 296 396 t f f f f;
#X obj 531 14 inlet;
#X text 339 12 play;
#X text 573 13 stop;
#X obj 487 396 t b b b b;
#X obj 42 69 t b b b b b;
#X obj 296 69 t f f f f f;
#X obj 296 42 ../../../routings/play-stop-spigot;
#X obj 413 69 t b b b b b;
#X obj 165 129 r beat-#;
#X obj 53 202 ../../../controller/rel-enc-xlate-nrpn;
#X obj 203 153 r tr-s1-#;
#X text 53 221 mod2-depth;
#X obj 60 113 t b b b;
#X msg 128 178 1 91;
#X msg 90 178 21;
#X obj 588 202 ../ambika/part-1-envs-2-3-enc;
#X msg 240 178 63 0 63;
#X obj 64 582 ../../../zoom/ctrl;
#X obj 64 522 ../../../controller/rel-enc;
#X obj 138 469 r beat-#;
#X msg 101 494 25;
#X obj 102 614 ../../../zoom/ctrl;
#X obj 141 645 ../../../zoom/ctrl;
#X obj 101 446 t b b b b b;
#X obj 64 552 t f f f;
#X obj 865 168 r beat-#;
#X obj 811 202 ../../../controller/rel-enc-xlate;
#X obj 811 138 t b b;
#X obj 927 168 r tr-pr-#;
#X msg 811 168 24 32;
#X text 810 221 midi2-send reverb;
#X msg 187 553 1 5;
#X msg 225 585 1 6;
#X msg 264 616 1 7;
#X obj 907 676 ../../../zoom/ctrl;
#X msg 1030 647 1 3;
#X obj 907 616 ../../../controller/rel-enc;
#X obj 981 563 r beat-#;
#X obj 944 540 t b b b;
#X msg 1018 588 6 6 70;
#X msg 944 588 27;
#X obj 558 476 ../ambika/part-1-buildup;
#X obj 390 168 r beat-#;
#X obj 336 202 ../../../controller/rel-enc-xlate;
#X obj 336 138 t b b;
#X obj 452 168 r tr-pr-#;
#X text 335 221 syn2 vol;
#X msg 336 168 22 14;
#X obj 609 168 sel 0;
#X obj 620 425 sel 0;
#X msg 524 168 20 10 20;
#X msg 175 494 9 9 15;
#X msg 999 168 30 0 30;
#X obj 609 138 r pad-2b-16;
#X obj 620 395 r pad-2b-16;
#X connect 0 0 9 0;
#X connect 2 0 11 0;
#X connect 3 0 28 0;
#X connect 3 2 46 0;
#X connect 4 0 23 0;
#X connect 4 2 46 1;
#X connect 5 0 11 1;
#X connect 8 0 28 0;
#X connect 8 2 46 0;
#X connect 9 0 3 0;
#X connect 9 1 17 0;
#X connect 9 2 49 0;
#X connect 9 3 20 0;
#X connect 9 4 32 0;
#X connect 10 0 4 0;
#X connect 10 1 14 0;
#X connect 10 2 48 0;
#X connect 10 3 20 1;
#X connect 10 4 31 0;
#X connect 11 0 10 0;
#X connect 11 1 12 0;
#X connect 12 0 17 0;
#X connect 12 1 49 0;
#X connect 12 2 20 0;
#X connect 12 3 32 0;
#X connect 12 4 8 0;
#X connect 13 0 14 3;
#X connect 15 0 14 4;
#X connect 17 0 21 0;
#X connect 17 1 19 0;
#X connect 17 2 18 0;
#X connect 18 0 14 2;
#X connect 19 0 14 1;
#X connect 21 0 14 5;
#X connect 23 0 29 0;
#X connect 24 0 23 2;
#X connect 25 0 23 1;
#X connect 28 0 25 0;
#X connect 28 1 56 0;
#X connect 28 2 36 0;
#X connect 28 3 37 0;
#X connect 28 4 38 0;
#X connect 29 0 22 0;
#X connect 29 1 26 0;
#X connect 29 2 27 0;
#X connect 30 0 31 2;
#X connect 32 0 34 0;
#X connect 32 1 57 0;
#X connect 33 0 31 3;
#X connect 34 0 31 1;
#X connect 36 0 22 1;
#X connect 37 0 26 1;
#X connect 38 0 27 1;
#X connect 40 0 39 1;
#X connect 41 0 39 0;
#X connect 42 0 41 2;
#X connect 43 0 45 0;
#X connect 43 1 44 0;
#X connect 43 2 40 0;
#X connect 44 0 41 3;
#X connect 45 0 41 1;
#X connect 47 0 48 2;
#X connect 49 0 52 0;
#X connect 49 1 55 0;
#X connect 50 0 48 3;
#X connect 52 0 48 1;
#X connect 53 0 20 0;
#X connect 54 0 46 0;
#X connect 55 0 48 4;
#X connect 56 0 23 3;
#X connect 57 0 31 4;
#X connect 58 0 53 0;
#X connect 59 0 54 0;
