#N canvas 215 227 1210 633 12;
#X obj 41 12 inlet;
#X text 94 8 arm/reset;
#X obj 296 14 inlet;
#X text 351 10 spigot;
#X obj 41 294 t b b b b;
#X obj 296 294 t f f f f;
#X obj 41 61 t b b b b b;
#X msg 60 209 2;
#X obj 60 237 ../../../samples/program;
#X obj 60 130 ../../../controller/cc-filter;
#X obj 260 103 r beat-#;
#X msg 160 103 60;
#X msg 105 209 3;
#X obj 60 162 select 1 0;
#X obj 333 135 ../../../controller/cc-filter;
#X obj 533 108 r beat-#;
#X msg 433 108 61;
#X obj 296 61 t f f f f f;
#X obj 379 193 ../kp3/ambika-bass-delay;
#X obj 333 165 t f f f;
#X obj 356 220 ../ambika/part-1-prog-1-2;
#X obj 183 485 ../../../zoom/ctrl;
#X msg 183 457 49;
#X obj 692 222 ../ambika/part-1-prog-3-4;
#X obj 92 268 ../../../samples/reset-decay;
#X obj 60 186 t b b;
#X obj 801 469 ../../../controller/note-filter;
#X obj 1030 442 r beat-#;
#X obj 896 556 noteout;
#X obj 896 499 t b f;
#X msg 908 442 1;
#X obj 942 442 r model-1-#;
#X msg 896 525 60;
#X connect 0 0 6 0;
#X connect 2 0 17 0;
#X connect 4 3 30 0;
#X connect 5 2 26 0;
#X connect 6 0 4 0;
#X connect 6 1 11 0;
#X connect 6 2 16 0;
#X connect 7 0 8 0;
#X connect 9 0 13 0;
#X connect 10 0 9 2;
#X connect 11 0 9 1;
#X connect 12 0 8 0;
#X connect 13 0 25 0;
#X connect 13 1 12 0;
#X connect 14 0 19 0;
#X connect 15 0 14 2;
#X connect 16 0 14 1;
#X connect 17 0 5 0;
#X connect 17 1 9 0;
#X connect 17 2 14 0;
#X connect 19 1 20 0;
#X connect 19 2 18 0;
#X connect 22 0 21 0;
#X connect 25 0 7 0;
#X connect 25 1 24 0;
#X connect 26 1 29 0;
#X connect 27 0 26 2;
#X connect 29 0 32 0;
#X connect 29 1 28 1;
#X connect 30 0 26 1;
#X connect 31 0 28 2;
#X connect 32 0 28 0;
