#N canvas 169 227 1210 714 12;
#X obj 41 12 inlet;
#X text 94 8 arm/reset;
#X obj 296 14 inlet;
#X text 351 10 spigot;
#X obj 41 310 t b b b b;
#X obj 296 310 t f f f f;
#X obj 41 61 t b b b b b;
#X obj 707 133 ../../../controller/cc-filter;
#X obj 907 106 r beat-#;
#X msg 807 106 61;
#X obj 296 61 t f f f f f;
#X obj 716 197 ../kp3/ambika-bass-delay;
#X obj 707 163 ../ambika/part-1-prog-1-2;
#X obj 42 409 ../../../controller/cc-filter;
#X obj 242 382 r beat-#;
#X msg 142 382 64;
#X obj 142 531 ctlout;
#X obj 181 505 r model-5-#;
#X obj 142 477 t f b;
#X msg 149 505 105;
#X text 92 549 model samples lfo dest;
#X msg 142 446 0;
#X msg 175 446 17;
#X obj 880 299 ../../../controller/cc-filter;
#X obj 1080 272 r beat-#;
#X msg 980 272 60;
#X obj 980 419 ctlout;
#X obj 980 365 t f b;
#X msg 980 334 14;
#X msg 1013 334 15;
#X msg 987 393 8;
#X obj 1019 393 r tr-d-#;
#X text 948 437 tracks drum change sample;
#X obj 52 171 ../../../controller/note-xlate;
#X obj 267 137 r tr-d-#;
#X msg 155 137 62;
#X obj 207 137 r dbi-#;
#X obj 92 235 ../../../controller/note-xlate;
#X obj 307 201 r tr-d-#;
#X msg 195 201 62;
#X obj 247 201 r dbi-#;
#X obj 103 107 t b b b b;
#X obj 503 432 noteout;
#X msg 565 386 15;
#X msg 531 363 127;
#X msg 485 373 62;
#X msg 542 337 0;
#X msg 103 137 38;
#X msg 143 201 50;
#X connect 0 0 6 0;
#X connect 2 0 10 0;
#X connect 4 0 15 0;
#X connect 5 0 13 0;
#X connect 6 0 4 0;
#X connect 6 1 41 0;
#X connect 7 0 12 0;
#X connect 8 0 7 2;
#X connect 9 0 7 1;
#X connect 10 0 5 0;
#X connect 10 1 33 0;
#X connect 10 2 37 0;
#X connect 13 1 21 0;
#X connect 13 2 22 0;
#X connect 14 0 13 2;
#X connect 15 0 13 1;
#X connect 17 0 16 2;
#X connect 18 0 16 0;
#X connect 18 1 19 0;
#X connect 19 0 16 1;
#X connect 21 0 18 0;
#X connect 22 0 18 0;
#X connect 23 1 28 0;
#X connect 23 2 29 0;
#X connect 24 0 23 2;
#X connect 25 0 23 1;
#X connect 27 0 26 0;
#X connect 27 1 30 0;
#X connect 28 0 27 0;
#X connect 29 0 27 0;
#X connect 30 0 26 1;
#X connect 31 0 26 2;
#X connect 34 0 33 4;
#X connect 35 0 33 2;
#X connect 36 0 33 3;
#X connect 38 0 37 4;
#X connect 39 0 37 2;
#X connect 40 0 37 3;
#X connect 41 0 47 0;
#X connect 41 1 35 0;
#X connect 41 2 48 0;
#X connect 41 3 39 0;
#X connect 43 0 42 2;
#X connect 44 0 42 1;
#X connect 45 0 42 0;
#X connect 46 0 42 1;
#X connect 47 0 33 1;
#X connect 48 0 37 1;
