#N canvas 370 191 1299 714 12;
#X obj 41 12 inlet;
#X text 88 11 arm/reset;
#X obj 41 310 t b b b b;
#X obj 296 310 t f f f f;
#X obj 41 72 t b b b b b;
#X obj 42 446 ../../../controller/cc-filter;
#X obj 242 419 r beat-#;
#X obj 142 568 ctlout;
#X obj 181 542 r model-5-#;
#X obj 142 514 t f b;
#X msg 149 542 105;
#X msg 142 483 0;
#X msg 175 483 17;
#X text 92 586 lfo-dest;
#X obj 296 12 inlet;
#X obj 531 12 inlet;
#X text 339 11 play;
#X text 573 11 stop;
#X obj 296 72 t f f f f f;
#X obj 413 310 t b b b b;
#X obj 296 38 ../../../routings/play-stop-spigot;
#X obj 413 72 t b b b b b;
#X obj 642 197 ../../../controller/cc-filter;
#X obj 842 164 r beat-#;
#X obj 923 197 ../../../controller/cc-filter;
#X obj 1123 164 r beat-#;
#X obj 1141 197 r tr-m2-#;
#X obj 1171 220 r amb-2-#;
#X obj 1061 248 ../../../tools/echo-note;
#X msg 1226 197 50;
#X obj 1023 135 t b b;
#X obj 948 478 ../../../controller/cc-filter;
#X obj 1148 451 r beat-#;
#X obj 953 622 ctlout;
#X obj 953 568 t f b;
#X obj 992 596 r tr-d-#;
#X obj 1069 622 ctlout;
#X obj 1069 568 t f b;
#X obj 1108 596 r tr-d-#;
#X msg 960 596 40;
#X msg 1076 596 42;
#X msg 992 538 127;
#X msg 953 538 50;
#X msg 1114 538 55;
#X msg 1069 538 42;
#X obj 991 508 t b b b;
#X obj 1088 508 t b b b;
#X obj 1177 622 ctlout;
#X obj 1177 568 t f b;
#X msg 1184 596 106;
#X msg 1219 538 0;
#X msg 1177 538 16;
#X msg 1048 451 60;
#X obj 1216 596 r tr-pr-#;
#X msg 1023 164 63;
#X msg 742 164 62;
#X msg 142 419 64;
#X obj 708 248 ../ambika/part-1-effects;
#X obj 60 197 ../../../controller/cc-filter;
#X obj 260 164 r beat-#;
#X msg 160 164 60;
#X obj 126 248 ../tracks/syn-1-bass;
#X obj 693 452 ../../../controller/cc-filter;
#X obj 893 419 r beat-#;
#X obj 759 503 ../tracks/drum-3-claps;
#X msg 793 419 67;
#X obj 495 423 r beat-#;
#X obj 335 448 ../../../controller/cc-xlate-vals;
#X msg 392 423 65 71;
#X obj 563 423 r model-6-#;
#X obj 392 398 t b b;
#X msg 449 423 0 46;
#X text 336 470 resonance;
#X connect 0 0 4 0;
#X connect 2 0 56 0;
#X connect 2 1 70 0;
#X connect 2 3 65 0;
#X connect 3 0 5 0;
#X connect 3 1 67 0;
#X connect 3 3 62 0;
#X connect 4 0 2 0;
#X connect 4 1 60 0;
#X connect 4 3 55 0;
#X connect 4 4 30 0;
#X connect 5 1 11 0;
#X connect 5 2 12 0;
#X connect 6 0 5 2;
#X connect 8 0 7 2;
#X connect 9 0 7 0;
#X connect 9 1 10 0;
#X connect 10 0 7 1;
#X connect 11 0 9 0;
#X connect 12 0 9 0;
#X connect 14 0 20 0;
#X connect 15 0 20 1;
#X connect 18 0 3 0;
#X connect 18 1 58 0;
#X connect 18 3 22 0;
#X connect 18 4 24 0;
#X connect 20 0 18 0;
#X connect 20 1 21 0;
#X connect 21 0 19 0;
#X connect 22 1 57 0;
#X connect 22 2 57 1;
#X connect 23 0 22 2;
#X connect 24 3 28 0;
#X connect 25 0 24 2;
#X connect 26 0 28 1;
#X connect 27 0 28 2;
#X connect 29 0 28 3;
#X connect 30 0 54 0;
#X connect 30 1 29 0;
#X connect 31 1 45 0;
#X connect 31 2 46 0;
#X connect 32 0 31 2;
#X connect 34 0 33 0;
#X connect 34 1 39 0;
#X connect 35 0 33 2;
#X connect 37 0 36 0;
#X connect 37 1 40 0;
#X connect 38 0 36 2;
#X connect 39 0 33 1;
#X connect 40 0 36 1;
#X connect 41 0 34 0;
#X connect 42 0 34 0;
#X connect 43 0 37 0;
#X connect 44 0 37 0;
#X connect 45 0 42 0;
#X connect 45 1 44 0;
#X connect 45 2 51 0;
#X connect 46 1 43 0;
#X connect 46 1 41 0;
#X connect 46 2 50 0;
#X connect 48 0 47 0;
#X connect 48 1 49 0;
#X connect 49 0 47 1;
#X connect 50 0 48 0;
#X connect 51 0 48 0;
#X connect 52 0 31 1;
#X connect 53 0 47 2;
#X connect 54 0 24 1;
#X connect 55 0 22 1;
#X connect 56 0 5 1;
#X connect 58 1 61 0;
#X connect 58 2 61 1;
#X connect 59 0 58 2;
#X connect 60 0 58 1;
#X connect 62 1 64 0;
#X connect 62 2 64 1;
#X connect 63 0 62 2;
#X connect 65 0 62 1;
#X connect 66 0 67 3;
#X connect 68 0 67 1;
#X connect 69 0 67 4;
#X connect 70 0 68 0;
#X connect 70 1 71 0;
#X connect 71 0 67 2;
