#N canvas 135 204 1210 714 12;
#X obj 41 12 inlet;
#X text 94 8 arm/reset;
#X obj 296 14 inlet;
#X text 351 10 spigot;
#X obj 41 310 t b b b b;
#X obj 296 310 t f f f f;
#X obj 41 40 t b b b b b;
#X obj 296 40 t f f f f f;
#X obj 42 409 ../../../controller/cc-filter;
#X obj 242 382 r beat-#;
#X msg 142 382 64;
#X obj 142 531 ctlout;
#X obj 181 505 r model-5-#;
#X obj 142 477 t f b;
#X msg 149 505 105;
#X msg 142 446 0;
#X msg 175 446 17;
#X obj 911 54 ../../../controller/cc-filter;
#X obj 1111 27 r beat-#;
#X msg 1011 27 60;
#X obj 1011 174 ctlout;
#X obj 1011 120 t f b;
#X msg 1011 89 14;
#X msg 1044 89 15;
#X msg 1018 148 8;
#X obj 1050 148 r tr-d-#;
#X text 979 192 tracks drum change sample;
#X obj 895 655 ../../../common/nrpn;
#X obj 1032 627 r tr-s1-#;
#X obj 1023 528 r beat-#;
#X obj 59 68 t b b;
#X msg 963 627 0 76;
#X msg 927 627 81, f 2;
#X obj 809 561 ../../../controller/note-filter;
#X msg 916 528 1;
#X text 946 527 reset;
#X text 92 549 lfo-dest;
#X text 1042 654 lf01-rate;
#X obj 1122 655 s reset-s2;
#X obj 882 382 t b b b;
#X obj 948 594 t b b;
#X connect 0 0 6 0;
#X connect 2 0 7 0;
#X connect 4 0 10 0;
#X connect 4 3 39 0;
#X connect 5 0 8 0;
#X connect 5 3 33 0;
#X connect 6 0 4 0;
#X connect 6 1 30 0;
#X connect 7 0 5 0;
#X connect 8 1 15 0;
#X connect 8 2 16 0;
#X connect 9 0 8 2;
#X connect 10 0 8 1;
#X connect 12 0 11 2;
#X connect 13 0 11 0;
#X connect 13 1 14 0;
#X connect 14 0 11 1;
#X connect 15 0 13 0;
#X connect 16 0 13 0;
#X connect 17 1 22 0;
#X connect 17 2 23 0;
#X connect 18 0 17 2;
#X connect 19 0 17 1;
#X connect 21 0 20 0;
#X connect 21 1 24 0;
#X connect 22 0 21 0;
#X connect 23 0 21 0;
#X connect 24 0 20 1;
#X connect 25 0 20 2;
#X connect 28 0 27 2;
#X connect 29 0 33 2;
#X connect 31 0 27 1;
#X connect 32 0 27 0;
#X connect 33 3 40 0;
#X connect 34 0 33 1;
#X connect 39 0 32 0;
#X connect 39 1 34 0;
#X connect 39 2 31 0;
#X connect 40 0 32 0;
#X connect 40 1 38 0;
