#N canvas 88 310 1305 657 12;
#X obj 41 12 inlet;
#X obj 114 243 r beat-#;
#X obj 182 243 r model-1-#;
#X msg 59 243 52 94;
#X obj 335 243 r beat-#;
#X obj 403 243 r model-2-#;
#X msg 280 243 53 94;
#X obj 556 243 r beat-#;
#X obj 624 243 r model-3-#;
#X msg 501 243 54 94;
#X obj 788 243 r beat-#;
#X obj 856 243 r model-4-#;
#X msg 733 243 55 94;
#X obj 96 427 r beat-#;
#X obj 164 427 r model-5-#;
#X msg 41 427 56 94;
#X obj 321 427 r beat-#;
#X obj 389 427 r model-6-#;
#X msg 266 427 57 94;
#X obj 57 269 ../../../controller/cc-xlate;
#X obj 283 269 ../../../controller/cc-xlate;
#X obj 503 269 ../../../controller/cc-xlate;
#X obj 737 269 ../../../controller/cc-xlate;
#X obj 267 454 ../../../controller/cc-xlate;
#X obj 41 454 ../../../controller/cc-xlate;
#X text 94 8 arm/reset;
#X obj 296 14 inlet;
#X text 351 10 spigot;
#X obj 41 329 t b b b b;
#X obj 296 329 t f f f f;
#X obj 41 61 t b b b b b;
#X obj 296 61 t f f f f f;
#X obj 812 454 ../../../controller/note-filter;
#X obj 1026 427 r beat-#;
#X obj 953 427 r tr-d-#;
#X obj 907 542 noteout;
#X obj 907 485 t b f;
#X msg 907 511 65;
#X obj 526 454 ../../../controller/note-filter;
#X obj 755 427 r beat-#;
#X obj 621 542 noteout;
#X obj 621 485 t b f;
#X obj 667 427 r model-1-#;
#X msg 621 511 60;
#X msg 919 427 3;
#X msg 633 427 2;
#X connect 0 0 30 0;
#X connect 1 0 19 2;
#X connect 2 0 19 3;
#X connect 3 0 19 1;
#X connect 4 0 20 2;
#X connect 5 0 20 3;
#X connect 6 0 20 1;
#X connect 7 0 21 2;
#X connect 8 0 21 3;
#X connect 9 0 21 1;
#X connect 10 0 22 2;
#X connect 11 0 22 3;
#X connect 12 0 22 1;
#X connect 13 0 24 2;
#X connect 14 0 24 3;
#X connect 15 0 24 1;
#X connect 16 0 23 2;
#X connect 17 0 23 3;
#X connect 18 0 23 1;
#X connect 26 0 31 0;
#X connect 28 0 15 0;
#X connect 28 1 18 0;
#X connect 28 2 45 0;
#X connect 28 3 44 0;
#X connect 29 0 24 0;
#X connect 29 1 23 0;
#X connect 29 2 38 0;
#X connect 29 3 32 0;
#X connect 30 0 28 0;
#X connect 30 1 3 0;
#X connect 30 2 6 0;
#X connect 30 3 9 0;
#X connect 30 4 12 0;
#X connect 31 0 29 0;
#X connect 31 1 19 0;
#X connect 31 2 20 0;
#X connect 31 3 21 0;
#X connect 31 4 22 0;
#X connect 32 1 36 0;
#X connect 33 0 32 2;
#X connect 34 0 35 2;
#X connect 36 0 37 0;
#X connect 36 1 35 1;
#X connect 37 0 35 0;
#X connect 38 1 41 0;
#X connect 39 0 38 2;
#X connect 41 0 43 0;
#X connect 41 1 40 1;
#X connect 42 0 40 2;
#X connect 43 0 40 0;
#X connect 44 0 32 1;
#X connect 45 0 38 1;
