#N canvas 594 243 1210 633 12;
#X obj 41 12 inlet;
#X text 94 8 arm/reset;
#X obj 296 14 inlet;
#X text 351 10 spigot;
#X obj 41 294 t b b b b;
#X obj 296 294 t f f f f;
#X obj 41 61 t b b b b b;
#X obj 869 435 ../../../controller/note-to-cc;
#X msg 951 408 94;
#X obj 910 383 t b b b;
#X obj 571 435 ../../../controller/note-to-cc;
#X msg 653 408 94;
#X obj 612 381 t b b b;
#X obj 736 408 r beat-#;
#X obj 1034 408 r beat-#;
#X msg 695 408 0 1;
#X msg 993 408 0 1;
#X obj 801 408 r model-3-#;
#X obj 1099 408 r model-4-#;
#X msg 612 408 0;
#X msg 910 408 1;
#X msg 60 201 2;
#X obj 60 229 ../../../samples/program;
#X obj 60 130 ../../../controller/cc-filter;
#X obj 260 103 r beat-#;
#X msg 160 103 60;
#X msg 93 201 3;
#X obj 60 162 select 1 0;
#X obj 333 135 ../../../controller/cc-filter;
#X obj 533 108 r beat-#;
#X msg 433 108 61;
#X obj 296 61 t f f f f f;
#X obj 379 193 ../kp3/ambika-bass-delay;
#X obj 333 165 t f f f;
#X obj 356 220 ../ambika/part-1-prog-1-2;
#X obj 642 244 ../../../zoom/ctrl;
#X msg 642 216 49;
#X connect 0 0 6 0;
#X connect 2 0 31 0;
#X connect 4 2 12 0;
#X connect 4 3 9 0;
#X connect 5 2 10 0;
#X connect 5 3 7 0;
#X connect 6 0 4 0;
#X connect 6 1 25 0;
#X connect 6 2 30 0;
#X connect 8 0 7 2;
#X connect 9 0 20 0;
#X connect 9 1 8 0;
#X connect 9 2 16 0;
#X connect 11 0 10 2;
#X connect 12 0 19 0;
#X connect 12 1 11 0;
#X connect 12 2 15 0;
#X connect 13 0 10 4;
#X connect 14 0 7 4;
#X connect 15 0 10 3;
#X connect 16 0 7 3;
#X connect 17 0 10 5;
#X connect 18 0 7 5;
#X connect 19 0 10 1;
#X connect 20 0 7 1;
#X connect 21 0 22 0;
#X connect 23 0 27 0;
#X connect 24 0 23 2;
#X connect 25 0 23 1;
#X connect 26 0 22 0;
#X connect 27 0 21 0;
#X connect 27 1 26 0;
#X connect 28 0 33 0;
#X connect 29 0 28 2;
#X connect 30 0 28 1;
#X connect 31 0 5 0;
#X connect 31 1 23 0;
#X connect 31 2 28 0;
#X connect 33 1 34 0;
#X connect 33 2 32 0;
#X connect 36 0 35 0;
