#N canvas 207 179 1368 714 12;
#X obj 41 12 inlet;
#X text 88 11 arm/reset;
#X obj 41 310 t b b b b;
#X obj 296 310 t f f f f;
#X obj 41 72 t b b b b b;
#X obj 42 446 ../../../controller/cc-filter;
#X obj 175 416 r beat-#;
#X obj 142 568 ctlout;
#X obj 181 542 r model-5-#;
#X obj 142 514 t f b;
#X msg 149 542 105;
#X text 92 586 lfo-dest;
#X obj 296 12 inlet;
#X obj 531 12 inlet;
#X text 339 11 play;
#X text 573 11 stop;
#X obj 296 72 t f f f f f;
#X obj 413 310 t b b b b;
#X obj 296 38 ../../../routings/play-stop-spigot;
#X obj 413 72 t b b b b b;
#X obj 642 197 ../../../controller/cc-filter;
#X obj 775 170 r beat-#;
#X obj 923 197 ../../../controller/cc-filter;
#X obj 1056 170 r beat-#;
#X obj 961 249 r tr-m2-#;
#X obj 1032 249 r amb-2-#;
#X obj 923 276 ../../../tools/echo-note;
#X obj 989 142 t b b;
#X msg 989 170 63;
#X msg 708 170 62;
#X msg 108 416 64;
#X obj 708 248 ../ambika/part-1-effects;
#X obj 60 197 ../../../controller/cc-filter;
#X obj 193 168 r beat-#;
#X msg 126 168 60;
#X obj 126 248 ../tracks/syn-1-bass;
#X obj 693 452 ../../../controller/cc-filter;
#X obj 826 426 r beat-#;
#X obj 759 521 ../tracks/drum-3-claps;
#X msg 759 426 67;
#X obj 495 423 r beat-#;
#X obj 335 448 ../../../controller/cc-xlate-vals;
#X msg 392 423 65 71;
#X obj 563 423 r model-6-#;
#X obj 392 398 t b b;
#X text 336 470 resonance;
#X obj 798 635 ctlout;
#X obj 837 609 r model-3-#;
#X text 803 653 delay send;
#X obj 1049 635 ctlout;
#X obj 1088 609 r model-3-#;
#X text 1054 653 cutoff;
#X obj 759 486 t b b b;
#X obj 868 486 t b b b;
#X msg 805 609 12;
#X msg 1056 609 74;
#X obj 919 635 ctlout;
#X text 924 653 delay send;
#X obj 1186 635 ctlout;
#X text 1191 653 cutoff;
#X msg 926 609 12;
#X msg 1193 609 74;
#X obj 798 581 t f b f b;
#X obj 958 609 r model-4-#;
#X obj 1049 580 t f b f b;
#X obj 1225 609 r model-4-#;
#X msg 1104 249 47;
#X obj 842 140 r pad-2b-16;
#X obj 672 486 s pad-2b-16;
#X obj 842 163 t b f;
#X msg 142 483 17;
#X msg 175 483 0;
#X msg 449 423 46 0;
#X msg 798 550 85;
#X msg 831 550 0;
#X msg 1049 550 101;
#X msg 1082 550 64;
#X connect 0 0 4 0;
#X connect 2 0 30 0;
#X connect 2 1 44 0;
#X connect 2 3 39 0;
#X connect 3 0 5 0;
#X connect 3 1 41 0;
#X connect 3 3 36 0;
#X connect 4 0 2 0;
#X connect 4 1 34 0;
#X connect 4 3 29 0;
#X connect 4 4 27 0;
#X connect 5 1 70 0;
#X connect 5 2 71 0;
#X connect 6 0 5 2;
#X connect 8 0 7 2;
#X connect 9 0 7 0;
#X connect 9 1 10 0;
#X connect 10 0 7 1;
#X connect 12 0 18 0;
#X connect 13 0 18 1;
#X connect 16 0 3 0;
#X connect 16 1 32 0;
#X connect 16 3 20 0;
#X connect 16 4 22 0;
#X connect 18 0 16 0;
#X connect 18 1 19 0;
#X connect 19 0 17 0;
#X connect 20 1 31 0;
#X connect 20 2 31 1;
#X connect 21 0 20 2;
#X connect 22 0 26 0;
#X connect 23 0 22 2;
#X connect 24 0 26 1;
#X connect 25 0 26 2;
#X connect 27 0 28 0;
#X connect 27 1 66 0;
#X connect 28 0 22 1;
#X connect 29 0 20 1;
#X connect 30 0 5 1;
#X connect 32 1 35 0;
#X connect 32 2 35 1;
#X connect 33 0 32 2;
#X connect 34 0 32 1;
#X connect 36 0 68 0;
#X connect 36 1 52 0;
#X connect 36 2 53 0;
#X connect 37 0 36 2;
#X connect 39 0 36 1;
#X connect 40 0 41 3;
#X connect 42 0 41 1;
#X connect 43 0 41 4;
#X connect 44 0 42 0;
#X connect 44 1 72 0;
#X connect 47 0 46 2;
#X connect 50 0 49 2;
#X connect 52 0 38 0;
#X connect 52 1 73 0;
#X connect 52 2 75 0;
#X connect 53 0 38 1;
#X connect 53 1 74 0;
#X connect 53 2 76 0;
#X connect 54 0 46 1;
#X connect 55 0 49 1;
#X connect 60 0 56 1;
#X connect 61 0 58 1;
#X connect 62 0 46 0;
#X connect 62 1 54 0;
#X connect 62 2 56 0;
#X connect 62 3 60 0;
#X connect 63 0 56 2;
#X connect 64 0 49 0;
#X connect 64 1 55 0;
#X connect 64 2 58 0;
#X connect 64 3 61 0;
#X connect 65 0 58 2;
#X connect 66 0 26 3;
#X connect 67 0 69 0;
#X connect 69 0 31 2;
#X connect 69 1 20 3;
#X connect 70 0 9 0;
#X connect 71 0 9 0;
#X connect 72 0 41 2;
#X connect 73 0 62 0;
#X connect 74 0 62 0;
#X connect 75 0 64 0;
#X connect 76 0 64 0;
