#N canvas 165 176 1210 633 12;
#X obj 41 12 inlet;
#X text 94 8 arm/reset;
#X obj 296 14 inlet;
#X text 351 10 spigot;
#X obj 41 294 t b b b b;
#X obj 296 294 t f f f f;
#X obj 41 61 t b b b b b;
#X msg 60 209 2;
#X obj 60 237 ../../../samples/program;
#X obj 60 130 ../../../controller/cc-filter;
#X obj 260 103 r beat-#;
#X msg 160 103 60;
#X msg 105 209 3;
#X obj 60 162 select 1 0;
#X obj 333 135 ../../../controller/cc-filter;
#X obj 533 108 r beat-#;
#X msg 433 108 61;
#X obj 296 61 t f f f f f;
#X obj 379 193 ../kp3/ambika-bass-delay;
#X obj 333 165 t f f f;
#X obj 356 220 ../ambika/part-1-prog-1-2;
#X obj 92 268 ../../../samples/reset-decay;
#X obj 60 186 t b b;
#X obj 42 393 ../../../controller/cc-filter;
#X obj 242 366 r beat-#;
#X obj 42 419 select 1 0;
#X msg 142 366 64;
#X obj 42 534 ctlout;
#X obj 81 508 r model-5-#;
#X obj 42 474 t f b;
#X msg 49 508 105;
#X msg 42 447 0;
#X msg 75 447 17;
#X text 145 418 model samples lfo dest;
#X connect 0 0 6 0;
#X connect 2 0 17 0;
#X connect 4 0 26 0;
#X connect 5 0 23 0;
#X connect 6 0 4 0;
#X connect 6 1 11 0;
#X connect 6 2 16 0;
#X connect 7 0 8 0;
#X connect 9 0 13 0;
#X connect 10 0 9 2;
#X connect 11 0 9 1;
#X connect 12 0 8 0;
#X connect 13 0 22 0;
#X connect 13 1 12 0;
#X connect 14 0 19 0;
#X connect 15 0 14 2;
#X connect 16 0 14 1;
#X connect 17 0 5 0;
#X connect 17 1 9 0;
#X connect 17 2 14 0;
#X connect 19 1 20 0;
#X connect 19 2 18 0;
#X connect 22 0 7 0;
#X connect 22 1 21 0;
#X connect 23 0 25 0;
#X connect 24 0 23 2;
#X connect 25 0 31 0;
#X connect 25 1 32 0;
#X connect 26 0 23 1;
#X connect 28 0 27 2;
#X connect 29 0 27 0;
#X connect 29 1 30 0;
#X connect 30 0 27 1;
#X connect 31 0 29 0;
#X connect 32 0 29 0;
