#N canvas 150 121 1305 765 12;
#X obj 41 12 inlet;
#X obj 114 224 r beat-#;
#X obj 182 224 r model-1-#;
#X msg 59 224 52 94;
#X obj 335 224 r beat-#;
#X obj 403 224 r model-2-#;
#X msg 284 224 53 94;
#X obj 556 224 r beat-#;
#X obj 624 224 r model-3-#;
#X msg 503 224 54 94;
#X obj 793 224 r beat-#;
#X obj 861 224 r model-4-#;
#X msg 738 224 55 94;
#X obj 150 413 r beat-#;
#X obj 370 416 r beat-#;
#X obj 438 416 r model-6-#;
#X msg 315 416 57 94;
#X obj 57 250 ../../../controller/cc-xlate;
#X obj 283 250 ../../../controller/cc-xlate;
#X obj 503 250 ../../../controller/cc-xlate;
#X obj 737 250 ../../../controller/cc-xlate;
#X obj 316 443 ../../../controller/cc-xlate;
#X text 89 11 arm/reset;
#X obj 41 329 t b b b b;
#X obj 296 329 t f f f f;
#X obj 41 74 t b b b b b;
#X obj 296 74 t f f f f f;
#X obj 296 12 inlet;
#X obj 531 12 inlet;
#X text 339 11 play;
#X text 573 11 stop;
#X obj 413 329 t b b b b;
#X obj 296 38 ../../../routings/play-stop-spigot;
#X obj 413 74 t b b b b b;
#X obj 763 495 ../../../controller/cc-filter;
#X obj 896 467 r beat-#;
#X msg 863 468 60;
#X obj 863 615 ctlout;
#X obj 863 561 t f b;
#X msg 863 530 14;
#X msg 896 530 15;
#X msg 870 589 8;
#X obj 902 589 r tr-d-#;
#X text 831 633 tracks drum change sample;
#X obj 17 440 ../../../controller/cc-filter;
#X msg 80 414 56;
#X obj 170 469 r model-5-#;
#X obj 131 522 ctlout;
#X obj 378 619 r beat-#;
#X obj 324 646 ../../../controller/cc-xlate;
#X msg 323 619 56 94;
#X obj 446 619 r model-5-#;
#X msg 116 494 45;
#X msg 83 494 0;
#X obj 80 384 t b b;
#X msg 150 494 95;
#X connect 0 0 25 0;
#X connect 1 0 17 2;
#X connect 2 0 17 3;
#X connect 3 0 17 1;
#X connect 4 0 18 2;
#X connect 5 0 18 3;
#X connect 6 0 18 1;
#X connect 7 0 19 2;
#X connect 8 0 19 3;
#X connect 9 0 19 1;
#X connect 10 0 20 2;
#X connect 11 0 20 3;
#X connect 12 0 20 1;
#X connect 13 0 44 2;
#X connect 14 0 21 2;
#X connect 15 0 21 3;
#X connect 16 0 21 1;
#X connect 23 0 54 0;
#X connect 23 1 16 0;
#X connect 24 0 44 0;
#X connect 24 1 21 0;
#X connect 25 0 23 0;
#X connect 25 1 3 0;
#X connect 25 2 6 0;
#X connect 25 3 9 0;
#X connect 25 4 12 0;
#X connect 26 0 24 0;
#X connect 26 1 17 0;
#X connect 26 2 18 0;
#X connect 26 3 19 0;
#X connect 26 4 20 0;
#X connect 27 0 32 0;
#X connect 28 0 32 1;
#X connect 32 0 26 0;
#X connect 32 1 33 0;
#X connect 33 0 31 0;
#X connect 34 1 39 0;
#X connect 34 2 40 0;
#X connect 35 0 34 2;
#X connect 36 0 34 1;
#X connect 38 0 37 0;
#X connect 38 1 41 0;
#X connect 39 0 38 0;
#X connect 40 0 38 0;
#X connect 41 0 37 1;
#X connect 42 0 37 2;
#X connect 44 1 53 0;
#X connect 44 2 52 0;
#X connect 45 0 44 1;
#X connect 46 0 47 2;
#X connect 48 0 49 2;
#X connect 50 0 49 1;
#X connect 51 0 49 3;
#X connect 52 0 47 0;
#X connect 53 0 47 0;
#X connect 54 0 45 0;
#X connect 54 1 55 0;
#X connect 55 0 47 1;
