#N canvas 169 227 1210 714 12;
#X obj 41 12 inlet;
#X text 94 8 arm/reset;
#X obj 296 14 inlet;
#X text 351 10 spigot;
#X obj 41 310 t b b b b;
#X obj 296 310 t f f f f;
#X obj 41 40 t b b b b b;
#X obj 296 40 t f f f f f;
#X obj 42 409 ../../../controller/cc-filter;
#X obj 242 382 r beat-#;
#X msg 142 382 64;
#X obj 142 531 ctlout;
#X obj 181 505 r model-5-#;
#X obj 142 477 t f b;
#X msg 149 505 105;
#X text 92 549 model samples lfo dest;
#X msg 142 446 0;
#X msg 175 446 17;
#X obj 880 299 ../../../controller/cc-filter;
#X obj 1080 272 r beat-#;
#X msg 980 272 60;
#X obj 980 419 ctlout;
#X obj 980 365 t f b;
#X msg 980 334 14;
#X msg 1013 334 15;
#X msg 987 393 8;
#X obj 1019 393 r tr-d-#;
#X text 948 437 tracks drum change sample;
#X obj 152 198 ../../../common/nrpn;
#X obj 289 170 r tr-s1-#;
#X text 299 196 mod2-source;
#X obj 66 130 ../../../controller/cc-filter;
#X obj 266 103 r beat-#;
#X msg 166 103 60;
#X obj 59 68 t b b;
#X msg 152 170 7, f 1;
#X msg 174 170 0, f 1;
#X msg 220 170 1 88;
#X connect 0 0 6 0;
#X connect 2 0 7 0;
#X connect 4 0 10 0;
#X connect 5 0 8 0;
#X connect 6 0 4 0;
#X connect 6 1 34 0;
#X connect 7 0 5 0;
#X connect 7 1 31 0;
#X connect 8 1 16 0;
#X connect 8 2 17 0;
#X connect 9 0 8 2;
#X connect 10 0 8 1;
#X connect 12 0 11 2;
#X connect 13 0 11 0;
#X connect 13 1 14 0;
#X connect 14 0 11 1;
#X connect 16 0 13 0;
#X connect 17 0 13 0;
#X connect 18 1 23 0;
#X connect 18 2 24 0;
#X connect 19 0 18 2;
#X connect 20 0 18 1;
#X connect 22 0 21 0;
#X connect 22 1 25 0;
#X connect 23 0 22 0;
#X connect 24 0 22 0;
#X connect 25 0 21 1;
#X connect 26 0 21 2;
#X connect 29 0 28 2;
#X connect 31 1 35 0;
#X connect 31 2 36 0;
#X connect 32 0 31 2;
#X connect 33 0 31 1;
#X connect 34 0 37 0;
#X connect 34 1 33 0;
#X connect 35 0 28 0;
#X connect 36 0 28 0;
#X connect 37 0 28 1;
