#N canvas 135 204 1210 714 12;
#X obj 41 12 inlet;
#X text 94 11 arm/reset;
#X obj 41 310 t b b b b;
#X obj 296 310 t f f f f;
#X obj 41 95 t b b b b b;
#X obj 42 409 ../../../controller/cc-filter;
#X obj 242 382 r beat-#;
#X msg 142 382 64;
#X obj 142 531 ctlout;
#X obj 181 505 r model-5-#;
#X obj 142 477 t f b;
#X msg 149 505 105;
#X msg 142 446 0;
#X msg 175 446 17;
#X obj 911 54 ../../../controller/cc-filter;
#X obj 1111 27 r beat-#;
#X msg 1011 27 60;
#X obj 1011 174 ctlout;
#X obj 1011 120 t f b;
#X msg 1011 89 14;
#X msg 1044 89 15;
#X msg 1018 148 8;
#X obj 1050 148 r tr-d-#;
#X text 979 192 tracks drum change sample;
#X obj 1115 382 r beat-#;
#X obj 901 409 ../../../controller/note-filter;
#X msg 1008 382 1;
#X text 1038 381 reset;
#X text 92 549 lfo-dest;
#X obj 1061 446 s reset-s2;
#X obj 673 12 r reset-s2;
#X obj 673 95 t b b b b b;
#X obj 673 310 t b b b b;
#X obj 296 12 inlet;
#X obj 450 12 inlet;
#X text 339 11 play;
#X text 492 11 stop;
#X msg 384 63 1;
#X msg 450 63 0;
#X obj 296 95 t f f f f f;
#X obj 366 310 t b b b b;
#X obj 296 38 t b b b b b b;
#X connect 0 0 4 0;
#X connect 2 0 7 0;
#X connect 2 3 26 0;
#X connect 3 0 5 0;
#X connect 3 3 25 0;
#X connect 4 0 2 0;
#X connect 5 1 12 0;
#X connect 5 2 13 0;
#X connect 6 0 5 2;
#X connect 7 0 5 1;
#X connect 9 0 8 2;
#X connect 10 0 8 0;
#X connect 10 1 11 0;
#X connect 11 0 8 1;
#X connect 12 0 10 0;
#X connect 13 0 10 0;
#X connect 14 1 19 0;
#X connect 14 2 20 0;
#X connect 15 0 14 2;
#X connect 16 0 14 1;
#X connect 18 0 17 0;
#X connect 18 1 21 0;
#X connect 19 0 18 0;
#X connect 20 0 18 0;
#X connect 21 0 17 1;
#X connect 22 0 17 2;
#X connect 24 0 25 2;
#X connect 25 3 29 0;
#X connect 26 0 25 1;
#X connect 30 0 31 0;
#X connect 31 0 32 0;
#X connect 33 0 41 0;
#X connect 34 0 38 0;
#X connect 37 0 39 0;
#X connect 38 0 39 0;
#X connect 39 0 3 0;
#X connect 41 4 40 0;
#X connect 41 5 37 0;
