#N canvas 150 121 1305 765 12;
#X obj 41 12 inlet;
#X obj 114 224 r beat-#;
#X obj 182 224 r model-1-#;
#X msg 59 224 52 94;
#X obj 335 224 r beat-#;
#X obj 403 224 r model-2-#;
#X msg 284 224 53 94;
#X obj 556 224 r beat-#;
#X obj 624 224 r model-3-#;
#X msg 503 224 54 94;
#X obj 793 224 r beat-#;
#X obj 861 224 r model-4-#;
#X msg 738 224 55 94;
#X obj 150 413 r beat-#;
#X obj 370 416 r beat-#;
#X obj 438 416 r model-6-#;
#X msg 315 416 57 94;
#X text 89 11 arm/reset;
#X obj 41 329 t b b b b;
#X obj 296 329 t f f f f;
#X obj 41 74 t b b b b b;
#X obj 296 74 t f f f f f;
#X obj 296 12 inlet;
#X obj 531 12 inlet;
#X text 339 11 play;
#X text 573 11 stop;
#X obj 413 329 t b b b b;
#X obj 296 38 ../../../routings/play-stop-spigot;
#X obj 413 74 t b b b b b;
#X obj 17 440 ../../../controller/cc-filter;
#X msg 80 414 56;
#X obj 194 533 r model-5-#;
#X obj 155 586 ctlout;
#X obj 80 384 t b b;
#X msg 174 558 95;
#X obj 57 250 ../../../samples/mute;
#X obj 283 250 ../../../samples/mute;
#X obj 503 250 ../../../samples/mute;
#X obj 737 250 ../../../samples/mute;
#X obj 316 443 ../../../samples/mute;
#X msg 107 558 45;
#X msg 140 558 0;
#X connect 0 0 20 0;
#X connect 1 0 35 2;
#X connect 2 0 35 3;
#X connect 3 0 35 1;
#X connect 4 0 36 2;
#X connect 5 0 36 3;
#X connect 6 0 36 1;
#X connect 7 0 37 2;
#X connect 8 0 37 3;
#X connect 9 0 37 1;
#X connect 10 0 38 2;
#X connect 11 0 38 3;
#X connect 12 0 38 1;
#X connect 13 0 29 2;
#X connect 14 0 39 2;
#X connect 15 0 39 3;
#X connect 16 0 39 1;
#X connect 18 0 33 0;
#X connect 18 1 16 0;
#X connect 19 0 29 0;
#X connect 19 1 39 0;
#X connect 20 0 18 0;
#X connect 20 1 3 0;
#X connect 20 2 6 0;
#X connect 20 3 9 0;
#X connect 20 4 12 0;
#X connect 21 0 19 0;
#X connect 21 1 35 0;
#X connect 21 2 36 0;
#X connect 21 3 37 0;
#X connect 21 4 38 0;
#X connect 22 0 27 0;
#X connect 23 0 27 1;
#X connect 27 0 21 0;
#X connect 27 1 28 0;
#X connect 28 0 26 0;
#X connect 29 1 40 0;
#X connect 29 2 41 0;
#X connect 30 0 29 1;
#X connect 31 0 32 2;
#X connect 33 0 30 0;
#X connect 33 1 34 0;
#X connect 34 0 32 1;
#X connect 40 0 32 0;
#X connect 41 0 32 0;
