#N canvas 383 209 1210 633 12;
#X obj 41 12 inlet;
#X text 94 8 arm/reset;
#X obj 296 14 inlet;
#X text 351 10 spigot;
#X obj 38 410 ../../../controller/cc-filter;
#X obj 238 383 r beat-#;
#X obj 38 437 ../tracks/drum-3-delay;
#X obj 41 294 t b b b b;
#X obj 296 294 t f f f f;
#X obj 41 61 t b b b b b;
#X msg 138 383 63;
#X obj 869 435 ../../../controller/note-to-cc;
#X msg 951 408 94;
#X obj 910 383 t b b b;
#X obj 571 435 ../../../controller/note-to-cc;
#X msg 653 408 94;
#X obj 612 381 t b b b;
#X obj 736 408 r beat-#;
#X obj 1034 408 r beat-#;
#X msg 695 408 0 1;
#X msg 993 408 0 1;
#X obj 801 408 r model-3-#;
#X obj 1099 408 r model-4-#;
#X msg 612 408 0;
#X msg 910 408 1;
#X msg 60 201 2;
#X obj 60 229 ../../../samples/program;
#X obj 60 130 ../../../controller/cc-filter;
#X obj 260 103 r beat-#;
#X msg 160 103 60;
#X msg 93 201 3;
#X obj 60 162 select 1 0;
#X connect 0 0 9 0;
#X connect 2 0 8 0;
#X connect 2 0 27 0;
#X connect 4 0 6 0;
#X connect 5 0 4 2;
#X connect 7 0 10 0;
#X connect 7 2 16 0;
#X connect 7 3 13 0;
#X connect 8 0 4 0;
#X connect 8 2 14 0;
#X connect 8 3 11 0;
#X connect 9 0 7 0;
#X connect 9 1 29 0;
#X connect 10 0 4 1;
#X connect 12 0 11 2;
#X connect 13 0 24 0;
#X connect 13 1 12 0;
#X connect 13 2 20 0;
#X connect 15 0 14 2;
#X connect 16 0 23 0;
#X connect 16 1 15 0;
#X connect 16 2 19 0;
#X connect 17 0 14 4;
#X connect 18 0 11 4;
#X connect 19 0 14 3;
#X connect 20 0 11 3;
#X connect 21 0 14 5;
#X connect 22 0 11 5;
#X connect 23 0 14 1;
#X connect 24 0 11 1;
#X connect 25 0 26 0;
#X connect 27 0 31 0;
#X connect 28 0 27 2;
#X connect 29 0 27 1;
#X connect 30 0 26 0;
#X connect 31 0 25 0;
#X connect 31 1 30 0;
