#N canvas 205 54 1305 883 12;
#X obj 90 17 inlet;
#X text 143 13 arm/reset;
#X obj 345 19 inlet;
#X text 400 15 spigot;
#X obj 90 334 t b b b b;
#X obj 345 333 t f f f f;
#X obj 90 46 t b b b b b;
#X obj 958 497 r beat-#;
#X obj 1076 497 r model-5-#;
#X obj 876 528 ../../../samples/loop-as-note;
#X obj 926 458 t b b;
#X obj 345 49 t f f f f f;
#X obj 140 241 r beat-#;
#X obj 257 242 r model-5-#;
#X obj 58 272 ../../../samples/loop-as-note;
#X msg 108 241 36;
#X obj 108 202 t b b;
#X msg 208 241 1;
#X obj 647 241 r beat-#;
#X obj 765 241 r model-5-#;
#X obj 565 272 ../../../samples/loop-as-note;
#X obj 615 202 t b b;
#X msg 615 241 38;
#X msg 715 241 2;
#X obj 932 246 r beat-#;
#X obj 1050 246 r model-5-#;
#X obj 850 277 ../../../samples/loop-as-note;
#X obj 900 207 t b b;
#X msg 1000 246 3;
#X msg 900 246 39;
#X msg 926 497 43;
#X msg 1026 497 0;
#X connect 0 0 6 0;
#X connect 2 0 11 0;
#X connect 4 3 10 0;
#X connect 5 0 9 0;
#X connect 6 0 4 0;
#X connect 6 1 16 0;
#X connect 6 3 21 0;
#X connect 6 4 27 0;
#X connect 7 0 9 2;
#X connect 8 0 9 4;
#X connect 10 0 30 0;
#X connect 10 1 31 0;
#X connect 11 0 5 0;
#X connect 11 1 14 0;
#X connect 11 3 20 0;
#X connect 11 4 26 0;
#X connect 12 0 14 2;
#X connect 13 0 14 4;
#X connect 15 0 14 1;
#X connect 16 0 15 0;
#X connect 16 1 17 0;
#X connect 17 0 14 3;
#X connect 18 0 20 2;
#X connect 19 0 20 4;
#X connect 21 0 22 0;
#X connect 21 1 23 0;
#X connect 22 0 20 1;
#X connect 23 0 20 3;
#X connect 24 0 26 2;
#X connect 25 0 26 4;
#X connect 27 0 29 0;
#X connect 27 1 28 0;
#X connect 28 0 26 3;
#X connect 29 0 26 1;
#X connect 30 0 9 1;
#X connect 31 0 9 3;
