#N canvas 205 54 1305 883 12;
#X obj 90 17 inlet;
#X text 143 13 arm/reset;
#X obj 345 19 inlet;
#X text 400 15 spigot;
#X obj 90 334 t b b b b;
#X obj 345 334 t f f f f;
#X obj 90 46 t b b b b b;
#X obj 140 459 r beat-#;
#X obj 240 459 r model-5-#;
#X obj 40 490 ../../../samples/loop-as-note;
#X obj 345 49 t f f f f f;
#X obj 158 241 r beat-#;
#X obj 58 272 ../../../samples/loop-as-note;
#X msg 108 241 36;
#X obj 776 241 r beat-#;
#X obj 676 272 ../../../samples/loop-as-note;
#X msg 726 241 38;
#X obj 1061 241 r beat-#;
#X obj 961 272 ../../../samples/loop-as-note;
#X msg 1011 241 39;
#X obj 258 241 r model-1-#;
#X obj 451 241 r beat-#;
#X obj 351 272 ../../../samples/loop-as-note;
#X msg 401 241 37;
#X obj 551 241 r model-2-#;
#X obj 876 241 r model-3-#;
#X obj 1161 241 r model-4-#;
#X obj 451 459 r beat-#;
#X obj 351 490 ../../../samples/loop-as-note;
#X msg 90 459 40;
#X msg 401 459 41;
#X obj 551 459 r model-6-#;
#X connect 0 0 6 0;
#X connect 2 0 10 0;
#X connect 4 0 29 0;
#X connect 4 1 30 0;
#X connect 5 0 9 0;
#X connect 5 1 28 0;
#X connect 6 0 4 0;
#X connect 6 1 13 0;
#X connect 6 2 23 0;
#X connect 6 3 16 0;
#X connect 6 4 19 0;
#X connect 7 0 9 2;
#X connect 8 0 9 4;
#X connect 10 0 5 0;
#X connect 10 1 12 0;
#X connect 10 2 22 0;
#X connect 10 3 15 0;
#X connect 10 4 18 0;
#X connect 11 0 12 2;
#X connect 13 0 12 1;
#X connect 14 0 15 2;
#X connect 16 0 15 1;
#X connect 17 0 18 2;
#X connect 19 0 18 1;
#X connect 20 0 12 4;
#X connect 21 0 22 2;
#X connect 23 0 22 1;
#X connect 24 0 22 4;
#X connect 25 0 15 4;
#X connect 26 0 18 4;
#X connect 27 0 28 2;
#X connect 29 0 9 1;
#X connect 30 0 28 1;
#X connect 31 0 28 4;
