#N canvas 196 151 1137 716 12;
#X obj 42 13 inlet;
#X text 94 8 arm/reset;
#X obj 296 14 inlet;
#X text 351 10 spigot;
#X obj 42 297 t b b b b;
#X obj 296 298 t f f f f;
#X obj 42 58 t b b b b b;
#X obj 296 58 t f f f f f;
#X connect 0 0 6 0;
#X connect 2 0 7 0;
#X connect 6 0 4 0;
#X connect 7 0 5 0;
