#N canvas 122 124 1459 843 12;
#X obj 815 538 r beat-#;
#X obj 877 538 r amb-1-#;
#X obj 761 571 ../../../controller/rel-enc-xlate;
#X obj 96 506 r beat-#;
#X obj 68 570 ../../../controller/rel-enc-xlate;
#X obj 158 506 r model-5-#;
#X obj 167 605 r beat-#;
#X obj 102 631 ../../../controller/rel-enc-xlate;
#X obj 229 605 r model-5-#;
#X msg 314 605 0 0 127;
#X msg 377 605 64 127;
#X obj 145 685 ../../../controller/rel-enc-xlate;
#X obj 68 539 t f f f;
#X obj 42 478 t b b b b b b b;
#X obj 272 658 r amb-2-#;
#X obj 196 658 r beat-#;
#X msg 357 658 0 0 33;
#X msg 42 506 25 7;
#X msg 113 605 25 16;
#X msg 156 658 25 7;
#X obj 42 13 inlet;
#X text 94 8 arm/reset;
#X obj 296 14 inlet;
#X text 351 10 spigot;
#X obj 42 396 t b b b b;
#X obj 296 397 t f f f f;
#X msg 243 506 0 0 95;
#X obj 1178 538 r beat-#;
#X obj 1240 538 r amb-1-#;
#X obj 1124 571 ../../../controller/rel-enc-xlate;
#X msg 761 538 27 74;
#X msg 1124 538 28 71;
#X msg 949 538 57 57 110;
#X text 1023 536 cut off;
#X text 1384 537 res;
#X obj 761 505 t b b;
#X obj 1124 505 t b b;
#X msg 1312 538 58 58 127;
#X obj 50 150 ../../../samples/synth-player-volume;
#X obj 59 85 t b b;
#X obj 42 58 t b b b b b b b;
#X obj 296 58 t f f f f f f f;
#X msg 299 124 50 20 127;
#X connect 0 0 2 2;
#X connect 1 0 2 3;
#X connect 3 0 4 2;
#X connect 5 0 4 3;
#X connect 6 0 7 2;
#X connect 8 0 7 3;
#X connect 9 0 7 4;
#X connect 10 0 7 5;
#X connect 12 0 4 0;
#X connect 12 1 7 0;
#X connect 12 2 11 0;
#X connect 13 0 17 0;
#X connect 13 1 26 0;
#X connect 13 2 18 0;
#X connect 13 3 9 0;
#X connect 13 4 10 0;
#X connect 13 5 19 0;
#X connect 13 6 16 0;
#X connect 14 0 11 3;
#X connect 15 0 11 2;
#X connect 16 0 11 4;
#X connect 17 0 4 1;
#X connect 18 0 7 1;
#X connect 19 0 11 1;
#X connect 20 0 40 0;
#X connect 22 0 41 0;
#X connect 26 0 4 4;
#X connect 27 0 29 2;
#X connect 28 0 29 3;
#X connect 30 0 2 1;
#X connect 31 0 29 1;
#X connect 32 0 2 4;
#X connect 35 0 30 0;
#X connect 35 1 32 0;
#X connect 36 0 31 0;
#X connect 36 1 37 0;
#X connect 37 0 29 4;
#X connect 39 0 38 1;
#X connect 39 1 42 0;
#X connect 40 0 24 0;
#X connect 40 1 39 0;
#X connect 41 0 25 0;
#X connect 42 0 38 2;
