#N canvas 205 54 1305 883 12;
#X obj 90 17 inlet;
#X text 143 13 arm/reset;
#X obj 345 19 inlet;
#X text 400 15 spigot;
#X obj 90 334 t b b b b;
#X obj 346 334 t f f f f;
#X obj 90 66 t b b b b b;
#X obj 122 436 r beat-#;
#X obj 240 436 r model-5-#;
#X obj 40 467 ../../../samples/loop-as-note;
#X msg 90 436 36;
#X obj 90 397 t b b;
#X msg 190 436 1;
#X connect 0 0 6 0;
#X connect 2 0 5 0;
#X connect 4 0 11 0;
#X connect 5 0 9 0;
#X connect 6 0 4 0;
#X connect 7 0 9 2;
#X connect 8 0 9 4;
#X connect 10 0 9 1;
#X connect 11 0 10 0;
#X connect 11 1 12 0;
#X connect 12 0 9 3;
