#N canvas 205 54 1305 883 12;
#X obj 90 17 inlet;
#X text 143 13 arm/reset;
#X obj 345 19 inlet;
#X text 400 15 spigot;
#X obj 90 334 t b b b b;
#X obj 345 334 t f f f f;
#X obj 90 66 t b b b b b;
#X obj 1084 491 r beat-#;
#X obj 1002 522 ../../../samples/loop-as-note;
#X obj 1052 452 t b b;
#X msg 1152 491 9;
#X obj 808 487 r beat-#;
#X obj 726 518 ../../../samples/loop-as-note;
#X obj 776 448 t b b;
#X msg 1052 491 51;
#X msg 776 487 50;
#X msg 876 487 8;
#X obj 1202 491 r model-6-#;
#X obj 926 487 r model-6-#;
#X obj 547 481 r beat-#;
#X obj 465 512 ../../../samples/loop-as-note;
#X obj 515 442 t b b;
#X obj 665 481 r model-6-#;
#X msg 615 481 7;
#X msg 515 481 49;
#X obj 172 473 r beat-#;
#X obj 90 504 ../../../samples/loop-as-note;
#X obj 140 434 t b b;
#X obj 290 473 r model-6-#;
#X msg 240 473 6;
#X msg 140 473 48;
#X obj 1015 185 r beat-#;
#X obj 933 216 ../../../samples/loop-as-note;
#X obj 983 146 t b b;
#X obj 1133 185 r model-6-#;
#X msg 1083 185 5;
#X msg 983 185 47;
#X obj 708 181 r beat-#;
#X obj 626 212 ../../../samples/loop-as-note;
#X obj 676 142 t b b;
#X obj 826 181 r model-6-#;
#X msg 776 181 4;
#X msg 676 181 46;
#X obj 345 73 t f f f f;
#X connect 0 0 6 0;
#X connect 2 0 43 0;
#X connect 4 0 27 0;
#X connect 4 1 21 0;
#X connect 4 2 13 0;
#X connect 4 3 9 0;
#X connect 5 0 26 0;
#X connect 5 1 20 0;
#X connect 5 2 12 0;
#X connect 5 3 8 0;
#X connect 6 0 4 0;
#X connect 6 3 39 0;
#X connect 6 4 33 0;
#X connect 7 0 8 2;
#X connect 9 0 14 0;
#X connect 9 1 10 0;
#X connect 10 0 8 3;
#X connect 11 0 12 2;
#X connect 13 0 15 0;
#X connect 13 1 16 0;
#X connect 14 0 8 1;
#X connect 15 0 12 1;
#X connect 16 0 12 3;
#X connect 17 0 8 4;
#X connect 18 0 12 4;
#X connect 19 0 20 2;
#X connect 21 0 24 0;
#X connect 21 1 23 0;
#X connect 22 0 20 4;
#X connect 23 0 20 3;
#X connect 24 0 20 1;
#X connect 25 0 26 2;
#X connect 27 0 30 0;
#X connect 27 1 29 0;
#X connect 28 0 26 4;
#X connect 29 0 26 3;
#X connect 30 0 26 1;
#X connect 31 0 32 2;
#X connect 33 0 36 0;
#X connect 33 1 35 0;
#X connect 34 0 32 4;
#X connect 35 0 32 3;
#X connect 36 0 32 1;
#X connect 37 0 38 2;
#X connect 39 0 42 0;
#X connect 39 1 41 0;
#X connect 40 0 38 4;
#X connect 41 0 38 3;
#X connect 42 0 38 1;
#X connect 43 0 5 0;
#X connect 43 2 38 0;
#X connect 43 3 32 0;
