#N canvas 205 54 1305 883 12;
#X obj 90 17 inlet;
#X text 143 13 arm/reset;
#X obj 345 19 inlet;
#X text 400 15 spigot;
#X obj 90 334 t b b b b;
#X obj 345 333 t f f f f;
#X obj 90 46 t b b b b b;
#X obj 958 497 r beat-#;
#X obj 1076 497 r model-5-#;
#X obj 876 528 ../../../samples/loop-as-note;
#X obj 345 49 t f f f f f;
#X obj 140 241 r beat-#;
#X obj 58 272 ../../../samples/loop-as-note;
#X msg 108 241 36;
#X obj 758 243 r beat-#;
#X obj 876 243 r model-5-#;
#X obj 676 274 ../../../samples/loop-as-note;
#X msg 726 243 38;
#X obj 1043 248 r beat-#;
#X obj 1161 248 r model-5-#;
#X obj 961 279 ../../../samples/loop-as-note;
#X msg 1011 248 39;
#X msg 926 497 43;
#X obj 258 241 r model-1-#;
#X obj 433 243 r beat-#;
#X obj 351 274 ../../../samples/loop-as-note;
#X msg 401 243 37;
#X obj 551 243 r model-2-#;
#X connect 0 0 6 0;
#X connect 2 0 10 0;
#X connect 4 3 22 0;
#X connect 5 3 9 0;
#X connect 6 0 4 0;
#X connect 6 1 13 0;
#X connect 6 2 26 0;
#X connect 6 3 17 0;
#X connect 6 4 21 0;
#X connect 7 0 9 2;
#X connect 8 0 9 4;
#X connect 10 0 5 0;
#X connect 10 1 12 0;
#X connect 10 2 25 0;
#X connect 10 3 16 0;
#X connect 10 4 20 0;
#X connect 11 0 12 2;
#X connect 13 0 12 1;
#X connect 14 0 16 2;
#X connect 15 0 16 4;
#X connect 17 0 16 1;
#X connect 18 0 20 2;
#X connect 19 0 20 4;
#X connect 21 0 20 1;
#X connect 22 0 9 1;
#X connect 23 0 12 4;
#X connect 24 0 25 2;
#X connect 26 0 25 1;
#X connect 27 0 25 4;
