#N canvas 830 301 573 435 12;
#X obj 354 12 r sample-#;
#X obj 35 353 noteout;
#X obj 35 318 makenote 1 10;
#X obj 35 12 inlet;
#X obj 35 244 ../../common/steps;
#X obj 35 50 route arm;
#X msg 49 199 arm;
#X obj 35 90 t b b b;
#X obj 361 258 ../setting;
#X msg 35 280 0;
#X obj 189 12 r tick;
#X msg 35 138 1 1 1 1;
#X msg 81 199 size 4;
#X msg 361 221 20 9 0;
#X connect 0 0 1 2;
#X connect 2 0 1 0;
#X connect 2 1 1 1;
#X connect 3 0 5 0;
#X connect 4 0 9 0;
#X connect 5 0 7 0;
#X connect 5 1 4 0;
#X connect 6 0 4 0;
#X connect 7 0 11 0;
#X connect 7 1 6 0;
#X connect 7 2 12 0;
#X connect 9 0 2 0;
#X connect 10 0 4 0;
#X connect 11 0 4 0;
#X connect 12 0 4 0;
#X connect 13 0 8 0;
