#N canvas 210 175 1175 468 12;
#X obj 324 11 r sample-#;
#X obj 35 11 inlet;
#X obj 35 223 ../setting;
#X msg 35 191 20 9 0;
#X obj 168 163 spigot 0;
#X msg 128 108 1;
#X msg 221 133 0;
#X obj 306 191 f;
#X obj 35 74 ../../common/step-seq-sel-3;
#X obj 168 359 ../../common/step-seq-player;
#X obj 128 133 t f f;
#X msg 160 223 play \$1;
#X obj 168 11 r tick-4;
#X obj 35 39 route listen;
#X obj 548 11 r subpart;
#X obj 548 102 spigot 0;
#X obj 548 135 ../../controller/subpart-selector;
#X obj 601 72 t f f;
#X obj 723 11 loadbang;
#X obj 35 133 t b b b;
#X msg 626 102 gran 1 \, min 0 \, max 1;
#X obj 548 169 select 0 1;
#X msg 306 223 ch \$1 \, voice 0;
#X msg 541 276 size 4 \, 1 0 0 0;
#X msg 562 310 size 4 \, 1 1 1 1;
#X connect 0 0 7 1;
#X connect 1 0 13 0;
#X connect 3 0 2 0;
#X connect 4 0 9 0;
#X connect 5 0 10 0;
#X connect 6 0 4 1;
#X connect 7 0 22 0;
#X connect 8 0 19 0;
#X connect 8 1 5 0;
#X connect 8 2 6 0;
#X connect 10 0 4 1;
#X connect 10 1 11 0;
#X connect 11 0 9 0;
#X connect 12 0 4 0;
#X connect 13 0 17 0;
#X connect 13 0 20 0;
#X connect 13 1 8 0;
#X connect 14 0 15 0;
#X connect 15 0 16 0;
#X connect 16 0 21 0;
#X connect 17 0 15 1;
#X connect 17 1 16 1;
#X connect 18 0 20 0;
#X connect 19 0 3 0;
#X connect 19 1 23 0;
#X connect 19 2 7 0;
#X connect 20 0 16 0;
#X connect 21 0 23 0;
#X connect 21 1 24 0;
#X connect 22 0 9 0;
#X connect 23 0 9 0;
#X connect 24 0 9 0;
