#N canvas 862 461 733 536 12;
#X obj 354 12 r sample-#;
#X obj 35 318 noteout;
#X obj 35 270 makenote 1 10;
#X msg 35 237 0;
#X obj 35 12 inlet;
#X obj 35 206 ../../common/steps;
#X obj 35 50 route arm;
#X msg 35 161 arm;
#X obj 35 90 t b b;
#X msg 67 134 size 8;
#X connect 0 0 1 2;
#X connect 2 0 1 0;
#X connect 2 1 1 1;
#X connect 3 0 2 0;
#X connect 4 0 6 0;
#X connect 5 0 3 0;
#X connect 6 0 8 0;
#X connect 6 1 5 0;
#X connect 7 0 5 0;
#X connect 8 0 7 0;
#X connect 8 1 9 0;
#X connect 9 0 5 0;
