#N canvas 830 301 733 536 12;
#X obj 354 12 r sample-#;
#X obj 35 419 noteout;
#X obj 35 371 makenote 1 10;
#X obj 35 12 inlet;
#X obj 35 244 ../../common/steps;
#X obj 35 50 route arm;
#X msg 49 199 arm;
#X msg 81 199 size 8;
#X obj 62 289 ../../common/swing;
#X obj 375 97 s swing;
#X floatatom 375 59 5 0 0 0 - - -;
#X obj 35 90 t b b b;
#X msg 35 138 1 1 1 1 1 1 1 1;
#X obj 361 258 ../setting;
#X msg 35 333 0;
#X msg 361 227 0 9 20;
#X obj 189 12 r tick;
#X connect 0 0 1 2;
#X connect 2 0 1 0;
#X connect 2 1 1 1;
#X connect 3 0 5 0;
#X connect 4 0 8 0;
#X connect 5 0 11 0;
#X connect 5 1 4 0;
#X connect 6 0 4 0;
#X connect 7 0 4 0;
#X connect 8 0 14 0;
#X connect 10 0 9 0;
#X connect 11 0 12 0;
#X connect 11 1 6 0;
#X connect 11 2 7 0;
#X connect 12 0 4 0;
#X connect 14 0 2 0;
#X connect 15 0 13 0;
#X connect 16 0 4 0;
