#N canvas 588 288 728 468 12;
#X obj 324 6 r sample-#;
#X obj 35 11 inlet;
#X obj 58 225 ../setting;
#X obj 168 11 r tick;
#X msg 58 193 20 9 0;
#X obj 168 133 spigot 0;
#X msg 128 78 1;
#X msg 221 103 0;
#X obj 306 193 f;
#X obj 35 103 t b b b;
#X obj 35 44 ../../common/step-seq-sel-3;
#X obj 168 359 ../../common/step-seq-player;
#X msg 306 225 ch \$1 \, voice 0 \, size 4 \, 1 1 1 1;
#X obj 128 106 t f f;
#X msg 160 225 play \$1;
#X connect 0 0 8 1;
#X connect 1 0 10 0;
#X connect 3 0 5 0;
#X connect 4 0 2 0;
#X connect 5 0 11 0;
#X connect 6 0 13 0;
#X connect 7 0 5 1;
#X connect 8 0 12 0;
#X connect 9 1 4 0;
#X connect 9 2 8 0;
#X connect 10 0 9 0;
#X connect 10 1 6 0;
#X connect 10 2 7 0;
#X connect 12 0 11 0;
#X connect 13 0 5 1;
#X connect 13 1 14 0;
#X connect 14 0 11 0;
