#N canvas 194 325 1175 690 12;
#X obj 325 24 r sample-#;
#X obj 36 24 inlet;
#X msg 129 118 1;
#X msg 222 139 0;
#X obj 307 204 f;
#X obj 129 142 t f f;
#X msg 161 234 play \$1;
#X obj 169 599 ../../common/step-seq-player;
#X obj 480 195 ../../controller/subpart-selector;
#X obj 36 54 route listen;
#X obj 708 24 loadbang;
#X msg 708 166 gran 1 \, min 0 \, max 1;
#X obj 480 311 select 0 1;
#X obj 169 173 ../../common/queued-open;
#X obj 480 24 r part-1;
#X obj 36 234 ../setting;
#X msg 36 202 18 10 2;
#X msg 307 234 ch \$1;
#X obj 36 109 t b b b b b;
#X obj 36 84 ../../common/step-seq-sel-3 \$0;
#X obj 169 24 r tick-16;
#X msg 521 258 0;
#X msg 521 285 swing \$1;
#X msg 430 195 0;
#X msg 480 351 size 4 \, 3 3 11 11;
#X msg 513 379 size 4 \, 3 3 4 11;
#X obj 480 226 t f b;
#X connect 0 0 4 1;
#X connect 1 0 9 0;
#X connect 2 0 5 0;
#X connect 3 0 13 1;
#X connect 4 0 17 0;
#X connect 5 0 13 1;
#X connect 5 1 6 0;
#X connect 6 0 7 0;
#X connect 8 0 26 0;
#X connect 9 0 8 1;
#X connect 9 0 19 1;
#X connect 9 1 19 0;
#X connect 10 0 11 0;
#X connect 11 0 8 2;
#X connect 12 0 24 0;
#X connect 12 1 25 0;
#X connect 13 0 7 0;
#X connect 14 0 8 0;
#X connect 16 0 15 0;
#X connect 17 0 7 0;
#X connect 18 0 16 0;
#X connect 18 1 23 0;
#X connect 18 2 4 0;
#X connect 18 3 11 0;
#X connect 19 0 18 0;
#X connect 19 1 2 0;
#X connect 19 2 3 0;
#X connect 19 3 7 3;
#X connect 20 0 13 0;
#X connect 21 0 22 0;
#X connect 22 0 7 0;
#X connect 23 0 26 0;
#X connect 24 0 7 0;
#X connect 25 0 7 0;
#X connect 26 0 12 0;
#X connect 26 1 21 0;
