#N canvas 230 146 1175 850 12;
#X obj 325 24 r sample-#;
#X obj 36 24 inlet;
#X msg 129 118 1;
#X obj 307 204 f;
#X obj 129 142 t f f;
#X msg 161 234 play \$1;
#X obj 480 195 ../../controller/subpart-selector;
#X obj 708 24 loadbang;
#X obj 169 173 ../../common/queued-open;
#X obj 480 24 r part-1;
#X obj 36 234 ../setting;
#X msg 36 202 18 10 2;
#X msg 307 234 ch \$1;
#X obj 36 54 ../../common/step-seq-sel-3 \$0;
#X obj 169 24 r tick-16;
#X msg 512 252 0;
#X msg 512 279 swing \$1;
#X msg 430 195 0;
#X msg 480 652 size 4 \, 3 3 11 11;
#X obj 480 226 t f b;
#X obj 161 768 ../../common/step-seq-player \$0;
#X msg 513 680 size 4 \, 3 3 11 4;
#X obj 797 563 ../../common/part-iterator;
#X obj 797 589 sel 0 1;
#X msg 976 531 2 9999;
#X msg 807 458 0;
#X msg 842 418 1;
#X obj 797 490 spigot 0;
#X obj 797 532 ../../common/beat-skip;
#X msg 948 504 2;
#X obj 842 458 t f b b f;
#X obj 797 24 r tick;
#X obj 480 338 t b b;
#X obj 36 79 t b b b b b b;
#X msg 527 714 size 4 \, 3 3 3 3;
#X msg 708 166 gran 1 \, min 0 \, max 3;
#X obj 480 311 select 0 1 2 3;
#X obj 551 400 t b b;
#X msg 314 145 0;
#X msg 348 145 1;
#X obj 503 369 t b b b b b b;
#X connect 0 0 3 1;
#X connect 1 0 13 0;
#X connect 2 0 4 0;
#X connect 3 0 12 0;
#X connect 4 0 8 1;
#X connect 4 1 5 0;
#X connect 5 0 20 0;
#X connect 6 0 19 0;
#X connect 7 0 35 0;
#X connect 8 0 20 0;
#X connect 9 0 6 0;
#X connect 11 0 10 0;
#X connect 12 0 20 0;
#X connect 13 0 33 0;
#X connect 13 1 2 0;
#X connect 13 2 38 0;
#X connect 13 3 20 4;
#X connect 13 4 6 1;
#X connect 14 0 8 0;
#X connect 15 0 16 0;
#X connect 16 0 20 0;
#X connect 17 0 19 0;
#X connect 18 0 20 0;
#X connect 19 0 36 0;
#X connect 19 1 15 0;
#X connect 21 0 20 0;
#X connect 22 0 23 0;
#X connect 23 0 34 0;
#X connect 23 1 21 0;
#X connect 24 0 22 1;
#X connect 25 0 27 1;
#X connect 26 0 30 0;
#X connect 27 0 28 0;
#X connect 28 0 22 0;
#X connect 29 0 28 2;
#X connect 30 0 27 1;
#X connect 30 1 28 1;
#X connect 30 2 29 0;
#X connect 30 3 23 0;
#X connect 31 0 27 0;
#X connect 32 0 18 0;
#X connect 32 1 25 0;
#X connect 33 0 11 0;
#X connect 33 1 17 0;
#X connect 33 2 3 0;
#X connect 33 3 35 0;
#X connect 33 5 25 0;
#X connect 34 0 20 0;
#X connect 35 0 6 2;
#X connect 36 0 32 0;
#X connect 36 1 40 0;
#X connect 36 2 34 0;
#X connect 36 3 37 0;
#X connect 37 0 34 0;
#X connect 37 1 25 0;
#X connect 38 0 8 1;
#X connect 39 0 8 1;
#X connect 40 2 39 0;
#X connect 40 3 26 0;
#X connect 40 4 24 0;
#X connect 40 5 38 0;
