#N canvas 78 343 1047 507 12;
#X obj 325 24 r sample-#;
#X obj 36 24 inlet;
#X obj 36 178 ../setting;
#X msg 129 118 1;
#X msg 222 142 0;
#X obj 307 204 f;
#X obj 36 84 ../../common/step-seq-sel-3;
#X msg 152 211 play \$1;
#X obj 170 411 ../../common/step-seq-player;
#X obj 169 24 r tick-16;
#X msg 486 330 size 16 \, 1 0 1 0 0 1 0 1 1 0 0 1 0 1 1 1;
#X msg 452 274 size 16 \, 1 0 1 0 0 0 0 1 1 0 0 0 0 0 0 0;
#X obj 480 171 spigot 0;
#X obj 480 204 ../../controller/subpart-selector;
#X obj 36 54 route listen;
#X obj 533 141 t f f;
#X obj 36 109 t b b b b;
#X msg 472 303 size 16 \, 0 0 1 0 0 1 0 1 1 0 0 1 0 0 1 0;
#X obj 655 24 loadbang;
#X obj 480 235 select 0 1 2;
#X msg 558 171 gran 1 \, min 0 \, max 2;
#X obj 169 173 ../../common/queued-open;
#X msg 36 146 70 0 0;
#X msg 307 240 ch \$1 \, voice 0;
#X obj 35 266 t b b;
#X obj 35 369 ../encoder-motion;
#X msg 67 337 9 0;
#X obj 129 142 t f f b;
#X msg 35 309 40 100 10;
#X obj 480 24 r part-1;
#X connect 0 0 5 1;
#X connect 1 0 14 0;
#X connect 3 0 27 0;
#X connect 4 0 21 1;
#X connect 5 0 23 0;
#X connect 6 0 16 0;
#X connect 6 1 3 0;
#X connect 6 2 4 0;
#X connect 7 0 8 0;
#X connect 9 0 21 0;
#X connect 10 0 8 0;
#X connect 11 0 8 0;
#X connect 12 0 13 0;
#X connect 13 0 19 0;
#X connect 14 0 15 0;
#X connect 14 1 6 0;
#X connect 15 0 12 1;
#X connect 15 1 13 1;
#X connect 16 0 22 0;
#X connect 16 1 11 0;
#X connect 16 2 5 0;
#X connect 16 3 20 0;
#X connect 17 0 8 0;
#X connect 18 0 20 0;
#X connect 19 0 11 0;
#X connect 19 1 17 0;
#X connect 19 2 10 0;
#X connect 20 0 13 0;
#X connect 21 0 8 0;
#X connect 22 0 2 0;
#X connect 23 0 8 0;
#X connect 24 0 28 0;
#X connect 24 1 26 0;
#X connect 26 0 25 1;
#X connect 27 0 21 1;
#X connect 27 1 7 0;
#X connect 27 2 24 0;
#X connect 28 0 25 0;
#X connect 29 0 12 0;
