#N canvas 819 110 812 433 12;
#X obj 325 24 r sample-#;
#X obj 36 24 inlet;
#X obj 36 236 ../setting;
#X obj 169 146 spigot 0;
#X msg 129 91 1;
#X msg 222 116 0;
#X obj 307 204 f;
#X obj 36 57 ../../common/step-seq-sel-3;
#X obj 129 116 t f f;
#X msg 161 236 play \$1;
#X obj 36 116 t b b;
#X msg 36 204 88 0 9;
#X msg 307 236 ch \$1 \, voice 9 \, swing 20 \, size 16 \, 1 1 1 1
1 1 1 1 1 1 1 1 1 1 1 1;
#X obj 169 372 ../../common/step-seq-player;
#X obj 169 24 r tick-16;
#X connect 0 0 6 1;
#X connect 1 0 7 0;
#X connect 3 0 13 0;
#X connect 4 0 8 0;
#X connect 5 0 3 1;
#X connect 6 0 12 0;
#X connect 7 0 10 0;
#X connect 7 1 4 0;
#X connect 7 2 5 0;
#X connect 8 0 3 1;
#X connect 8 1 9 0;
#X connect 9 0 13 0;
#X connect 10 0 11 0;
#X connect 10 1 6 0;
#X connect 11 0 2 0;
#X connect 12 0 13 0;
#X connect 14 0 3 0;
