#N canvas 187 121 1361 829 12;
#X obj 322 24 r sample-#;
#X obj 36 24 inlet;
#X obj 36 236 ../setting;
#X msg 129 117 1;
#X msg 222 142 0;
#X obj 304 480 f;
#X obj 36 83 ../../common/step-seq-sel-3;
#X obj 129 142 t f f;
#X msg 161 304 play \$1;
#X obj 304 730 ../../common/step-seq-player;
#X obj 169 24 r tick-16;
#X obj 36 53 route listen;
#X obj 771 480 f;
#X obj 771 730 ../../common/step-seq-player;
#X obj 169 253 ../../common/queued-open;
#X msg 36 204 60 4 2;
#X msg 403 440 0;
#X msg 920 440 1;
#X msg 426 480 voice \$1;
#X msg 304 525 ch \$1 \, swing 0 \, size 16 \, 1 1 1 0 1 1 1 0 1 1
1 0 1 1 1 0;
#X msg 771 525 ch \$1 \, swing 20 \, size 16 \, 0 0 0 1 0 0 0 1 0 0
0 1 0 0 0 1;
#X msg 936 480 voice \$1;
#X obj 835 277 spigot 0;
#X obj 835 310 ../../controller/subpart-selector;
#X obj 913 24 loadbang;
#X obj 835 24 r part-1;
#X msg 465 440 2;
#X msg 971 440 3;
#X obj 835 357 select 0 1;
#X obj 888 217 t f f;
#X obj 350 148 t b b b b b;
#X msg 913 277 gran 1 \, min 0 \, max 1;
#X connect 0 0 5 1;
#X connect 0 0 12 1;
#X connect 1 0 11 0;
#X connect 3 0 7 0;
#X connect 4 0 14 1;
#X connect 5 0 19 0;
#X connect 6 0 30 0;
#X connect 6 1 3 0;
#X connect 6 2 4 0;
#X connect 7 0 14 1;
#X connect 7 1 8 0;
#X connect 8 0 9 0;
#X connect 8 0 13 0;
#X connect 10 0 14 0;
#X connect 11 0 29 0;
#X connect 11 1 6 0;
#X connect 12 0 20 0;
#X connect 14 0 9 0;
#X connect 14 0 13 0;
#X connect 15 0 2 0;
#X connect 16 0 18 0;
#X connect 17 0 21 0;
#X connect 18 0 9 0;
#X connect 19 0 9 0;
#X connect 20 0 13 0;
#X connect 21 0 13 0;
#X connect 22 0 23 0;
#X connect 23 0 28 0;
#X connect 24 0 31 0;
#X connect 25 0 22 0;
#X connect 26 0 18 0;
#X connect 27 0 21 0;
#X connect 28 0 16 0;
#X connect 28 0 17 0;
#X connect 28 1 26 0;
#X connect 28 1 27 0;
#X connect 29 0 22 1;
#X connect 29 1 23 1;
#X connect 30 0 16 0;
#X connect 30 1 5 0;
#X connect 30 2 17 0;
#X connect 30 3 12 0;
#X connect 30 4 31 0;
#X connect 31 0 23 0;
