#N canvas 336 128 1295 433 12;
#X obj 325 24 r sample-#;
#X obj 36 24 inlet;
#X obj 36 236 ../setting;
#X obj 169 172 spigot 0;
#X msg 129 117 1;
#X msg 222 142 0;
#X obj 307 204 f;
#X obj 36 83 ../../common/step-seq-sel-3;
#X obj 129 142 t f f;
#X msg 161 236 play \$1;
#X obj 169 372 ../../common/step-seq-player;
#X obj 169 24 r tick-16;
#X obj 36 53 route listen;
#X msg 36 204 60 0 9;
#X obj 778 201 f;
#X obj 640 369 ../../common/step-seq-player;
#X obj 36 142 t b b b;
#X msg 778 233 ch \$1 \, voice 8 \, swing 20 \, size 16 \, 0 0 0 1
0 0 0 1 0 0 0 1 0 0 0 1;
#X msg 307 236 ch \$1 \, voice 9 \, swing 0 \, size 16 \, 1 1 1 0 1
1 1 0 1 1 1 0 1 1 1 0;
#X connect 0 0 6 1;
#X connect 0 0 14 1;
#X connect 1 0 12 0;
#X connect 3 0 10 0;
#X connect 4 0 8 0;
#X connect 5 0 3 1;
#X connect 6 0 18 0;
#X connect 7 0 16 0;
#X connect 7 1 4 0;
#X connect 7 2 5 0;
#X connect 8 0 3 1;
#X connect 8 1 9 0;
#X connect 9 0 10 0;
#X connect 9 0 15 0;
#X connect 11 0 3 0;
#X connect 11 0 15 0;
#X connect 12 1 7 0;
#X connect 13 0 2 0;
#X connect 14 0 17 0;
#X connect 16 1 6 0;
#X connect 16 2 14 0;
#X connect 17 0 15 0;
#X connect 18 0 10 0;
