#N canvas 822 439 1175 468 12;
#X obj 325 24 r sample-#;
#X obj 36 24 inlet;
#X msg 129 118 1;
#X msg 222 139 0;
#X obj 307 204 f;
#X obj 36 84 ../../common/step-seq-sel-3;
#X obj 129 142 t f f;
#X msg 161 234 play \$1;
#X obj 170 411 ../../common/step-seq-player;
#X obj 480 204 ../../controller/subpart-selector;
#X obj 36 54 route listen;
#X obj 36 109 t b b b b;
#X obj 708 24 loadbang;
#X msg 708 166 gran 1 \, min 0 \, max 1;
#X obj 480 234 select 0 1;
#X msg 473 301 size 4 \, 1 1 1 1;
#X obj 169 173 ../../common/queued-open;
#X msg 452 274 size 4 \, 1 1 1 1;
#X obj 480 24 r part-1;
#X obj 36 234 ../setting;
#X obj 169 24 r tick-16;
#X msg 307 234 ch \$1 \, voice 2;
#X msg 36 202 18 10 2;
#X connect 0 0 4 1;
#X connect 1 0 10 0;
#X connect 2 0 6 0;
#X connect 3 0 16 1;
#X connect 4 0 21 0;
#X connect 5 0 11 0;
#X connect 5 1 2 0;
#X connect 5 2 3 0;
#X connect 6 0 16 1;
#X connect 6 1 7 0;
#X connect 7 0 8 0;
#X connect 9 0 14 0;
#X connect 10 0 9 1;
#X connect 10 1 5 0;
#X connect 11 0 22 0;
#X connect 11 1 17 0;
#X connect 11 2 4 0;
#X connect 11 3 13 0;
#X connect 12 0 13 0;
#X connect 13 0 9 2;
#X connect 14 0 17 0;
#X connect 14 1 15 0;
#X connect 15 0 8 0;
#X connect 16 0 8 0;
#X connect 17 0 8 0;
#X connect 18 0 9 0;
#X connect 20 0 16 0;
#X connect 21 0 8 0;
#X connect 22 0 19 0;
