#N canvas 478 226 1175 630 12;
#X obj 325 24 r sample-#;
#X obj 36 24 inlet;
#X msg 129 118 1;
#X msg 309 144 0;
#X obj 307 204 f;
#X obj 129 142 t f f;
#X msg 161 234 play \$1;
#X obj 480 137 ../../controller/subpart-selector;
#X obj 708 24 loadbang;
#X msg 708 113 gran 1 \, min 0 \, max 1;
#X obj 480 195 select 0 1;
#X obj 169 173 ../../common/queued-open;
#X obj 480 24 r part-1;
#X obj 446 577 ../setting;
#X obj 57 577 ../../kp3/touch;
#X msg 57 377 0 0;
#X msg 307 234 ch \$1;
#X obj 36 80 t b b b b b;
#X msg 480 222 size 4 \, 2 2 2 2;
#X obj 169 24 r tick-16;
#X obj 36 55 ../../common/step-seq-sel-3 \$0;
#X obj 169 577 ../../common/step-seq-player \$0;
#X obj 595 344 + 1;
#X obj 169 322 spigot 1;
#X obj 489 295 spigot 0;
#X msg 500 269 0;
#X msg 533 269 1;
#X msg 176 298 0;
#X msg 209 298 1;
#X msg 573 322 0;
#X obj 555 345 f;
#X obj 480 166 t f b b b;
#X obj 555 370 mod 128;
#X obj 446 541 ../../common/setting-builder;
#X obj 533 246 t b b b;
#X msg 639 517 2;
#X msg 630 458 64;
#X msg 580 459 75;
#X msg 542 516 6;
#X obj 555 395 sel 13 45 47 49 77 113;
#X connect 0 0 4 1;
#X connect 1 0 20 0;
#X connect 2 0 5 0;
#X connect 3 0 11 1;
#X connect 4 0 16 0;
#X connect 5 0 11 1;
#X connect 5 1 6 0;
#X connect 6 0 21 0;
#X connect 7 0 31 0;
#X connect 8 0 9 0;
#X connect 9 0 7 2;
#X connect 10 0 18 0;
#X connect 10 1 34 0;
#X connect 11 0 23 0;
#X connect 11 0 24 0;
#X connect 12 0 7 0;
#X connect 15 0 14 0;
#X connect 16 0 21 0;
#X connect 17 1 18 0;
#X connect 17 2 4 0;
#X connect 17 3 9 0;
#X connect 17 4 15 0;
#X connect 18 0 21 0;
#X connect 19 0 11 0;
#X connect 20 0 17 0;
#X connect 20 1 2 0;
#X connect 20 2 3 0;
#X connect 20 3 21 4;
#X connect 20 4 7 1;
#X connect 22 0 30 1;
#X connect 23 0 21 0;
#X connect 24 0 30 0;
#X connect 25 0 24 1;
#X connect 26 0 24 1;
#X connect 27 0 23 1;
#X connect 28 0 23 1;
#X connect 29 0 30 1;
#X connect 30 0 22 0;
#X connect 30 0 32 0;
#X connect 31 0 10 0;
#X connect 31 1 25 0;
#X connect 31 2 28 0;
#X connect 31 3 29 0;
#X connect 32 0 39 0;
#X connect 33 0 13 0;
#X connect 34 0 26 0;
#X connect 34 1 38 0;
#X connect 34 2 35 0;
#X connect 35 0 33 2;
#X connect 36 0 33 0;
#X connect 37 0 33 0;
#X connect 38 0 33 1;
#X connect 39 0 28 0;
#X connect 39 1 37 0;
#X connect 39 2 27 0;
#X connect 39 3 36 0;
#X connect 39 4 28 0;
#X connect 39 5 27 0;
