#N canvas 184 189 1395 630 12;
#X obj 325 24 r sample-#;
#X obj 36 24 inlet;
#X msg 129 118 1;
#X msg 309 144 0;
#X obj 307 204 f;
#X obj 129 142 t f f;
#X msg 161 234 play \$1;
#X obj 480 137 ../../controller/subpart-selector;
#X obj 708 24 loadbang;
#X obj 169 173 ../../common/queued-open;
#X obj 480 24 r part-1;
#X obj 446 577 ../setting;
#X obj 57 577 ../../kp3/touch;
#X msg 57 377 0 0;
#X msg 307 234 ch \$1;
#X msg 480 222 size 4 \, 2 2 2 2;
#X obj 169 24 r tick-16;
#X obj 36 55 ../../common/step-seq-sel-3 \$0;
#X obj 169 577 ../../common/step-seq-player \$0;
#X obj 595 344 + 1;
#X obj 169 379 spigot 1;
#X obj 489 295 spigot 0;
#X msg 500 269 0;
#X msg 533 269 1;
#X msg 189 353 0;
#X msg 222 353 1;
#X msg 573 322 0;
#X obj 555 345 f;
#X obj 555 370 mod 128;
#X obj 446 541 ../../common/setting-builder;
#X obj 533 246 t b b b;
#X msg 639 517 2;
#X msg 630 458 64;
#X msg 580 459 75;
#X msg 542 516 6;
#X obj 555 395 sel 13 45 47 49 77 113;
#X obj 480 166 t f b b b b;
#X obj 904 468 random 64;
#X obj 904 437 spigot 0;
#X msg 957 388 0;
#X msg 924 388 1;
#X msg 992 415 5;
#X msg 708 113 gran 1 \, min 0 \, max 3;
#X obj 480 195 select 0 1 2 3;
#X obj 911 137 ../../controller/subpart-selector;
#X obj 911 24 r effect;
#X obj 911 201 t b b b;
#X obj 934 229 t b b b;
#X msg 685 301 size 20 \, 2 -1 2 -1 2 -1 -1 -1 -1 -1 -1 -1 -1 -1 -1
-1 -1 -1 -1 -1;
#X msg 685 343 size 20 \, 2 2 2 -1 -1 -1 -1 -1 -1 -1 -1 -1 -1 -1 -1
-1 -1 -1 -1 -1;
#X obj 243 24 r tick-8 0;
#X obj 192 442 spigot 0;
#X msg 216 414 0;
#X obj 911 170 select 0 1 2 3;
#X msg 1139 113 gran 1 \, min 0 \, max 3;
#X obj 1018 267 t b b;
#X msg 259 415 1;
#X obj 971 258 t b b;
#X msg 420 495 90 0 2;
#X obj 36 85 t b b b b b b b;
#X connect 0 0 4 1;
#X connect 1 0 17 0;
#X connect 2 0 5 0;
#X connect 3 0 9 1;
#X connect 4 0 14 0;
#X connect 5 0 9 1;
#X connect 5 1 6 0;
#X connect 6 0 18 0;
#X connect 7 0 36 0;
#X connect 8 0 42 0;
#X connect 9 0 20 0;
#X connect 9 0 21 0;
#X connect 10 0 7 0;
#X connect 13 0 12 0;
#X connect 14 0 18 0;
#X connect 15 0 18 0;
#X connect 16 0 9 0;
#X connect 16 0 38 0;
#X connect 17 0 59 0;
#X connect 17 1 2 0;
#X connect 17 2 3 0;
#X connect 17 3 18 4;
#X connect 17 4 7 1;
#X connect 17 4 44 1;
#X connect 19 0 27 1;
#X connect 20 0 18 0;
#X connect 21 0 27 0;
#X connect 22 0 21 1;
#X connect 23 0 21 1;
#X connect 24 0 20 1;
#X connect 25 0 20 1;
#X connect 26 0 27 1;
#X connect 27 0 19 0;
#X connect 27 0 28 0;
#X connect 28 0 35 0;
#X connect 29 0 11 0;
#X connect 30 0 23 0;
#X connect 30 1 34 0;
#X connect 30 2 31 0;
#X connect 31 0 29 2;
#X connect 32 0 29 0;
#X connect 33 0 29 0;
#X connect 34 0 29 1;
#X connect 35 0 25 0;
#X connect 35 1 33 0;
#X connect 35 2 24 0;
#X connect 35 3 32 0;
#X connect 35 4 25 0;
#X connect 35 5 24 0;
#X connect 36 0 43 0;
#X connect 36 1 22 0;
#X connect 36 2 25 0;
#X connect 36 3 26 0;
#X connect 37 0 29 0;
#X connect 38 0 37 0;
#X connect 39 0 38 1;
#X connect 40 0 38 1;
#X connect 41 0 29 1;
#X connect 42 0 7 2;
#X connect 43 0 15 0;
#X connect 43 1 30 0;
#X connect 43 2 48 0;
#X connect 43 3 49 0;
#X connect 44 0 53 0;
#X connect 45 0 44 0;
#X connect 46 0 34 0;
#X connect 46 1 32 0;
#X connect 46 2 39 0;
#X connect 47 0 40 0;
#X connect 47 1 41 0;
#X connect 48 0 18 0;
#X connect 49 0 18 0;
#X connect 50 0 51 0;
#X connect 51 0 18 0;
#X connect 52 0 51 1;
#X connect 53 0 46 0;
#X connect 53 1 47 0;
#X connect 53 2 57 0;
#X connect 53 3 55 0;
#X connect 54 0 44 2;
#X connect 55 0 52 0;
#X connect 55 1 25 0;
#X connect 56 0 51 1;
#X connect 57 0 56 0;
#X connect 57 1 24 0;
#X connect 58 0 11 0;
#X connect 59 1 15 0;
#X connect 59 2 4 0;
#X connect 59 3 42 0;
#X connect 59 4 13 0;
#X connect 59 5 54 0;
#X connect 59 6 58 0;
