#N canvas 501 385 1175 468 12;
#X obj 325 24 r sample-#;
#X obj 36 24 inlet;
#X obj 36 236 ../setting;
#X msg 129 118 1;
#X msg 222 139 0;
#X obj 307 204 f;
#X obj 36 84 ../../common/step-seq-sel-3;
#X obj 129 142 t f f;
#X msg 161 236 play \$1;
#X obj 170 411 ../../common/step-seq-player;
#X obj 480 171 spigot 0;
#X obj 480 204 ../../controller/subpart-selector;
#X obj 36 54 route listen;
#X obj 533 141 t f f;
#X obj 36 109 t b b b b;
#X obj 655 24 loadbang;
#X msg 307 240 ch \$1 \, voice 0;
#X obj 169 24 r tick-4;
#X msg 558 171 gran 1 \, min 0 \, max 1;
#X obj 480 235 select 0 1;
#X msg 473 301 size 4 \, 1 1 1 1;
#X msg 36 204 20 9 0;
#X obj 169 173 ../../common/queued-open;
#X msg 452 274 size 4 \, 1 1 1 1;
#X obj 480 24 r enc-1;
#X connect 0 0 5 1;
#X connect 1 0 12 0;
#X connect 3 0 7 0;
#X connect 4 0 22 1;
#X connect 5 0 16 0;
#X connect 6 0 14 0;
#X connect 6 1 3 0;
#X connect 6 2 4 0;
#X connect 7 0 22 1;
#X connect 7 1 8 0;
#X connect 8 0 9 0;
#X connect 10 0 11 0;
#X connect 11 0 19 0;
#X connect 12 0 13 0;
#X connect 12 1 6 0;
#X connect 13 0 10 1;
#X connect 13 1 11 1;
#X connect 14 0 21 0;
#X connect 14 1 23 0;
#X connect 14 2 5 0;
#X connect 14 3 18 0;
#X connect 15 0 18 0;
#X connect 16 0 9 0;
#X connect 17 0 22 0;
#X connect 18 0 11 0;
#X connect 19 0 23 0;
#X connect 19 1 20 0;
#X connect 20 0 9 0;
#X connect 21 0 2 0;
#X connect 22 0 9 0;
#X connect 23 0 9 0;
#X connect 24 0 10 0;
