#N canvas 480 205 1175 690 12;
#X obj 325 24 r sample-#;
#X obj 36 24 inlet;
#X msg 129 118 1;
#X msg 222 139 0;
#X obj 307 204 f;
#X obj 129 142 t f f;
#X msg 161 234 play \$1;
#X obj 480 195 ../../controller/subpart-selector;
#X obj 708 24 loadbang;
#X obj 169 173 ../../common/queued-open;
#X obj 36 234 ../setting;
#X msg 36 202 18 10 2;
#X msg 307 234 ch \$1;
#X obj 36 79 t b b b b b;
#X obj 36 54 ../../common/step-seq-sel-3 \$0;
#X msg 553 257 0;
#X msg 553 284 swing \$1;
#X msg 430 195 0;
#X obj 480 226 t f b;
#X obj 169 599 ../../common/step-seq-player \$0;
#X obj 169 24 r tick-16;
#X msg 503 392 size 8 \, 8 -1 -1 8 8 -1 9 9;
#X msg 527 430 size 10 \, 8 8 -1 -1 -1 8 8 8 -1 -1;
#X msg 480 341 size 32 \, 9 8 9 -1 -1 -1 -1 -1 -1 -1 -1 -1 -1 -1 -1
-1 -1 -1 -1 -1 -1 -1 -1 -1 -1 -1 -1 -1 -1 -1 -1 -1;
#X msg 551 474 size 8 \, 8 8 8 8 8 8 8 8 8 8;
#X msg 708 166 gran 1 \, min 0 \, max 3;
#X obj 480 311 select 0 1 2 3;
#X obj 480 24 r enc-1;
#X obj 553 94 ../../common/encoded-swing;
#X obj 553 24 r enc-8;
#X connect 0 0 4 1;
#X connect 1 0 14 0;
#X connect 2 0 5 0;
#X connect 3 0 9 1;
#X connect 4 0 12 0;
#X connect 5 0 9 1;
#X connect 5 1 6 0;
#X connect 6 0 19 0;
#X connect 7 0 18 0;
#X connect 8 0 25 0;
#X connect 9 0 19 0;
#X connect 11 0 10 0;
#X connect 12 0 19 0;
#X connect 13 1 17 0;
#X connect 13 2 4 0;
#X connect 13 3 25 0;
#X connect 14 0 13 0;
#X connect 14 1 2 0;
#X connect 14 2 3 0;
#X connect 14 3 19 4;
#X connect 14 4 7 1;
#X connect 15 0 16 0;
#X connect 16 0 19 0;
#X connect 17 0 18 0;
#X connect 18 0 26 0;
#X connect 18 1 15 0;
#X connect 20 0 9 0;
#X connect 21 0 19 0;
#X connect 22 0 19 0;
#X connect 23 0 19 0;
#X connect 24 0 19 0;
#X connect 25 0 7 2;
#X connect 26 0 23 0;
#X connect 26 1 21 0;
#X connect 26 2 22 0;
#X connect 26 3 24 0;
#X connect 27 0 7 0;
#X connect 28 0 16 0;
#X connect 29 0 28 0;
