#N canvas 70 105 1569 829 12;
#X obj 322 24 r sample-#;
#X obj 36 24 inlet;
#X obj 10 491 ../setting;
#X msg 129 117 1;
#X msg 222 142 0;
#X obj 304 480 f;
#X obj 36 83 ../../common/step-seq-sel-3;
#X obj 129 142 t f f;
#X msg 161 304 play \$1;
#X obj 304 730 ../../common/step-seq-player;
#X obj 169 24 r tick-16;
#X obj 36 53 route listen;
#X obj 771 480 f;
#X obj 771 730 ../../common/step-seq-player;
#X obj 169 253 ../../common/queued-open;
#X msg 10 459 60 4 2;
#X msg 625 389 0;
#X msg 908 389 1;
#X msg 424 480 voice \$1;
#X msg 936 480 voice \$1;
#X obj 678 289 ../../controller/subpart-selector;
#X obj 906 24 loadbang;
#X obj 678 24 r part-1;
#X msg 686 389 2;
#X msg 304 525 ch \$1 \, swing 0 \, size 16;
#X msg 322 556 1 1 1 0 1 1 1 0 1 1 1 0 1 1 1 0;
#X msg 351 596 1 1 1 1 1 1 1 1 1 1 1 1 1 1 1 1;
#X obj 497 140 t b b b b b;
#X msg 906 249 gran 1 \, min 0 \, max 1;
#X obj 678 336 select 0 1;
#X msg 771 525 ch \$1 \, swing 0 \, size 16;
#X msg 785 556 0 0 0 1 0 0 0 1 0 0 0 1 0 0 0 1;
#X msg 803 596 0 0 0 0 0 0 0 0 0 0 0 0 0 0 0 0;
#X obj 625 426 t f b b;
#X obj 686 426 t f b b;
#X connect 0 0 5 1;
#X connect 0 0 12 1;
#X connect 1 0 11 0;
#X connect 3 0 7 0;
#X connect 4 0 14 1;
#X connect 5 0 24 0;
#X connect 6 0 27 0;
#X connect 6 1 3 0;
#X connect 6 2 4 0;
#X connect 7 0 14 1;
#X connect 7 1 8 0;
#X connect 8 0 9 0;
#X connect 8 0 13 0;
#X connect 10 0 14 0;
#X connect 11 0 20 1;
#X connect 11 1 6 0;
#X connect 12 0 30 0;
#X connect 14 0 9 0;
#X connect 14 0 13 0;
#X connect 15 0 2 0;
#X connect 16 0 33 0;
#X connect 17 0 19 0;
#X connect 18 0 9 0;
#X connect 19 0 13 0;
#X connect 20 0 29 0;
#X connect 21 0 28 0;
#X connect 22 0 20 0;
#X connect 23 0 34 0;
#X connect 24 0 9 0;
#X connect 25 0 9 0;
#X connect 26 0 9 0;
#X connect 27 0 16 0;
#X connect 27 1 5 0;
#X connect 27 2 17 0;
#X connect 27 3 12 0;
#X connect 27 4 28 0;
#X connect 28 0 20 2;
#X connect 29 0 16 0;
#X connect 29 1 23 0;
#X connect 30 0 13 0;
#X connect 31 0 13 0;
#X connect 32 0 13 0;
#X connect 33 0 18 0;
#X connect 33 1 25 0;
#X connect 33 2 31 0;
#X connect 34 0 18 0;
#X connect 34 1 26 0;
#X connect 34 2 32 0;
