#N canvas 226 95 1382 798 12;
#X obj 322 24 r sample-#;
#X obj 36 24 inlet;
#X obj 1181 419 ../setting;
#X msg 129 117 1;
#X msg 222 142 0;
#X obj 304 480 f;
#X obj 129 142 t f f;
#X msg 161 304 play \$1;
#X obj 169 24 r tick-16;
#X obj 36 53 route listen;
#X obj 169 253 ../../common/queued-open;
#X obj 463 284 ../../controller/subpart-selector;
#X obj 691 24 loadbang;
#X obj 463 24 r part-1;
#X obj 1183 509 ../../kp3/program;
#X obj 1182 449 ../../kp3/pad-on;
#X obj 279 142 ../../kp3/pad-off;
#X obj 220 112 t b b;
#X obj 658 714 ../../kp3/touch;
#X msg 1183 477 b 0 \, p 28;
#X msg 576 647 0 0;
#X msg 616 647 0 7;
#X obj 576 24 r tick;
#X obj 576 525 f 0;
#X obj 617 525 + 1;
#X obj 576 556 mod 4;
#X obj 576 480 spigot 0;
#X msg 589 451 0;
#X msg 629 451 1;
#X obj 431 144 t b b b b b b b b b;
#X msg 658 647 0 7;
#X msg 703 647 7 7;
#X msg 304 525 ch \$1 \, size 4;
#X obj 36 83 ../../common/step-seq-sel-3 \$0;
#X obj 576 600 route 2 0;
#X msg 691 241 gran 1 \, min 0 \, max 4;
#X obj 463 307 t f b;
#X msg 402 600 swing \$1;
#X obj 809 525 ../../common/lfo;
#X obj 403 24 r swing;
#X obj 402 480 spigot 0;
#X msg 816 451 0;
#X obj 809 480 spigot 0;
#X obj 463 331 select 0 1 2 3 4;
#X obj 809 24 r tick-4;
#X obj 886 413 t f b;
#X msg 918 480 wave 0 \, range 50 \, step 5;
#X msg 862 451 1;
#X obj 250 24 r tick-48;
#X obj 250 417 spigot;
#X msg 265 386 1;
#X msg 305 386 0;
#X msg 931 646 0 0 0 1 \, triplets 0 1 0 0;
#X msg 322 556 0 0 0 1;
#X obj 1043 235 t b b b b;
#X msg 1063 287 60 4 0;
#X msg 1043 261 85 3 0;
#X msg 1083 311 14 9 0;
#X msg 1103 337 100 10 0;
#X obj 1181 235 t b b;
#X msg 1181 261 95 3 0;
#X msg 1213 287 40 10 0;
#X obj 304 714 ../../common/step-seq-player \$0;
#X connect 0 0 5 1;
#X connect 1 0 9 0;
#X connect 3 0 6 0;
#X connect 4 0 10 1;
#X connect 5 0 32 0;
#X connect 6 0 10 1;
#X connect 6 1 7 0;
#X connect 7 0 62 0;
#X connect 8 0 10 0;
#X connect 9 0 11 1;
#X connect 9 0 33 1;
#X connect 9 0 40 1;
#X connect 9 1 33 0;
#X connect 10 0 62 0;
#X connect 11 0 36 0;
#X connect 12 0 35 0;
#X connect 13 0 11 0;
#X connect 17 0 4 0;
#X connect 17 1 41 0;
#X connect 19 0 14 0;
#X connect 20 0 18 0;
#X connect 21 0 18 0;
#X connect 22 0 26 0;
#X connect 23 0 24 0;
#X connect 23 0 25 0;
#X connect 24 0 23 1;
#X connect 25 0 34 0;
#X connect 26 0 23 0;
#X connect 27 0 26 1;
#X connect 28 0 26 1;
#X connect 29 0 53 0;
#X connect 29 1 5 0;
#X connect 29 2 20 0;
#X connect 29 3 35 0;
#X connect 29 4 19 0;
#X connect 29 5 15 0;
#X connect 29 6 54 0;
#X connect 29 7 59 0;
#X connect 30 0 18 0;
#X connect 31 0 18 0;
#X connect 32 0 62 0;
#X connect 33 0 29 0;
#X connect 33 1 3 0;
#X connect 33 1 50 0;
#X connect 33 2 17 0;
#X connect 33 2 51 0;
#X connect 33 3 62 4;
#X connect 34 0 20 0;
#X connect 34 1 21 0;
#X connect 35 0 11 2;
#X connect 36 0 43 0;
#X connect 36 1 41 0;
#X connect 37 0 62 0;
#X connect 38 1 37 0;
#X connect 39 0 40 0;
#X connect 40 0 37 0;
#X connect 41 0 42 1;
#X connect 42 0 38 0;
#X connect 43 0 27 0;
#X connect 43 0 53 0;
#X connect 43 1 28 0;
#X connect 43 2 27 0;
#X connect 43 2 30 0;
#X connect 43 3 31 0;
#X connect 43 4 45 0;
#X connect 44 0 42 0;
#X connect 45 0 47 0;
#X connect 45 1 46 0;
#X connect 46 0 38 1;
#X connect 47 0 42 1;
#X connect 48 0 49 0;
#X connect 49 0 62 1;
#X connect 50 0 49 1;
#X connect 51 0 49 1;
#X connect 53 0 62 0;
#X connect 54 0 56 0;
#X connect 54 1 55 0;
#X connect 54 2 57 0;
#X connect 54 3 58 0;
#X connect 55 0 2 0;
#X connect 56 0 2 0;
#X connect 57 0 2 0;
#X connect 58 0 2 0;
#X connect 59 0 60 0;
#X connect 59 1 61 0;
#X connect 60 0 2 0;
#X connect 61 0 2 0;
