#N canvas 187 121 1361 701 12;
#X obj 325 24 r sample-#;
#X obj 36 24 inlet;
#X obj 36 236 ../setting;
#X msg 129 117 1;
#X msg 222 142 0;
#X obj 307 204 f;
#X obj 36 83 ../../common/step-seq-sel-3;
#X obj 129 142 t f f;
#X msg 152 432 play \$1;
#X obj 168 568 ../../common/step-seq-player;
#X obj 169 24 r tick-16;
#X obj 36 53 route listen;
#X obj 778 204 f;
#X obj 676 568 ../../common/step-seq-player;
#X obj 36 142 t b b b;
#X obj 169 307 ../../common/queued-open;
#X msg 307 236 ch \$1 \, voice 0 \, swing 0 \, size 16 \, 1 1 1 0 1
1 1 0 1 1 1 0 1 1 1 0;
#X msg 778 236 ch \$1 \, voice 1 \, swing 20 \, size 16 \, 0 0 0 1
0 0 0 1 0 0 0 1 0 0 0 1;
#X msg 36 204 60 4 2;
#X connect 0 0 5 1;
#X connect 0 0 12 1;
#X connect 1 0 11 0;
#X connect 3 0 7 0;
#X connect 4 0 15 1;
#X connect 5 0 16 0;
#X connect 6 0 14 0;
#X connect 6 1 3 0;
#X connect 6 2 4 0;
#X connect 7 0 15 1;
#X connect 7 1 8 0;
#X connect 8 0 9 0;
#X connect 8 0 13 0;
#X connect 10 0 15 0;
#X connect 11 1 6 0;
#X connect 12 0 17 0;
#X connect 14 1 5 0;
#X connect 14 2 12 0;
#X connect 15 0 9 0;
#X connect 15 0 13 0;
#X connect 16 0 9 0;
#X connect 17 0 13 0;
#X connect 18 0 2 0;
