#N canvas -65 203 1569 1060 12;
#X obj 322 24 r sample-#;
#X obj 36 24 inlet;
#X obj 1250 345 ../setting;
#X msg 129 117 1;
#X msg 222 142 0;
#X obj 304 480 f;
#X obj 36 83 ../../common/step-seq-sel-3;
#X obj 129 142 t f f;
#X msg 161 304 play \$1;
#X obj 304 730 ../../common/step-seq-player;
#X obj 169 24 r tick-16;
#X obj 36 53 route listen;
#X obj 771 480 f;
#X obj 771 730 ../../common/step-seq-player;
#X obj 169 253 ../../common/queued-open;
#X msg 625 389 0;
#X msg 908 389 1;
#X msg 424 480 voice \$1;
#X msg 936 480 voice \$1;
#X obj 678 289 ../../controller/subpart-selector;
#X obj 906 24 loadbang;
#X obj 678 24 r part-1;
#X msg 304 525 ch \$1 \, swing 0 \, size 16;
#X msg 322 556 1 1 1 0 1 1 1 0 1 1 1 0 1 1 1 0;
#X msg 771 525 ch \$1 \, swing 0 \, size 16;
#X msg 785 556 0 0 0 1 0 0 0 1 0 0 0 1 0 0 0 1;
#X obj 625 426 t f b b;
#X obj 1252 435 ../../kp3/program;
#X obj 1251 375 ../../kp3/pad-on;
#X obj 279 142 ../../kp3/pad-off;
#X obj 222 112 t b b;
#X msg 1250 313 60 4 0;
#X obj 1276 674 ../../kp3/touch;
#X obj 1232 549 bng 15 250 50 0 empty empty empty 17 7 0 10 -262144
-1 -1;
#X obj 1232 569 t b b;
#X msg 1252 403 b 0 \, p 28;
#X msg 1244 612 0 0;
#X msg 1301 613 0 7;
#X obj 1073 409 r tick;
#X obj 1081 510 f 0;
#X obj 1122 510 + 1;
#X obj 1080 582 route 0 2;
#X obj 1080 544 mod 4;
#X obj 1077 459 spigot 0;
#X msg 1096 435 0;
#X msg 1136 436 1;
#X obj 497 140 t b b b b b b b b b;
#X msg 1358 614 0 7;
#X msg 1412 614 7 7;
#X msg 906 249 gran 1 \, min 0 \, max 3;
#X obj 678 336 select 0 1 2 3;
#X connect 0 0 5 1;
#X connect 0 0 12 1;
#X connect 1 0 11 0;
#X connect 3 0 7 0;
#X connect 4 0 14 1;
#X connect 5 0 22 0;
#X connect 6 0 46 0;
#X connect 6 1 3 0;
#X connect 6 2 30 0;
#X connect 7 0 14 1;
#X connect 7 1 8 0;
#X connect 8 0 9 0;
#X connect 8 0 13 0;
#X connect 10 0 14 0;
#X connect 11 0 19 1;
#X connect 11 1 6 0;
#X connect 12 0 24 0;
#X connect 14 0 9 0;
#X connect 14 0 13 0;
#X connect 15 0 26 0;
#X connect 16 0 18 0;
#X connect 17 0 9 0;
#X connect 18 0 13 0;
#X connect 19 0 50 0;
#X connect 20 0 49 0;
#X connect 21 0 19 0;
#X connect 22 0 9 0;
#X connect 23 0 9 0;
#X connect 24 0 13 0;
#X connect 25 0 13 0;
#X connect 26 0 17 0;
#X connect 26 1 23 0;
#X connect 26 2 25 0;
#X connect 30 0 4 0;
#X connect 31 0 2 0;
#X connect 33 0 34 0;
#X connect 34 0 36 0;
#X connect 35 0 27 0;
#X connect 36 0 32 0;
#X connect 37 0 32 0;
#X connect 38 0 43 0;
#X connect 39 0 40 0;
#X connect 39 0 42 0;
#X connect 40 0 39 1;
#X connect 41 0 36 0;
#X connect 41 1 37 0;
#X connect 42 0 41 0;
#X connect 43 0 39 0;
#X connect 44 0 43 1;
#X connect 45 0 43 1;
#X connect 46 0 15 0;
#X connect 46 1 5 0;
#X connect 46 2 16 0;
#X connect 46 3 12 0;
#X connect 46 4 49 0;
#X connect 46 5 35 0;
#X connect 46 6 28 0;
#X connect 46 7 31 0;
#X connect 46 8 36 0;
#X connect 47 0 32 0;
#X connect 49 0 19 2;
#X connect 50 0 15 0;
#X connect 50 0 16 0;
#X connect 50 0 44 0;
#X connect 50 1 45 0;
#X connect 50 2 44 0;
#X connect 50 2 47 0;
#X connect 50 3 48 0;
