#N canvas 347 136 1193 834 12;
#X obj 322 24 r sample-#;
#X obj 36 24 inlet;
#X obj 936 413 ../setting;
#X msg 129 117 1;
#X msg 222 142 0;
#X obj 304 480 f;
#X obj 129 142 t f f;
#X msg 161 304 play \$1;
#X obj 304 714 ../../common/step-seq-player;
#X obj 169 24 r tick-16;
#X obj 36 53 route listen;
#X obj 169 253 ../../common/queued-open;
#X obj 463 284 ../../controller/subpart-selector;
#X obj 691 24 loadbang;
#X obj 463 24 r part-1;
#X obj 938 503 ../../kp3/program;
#X obj 937 443 ../../kp3/pad-on;
#X obj 279 142 ../../kp3/pad-off;
#X obj 222 112 t b b;
#X msg 936 381 60 4 0;
#X obj 658 714 ../../kp3/touch;
#X msg 938 471 b 0 \, p 28;
#X msg 576 647 0 0;
#X msg 616 647 0 7;
#X obj 576 24 r tick;
#X obj 576 534 f 0;
#X obj 617 534 + 1;
#X obj 576 606 route 0 2;
#X obj 576 568 mod 4;
#X obj 576 483 spigot 0;
#X msg 589 442 0;
#X msg 629 443 1;
#X obj 431 144 t b b b b b b b b b;
#X msg 658 647 0 7;
#X msg 703 647 7 7;
#X msg 691 242 gran 1 \, min 0 \, max 3;
#X obj 463 331 select 0 1 2 3;
#X msg 304 525 ch \$1 \, size 4;
#X msg 322 556 0 0 0 1;
#X obj 36 83 ../../common/step-seq-sel-3 \$0;
#X connect 0 0 5 1;
#X connect 1 0 10 0;
#X connect 3 0 6 0;
#X connect 4 0 11 1;
#X connect 5 0 37 0;
#X connect 6 0 11 1;
#X connect 6 1 7 0;
#X connect 7 0 8 0;
#X connect 9 0 11 0;
#X connect 10 0 12 1;
#X connect 10 0 39 1;
#X connect 10 1 39 0;
#X connect 11 0 8 0;
#X connect 12 0 36 0;
#X connect 13 0 35 0;
#X connect 14 0 12 0;
#X connect 18 0 4 0;
#X connect 19 0 2 0;
#X connect 21 0 15 0;
#X connect 22 0 20 0;
#X connect 23 0 20 0;
#X connect 24 0 29 0;
#X connect 25 0 26 0;
#X connect 25 0 28 0;
#X connect 26 0 25 1;
#X connect 27 0 22 0;
#X connect 27 1 23 0;
#X connect 28 0 27 0;
#X connect 29 0 25 0;
#X connect 30 0 29 1;
#X connect 31 0 29 1;
#X connect 32 0 5 0;
#X connect 32 1 38 0;
#X connect 32 2 22 0;
#X connect 32 3 35 0;
#X connect 32 4 21 0;
#X connect 32 5 16 0;
#X connect 32 6 19 0;
#X connect 33 0 20 0;
#X connect 34 0 20 0;
#X connect 35 0 12 2;
#X connect 36 0 30 0;
#X connect 36 0 38 0;
#X connect 36 1 31 0;
#X connect 36 2 30 0;
#X connect 36 2 33 0;
#X connect 36 3 34 0;
#X connect 37 0 8 0;
#X connect 38 0 8 0;
#X connect 39 0 32 0;
#X connect 39 1 3 0;
#X connect 39 2 18 0;
#X connect 39 3 8 3;
