#N canvas 147 140 1569 829 12;
#X obj 322 24 r sample-#;
#X obj 36 24 inlet;
#X obj 10 491 ../setting;
#X msg 129 117 1;
#X msg 222 142 0;
#X obj 304 480 f;
#X obj 36 83 ../../common/step-seq-sel-3;
#X obj 129 142 t f f;
#X msg 161 304 play \$1;
#X obj 304 730 ../../common/step-seq-player;
#X obj 169 24 r tick-16;
#X obj 36 53 route listen;
#X obj 771 480 f;
#X obj 771 730 ../../common/step-seq-player;
#X obj 169 253 ../../common/queued-open;
#X msg 625 389 0;
#X msg 908 389 1;
#X msg 424 480 voice \$1;
#X msg 936 480 voice \$1;
#X obj 678 289 ../../controller/subpart-selector;
#X obj 906 24 loadbang;
#X msg 686 389 2;
#X msg 304 525 ch \$1 \, swing 0 \, size 16;
#X msg 322 556 1 1 1 0 1 1 1 0 1 1 1 0 1 1 1 0;
#X msg 351 596 1 1 1 1 1 1 1 1 1 1 1 1 1 1 1 1;
#X msg 906 249 gran 1 \, min 0 \, max 1;
#X obj 678 336 select 0 1;
#X msg 771 525 ch \$1 \, swing 0 \, size 16;
#X msg 785 556 0 0 0 1 0 0 0 1 0 0 0 1 0 0 0 1;
#X msg 803 596 0 0 0 0 0 0 0 0 0 0 0 0 0 0 0 0;
#X obj 625 426 t f b b;
#X obj 686 426 t f b b;
#X obj 1134 335 ../../kp3/program;
#X obj 76 669 ../../kp3/touch;
#X obj 1132 268 ../../kp3/pad-on;
#X obj 279 142 ../../kp3/pad-off;
#X obj 222 112 t b b;
#X obj 497 140 t b b b b b b b;
#X msg 10 459 60 4 0;
#X msg 108 606 13 100;
#X obj 32 544 bng 15 250 50 0 empty empty empty 17 7 0 10 -262144 -1
-1;
#X msg 44 607 12 100;
#X obj 1276 674 ../../kp3/touch;
#X obj 1232 549 bng 15 250 50 0 empty empty empty 17 7 0 10 -262144
-1 -1;
#X msg 1244 612 12 127;
#X obj 1232 569 t b b;
#X obj 32 564 t b b b b b;
#X obj 1151 151 ../../kp3/touch;
#X obj 1107 26 bng 15 250 50 0 empty empty empty 17 7 0 10 -262144
-1 -1;
#X obj 1107 46 t b b b b b;
#X msg 1119 89 12 0;
#X msg 1185 88 13 0;
#X msg 1134 303 b 0 \, p 45;
#X obj 1241 447 ../../kp3/swipe;
#X obj 1208 206 bng 15 250 50 0 empty empty empty 17 7 0 10 -262144
-1 -1;
#X msg 1308 611 13 0;
#X msg 1317 396 4 8 1;
#X obj 1216 382 bng 15 250 50 0 empty empty empty 17 7 0 10 -262144
-1 -1;
#X obj 678 24 r enc-1;
#X connect 0 0 5 1;
#X connect 0 0 12 1;
#X connect 1 0 11 0;
#X connect 3 0 7 0;
#X connect 4 0 14 1;
#X connect 5 0 22 0;
#X connect 6 0 37 0;
#X connect 6 1 3 0;
#X connect 6 2 36 0;
#X connect 7 0 14 1;
#X connect 7 1 8 0;
#X connect 8 0 9 0;
#X connect 8 0 13 0;
#X connect 10 0 14 0;
#X connect 11 0 19 1;
#X connect 11 1 6 0;
#X connect 12 0 27 0;
#X connect 14 0 9 0;
#X connect 14 0 13 0;
#X connect 15 0 30 0;
#X connect 16 0 18 0;
#X connect 17 0 9 0;
#X connect 18 0 13 0;
#X connect 19 0 26 0;
#X connect 20 0 25 0;
#X connect 21 0 31 0;
#X connect 22 0 9 0;
#X connect 23 0 9 0;
#X connect 24 0 9 0;
#X connect 25 0 19 2;
#X connect 26 0 15 0;
#X connect 26 1 21 0;
#X connect 27 0 13 0;
#X connect 28 0 13 0;
#X connect 29 0 13 0;
#X connect 30 0 17 0;
#X connect 30 1 23 0;
#X connect 30 2 28 0;
#X connect 31 0 17 0;
#X connect 31 1 24 0;
#X connect 31 2 29 0;
#X connect 36 0 4 0;
#X connect 37 0 15 0;
#X connect 37 1 5 0;
#X connect 37 2 16 0;
#X connect 37 3 12 0;
#X connect 37 4 25 0;
#X connect 37 5 52 0;
#X connect 37 6 34 0;
#X connect 38 0 2 0;
#X connect 39 0 33 0;
#X connect 40 0 46 0;
#X connect 41 0 33 0;
#X connect 43 0 45 0;
#X connect 44 0 42 0;
#X connect 45 0 44 0;
#X connect 45 1 55 0;
#X connect 46 0 41 0;
#X connect 46 2 39 0;
#X connect 48 0 49 0;
#X connect 49 0 50 0;
#X connect 49 2 51 0;
#X connect 50 0 47 0;
#X connect 51 0 47 0;
#X connect 52 0 32 0;
#X connect 54 0 34 0;
#X connect 55 0 42 0;
#X connect 56 0 53 2;
#X connect 56 0 53 1;
#X connect 57 0 53 0;
#X connect 58 0 19 0;
