#N canvas 120 148 937 511 12;
#X obj 198 15 ctlin;
#X obj 197 54 pack 0 0;
#X obj 197 82 route 12 13;
#X msg 60 279 13 0 \, 12 85 \, 12 83 \, 13 83 \, 12 127 \, 13 84 \,
13 84 \, 13 83 \, 13 84 \, 13 85 \, 13 86 \, 13 0 \, 12 84 \, 12 95
\, 13 95 \, 13 127 \, 13 83 \, 13 82 \, 12 81 \, 13 96 \, 13 0 \, 12
52 \, 12 37 \, 13 37 \, 13 127 \, 12 51 \, 13 38 \, 13 52 \, 12 51
\, 13 37 \, 12 50 \, 13 0 \, 12 96 \, 12 127 \, 13 127 \, 13 127 \,
13 0 \, 12 107 \, 12 122 \, 13 122 \, 12 127 \, 13 123 \, 12 108 \,
12 122 \, 12 123 \, 13 124 \, 13 0 \, 12 113 \, 12 117 \, 13 117 \,
13 127 \, 12 112 \, 13 118 \, 13 0 \, 12 101 \, 13 118 \, 13 127 \,
12 100 \, 13 117 \, 12 101 \, 13 118 \, 13 0 \, 12 118 \, 12 18 \,
13 18 \, 13 127 \, 12 120 \, 13 19 \, 12 121 \, 13 20 \, 12 123 \,
13 22 \, 12 125 \, 13 24 \, 12 126 \, 13 26 \, 12 127 \, 12 29 \, 12
31 \, 12 34 \, 12 37 \, 12 41 \, 12 44 \, 12 48 \, 12 49 \, 12 52 \,
12 56 \, 12 60 \, 12 65 \, 12 69 \, 12 77 \, 12 82 \, 12 86 \, 12 90
\, 13 94 \, 12 125 \, 13 97 \, 12 124 \, 13 100 \, 12 123 \, 13 103
\, 12 120 \, 13 106 \, 12 119 \, 13 109 \, 12 117 \, 13 111 \, 12 115
\, 13 114 \, 12 113 \, 13 115 \, 12 111 \, 13 117 \, 12 109 \, 13 118
\, 12 107 \, 13 120 \, 13 106 \, 13 105 \, 13 103 \, 13 102 \, 13 100
\, 13 99 \, 12 98 \, 13 118 \, 12 97 \, 13 116 \, 12 95 \, 13 114 \,
12 93 \, 13 112 \, 12 92 \, 13 110 \, 12 91 \, 13 107 \, 12 90 \, 12
104 \, 13 100 \, 12 88 \, 12 97 \, 13 94 \, 12 87 \, 12 89 \, 13 84
\, 12 86 \, 12 78 \, 12 73 \, 12 68 \, 12 62 \, 12 56 \, 12 50 \, 12
44 \, 12 39 \, 12 33 \, 12 28 \, 12 23 \, 12 18 \, 12 13 \, 12 9 \,
13 6 \, 12 87 \, 12 2 \, 13 0 \, 13 88 \, 13 89 \, 13 90 \, 13 91 \,
13 93 \, 13 94 \, 12 96 \, 13 2 \, 12 97 \, 13 6 \, 12 98 \, 13 9 \,
12 100 \, 12 15 \, 12 19 \, 12 23 \, 12 29 \, 12 33 \, 12 37 \, 12
41 \, 12 43 \, 13 50 \, 12 98 \, 12 55 \, 13 59 \, 12 97 \, 12 64 \,
13 67 \, 12 95 \, 12 70 \, 13 74 \, 12 93 \, 13 77 \, 12 92 \, 13 80
\, 12 91 \, 13 83 \, 12 89 \, 13 85 \, 12 88 \, 13 88 \, 12 87 \, 13
91 \, 12 86 \, 13 93 \, 12 84 \, 13 96 \, 12 83 \, 13 98 \, 12 82 \,
13 100 \, 12 80 \, 13 102 \, 12 79 \, 13 104 \, 12 78 \, 13 105 \,
12 77 \, 13 107 \, 12 75 \, 13 108 \, 12 74 \, 13 109 \, 12 73 \, 13
110 \, 12 71 \, 13 112 \, 12 70 \, 13 113 \, 12 69 \, 13 112 \, 12
70 \, 13 111 \, 12 72 \, 13 109 \, 12 73 \, 13 108 \, 12 74 \, 13 106
\, 12 76 \, 13 105 \, 12 77 \, 13 103 \, 12 78 \, 13 101 \, 12 80 \,
13 99 \, 12 82 \, 13 97 \, 12 84 \, 13 95 \, 12 86 \, 13 92 \, 12 88
\, 13 90 \, 12 90 \, 13 87 \, 12 93 \, 13 84 \, 12 95 \, 13 81 \, 12
97 \, 13 78 \, 12 99 \, 13 75 \, 12 101 \, 13 73 \, 12 102 \, 13 71
\, 12 103 \, 13 69 \, 12 104 \, 12 68 \, 13 66 \, 12 105 \, 13 68 \,
13 0 \, 12 119 \, 12 40 \, 13 40 \, 13 127 \, 12 118 \, 12 39 \, 12
38 \, 12 37 \, 13 36 \, 13 117 \, 13 118 \, 13 119 \, 13 121 \, 12
122 \, 13 37 \, 12 0 \, 12 62 \, 13 62 \, 12 127 \, 12 63 \, 12 64
\, 13 65 \, 12 124 \, 12 66 \, 13 67 \, 12 125 \, 13 69 \, 12 126 \,
12 71 \, 13 72 \, 12 127 \, 12 73 \, 12 74 \, 12 75 \, 12 76 \, 12
78 \, 12 79 \, 12 80 \, 12 81 \, 12 82 \, 12 83 \, 12 85 \, 12 86 \,
12 87 \, 12 88 \, 12 89 \, 12 91 \, 12 92 \, 12 93 \, 12 94 \, 12 95
\, 12 96 \, 12 97 \, 12 98 \, 12 100 \, 12 102 \, 12 103 \, 12 104
\, 12 105 \, 12 107 \, 12 108 \, 12 110 \, 12 111 \, 12 113 \, 12 114
\, 12 116 \, 12 117 \, 12 118 \, 12 119 \, 13 0 \, 12 75 \, 12 32 \,
13 32 \, 12 127 \, 13 31 \, 12 76 \, 13 30 \, 13 75 \, 13 74 \, 12
75 \, 13 31 \, 12 76 \, 12 32 \, 13 33 \, 12 77 \, 13 34 \, 12 78 \,
13 35 \, 12 79 \, 12 36 \, 13 38 \, 12 80 \, 13 39 \, 12 81 \, 13 40
\, 12 82 \, 13 41 \, 12 84 \, 12 43 \, 13 44 \, 12 85 \, 13 46 \, 12
86 \, 13 48 \, 12 87 \, 13 49 \, 12 88 \, 12 50 \, 13 51 \, 12 90 \,
13 53 \, 12 91 \, 12 54 \, 13 55 \, 12 92 \, 13 56 \, 12 93 \, 12 58
\, 13 59 \, 12 94 \, 13 60 \, 12 95 \, 12 61 \, 12 62 \, 13 63 \, 12
97 \, 12 65 \, 13 66 \, 12 98 \, 12 67 \, 13 69 \, 12 99 \, 13 70 \,
12 100 \, 12 71 \, 13 72 \, 12 101 \, 13 74 \, 12 102 \, 12 75 \, 12
76 \, 13 77 \, 12 103 \, 12 78 \, 12 79 \, 13 80 \, 12 104 \, 12 81
\, 13 82 \, 12 106 \, 12 83 \, 13 84 \, 12 107 \, 12 85 \, 13 86 \,
12 108 \, 12 87 \, 12 88 \, 13 89 \, 12 109 \, 12 90 \, 13 91 \, 12
110 \, 12 92 \, 13 93 \, 12 111 \, 13 94 \, 12 112 \, 12 95 \, 13 96
\, 12 113 \, 12 97 \, 12 98 \, 13 99 \, 12 115 \, 13 100 \, 12 116
\, 13 102 \, 12 117 \, 12 104 \, 13 105 \, 12 118 \, 13 106 \, 12 119
\, 13 108 \, 12 120 \, 13 110 \, 12 122 \, 13 111 \, 12 123 \, 12 112
\, 13 113 \, 12 124 \, 13 114 \, 12 125 \, 13 116 \, 12 126 \, 13 117
\, 12 127 \, 12 118 \, 12 119 \, 12 121 \, 12 122 \, 12 123 \, 12 124
\, 12 125 \, 12 126 \, 12 125 \, 12 124 \, 12 123 \, 12 122 \, 12 121
\, 12 120 \, 12 118 \, 12 117 \, 12 116 \, 13 115 \, 12 126 \, 12 114
\, 13 113 \, 12 124 \, 12 112 \, 13 111 \, 12 122 \, 13 110 \, 12 121
\, 13 109 \, 12 120 \, 12 108 \, 13 107 \, 12 119 \, 12 106 \, 13 105
\, 12 117 \, 13 104 \, 12 116 \, 12 102 \, 13 101 \, 12 115 \, 12 100
\, 13 99 \, 12 113 \, 12 98 \, 13 97 \, 12 111 \, 13 95 \, 12 109 \,
12 94 \, 13 93 \, 12 108 \, 13 92 \, 12 107 \, 13 91 \, 12 106 \, 13
89 \, 12 105 \, 12 88 \, 13 87 \, 12 103 \, 13 86 \, 12 102 \, 13 85
\, 12 101 \, 13 83 \, 12 100 \, 12 82 \, 13 81 \, 12 98 \, 13 80 \,
12 97 \, 13 78 \, 12 96 \, 13 77 \, 12 95 \, 13 76 \, 12 94 \, 13 74
\, 12 93 \, 12 73 \, 13 72 \, 12 92 \, 13 71 \, 12 91 \, 13 70 \, 12
90 \, 13 68 \, 12 89 \, 12 67 \, 13 65 \, 12 87 \, 12 64 \, 13 63 \,
12 85 \, 12 61 \, 13 60 \, 12 84 \, 12 59 \, 13 57 \, 12 82 \, 12 56
\, 13 55 \, 12 80 \, 12 54 \, 13 52 \, 12 79 \, 12 51 \, 13 50 \, 12
78 \, 12 49 \, 13 48 \, 12 77 \, 12 47 \, 13 46 \, 12 76 \, 12 45 \,
13 44 \, 12 74 \, 12 42 \, 12 41 \, 13 40 \, 12 73 \, 13 39 \, 12 72
\, 12 37 \, 13 36 \, 12 71 \, 12 34 \, 13 33 \, 12 70 \, 13 32 \, 12
69 \, 12 30 \, 12 28 \, 12 27 \, 13 28 \, 13 68 \, 12 67 \, 13 27 \,
13 68 \, 13 69 \, 13 70 \, 13 71 \, 13 72 \, 12 73 \, 13 26 \, 13 0
\, 12 61 \, 12 30 \, 13 30 \, 12 127 \, 12 29 \, 12 30 \, 12 29 \,
12 28 \, 13 0 \, 12 56 \, 12 89 \, 13 89 \, 12 127 \, 13 90 \, 12 55
\, 12 89 \, 12 88 \, 12 87 \, 13 0 \, 12 24 \, 12 31 \, 13 31 \, 13
127 \, 12 26 \, 13 32 \, 12 27 \, 13 33 \, 13 29 \, 12 30 \, 13 34
\, 13 31 \, 12 32 \, 13 36 \, 12 34 \, 13 37 \, 12 36 \, 13 38 \, 12
37 \, 13 39 \, 13 39 \, 12 41 \, 13 41 \, 12 42 \, 13 42 \, 12 44 \,
13 44 \, 12 46 \, 13 45 \, 12 48 \, 13 47 \, 12 50 \, 13 48 \, 12 52
\, 13 50 \, 12 54 \, 13 52 \, 12 56 \, 13 53 \, 12 58 \, 13 55 \, 12
61 \, 13 56 \, 12 63 \, 13 59 \, 12 65 \, 13 60 \, 12 67 \, 13 62 \,
12 69 \, 13 64 \, 12 71 \, 13 66 \, 12 73 \, 13 67 \, 12 75 \, 13 69
\, 12 77 \, 13 71 \, 12 79 \, 13 72 \, 12 81 \, 13 74 \, 12 83 \, 13
76 \, 12 86 \, 13 78 \, 12 87 \, 13 79 \, 12 89 \, 13 81 \, 12 91 \,
13 83 \, 12 93 \, 13 84 \, 12 95 \, 13 86 \, 12 97 \, 13 87 \, 12 98
\, 13 89 \, 12 100 \, 13 90 \, 12 101 \, 13 91 \, 12 103 \, 13 92 \,
12 104 \, 13 93 \, 12 105 \, 13 94 \, 12 106 \, 13 95 \, 12 107 \,
13 96 \, 12 108 \, 13 98 \, 12 109 \, 13 99 \, 12 111 \, 12 100 \,
13 99 \, 12 110 \, 13 0 \, 12 106 \, 12 89 \, 13 89 \, 13 127 \, 12
107 \, 12 88 \, 12 90 \, 13 0 \, 12 59 \, 12 54 \, 13 54 \, 13 127
\, 12 60 \, 13 0 \, 12 87 \, 12 74 \, 13 74 \, 12 127 \, 12 75 \, 12
76 \, 13 75 \, 12 86 \, 13 0 \, 12 21 \, 12 44 \, 13 44 \, 12 127 \,
13 43 \, 13 22 \, 12 23 \, 13 44 \, 13 24 \, 12 25 \, 13 45 \, 12 26
\, 13 46 \, 12 28 \, 13 47 \, 12 29 \, 13 48 \, 12 30 \, 13 49 \, 12
31 \, 13 51 \, 12 32 \, 13 52 \, 13 33 \, 12 35 \, 13 53 \, 12 36 \,
13 54 \, 12 37 \, 13 56 \, 12 38 \, 13 57 \, 13 39 \, 12 40 \, 13 58
\, 12 41 \, 13 59 \, 13 42 \, 12 43 \, 13 60 \, 12 45 \, 13 61 \, 13
46 \, 12 47 \, 13 62 \, 12 48 \, 13 63 \, 12 50 \, 13 64 \, 12 51 \,
13 65 \, 12 52 \, 13 66 \, 12 53 \, 13 67 \, 12 55 \, 13 69 \, 13 56
\, 12 57 \, 13 70 \, 13 58 \, 13 59 \, 12 61 \, 13 72 \, 12 62 \, 13
73 \, 12 64 \, 13 74 \, 13 65 \, 12 66 \, 13 75 \, 12 67 \, 13 77 \,
12 68 \, 13 78 \, 13 70 \, 12 71 \, 13 79 \, 12 72 \, 13 80 \, 12 74
\, 13 81 \, 12 75 \, 13 82 \, 12 76 \, 13 83 \, 12 77 \, 13 84 \, 12
78 \, 13 85 \, 13 79 \, 12 80 \, 13 86 \, 12 81 \, 13 87 \, 12 82 \,
13 88 \, 12 83 \, 13 89 \, 12 84 \, 13 91 \, 13 85 \, 12 86 \, 12 92
\, 13 93 \, 12 87 \, 13 94 \, 12 88 \, 13 95 \, 12 89 \, 12 96 \, 13
97 \, 12 90 \, 13 98 \, 12 91 \, 13 99 \, 13 92 \, 12 93 \, 13 100
\, 12 94 \, 12 101 \, 13 103 \, 12 95 \, 12 104 \, 12 105 \, 12 106
\, 12 107 \, 12 108 \, 12 109 \, 13 0 \, 12 107 \, 13 110 \, 12 127
\, 12 108 \, 13 107 \, 12 106 \, 12 106 \, 13 105 \, 12 105 \, 12 104
\, 12 103 \, 13 101 \, 12 104 \, 12 100 \, 13 99 \, 12 102 \, 13 97
\, 12 101 \, 13 96 \, 12 100 \, 12 94 \, 12 93 \, 13 92 \, 12 99 \,
12 91 \, 13 90 \, 12 98 \, 12 89 \, 12 87 \, 13 86 \, 12 97 \, 12 85
\, 13 84 \, 12 96 \, 12 83 \, 12 82 \, 13 81 \, 12 94 \, 12 79 \, 12
78 \, 12 77 \, 12 76 \, 13 75 \, 12 93 \, 12 73 \, 12 72 \, 12 71 \,
12 70 \, 12 68 \, 12 66 \, 12 65 \, 12 64 \, 12 63 \, 12 62 \, 12 61
\, 12 60 \, 12 58 \, 12 56 \, 12 55 \, 13 53 \, 12 94 \, 12 51 \, 12
50 \, 12 49 \, 12 48 \, 13 47 \, 12 95 \, 12 45 \, 12 43 \, 12 42 \,
12 40 \, 13 39 \, 12 96 \, 12 38 \, 12 36 \, 12 35 \, 12 34 \, 12 32
\, 12 31 \, 12 30 \, 12 28 \, 12 27 \, 12 26 \, 13 25 \, 12 95 \, 12
24 \, 13 22 \, 12 94 \, 13 21 \, 12 93 \, 13 20 \, 12 91 \, 13 19 \,
12 90 \, 13 18 \, 12 88 \, 13 17 \, 12 87 \, 13 16 \, 13 86 \, 12 85
\, 13 14 \, 12 83 \, 13 13 \, 13 82 \, 12 81 \, 13 12 \, 13 80 \, 13
79 \, 12 78 \, 13 11 \, 13 76 \, 13 75 \, 12 73 \, 13 10 \, 13 72 \,
13 70 \, 13 69 \, 13 68 \, 13 67 \, 13 66 \, 13 64 \, 13 63 \, 12 62
\, 13 11 \, 13 60 \, 13 58 \, 12 57 \, 13 12 \, 12 56 \, 13 13 \, 12
54 \, 13 14 \, 13 53 \, 12 52 \, 13 15 \, 12 50 \, 13 16 \, 12 49 \,
13 17 \, 12 48 \, 13 18 \, 12 46 \, 13 19 \, 12 45 \, 13 21 \, 12 44
\, 13 22 \, 12 42 \, 13 23 \, 12 41 \, 13 25 \, 12 40 \, 13 26 \, 12
39 \, 12 27 \, 12 28 \, 13 29 \, 12 38 \, 13 30 \, 12 37 \, 12 32 \,
13 33 \, 12 36 \, 12 34 \, 13 35 \, 12 35 \, 12 36 \, 12 37 \, 13 38
\, 12 34 \, 12 40 \, 12 41 \, 13 42 \, 12 32 \, 12 44 \, 12 45 \, 12
46 \, 13 47 \, 12 31 \, 12 49 \, 12 50 \, 13 51 \, 12 30 \, 12 52 \,
12 54 \, 12 56 \, 12 57 \, 13 58 \, 12 31 \, 12 60 \, 12 61 \, 13 62
\, 12 30 \, 13 64 \, 13 0 \, 12 23 \, 12 73 \, 13 73 \, 12 127 \, 12
71 \, 12 70 \, 12 69 \, 12 67 \, 13 66 \, 12 24 \, 12 65 \, 12 64 \,
13 62 \, 12 25 \, 12 61 \, 12 59 \, 13 58 \, 12 26 \, 13 57 \, 12 27
\, 13 55 \, 12 28 \, 13 54 \, 12 29 \, 13 53 \, 12 30 \, 12 52 \, 13
51 \, 12 32 \, 13 50 \, 12 33 \, 13 49 \, 12 34 \, 13 47 \, 12 36 \,
13 46 \, 13 37 \, 12 39 \, 13 45 \, 12 40 \, 13 43 \, 12 42 \, 13 42
\, 12 43 \, 13 41 \, 13 44 \, 12 46 \, 13 40 \, 13 47 \, 12 48 \, 13
39 \, 12 49 \, 13 37 \, 12 51 \, 13 36 \, 13 53 \, 12 54 \, 13 35 \,
13 56 \, 12 57 \, 13 34 \, 13 58 \, 12 60 \, 13 33 \, 13 61 \, 12 63
\, 13 32 \, 13 64 \, 13 65 \, 13 67 \, 12 68 \, 13 31 \, 13 69 \, 13
70 \, 13 71 \, 13 73 \, 12 74 \, 13 30 \, 13 75 \, 13 77 \, 13 78 \,
13 79 \, 13 80 \, 13 81 \, 13 82 \, 13 84 \, 13 85 \, 12 86 \, 13 31
\, 13 87 \, 13 88 \, 12 89 \, 13 32 \, 12 91 \, 13 33 \, 13 92 \, 12
94 \, 13 34 \, 13 95 \, 12 96 \, 13 35 \, 12 98 \, 13 36 \, 12 99 \,
13 38 \, 12 100 \, 13 39 \, 12 102 \, 13 40 \, 12 103 \, 13 42 \, 12
104 \, 13 43 \, 12 106 \, 13 44 \, 12 107 \, 12 46 \, 13 47 \, 12 108
\, 13 49 \, 12 109 \, 12 50 \, 12 52 \, 13 54 \, 12 110 \, 12 55 \,
12 56 \, 12 58 \, 12 59 \, 12 60 \, 12 61 \, 12 62 \, 12 63 \, 12 65
\, 12 66 \, 12 67 \, 12 68 \, 13 70 \, 12 109 \, 12 71 \, 12 72 \,
13 74 \, 12 107 \, 12 76 \, 12 77 \, 12 78 \, 12 79 \, 13 80 \, 12
105 \, 13 82 \, 12 104 \, 12 83 \, 13 84 \, 12 103 \, 13 86 \, 12 102
\, 13 87 \, 12 101 \, 13 89 \, 12 100 \, 13 90 \, 12 99 \, 13 92 \,
12 98 \, 13 93 \, 12 96 \, 13 94 \, 12 95 \, 13 95 \, 12 94 \, 13 96
\, 12 93 \, 13 97 \, 13 92 \, 12 91 \, 13 98 \, 13 89 \, 12 88 \, 13
99 \, 13 87 \, 13 85 \, 13 84 \, 12 82 \, 13 100 \, 12 81 \, 13 101
\, 13 79 \, 13 78 \, 12 77 \, 13 103 \, 13 76 \, 12 74 \, 13 104 \,
13 73 \, 13 71 \, 12 69 \, 13 105 \, 12 68 \, 13 106 \, 13 66 \, 12
64 \, 13 107 \, 13 0 \, 12 27 \, 12 46 \, 13 46 \, 12 127 \, 13 45
\, 13 28 \, 13 29 \, 13 30 \, 12 31 \, 13 46 \, 13 32 \, 12 34 \, 13
47 \, 12 35 \, 13 48 \, 12 37 \, 13 49 \, 12 39 \, 13 51 \, 13 40 \,
12 41 \, 13 52 \, 12 42 \, 13 53 \, 13 44 \, 12 45 \, 13 54 \, 12 47
\, 13 55 \, 12 48 \, 13 56 \, 12 49 \, 13 57 \, 12 50 \, 13 58 \, 12
52 \, 13 59 \, 12 53 \, 13 60 \, 12 54 \, 13 61 \, 13 56 \, 12 57 \,
13 62 \, 12 58 \, 13 63 \, 12 59 \, 13 64 \, 13 60 \, 12 61 \, 13 65
\, 12 62 \, 13 66 \, 13 63 \, 12 64 \, 13 67 \, 12 65 \, 13 68 \, 12
67 \, 13 70 \, 12 68 \, 13 71 \, 12 69 \, 13 72 \, 12 70 \, 13 73 \,
12 71 \, 13 74 \, 12 72 \, 13 75 \, 12 73 \, 13 76 \, 12 75 \, 13 77
\, 12 76 \, 13 78 \, 12 77 \, 13 79 \, 12 78 \, 13 80 \, 12 79 \, 13
81 \, 13 80 \, 12 81 \, 13 82 \, 12 82 \, 13 83 \, 12 83 \, 13 84 \,
12 84 \, 13 85 \, 12 85 \, 13 87 \, 13 86 \, 12 87 \, 13 88 \, 12 88
\, 13 90 \, 12 89 \, 13 91 \, 13 91 \, 12 92 \, 13 92 \, 12 93 \, 13
93 \, 12 94 \, 13 94 \, 12 95 \, 13 95 \, 12 97 \, 13 96 \, 12 98 \,
13 97 \, 12 99 \, 13 98 \, 12 100 \, 13 100 \, 13 101 \, 12 102 \,
13 101 \, 12 104 \, 13 102 \, 12 105 \, 13 103 \, 12 106 \, 13 104
\, 12 107 \, 13 105 \, 12 108 \, 13 106 \, 12 109 \, 13 107 \, 12 110
\, 13 108 \, 12 111 \, 13 109 \, 12 112 \, 13 110 \, 13 113 \, 12 114
\, 12 111 \, 13 0 \, 12 5 \, 12 7 \, 13 7 \, 13 127 \, 13 7 \, 12 9
\, 12 8 \, 12 10 \, 13 0 \, 12 27 \, 12 25 \, 13 25 \, 12 127 \, 13
26 \, 12 28 \, 13 27 \, 12 29 \, 13 28 \, 12 30 \, 13 29 \, 12 32 \,
13 30 \, 12 34 \, 13 32 \, 12 36 \, 13 33 \, 12 37 \, 13 35 \, 12 39
\, 13 36 \, 12 40 \, 13 37 \, 12 41 \, 13 38 \, 12 43 \, 13 39 \, 12
44 \, 13 41 \, 12 45 \, 13 42 \, 12 47 \, 13 44 \, 12 49 \, 13 46 \,
12 50 \, 13 47 \, 12 51 \, 13 48 \, 12 53 \, 13 51 \, 12 55 \, 13 52
\, 12 57 \, 13 53 \, 12 58 \, 13 54 \, 13 59 \, 12 60 \, 13 56 \, 12
61 \, 13 57 \, 13 63 \, 12 64 \, 13 59 \, 12 65 \, 13 61 \, 12 67 \,
13 62 \, 12 68 \, 13 63 \, 12 69 \, 13 64 \, 12 70 \, 13 65 \, 12 71
\, 13 66 \, 12 73 \, 13 68 \, 12 74 \, 13 70 \, 12 76 \, 13 71 \, 12
77 \, 13 72 \, 12 78 \, 13 74 \, 12 79 \, 13 75 \, 12 80 \, 13 76 \,
12 82 \, 13 77 \, 12 84 \, 13 79 \, 12 85 \, 13 80 \, 12 87 \, 13 81
\, 12 88 \, 13 82 \, 12 89 \, 13 84 \, 12 90 \, 13 85 \, 12 91 \, 13
87 \, 12 92 \, 13 88 \, 12 94 \, 13 89 \, 12 95 \, 13 90 \, 12 97 \,
13 91 \, 12 99 \, 12 92 \, 13 93 \, 12 100 \, 12 95 \, 13 96 \, 12
103 \, 13 97 \, 12 104 \, 13 98 \, 12 106 \, 12 100 \, 13 102 \, 12
107 \, 13 103 \, 12 109 \, 13 104 \, 12 110 \, 13 105 \, 12 111 \,
13 107 \, 13 0 \, 12 31 \, 12 0 \, 13 0 \, 13 127 \, 13 32 \, 13 31
\, 13 30 \, 13 0 \, 12 0 \, 13 0 \, 12 127 \, 12 1 \, 12 2 \, 12 3
\, 12 4 \, 12 5 \, 12 6 \, 12 7 \, 12 8 \, 12 9 \, 12 10 \, 12 11 \,
12 12 \, 12 13 \, 12 14 \, 12 15 \, 12 16 \, 12 17 \, 12 18 \, 12 19
\, 12 20 \, 12 21 \, 12 22 \, 12 23 \, 12 24 \, 12 25 \, 12 26 \, 12
27 \, 12 28 \, 12 29 \, 12 30 \, 12 31 \, 12 32 \, 12 33 \, 12 34 \,
12 35 \, 12 36 \, 12 37 \, 12 38 \, 12 39 \, 12 40 \, 12 41 \, 12 42
\, 12 43 \, 12 44 \, 12 45 \, 12 46 \, 12 48 \, 12 49 \, 12 50 \, 12
51 \, 12 52 \, 12 53 \, 12 54 \, 12 55 \, 12 56 \, 12 57 \, 12 58 \,
12 59 \, 12 60 \, 12 61 \, 12 62 \, 12 63 \, 12 64 \, 12 65 \, 12 66
\, 12 67 \, 12 68 \, 12 69 \, 12 70 \, 12 71 \, 12 72 \, 12 73 \, 12
74 \, 12 75 \, 12 76 \, 12 77 \, 12 78 \, 12 79 \, 12 80 \, 12 81 \,
12 82 \, 12 83 \, 12 84 \, 12 85 \, 12 86 \, 12 87 \, 12 88 \, 12 89
\, 12 90 \, 12 91 \, 12 92 \, 12 93 \, 12 94 \, 12 95 \, 12 96 \, 12
97 \, 12 98 \, 12 99 \, 12 100 \, 12 101 \, 12 102 \, 12 103 \, 12
104 \, 12 105 \, 12 106 \, 12 107 \, 12 108 \, 12 110 \, 12 111 \,
12 112 \, 12 113 \, 12 114 \, 12 115 \, 12 116 \, 12 117 \, 12 119
\, 12 120 \, 12 121 \, 12 122 \, 12 123 \, 12 124 \, 12 126 \, 12 127
\, 12 126 \, 12 125 \, 12 124 \, 12 122 \, 12 121 \, 12 120 \, 12 119
\, 12 118 \, 12 116 \, 12 115 \, 12 114 \, 12 113 \, 12 111 \, 12 110
\, 12 109 \, 12 108 \, 12 106 \, 12 105 \, 12 104 \, 12 102 \, 12 100
\, 12 99 \, 12 98 \, 12 97 \, 12 96 \, 12 94 \, 12 93 \, 12 92 \, 12
91 \, 12 90 \, 12 89 \, 12 88 \, 12 87 \, 12 86 \, 12 85 \, 12 84 \,
12 83 \, 12 82 \, 12 80 \, 12 78 \, 12 77 \, 12 75 \, 12 74 \, 12 72
\, 12 71 \, 12 70 \, 12 69 \, 12 68 \, 12 66 \, 12 64 \, 12 63 \, 12
61 \, 12 60 \, 12 58 \, 12 57 \, 12 55 \, 12 54 \, 12 53 \, 12 51 \,
12 50 \, 12 48 \, 12 47 \, 12 45 \, 12 43 \, 12 42 \, 12 40 \, 12 39
\, 12 37 \, 12 36 \, 12 34 \, 12 33 \, 12 31 \, 12 30 \, 12 29 \, 12
27 \, 12 26 \, 12 24 \, 12 23 \, 12 21 \, 12 20 \, 12 19 \, 12 17 \,
12 16 \, 12 15 \, 12 13 \, 12 12 \, 12 11 \, 12 9 \, 12 8 \, 12 7 \,
12 5 \, 12 4 \, 12 3 \, 12 1 \, 12 0 \, 13 0 \, 12 127 \, 13 1 \, 13
1 \, 12 2 \, 13 2 \, 12 3 \, 13 3 \, 13 4 \, 12 6 \, 13 4 \, 13 7 \,
12 8 \, 13 5 \, 13 9 \, 12 10 \, 13 6 \, 13 11 \, 12 12 \, 13 7 \,
13 14 \, 12 15 \, 13 8 \, 13 16 \, 12 17 \, 13 9 \, 12 18 \, 13 10
\, 13 19 \, 12 20 \, 13 11 \, 13 21 \, 12 22 \, 13 12 \, 13 24 \, 12
25 \, 13 13 \, 13 26 \, 13 27 \, 13 28 \, 13 29 \, 13 30 \, 12 31 \,
13 14 \, 13 32 \, 12 33 \, 13 15 \, 13 34 \, 13 35 \, 12 37 \, 13 16
\, 13 38 \, 12 39 \, 13 17 \, 13 40 \, 13 41 \, 12 42 \, 13 18 \, 13
43 \, 12 44 \, 13 19 \, 13 45 \, 12 47 \, 13 20 \, 13 48 \, 13 49 \,
12 50 \, 13 21 \, 13 51 \, 13 52 \, 13 53 \, 12 54 \, 13 22 \, 13 55
\, 13 56 \, 12 58 \, 13 23 \, 13 59 \, 13 60 \, 12 61 \, 13 24 \, 13
62 \, 13 63 \, 12 64 \, 13 25 \, 13 65 \, 12 67 \, 13 26 \, 13 68 \,
12 69 \, 13 27 \, 13 70 \, 12 71 \, 13 28 \, 13 72 \, 12 73 \, 13 29
\, 13 75 \, 12 76 \, 13 30 \, 12 77 \, 13 31 \, 13 78 \, 12 79 \, 13
32 \, 12 80 \, 13 33 \, 13 81 \, 12 83 \, 13 34 \, 12 84 \, 13 35 \,
13 85 \, 12 86 \, 13 36 \, 12 87 \, 13 37 \, 12 88 \, 12 38 \, 12 39
\, 13 40 \, 12 89 \, 12 41 \, 12 42 \, 12 43 \, 12 44 \, 13 45 \, 12
90 \, 12 46 \, 12 47 \, 12 48 \, 12 50 \, 13 51 \, 12 91 \, 12 52 \,
12 54 \, 12 55 \, 12 56 \, 13 58 \, 12 92 \, 12 59 \, 12 61 \, 12 62
\, 13 63 \, 12 93 \, 12 65 \, 12 66 \, 13 68 \, 12 94 \, 12 69 \, 12
70 \, 12 72 \, 12 73 \, 12 75 \, 13 76 \, 12 95 \, 12 77 \, 12 78 \,
12 80 \, 12 81 \, 12 82 \, 12 84 \, 12 85 \, 12 86 \, 13 87 \, 12 96
\, 12 89 \, 12 90 \, 12 91 \, 12 92 \, 12 94 \, 12 95 \, 13 96 \, 12
97 \, 12 97 \, 12 98 \, 12 99 \, 12 100 \, 12 101 \, 12 103 \, 12 104
\, 12 105 \, 12 106 \, 12 108 \, 12 109 \, 12 110 \, 12 111 \, 12 112
\, 12 113 \, 12 114 \, 12 115 \, 12 114 \, 12 113 \, 12 112 \, 12 111
\, 12 109 \, 12 108 \, 12 107 \, 12 105 \, 12 104 \, 12 102 \, 12 100
\, 12 99 \, 12 97 \, 12 96 \, 12 95 \, 12 94 \, 12 92 \, 12 91 \, 12
89 \, 12 87 \, 12 86 \, 12 84 \, 12 83 \, 12 81 \, 12 80 \, 12 79 \,
12 77 \, 12 76 \, 12 75 \, 12 74 \, 12 73 \, 12 71 \, 13 70 \, 12 96
\, 12 69 \, 12 68 \, 13 67 \, 12 95 \, 12 66 \, 13 65 \, 12 93 \, 13
64 \, 12 92 \, 12 63 \, 13 62 \, 12 91 \, 13 61 \, 12 90 \, 13 60 \,
12 89 \, 13 58 \, 12 88 \, 13 57 \, 12 87 \, 13 56 \, 13 86 \, 13 85
\, 12 84 \, 13 55 \, 12 83 \, 13 54 \, 13 82 \, 12 81 \, 13 53 \, 13
80 \, 12 79 \, 13 52 \, 13 78 \, 12 77 \, 13 51 \, 13 76 \, 13 75 \,
13 74 \, 13 73 \, 12 72 \, 12 52 \, 13 53 \, 12 73 \, 12 54 \, 12 55
\, 12 56 \, 13 57 \, 12 74 \, 12 58 \, 13 59 \, 12 75 \, 12 60 \, 13
61 \, 12 76 \, 12 62 \, 13 63 \, 12 77 \, 13 65 \, 12 78 \, 12 66 \,
12 67 \, 13 68 \, 12 79 \, 12 69 \, 13 70 \, 12 80 \, 12 72 \, 13 73
\, 12 81 \, 12 74 \, 12 75 \, 13 76 \, 12 82 \, 12 77 \, 12 78 \, 13
79 \, 12 83 \, 12 80 \, 12 81 \, 13 83 \, 12 84 \, 12 84 \, 12 85 \,
13 86 \, 12 85 \, 12 87 \, 12 88 \, 13 89 \, 12 86 \, 12 90 \, 13 91
\, 12 87 \, 12 92 \, 12 93 \, 13 94 \, 12 88 \, 12 95 \, 12 96 \, 13
97 \, 12 89 \, 12 98 \, 12 100 \, 13 101 \, 12 90 \, 12 102 \, 12 104
\, 13 105 \, 12 91 \, 12 106 \, 12 107 \, 13 108 \, 12 92 \, 12 109
\, 12 110 \, 13 111 \, 12 93 \, 12 112 \, 12 113 \, 12 114 \, 13 115
\, 12 94 \, 12 116 \, 12 117 \, 12 118 \, 12 119 \, 12 121 \, 13 122
\, 12 95 \, 12 123 \, 12 124 \, 12 125 \, 12 126 \, 13 127 \, 13 96
\, 13 97 \, 12 98 \, 12 126 \, 12 125 \, 12 124 \, 12 122 \, 12 121
\, 12 120 \, 12 119 \, 12 118 \, 12 117 \, 12 116 \, 13 115 \, 12 97
\, 12 114 \, 12 113 \, 12 112 \, 12 110 \, 12 109 \, 12 108 \, 13 107
\, 12 96 \, 12 106 \, 12 105 \, 12 104 \, 12 103 \, 12 102 \, 13 101
\, 12 95 \, 12 100 \, 12 99 \, 13 98 \, 12 94 \, 12 97 \, 13 96 \,
12 93 \, 12 95 \, 13 94 \, 12 92 \, 12 92 \, 13 91 \, 12 91 \, 12 90
\, 13 89 \, 12 90 \, 12 88 \, 13 87 \, 12 89 \, 12 86 \, 13 85 \, 13
88 \, 12 89 \, 13 86 \, 12 90 \, 13 87 \, 13 91 \, 12 92 \, 13 88 \,
12 93 \, 13 89 \, 13 95 \, 12 96 \, 13 91 \, 13 97 \, 12 98 \, 13 92
\, 13 99 \, 12 100 \, 13 93 \, 13 101 \, 12 103 \, 13 95 \, 13 104
\, 12 105 \, 13 96 \, 13 106 \, 12 107 \, 13 97 \, 13 108 \, 12 109
\, 13 98 \, 12 111 \, 13 99 \, 12 112 \, 13 100 \, 12 114 \, 13 101
\, 12 115 \, 13 102 \, 12 116 \, 13 103 \, 12 117 \, 13 104 \, 12 118
\, 12 105 \, 12 106 \, 12 107 \, 13 108 \, 12 117 \, 12 109 \, 13 110
\, 12 116 \, 13 112 \, 13 115 \, 12 114 \, 13 113 \, 13 113 \, 13 112
\, 12 111 \, 13 114 \, 13 110 \, 12 108 \, 13 115 \, 13 107 \, 13 106
\, 13 105 \, 13 104 \, 13 103 \, 13 101 \, 13 100 \, 13 99 \, 13 98
\, 13 97 \, 13 96 \, 13 94 \, 13 93 \, 13 92 \, 13 91 \, 13 89 \, 13
88 \, 13 87 \, 13 85 \, 12 84 \, 13 114 \, 13 83 \, 13 82 \, 12 81
\, 13 113 \, 13 80 \, 13 79 \, 12 78 \, 12 112 \, 12 111 \, 12 110
\, 12 109 \, 13 108 \, 12 77 \, 12 106 \, 12 105 \, 12 104 \, 12 103
\, 12 102 \, 12 100 \, 13 99 \, 12 78 \, 12 98 \, 13 97 \, 12 79 \,
13 96 \, 12 80 \, 13 95 \, 12 81 \, 13 94 \, 12 82 \, 13 93 \, 12 83
\, 13 92 \, 13 84 \, 12 85 \, 13 91 \, 12 86 \, 13 89 \, 13 87 \, 12
88 \, 13 88 \, 13 90 \, 12 91 \, 13 87 \, 13 93 \, 13 94 \, 13 95 \,
13 97 \, 13 98 \, 12 100 \, 13 86 \, 13 101 \, 13 103 \, 13 104 \,
13 105 \, 13 106 \, 13 107 \, 13 109 \, 12 110 \, 13 87 \, 13 111 \,
13 112 \, 13 114 \, 12 115 \, 13 89 \, 12 116 \, 13 90 \, 12 117 \,
13 91 \, 13 118 \, 12 119 \, 13 92 \, 12 120 \, 13 93 \, 12 122 \,
12 94 \, 13 95 \, 12 123 \, 12 96 \, 12 97 \, 12 99 \, 12 100 \, 12
101 \, 12 103 \, 12 104 \, 12 105 \, 12 106 \, 12 107 \, 12 108 \,
13 109 \, 12 122 \, 12 110 \, 13 111 \, 12 121 \, 13 112 \, 12 120
\, 13 114 \, 12 118 \, 13 115 \, 12 117 \, 13 116 \, 12 116 \, 13 117
\, 12 115 \, 13 118 \, 12 114 \, 13 119 \, 13 113 \, 12 112 \, 13 120
\, 13 111 \, 12 109 \, 13 121 \, 13 108 \, 13 107 \, 12 106 \, 13 122
\, 13 105 \, 13 103 \, 12 101 \, 13 123 \, 13 100 \, 13 98 \, 13 97
\, 13 96 \, 13 94 \, 13 92 \, 12 91 \, 13 122 \, 13 90 \, 13 88 \,
13 87 \, 13 86 \, 12 85 \, 13 121 \, 13 83 \, 13 82 \, 12 80 \, 13
120 \, 13 79 \, 12 78 \, 13 118 \, 13 77 \, 12 76 \, 13 116 \, 12 75
\, 13 115 \, 12 74 \, 13 114 \, 12 73 \, 12 113 \, 13 112 \, 12 72
\, 12 111 \, 13 110 \, 12 71 \, 12 109 \, 12 108 \, 13 107 \, 12 70
\, 12 106 \, 12 104 \, 12 103 \, 12 102 \, 12 101 \, 12 99 \, 12 98
\, 13 97 \, 12 71 \, 12 96 \, 12 95 \, 13 93 \, 12 72 \, 12 92 \, 13
91 \, 12 73 \, 13 90 \, 12 74 \, 13 89 \, 12 75 \, 13 88 \, 12 76 \,
12 87 \, 13 86 \, 12 78 \, 13 85 \, 12 79 \, 13 84 \, 12 80 \, 13 83
\, 12 82 \, 13 82 \, 13 83 \, 12 84 \, 13 81 \, 13 86 \, 12 87 \, 13
80 \, 12 88 \, 13 79 \, 13 89 \, 13 91 \, 13 92 \, 12 93 \, 13 78 \,
13 94 \, 13 96 \, 13 97 \, 13 98 \, 13 99 \, 13 100 \, 13 101 \, 13
103 \, 12 104 \, 13 79 \, 12 105 \, 13 80 \, 13 106 \, 12 107 \, 13
81 \, 13 108 \, 12 109 \, 13 82 \, 12 110 \, 13 83 \, 12 111 \, 13
84 \, 12 113 \, 13 86 \, 12 114 \, 13 87 \, 12 115 \, 13 88 \, 12 116
\, 12 89 \, 13 90 \, 12 117 \, 12 91 \, 13 92 \, 12 118 \, 12 93 \,
13 94 \, 12 119 \, 12 95 \, 12 97 \, 13 98 \, 12 120 \, 12 99 \, 12
100 \, 12 101 \, 12 102 \, 12 103 \, 12 105 \, 13 106 \, 12 119 \,
12 107 \, 13 108 \, 12 118 \, 12 109 \, 13 110 \, 12 117 \, 12 111
\, 13 112 \, 12 116 \, 13 113 \, 12 115 \, 12 114 \, 13 115 \, 12 113
\, 13 116 \, 12 112 \, 13 117 \, 13 111 \, 12 110 \, 13 118 \, 12 109
\, 13 119 \, 13 108 \, 12 107 \, 13 120 \, 13 106 \, 12 104 \, 13 121
\, 13 103 \, 13 102 \, 12 100 \, 13 122 \, 13 99 \, 13 97 \, 13 96
\, 12 95 \, 13 123 \, 13 93 \, 13 92 \, 13 90 \, 13 89 \, 13 88 \,
13 87 \, 12 86 \, 13 122 \, 13 84 \, 13 83 \, 12 82 \, 13 121 \, 13
81 \, 13 80 \, 12 78 \, 13 120 \, 12 77 \, 13 119 \, 13 76 \, 12 75
\, 12 118 \, 12 117 \, 12 116 \, 12 115 \, 12 114 \, 12 113 \, 12 112
\, 13 111 \, 12 76 \, 12 110 \, 12 109 \, 12 108 \, 13 107 \, 12 77
\, 12 106 \, 13 105 \, 12 78 \, 13 103 \, 12 79 \, 12 102 \, 13 101
\, 12 80 \, 13 100 \, 12 82 \, 13 99 \, 12 83 \, 13 98 \, 12 84 \,
13 97 \, 12 85 \, 13 95 \, 12 86 \, 13 94 \, 12 87 \, 13 93 \, 12 88
\, 13 92 \, 12 89 \, 13 91 \, 12 90 \, 13 90 \, 12 91 \, 13 89 \, 12
93 \, 13 88 \, 12 94 \, 13 87 \, 12 95 \, 13 86 \, 12 96 \, 13 85 \,
12 97 \, 13 84 \, 12 98 \, 13 83 \, 12 100 \, 12 82 \, 13 81 \, 12
101 \, 12 80 \, 13 78 \, 12 102 \, 12 77 \, 12 76 \, 12 75 \, 12 74
\, 12 73 \, 12 72 \, 13 70 \, 12 101 \, 13 68 \, 12 100 \, 12 67 \,
13 66 \, 12 98 \, 12 65 \, 13 64 \, 12 97 \, 13 62 \, 12 96 \, 13 61
\, 12 95 \, 13 60 \, 12 94 \, 13 59 \, 12 93 \, 13 58 \, 12 91 \, 13
57 \, 12 89 \, 13 56 \, 12 88 \, 13 55 \, 12 86 \, 13 53 \, 12 85 \,
13 52 \, 12 83 \, 13 51 \, 13 81 \, 12 80 \, 13 50 \, 13 79 \, 12 78
\, 13 49 \, 13 76 \, 12 75 \, 13 48 \, 13 74 \, 13 73 \, 12 72 \, 13
47 \, 13 70 \, 13 69 \, 13 68 \, 12 67 \, 13 46 \, 13 66 \, 13 64 \,
13 63 \, 13 62 \, 13 60 \, 13 59 \, 12 58 \, 13 47 \, 13 57 \, 12 56
\, 13 48 \, 12 55 \, 12 49 \, 13 50 \, 12 54 \, 13 52 \, 12 53 \, 12
53 \, 12 54 \, 12 55 \, 12 57 \, 12 58 \, 12 59 \, 13 61 \, 12 54 \,
12 62 \, 13 63 \, 12 55 \, 13 65 \, 12 56 \, 12 66 \, 13 67 \, 12 58
\, 13 68 \, 12 59 \, 13 69 \, 12 60 \, 12 70 \, 13 71 \, 12 62 \, 13
72 \, 12 63 \, 13 73 \, 12 65 \, 13 74 \, 12 66 \, 13 75 \, 12 67 \,
13 76 \, 12 68 \, 13 78 \, 12 69 \, 13 79 \, 12 71 \, 13 80 \, 12 72
\, 13 81 \, 12 73 \, 13 82 \, 12 75 \, 13 83 \, 12 76 \, 13 84 \, 12
77 \, 13 85 \, 12 78 \, 13 86 \, 12 80 \, 13 88 \, 12 81 \, 13 89 \,
13 82 \, 12 83 \, 13 90 \, 13 85 \, 12 86 \, 13 92 \, 13 87 \, 12 88
\, 13 93 \, 13 89 \, 12 90 \, 13 95 \, 13 92 \, 12 93 \, 13 96 \, 12
94 \, 13 97 \, 13 96 \, 12 97 \, 13 99 \, 13 98 \, 12 99 \, 13 100
\, 12 100 \, 13 101 \, 13 101 \, 12 102 \, 13 103 \, 12 104 \, 13 105
\, 12 106 \, 13 106 \, 12 107 \, 13 107 \, 12 109 \, 13 109 \, 12 110
\, 13 110 \, 12 111 \, 13 112 \, 12 112 \, 13 113 \, 12 114 \, 13 114
\, 12 115 \, 12 115 \, 13 116 \, 12 116 \, 12 117 \, 13 118 \, 12 117
\, 12 119 \, 12 120 \, 12 122 \, 12 123 \, 12 124 \, 13 125 \, 13 116
\, 13 115 \, 12 114 \, 13 126 \, 13 113 \, 13 112 \, 13 111 \, 13 109
\, 13 108 \, 13 107 \, 12 106 \, 13 125 \, 13 105 \, 13 103 \, 12 102
\, 13 124 \, 12 100 \, 13 123 \, 13 99 \, 12 98 \, 13 122 \, 12 97
\, 13 120 \, 12 95 \, 13 119 \, 12 94 \, 13 118 \, 12 93 \, 13 117
\, 13 92 \, 12 91 \, 13 116 \, 12 90 \, 12 115 \, 12 114 \, 12 113
\, 12 112 \, 12 111 \, 12 110 \, 13 108 \, 12 91 \, 13 107 \, 12 93
\, 13 106 \, 12 94 \, 13 105 \, 13 95 \, 13 96 \, 12 97 \, 13 104 \,
13 98 \, 13 99 \, 13 100 \, 13 101 \, 13 103 \, 13 104 \, 13 105 \,
13 107 \, 13 108 \, 13 109 \, 13 110 \, 13 112 \, 12 113 \, 13 105
\, 13 115 \, 12 116 \, 13 106 \, 12 117 \, 13 107 \, 13 119 \, 12 120
\, 13 108 \, 12 122 \, 13 109 \, 12 123 \, 13 110 \, 12 124 \, 13 111
\, 12 126 \, 13 112 \, 12 127 \, 12 113 \, 12 115 \, 12 116 \, 12 117
\, 12 118 \, 12 120 \, 12 121 \, 12 122 \, 12 124 \, 12 125 \, 12 126
\, 13 127 \, 13 126 \, 13 124 \, 13 123 \, 13 122 \, 13 121 \, 13 120
\, 13 118 \, 13 117 \, 13 116 \, 13 115 \, 13 114 \, 13 112 \, 13 111
\, 13 110 \, 13 109 \, 13 107 \, 13 106 \, 13 105 \, 13 103 \, 13 102
\, 13 101 \, 13 100 \, 12 99 \, 13 126 \, 12 97 \, 13 125 \, 12 96
\, 13 123 \, 12 95 \, 13 122 \, 12 94 \, 13 121 \, 12 93 \, 13 120
\, 12 92 \, 13 119 \, 12 90 \, 13 118 \, 12 89 \, 13 116 \, 12 88 \,
13 115 \, 12 87 \, 13 114 \, 12 86 \, 12 113 \, 13 111 \, 12 84 \,
12 110 \, 13 108 \, 12 83 \, 12 107 \, 13 105 \, 12 81 \, 12 104 \,
13 103 \, 12 80 \, 12 101 \, 12 100 \, 12 99 \, 12 98 \, 12 97 \, 12
96 \, 12 95 \, 12 93 \, 12 92 \, 13 91 \, 12 82 \, 13 90 \, 12 83 \,
12 89 \, 13 88 \, 12 84 \, 13 86 \, 13 85 \, 12 86 \, 13 84 \, 12 87
\, 13 83 \, 12 88 \, 13 82 \, 12 90 \, 13 81 \, 12 91 \, 13 80 \, 12
92 \, 13 79 \, 12 94 \, 13 78 \, 12 95 \, 13 76 \, 13 97 \, 12 98 \,
13 75 \, 12 99 \, 13 73 \, 12 100 \, 13 72 \, 12 102 \, 13 70 \, 12
103 \, 13 69 \, 12 104 \, 13 67 \, 12 106 \, 12 66 \, 12 65 \, 12 63
\, 12 62 \, 12 61 \, 12 59 \, 12 58 \, 12 56 \, 13 55 \, 12 104 \,
13 53 \, 12 103 \, 13 52 \, 12 102 \, 13 50 \, 12 101 \, 13 49 \, 12
100 \, 13 48 \, 12 99 \, 13 47 \, 12 97 \, 13 45 \, 12 96 \, 13 44
\, 13 94 \, 13 93 \, 12 92 \, 13 43 \, 13 91 \, 13 90 \, 13 89 \, 12
88 \, 13 42 \, 13 87 \, 13 86 \, 13 85 \, 13 84 \, 13 82 \, 12 81 \,
13 41 \, 13 80 \, 13 79 \, 13 78 \, 13 77 \, 13 75 \, 13 74 \, 13 73
\, 13 72 \, 13 71 \, 13 69 \, 13 68 \, 13 67 \, 12 66 \, 13 42 \, 13
65 \, 12 63 \, 13 43 \, 13 62 \, 12 61 \, 13 44 \, 12 59 \, 13 45 \,
12 58 \, 13 47 \, 12 57 \, 13 48 \, 12 56 \, 13 49 \, 12 55 \, 13 51
\, 12 54 \, 12 52 \, 12 53 \, 12 54 \, 12 55 \, 12 57 \, 12 58 \, 12
59 \, 13 60 \, 12 55 \, 12 61 \, 13 62 \, 12 56 \, 12 63 \, 13 64 \,
12 58 \, 13 65 \, 12 59 \, 12 67 \, 13 68 \, 12 61 \, 13 69 \, 12 62
\, 13 70 \, 12 64 \, 13 71 \, 12 65 \, 13 72 \, 12 66 \, 13 73 \, 12
67 \, 13 74 \, 12 69 \, 13 75 \, 12 70 \, 13 76 \, 12 71 \, 13 78 \,
12 73 \, 13 79 \, 12 74 \, 13 80 \, 13 76 \, 12 77 \, 13 82 \, 13 78
\, 12 80 \, 13 83 \, 12 81 \, 13 84 \, 13 82 \, 12 84 \, 13 85 \, 13
85 \, 12 87 \, 13 87 \, 12 88 \, 13 88 \, 13 89 \, 12 90 \, 13 89 \,
13 92 \, 12 93 \, 13 91 \, 13 94 \, 12 95 \, 13 92 \, 12 96 \, 13 93
\, 13 98 \, 12 99 \, 13 95 \, 13 100 \, 12 101 \, 13 96 \, 12 102 \,
13 97 \, 13 104 \, 12 105 \, 13 99 \, 12 106 \, 13 100 \, 12 107 \,
13 101 \, 13 109 \, 12 110 \, 13 103 \, 12 111 \, 13 104 \, 13 113
\, 12 114 \, 13 106 \, 12 115 \, 13 107 \, 12 117 \, 13 108 \, 13 118
\, 12 119 \, 13 110 \, 12 120 \, 13 111 \, 12 122 \, 13 112 \, 12 123
\, 13 113 \, 12 124 \, 13 115 \, 12 126 \, 13 116 \, 12 127 \, 12 117
\, 12 119 \, 12 120 \, 12 121 \, 12 123 \, 12 124 \, 12 126 \, 13 127
\, 13 125 \, 13 124 \, 13 123 \, 13 122 \, 13 120 \, 13 119 \, 13 118
\, 13 117 \, 13 115 \, 13 114 \, 13 112 \, 13 111 \, 13 109 \, 13 107
\, 13 106 \, 13 105 \, 12 103 \, 13 126 \, 12 102 \, 13 125 \, 12 101
\, 12 124 \, 12 123 \, 12 122 \, 12 121 \, 12 120 \, 12 118 \, 12 117
\, 12 115 \, 12 114 \, 12 113 \, 12 111 \, 12 110 \, 12 108 \, 12 107
\, 12 105 \, 12 104 \, 12 102 \, 12 101 \, 12 100 \, 12 99 \, 12 98
\, 12 97 \, 13 96 \, 12 100 \, 12 95 \, 13 93 \, 12 99 \, 13 92 \,
12 98 \, 13 91 \, 13 97 \, 12 96 \, 13 90 \, 12 95 \, 13 89 \, 12 94
\, 13 88 \, 12 93 \, 13 87 \, 13 92 \, 12 91 \, 13 86 \, 13 90 \, 12
88 \, 13 85 \, 13 87 \, 12 86 \, 13 84 \, 13 85 \, 12 83 \, 13 83 \,
13 82 \, 13 81 \, 12 79 \, 13 82 \, 13 78 \, 13 77 \, 13 76 \, 13 75
\, 13 74 \, 13 73 \, 12 72 \, 13 83 \, 12 71 \, 12 84 \, 12 85 \, 12
86 \, 13 87 \, 12 72 \, 13 88 \, 12 73 \, 13 89 \, 13 74 \, 13 75 \,
12 77 \, 13 90 \, 13 78 \, 12 79 \, 13 92 \, 12 80 \, 13 93 \, 13 82
\, 12 83 \, 13 94 \, 13 85 \, 12 87 \, 13 96 \, 13 88 \, 12 90 \, 13
97 \, 13 92 \, 12 94 \, 13 99 \, 13 95 \, 12 97 \, 13 100 \, 13 99
\, 12 100 \, 13 101 \, 13 102 \, 12 104 \, 13 103 \, 13 105 \, 12 106
\, 13 104 \, 13 108 \, 12 109 \, 13 105 \, 13 110 \, 12 111 \, 13 106
\, 13 113 \, 13 114 \, 12 115 \, 13 107 \, 13 116 \, 12 117 \, 13 108
\, 12 119 \, 13 109 \, 13 120 \, 12 122 \, 13 110 \, 12 123 \, 13 112
\, 12 124 \, 13 113 \, 12 125 \, 13 114 \, 12 126 \, 13 115 \, 12 127
\, 12 116 \, 12 118 \, 12 120 \, 12 121 \, 12 122 \, 12 123 \, 12 124
\, 12 125 \, 12 126 \, 13 127 \, 13 126 \, 13 125 \, 13 124 \, 13 123
\, 13 122 \, 13 120 \, 13 118 \, 13 117 \, 13 115 \, 13 114 \, 13 113
\, 13 112 \, 13 111 \, 13 110 \, 13 109 \, 13 107 \, 13 105 \, 13 104
\, 13 103 \, 13 102 \, 13 101 \, 13 100 \, 13 98 \, 13 97 \, 12 96
\, 13 126 \, 13 95 \, 12 94 \, 13 125 \, 13 93 \, 12 92 \, 13 124 \,
12 90 \, 13 122 \, 13 89 \, 12 88 \, 13 121 \, 12 86 \, 13 120 \, 12
85 \, 13 118 \, 12 84 \, 13 117 \, 12 83 \, 13 115 \, 12 82 \, 12 114
\, 13 112 \, 12 80 \, 12 110 \, 12 109 \, 12 108 \, 12 106 \, 13 105
\, 12 81 \, 13 103 \, 12 82 \, 13 101 \, 12 84 \, 13 100 \, 12 86 \,
13 99 \, 12 87 \, 13 98 \, 12 88 \, 13 96 \, 12 90 \, 13 95 \, 13 92
\, 12 93 \, 13 94 \, 13 94 \, 13 95 \, 12 97 \, 13 93 \, 13 98 \, 13
99 \, 12 101 \, 13 92 \, 13 102 \, 13 104 \, 13 105 \, 13 107 \, 13
108 \, 13 109 \, 13 111 \, 13 112 \, 13 113 \, 13 114 \, 13 115 \,
12 116 \, 13 93 \, 13 117 \, 12 118 \, 13 94 \, 13 120 \, 12 121 \,
13 96 \, 12 122 \, 13 97 \, 12 123 \, 13 98 \, 12 124 \, 13 99 \, 12
125 \, 13 100 \, 12 127 \, 12 102 \, 12 103 \, 12 104 \, 12 105 \,
12 106 \, 12 107 \, 12 108 \, 12 109 \, 12 110 \, 12 111 \, 12 112
\, 12 113 \, 12 114 \, 12 115 \, 12 116 \, 12 117 \, 12 118 \, 12 119
\, 12 120 \, 12 122 \, 13 123 \, 12 125 \, 13 125 \, 12 124 \, 13 126
\, 12 123 \, 13 127 \, 13 121 \, 13 119 \, 13 118 \, 13 117 \, 13 115
\, 13 114 \, 13 113 \, 13 112 \, 13 110 \, 13 109 \, 13 107 \, 13 106
\, 13 104 \, 13 103 \, 13 101 \, 13 100 \, 13 99 \, 13 97 \, 13 95
\, 13 94 \, 13 92 \, 13 91 \, 13 89 \, 13 87 \, 13 86 \, 13 84 \, 13
83 \, 13 82 \, 13 80 \, 12 79 \, 13 126 \, 13 78 \, 12 77 \, 13 125
\, 13 76 \, 12 75 \, 13 124 \, 12 73 \, 13 122 \, 12 72 \, 13 121 \,
12 71 \, 12 120 \, 12 118 \, 12 116 \, 12 114 \, 12 113 \, 12 112 \,
12 111 \, 12 110 \, 12 109 \, 13 108 \, 12 72 \, 12 107 \, 13 106 \,
12 73 \, 13 105 \, 12 74 \, 13 104 \, 12 75 \, 13 103 \, 12 76 \, 13
101 \, 12 77 \, 13 100 \, 12 78 \, 13 99 \, 13 79 \, 12 81 \, 13 98
\, 13 82 \, 12 83 \, 13 97 \, 13 85 \, 12 87 \, 13 96 \, 13 88 \, 13
90 \, 12 92 \, 13 94 \, 13 93 \, 13 95 \, 13 97 \, 12 99 \, 13 93 \,
13 101 \, 13 103 \, 13 104 \, 13 106 \, 13 108 \, 13 109 \, 13 111
\, 13 112 \, 12 114 \, 13 94 \, 13 115 \, 13 116 \, 12 117 \, 13 95
\, 13 119 \, 13 120 \, 12 121 \, 13 96 \, 12 123 \, 13 98 \, 12 124
\, 13 99 \, 12 126 \, 13 100 \, 12 127 \, 12 101 \, 12 102 \, 12 104
\, 12 105 \, 12 106 \, 12 107 \, 12 108 \, 12 109 \, 12 110 \, 12 111
\, 12 112 \, 12 113 \, 12 114 \, 12 115 \, 12 116 \, 12 117 \, 12 118
\, 12 119 \, 12 120 \, 12 121 \, 12 122 \, 12 123 \, 12 125 \, 12 126
\, 13 127 \, 13 126 \, 13 125 \, 13 124 \, 13 123 \, 13 122 \, 13 120
\, 13 119 \, 13 118 \, 13 116 \, 13 115 \, 13 113 \, 13 112 \, 13 110
\, 13 108 \, 13 106 \, 13 104 \, 13 102 \, 13 101 \, 13 99 \, 13 97
\, 13 95 \, 13 93 \, 13 91 \, 12 89 \, 13 126 \, 13 87 \, 12 85 \,
13 124 \, 13 84 \, 12 82 \, 13 122 \, 13 80 \, 12 79 \, 13 121 \, 12
78 \, 13 120 \, 12 76 \, 13 119 \, 12 74 \, 13 118 \, 12 73 \, 13 116
\, 12 72 \, 13 115 \, 12 70 \, 13 113 \, 12 69 \, 12 112 \, 12 111
\, 12 109 \, 12 108 \, 12 107 \, 12 106 \, 12 105 \, 13 104 \, 12 70
\, 13 102 \, 12 71 \, 12 101 \, 13 100 \, 12 72 \, 12 99 \, 13 98 \,
12 74 \, 13 97 \, 12 75 \, 13 96 \, 12 76 \, 13 95 \, 13 77 \, 12 78
\, 13 93 \, 13 80 \, 12 81 \, 13 92 \, 13 82 \, 12 84 \, 13 91 \, 13
86 \, 12 87 \, 13 90 \, 13 89 \, 13 91 \, 12 93 \, 13 89 \, 13 95 \,
13 97 \, 13 98 \, 13 100 \, 13 102 \, 13 103 \, 13 105 \, 13 106 \,
13 108 \, 12 109 \, 13 90 \, 13 110 \, 12 112 \, 13 91 \, 13 113 \,
12 115 \, 13 92 \, 13 116 \, 12 117 \, 13 94 \, 13 118 \, 12 119 \,
13 95 \, 13 120 \, 12 121 \, 13 97 \, 13 122 \, 12 123 \, 13 98 \,
12 124 \, 13 100 \, 12 126 \, 13 101 \, 12 127 \, 12 102 \, 12 103
\, 12 104 \, 12 105 \, 12 106 \, 12 107 \, 12 108 \, 12 109 \, 12 110
\, 12 111 \, 12 112 \, 12 113 \, 12 114 \, 12 115 \, 12 117 \, 12 118
\, 13 120 \, 12 126 \, 13 121 \, 12 125 \, 13 122 \, 13 124 \, 12 123
\, 13 124 \, 12 121 \, 13 125 \, 13 119 \, 12 118 \, 13 126 \, 13 117
\, 13 116 \, 12 114 \, 13 127 \, 13 113 \, 13 111 \, 13 110 \, 13 108
\, 13 107 \, 13 105 \, 13 103 \, 13 101 \, 13 99 \, 13 98 \, 12 96
\, 13 126 \, 13 94 \, 12 92 \, 13 125 \, 13 90 \, 12 88 \, 13 123 \,
13 87 \, 12 85 \, 13 121 \, 12 82 \, 13 120 \, 12 80 \, 13 119 \, 12
78 \, 13 118 \, 13 77 \, 12 76 \, 13 116 \, 13 75 \, 12 74 \, 13 114
\, 12 73 \, 13 113 \, 12 71 \, 13 112 \, 12 70 \, 12 111 \, 13 110
\, 12 69 \, 12 109 \, 12 107 \, 13 106 \, 12 70 \, 13 104 \, 12 71
\, 12 103 \, 13 102 \, 12 72 \, 13 100 \, 12 73 \, 13 99 \, 12 74 \,
13 97 \, 12 75 \, 13 96 \, 13 76 \, 12 78 \, 13 95 \, 12 79 \, 13 94
\, 12 80 \, 13 92 \, 13 108 \, 13 106 \, 12 104 \, 13 126 \, 13 103
\, 12 101 \, 13 124 \, 13 99 \, 12 97 \, 13 122 \, 12 95 \, 13 121
\, 12 94 \, 13 120 \, 12 92 \, 13 119 \, 12 90 \, 13 118 \, 12 88 \,
13 116 \, 12 86 \, 13 115 \, 12 85 \, 13 114 \, 12 84 \, 13 113 \,
12 82 \, 13 112 \, 12 81 \, 13 111 \, 12 80 \, 13 109 \, 12 78 \, 12
108 \, 12 107 \, 12 106 \, 12 105 \, 12 104 \, 12 103 \, 12 102 \,
13 100 \, 12 79 \, 13 99 \, 12 81 \, 13 98 \, 13 82 \, 12 83 \, 13
96 \, 13 84 \, 13 86 \, 13 87 \, 13 89 \, 13 90 \, 13 92 \, 13 94 \,
13 96 \, 12 98 \, 13 97 \, 13 100 \, 12 102 \, 13 99 \, 12 104 \, 13
100 \, 12 106 \, 13 101 \, 12 108 \, 13 102 \, 12 110 \, 13 104 \,
12 112 \, 13 105 \, 12 114 \, 13 106 \, 12 116 \, 13 108 \, 12 117
\, 13 109 \, 12 119 \, 13 111 \, 12 120 \, 13 112 \, 12 121 \, 13 114
\, 12 122 \, 13 115 \, 12 124 \, 12 117 \, 13 118 \, 12 125 \, 12 119
\, 12 120 \, 12 122 \, 12 123 \, 12 124 \, 12 125 \, 12 126 \, 13 127
\, 13 124 \, 13 122 \, 13 121 \, 13 120 \, 13 119 \, 13 118 \, 13 117
\, 13 115 \, 13 114 \, 13 112 \, 13 110 \, 13 109 \, 13 107 \, 13 105
\, 13 104 \, 13 102 \, 13 100 \, 13 98 \, 13 97 \, 12 95 \, 13 126
\, 12 93 \, 13 125 \, 12 92 \, 13 124 \, 12 91 \, 13 122 \, 12 89 \,
13 121 \, 12 88 \, 13 120 \, 12 87 \, 13 119 \, 12 86 \, 13 118 \,
12 84 \, 13 116 \, 12 83 \, 12 115 \, 13 114 \, 12 81 \, 12 113 \,
13 112 \, 12 80 \, 12 110 \, 12 109 \, 12 107 \, 12 106 \, 12 105 \,
12 104 \, 12 102 \, 12 100 \, 12 99 \, 13 98 \, 12 81 \, 12 96 \, 13
95 \, 12 83 \, 13 94 \, 12 84 \, 13 92 \, 12 85 \, 13 91 \, 13 87 \,
12 88 \, 13 90 \, 12 90 \, 13 88 \, 13 92 \, 13 94 \, 12 96 \, 13 87
\, 13 98 \, 13 100 \, 13 103 \, 12 105 \, 13 88 \, 13 107 \, 12 109
\, 13 90 \, 12 112 \, 13 91 \, 13 114 \, 12 116 \, 13 92 \, 12 118
\, 13 93 \, 12 120 \, 13 95 \, 12 122 \, 13 96 \, 12 123 \, 13 97 \,
12 125 \, 13 98 \, 12 127 \, 12 99 \, 12 100 \, 12 102 \, 12 103 \,
12 104 \, 12 105 \, 12 107 \, 12 108 \, 12 109 \, 12 110 \, 12 112
\, 12 113 \, 12 114 \, 12 116 \, 12 117 \, 13 118 \, 12 126 \, 13 119
\, 13 124 \, 13 123 \, 12 122 \, 13 120 \, 13 120 \, 13 118 \, 13 117
\, 13 115 \, 13 114 \, 13 112 \, 13 110 \, 12 108 \, 13 118 \, 13 106
\, 12 104 \, 13 117 \, 13 103 \, 12 101 \, 13 116 \, 12 99 \, 13 115
\, 12 98 \, 13 113 \, 12 96 \, 13 112 \, 12 94 \, 13 111 \, 12 93 \,
13 110 \, 12 91 \, 13 109 \, 12 89 \, 13 108 \, 12 88 \, 13 106 \,
12 86 \, 13 104 \, 12 84 \, 13 103 \, 12 83 \, 13 101 \, 12 81 \, 13
99 \, 12 79 \, 13 97 \, 12 78 \, 13 96 \, 12 77 \, 13 95 \, 12 76 \,
12 93 \, 13 91 \, 12 75 \, 12 90 \, 12 88 \, 12 87 \, 12 85 \, 12 84
\, 12 82 \, 13 80 \, 12 76 \, 12 79 \, 13 78 \, 12 77 \, 13 76 \, 12
78 \, 13 75 \, 12 80 \, 13 74 \, 12 81 \, 13 73 \, 12 83 \, 13 72 \,
13 85 \, 12 87 \, 13 71 \, 13 88 \, 13 90 \, 13 92 \, 13 94 \, 13 96
\, 13 98 \, 13 100 \, 12 102 \, 13 72 \, 13 104 \, 12 107 \, 13 74
\, 13 108 \, 12 110 \, 13 76 \, 12 113 \, 13 77 \, 12 115 \, 13 78
\, 12 116 \, 13 80 \, 12 118 \, 13 81 \, 12 120 \, 13 83 \, 12 122
\, 13 85 \, 12 123 \, 13 86 \, 12 125 \, 13 88 \, 12 126 \, 13 90 \,
12 127 \, 12 92 \, 12 94 \, 12 95 \, 12 97 \, 12 99 \, 12 100 \, 12
102 \, 12 103 \, 12 105 \, 12 106 \, 12 107 \, 12 109 \, 12 111 \,
12 112 \, 13 113 \, 12 126 \, 13 115 \, 13 125 \, 12 124 \, 13 116
\, 13 122 \, 13 121 \, 13 119 \, 12 117 \, 13 117 \, 13 116 \, 13 114
\, 13 112 \, 13 110 \, 12 108 \, 13 116 \, 13 107 \, 12 105 \, 13 114
\, 13 103 \, 12 101 \, 13 113 \, 13 99 \, 12 98 \, 13 112 \, 12 97
\, 13 111 \, 12 95 \, 13 110 \, 12 93 \, 13 108 \, 12 91 \, 13 107
\, 12 89 \, 13 106 \, 12 88 \, 13 105 \, 12 87 \, 13 103 \, 12 86 \,
13 102 \, 12 85 \, 13 100 \, 12 83 \, 13 99 \, 12 82 \, 13 97 \, 12
81 \, 12 96 \, 12 94 \, 12 93 \, 12 91 \, 12 90 \, 12 89 \, 13 88 \,
12 82 \, 12 87 \, 13 85 \, 12 84 \, 13 84 \, 12 85 \, 13 83 \, 12 86
\, 13 81 \, 12 87 \, 13 80 \, 12 89 \, 13 79 \, 13 90 \, 12 92 \, 13
78 \, 13 94 \, 13 96 \, 13 98 \, 13 100 \, 13 102 \, 13 104 \, 12 107
\, 13 79 \, 13 109 \, 12 111 \, 13 81 \, 12 113 \, 13 82 \, 12 116
\, 13 83 \, 12 118 \, 13 84 \, 12 120 \, 13 86 \, 12 122 \, 13 88 \,
12 124 \, 13 89 \, 12 126 \, 13 91 \, 12 127 \, 12 93 \, 12 95 \, 12
97 \, 12 99 \, 12 100 \, 12 101 \, 12 102 \, 12 104 \, 12 105 \, 12
107 \, 12 108 \, 12 110 \, 12 111 \, 12 113 \, 12 114 \, 12 115 \,
12 117 \, 12 118 \, 12 119 \, 12 120 \, 13 121 \, 13 126 \, 12 125
\, 13 123 \, 13 124 \, 12 122 \, 13 124 \, 13 121 \, 13 119 \, 13 117
\, 13 116 \, 13 114 \, 13 112 \, 13 110 \, 13 109 \, 13 107 \, 12 105
\, 13 123 \, 13 103 \, 12 102 \, 13 121 \, 13 100 \, 12 99 \, 13 120
\, 12 97 \, 13 119 \, 12 96 \, 13 118 \, 12 94 \, 13 117 \, 12 93 \,
13 116 \, 12 91 \, 13 115 \, 12 90 \, 13 113 \, 13 89 \, 12 83 \, 13
91 \, 12 84 \, 13 90 \, 12 86 \, 13 89 \, 12 87 \, 13 88 \, 12 89 \,
13 87 \, 12 74 \, 13 85 \, 12 75 \, 13 83 \, 12 76 \, 13 82 \, 12 77
\, 13 81 \, 12 78 \, 13 80 \, 12 79 \, 13 78 \, 13 81 \, 12 83 \, 13
77 \, 13 85 \, 13 87 \, 13 89 \, 13 91 \, 13 93 \, 13 96 \, 13 98 \,
12 100 \, 13 79 \, 12 102 \, 13 80 \, 12 104 \, 13 81 \, 12 106 \,
13 82 \, 12 108 \, 13 83 \, 12 110 \, 13 84 \, 12 112 \, 13 85 \, 12
114 \, 13 87 \, 12 116 \, 13 88 \, 12 117 \, 13 90 \, 12 119 \, 13
91 \, 12 120 \, 13 93 \, 12 121 \, 13 95 \, 12 122 \, 13 96 \, 12 123
\, 13 98 \, 12 125 \, 12 100 \, 12 101 \, 13 103 \, 12 126 \, 12 105
\, 12 106 \, 12 107 \, 13 108 \, 12 125 \, 12 110 \, 13 111 \, 12 123
\, 13 112 \, 12 121 \, 13 114 \, 12 120 \, 13 115 \, 13 119 \, 12 118
\, 13 116 \, 13 117 \, 12 116 \, 13 117 \, 13 114 \, 13 113 \, 13 111
\, 13 109 \, 13 108 \, 13 107 \, 13 105 \, 13 103 \, 12 102 \, 13 116
\, 13 100 \, 12 98 \, 13 115 \, 13 97 \, 12 95 \, 13 114 \, 12 94 \,
13 113 \, 13 93 \, 12 91 \, 13 111 \, 12 90 \, 13 110 \, 12 88 \, 13
109 \, 12 87 \, 13 108 \, 12 86 \, 13 107 \, 12 84 \, 13 105 \, 12
83 \, 13 104 \, 12 82 \, 13 103 \, 12 80 \, 13 101 \, 12 79 \, 13 100
\, 12 78 \, 13 98 \, 12 77 \, 13 96 \, 12 76 \, 13 94 \, 12 75 \, 12
92 \, 12 91 \, 12 89 \, 12 88 \, 12 86 \, 12 85 \, 12 83 \, 13 82 \,
12 76 \, 12 81 \, 13 80 \, 12 78 \, 13 79 \, 13 79 \, 12 80 \, 13 78
\, 13 82 \, 13 83 \, 13 85 \, 13 87 \, 13 89 \, 13 91 \, 13 93 \, 12
96 \, 13 79 \, 13 98 \, 12 100 \, 13 81 \, 12 102 \, 13 82 \, 12 104
\, 13 83 \, 12 106 \, 13 84 \, 12 108 \, 13 86 \, 12 109 \, 13 87 \,
12 111 \, 13 88 \, 12 113 \, 13 90 \, 12 115 \, 13 91 \, 12 116 \,
13 93 \, 12 117 \, 13 94 \, 12 118 \, 13 96 \, 12 119 \, 13 97 \, 12
120 \, 12 99 \, 12 100 \, 12 102 \, 12 103 \, 12 104 \, 12 105 \, 12
106 \, 12 107 \, 13 108 \, 12 119 \, 13 109 \, 12 118 \, 13 111 \,
12 117 \, 13 112 \, 13 116 \, 12 115 \, 13 113 \, 13 114 \, 13 113
\, 13 112 \, 13 110 \, 13 108 \, 13 107 \, 13 105 \, 13 103 \, 13 102
\, 12 100 \, 13 112 \, 13 99 \, 12 97 \, 13 111 \, 13 96 \, 12 94 \,
13 109 \, 12 92 \, 13 108 \, 13 91 \, 12 89 \, 13 107 \, 13 88 \, 12
87 \, 13 105 \, 12 86 \, 13 104 \, 12 85 \, 13 103 \, 12 84 \, 13 102
\, 12 82 \, 13 101 \, 12 81 \, 13 99 \, 12 80 \, 13 98 \, 12 79 \,
12 97 \, 12 96 \, 12 95 \, 12 94 \, 12 93 \, 12 92 \, 13 91 \, 12 80
\, 13 90 \, 12 82 \, 12 89 \, 13 87 \, 13 83 \, 12 85 \, 13 85 \, 13
86 \, 12 88 \, 13 83 \, 13 89 \, 13 91 \, 13 93 \, 13 95 \, 13 97 \,
13 99 \, 13 101 \, 13 104 \, 13 106 \, 12 108 \, 13 85 \, 12 111 \,
13 86 \, 12 113 \, 13 87 \, 12 115 \, 13 88 \, 12 117 \, 13 89 \, 12
119 \, 13 91 \, 12 121 \, 13 92 \, 12 123 \, 13 94 \, 12 125 \, 13
95 \, 12 127 \, 12 97 \, 12 98 \, 12 100 \, 12 101 \, 12 102 \, 12
104 \, 12 105 \, 12 106 \, 12 108 \, 12 109 \, 12 110 \, 12 111 \,
12 113 \, 12 114 \, 12 115 \, 12 116 \, 12 117 \, 12 118 \, 13 119
\, 12 125 \, 13 121 \, 13 124 \, 12 122 \, 13 122 \, 13 120 \, 12 118
\, 13 123 \, 13 116 \, 13 114 \, 13 112 \, 13 110 \, 13 108 \, 13 106
\, 13 104 \, 13 102 \, 12 100 \, 13 122 \, 13 98 \, 12 96 \, 13 120
\, 12 93 \, 13 119 \, 12 91 \, 13 118 \, 12 89 \, 13 117 \, 12 87 \,
13 116 \, 12 86 \, 13 115 \, 12 84 \, 13 114 \, 12 82 \, 13 113 \,
12 81 \, 13 111 \, 12 80 \, 13 110 \, 12 78 \, 13 109 \, 12 77 \, 13
107 \, 12 76 \, 13 106 \, 12 75 \, 13 104 \, 12 73 \, 13 102 \, 12
72 \, 13 101 \, 12 71 \, 12 99 \, 12 97 \, 12 95 \, 12 94 \, 12 92
\, 12 91 \, 12 90 \, 13 88 \, 12 72 \, 12 87 \, 13 86 \, 12 73 \, 13
84 \, 12 75 \, 13 83 \, 12 76 \, 13 82 \, 13 77 \, 13 78 \, 13 80 \,
12 82 \, 13 81 \, 13 83 \, 13 84 \, 13 85 \, 12 87 \, 13 82 \, 12 88
\, 13 83 \, 12 89 \, 13 0 \, 12 12 \, 12 78 \, 13 78 \, 12 127 \, 12
77 \, 12 76 \, 12 74 \, 12 73 \, 12 72 \, 13 70 \, 12 11 \, 12 69 \,
12 68 \, 12 66 \, 13 65 \, 12 12 \, 12 63 \, 12 62 \, 13 60 \, 12 13
\, 12 59 \, 13 58 \, 12 14 \, 12 56 \, 12 55 \, 13 54 \, 12 15 \, 12
53 \, 12 52 \, 13 51 \, 12 17 \, 12 50 \, 12 49 \, 13 48 \, 12 18 \,
12 47 \, 13 45 \, 12 19 \, 12 44 \, 13 43 \, 12 20 \, 13 41 \, 12 22
\, 13 40 \, 12 23 \, 13 38 \, 12 24 \, 13 37 \, 12 26 \, 13 35 \, 12
27 \, 13 34 \, 12 29 \, 13 32 \, 12 30 \, 13 31 \, 12 32 \, 13 30 \,
13 33 \, 12 34 \, 13 29 \, 12 35 \, 13 28 \, 12 36 \, 13 27 \, 13 38
\, 12 39 \, 13 26 \, 12 41 \, 13 25 \, 12 42 \, 13 24 \, 13 43 \, 13
45 \, 12 46 \, 13 22 \, 13 47 \, 12 48 \, 13 21 \, 13 50 \, 13 51 \,
12 52 \, 13 20 \, 13 53 \, 13 54 \, 13 55 \, 12 56 \, 13 19 \, 13 57
\, 13 58 \, 13 59 \, 13 60 \, 13 62 \, 12 63 \, 13 18 \, 13 64 \, 13
65 \, 13 66 \, 13 67 \, 13 68 \, 13 69 \, 13 71 \, 13 72 \, 13 73 \,
13 74 \, 13 75 \, 12 76 \, 13 19 \, 13 77 \, 13 78 \, 13 79 \, 12 80
\, 13 20 \, 13 81 \, 13 82 \, 12 83 \, 13 21 \, 13 84 \, 12 86 \, 13
23 \, 13 87 \, 12 88 \, 13 24 \, 13 89 \, 12 90 \, 13 25 \, 12 92 \,
13 26 \, 12 93 \, 13 27 \, 12 94 \, 13 28 \, 12 95 \, 13 30 \, 12 96
\, 13 31 \, 12 97 \, 13 32 \, 12 98 \, 13 34 \, 12 99 \, 13 35 \, 12
100 \, 12 37 \, 13 38 \, 12 102 \, 12 40 \, 13 41 \, 12 103 \, 12 43
\, 12 44 \, 13 45 \, 12 104 \, 12 47 \, 12 48 \, 12 49 \, 12 51 \,
12 52 \, 12 53 \, 12 55 \, 12 56 \, 13 57 \, 12 103 \, 12 58 \, 13
60 \, 12 102 \, 13 61 \, 12 100 \, 13 62 \, 12 99 \, 13 63 \, 12 98
\, 13 64 \, 12 97 \, 13 65 \, 12 95 \, 13 66 \, 13 93 \, 12 92 \, 13
67 \, 13 91 \, 13 90 \, 13 89 \, 12 88 \, 13 68 \, 13 87 \, 13 86 \,
12 85 \, 13 69 \, 13 83 \, 13 82 \, 13 80 \, 13 79 \, 12 78 \, 13 70
\, 13 76 \, 13 75 \, 13 73 \, 12 72 \, 13 71 \, 13 70 \, 13 69 \, 13
67 \, 12 66 \, 13 72 \, 13 64 \, 13 63 \, 13 61 \, 12 60 \, 13 73 \,
13 58 \, 13 57 \, 12 56 \, 13 74 \, 13 55 \, 13 53 \, 13 52 \, 12 51
\, 13 75 \, 13 49 \, 13 48 \, 13 47 \, 12 46 \, 13 77 \, 13 45 \, 13
44 \, 12 43 \, 13 78 \, 13 42 \, 12 41 \, 13 79 \, 13 39 \, 12 37 \,
13 80 \, 12 36 \, 13 81 \, 12 35 \, 13 82 \, 12 33 \, 13 83 \, 12 32
\, 13 84 \, 12 31 \, 13 85 \, 12 30 \, 13 86 \, 12 29 \, 12 87 \, 13
88 \, 12 28 \, 12 89 \, 12 91 \, 12 92 \, 12 93 \, 12 94 \, 12 96 \,
13 97 \, 12 29 \, 12 98 \, 13 99 \, 12 30 \, 13 100 \, 12 31 \, 13
102 \, 12 33 \, 13 103 \, 12 34 \, 13 104 \, 12 36 \, 13 105 \, 13
37 \, 12 38 \, 13 106 \, 12 39 \, 13 30 \, 12 26 \, 13 31 \, 12 25
\, 13 32 \, 12 24 \, 13 33 \, 12 23 \, 13 34 \, 12 22 \, 13 35 \, 12
21 \, 13 36 \, 12 19 \, 13 37 \, 12 18 \, 13 38 \, 12 17 \, 12 39 \,
13 40 \, 12 16 \, 13 41 \, 12 15 \, 12 42 \, 13 43 \, 12 14 \, 13 44
\, 12 13 \, 12 45 \, 12 47 \, 12 48 \, 12 49 \, 12 50 \, 12 51 \, 12
52 \, 12 53 \, 12 55 \, 13 56 \, 12 14 \, 13 58 \, 12 15 \, 13 59 \,
12 16 \, 13 60 \, 12 17 \, 13 61 \, 12 18 \, 13 62 \, 13 19 \, 12 20
\, 13 63 \, 12 21 \, 13 64 \, 13 23 \, 12 24 \, 13 65 \, 12 26 \, 13
66 \, 13 27 \, 12 29 \, 13 67 \, 13 30 \, 12 31 \, 13 68 \, 13 33 \,
13 34 \, 12 35 \, 13 69 \, 13 37 \, 13 38 \, 13 39 \, 12 40 \, 13 70
\, 13 41 \, 13 42 \, 13 43 \, 13 44 \, 13 45 \, 12 46 \, 13 71 \, 13
47 \, 13 48 \, 13 49 \, 13 50 \, 13 51 \, 13 52 \, 13 54 \, 13 55 \,
13 56 \, 12 57 \, 13 72 \, 13 59 \, 13 60 \, 13 62 \, 13 64 \, 12 66
\, 13 73 \, 13 67 \, 13 69 \, 13 70 \, 13 72 \, 12 73 \, 13 74 \, 13
75 \, 12 76 \, 13 75 \, 13 77 \, 12 78 \, 13 76 \, 13 79 \, 13 81 \,
12 82 \, 13 77 \, 12 83 \, 13 78 \, 13 84 \, 12 85 \, 13 79 \, 13 86
\, 12 87 \, 13 81 \, 12 89 \, 13 82 \, 12 90 \, 13 83 \, 12 91 \, 13
84 \, 12 92 \, 12 85 \, 13 86 \, 12 93 \, 12 87 \, 12 88 \, 13 89 \,
12 92 \, 13 90 \, 12 91 \, 13 91 \, 12 90 \, 13 92 \, 13 89 \, 12 88
\, 13 93 \, 12 86 \, 13 94 \, 13 85 \, 13 84 \, 12 83 \, 13 95 \, 13
82 \, 12 80 \, 13 96 \, 13 79 \, 13 78 \, 13 77 \, 13 75 \, 13 74 \,
13 72 \, 13 71 \, 13 70 \, 13 69 \, 13 67 \, 13 66 \, 13 65 \, 13 64
\, 13 63 \, 13 61 \, 13 59 \, 13 58 \, 13 57 \, 13 56 \, 13 55 \, 12
54 \, 13 95 \, 12 52 \, 13 94 \, 13 50 \, 12 49 \, 13 93 \, 12 47 \,
13 92 \, 13 46 \, 12 44 \, 13 91 \, 12 43 \, 13 90 \, 12 42 \, 13 89
\, 12 41 \, 13 87 \, 12 39 \, 12 86 \, 13 85 \, 12 37 \, 13 84 \, 12
36 \, 13 83 \, 12 35 \, 13 81 \, 12 34 \, 13 79 \, 12 33 \, 12 78 \,
13 77 \, 12 32 \, 13 75 \, 12 31 \, 12 74 \, 13 72 \, 12 30 \, 12 71
\, 13 70 \, 12 29 \, 12 68 \, 13 66 \, 12 28 \, 12 65 \, 12 63 \, 13
62 \, 12 27 \, 12 60 \, 12 59 \, 12 58 \, 12 56 \, 12 55 \, 12 54 \,
12 52 \, 12 51 \, 12 50 \, 12 49 \, 12 47 \, 13 46 \, 12 28 \, 13 44
\, 12 29 \, 12 43 \, 12 42 \, 13 41 \, 12 30 \, 12 39 \, 13 38 \, 12
31 \, 12 37 \, 13 35 \, 12 32 \, 13 34 \, 12 33 \, 12 33 \, 13 32 \,
12 34 \, 12 30 \, 13 29 \, 12 35 \, 12 28 \, 12 27 \, 12 26 \, 12 24
\, 12 23 \, 12 22 \, 13 21 \, 12 34 \, 12 20 \, 13 18 \, 12 32 \, 13
17 \, 12 31 \, 13 16 \, 12 30 \, 13 15 \, 12 29 \, 13 14 \, 12 28 \,
13 13 \, 12 27 \, 13 12 \, 12 25 \, 13 11 \, 12 23 \, 13 10 \, 13 22
\, 12 21 \, 13 9 \, 13 20 \, 13 19 \, 12 18 \, 13 8 \, 13 17 \, 13
16 \, 12 15 \, 13 6 \, 13 13 \, 13 12 \, 12 11 \, 13 5 \, 13 10 \,
13 9 \, 13 8 \, 13 6 \, 12 5 \, 13 4 \, 13 4 \, 13 3 \, 13 2 \, 13
1 \, 12 0 \, 12 5 \, 12 6 \, 12 7 \, 12 8 \, 12 9 \, 12 10 \, 12 11
\, 12 12 \, 12 13 \, 12 15 \, 12 17 \, 12 18 \, 12 19 \, 12 21 \, 12
22 \, 12 23 \, 12 24 \, 12 25 \, 13 26 \, 12 1 \, 13 28 \, 12 2 \,
13 29 \, 12 3 \, 13 30 \, 12 4 \, 13 32 \, 12 5 \, 13 33 \, 12 6 \,
12 34 \, 13 35 \, 12 8 \, 13 37 \, 12 9 \, 12 38 \, 13 39 \, 12 10
\, 12 41 \, 13 42 \, 12 12 \, 13 43 \, 12 13 \, 12 45 \, 13 46 \, 12
15 \, 12 48 \, 13 49 \, 12 16 \, 12 50 \, 13 52 \, 12 18 \, 13 53 \,
12 19 \, 12 55 \, 13 56 \, 12 20 \, 12 57 \, 13 59 \, 12 22 \, 12 60
\, 13 61 \, 12 24 \, 12 63 \, 13 64 \, 12 25 \, 13 66 \, 12 26 \, 12
67 \, 13 69 \, 12 28 \, 13 70 \, 12 29 \, 13 72 \, 12 30 \, 12 73 \,
13 74 \, 12 32 \, 13 76 \, 12 33 \, 13 77 \, 12 34 \, 13 79 \, 12 35
\, 13 80 \, 12 36 \, 12 81 \, 13 83 \, 12 38 \, 12 84 \, 13 85 \, 12
39 \, 13 86 \, 12 40 \, 13 87 \, 12 42 \, 12 88 \, 13 90 \, 12 43 \,
13 91 \, 12 45 \, 13 92 \, 12 46 \, 13 93 \, 12 47 \, 13 94 \, 12 48
\, 13 95 \, 12 49 \, 12 96 \, 13 97 \, 12 50 \, 13 99 \, 12 52 \, 13
100 \, 12 53 \, 12 101 \, 12 103 \, 13 104 \, 12 52 \, 13 0 \, 12 42
\, 12 66 \, 13 66 \, 13 127 \, 12 43 \, 12 63 \, 13 61 \, 12 44 \,
12 59 \, 13 57 \, 12 46 \, 13 55 \, 12 47 \, 12 53 \, 13 51 \, 12 49
\, 12 49 \, 13 48 \, 12 51 \, 13 46 \, 12 52 \, 13 44 \, 12 53 \, 13
43 \, 12 54 \, 13 41 \, 12 55 \, 13 40 \, 12 56 \, 13 38 \, 12 57 \,
13 37 \, 12 58 \, 13 35 \, 12 60 \, 13 34 \, 12 61 \, 13 33 \, 12 62
\, 13 31 \, 12 64 \, 13 30 \, 12 65 \, 13 29 \, 12 67 \, 13 28 \, 12
68 \, 13 27 \, 12 69 \, 13 26 \, 12 71 \, 13 25 \, 12 72 \, 13 24 \,
12 74 \, 13 23 \, 12 75 \, 13 22 \, 12 77 \, 13 20 \, 13 78 \, 12 80
\, 13 19 \, 13 81 \, 12 83 \, 13 18 \, 13 85 \, 13 86 \, 12 88 \, 13
17 \, 13 89 \, 13 91 \, 13 93 \, 13 95 \, 13 97 \, 13 99 \, 13 101
\, 13 103 \, 13 105 \, 12 106 \, 13 18 \, 13 108 \, 13 110 \, 12 112
\, 13 19 \, 13 114 \, 12 116 \, 13 20 \, 13 117 \, 12 119 \, 13 21
\, 13 121 \, 12 122 \, 13 23 \, 13 124 \, 12 125 \, 13 24 \, 12 127
\, 12 26 \, 12 27 \, 12 29 \, 12 31 \, 12 32 \, 12 33 \, 12 34 \, 12
35 \, 12 37 \, 12 39 \, 12 40 \, 12 41 \, 12 42 \, 12 43 \, 12 44 \,
12 45 \, 12 47 \, 12 48 \, 12 49 \, 12 50 \, 12 51 \, 12 52 \, 12 53
\, 12 89 \, 12 88 \, 13 87 \, 12 102 \, 12 86 \, 12 85 \, 12 84 \,
12 83 \, 12 82 \, 12 80 \, 12 79 \, 12 78 \, 12 77 \, 12 76 \, 12 75
\, 13 74 \, 12 100 \, 12 72 \, 13 71 \, 12 99 \, 12 70 \, 13 69 \,
12 98 \, 12 68 \, 13 66 \, 12 97 \, 12 65 \, 13 64 \, 12 96 \, 13 62
\, 12 95 \, 13 61 \, 12 94 \, 13 59 \, 12 92 \, 13 58 \, 12 91 \, 13
57 \, 12 90 \, 13 55 \, 12 89 \, 13 54 \, 12 87 \, 13 52 \, 12 86 \,
13 51 \, 12 85 \, 13 49 \, 12 83 \, 13 48 \, 12 82 \, 13 47 \, 12 80
\, 13 45 \, 12 78 \, 13 44 \, 12 77 \, 13 43 \, 12 75 \, 13 42 \, 12
74 \, 13 41 \, 12 72 \, 13 40 \, 12 70 \, 13 39 \, 12 69 \, 13 38 \,
12 67 \, 13 37 \, 12 66 \, 13 36 \, 12 64 \, 13 35 \, 12 62 \, 13 34
\, 12 61 \, 13 32 \, 13 59 \, 12 58 \, 13 31 \, 13 56 \, 12 54 \, 13
30 \, 13 53 \, 12 51 \, 13 29 \, 13 50 \, 13 49 \, 12 47 \, 13 28 \,
13 46 \, 13 45 \, 13 44 \, 13 42 \, 12 41 \, 13 27 \, 13 40 \, 13 39
\, 13 38 \, 13 37 \, 13 35 \, 13 34 \, 13 33 \, 13 32 \, 12 30 \, 13
28 \, 13 29 \, 12 28 \, 13 29 \, 12 26 \, 13 30 \, 12 25 \, 13 31 \,
12 24 \, 13 32 \, 12 23 \, 13 33 \, 12 22 \, 13 34 \, 12 21 \, 12 35
\, 13 37 \, 12 20 \, 12 38 \, 12 39 \, 13 41 \, 12 19 \, 12 42 \, 12
44 \, 12 45 \, 12 46 \, 12 48 \, 12 49 \, 12 51 \, 12 52 \, 12 53 \,
12 55 \, 12 56 \, 13 57 \, 12 20 \, 12 59 \, 13 61 \, 12 21 \, 13 62
\, 12 22 \, 12 63 \, 13 65 \, 12 23 \, 13 66 \, 12 24 \, 12 68 \, 13
69 \, 12 25 \, 13 70 \, 12 26 \, 12 72 \, 13 73 \, 12 27 \, 13 75 \,
12 28 \, 13 76 \, 12 29 \, 13 77 \, 12 30 \, 12 78 \, 13 80 \, 12 31
\, 13 81 \, 12 32 \, 13 82 \, 12 34 \, 13 83 \, 12 35 \, 13 84 \, 12
36 \, 13 86 \, 12 37 \, 13 87 \, 12 38 \, 13 88 \, 12 39 \, 13 89 \,
12 40 \, 13 90 \, 12 41 \, 13 91 \, 12 42 \, 13 92 \, 12 43 \, 13 94
\, 12 44 \, 13 95 \, 12 45 \, 13 96 \, 12 46 \, 13 97 \, 12 47 \, 12
98 \, 13 99 \, 12 48 \, 12 100 \, 13 101 \, 12 49 \, 12 102 \, 12 103
\, 12 104 \, 12 105 \, 13 106 \, 13 48 \, 13 47 \, 13 46 \, 13 45 \,
13 44 \, 13 43 \, 13 42 \, 13 40 \, 13 39 \, 13 37 \, 12 36 \, 13 105
\, 13 35 \, 13 33 \, 12 32 \, 13 104 \, 13 31 \, 12 30 \, 13 103 \,
12 29 \, 13 102 \, 13 28 \, 12 27 \, 13 101 \, 13 25 \, 12 24 \, 13
100 \, 12 22 \, 13 99 \, 12 21 \, 13 98 \, 12 20 \, 13 97 \, 12 19
\, 12 96 \, 13 95 \, 12 18 \, 12 94 \, 13 92 \, 12 17 \, 12 91 \, 12
90 \, 13 88 \, 12 16 \, 12 87 \, 12 85 \, 12 84 \, 12 82 \, 12 81 \,
12 79 \, 13 78 \, 12 17 \, 13 76 \, 12 18 \, 12 75 \, 13 74 \, 12 19
\, 13 72 \, 12 20 \, 13 70 \, 12 21 \, 13 69 \, 12 23 \, 13 68 \, 12
24 \, 13 67 \, 12 25 \, 13 65 \, 12 27 \, 13 64 \, 12 28 \, 13 63 \,
12 30 \, 13 62 \, 12 31 \, 13 61 \, 13 33 \, 12 34 \, 13 60 \, 13 36
\, 12 37 \, 13 58 \, 13 38 \, 12 39 \, 13 57 \, 13 40 \, 13 41 \, 13
43 \, 12 44 \, 13 56 \, 13 45 \, 13 46 \, 13 47 \, 13 48 \, 13 49 \,
13 50 \, 13 51 \, 13 52 \, 13 53 \, 13 55 \, 13 56 \, 13 58 \, 13 59
\, 13 61 \, 13 62 \, 12 18 \, 12 52 \, 13 52 \, 13 127 \, 12 21 \,
13 48 \, 12 22 \, 13 47 \, 12 24 \, 13 46 \, 12 25 \, 13 44 \, 12 26
\, 13 43 \, 12 27 \, 13 42 \, 12 28 \, 13 41 \, 12 29 \, 13 40 \, 12
30 \, 13 39 \, 12 31 \, 13 38 \, 12 33 \, 13 37 \, 12 34 \, 13 36 \,
12 35 \, 13 35 \, 12 36 \, 13 34 \, 12 37 \, 13 33 \, 12 38 \, 13 32
\, 12 39 \, 13 31 \, 12 40 \, 13 30 \, 12 41 \, 13 29 \, 12 42 \, 13
28 \, 12 43 \, 13 27 \, 13 44 \, 12 46 \, 13 25 \, 13 47 \, 12 48 \,
13 24 \, 13 49 \, 12 50 \, 13 23 \, 13 51 \, 12 53 \, 13 22 \, 13 54
\, 12 55 \, 13 21 \, 13 57 \, 13 58 \, 13 59 \, 13 61 \, 13 62 \, 13
63 \, 13 65 \, 13 66 \, 13 68 \, 13 69 \, 13 70 \, 13 72 \, 13 73 \,
13 74 \, 12 76 \, 13 22 \, 13 78 \, 13 79 \, 13 80 \, 12 82 \, 13 23
\, 13 84 \, 12 85 \, 13 24 \, 13 86 \, 12 87 \, 13 26 \, 13 88 \, 13
90 \, 12 91 \, 13 27 \, 13 92 \, 12 94 \, 13 29 \, 13 95 \, 12 96 \,
13 30 \, 12 97 \, 13 31 \, 12 98 \, 13 32 \, 12 99 \, 13 34 \, 12 101
\, 13 35 \, 12 102 \, 12 36 \, 12 38 \, 12 39 \, 12 40 \, 13 41 \,
12 103 \, 12 42 \, 12 43 \, 13 45 \, 12 102 \, 12 46 \, 13 47 \, 12
100 \, 13 48 \, 12 99 \, 12 50 \, 12 51 \, 13 52 \, 12 98 \, 13 53
\, 12 97 \, 13 54 \, 12 96 \, 12 55 \, 13 56 \, 12 94 \, 13 57 \, 12
93 \, 13 58 \, 12 92 \, 13 59 \, 12 90 \, 13 61 \, 12 89 \, 13 62 \,
12 87 \, 13 63 \, 13 86 \, 12 85 \, 13 65 \, 13 84 \, 13 83 \, 12 82
\, 13 67 \, 13 79 \, 12 78 \, 13 68 \, 12 77 \, 13 70 \, 13 75 \, 12
73 \, 13 71 \, 12 72 \, 13 72 \, 12 71 \, 13 73 \, 13 70 \, 12 69 \,
13 74 \, 13 67 \, 12 66 \, 13 76 \, 12 65 \, 13 77 \, 13 63 \, 12 61
\, 13 78 \, 12 60 \, 13 80 \, 12 58 \, 13 81 \, 13 56 \, 12 55 \, 13
82 \, 13 53 \, 12 52 \, 13 83 \, 12 50 \, 13 84 \, 12 49 \, 13 86 \,
12 47 \, 13 87 \, 13 45 \, 12 44 \, 13 88 \, 12 43 \, 13 89 \, 13 41
\, 12 40 \, 13 91 \, 13 39 \, 13 38 \, 12 36 \, 13 92 \, 13 35 \, 12
34 \, 13 94 \, 13 33 \, 12 30 \, 13 96 \, 12 29 \, 13 97 \, 13 0 \,
12 23 \, 12 40 \, 13 40 \, 13 127 \, 12 25 \, 13 39 \, 12 26 \, 13
38 \, 12 28 \, 13 37 \, 13 29 \, 13 31 \, 12 32 \, 13 35 \, 13 33 \,
13 35 \, 13 36 \, 13 38 \, 13 39 \, 13 41 \, 13 42 \, 13 44 \, 13 46
\, 13 48 \, 13 49 \, 13 51 \, 13 53 \, 13 55 \, 13 57 \, 13 58 \, 13
60 \, 13 61 \, 13 63 \, 13 64 \, 13 66 \, 13 67 \, 13 68 \, 12 69 \,
13 36 \, 13 70 \, 13 71 \, 12 73 \, 13 38 \, 13 74 \, 13 75 \, 12 77
\, 13 39 \, 13 78 \, 13 80 \, 12 81 \, 13 41 \, 13 82 \, 12 83 \, 13
42 \, 13 84 \, 12 85 \, 13 43 \, 13 87 \, 12 88 \, 13 44 \, 13 89 \,
12 90 \, 13 46 \, 13 91 \, 12 93 \, 13 47 \, 13 94 \, 12 95 \, 13 48
\, 12 96 \, 13 49 \, 13 97 \, 12 98 \, 13 51 \, 12 99 \, 13 52 \, 13
101 \, 12 102 \, 13 54 \, 13 103 \, 12 104 \, 13 56 \, 12 106 \, 13
57 \, 12 107 \, 13 58 \, 12 109 \, 12 60 \, 13 61 \, 12 110 \, 12 62
\, 13 63 \, 12 111 \, 13 64 \, 12 112 \, 12 65 \, 13 66 \, 12 113 \,
13 67 \, 12 115 \, 12 69 \, 13 70 \, 12 116 \, 12 71 \, 13 72 \, 12
117 \, 13 73 \, 12 118 \, 12 75 \, 13 76 \, 12 119 \, 12 78 \, 13 80
\, 12 120 \, 12 81 \, 12 83 \, 13 84 \, 12 121 \, 12 85 \, 12 87 \,
12 88 \, 12 89 \, 12 91 \, 12 92 \, 12 93 \, 12 94 \, 12 96 \, 13 97
\, 12 120 \, 12 98 \, 12 99 \, 13 100 \, 12 119 \, 13 101 \, 12 118
\, 12 102 \, 13 103 \, 12 117 \, 13 105 \, 12 116 \, 13 106 \, 12 115
\, 13 107 \, 12 113 \, 13 108 \, 12 112 \, 13 109 \, 12 111 \, 13 110
\, 13 110 \, 13 109 \, 13 108 \, 12 107 \, 13 111 \, 13 105 \, 13 104
\, 13 102 \, 13 101 \, 13 99 \, 13 97 \, 13 96 \, 13 94 \, 13 93 \,
13 92 \, 13 91 \, 12 90 \, 13 110 \, 13 88 \, 13 87 \, 12 86 \, 13
109 \, 13 85 \, 13 84 \, 12 83 \, 13 108 \, 13 82 \, 13 81 \, 12 80
\, 13 107 \, 12 78 \, 13 106 \, 13 76 \, 13 75 \, 12 74 \, 13 105 \,
12 73 \, 13 104 \, 13 72 \, 12 71 \, 13 103 \, 13 69 \, 12 68 \, 13
102 \, 12 66 \, 13 101 \, 13 65 \, 12 64 \, 13 100 \, 12 62 \, 13 99
\, 12 61 \, 13 98 \, 13 60 \, 12 59 \, 13 96 \, 13 58 \, 12 57 \, 13
95 \, 13 56 \, 12 55 \, 13 94 \, 13 54 \, 12 53 \, 13 92 \, 12 52 \,
13 91 \, 12 50 \, 13 89 \, 13 48 \, 12 47 \, 13 88 \, 12 46 \, 13 86
\, 12 45 \, 13 84 \, 13 43 \, 12 42 \, 13 83 \, 12 40 \, 13 81 \, 12
39 \, 13 79 \, 12 38 \, 13 78 \, 12 36 \, 13 76 \, 12 35 \, 13 75 \,
12 34 \, 13 73 \, 12 33 \, 13 72 \, 12 31 \, 13 71 \, 12 30 \, 13 70
\, 12 29 \, 13 68 \, 12 28 \, 13 67 \, 12 27 \, 13 66 \, 12 26 \, 13
65 \, 12 24 \, 13 64 \, 12 23 \, 13 63 \, 12 22 \, 13 61 \, 12 20 \,
13 60 \, 12 19 \, 13 59 \, 12 17 \, 13 58 \, 12 16 \, 13 57 \, 13 14
\, 13 13 \, 13 12 \, 12 11 \, 13 56 \, 13 10 \, 13 8 \, 13 7 \, 13
6 \, 13 4 \, 12 3 \, 13 58 \, 13 2 \, 12 1 \, 13 59 \, 12 0 \, 12 60
\, 12 61 \, 12 63 \, 12 64 \, 12 66 \, 12 67 \, 12 68 \, 12 70 \, 12
71 \, 12 72 \, 12 74 \, 13 75 \, 12 2 \, 13 76 \, 12 3 \, 13 77 \,
12 4 \, 13 78 \, 12 5 \, 13 79 \,, f 116;
#X msg 60 15 set;
#X msg 296 144 add2 13 \$1;
#X obj 147 110 t b f;
#X msg 221 202 addcomma;
#X obj 264 111 t b f;
#X msg 179 145 add2 12 \$1;
#X obj 510 59 print val;
#X obj 596 58 print ctl;
#X connect 0 0 1 1;
#X connect 0 0 10 0;
#X connect 0 1 1 0;
#X connect 0 1 11 0;
#X connect 1 0 2 0;
#X connect 2 0 6 0;
#X connect 2 1 8 0;
#X connect 4 0 3 0;
#X connect 5 0 3 0;
#X connect 6 0 7 0;
#X connect 6 1 9 0;
#X connect 7 0 3 0;
#X connect 8 0 7 0;
#X connect 8 1 5 0;
#X connect 9 0 3 0;
