#N canvas 226 150 937 511 12;
#X obj 198 15 ctlin;
#X obj 197 54 pack 0 0;
#X obj 197 82 route 12 13;
#X msg 60 279 12 0 \, 12 0 \, 13 0 \, 12 0 \, 12 6 \, 13 6 \, 12 127
\, 12 5 \, 12 4 \, 12 5 \, 12 6 \, 12 0 \, 12 29 \, 13 29 \, 12 127
\, 12 28 \, 12 27 \, 12 0 \, 12 0 \, 13 0 \, 12 127 \, 12 1 \, 12 0
\, 12 0 \, 12 0 \, 13 0 \, 12 127 \, 12 1 \, 12 2 \, 12 3 \, 12 4 \,
12 6 \, 12 7 \, 12 8 \, 12 9 \, 12 10 \, 12 11 \, 12 12 \, 12 13 \,
12 14 \, 12 15 \, 12 16 \, 12 17 \, 12 18 \, 12 19 \, 12 20 \, 12 22
\, 12 23 \, 12 24 \, 12 25 \, 12 26 \, 12 27 \, 12 28 \, 12 29 \, 12
30 \, 12 31 \, 12 33 \, 12 34 \, 12 35 \, 12 36 \, 12 37 \, 12 38 \,
12 39 \, 12 40 \, 12 41 \, 12 42 \, 12 43 \, 12 44 \, 12 45 \, 12 46
\, 12 47 \, 12 48 \, 12 49 \, 12 50 \, 12 51 \, 12 52 \, 12 53 \, 12
54 \, 12 55 \, 12 56 \, 12 57 \, 12 58 \, 12 59 \, 12 60 \, 12 62 \,
12 63 \, 12 64 \, 12 65 \, 12 66 \, 12 67 \, 12 69 \, 12 70 \, 12 71
\, 12 72 \, 12 73 \, 12 74 \, 12 75 \, 12 77 \, 12 78 \, 12 79 \, 12
80 \, 12 81 \, 12 83 \, 12 84 \, 12 85 \, 12 86 \, 12 87 \, 12 88 \,
12 89 \, 12 91 \, 12 92 \, 12 93 \, 12 94 \, 12 95 \, 12 96 \, 12 97
\, 12 98 \, 12 99 \, 12 101 \, 12 102 \, 12 103 \, 12 104 \, 12 106
\, 12 107 \, 12 108 \, 12 109 \, 12 110 \, 12 111 \, 12 112 \, 12 113
\, 12 114 \, 12 115 \, 12 116 \, 12 117 \, 12 118 \, 12 119 \, 12 120
\, 12 121 \, 12 122 \, 12 124 \, 12 125 \, 12 126 \, 12 127 \, 12 126
\, 12 125 \, 12 123 \, 12 122 \, 12 121 \, 12 119 \, 12 118 \, 12 117
\, 12 116 \, 12 114 \, 12 113 \, 12 112 \, 12 111 \, 12 109 \, 12 108
\, 12 107 \, 12 106 \, 12 104 \, 12 103 \, 12 102 \, 12 100 \, 12 99
\, 12 98 \, 12 96 \, 12 95 \, 12 93 \, 12 92 \, 12 90 \, 12 89 \, 12
87 \, 12 86 \, 12 84 \, 12 83 \, 12 81 \, 12 79 \, 12 78 \, 12 76 \,
12 74 \, 12 73 \, 12 72 \, 12 70 \, 12 68 \, 12 67 \, 12 65 \, 12 64
\, 12 62 \, 12 61 \, 12 59 \, 12 58 \, 12 56 \, 12 55 \, 12 53 \, 12
52 \, 12 50 \, 12 48 \, 12 47 \, 12 45 \, 12 44 \, 12 42 \, 12 41 \,
12 39 \, 12 38 \, 12 36 \, 12 35 \, 12 33 \, 12 32 \, 12 30 \, 12 29
\, 12 28 \, 12 26 \, 12 25 \, 12 24 \, 12 22 \, 12 21 \, 12 20 \, 12
19 \, 12 17 \, 12 16 \, 12 15 \, 12 14 \, 12 13 \, 12 11 \, 12 10 \,
12 9 \, 12 8 \, 12 6 \, 12 5 \, 12 4 \, 12 3 \, 12 2 \, 12 0 \, 13
0 \, 12 127 \, 12 1 \, 12 2 \, 12 3 \, 12 4 \, 12 5 \, 12 6 \, 12 7
\, 12 8 \, 12 0 \, 13 7 \, 12 127 \, 12 6 \, 12 0 \, 13 7 \, 12 0 \,
13 7 \, 12 127 \, 12 6 \, 12 0 \, 12 0 \, 13 0 \, 12 127 \, 12 1 \,
12 2 \, 12 3 \, 12 4 \, 12 5 \, 12 7 \, 12 8 \, 12 9 \, 12 10 \, 12
12 \, 12 13 \, 12 14 \, 12 15 \, 12 16 \, 12 17 \, 12 18 \, 12 19 \,
12 20 \, 12 21 \, 12 20 \, 12 19 \, 12 18 \, 12 16 \, 12 15 \, 12 13
\, 12 12 \, 12 10 \, 12 9 \, 12 7 \, 12 6 \, 12 5 \, 12 4 \, 12 3 \,
12 2 \, 12 1 \, 12 0 \, 12 1 \, 12 2 \, 12 1 \, 12 2 \, 12 3 \, 12
4 \, 12 5 \, 12 6 \, 12 7 \, 12 0 \, 12 13 \, 13 13 \, 12 127 \, 12
12 \, 12 11 \, 12 10 \, 12 9 \, 12 8 \, 12 9 \, 12 8 \, 12 7 \, 12
6 \, 12 7 \, 12 8 \, 12 9 \, 12 10 \, 12 11 \, 12 12 \, 12 13 \, 12
14 \, 12 15 \, 12 16 \, 12 17 \, 12 18 \, 12 19 \, 12 20 \, 12 21 \,
12 22 \, 12 21 \, 12 20 \, 12 21 \, 12 22 \, 12 23 \, 12 24 \, 12 25
\, 12 26 \, 12 27 \, 12 28 \, 12 29 \, 12 28 \, 12 27 \, 12 26 \, 12
27 \, 12 0 \, 13 28 \, 12 127 \, 12 27 \, 12 28 \, 12 29 \, 12 30 \,
12 31 \, 12 32 \, 12 33 \, 12 34 \, 12 35 \, 12 36 \, 12 37 \, 12 36
\, 12 35 \, 12 36 \, 12 37 \, 12 38 \, 12 39 \, 12 40 \, 12 41 \, 12
42 \, 12 43 \, 12 44 \, 12 45 \, 12 46 \, 12 47 \, 12 48 \, 12 49 \,
12 50 \, 12 49 \, 12 50 \, 12 49 \, 12 50 \, 12 49 \, 12 0 \, 12 54
\, 13 54 \, 12 127 \, 12 53 \, 12 52 \, 12 53 \, 12 54 \, 12 55 \,
12 56 \, 12 57 \, 12 58 \, 12 59 \, 12 60 \, 12 61 \, 12 62 \, 12 63
\, 12 64 \, 12 65 \, 12 66 \, 12 67 \, 12 68 \, 12 70 \, 12 71 \, 12
72 \, 12 71 \, 12 70 \, 12 71 \, 12 0 \, 12 72 \, 13 72 \, 12 127 \,
12 73 \, 12 74 \, 12 76 \, 12 77 \, 12 78 \, 12 79 \, 12 80 \, 12 82
\, 12 83 \, 12 85 \, 12 86 \, 12 87 \, 12 88 \, 12 89 \, 12 90 \, 12
91 \, 12 92 \, 12 93 \, 12 92 \, 12 93 \, 12 94 \, 12 0 \, 12 96 \,
13 96 \, 12 127 \, 12 95 \, 12 96 \, 12 97 \, 12 98 \, 12 99 \, 12
100 \, 12 101 \, 12 102 \, 12 103 \, 12 104 \, 12 105 \, 12 106 \,
12 107 \, 12 108 \, 12 109 \, 12 110 \, 12 111 \, 12 112 \, 12 113
\, 12 114 \, 12 115 \, 12 114 \, 12 113 \, 12 112 \, 12 113 \, 12 114
\, 12 0 \, 12 115 \, 13 115 \, 12 127 \, 12 116 \, 12 117 \, 12 118
\, 12 119 \, 12 121 \, 12 122 \, 12 124 \, 12 125 \, 12 0 \, 13 127
\, 12 0 \, 13 127 \, 12 127 \, 12 126 \, 12 125 \, 12 124 \, 12 125
\, 12 126 \, 13 0 \, 12 127 \, 12 0 \, 13 0 \, 12 127 \, 12 1 \, 12
2 \, 12 3 \, 12 4 \, 12 5 \, 12 4 \, 12 5 \, 12 6 \, 12 5 \, 12 6 \,
12 5 \, 12 6 \, 12 7 \, 12 8 \, 12 9 \, 12 10 \, 12 11 \, 12 12 \,
12 13 \, 12 14 \, 12 15 \, 12 16 \, 12 17 \, 12 18 \, 12 19 \, 12 20
\, 12 21 \, 12 22 \, 12 23 \, 12 24 \, 12 25 \, 12 26 \, 12 27 \, 12
28 \, 12 29 \, 12 28 \, 12 29 \, 12 30 \, 12 31 \, 12 32 \, 12 33 \,
12 34 \, 12 35 \, 12 36 \, 12 38 \, 12 39 \, 12 41 \, 12 42 \, 12 43
\, 12 44 \, 12 45 \, 12 46 \, 12 47 \, 12 48 \, 12 49 \, 12 50 \, 12
51 \, 13 0 \, 12 57 \, 12 0 \, 13 0 \, 13 127 \, 13 58 \, 13 57 \,
13 56 \, 13 55 \, 12 54 \, 12 1 \, 12 2 \, 12 3 \, 12 4 \, 12 5 \,
12 6 \, 12 7 \, 12 8 \, 13 9 \, 12 53 \, 12 10 \, 12 11 \, 12 12 \,
12 13 \, 12 14 \, 12 15 \, 12 16 \, 12 17 \, 13 18 \, 12 52 \, 12 19
\, 12 20 \, 12 21 \, 12 22 \, 12 24 \, 12 25 \, 12 26 \, 12 27 \, 13
28 \, 12 51 \, 12 29 \, 12 30 \, 12 31 \, 12 32 \, 12 33 \, 12 34 \,
12 35 \, 12 36 \, 12 37 \, 12 38 \, 12 39 \, 12 40 \, 12 41 \, 12 42
\, 12 43 \, 12 44 \, 12 45 \, 12 46 \, 12 48 \, 12 49 \, 12 50 \, 12
51 \, 12 50 \, 13 51 \, 12 50 \, 12 52 \, 12 53 \, 12 55 \, 13 56 \,
12 51 \, 12 58 \, 12 59 \, 12 60 \, 12 61 \, 12 62 \, 12 63 \, 12 64
\, 12 65 \, 12 66 \, 12 67 \, 12 68 \, 12 69 \, 12 70 \, 12 71 \, 12
72 \, 13 71 \, 12 52 \, 13 72 \, 12 51 \, 13 73 \, 12 50 \, 12 74 \,
12 75 \, 12 76 \, 12 77 \, 12 78 \, 12 79 \, 13 81 \, 12 49 \, 12 82
\, 12 83 \, 12 84 \, 12 85 \, 12 86 \, 13 87 \, 12 48 \, 12 88 \, 12
89 \, 12 90 \, 12 91 \, 12 92 \, 12 93 \, 12 94 \, 13 93 \, 12 49 \,
13 94 \, 12 48 \, 12 95 \, 12 96 \, 12 97 \, 12 99 \, 12 100 \, 12
101 \, 12 102 \, 12 103 \, 12 104 \, 12 105 \, 12 106 \, 12 107 \,
12 108 \, 12 109 \, 12 110 \, 12 111 \, 12 112 \, 12 113 \, 12 114
\, 12 115 \, 12 116 \, 12 115 \, 13 116 \, 12 49 \, 12 115 \, 12 116
\, 13 115 \, 12 48 \, 13 114 \, 12 49 \, 12 113 \, 12 112 \, 12 113
\, 12 114 \, 12 115 \, 12 116 \, 12 115 \, 13 116 \, 12 48 \, 12 117
\, 12 118 \, 12 119 \, 12 120 \, 12 122 \, 13 123 \, 12 49 \, 12 125
\, 12 126 \, 13 127 \, 13 50 \, 13 51 \, 13 52 \, 13 51 \, 13 50 \,
13 49 \, 13 48 \, 13 46 \,, f 116;
#X msg 60 15 set;
#X msg 296 144 add2 13 \$1;
#X obj 147 110 t b f;
#X msg 221 202 addcomma;
#X obj 264 111 t b f;
#X msg 179 145 add2 12 \$1;
#X obj 538 182 print --get;
#X obj 510 59 route val;
#X obj 596 58 route ctl;
#X connect 0 0 1 1;
#X connect 0 0 11 0;
#X connect 0 1 1 0;
#X connect 0 1 12 0;
#X connect 1 0 2 0;
#X connect 2 0 6 0;
#X connect 2 1 8 0;
#X connect 2 1 10 0;
#X connect 4 0 3 0;
#X connect 5 0 3 0;
#X connect 6 0 7 0;
#X connect 6 1 9 0;
#X connect 7 0 3 0;
#X connect 8 0 7 0;
#X connect 8 1 5 0;
#X connect 9 0 3 0;
