#N canvas 939 480 560 423 12;
#X obj 368 13 r kp3-ctl-#;
#X obj 35 13 notein;
#X obj 176 13 ctlin;
#X obj 158 63 ==;
#X obj 294 63 ==;
#X obj 35 316 s launch;
#X obj 245 316 s latch;
#X obj 105 126 == 100;
#X obj 35 165 spigot;
#X obj 241 91 spigot 0;
#X obj 176 91 spigot 0;
#X obj 35 91 spigot 0;
#X obj 105 91 spigot 0;
#X obj 35 227 - 35;
#X obj 245 269 pack 0 0;
#X obj 176 165 swap;
#X obj 245 227 moses 57;
#X obj 176 227 moses 49;
#X connect 0 0 3 1;
#X connect 0 0 4 1;
#X connect 1 0 11 0;
#X connect 1 1 12 0;
#X connect 1 2 3 0;
#X connect 2 0 10 0;
#X connect 2 1 9 0;
#X connect 2 2 4 0;
#X connect 3 0 11 1;
#X connect 3 0 12 1;
#X connect 4 0 9 1;
#X connect 4 0 10 1;
#X connect 7 0 8 1;
#X connect 8 0 13 0;
#X connect 9 0 15 1;
#X connect 10 0 15 0;
#X connect 11 0 8 0;
#X connect 12 0 7 0;
#X connect 13 0 5 0;
#X connect 14 0 6 0;
#X connect 15 0 17 0;
#X connect 15 1 14 1;
#X connect 16 0 14 0;
#X connect 17 1 16 0;
