#N canvas 278 154 1008 671 12;
#X obj 181 492 pos;
#X obj 56 492 pos;
#X obj 181 616 ctlout 13;
#X obj 56 616 ctlout 12;
#X obj 319 28 inlet;
#X obj 189 28 inlet;
#X obj 56 28 inlet;
#X text 99 27 tick;
#X text 239 27 on/off;
#X obj 264 267 + 1;
#X obj 643 28 loadbang;
#X msg 712 159 resize 30;
#X obj 725 187 array define -k -yrange 0 8 \$0-x;
#A 0 4 5 6 7 8 8 7 6 5 5 0 0 0 0 0 0 0 0 0 0 0 0 0 0 0 0 0 0 0 0;
#X obj 319 62 unpack 0 0;
#X obj 712 212 array define -k -yrange 0 8 \$0-y;
#A 0 4 5 5 6 7 8 8 7 6 5 0 0 0 0 0 0 0 0 0 0 0 0 0 0 0 0 0 0 0 0;
#X msg 319 297 4 5 6 7 8 8 7 6 5 5;
#X msg 379 251 add2 \$1;
#X msg 445 344 4 5 5 6 7 8 8 7 6 5;
#X msg 386 218 add2 \$1;
#X msg 643 124 set;
#X obj 319 152 select -1;
#X obj 445 418 array set \$0-y;
#X obj 319 418 array set \$0-x;
#X obj 386 95 t f b;
#X obj 100 152 + 1;
#X obj 224 267 f 0;
#X obj 56 152 f 0;
#X obj 56 418 tabread \$0-x;
#X obj 181 418 tabread \$0-y;
#X obj 452 28 r kp3-#;
#X obj 56 62 spigot 0;
#X obj 206 297 !=;
#X msg 242 188 0;
#X obj 299 616 outlet;
#X text 376 27 moves;
#X msg 74 124 0;
#X msg 678 124 const 0;
#X obj 643 62 t b b b;
#X obj 74 95 sel 0;
#X text 351 615 done (to carry one client should turn spigot back on)
;
#X connect 0 0 2 0;
#X connect 1 0 3 0;
#X connect 4 0 13 0;
#X connect 5 0 30 1;
#X connect 6 0 30 0;
#X connect 9 0 25 1;
#X connect 10 0 37 0;
#X connect 11 0 12 0;
#X connect 11 0 14 0;
#X connect 13 0 20 0;
#X connect 13 1 23 0;
#X connect 15 0 22 0;
#X connect 16 0 15 0;
#X connect 17 0 21 0;
#X connect 18 0 17 0;
#X connect 19 0 17 0;
#X connect 19 0 15 0;
#X connect 20 0 17 0;
#X connect 20 0 15 0;
#X connect 20 0 32 0;
#X connect 20 1 16 0;
#X connect 23 0 18 0;
#X connect 23 1 25 0;
#X connect 24 0 26 1;
#X connect 25 0 9 0;
#X connect 25 0 31 1;
#X connect 26 0 24 0;
#X connect 26 0 31 0;
#X connect 26 0 27 0;
#X connect 26 0 28 0;
#X connect 27 0 1 0;
#X connect 28 0 0 0;
#X connect 29 0 2 2;
#X connect 29 0 3 2;
#X connect 30 0 26 0;
#X connect 31 0 33 0;
#X connect 31 0 38 0;
#X connect 32 0 25 1;
#X connect 35 0 26 1;
#X connect 36 0 12 0;
#X connect 36 0 14 0;
#X connect 37 0 19 0;
#X connect 37 1 36 0;
#X connect 37 2 11 0;
#X connect 38 0 35 0;
