#N canvas 55 637 235 207 12;
#X obj 97 14 r kp3-#;
#X obj 37 14 inlet;
#X obj 37 113 ctlout 92;
#X msg 37 78 127;
#X obj 37 46 t b b;
#X connect 0 0 2 2;
#X connect 1 0 4 0;
#X connect 3 0 2 0;
#X connect 4 0 3 0;
#X connect 4 1 3 0;
