#N canvas 795 388 417 279 10;
#X obj 84 190 ctlout;
#X obj 155 190 pgmout;
#X obj 57 14 inlet;
#X obj 236 14 loadbang;
#X text 196 189 program;
#X text 103 13 bank \, program;
#X obj 57 47 unpack 0 0;
#X obj 99 121 f;
#X obj 57 71 t b f;
#X text 25 192 lsb/bank;
#X msg 236 47 32;
#X obj 315 14 r kp3-#;
#X connect 2 0 6 0;
#X connect 3 0 10 0;
#X connect 6 0 8 0;
#X connect 6 1 7 1;
#X connect 7 0 1 0;
#X connect 8 0 7 0;
#X connect 8 1 0 0;
#X connect 10 0 0 1;
#X connect 11 0 0 2;
#X connect 11 0 1 1;
