#N canvas 675 194 586 333 12;
#X obj 295 123 ../common/num-range-walker;
#X obj 295 158 pos;
#X obj 212 20 inlet;
#X obj 474 20 inlet;
#X text 257 19 x;
#X text 522 19 y;
#X obj 33 123 ../common/num-range-walker;
#X obj 33 158 pos;
#X obj 354 20 r kp3-#;
#X obj 295 231 ctlout 13;
#X obj 33 65 t b b;
#X obj 33 231 ctlout 12;
#X obj 33 20 inlet;
#X text 78 19 tick;
#X connect 0 0 1 0;
#X connect 1 0 9 0;
#X connect 2 0 6 1;
#X connect 3 0 0 1;
#X connect 6 0 7 0;
#X connect 7 0 11 0;
#X connect 8 0 9 2;
#X connect 8 0 11 2;
#X connect 10 0 6 0;
#X connect 10 1 0 0;
#X connect 12 0 10 0;
