#N canvas 9 353 423 365 12;
#X obj 182 13 r kp3-#;
#X obj 48 15 inlet;
#X obj 48 154 pos;
#X obj 104 154 pos;
#X obj 45 98 unpack 0 0;
#X obj 48 194 ctlout 12;
#X obj 122 194 ctlout 13;
#X connect 0 0 5 2;
#X connect 0 0 6 2;
#X connect 1 0 4 0;
#X connect 2 0 5 0;
#X connect 3 0 6 0;
#X connect 4 0 2 0;
#X connect 4 1 3 0;
