#N canvas 675 404 826 404 12;
#X obj 232 29 loadbang;
#X obj 311 29 r kp3-#;
#X obj 48 15 inlet;
#X msg 287 81 92 0;
#X obj 105 195 ctlout;
#X obj 106 149 unpack 0 0;
#X obj 100 31 bng 15 250 50 0 empty empty empty 17 7 0 10 -262144 -1
-1;
#X msg 190 79 92 127;
#X obj 97 49 t b b b b;
#X obj 466 41 bng 15 250 50 0 empty empty empty 17 7 0 10 -262144 -1
-1;
#X msg 556 89 92 127;
#X obj 463 59 t b b b b;
#X msg 403 116 13 22;
#X msg 455 151 12 22;
#X msg 59 86 13 100;
#X msg 138 111 12 100;
#X msg 243 162 13 0;
#X connect 1 0 4 2;
#X connect 3 0 5 0;
#X connect 5 0 4 1;
#X connect 5 1 4 0;
#X connect 6 0 8 0;
#X connect 7 0 5 0;
#X connect 8 0 14 0;
#X connect 8 1 15 0;
#X connect 9 0 11 0;
#X connect 10 0 5 0;
#X connect 11 0 12 0;
#X connect 11 1 13 0;
#X connect 12 0 5 0;
#X connect 13 0 5 0;
#X connect 14 0 5 0;
#X connect 15 0 5 0;
#X connect 16 0 5 0;
