#N canvas 9 476 304 154 12;
#X obj 182 13 r kp3-#;
#X obj 48 15 inlet;
#X obj 48 40 route 13 12;
#X obj 48 73 ctlout 13;
#X obj 122 73 ctlout 12;
#X connect 0 0 3 2;
#X connect 0 0 4 2;
#X connect 1 0 2 0;
#X connect 2 0 3 0;
#X connect 2 1 4 0;
