#N canvas 255 274 1155 513 12;
#X obj 389 482 midiout;
#X obj 569 22 r reset;
#X msg 389 372 240 82 0 97 80 247;
#X obj 31 482 pgmout;
#X obj 435 22 r zoom-port-#;
#X obj 70 22 r zoom-#;
#X obj 31 22 inlet;
#X text 36 43 patch 1-50;
#X text 412 395 start listening;
#X obj 150 22 inlet;
#X obj 702 22 inlet;
#X obj 1011 22 inlet;
#X text 1060 21 knob value;
#X msg 715 315;
#X obj 702 65 unpack 0 0;
#X msg 734 168 add2 \$1;
#X obj 769 101 t f b;
#X obj 702 215 f;
#X obj 702 133 t b f;
#X msg 702 245 add2 \$1;
#X msg 801 133 set set 240 82 0 97 49;
#X msg 1034 344 add2 \$1 0 247;
#X msg 715 389;
#X msg 647 133 set;
#X obj 569 65 t b b;
#X obj 1011 65 t b f b;
#X text 754 21 effect (start right-0) \, knob (start left02), f 24
;
#X obj 259 22 inlet;
#X msg 150 67 240 82 0 97 49 \$1 0 1 0 247;
#X msg 259 94 240 82 0 97 49 \$1 0 0 0 247;
#X text 271 43 effect # off;
#X text 158 43 effect # on;
#X connect 1 0 24 0;
#X connect 2 0 0 0;
#X connect 4 0 0 1;
#X connect 5 0 3 1;
#X connect 6 0 3 0;
#X connect 9 0 28 0;
#X connect 10 0 14 0;
#X connect 11 0 25 0;
#X connect 13 0 22 0;
#X connect 14 0 18 0;
#X connect 14 1 16 0;
#X connect 15 0 13 0;
#X connect 16 0 17 1;
#X connect 16 1 20 0;
#X connect 17 0 19 0;
#X connect 18 0 17 0;
#X connect 18 1 15 0;
#X connect 19 0 13 0;
#X connect 20 0 13 0;
#X connect 21 0 22 0;
#X connect 22 0 0 0;
#X connect 23 0 13 0;
#X connect 23 0 22 0;
#X connect 24 0 2 0;
#X connect 24 1 23 0;
#X connect 25 0 22 0;
#X connect 25 1 21 0;
#X connect 25 2 13 0;
#X connect 27 0 29 0;
#X connect 28 0 0 0;
#X connect 29 0 0 0;
