#N canvas 255 274 652 527 12;
#X obj 420 460 midiout;
#X obj 466 12 r port-4-#;
#X msg 45 323 240 82 0 97 49 \$1 \$2 \$3 0 247;
#X obj 193 12 inlet;
#X text 200 35 effect - 0 right \, knob - 2 left;
#X obj 193 83 unpack 0 0;
#X obj 175 143 f;
#X obj 242 143 f;
#X obj 45 12 inlet;
#X text 56 35 knob val;
#X msg 62 234 set \$1;
#X msg 131 234 add2 \$1;
#X msg 208 234 add2 \$1;
#X msg 45 280 1 3 6;
#X obj 45 83 t b f b b;
#X connect 1 0 0 1;
#X connect 2 0 0 0;
#X connect 3 0 5 0;
#X connect 5 0 6 1;
#X connect 5 1 7 1;
#X connect 6 0 10 0;
#X connect 7 0 11 0;
#X connect 8 0 14 0;
#X connect 10 0 13 0;
#X connect 11 0 13 0;
#X connect 12 0 13 0;
#X connect 13 0 2 0;
#X connect 14 0 13 0;
#X connect 14 1 12 0;
#X connect 14 2 7 0;
#X connect 14 3 6 0;
