#N canvas 4 293 1155 513 12;
#X obj 389 471 midiout;
#X obj 569 22 r reset;
#X msg 389 372 240 82 0 97 80 247;
#X obj 31 482 pgmout;
#X obj 435 22 r zoom-port-#;
#X obj 70 22 r zoom-#;
#X msg 196 129 240 82 0 97 49 0 0 1 0 247;
#X msg 228 275 240 82 0 97 49 0 0 0 0 247;
#X obj 31 22 inlet;
#X text 36 47 patch 1-50;
#X text 412 395 start listening;
#X obj 150 22 inlet;
#X text 207 21 patch on(1) off(0);
#X obj 150 65 sel 1;
#X obj 702 22 inlet;
#X obj 1011 22 inlet;
#X text 1060 21 knob value;
#X msg 715 315 set 240 82 0 97 49 2 2;
#X obj 702 65 unpack 0 0;
#X msg 734 168 add2 \$1;
#X obj 769 101 t f b;
#X obj 702 215 f;
#X obj 702 133 t b f;
#X msg 702 245 add2 \$1;
#X msg 801 133 set set 240 82 0 97 49;
#X msg 1034 344 add2 \$1 0 247;
#X msg 715 389 240 82 0 97 49 2 2 4 0 247;
#X msg 647 133 set;
#X obj 569 65 t b b;
#X obj 1011 65 t b f b;
#X obj 150 101 t b b b;
#X obj 182 247 t b b b;
#X msg 173 155 240 82 0 97 49 1 0 1 0 247;
#X msg 205 300 240 82 0 97 49 1 0 0 0 247;
#X msg 182 325 240 82 0 97 49 2 0 0 0 247;
#X msg 150 181 240 82 0 97 49 2 0 1 0 247;
#X text 754 21 effect (start right-0) \, knob (start left02), f 24
;
#X connect 1 0 28 0;
#X connect 2 0 0 0;
#X connect 4 0 0 1;
#X connect 5 0 3 1;
#X connect 6 0 0 0;
#X connect 7 0 0 0;
#X connect 8 0 3 0;
#X connect 11 0 13 0;
#X connect 13 0 30 0;
#X connect 13 1 31 0;
#X connect 14 0 18 0;
#X connect 15 0 29 0;
#X connect 17 0 26 0;
#X connect 18 0 22 0;
#X connect 18 1 20 0;
#X connect 19 0 17 0;
#X connect 20 0 21 1;
#X connect 20 1 24 0;
#X connect 21 0 23 0;
#X connect 22 0 21 0;
#X connect 22 1 19 0;
#X connect 23 0 17 0;
#X connect 24 0 17 0;
#X connect 25 0 26 0;
#X connect 26 0 0 0;
#X connect 27 0 17 0;
#X connect 27 0 26 0;
#X connect 28 0 2 0;
#X connect 28 1 27 0;
#X connect 29 0 26 0;
#X connect 29 1 25 0;
#X connect 29 2 17 0;
#X connect 30 0 35 0;
#X connect 30 1 32 0;
#X connect 30 2 6 0;
#X connect 31 0 34 0;
#X connect 31 1 33 0;
#X connect 31 2 7 0;
#X connect 32 0 0 0;
#X connect 33 0 0 0;
#X connect 34 0 0 0;
#X connect 35 0 0 0;
