#N canvas 255 274 502 232 12;
#X obj 33 185 midiout;
#X obj 33 10 inlet;
#X obj 142 10 inlet;
#X msg 33 55 240 82 0 97 49 \$1 0 1 0 247;
#X msg 142 82 240 82 0 97 49 \$1 0 0 0 247;
#X text 154 31 effect # off;
#X text 41 31 effect # on;
#X obj 318 10 r port-4-#;
#X connect 1 0 3 0;
#X connect 2 0 4 0;
#X connect 3 0 0 0;
#X connect 4 0 0 0;
#X connect 7 0 0 1;
