#N canvas 203 182 317 619 12;
#X obj 132 13 r amb-1-#;
#X obj 94 546 ctlout;
#X obj 94 482 unpack 0 0;
#X obj 15 63 t b b b b;
#X msg 15 100 81 36;
#X msg 35 124 83 0;
#X obj 101 244 t b b b b;
#X msg 101 281 81 0;
#X msg 121 305 83 40;
#X msg 139 330 78 34;
#X msg 161 358 80 83;
#X msg 53 149 78 0;
#X msg 75 177 80 0;
#X obj 94 513 swap;
#X obj 15 13 inlet;
#X obj 15 38 select 1 0;
#X connect 0 0 1 2;
#X connect 2 0 13 0;
#X connect 2 1 13 1;
#X connect 3 0 4 0;
#X connect 3 1 5 0;
#X connect 3 2 11 0;
#X connect 3 3 12 0;
#X connect 4 0 2 0;
#X connect 5 0 2 0;
#X connect 6 0 7 0;
#X connect 6 1 8 0;
#X connect 6 2 9 0;
#X connect 6 3 10 0;
#X connect 7 0 2 0;
#X connect 8 0 2 0;
#X connect 9 0 2 0;
#X connect 10 0 2 0;
#X connect 11 0 2 0;
#X connect 12 0 2 0;
#X connect 13 0 1 0;
#X connect 13 1 1 1;
#X connect 14 0 15 0;
#X connect 15 0 3 0;
#X connect 15 1 6 0;
