#N canvas 26 61 450 300 12;
#X obj 41 12 inlet;
#X obj 201 252 noteout;
#X obj 41 47 ../common/step-seq-sel-3 \$0;
#X obj 282 12 r m2s-#;
#X obj 368 12 r tr-m1-#;
#X obj 166 196 ../common/midi-in;
#X obj 282 252 midiout;
#X connect 0 0 2 0;
#X connect 2 4 5 0;
#X connect 3 0 5 1;
#X connect 3 0 6 1;
#X connect 4 0 1 2;
#X connect 5 0 1 0;
#X connect 5 1 1 1;
#X connect 5 2 6 0;
