#N canvas 202 283 822 453 12;
#X obj 24 13 inlet;
#X text 64 12 reset;
#X msg 110 75 60;
#X msg 24 75 1;
#X obj 196 75 r tr-d-#;
#X obj 138 266 r smpl-pc-#;
#X obj 108 357 pgmout;
#X obj 99 227 spigot;
#X msg 157 199 1;
#X msg 120 199 0;
#X obj 24 40 t b b b;
#X obj 67 163 t b b;
#X obj 99 264 f 1;
#X obj 150 13 inlet;
#X text 192 12 scene;
#X obj 24 100 ../controller/note-filter;
#X msg 308 204 1;
#X obj 368 119 midirealtimein;
#X obj 371 159 sel 250;
#X obj 339 182 delay 0;
#X msg 588 181 250;
#X obj 589 269 midiout;
#X obj 67 133 sel 8;
#X msg 708 164 5;
#X obj 584 144 delay 0;
#X connect 0 0 10 0;
#X connect 2 0 15 1;
#X connect 3 0 15 0;
#X connect 4 0 15 2;
#X connect 5 0 6 1;
#X connect 7 0 12 0;
#X connect 7 0 24 0;
#X connect 8 0 7 1;
#X connect 9 0 7 1;
#X connect 10 0 3 0;
#X connect 10 1 2 0;
#X connect 10 2 8 0;
#X connect 11 0 9 0;
#X connect 11 1 7 0;
#X connect 13 0 12 1;
#X connect 15 1 22 0;
#X connect 17 0 18 0;
#X connect 18 0 19 0;
#X connect 19 0 16 0;
#X connect 20 0 21 0;
#X connect 22 0 11 0;
#X connect 23 0 21 1;
#X connect 24 0 20 0;
