#N canvas 77 296 993 686 12;
#X msg 237 117 1;
#X obj 41 12 inlet;
#X obj 41 47 ../../../common/step-seq-sel-3 \$0;
#X obj 101 117 t b b b b b b b b;
#X obj 116 80 t b b;
#X obj 163 80 t b b;
#X msg 278 117 0;
#X obj 361 212 r model-1-#;
#X msg 446 212 13 13 33;
#X obj 41 80 t b b b b;
#X msg 237 148 \$1;
#X obj 225 184 t b b;
#X msg 451 310 13 13 38;
#X obj 379 310 r amb-1-#;
#X obj 241 282 t b b;
#X obj 225 245 ../../../controller/latch-enc-xlate;
#X obj 241 337 ../../../controller/latch-enc-xlate;
#X obj 274 212 r apc-ctl-#;
#X obj 291 310 r apc-ctl-#;
#X msg 225 212 48 80;
#X msg 241 310 49 83;
#X connect 0 0 10 0;
#X connect 1 0 2 0;
#X connect 2 0 9 0;
#X connect 2 1 4 0;
#X connect 2 2 5 0;
#X connect 3 0 11 0;
#X connect 3 4 14 0;
#X connect 4 1 0 0;
#X connect 5 1 6 0;
#X connect 6 0 10 0;
#X connect 7 0 15 3;
#X connect 8 0 15 4;
#X connect 9 3 3 0;
#X connect 10 0 15 0;
#X connect 10 0 16 0;
#X connect 11 0 19 0;
#X connect 11 1 8 0;
#X connect 12 0 16 4;
#X connect 13 0 16 3;
#X connect 14 0 20 0;
#X connect 14 1 12 0;
#X connect 17 0 15 2;
#X connect 18 0 16 2;
#X connect 19 0 15 1;
#X connect 20 0 16 1;
