#N canvas 69 768 450 300 12;
#X obj 41 12 inlet;
#X obj 41 47 ../../../common/step-seq-sel-3 \$0;
#X obj 124 209 ../../../common/note-in;
#X obj 259 251 noteout;
#X obj 282 12 r apc-key-#;
#X obj 368 12 r tr-s1-#;
#X connect 0 0 1 0;
#X connect 1 4 2 0;
#X connect 2 0 3 0;
#X connect 2 1 3 1;
#X connect 4 0 2 1;
#X connect 5 0 3 2;
