#N canvas 675 288 450 300 12;
#X obj 107 18 r tr08-out-#;
#X obj 68 225 ctlout;
#X obj 16 18 inlet;
#X obj 68 174 t b b;
#X msg 100 197 56;
#X msg 68 197 14;
#X text 66 245 rs decay;
#X obj 145 225 ctlout;
#X obj 145 174 t b b;
#X text 143 245 rs decay;
#X msg 176 196 55;
#X msg 145 197 0;
#X obj 16 46 t b b;
#X obj 107 46 t f f;
#X connect 0 0 13 0;
#X connect 2 0 12 0;
#X connect 3 0 5 0;
#X connect 3 1 4 0;
#X connect 4 0 1 1;
#X connect 5 0 1 0;
#X connect 8 0 11 0;
#X connect 8 1 10 0;
#X connect 10 0 7 1;
#X connect 11 0 7 0;
#X connect 12 0 3 0;
#X connect 12 1 8 0;
#X connect 13 0 1 2;
#X connect 13 1 7 2;
