#N canvas 135 137 359 222 10;
#X obj 21 18 inlet;
#X obj 21 49 unpack 0 0 0;
#X obj 258 17 r sample-#;
#X obj 55 83 * 10;
#X obj 6 109 +;
#X obj 90 171 ctlout;
#X text 65 17 part \, parameter \, value;
#X connect 0 0 1 0;
#X connect 1 0 4 1;
#X connect 1 1 3 0;
#X connect 1 2 5 0;
#X connect 2 0 5 2;
#X connect 3 0 4 0;
#X connect 4 0 5 1;
