#N canvas 135 137 1447 857 10;
#X obj 173 220 noteout;
#X msg 166 81 0;
#X obj 186 27 bng 15 250 50 0 empty empty empty 17 7 0 10 -262144 -1
-1;
#X msg 202 83 1;
#X msg 129 77 4;
#X obj 166 139 makenote 1 10;
#X msg 49 82 9;
#X msg 74 160 10;
#X obj 130 296 inlet;
#X obj 130 327 unpack 0 0 0;
#X obj 986 516 ctlout 99;
#X obj 901 516 ctlout 98;
#X text 964 515 msb;
#X text 879 515 lsb;
#X obj 1243 572 ctlout 6;
#X msg 986 487 3;
#X obj 902 453 * 32;
#X obj 887 487 +;
#X obj 718 328 inlet;
#X text 1197 571 setting;
#X obj 986 453 bang;
#X obj 718 554 ../tools/metro-mult;
#X obj 902 430 mod;
#X obj 718 395 pack 0 0 0;
#X obj 718 359 unpack 0 0 0 0 0;
#X obj 1002 328 r ea-1-#;
#X obj 538 53 r sample-#;
#X obj 402 603 * 10;
#X floatatom 434 688 5 0 0 0 - - -;
#X obj 436 641 +;
#X floatatom 512 500 5 0 0 0 - - -;
#X obj 433 763 ctlout;
#X msg 51 119 2;
#X msg 432 500 2;
#X msg 472 500 6;
#X text 174 295 part \, parameter \, value;
#X text 715 284 step sequence[duration_beats \, start \, end] \, part
\, parameter \, value;
#X connect 1 0 5 0;
#X connect 2 0 1 0;
#X connect 2 0 3 0;
#X connect 2 0 4 0;
#X connect 3 0 5 0;
#X connect 4 0 5 0;
#X connect 5 0 0 0;
#X connect 5 1 0 1;
#X connect 6 0 5 0;
#X connect 7 0 5 0;
#X connect 8 0 9 0;
#X connect 9 0 29 1;
#X connect 9 1 27 0;
#X connect 9 2 31 1;
#X connect 15 0 10 0;
#X connect 16 0 17 1;
#X connect 17 0 11 0;
#X connect 17 0 20 0;
#X connect 18 0 24 0;
#X connect 20 0 15 0;
#X connect 21 0 14 0;
#X connect 22 0 16 0;
#X connect 23 0 21 0;
#X connect 24 0 23 0;
#X connect 24 1 23 1;
#X connect 24 2 23 2;
#X connect 24 3 17 0;
#X connect 24 4 11 2;
#X connect 24 4 22 0;
#X connect 24 4 14 2;
#X connect 24 4 10 2;
#X connect 25 0 22 1;
#X connect 26 0 0 2;
#X connect 26 0 31 2;
#X connect 27 0 29 0;
#X connect 29 0 28 0;
#X connect 29 0 31 1;
#X connect 30 0 31 0;
#X connect 32 0 5 0;
#X connect 33 0 29 1;
#X connect 34 0 27 0;
