#N canvas 660 367 741 559 12;
#X obj 280 10 inlet;
#X text 283 32 in #;
#X obj 476 10 inlet;
#X text 482 32 out #;
#X obj 194 10 inlet;
#X text 198 32 in note;
#X obj 325 10 inlet;
#X text 329 32 out pos;
#X obj 580 459 ctlout;
#X obj 580 431 unpack 0 0;
#X obj 262 459 ctlout;
#X obj 262 431 unpack 0 0;
#X text 587 367 decay short;
#X text 225 367 decay long;
#X text 325 409 start pos;
#X obj 95 459 noteout;
#X msg 262 388 127 80;
#X obj 108 117 ../controller/note-filter;
#X msg 325 388 \$1 19;
#X obj 108 10 inlet;
#X text 111 32 spigot;
#X msg 95 388 60;
#X obj 133 388 f;
#X obj 325 318 * 12;
#X obj 307 349 f;
#X msg 580 388 10 80;
#X obj 460 459 noteout;
#X msg 460 388 60;
#X msg 495 388 0;
#X obj 376 225 t b b b;
#X msg 377 388 0 19;
#X obj 307 292 spigot 0;
#X obj 325 163 t f f;
#X obj 222 225 t b b b b;
#X obj 387 10 loadbang;
#X connect 0 0 17 2;
#X connect 2 0 8 2;
#X connect 2 0 10 2;
#X connect 2 0 15 2;
#X connect 2 0 26 2;
#X connect 4 0 17 1;
#X connect 6 0 32 0;
#X connect 9 0 8 0;
#X connect 9 1 8 1;
#X connect 11 0 10 0;
#X connect 11 1 10 1;
#X connect 16 0 11 0;
#X connect 17 0 22 1;
#X connect 17 2 33 0;
#X connect 17 3 29 0;
#X connect 18 0 11 0;
#X connect 19 0 17 0;
#X connect 21 0 15 0;
#X connect 22 0 15 1;
#X connect 23 0 24 1;
#X connect 24 0 18 0;
#X connect 25 0 9 0;
#X connect 27 0 26 0;
#X connect 28 0 26 1;
#X connect 29 0 25 0;
#X connect 29 1 27 0;
#X connect 29 2 28 0;
#X connect 30 0 11 0;
#X connect 31 0 24 0;
#X connect 32 0 23 0;
#X connect 32 1 31 1;
#X connect 33 0 21 0;
#X connect 33 1 22 0;
#X connect 33 2 16 0;
#X connect 33 3 31 0;
#X connect 34 0 30 0;
