#N canvas 819 217 406 241 12;
#X obj 141 15 inlet;
#X obj 33 15 inlet;
#X obj 251 15 inlet;
#X text 37 34 spigot;
#X text 251 34 ch-in;
#X obj 308 15 inlet;
#X text 308 34 ch-out;
#X obj 33 188 ctlout;
#X text 142 34 ctl in/out;
#X obj 141 57 unpack 0 0;
#X obj 33 102 ../controller/cc-filter;
#X obj 33 131 - 1;
#X obj 33 155 abs;
#X connect 0 0 9 0;
#X connect 1 0 10 0;
#X connect 2 0 10 2;
#X connect 5 0 7 2;
#X connect 9 0 10 1;
#X connect 9 1 7 1;
#X connect 10 0 11 0;
#X connect 11 0 12 0;
#X connect 12 0 7 0;
