#N canvas 334 384 947 274 12;
#X obj 69 205 ctlout;
#X obj 108 179 r model-1-#;
#X msg 69 79 127;
#X obj 69 104 t f f f f f f;
#X obj 186 104 t f f f f f f;
#X msg 186 79 80;
#X obj 69 51 t b b;
#X obj 196 205 ctlout;
#X obj 322 205 ctlout;
#X obj 453 205 ctlout;
#X obj 581 205 ctlout;
#X obj 709 205 ctlout;
#X obj 69 10 inlet;
#X obj 235 179 r model-2-#;
#X obj 361 179 r model-3-#;
#X obj 492 179 r model-4-#;
#X obj 620 179 r model-5-#;
#X obj 748 179 r model-6-#;
#X connect 1 0 0 2;
#X connect 2 0 3 0;
#X connect 3 0 0 0;
#X connect 3 1 7 0;
#X connect 3 2 8 0;
#X connect 3 3 9 0;
#X connect 3 4 10 0;
#X connect 3 5 11 0;
#X connect 4 0 0 1;
#X connect 4 1 7 1;
#X connect 4 2 8 1;
#X connect 4 3 9 1;
#X connect 4 4 10 1;
#X connect 4 5 11 1;
#X connect 5 0 4 0;
#X connect 6 0 2 0;
#X connect 6 1 5 0;
#X connect 12 0 6 0;
#X connect 13 0 7 2;
#X connect 14 0 8 2;
#X connect 15 0 9 2;
#X connect 16 0 10 2;
#X connect 17 0 11 2;
