#N canvas 825 65 688 400 12;
#X obj 89 148 r beat-#;
#X obj 115 242 r model-1-#;
#X msg 62 122 21 95;
#X obj 36 273 ../controller/rel-enc-xlate;
#X obj 36 19 inlet;
#X text 84 18 spiggot;
#X obj 168 19 inlet;
#X text 213 18 arm;
#X obj 243 273 ../controller/rel-enc-xlate;
#X obj 459 273 ../controller/rel-enc-xlate;
#X obj 33 342 ../controller/rel-enc-xlate;
#X obj 255 342 ../controller/rel-enc-xlate;
#X obj 467 342 ../controller/rel-enc-xlate;
#X obj 322 242 r model-2-#;
#X obj 538 242 r model-3-#;
#X obj 112 311 r model-4-#;
#X obj 334 311 r model-5-#;
#X obj 546 311 r model-6-#;
#X obj 299 19 inlet;
#X text 345 18 vol start \, low \, high;
#X connect 0 0 3 2;
#X connect 0 0 8 2;
#X connect 0 0 9 2;
#X connect 0 0 10 2;
#X connect 0 0 11 2;
#X connect 0 0 12 2;
#X connect 1 0 3 3;
#X connect 2 0 3 1;
#X connect 2 0 8 1;
#X connect 2 0 9 1;
#X connect 2 0 10 1;
#X connect 2 0 11 1;
#X connect 2 0 12 1;
#X connect 4 0 3 0;
#X connect 4 0 8 0;
#X connect 4 0 9 0;
#X connect 4 0 10 0;
#X connect 4 0 11 0;
#X connect 4 0 12 0;
#X connect 6 0 2 0;
#X connect 13 0 8 3;
#X connect 14 0 9 3;
#X connect 15 0 10 3;
#X connect 16 0 11 3;
#X connect 17 0 12 3;
#X connect 18 0 3 4;
#X connect 18 0 8 4;
#X connect 18 0 9 4;
#X connect 18 0 10 4;
#X connect 18 0 11 4;
#X connect 18 0 12 4;
