#N canvas 266 151 339 153 12;
#X obj 36 18 inlet;
#X obj 187 19 r ea-2-#;
#X obj 164 98 noteout;
#X obj 36 59 ../../../common/looper;
#X connect 0 0 3 0;
#X connect 1 0 2 2;
#X connect 1 0 3 2;
#X connect 3 0 2 0;
#X connect 3 1 2 1;
