#N canvas 76 194 900 601 12;
#X msg 140 116 1;
#X obj 41 12 inlet;
#X msg 181 116 0;
#X msg 140 147 \$1;
#X obj 41 80 t b b b b;
#X obj 185 81 t b b b;
#X obj 117 80 t b b b;
#X obj 41 47 ../../common/step-seq-sel-3 \$0;
#X obj 161 238 r tr-d-#;
#X obj 101 178 spigot;
#X obj 101 266 ctlout 12;
#X msg 101 239 0;
#X obj 161 442 ../../samples/program;
#X obj 101 210 t b b b b;
#X msg 161 414 1;
#X obj 141 383 ../../ambika/multi;
#X msg 141 357 0 1;
#X msg 121 299 0 85;
#X obj 121 327 ../../kp3/pc;
#X obj 89 12 reset-song;
#X connect 0 0 3 0;
#X connect 1 0 7 0;
#X connect 2 0 3 0;
#X connect 3 0 9 1;
#X connect 4 0 9 0;
#X connect 5 1 2 0;
#X connect 6 1 0 0;
#X connect 7 0 4 0;
#X connect 7 1 6 0;
#X connect 7 2 5 0;
#X connect 8 0 10 2;
#X connect 9 0 13 0;
#X connect 11 0 10 0;
#X connect 13 0 11 0;
#X connect 13 1 17 0;
#X connect 13 2 16 0;
#X connect 14 0 12 0;
#X connect 16 0 15 0;
#X connect 17 0 18 0;
#X connect 19 0 4 0;
