#N canvas 231 51 1245 880 12;
#X obj 965 215 notein;
#X obj 1013 295 spigot;
#X obj 1004 268 t f f;
#X obj 965 321 spigot;
#X obj 1004 241 ==;
#X obj 1016 319 r vd-#;
#X obj 965 347 noteout;
#X obj 965 295 spigot;
#X text 68 11 comment;
#X msg 23 90 1;
#X obj 23 12 inlet;
#X msg 64 90 0;
#X msg 23 116 \$1;
#X obj 23 38 ../../../common/step-seq-sel-3 \$0;
#X text 473 23 vd-1 (60);
#X text 552 23 vd-2 (62);
#X text 628 23 vd-3 (64);
#X text 473 49 vd-4 (66);
#X text 552 49 vd-5 (67);
#X text 628 49 vd-6 (69);
#X obj 1022 215 r smpl-9-#;
#X obj 790 399 r vd-#;
#X obj 750 369 r smpl-10-#;
#X obj 632 427 ../../../common/note-cc;
#X msg 671 399 60;
#X msg 711 400 17;
#X text 630 448 c4 - volca drum cc;
#X obj 839 649 r smpl-10-#;
#X obj 721 705 ../../../common/note-cc;
#X text 719 726 c3 - tr08 cc;
#X msg 760 677 48;
#X msg 800 678 81;
#X obj 879 676 r tr08-out-#;
#X obj 23 141 t f f f;
#X obj 23 63 t b b b;
#X obj 760 650 t b b;
#X obj 671 371 t b b;
#X obj 422 694 r smpl-10-#;
#X obj 304 750 ../../../common/note-cc;
#X text 302 771 c3 - tr08 cc;
#X msg 343 722 48;
#X msg 383 723 81;
#X obj 462 721 r tr08-out-#;
#X obj 343 695 t b b;
#X connect 0 0 7 0;
#X connect 0 1 1 0;
#X connect 0 2 4 0;
#X connect 1 0 6 1;
#X connect 2 0 3 1;
#X connect 2 1 1 1;
#X connect 3 0 6 0;
#X connect 4 0 2 0;
#X connect 5 0 6 2;
#X connect 7 0 3 0;
#X connect 9 0 12 0;
#X connect 10 0 13 0;
#X connect 11 0 12 0;
#X connect 12 0 33 0;
#X connect 13 0 34 0;
#X connect 13 1 9 0;
#X connect 13 2 11 0;
#X connect 20 0 4 1;
#X connect 21 0 23 4;
#X connect 22 0 23 3;
#X connect 24 0 23 1;
#X connect 25 0 23 2;
#X connect 27 0 28 3;
#X connect 30 0 28 1;
#X connect 31 0 28 2;
#X connect 32 0 28 4;
#X connect 33 0 7 1;
#X connect 33 1 23 0;
#X connect 33 2 28 0;
#X connect 34 0 9 0;
#X connect 34 1 36 0;
#X connect 34 2 35 0;
#X connect 35 0 30 0;
#X connect 35 1 31 0;
#X connect 36 0 24 0;
#X connect 36 1 25 0;
#X connect 37 0 38 3;
#X connect 40 0 38 1;
#X connect 41 0 38 2;
#X connect 42 0 38 4;
#X connect 43 0 40 0;
#X connect 43 1 41 0;
