#N canvas 231 51 1245 880 12;
#X obj 211 11 inlet;
#X text 254 10 arm;
#X obj 19 11 inlet;
#X text 60 10 spigot;
#X obj 19 41 t f f f f f f f;
#X obj 211 41 t b b b b b b b;
#X obj 19 537 t f f f f f f;
#X obj 211 537 t b b b b b b;
#X obj 154 79 r smpl-10-#;
#X obj 36 135 ../../../common/note-cc;
#X text 34 156 c3 - tr08 cc;
#X msg 75 107 48;
#X msg 115 108 81;
#X obj 194 106 r tr08-out-#;
#X obj 75 80 t b b;
#X connect 0 0 5 0;
#X connect 2 0 4 0;
#X connect 4 0 6 0;
#X connect 4 1 9 0;
#X connect 5 0 7 0;
#X connect 5 1 14 0;
#X connect 8 0 9 3;
#X connect 11 0 9 1;
#X connect 12 0 9 2;
#X connect 13 0 9 4;
#X connect 14 0 11 0;
#X connect 14 1 12 0;
