#N canvas 231 51 774 723 12;
#X obj 194 107 r vd-#;
#X obj 154 79 r smpl-10-#;
#X obj 36 135 ../../../common/note-cc;
#X msg 75 107 60;
#X msg 115 107 17;
#X text 34 156 c4 - volca drum cc;
#X obj 75 79 t b b;
#X obj 211 11 inlet;
#X text 254 10 arm;
#X obj 19 11 inlet;
#X text 60 10 spigot;
#X obj 19 41 t f f f f f f f;
#X obj 211 41 t b b b b b b b;
#X obj 19 537 t f f f f f f;
#X obj 211 537 t b b b b b b;
#X connect 0 0 2 4;
#X connect 1 0 2 3;
#X connect 3 0 2 1;
#X connect 4 0 2 2;
#X connect 6 0 3 0;
#X connect 6 1 4 0;
#X connect 7 0 12 0;
#X connect 9 0 11 0;
#X connect 11 0 13 0;
#X connect 11 1 2 0;
#X connect 12 0 14 0;
#X connect 12 1 6 0;
