#N canvas 76 194 900 601 12;
#X msg 140 116 1;
#X obj 41 12 inlet;
#X msg 181 116 0;
#X msg 140 147 \$1;
#X obj 41 80 t b b b b;
#X obj 89 12 r reset-song;
#X obj 185 81 t b b b;
#X obj 117 80 t b b b;
#X obj 41 47 ../../common/step-seq-sel-3 \$0;
#X obj 161 238 r tr-d-#;
#X obj 101 178 spigot;
#X obj 101 266 ctlout 12;
#X msg 101 239 0;
#X obj 121 327 ../../kp3/program;
#X msg 121 299 b 0 \, p 85;
#X obj 141 383 ../../ambika/program;
#X obj 161 442 ../../samples/program;
#X obj 101 210 t b b b b;
#X msg 141 357 b 26 \, p 2;
#X msg 161 414 2;
#X connect 0 0 3 0;
#X connect 1 0 8 0;
#X connect 2 0 3 0;
#X connect 3 0 10 1;
#X connect 4 0 10 0;
#X connect 5 0 4 0;
#X connect 6 1 2 0;
#X connect 7 0 10 0;
#X connect 7 1 0 0;
#X connect 8 0 4 0;
#X connect 8 1 7 0;
#X connect 8 2 6 0;
#X connect 9 0 11 2;
#X connect 10 0 17 0;
#X connect 12 0 11 0;
#X connect 14 0 13 0;
#X connect 17 0 12 0;
#X connect 17 1 14 0;
#X connect 17 2 18 0;
#X connect 17 3 19 0;
#X connect 18 0 15 0;
#X connect 19 0 16 0;
