#N canvas 79 146 900 675 12;
#X msg 140 116 1;
#X obj 41 12 inlet;
#X msg 181 116 0;
#X msg 140 147 \$1;
#X obj 41 80 t b b b b;
#X obj 185 81 t b b b;
#X obj 117 80 t b b b;
#X obj 41 47 ../../common/step-seq-sel-3 \$0;
#X obj 101 178 spigot;
#X obj 136 383 ../../samples/program;
#X msg 136 359 2;
#X msg 119 301 0 2;
#X obj 119 326 ../../ambika/multi;
#X msg 101 248 0 5;
#X obj 101 272 ../../dbi/pc;
#X obj 552 456 ../../kp3/pc;
#X msg 552 428 0 28;
#X obj 558 525 ../../samples/reset-decay;
#X obj 101 210 t b b b b b b;
#X msg 153 419 48;
#X obj 153 444 ../../zoom/program;
#X obj 171 587 ctlout;
#X obj 210 561 r model-6-#;
#X msg 190 535 71;
#X obj 171 474 t b b;
#X obj 171 507 delay 1;
#X msg 171 562 0;
#X connect 0 0 3 0;
#X connect 1 0 7 0;
#X connect 2 0 3 0;
#X connect 3 0 8 1;
#X connect 4 0 8 0;
#X connect 5 1 2 0;
#X connect 6 0 8 0;
#X connect 6 1 0 0;
#X connect 7 0 4 0;
#X connect 7 1 6 0;
#X connect 7 2 5 0;
#X connect 8 0 18 0;
#X connect 10 0 9 0;
#X connect 11 0 12 0;
#X connect 13 0 14 0;
#X connect 16 0 15 0;
#X connect 18 0 13 0;
#X connect 18 1 11 0;
#X connect 18 2 10 0;
#X connect 18 3 19 0;
#X connect 19 0 20 0;
#X connect 22 0 21 2;
#X connect 23 0 21 1;
#X connect 24 0 25 0;
#X connect 24 1 23 0;
#X connect 25 0 26 0;
#X connect 26 0 21 0;
