#N canvas 113 204 900 675 12;
#X msg 140 116 1;
#X obj 41 12 inlet;
#X msg 181 116 0;
#X msg 140 147 \$1;
#X obj 41 80 t b b b b;
#X obj 89 12 r reset-song;
#X obj 185 81 t b b b;
#X obj 117 80 t b b b;
#X obj 41 47 ../../common/step-seq-sel-3 \$0;
#X obj 101 178 spigot;
#X obj 153 438 ../../samples/program;
#X msg 153 412 2;
#X obj 171 526 ../../zoom/ctrl;
#X msg 136 357 0 2;
#X obj 136 383 ../../ambika/multi;
#X msg 175 492 49;
#X msg 101 240 0 5;
#X obj 101 272 ../../dbi/pc;
#X obj 118 326 ../../kp3/pc;
#X obj 171 467 t b b b b;
#X msg 204 496 2;
#X msg 238 496 1;
#X msg 273 496 0;
#X msg 118 298 0 28;
#X obj 188 562 ../../samples/reset-decay;
#X obj 101 210 t b b b b b b;
#X connect 0 0 3 0;
#X connect 1 0 8 0;
#X connect 2 0 3 0;
#X connect 3 0 9 1;
#X connect 4 0 9 0;
#X connect 5 0 4 0;
#X connect 6 1 2 0;
#X connect 7 0 9 0;
#X connect 7 1 0 0;
#X connect 8 0 4 0;
#X connect 8 1 7 0;
#X connect 8 2 6 0;
#X connect 9 0 25 0;
#X connect 11 0 10 0;
#X connect 13 0 14 0;
#X connect 15 0 12 0;
#X connect 16 0 17 0;
#X connect 19 0 15 0;
#X connect 19 1 20 0;
#X connect 19 2 21 0;
#X connect 19 3 22 0;
#X connect 20 0 12 2;
#X connect 21 0 12 2;
#X connect 22 0 12 2;
#X connect 23 0 18 0;
#X connect 25 0 16 0;
#X connect 25 1 23 0;
#X connect 25 2 13 0;
#X connect 25 3 11 0;
#X connect 25 4 19 0;
#X connect 25 5 24 0;
