#N canvas 682 207 785 368 12;
#X obj 277 93 moses 64;
#X obj 345 93 moses 72;
#X obj 345 159 - 63;
#X obj 345 297 s tune;
#X obj 345 118 t f f;
#X obj 30 23 clip-pad;
#X obj 399 297 song-light;
#X obj 184 23 r reset;
#X obj 227 297 lights-off;
#X obj 30 218 shift;
#X obj 99 255 shift;
#X obj 30 297 s pause;
#X obj 99 297 s sel;
#X obj 156 297 s listen;
#X obj 30 57 t f b;
#X obj 83 93 t f f;
#X obj 424 23 encoders;
#X obj 249 23 r on-load;
#X msg 62 194 91;
#X msg 131 231 98;
#X obj 566 23 r fern;
#X obj 566 297 fern-light;
#X obj 655 23 r enc-val;
#X obj 655 297 enc-val-light;
#X connect 0 1 1 0;
#X connect 1 0 4 0;
#X connect 2 0 3 0;
#X connect 4 0 2 0;
#X connect 4 1 6 0;
#X connect 5 0 14 0;
#X connect 5 1 15 0;
#X connect 5 1 0 0;
#X connect 7 0 8 0;
#X connect 7 0 19 0;
#X connect 7 0 18 0;
#X connect 9 0 11 0;
#X connect 9 0 10 0;
#X connect 9 1 10 0;
#X connect 10 0 12 0;
#X connect 10 1 13 0;
#X connect 14 0 9 0;
#X connect 15 0 9 1;
#X connect 15 1 10 1;
#X connect 17 0 12 0;
#X connect 18 0 9 2;
#X connect 19 0 10 2;
#X connect 20 0 21 0;
#X connect 22 0 23 0;
