#N canvas 493 170 957 825 12;
#X obj 329 91 moses 64;
#X obj 397 91 moses 72;
#X obj 575 437 - 63;
#X obj 575 474 s tune;
#X obj 30 23 clip-pad;
#X obj 629 474 song-light;
#X obj 219 21 r reset;
#X obj 495 474 lights-off;
#X obj 30 194 shift;
#X obj 30 474 s sel;
#X obj 459 23 encoders;
#X obj 284 21 r on-load;
#X msg 62 167 98;
#X obj 723 23 r fern;
#X obj 723 474 fern-light;
#X obj 812 23 r enc-val;
#X obj 812 474 enc-val-light;
#X obj 575 408 t f f;
#X obj 260 91 moses 40;
#X obj 283 251 latch;
#X obj 283 474 s record;
#X obj 351 251 latch;
#X obj 414 474 s mute;
#X obj 232 251 latch;
#X obj 260 127 t f f f;
#X obj 232 474 s thru;
#X obj 351 474 s clear;
#X obj 414 406 spigot 1;
#X msg 442 370 0;
#X msg 478 370 1;
#X obj 414 437 t f b;
#X obj 264 224 t b b;
#X obj 315 224 t b b;
#X obj 383 224 t b b;
#X obj 232 281 t f b;
#X obj 283 281 t f b;
#X obj 351 281 t f b;
#X obj 277 183 sel 91 93 100;
#X text 0 498 sel stage;
#X obj 71 292 timer;
#X obj 103 265 bang;
#X obj 71 317 > 500;
#X obj 71 437 f;
#X obj 71 474 send pause;
#X obj 148 474 send listen;
#X obj 148 437 f;
#X obj 62 227 t b f f;
#X obj 103 372 sel 1 0;
#X msg 71 394 -1;
#X obj 71 345 t b f;
#X connect 0 1 1 0;
#X connect 1 0 17 0;
#X connect 2 0 3 0;
#X connect 4 0 8 0;
#X connect 4 1 18 0;
#X connect 4 1 8 1;
#X connect 4 1 37 0;
#X connect 4 1 40 0;
#X connect 6 0 7 0;
#X connect 6 0 12 0;
#X connect 8 0 9 0;
#X connect 8 1 27 0;
#X connect 8 1 46 0;
#X connect 11 0 9 0;
#X connect 12 0 8 2;
#X connect 13 0 14 0;
#X connect 15 0 16 0;
#X connect 17 0 2 0;
#X connect 17 1 5 0;
#X connect 18 0 24 0;
#X connect 18 1 0 0;
#X connect 19 0 35 0;
#X connect 21 0 36 0;
#X connect 23 0 34 0;
#X connect 24 0 23 0;
#X connect 24 1 19 0;
#X connect 24 2 21 0;
#X connect 27 0 30 0;
#X connect 28 0 27 1;
#X connect 29 0 27 1;
#X connect 30 0 22 0;
#X connect 30 1 29 0;
#X connect 31 0 23 1;
#X connect 31 1 28 0;
#X connect 32 0 19 1;
#X connect 32 1 28 0;
#X connect 33 0 21 1;
#X connect 33 1 28 0;
#X connect 34 0 25 0;
#X connect 34 1 29 0;
#X connect 35 0 20 0;
#X connect 35 1 29 0;
#X connect 36 0 26 0;
#X connect 36 1 29 0;
#X connect 37 0 31 0;
#X connect 37 1 32 0;
#X connect 37 2 33 0;
#X connect 39 0 41 0;
#X connect 40 0 39 1;
#X connect 41 0 49 0;
#X connect 42 0 43 0;
#X connect 45 0 44 0;
#X connect 46 0 39 0;
#X connect 46 1 42 1;
#X connect 46 2 45 1;
#X connect 47 0 42 0;
#X connect 47 1 45 0;
#X connect 48 0 42 1;
#X connect 48 0 45 1;
#X connect 49 0 48 0;
#X connect 49 1 47 0;
