#N canvas 307 142 1019 739 12;
#X obj 206 39 moses 64;
#X obj 274 39 moses 72;
#X obj 274 124 - 63;
#X obj 274 326 s tune;
#X obj 65 39 moses 0;
#X obj 133 39 moses 40;
#X obj 133 326 s sel;
#X obj 274 69 t f f;
#X obj 12 11 clip-pad;
#X obj 12 326 s listen;
#X msg 205 171 0;
#X obj 133 204 spigot 0;
#X msg 163 171 1;
#X msg 12 204 \$1 listen 1;
#X msg 35 234 \$1 listen 0;
#X obj 12 70 t f b b;
#X obj 133 69 t f f b b;
#X obj 418 39 moses 87;
#X obj 306 98 song-light;
#X obj 347 39 moses 82;
#X obj 418 130 keyboard-route;
#X obj 205 6 encoders;
#X obj 659 6 r reset;
#X obj 659 31 lights-off;
#X obj 471 98 tgl 15 0 empty empty empty 17 7 0 10 -262144 -1 -1 0
1;
#X obj 471 69 route 98 91;
#X obj 508 326 s pause;
#X connect 0 1 1 0;
#X connect 1 0 7 0;
#X connect 1 1 19 0;
#X connect 2 0 3 0;
#X connect 4 1 5 0;
#X connect 5 0 16 0;
#X connect 5 1 0 0;
#X connect 7 0 2 0;
#X connect 7 1 18 0;
#X connect 8 0 15 0;
#X connect 8 1 4 0;
#X connect 10 0 11 1;
#X connect 11 0 6 0;
#X connect 12 0 11 1;
#X connect 13 0 9 0;
#X connect 14 0 9 0;
#X connect 15 0 13 0;
#X connect 15 1 12 0;
#X connect 16 0 11 0;
#X connect 16 1 14 0;
#X connect 17 0 20 0;
#X connect 17 1 25 0;
#X connect 19 1 17 0;
#X connect 20 0 11 1;
#X connect 21 0 10 0;
#X connect 22 0 23 0;
#X connect 24 0 20 1;
#X connect 25 0 24 0;
#X connect 25 1 26 0;
