#N canvas 791 508 794 399 12;
#X obj 33 28 ctl-pad-on-rel;
#X obj 217 64 moses 64;
#X obj 285 65 moses 72;
#X obj 285 150 - 63;
#X obj 285 180 s tune;
#X obj 6 237 print;
#X obj 54 64 moses 0;
#X obj 134 65 moses 40;
#X obj 134 157 s sel;
#X obj 285 95 t f f;
#X obj 317 124 song-light;
#X connect 0 0 5 0;
#X connect 0 0 6 0;
#X connect 1 1 2 0;
#X connect 2 0 9 0;
#X connect 3 0 4 0;
#X connect 6 1 7 0;
#X connect 7 0 8 0;
#X connect 7 1 1 0;
#X connect 9 0 3 0;
#X connect 9 1 10 0;
