#N canvas 685 161 616 590 12;
#X obj 302 93 moses 64;
#X obj 370 93 moses 72;
#X obj 370 164 - 63;
#X obj 370 297 s tune;
#X obj 370 131 t f f;
#X obj 30 23 clip-pad;
#X obj 424 297 song-light;
#X obj 184 23 r reset;
#X obj 280 297 lights-off;
#X obj 280 23 bng 15 250 50 0 empty empty empty 17 7 0 10 -262144 -1
-1;
#X obj 30 218 shift;
#X obj 99 255 shift;
#X msg 131 231 91;
#X obj 30 297 s pause;
#X obj 99 297 s sel;
#X obj 156 297 s listen;
#X obj 30 57 t f b;
#X obj 83 93 t f f;
#X obj 484 23 encoders;
#X msg 62 194 81;
#X connect 0 1 1 0;
#X connect 1 0 4 0;
#X connect 2 0 3 0;
#X connect 4 0 2 0;
#X connect 4 1 6 0;
#X connect 5 0 16 0;
#X connect 5 1 17 0;
#X connect 5 1 0 0;
#X connect 7 0 8 0;
#X connect 7 0 12 0;
#X connect 7 0 19 0;
#X connect 9 0 8 0;
#X connect 10 0 13 0;
#X connect 10 1 11 0;
#X connect 11 0 14 0;
#X connect 11 1 15 0;
#X connect 12 0 11 2;
#X connect 16 0 10 0;
#X connect 17 0 10 1;
#X connect 17 1 11 1;
#X connect 19 0 10 2;
