#N canvas 528 486 450 300 12;
#X obj 33 28 ctl-pad-on-rel;
#X obj 217 64 moses 64;
#X obj 285 65 moses 72;
#X obj 338 92 == 81;
#X obj 285 91 - 63;
#X msg 338 122 9;
#X obj 285 158 s tune;
#X obj 6 237 print;
#X obj 54 64 moses 0;
#X obj 134 65 moses 40;
#X obj 54 150 s sel;
#X connect 0 0 7 0;
#X connect 0 0 8 0;
#X connect 1 1 2 0;
#X connect 2 0 4 0;
#X connect 2 1 3 0;
#X connect 3 0 5 0;
#X connect 4 0 6 0;
#X connect 5 0 6 0;
#X connect 8 0 10 0;
#X connect 8 1 9 0;
#X connect 9 1 1 0;
