#N canvas 496 227 1019 739 12;
#X obj 206 39 moses 64;
#X obj 274 39 moses 72;
#X obj 274 124 - 63;
#X obj 274 326 s tune;
#X obj 65 39 moses 0;
#X obj 133 39 moses 40;
#X obj 274 69 t f f;
#X obj 12 11 clip-pad;
#X obj 12 326 s listen;
#X msg 205 171 0;
#X obj 133 204 spigot 0;
#X msg 163 171 1;
#X msg 12 204 \$1 listen 1;
#X msg 35 234 \$1 listen 0;
#X obj 12 70 t f b b;
#X obj 133 69 t f f b b;
#X obj 418 39 moses 87;
#X obj 306 98 song-light;
#X obj 346 39 moses 82;
#X obj 449 201 keyboard-route;
#X obj 205 11 encoders;
#X obj 659 11 r reset;
#X obj 659 41 lights-off;
#X obj 471 98 tgl 15 0 empty empty empty 17 7 0 10 -262144 -1 -1 1
1;
#X obj 502 326 s pause;
#X obj 471 69 route 98 91 93;
#X obj 801 11 bng 15 250 50 0 empty empty empty 17 7 0 10 -262144 -1
-1;
#X obj 534 350 s rec;
#X msg 545 479 \$1 1;
#X msg 588 478 \$1 0;
#X obj 521 593 spigot 0;
#X obj 569 534 route 91;
#X obj 490 690 s sel;
#X connect 0 1 1 0;
#X connect 1 0 6 0;
#X connect 1 1 18 0;
#X connect 2 0 3 0;
#X connect 4 1 5 0;
#X connect 5 0 15 0;
#X connect 5 1 0 0;
#X connect 6 0 2 0;
#X connect 6 1 17 0;
#X connect 7 0 14 0;
#X connect 7 0 30 0;
#X connect 7 0 28 0;
#X connect 7 1 4 0;
#X connect 7 1 29 0;
#X connect 9 0 10 1;
#X connect 11 0 10 1;
#X connect 12 0 8 0;
#X connect 13 0 8 0;
#X connect 14 0 12 0;
#X connect 14 1 11 0;
#X connect 15 0 10 0;
#X connect 15 1 13 0;
#X connect 16 0 19 0;
#X connect 16 1 25 0;
#X connect 18 1 16 0;
#X connect 19 0 9 0;
#X connect 20 0 9 0;
#X connect 21 0 22 0;
#X connect 23 0 19 1;
#X connect 25 0 23 0;
#X connect 25 1 24 0;
#X connect 25 2 27 0;
#X connect 26 0 22 0;
#X connect 28 0 31 0;
#X connect 29 0 31 0;
#X connect 30 0 32 0;
#X connect 31 0 30 1;
