#N canvas 236 363 338 313 12;
#X obj 210 6 r apc-ctl-#;
#X obj 17 6 notein;
#X obj 99 76 spigot 0;
#X obj 17 216 outlet;
#X obj 132 216 outlet;
#X obj 152 49 ==;
#X obj 99 107 sel 127;
#X msg 70 147 1;
#X msg 185 147 1;
#X obj 17 185 spigot 0;
#X obj 132 185 spigot 0;
#X msg 110 147 0;
#X msg 229 147 0;
#X connect 0 0 5 1;
#X connect 1 0 9 0;
#X connect 1 0 10 0;
#X connect 1 1 2 0;
#X connect 1 2 5 0;
#X connect 2 0 6 0;
#X connect 5 0 2 1;
#X connect 6 0 7 0;
#X connect 6 0 12 0;
#X connect 6 1 11 0;
#X connect 6 1 8 0;
#X connect 7 0 9 1;
#X connect 8 0 10 1;
#X connect 9 0 3 0;
#X connect 10 0 4 0;
#X connect 11 0 9 1;
#X connect 12 0 10 1;
