#N canvas 295 266 956 408 12;
#X obj 170 6 r apc-ctl-#;
#X obj 17 6 notein;
#X obj 99 76 spigot 0;
#X obj 17 351 outlet;
#X obj 132 351 outlet;
#X obj 152 49 ==;
#X obj 99 243 sel 127;
#X msg 70 282 1;
#X msg 185 282 1;
#X obj 17 320 spigot 0;
#X obj 132 320 spigot 0;
#X msg 110 282 0;
#X msg 229 282 0;
#X obj 17 76 spigot;
#X obj 529 6 r apc-key-#;
#X obj 511 49 ==;
#X obj 439 76 spigot;
#X obj 492 76 spigot;
#X obj 439 192 pack 0 0;
#X obj 439 351 s notes;
#X text 64 350 down;
#X text 182 350 up;
#X obj 333 6 ctlin;
#X obj 365 76 ==;
#X obj 280 165 sel 64;
#X msg 280 193 100;
#X obj 280 106 spigot;
#X obj 333 106 spigot;
#X obj 17 243 t f f;
#X obj 280 136 pipe 1;
#X text 612 117 another set of spigots to filter note off \, or there
is something already in pd;
#X connect 0 0 5 1;
#X connect 1 0 13 0;
#X connect 1 0 16 0;
#X connect 1 1 2 0;
#X connect 1 1 17 0;
#X connect 1 2 5 0;
#X connect 1 2 15 0;
#X connect 2 0 6 0;
#X connect 5 0 2 1;
#X connect 5 0 13 1;
#X connect 6 0 7 0;
#X connect 6 0 12 0;
#X connect 6 1 11 0;
#X connect 6 1 8 0;
#X connect 7 0 9 1;
#X connect 8 0 10 1;
#X connect 9 0 3 0;
#X connect 10 0 4 0;
#X connect 11 0 9 1;
#X connect 12 0 10 1;
#X connect 13 0 28 0;
#X connect 14 0 15 1;
#X connect 14 0 23 1;
#X connect 15 0 17 1;
#X connect 15 0 16 1;
#X connect 16 0 18 0;
#X connect 17 0 18 1;
#X connect 18 0 19 0;
#X connect 22 0 27 0;
#X connect 22 1 26 0;
#X connect 22 2 23 0;
#X connect 23 0 26 1;
#X connect 23 0 27 1;
#X connect 24 0 25 0;
#X connect 25 0 28 0;
#X connect 26 0 29 0;
#X connect 27 0 6 0;
#X connect 28 0 9 0;
#X connect 28 0 10 0;
#X connect 29 0 24 0;
