#N canvas 238 163 506 459 12;
#X obj 80 28 r apc-ctl-#;
#X obj 19 28 inlet;
#X obj 19 59 unpack 0 0;
#X obj 19 93 t b f f;
#X obj 123 93 t f f;
#X obj 53 130 f;
#X obj 122 223 f;
#X obj 24 223 f;
#X obj 53 159 sel 0;
#X obj 122 286 stripnote;
#X obj 122 262 makenote 1;
#X obj 19 262 makenote 1 1;
#X obj 122 193 bang;
#X obj 77 367 noteout;
#X text 202 261 light on;
#X text 27 285 light off;
#X text 212 27 pad \, val[0(off) | 1(green) | 2(flash green) | 3(red)
| 4(flash red) | 5(yellow) | 6(flash yellow)], f 33;
#X connect 0 0 13 2;
#X connect 1 0 2 0;
#X connect 2 0 3 0;
#X connect 2 1 4 0;
#X connect 3 0 5 0;
#X connect 3 1 7 1;
#X connect 3 2 6 1;
#X connect 4 0 5 1;
#X connect 4 1 10 1;
#X connect 5 0 8 0;
#X connect 6 0 10 0;
#X connect 7 0 11 0;
#X connect 8 0 7 0;
#X connect 8 1 12 0;
#X connect 9 0 13 0;
#X connect 9 1 13 1;
#X connect 10 0 9 0;
#X connect 10 1 9 1;
#X connect 11 0 13 0;
#X connect 11 1 13 1;
#X connect 12 0 6 0;
