#N canvas 655 478 220 410 12;
#X obj 16 333 ctl-pad-light;
#X obj 16 11 inlet;
#X msg 67 132 85;
#X msg 16 305 \$1 1;
#X msg 118 63 82;
#X msg 101 86 83;
#X msg 84 109 84;
#X obj 16 251 - 86;
#X obj 16 279 abs;
#X msg 62 305 \$1 0;
#X obj 16 225 f;
#X obj 16 38 t b f b b b b b;
#X msg 50 157 86;
#X obj 16 198 delay 20;
#X obj 62 358 ctl-pad-light;
#X connect 1 0 11 0;
#X connect 2 0 9 0;
#X connect 3 0 0 0;
#X connect 4 0 9 0;
#X connect 5 0 9 0;
#X connect 6 0 9 0;
#X connect 7 0 8 0;
#X connect 8 0 3 0;
#X connect 9 0 14 0;
#X connect 10 0 7 0;
#X connect 11 0 13 0;
#X connect 11 1 10 1;
#X connect 11 2 12 0;
#X connect 11 3 2 0;
#X connect 11 4 6 0;
#X connect 11 5 5 0;
#X connect 11 6 4 0;
#X connect 12 0 9 0;
#X connect 13 0 10 0;
