#N canvas 121 100 450 300 12;
#X obj 27 10 inlet;
#X obj 27 128 outlet;
#X msg 27 79 0;
#X obj 27 42 sel 0;
#X obj 77 79 - 1;
#X connect 0 0 3 0;
#X connect 2 0 1 0;
#X connect 3 0 2 0;
#X connect 3 1 4 0;
#X connect 4 0 1 0;
