#N canvas 462 360 1101 518 12;
#X obj 108 14 r apc-ctl-#;
#X obj 37 123 spigot 0;
#X obj 90 47 ==;
#X obj 21 14 ctlin;
#X obj 183 208 pack 0 0;
#X obj 183 243 route 48 49 50 51 52 53 54 55;
#X obj 256 345 enc-remove-edges;
#X obj 607 345 enc-force-0;
#X obj 518 345 enc-force-0;
#X obj 37 372 outlet;
#X obj 127 345 s enc-1;
#X obj 190 345 s enc-2;
#X obj 256 375 s enc-3;
#X obj 384 345 s enc-4;
#X obj 450 345 s enc-5;
#X obj 518 373 s enc-6;
#X obj 607 375 s enc-7;
#X obj 697 345 s enc-8;
#X obj 236 145 spigot 0;
#X obj 90 72 t f f;
#X obj 236 174 ../controller/10-part-selector;
#X connect 0 0 2 1;
#X connect 1 0 4 0;
#X connect 1 0 9 0;
#X connect 2 0 19 0;
#X connect 3 0 18 0;
#X connect 3 1 1 0;
#X connect 3 2 2 0;
#X connect 4 0 5 0;
#X connect 5 0 10 0;
#X connect 5 1 11 0;
#X connect 5 2 6 0;
#X connect 5 3 13 0;
#X connect 5 4 14 0;
#X connect 5 5 8 0;
#X connect 5 6 7 0;
#X connect 5 7 17 0;
#X connect 6 0 12 0;
#X connect 7 0 16 0;
#X connect 8 0 15 0;
#X connect 18 0 20 0;
#X connect 19 0 1 1;
#X connect 19 1 18 1;
#X connect 20 0 4 1;
