#N canvas 335 188 937 518 12;
#X obj 108 14 r apc-ctl-#;
#X obj 37 77 spigot 0;
#X obj 90 47 ==;
#X obj 21 14 ctlin;
#X obj 183 160 pack 0 0;
#X obj 183 195 route 48 49 50 51 52 53 54 55;
#X obj 284 351 s reps;
#X obj 748 296 s swing;
#X obj 384 296 s nlb;
#X obj 490 296 s offset;
#X obj 561 324 s note-len;
#X obj 650 324 s br-len;
#X obj 284 323 s enc-val;
#X obj 257 296 enc-remove-edges;
#X obj 650 296 enc-force-0;
#X obj 561 296 enc-force-0;
#X obj 37 372 outlet;
#X obj 134 296 s sub-1;
#X obj 197 296 s sub-2;
#X connect 0 0 2 1;
#X connect 1 0 4 0;
#X connect 1 0 16 0;
#X connect 2 0 1 1;
#X connect 3 0 4 1;
#X connect 3 1 1 0;
#X connect 3 2 2 0;
#X connect 4 0 5 0;
#X connect 5 0 17 0;
#X connect 5 1 18 0;
#X connect 5 2 13 0;
#X connect 5 3 8 0;
#X connect 5 4 9 0;
#X connect 5 5 15 0;
#X connect 5 6 14 0;
#X connect 5 7 7 0;
#X connect 13 0 6 0;
#X connect 13 0 12 0;
#X connect 14 0 11 0;
#X connect 15 0 10 0;
