#N canvas 462 360 1101 518 12;
#X obj 108 14 r apc-ctl-#;
#X obj 37 77 spigot 0;
#X obj 90 47 ==;
#X obj 21 14 ctlin;
#X obj 183 160 pack 0 0;
#X obj 183 195 route 48 49 50 51 52 53 54 55;
#X obj 284 351 s reps;
#X obj 384 297 s nlb;
#X obj 490 297 s offset;
#X obj 561 324 s note-len;
#X obj 650 324 s br-len;
#X obj 284 323 s enc-val;
#X obj 257 297 enc-remove-edges;
#X obj 650 297 enc-force-0;
#X obj 561 297 enc-force-0;
#X obj 37 372 outlet;
#X obj 127 297 s part-1;
#X obj 190 297 s part-2;
#X obj 763 297 ../controller/subpart-selector;
#X msg 970 243 gran 5 \, min 0 \, max 50, f 7;
#X obj 947 14 loadbang;
#X msg 866 269 1;
#X obj 970 324 s swing;
#X obj 947 169 t b b b;
#X connect 0 0 2 1;
#X connect 1 0 4 0;
#X connect 1 0 15 0;
#X connect 2 0 1 1;
#X connect 3 0 4 1;
#X connect 3 1 1 0;
#X connect 3 2 2 0;
#X connect 4 0 5 0;
#X connect 5 0 16 0;
#X connect 5 1 17 0;
#X connect 5 2 12 0;
#X connect 5 3 7 0;
#X connect 5 4 8 0;
#X connect 5 5 14 0;
#X connect 5 6 13 0;
#X connect 5 7 18 0;
#X connect 12 0 6 0;
#X connect 12 0 11 0;
#X connect 13 0 10 0;
#X connect 14 0 9 0;
#X connect 18 1 22 0;
#X connect 19 0 18 2;
#X connect 20 0 23 0;
#X connect 21 0 18 1;
#X connect 23 0 21 0;
#X connect 23 1 19 0;
#X connect 23 2 19 0;
