#N canvas 115 157 1393 784 12;
#X obj 108 14 r apc-ctl-#;
#X obj 37 123 spigot 0;
#X obj 90 47 ==;
#X obj 21 14 ctlin;
#X obj 95 345 pack 0 0;
#X obj 95 380 route 48 49 50 51 52 53 54 55;
#X obj 37 650 outlet;
#X obj 95 650 s enc-1;
#X obj 158 650 s enc-2;
#X obj 221 650 s enc-3;
#X obj 285 650 s enc-4;
#X obj 351 650 s enc-5;
#X obj 413 650 s enc-6;
#X obj 475 650 s enc-7;
#X obj 535 650 s enc-8;
#X obj 124 123 spigot 0;
#X obj 90 72 t f f;
#X obj 95 620 change;
#X obj 158 620 change;
#X obj 221 620 change;
#X obj 285 620 change;
#X obj 351 620 change;
#X obj 413 620 change;
#X obj 475 620 change;
#X obj 535 620 change;
#X obj 772 345 pack 0 0;
#X obj 772 380 route 48 49 50 51 52 53 54 55;
#X obj 772 650 s enc-r-1;
#X obj 1289 650 s enc-r-8;
#X obj 1217 650 s enc-r-7;
#X obj 1143 650 s enc-r-6;
#X obj 848 650 s enc-r-2;
#X obj 922 650 s enc-r-3;
#X obj 997 650 s enc-r-4;
#X obj 1070 650 s enc-r-5;
#X obj 95 410 ../controller/5-part-selector;
#X obj 158 437 ../controller/5-part-selector;
#X obj 221 464 ../controller/5-part-selector;
#X obj 285 492 ../controller/5-part-selector;
#X obj 351 518 ../controller/10-part-selector;
#X obj 413 543 ../controller/10-part-selector;
#X obj 475 568 ../controller/10-part-selector;
#X obj 535 593 ../controller/10-part-selector;
#X connect 0 0 2 1;
#X connect 1 0 4 0;
#X connect 1 0 6 0;
#X connect 1 0 25 0;
#X connect 2 0 16 0;
#X connect 3 0 15 0;
#X connect 3 1 1 0;
#X connect 3 2 2 0;
#X connect 4 0 5 0;
#X connect 5 0 35 0;
#X connect 5 1 36 0;
#X connect 5 2 37 0;
#X connect 5 3 38 0;
#X connect 5 4 39 0;
#X connect 5 5 40 0;
#X connect 5 6 41 0;
#X connect 5 7 42 0;
#X connect 15 0 25 1;
#X connect 15 0 4 1;
#X connect 16 0 1 1;
#X connect 16 1 15 1;
#X connect 17 0 7 0;
#X connect 18 0 8 0;
#X connect 19 0 9 0;
#X connect 20 0 10 0;
#X connect 21 0 11 0;
#X connect 22 0 12 0;
#X connect 23 0 13 0;
#X connect 24 0 14 0;
#X connect 25 0 26 0;
#X connect 26 0 27 0;
#X connect 26 1 31 0;
#X connect 26 2 32 0;
#X connect 26 3 33 0;
#X connect 26 4 34 0;
#X connect 26 5 30 0;
#X connect 26 6 29 0;
#X connect 26 7 28 0;
#X connect 35 0 17 0;
#X connect 36 0 18 0;
#X connect 37 0 19 0;
#X connect 38 0 20 0;
#X connect 39 0 21 0;
#X connect 40 0 22 0;
#X connect 41 0 23 0;
#X connect 42 0 24 0;
