#N canvas 394 276 1067 456 12;
#X obj 83 76 print note;
#X obj 189 77 print vel;
#X obj 306 78 print ch;
#X obj 90 238 noteout 5;
#X obj 244 234 print xx;
#X obj 783 34 ctlin;
#X obj 735 77 print val;
#X obj 843 78 print ctl;
#X obj 950 77 print ch;
#X obj 108 34 notein 2;
#X obj 430 38 notein 1;
#X obj 393 84 print ctrl;
#X obj 491 80 print val;
#X msg 428 233 0;
#X msg 463 235 10;
#X floatatom 521 230 5 0 0 0 - - -;
#X obj 495 332 stripnote;
#X obj 498 368 noteout 1;
#X msg 673 203 0;
#X msg 708 205 10;
#X obj 743 338 noteout 1;
#X obj 493 288 makenote 1;
#X obj 737 257 makenote 1 1;
#X connect 5 0 6 0;
#X connect 5 1 7 0;
#X connect 5 2 8 0;
#X connect 9 0 0 0;
#X connect 9 0 3 0;
#X connect 9 1 1 0;
#X connect 9 1 3 1;
#X connect 10 0 11 0;
#X connect 10 1 12 0;
#X connect 13 0 21 0;
#X connect 14 0 21 0;
#X connect 15 0 21 1;
#X connect 16 0 17 0;
#X connect 16 1 17 1;
#X connect 18 0 22 0;
#X connect 19 0 22 0;
#X connect 21 0 16 0;
#X connect 21 1 16 1;
#X connect 22 0 20 0;
#X connect 22 1 20 1;
