#N canvas 390 500 322 442 12;
#X obj 16 159 ctl-pad-light;
#X obj 16 11 inlet;
#X obj 16 39 t b b;
#X obj 16 69 delay 200;
#X obj 144 11 r tune;
#X obj 144 39 + 63;
#X msg 62 127 \$1 1;
#X msg 16 127 \$1 0;
#X obj 62 100 f;
#X obj 16 100 f;
#X connect 1 0 2 0;
#X connect 2 0 3 0;
#X connect 2 1 8 0;
#X connect 3 0 9 0;
#X connect 4 0 5 0;
#X connect 5 0 8 1;
#X connect 5 0 9 1;
#X connect 6 0 0 0;
#X connect 7 0 0 0;
#X connect 8 0 6 0;
#X connect 9 0 7 0;
