#N canvas 946 409 639 368 12;
#X obj 41 12 inlet;
#X obj 259 251 noteout;
#X obj 282 12 r apc-key-#;
#X obj 368 12 r amb-1-#;
#X obj 41 47 ../common/step-seq-sel-3 \$0;
#X obj 166 193 ../common/note-in;
#X obj 460 13 r tr-m1-#;
#X obj 389 251 noteout;
#X connect 0 0 4 0;
#X connect 2 0 5 1;
#X connect 3 0 1 2;
#X connect 4 4 5 0;
#X connect 5 0 1 0;
#X connect 5 0 7 0;
#X connect 5 1 1 1;
#X connect 5 1 7 1;
#X connect 6 0 7 2;
