#N canvas 167 351 1006 633 12;
#X obj 240 13 inlet;
#X obj 71 488 r ea-1-#;
#X obj 118 13 r apc-key-#;
#X obj 27 13 notein;
#X obj 83 47 ==;
#X obj 95 83 spigot;
#X obj 27 83 spigot;
#X obj 25 522 noteout;
#X obj 152 523 noteout;
#X obj 198 489 r ea-2-#;
#X obj 280 524 noteout;
#X obj 326 490 r sample-#;
#X obj 421 520 noteout;
#X obj 467 486 r pulse-#;
#X obj 25 462 spigot 0;
#X obj 151 461 spigot 0;
#X obj 280 460 spigot 0;
#X obj 422 454 spigot 0;
#X obj 240 171 route 82 83 84 85 86;
#X obj 240 203 tgl 15 0 empty empty empty 17 7 0 10 -262144 -1 -1 0
1;
#X obj 267 203 tgl 15 0 empty empty empty 17 7 0 10 -262144 -1 -1 0
1;
#X obj 294 203 tgl 15 0 empty empty empty 17 7 0 10 -262144 -1 -1 0
1;
#X obj 322 203 tgl 15 0 empty empty empty 17 7 0 10 -262144 -1 -1 0
1;
#X obj 349 203 tgl 15 0 empty empty empty 17 7 0 10 -262144 -1 -1 0
1;
#X obj 240 83 t f f;
#X msg 481 171 set \$1;
#X msg 423 271 add2 \$1;
#X obj 391 244 t b f;
#X obj 481 348 ctl-pad-light;
#X msg 481 323 84 0;
#X connect 0 0 24 0;
#X connect 1 0 7 2;
#X connect 2 0 4 1;
#X connect 3 0 6 0;
#X connect 3 1 5 0;
#X connect 3 2 4 0;
#X connect 4 0 5 1;
#X connect 4 0 6 1;
#X connect 5 0 7 1;
#X connect 5 0 8 1;
#X connect 5 0 10 1;
#X connect 5 0 12 1;
#X connect 6 0 14 0;
#X connect 6 0 15 0;
#X connect 6 0 16 0;
#X connect 6 0 17 0;
#X connect 9 0 8 2;
#X connect 11 0 10 2;
#X connect 13 0 12 2;
#X connect 14 0 7 0;
#X connect 15 0 8 0;
#X connect 16 0 10 0;
#X connect 17 0 12 0;
#X connect 18 0 19 0;
#X connect 18 1 20 0;
#X connect 18 2 21 0;
#X connect 18 3 22 0;
#X connect 18 4 23 0;
#X connect 19 0 27 0;
#X connect 19 0 14 1;
#X connect 20 0 27 0;
#X connect 20 0 15 1;
#X connect 21 0 27 0;
#X connect 21 0 16 1;
#X connect 22 0 27 0;
#X connect 22 0 17 1;
#X connect 23 0 27 0;
#X connect 24 0 18 0;
#X connect 24 1 25 0;
#X connect 25 0 29 0;
#X connect 26 0 29 0;
#X connect 27 0 29 0;
#X connect 27 1 26 0;
#X connect 29 0 28 0;
