#N canvas 266 367 209 187 12;
#X obj 36 23 inlet;
#X obj 36 143 outlet;
#X obj 89 24 inlet;
#X obj 36 77 spigot 0;
#X obj 36 110 t f b;
#X obj 89 54 tgl 15 0 empty empty empty 17 7 0 10 -262144 -1 -1 0 1
;
#X connect 0 0 3 0;
#X connect 2 0 5 0;
#X connect 3 0 4 0;
#X connect 4 0 1 0;
#X connect 4 1 5 0;
#X connect 5 0 3 1;
