#N canvas 755 573 317 271 12;
#X obj 23 17 inlet;
#X obj 23 111 until;
#X obj 23 140 f;
#X obj 61 140 + 1;
#X obj 23 202 ctl-pad-light;
#X obj 23 43 t b b;
#X msg 61 69 0;
#X msg 23 172 \$1 0;
#X msg 23 69 39;
#X obj 105 140 sel 39;
#X obj 222 141 print;
#X connect 0 0 5 0;
#X connect 0 0 10 0;
#X connect 1 0 2 0;
#X connect 2 0 3 0;
#X connect 2 0 7 0;
#X connect 3 0 2 1;
#X connect 3 0 9 0;
#X connect 5 0 8 0;
#X connect 5 1 6 0;
#X connect 6 0 2 1;
#X connect 7 0 4 0;
#X connect 8 0 1 0;
#X connect 9 0 1 1;
