#N canvas 746 558 850 459 12;
#X obj 181 12 inlet;
#X obj 24 12 inlet;
#X obj 135 12 inlet;
#X msg 24 123 1;
#X msg 76 123 0;
#X msg 135 123 1;
#X msg 188 123 0;
#X obj 23 154 spigot 0;
#X obj 135 154 spigot 1;
#X obj 24 75 sel;
#X obj 135 75 sel;
#X obj 23 184 outlet;
#X obj 135 184 outlet;
#X text 21 208 keypress while shifted, f 14;
#X text 140 216 anything else;
#X text 226 11 shift key;
#X text 29 35 down;
#X text 142 35 up;
#X connect 0 0 9 1;
#X connect 0 0 10 1;
#X connect 1 0 9 0;
#X connect 2 0 10 0;
#X connect 3 0 7 1;
#X connect 4 0 7 1;
#X connect 5 0 8 1;
#X connect 6 0 8 1;
#X connect 7 0 11 0;
#X connect 8 0 12 0;
#X connect 9 0 3 0;
#X connect 9 0 6 0;
#X connect 9 1 7 0;
#X connect 9 1 8 0;
#X connect 10 0 4 0;
#X connect 10 0 5 0;
