#N canvas 124 420 322 442 12;
#X obj 37 280 ctl-pad-light;
#X msg 62 236 \$1 0;
#X obj 62 202 f -1;
#X obj 16 11 inlet;
#X obj 16 164 t f f b;
#X obj 16 39 t f f f;
#X obj 16 135 f;
#X obj 16 75 != -1;
#X obj 16 105 sel 1;
#X msg 16 236 \$1 3;
#X msg 182 232 93 1;
#X connect 1 0 0 0;
#X connect 2 0 1 0;
#X connect 3 0 5 0;
#X connect 4 0 9 0;
#X connect 4 1 2 1;
#X connect 4 2 2 0;
#X connect 5 0 7 1;
#X connect 5 1 7 0;
#X connect 5 2 6 1;
#X connect 6 0 4 0;
#X connect 7 0 8 0;
#X connect 8 0 6 0;
#X connect 9 0 0 0;
#X connect 10 0 0 0;
