#N canvas 124 420 228 233 12;
#X obj 37 154 ctl-pad-light;
#X msg 16 110 \$1 1;
#X msg 62 110 \$1 0;
#X obj 62 76 f -1;
#X obj 16 11 inlet;
#X obj 16 38 t f f b;
#X connect 1 0 0 0;
#X connect 2 0 0 0;
#X connect 3 0 2 0;
#X connect 4 0 5 0;
#X connect 5 0 1 0;
#X connect 5 1 3 1;
#X connect 5 2 3 0;
