#N canvas 546 379 301 202 10;
#X obj 35 165 ctlout;
#X obj 158 165 pgmout;
#X obj 35 17 inlet;
#X obj 134 17 loadbang;
#X text 199 164 program;
#X msg 134 46 32;
#X obj 216 17 r pulse-#;
#X text 81 16 patch;
#X obj 158 141 mod 100;
#X obj 35 46 t f f;
#X obj 35 116 / 100;
#X obj 35 141 int;
#X text 80 164 bank;
#X connect 2 0 9 0;
#X connect 3 0 5 0;
#X connect 5 0 0 1;
#X connect 6 0 1 1;
#X connect 6 0 0 2;
#X connect 8 0 1 0;
#X connect 9 0 8 0;
#X connect 9 1 10 0;
#X connect 10 0 11 0;
#X connect 11 0 0 0;
