#N canvas 42 215 1524 739 12;
#X obj 206 39 moses 64;
#X obj 274 39 moses 72;
#X obj 274 124 - 63;
#X obj 274 326 s tune;
#X obj 65 39 moses 0;
#X obj 133 39 moses 40;
#X obj 133 326 s sel;
#X obj 274 69 t f f;
#X obj 12 11 clip-pad;
#X obj 684 11 r apc-ctl-#;
#X obj 613 69 spigot 0;
#X obj 666 39 ==;
#X obj 634 11 ctlin;
#X obj 12 326 s listen;
#X msg 205 171 0;
#X obj 133 204 spigot 0;
#X msg 163 171 1;
#X msg 12 204 \$1 listen 1;
#X msg 35 234 \$1 listen 0;
#X obj 12 70 t f b b;
#X obj 133 69 t f f b b;
#X obj 613 250 pack 0 0;
#X obj 613 285 route 48 49 50 51 52 53 54 55;
#X obj 561 391 s reps;
#X obj 865 437 s xxx;
#X obj 672 391 s swing;
#X obj 738 391 s subpart;
#X obj 818 391 s nlb;
#X obj 637 437 s offset;
#X obj 706 437 s note-len;
#X obj 785 437 s br-len;
#X text 569 285 val;
#X obj 486 391 s enc-val;
#X obj 486 344 enc-remove-edges;
#X obj 774 361 enc-force-0;
#X obj 723 344 enc-force-0;
#X obj 418 39 moses 87;
#X obj 306 98 song-light;
#X obj 347 39 moses 82;
#X obj 418 208 keyboard-route;
#X obj 205 6 encoders;
#X connect 0 1 1 0;
#X connect 1 0 7 0;
#X connect 1 1 38 0;
#X connect 2 0 3 0;
#X connect 4 1 5 0;
#X connect 5 0 20 0;
#X connect 5 1 0 0;
#X connect 7 0 2 0;
#X connect 7 1 37 0;
#X connect 8 0 19 0;
#X connect 8 1 4 0;
#X connect 9 0 11 1;
#X connect 10 0 21 0;
#X connect 10 0 14 0;
#X connect 11 0 10 1;
#X connect 12 0 21 1;
#X connect 12 1 10 0;
#X connect 12 2 11 0;
#X connect 14 0 15 1;
#X connect 15 0 6 0;
#X connect 16 0 15 1;
#X connect 17 0 13 0;
#X connect 18 0 13 0;
#X connect 19 0 17 0;
#X connect 19 1 16 0;
#X connect 20 0 15 0;
#X connect 20 1 18 0;
#X connect 21 0 22 0;
#X connect 22 0 33 0;
#X connect 22 1 25 0;
#X connect 22 2 26 0;
#X connect 22 3 27 0;
#X connect 22 4 28 0;
#X connect 22 5 35 0;
#X connect 22 6 34 0;
#X connect 22 7 24 0;
#X connect 33 0 23 0;
#X connect 33 0 32 0;
#X connect 34 0 30 0;
#X connect 35 0 29 0;
#X connect 36 0 39 0;
#X connect 38 1 36 0;
#X connect 40 0 14 0;
