#N canvas 99 186 1248 709 12;
#X obj 206 39 moses 64;
#X obj 274 39 moses 72;
#X obj 274 124 - 63;
#X obj 274 326 s tune;
#X obj 65 39 moses 0;
#X obj 133 39 moses 40;
#X obj 133 326 s sel;
#X obj 274 69 t f f;
#X obj 12 11 clip-pad;
#X obj 977 22 r apc-ctl-#;
#X obj 798 94 spigot 0;
#X obj 851 64 ==;
#X obj 819 22 ctlin;
#X obj 810 470 f;
#X obj 657 246 f;
#X obj 920 215 spigot 0;
#X text 619 247 ctl;
#X text 777 469 val;
#X obj 12 326 s listen;
#X msg 205 171 0;
#X obj 133 204 spigot 0;
#X msg 163 171 1;
#X obj 848 470 f;
#X obj 886 470 f;
#X obj 919 470 f;
#X obj 810 500 s reps;
#X obj 957 470 f;
#X obj 998 470 f;
#X obj 1036 470 f;
#X obj 1078 470 f;
#X obj 1062 533 s xxx;
#X obj 865 500 s swing;
#X obj 936 500 s subpart;
#X obj 1015 500 s nlb;
#X obj 832 533 s offset;
#X obj 903 533 s note-len;
#X obj 982 533 s br-len;
#X obj 810 375 route 48 49 50 51 52 53 54 55;
#X obj 306 98 select-light;
#X msg 12 204 \$1 listen 1;
#X msg 35 234 \$1 listen 0;
#X msg 1093 135 1;
#X msg 1137 134 0;
#X obj 947 165 expr (($f1 == $f2) && $f3);
#X obj 12 70 t f b b;
#X obj 810 422 bang;
#X obj 841 422 bang;
#X obj 873 422 bang;
#X obj 902 422 bang;
#X obj 933 422 bang;
#X obj 966 422 bang;
#X obj 998 422 bang;
#X obj 1031 422 bang;
#X obj 588 183 spigot 0;
#X obj 704 135 t f f;
#X msg 623 151 0;
#X obj 733 310 t b f;
#X obj 133 69 t f f b b;
#X connect 0 1 1 0;
#X connect 1 0 7 0;
#X connect 2 0 3 0;
#X connect 4 1 5 0;
#X connect 5 0 57 0;
#X connect 5 1 0 0;
#X connect 7 0 2 0;
#X connect 7 1 38 0;
#X connect 8 0 44 0;
#X connect 8 1 4 0;
#X connect 9 0 11 1;
#X connect 9 0 43 1;
#X connect 10 0 19 0;
#X connect 10 0 54 0;
#X connect 11 0 10 1;
#X connect 12 0 15 0;
#X connect 12 1 10 0;
#X connect 12 2 11 0;
#X connect 12 2 43 0;
#X connect 13 0 25 0;
#X connect 14 0 56 0;
#X connect 15 0 13 1;
#X connect 15 0 26 1;
#X connect 15 0 27 1;
#X connect 15 0 28 1;
#X connect 15 0 29 1;
#X connect 15 0 24 1;
#X connect 15 0 23 1;
#X connect 15 0 22 1;
#X connect 19 0 20 1;
#X connect 20 0 6 0;
#X connect 21 0 20 1;
#X connect 22 0 31 0;
#X connect 23 0 32 0;
#X connect 24 0 33 0;
#X connect 26 0 34 0;
#X connect 27 0 35 0;
#X connect 28 0 36 0;
#X connect 29 0 30 0;
#X connect 37 0 45 0;
#X connect 37 1 46 0;
#X connect 37 2 47 0;
#X connect 37 3 48 0;
#X connect 37 4 49 0;
#X connect 37 5 50 0;
#X connect 37 6 51 0;
#X connect 37 7 52 0;
#X connect 39 0 18 0;
#X connect 40 0 18 0;
#X connect 41 0 43 2;
#X connect 42 0 43 2;
#X connect 43 0 15 1;
#X connect 44 0 39 0;
#X connect 44 1 21 0;
#X connect 44 2 41 0;
#X connect 45 0 13 0;
#X connect 46 0 22 0;
#X connect 47 0 23 0;
#X connect 48 0 24 0;
#X connect 49 0 26 0;
#X connect 50 0 27 0;
#X connect 51 0 28 0;
#X connect 52 0 29 0;
#X connect 53 0 14 0;
#X connect 54 0 53 1;
#X connect 54 1 14 1;
#X connect 55 0 53 1;
#X connect 56 0 55 0;
#X connect 56 1 37 0;
#X connect 57 0 20 0;
#X connect 57 1 40 0;
#X connect 57 2 53 0;
#X connect 57 3 42 0;
