#N canvas 53 95 1592 921 10;
#X obj 90 139 makenote 3.2 500;
#X floatatom 24 25 5 0 0 0 - - -, f 5;
#X floatatom 154 76 5 0 0 0 - - -, f 5;
#X obj 97 220 noteout;
#X floatatom 511 75 5 0 0 0 - - -, f 5;
#X msg 60 48 22;
#X obj 110 287 bng 15 250 50 0 empty empty empty 17 7 0 10 -262144
-1 -1;
#X obj 377 264 bng 15 250 50 0 empty empty empty 17 7 0 10 -262144
-1 -1;
#X obj 191 277 bng 15 250 50 0 empty empty empty 17 7 0 10 -262144
-1 -1;
#X floatatom 279 77 5 0 0 0 - - -, f 5;
#X floatatom 122 334 5 0 0 0 - - -, f 5;
#X floatatom 222 309 5 0 0 0 - - -, f 5;
#X floatatom 377 299 5 0 0 0 - - -, f 5;
#X obj 165 370 ctlout 99 11;
#X obj 276 366 ctlout 98 11;
#X obj 420 349 ctlout 6 11;
#X msg 90 81 33;
#X obj 111 427 bng 15 250 50 0 empty empty empty 17 7 0 10 -262144
-1 -1;
#X obj 205 426 bng 15 250 50 0 empty empty empty 17 7 0 10 -262144
-1 -1;
#X floatatom 123 474 5 0 0 0 - - -, f 5;
#X floatatom 236 458 5 0 0 0 - - -, f 5;
#X obj 166 510 ctlout 0 11;
#X obj 290 515 ctlout 32 11;
#X floatatom 381 440 5 0 0 0 - - -, f 5;
#X obj 403 497 pgmout;
#X obj 202 22 metro 800;
#X floatatom 147 8 5 0 0 0 - - -, f 5;
#X floatatom 438 440 5 0 0 0 - - -, f 5;
#X obj 382 402 bng 15 250 50 0 empty empty empty 17 7 0 10 -262144
-1 -1;
#X obj 231 65 delay;
#X floatatom 273 36 5 0 0 0 - - -, f 5;
#X floatatom 437 120 5 0 0 0 - - -, f 5;
#X floatatom 654 161 5 0 0 0 - - -, f 5;
#X floatatom 549 161 5 0 0 0 - - -, f 5;
#X obj 510 315 noteout;
#X floatatom 630 208 5 0 0 0 - - -, f 5;
#X msg 503 176 70;
#X msg 473 143 65;
#X floatatom 717 211 5 0 0 0 - - -, f 5;
#X obj 721 255 ctlout 43;
#X floatatom 989 582 5 0 0 0 - - -, f 5;
#X floatatom 1244 634 5 0 0 0 - - -, f 5;
#X floatatom 1139 634 5 0 0 0 - - -, f 5;
#X obj 1062 777 noteout;
#X msg 1055 638 70;
#X msg 1025 605 65;
#X msg 1185 734 16;
#X obj 1055 696 makenote 3.2 500;
#X obj 1052 730 stripnote;
#X floatatom 1535 626 5 0 0 0 - - -, f 5;
#X floatatom 1430 626 5 0 0 0 - - -, f 5;
#X msg 1316 597 65;
#X msg 1476 727 16;
#X obj 1346 688 makenote 0 0;
#X obj 503 234 makenote 1 500;
#X obj 1201 773 print x1;
#X obj 1286 813 print x2;
#X obj 1353 769 noteout;
#X obj 1424 197 noteout;
#X msg 1432 153 0;
#X obj 883 27 bng 15 250 50 0 empty empty empty 17 7 0 10 -262144 -1
-1;
#X obj 1008 27 bng 15 250 50 0 empty empty empty 17 7 0 10 -262144
-1 -1;
#X obj 1099 27 bng 15 250 50 0 empty empty empty 17 7 0 10 -262144
-1 -1;
#X obj 996 121 route -1 0;
#X msg 1497 149 11;
#X obj 1263 308 unpack 0 0 0;
#X obj 1263 378 noteout;
#X msg 823 348 11;
#X obj 884 313 unpack 0 0;
#X obj 1263 343 makenote 1;
#X obj 1079 299 unpack 0 0;
#X obj 1398 74 noteout;
#X msg 1347 29 65;
#X msg 1471 26 11;
#X msg 1405 30 1;
#X msg 1373 152 65;
#X obj 883 57 list 4 42 500;
#X obj 1008 57 list -1 65 2;
#X obj 1099 59 list 0 65 3;
#X msg 900 346 1;
#X msg 1108 332 0;
#X obj 884 379 noteout;
#X obj 1079 373 noteout;
#X connect 0 0 3 0;
#X connect 0 1 3 1;
#X connect 1 0 0 0;
#X connect 2 0 0 1;
#X connect 4 0 3 2;
#X connect 5 0 0 0;
#X connect 6 0 10 0;
#X connect 6 0 8 0;
#X connect 7 0 12 0;
#X connect 8 0 11 0;
#X connect 8 0 7 0;
#X connect 9 0 0 2;
#X connect 10 0 13 0;
#X connect 11 0 14 0;
#X connect 12 0 15 0;
#X connect 16 0 0 0;
#X connect 17 0 19 0;
#X connect 17 0 18 0;
#X connect 18 0 20 0;
#X connect 19 0 21 0;
#X connect 20 0 22 0;
#X connect 23 0 24 0;
#X connect 25 0 5 0;
#X connect 25 0 29 0;
#X connect 25 0 37 0;
#X connect 26 0 25 0;
#X connect 27 0 24 1;
#X connect 28 0 23 0;
#X connect 28 0 27 0;
#X connect 29 0 16 0;
#X connect 30 0 29 1;
#X connect 31 0 54 0;
#X connect 32 0 54 2;
#X connect 33 0 54 1;
#X connect 35 0 34 2;
#X connect 35 0 39 2;
#X connect 36 0 54 0;
#X connect 37 0 54 0;
#X connect 38 0 39 0;
#X connect 40 0 47 0;
#X connect 41 0 47 2;
#X connect 42 0 47 1;
#X connect 44 0 47 0;
#X connect 45 0 47 0;
#X connect 46 0 43 2;
#X connect 47 0 48 0;
#X connect 47 1 48 1;
#X connect 48 0 43 0;
#X connect 48 1 43 1;
#X connect 49 0 53 2;
#X connect 50 0 53 1;
#X connect 51 0 53 0;
#X connect 52 0 57 2;
#X connect 53 0 57 0;
#X connect 53 0 55 0;
#X connect 53 1 57 1;
#X connect 53 1 56 0;
#X connect 54 0 34 0;
#X connect 54 1 34 1;
#X connect 59 0 58 1;
#X connect 60 0 76 0;
#X connect 61 0 77 0;
#X connect 62 0 78 0;
#X connect 63 0 68 0;
#X connect 63 1 70 0;
#X connect 63 2 65 0;
#X connect 64 0 58 2;
#X connect 65 1 69 0;
#X connect 65 2 69 2;
#X connect 67 0 66 2;
#X connect 67 0 81 2;
#X connect 67 0 82 2;
#X connect 68 0 81 0;
#X connect 69 0 66 0;
#X connect 69 1 66 1;
#X connect 70 0 82 0;
#X connect 72 0 71 0;
#X connect 73 0 71 2;
#X connect 74 0 71 1;
#X connect 75 0 58 0;
#X connect 76 0 63 0;
#X connect 77 0 63 0;
#X connect 78 0 63 0;
#X connect 79 0 81 1;
#X connect 80 0 82 1;
