#N canvas 340 286 572 446 10;
#X msg 28 91 play \$1;
#X obj 28 15 inlet;
#X obj 419 396 ../pattern;
#X obj 28 396 ../sequence-player;
#X obj 28 51 route play arm;
#X msg 202 253 add2 \$1;
#X msg 100 284 ch \$1;
#X obj 272 396 ../encoder-motion;
#X msg 272 253 set 3 0 127 7;
#X msg 419 282 b d \, p 12;
#X msg 272 283 3 0 127 7 3;
#X obj 102 91 t b b b b b;
#X msg 102 253 34 0 0 \, -1;
#X obj 63 178 ../../common/drone-resize;
#X obj 318 15 r reset;
#X obj 217 15 r ea-1-#;
#X obj 202 230 f;
#X msg 63 141 note 34 \, int 0 \, gran 0.25 \, min 0 \, max 64;
#X connect 0 0 3 0;
#X connect 0 0 13 0;
#X connect 1 0 4 0;
#X connect 4 0 0 0;
#X connect 4 1 11 0;
#X connect 5 0 10 0;
#X connect 6 0 3 0;
#X connect 8 0 10 0;
#X connect 9 0 2 0;
#X connect 10 0 7 0;
#X connect 11 0 17 0;
#X connect 11 0 12 0;
#X connect 11 1 10 0;
#X connect 11 2 16 0;
#X connect 11 3 8 0;
#X connect 11 4 9 0;
#X connect 12 0 3 0;
#X connect 13 0 3 0;
#X connect 14 0 17 0;
#X connect 15 0 16 1;
#X connect 16 0 5 0;
#X connect 16 0 6 0;
#X connect 17 0 13 0;
