#N canvas 54 188 1512 468 10;
#X obj 30 24 key;
#X obj 1000 85 moses 49;
#X obj 1062 85 moses 58;
#X obj 1062 115 - 48;
#X msg 1076 187 11;
#X obj 1143 146 route 113 119 101;
#X msg 1107 187 12;
#X msg 1135 187 13;
#X obj 1254 187 route 97 115 100;
#X msg 1190 226 21;
#X msg 1221 226 22;
#X msg 1253 226 23;
#X obj 1389 226 route 122 120 99;
#X msg 1325 261 31;
#X msg 1356 261 32;
#X msg 1389 261 33;
#X msg 864 115 1;
#X msg 926 115 2;
#X obj 926 85 select 61;
#X obj 864 85 select 45;
#X obj 1000 115 select 48;
#X msg 1000 148 -1;
#X floatatom 30 113 5 0 0 0 - - -;
#X obj 65 84 select 91;
#X obj 128 84 select 93;
#X obj 196 83 select 39;
#X obj 259 83 select 35;
#X msg 65 113 -1;
#X msg 128 114 1;
#X msg 196 113 -1;
#X msg 259 113 1;
#X obj 328 83 select 39;
#X obj 391 83 select 35;
#X msg 328 113 -1;
#X msg 391 113 1;
#X obj 459 83 select 39;
#X obj 522 83 select 35;
#X msg 459 113 -1;
#X msg 522 113 1;
#X msg 590 114 -1;
#X msg 653 114 1;
#X obj 717 84 select 39;
#X obj 780 84 select 35;
#X msg 717 114 -1;
#X msg 780 114 1;
#X obj 590 84 select 46;
#X obj 653 84 select 47;
#X obj 1152 328 s xx-sel;
#X obj 892 330 s xx-tune;
#X obj 1039 330 s xx-reps;
#X obj 734 329 s xx-swing;
#X obj 607 329 s xx-subpart;
#X obj 476 328 s xx-nlb;
#X obj 345 328 s xx-offset;
#X obj 213 328 s xx-br-len;
#X obj 84 328 s xx-note-len;
#X connect 0 0 22 0;
#X connect 1 0 20 0;
#X connect 1 1 2 0;
#X connect 2 0 3 0;
#X connect 2 1 5 0;
#X connect 3 0 49 0;
#X connect 4 0 47 0;
#X connect 5 0 4 0;
#X connect 5 1 6 0;
#X connect 5 2 7 0;
#X connect 5 3 8 0;
#X connect 6 0 47 0;
#X connect 7 0 47 0;
#X connect 8 0 9 0;
#X connect 8 1 10 0;
#X connect 8 2 11 0;
#X connect 8 3 12 0;
#X connect 9 0 47 0;
#X connect 10 0 47 0;
#X connect 11 0 47 0;
#X connect 12 0 13 0;
#X connect 12 1 14 0;
#X connect 12 2 15 0;
#X connect 13 0 47 0;
#X connect 14 0 47 0;
#X connect 15 0 47 0;
#X connect 16 0 48 0;
#X connect 17 0 48 0;
#X connect 18 0 17 0;
#X connect 19 0 16 0;
#X connect 20 0 21 0;
#X connect 21 0 49 0;
#X connect 23 0 27 0;
#X connect 24 0 28 0;
#X connect 25 0 29 0;
#X connect 26 0 30 0;
#X connect 27 0 55 0;
#X connect 28 0 55 0;
#X connect 29 0 54 0;
#X connect 30 0 54 0;
#X connect 31 0 33 0;
#X connect 32 0 34 0;
#X connect 33 0 53 0;
#X connect 34 0 53 0;
#X connect 35 0 37 0;
#X connect 36 0 38 0;
#X connect 37 0 52 0;
#X connect 38 0 52 0;
#X connect 39 0 51 0;
#X connect 40 0 51 0;
#X connect 41 0 43 0;
#X connect 42 0 44 0;
#X connect 43 0 50 0;
#X connect 44 0 50 0;
#X connect 45 0 39 0;
#X connect 46 0 40 0;
