#N canvas 13 154 1680 469 10;
#X obj 193 427 makenote 3.2 500;
#X floatatom 127 313 5 0 0 0 - - -;
#X floatatom 257 364 5 0 0 0 - - -;
#X obj 200 508 noteout;
#X floatatom 608 371 5 0 0 0 - - -;
#X msg 163 336 22;
#X obj 1208 680 bng 15 250 50 0 empty empty empty 17 7 0 10 -262144
-1 -1;
#X obj 1475 657 bng 15 250 50 0 empty empty empty 17 7 0 10 -262144
-1 -1;
#X obj 1289 670 bng 15 250 50 0 empty empty empty 17 7 0 10 -262144
-1 -1;
#X floatatom 382 365 5 0 0 0 - - -;
#X floatatom 1220 727 5 0 0 0 - - -;
#X floatatom 1320 702 5 0 0 0 - - -;
#X floatatom 1475 692 5 0 0 0 - - -;
#X obj 1263 763 ctlout 99 11;
#X obj 1374 759 ctlout 98 11;
#X obj 1518 742 ctlout 6 11;
#X msg 193 369 33;
#X obj 1070 819 bng 15 250 50 0 empty empty empty 17 7 0 10 -262144
-1 -1;
#X obj 1165 815 bng 15 250 50 0 empty empty empty 17 7 0 10 -262144
-1 -1;
#X floatatom 1082 866 5 0 0 0 - - -;
#X floatatom 1195 850 5 0 0 0 - - -;
#X floatatom 1342 847 5 0 0 0 - - -;
#X floatatom 4 7 5 0 0 0 - - -;
#X obj 1343 809 bng 15 250 50 0 empty empty empty 17 7 0 10 -262144
-1 -1;
#X obj 193 242 delay;
#X floatatom 205 179 5 0 0 0 - - -;
#X obj 1218 522 makenote 3.2 500;
#X floatatom 1152 408 5 0 0 0 - - -;
#X floatatom 1407 460 5 0 0 0 - - -;
#X floatatom 1302 460 5 0 0 0 - - -;
#X obj 1225 603 noteout;
#X floatatom 1494 484 5 0 0 0 - - -;
#X msg 1218 464 70;
#X floatatom 1501 569 5 0 0 0 - - -;
#X obj 1501 596 ctlout 43;
#X floatatom 61 8 5 0 0 0 - - -;
#X obj 61 31 expr (60000 / $f1);
#X obj 4 57 metro 1000;
#X text 1489 442 11 chn 1 - 12 chn 2;
#X msg 1188 431 50;
#X obj 1364 904 pgmout 11;
#X obj 1249 907 ctlout 32 11;
#X text 933 839 pattern;
#X text 925 713 controller params;
#X text 1132 942 msb;
#X text 1281 947 lsb;
#X text 1369 954 program;
#X obj 1125 902 ctlout 0 11;
#X obj 221 759 ctlout 42 7;
#X floatatom 207 694 5 0 0 0 - - -;
#X obj 175 649 bng 15 250 50 0 empty empty empty 17 7 0 10 -262144
-1 -1;
#X floatatom 363 727 5 0 0 0 - - -;
#X obj 331 682 bng 15 250 50 0 empty empty empty 17 7 0 10 -262144
-1 -1;
#X obj 377 792 ctlout 43 7;
#X obj 1075 205 noteout;
#X floatatom 1032 76 5 0 0 0 - - -;
#X msg 1159 173 1;
#X msg 1069 75 30;
#X obj 1068 124 makenote 120 1000;
#X msg 1126 76 24;
#X msg 1201 73 54;
#X msg 1251 69 65;
#X obj 1135 21 bng 15 250 50 0 empty empty empty 17 7 0 10 -262144
-1 -1;
#X obj 680 67 osc~;
#X connect 0 0 3 0;
#X connect 0 1 3 1;
#X connect 1 0 0 0;
#X connect 2 0 0 1;
#X connect 4 0 3 2;
#X connect 5 0 0 0;
#X connect 6 0 10 0;
#X connect 6 0 8 0;
#X connect 7 0 12 0;
#X connect 8 0 11 0;
#X connect 8 0 7 0;
#X connect 9 0 0 2;
#X connect 10 0 13 0;
#X connect 11 0 14 0;
#X connect 12 0 15 0;
#X connect 16 0 0 0;
#X connect 17 0 19 0;
#X connect 17 0 18 0;
#X connect 18 0 20 0;
#X connect 18 0 23 0;
#X connect 19 0 47 0;
#X connect 20 0 41 0;
#X connect 21 0 40 0;
#X connect 22 0 37 0;
#X connect 23 0 21 0;
#X connect 24 0 16 0;
#X connect 25 0 24 1;
#X connect 26 0 30 0;
#X connect 26 1 30 1;
#X connect 27 0 26 0;
#X connect 28 0 26 2;
#X connect 29 0 26 1;
#X connect 31 0 30 2;
#X connect 31 0 34 2;
#X connect 32 0 26 0;
#X connect 33 0 34 0;
#X connect 35 0 36 0;
#X connect 36 0 37 1;
#X connect 37 0 5 0;
#X connect 37 0 24 0;
#X connect 37 0 39 0;
#X connect 39 0 26 0;
#X connect 49 0 48 0;
#X connect 50 0 49 0;
#X connect 51 0 53 0;
#X connect 52 0 51 0;
#X connect 55 0 58 0;
#X connect 56 0 54 2;
#X connect 57 0 58 0;
#X connect 58 0 54 0;
#X connect 58 1 54 1;
#X connect 59 0 58 0;
#X connect 60 0 58 0;
#X connect 61 0 58 0;
#X connect 62 0 57 0;
#X connect 62 0 59 0;
#X connect 62 0 60 0;
#X connect 62 0 61 0;
