#N canvas 143 247 472 355 10;
#X obj 118 13 tgl 15 0 empty empty empty 17 7 0 10 -262144 -1 -1 1
1;
#X obj 118 64 metro;
#X obj 118 104 float;
#X obj 118 127 mod 16;
#X obj 184 104 + 1;
#X obj 181 202 + 1;
#X obj 118 230 mod 8;
#X obj 118 202 float;
#X obj 244 211 float;
#X obj 285 264 list;
#X obj 118 160 sel 15;
#X text 162 12 bmp;
#X floatatom 189 13 5 0 0 0 - - -, f 5;
#X obj 189 34 expr (60000 / $f1);
#X text 19 12 reset;
#X obj 61 13 bng 15 250 50 0 empty empty empty 17 7 0 10 -262144 -1
-1;
#X text 96 12 on;
#X msg 61 64 0;
#X obj 313 63 s beat-len;
#X msg 391 264 reset;
#X obj 332 301 choons/a1;
#X obj 244 184 bang;
#X text 29 127 16 steps;
#X text 33 229 8 groups;
#X text 247 303 the tune;
#X connect 0 0 1 0;
#X connect 1 0 2 0;
#X connect 2 0 3 0;
#X connect 2 0 4 0;
#X connect 3 0 10 0;
#X connect 3 0 9 1;
#X connect 3 0 21 0;
#X connect 4 0 2 1;
#X connect 5 0 7 1;
#X connect 6 0 8 1;
#X connect 7 0 5 0;
#X connect 7 0 6 0;
#X connect 8 0 9 0;
#X connect 9 0 20 0;
#X connect 10 0 7 0;
#X connect 12 0 13 0;
#X connect 13 0 1 1;
#X connect 13 0 18 0;
#X connect 15 0 17 0;
#X connect 15 0 19 0;
#X connect 17 0 7 0;
#X connect 17 0 2 1;
#X connect 19 0 20 0;
#X connect 21 0 8 0;
