#N canvas 121 295 450 300 12;
#X obj 23 17 inlet;
#X obj 23 111 until;
#X obj 23 140 f;
#X obj 61 140 + 1;
#X obj 106 139 sel 0;
#X obj 61 166 mod;
#X obj 23 81 t f f;
#X msg 23 52 8;
#X obj 23 218 outlet;
#X obj 23 189 + 64;
#X connect 0 0 7 0;
#X connect 1 0 2 0;
#X connect 2 0 3 0;
#X connect 2 0 9 0;
#X connect 3 0 5 0;
#X connect 4 0 1 1;
#X connect 5 0 2 1;
#X connect 5 0 4 0;
#X connect 6 0 1 0;
#X connect 6 1 5 1;
#X connect 7 0 6 0;
#X connect 9 0 8 0;
