#N canvas 266 190 1508 879 12;
#X obj 324 367 array set \$0-arp;
#X obj 28 9 inlet;
#X text 988 550 vel;
#X obj 69 162 + 1;
#X obj 28 162 f 0;
#X obj 28 270 array get \$0-arp;
#X msg 82 245 1;
#X text 76 8 tick;
#X obj 832 9 inlet;
#X obj 190 12 inlet;
#X text 239 11 reset;
#X text 137 550 note;
#X msg 190 418 const 0;
#X obj 1026 9 inlet;
#X obj 936 9 inlet;
#X text 883 8 note;
#X text 980 8 vel;
#X msg 796 96 set;
#X msg 832 51 add2 \$1;
#X obj 936 551 outlet;
#X obj 81 551 outlet;
#X text 1066 8 chord end;
#X msg 94 124 0;
#X msg 832 144;
#X obj 37 87 t b b;
#X msg 1072 102 add2 0;
#X obj 1026 51 t b b b;
#X obj 28 195 mod 64;
#X obj 756 9 inlet;
#X obj 28 324 sel -1 0;
#X obj 28 51 t b b;
#X text 562 8 alternative sequence chord;
#X obj 37 124 delay 1;
#X msg 378 338 0;
#X obj 363 12 inlet;
#X text 403 13 direction;
#X text 404 27 1 - forward;
#X text 404 40 2 - backward;
#X text 403 56 3 - random;
#X obj 363 206 == 1;
#X obj 456 211 == 2;
#X obj 363 84 t f f f;
#X msg 406 153 1;
#X obj 417 243 spigot;
#X obj 324 239 spigot;
#X obj 417 283 ../common/list-rev;
#X obj 190 450 array define -yrange 0 127 \$0-arp 64;
#X connect 1 0 30 0;
#X connect 3 0 4 1;
#X connect 4 0 3 0;
#X connect 4 0 27 0;
#X connect 5 0 29 0;
#X connect 6 0 5 1;
#X connect 8 0 18 0;
#X connect 9 0 12 0;
#X connect 9 0 17 0;
#X connect 9 0 6 0;
#X connect 9 0 22 0;
#X connect 9 0 33 0;
#X connect 9 0 42 0;
#X connect 12 0 46 0;
#X connect 13 0 26 0;
#X connect 14 0 19 0;
#X connect 17 0 23 0;
#X connect 18 0 23 0;
#X connect 22 0 4 1;
#X connect 23 0 43 0;
#X connect 23 0 44 0;
#X connect 24 0 32 0;
#X connect 24 1 22 0;
#X connect 25 0 23 0;
#X connect 26 0 17 0;
#X connect 26 1 23 0;
#X connect 26 2 25 0;
#X connect 27 0 5 0;
#X connect 28 0 43 0;
#X connect 28 0 44 0;
#X connect 29 1 24 0;
#X connect 29 2 20 0;
#X connect 30 0 4 0;
#X connect 32 0 4 0;
#X connect 33 0 0 1;
#X connect 34 0 41 0;
#X connect 39 0 44 1;
#X connect 40 0 43 1;
#X connect 41 0 39 0;
#X connect 41 1 40 0;
#X connect 42 0 40 0;
#X connect 42 0 39 0;
#X connect 43 0 45 0;
#X connect 44 0 0 0;
#X connect 45 0 0 0;
