#N canvas 85 8 1508 368 12;
#X obj 1161 14 inlet;
#X obj 138 14 inlet;
#X text 726 291 vel;
#X text 186 13 tick;
#X obj 832 14 inlet;
#X obj 229 14 inlet;
#X text 278 13 reset;
#X text 1200 13 step mod;
#X text 636 292 note;
#X obj 1026 14 inlet;
#X obj 936 14 inlet;
#X text 883 13 note;
#X text 980 13 vel;
#X obj 674 292 outlet;
#X obj 580 293 outlet;
#X text 1066 13 chord end;
#X obj 756 14 inlet;
#X text 562 13 alternative sequence chord;
#X obj 1340 14 inlet;
#X text 1378 13 step pos;
#X obj 403 14 inlet;
#X text 443 13 direction;
#X obj 610 152 arp-player;
#X obj 621 232 note-mod;
#X obj 138 54 t b b;
#X obj 13 14 inlet;
#X text 55 13 spigot;
#X obj 808 308 pack 0 0;
#X obj 812 344 print;
#X connect 0 0 23 5;
#X connect 1 0 24 0;
#X connect 4 0 22 4;
#X connect 5 0 22 1;
#X connect 9 0 22 6;
#X connect 10 0 22 5;
#X connect 16 0 22 3;
#X connect 18 0 23 6;
#X connect 20 0 22 2;
#X connect 22 0 23 3;
#X connect 22 1 23 4;
#X connect 23 0 14 0;
#X connect 23 0 27 0;
#X connect 23 1 13 0;
#X connect 23 1 27 1;
#X connect 24 0 23 1;
#X connect 24 1 22 0;
#X connect 25 0 23 1;
#X connect 27 0 28 0;
