#N canvas 308 492 1032 459 12;
#X obj 356 92 chord;
#X obj 624 23 inlet;
#X text 665 22 chord type;
#X obj 821 23 inlet;
#X obj 308 23 inlet;
#X text 315 43 reset;
#X obj 567 23 inlet;
#X obj 237 380 outlet;
#X obj 423 380 outlet;
#X text 565 46 note (must follow chord type);
#X obj 160 23 inlet;
#X obj 30 115 ../controller/note-filter;
#X obj 30 23 inlet;
#X text 37 43 spigot;
#X obj 246 23 inlet;
#X text 251 43 in #;
#X obj 439 23 inlet;
#X text 435 46 alt sequence;
#X obj 868 23 inlet;
#X text 912 22 step mods;
#X text 815 46 array;
#X text 868 46 start pos;
#X text 287 379 note;
#X text 475 379 vel;
#X text 165 43 tick note;
#X obj 95 23 inlet;
#X text 101 43 tick;
#X obj 95 160 spigot;
#X obj 237 350 spigot 0;
#X obj 373 23 inlet;
#X text 362 45 direction;
#X obj 237 319 arp-2, f 27;
#X obj 356 248 spigot 0;
#X obj 301 248 moses 1;
#X obj 30 69 t f f f f;
#X obj 95 205 spigot;
#X obj 372 118 t f f f;
#X obj 341 402 pack 0 0;
#X obj 424 436 print out;
#X connect 0 0 32 0;
#X connect 0 1 36 0;
#X connect 0 2 31 7;
#X connect 1 0 0 1;
#X connect 3 0 31 8;
#X connect 4 0 31 2;
#X connect 6 0 0 0;
#X connect 10 0 11 1;
#X connect 11 3 31 1;
#X connect 12 0 34 0;
#X connect 14 0 11 2;
#X connect 16 0 31 4;
#X connect 18 0 31 9;
#X connect 25 0 27 0;
#X connect 27 0 35 0;
#X connect 28 0 7 0;
#X connect 28 0 37 0;
#X connect 29 0 31 3;
#X connect 31 0 28 0;
#X connect 31 1 8 0;
#X connect 31 1 37 1;
#X connect 32 0 31 5;
#X connect 33 1 31 6;
#X connect 34 0 11 0;
#X connect 34 1 31 0;
#X connect 34 2 28 1;
#X connect 34 3 27 1;
#X connect 35 0 31 1;
#X connect 36 0 35 1;
#X connect 36 1 33 0;
#X connect 36 2 32 1;
