#N canvas 0 0 1509 648 12;
#X obj 1161 14 inlet;
#X obj 138 14 inlet;
#X text 415 587 vel;
#X text 186 13 tick;
#X obj 832 14 inlet;
#X obj 229 14 inlet;
#X text 278 13 reset;
#X text 1200 13 step mod;
#X text 331 587 note;
#X obj 1026 14 inlet;
#X obj 936 14 inlet;
#X text 883 13 note;
#X text 980 13 vel;
#X obj 397 562 outlet;
#X obj 316 562 outlet;
#X text 1066 13 chord end;
#X obj 756 14 inlet;
#X text 562 13 alternative sequence chord;
#X obj 1340 14 inlet;
#X text 1378 13 step pos;
#X obj 403 14 inlet;
#X text 443 13 direction;
#X obj 336 331 arp-player;
#X obj 316 495 note-mod, f 12;
#X obj 13 14 inlet;
#X text 55 13 spigot;
#X obj 138 79 spigot;
#X obj 229 79 t b b;
#X connect 0 0 23 3;
#X connect 1 0 26 0;
#X connect 4 0 22 4;
#X connect 5 0 27 0;
#X connect 9 0 22 6;
#X connect 10 0 22 5;
#X connect 16 0 22 3;
#X connect 18 0 23 4;
#X connect 20 0 22 2;
#X connect 22 0 23 1;
#X connect 22 1 23 2;
#X connect 23 0 14 0;
#X connect 23 1 13 0;
#X connect 24 0 26 1;
#X connect 26 0 22 0;
#X connect 27 0 23 0;
#X connect 27 1 22 1;
