#N canvas 415 122 980 747 12;
#X obj 159 287 arp, f 27;
#X obj 269 215 chord;
#X obj 375 23 inlet;
#X text 426 22 chord type;
#X obj 572 23 inlet;
#X text 576 45 step mod;
#X obj 264 23 inlet;
#X text 271 45 reset;
#X obj 320 23 inlet;
#X obj 159 328 outlet;
#X obj 345 328 outlet;
#X text 326 45 note (must follow chord type);
#X obj 116 23 inlet;
#X obj 30 115 ../controller/note-filter;
#X obj 30 23 inlet;
#X text 43 45 spigot;
#X text 124 45 in note;
#X obj 202 23 inlet;
#X text 207 45 in #;
#X connect 0 0 9 0;
#X connect 0 1 10 0;
#X connect 1 0 0 2;
#X connect 1 1 0 3;
#X connect 1 2 0 4;
#X connect 2 0 1 1;
#X connect 4 0 0 5;
#X connect 6 0 0 1;
#X connect 8 0 1 0;
#X connect 12 0 13 1;
#X connect 13 3 0 0;
#X connect 14 0 13 0;
#X connect 17 0 13 2;
