#N canvas 554 370 911 517 12;
#X obj 264 12 inlet;
#X obj 167 78 unpack 0 0 0 0;
#X text 525 9 0 - off;
#X text 525 23 1 - soft;
#X text 525 37 2 - norm;
#X text 525 52 3 - hard;
#X text 525 66 4 - even;
#X text 524 81 5 - odd;
#X text 524 94 6 - oct+;
#X text 524 108 7 - 1st note;
#X text 524 123 8 - restart;
#X msg 339 203 0 1 2 3 4 5 4 3 2 1 0 1 2 3 4 5;
#X obj 339 278 array set \$0-arp;
#X obj 28 9 inlet;
#X obj 55 166;
#X obj 124 217 bng 15 250 50 0 empty empty empty 17 7 0 10 -262144
-1 -1;
#X obj 122 343 print;
#X floatatom 153 234 5 0 0 0 - - -;
#X obj 124 280 array get \$0-arp;
#X msg 213 230 1;
#X obj 398 79 chord;
#X floatatom 436 41 5 0 0 0 - - -;
#X obj 375 18 r notes;
#X obj 741 61 trigger;
#X obj 348 387 pipe;
#X msg 634 276 67 71 74 79;
#X msg 651 201 set;
#X obj 473 439 outlet;
#X text 540 442 vel;
#X obj 430 109 t f b;
#X msg 595 238 add2 \$1;
#X obj 638 395 print;
#X obj 519 318 array define -yrange 0 127 \$0-arp 16;
#X connect 11 0 12 0;
#X connect 15 0 18 0;
#X connect 17 0 18 0;
#X connect 18 0 16 0;
#X connect 19 0 18 1;
#X connect 20 0 30 0;
#X connect 20 0 12 0;
#X connect 20 1 29 0;
#X connect 21 0 20 1;
#X connect 22 0 20 0;
#X connect 25 0 31 0;
#X connect 26 0 25 0;
#X connect 29 0 27 0;
#X connect 29 1 26 0;
#X connect 30 0 25 0;
