#N canvas 447 149 1221 879 12;
#X obj 799 28 inlet;
#X text 929 26 0 - off;
#X text 929 40 1 - soft;
#X text 929 54 2 - norm;
#X text 929 69 3 - hard;
#X text 929 83 4 - even;
#X text 928 98 5 - odd;
#X text 928 111 6 - oct+;
#X text 928 139 8 - restart;
#X obj 403 329 array set \$0-arp;
#X obj 28 9 inlet;
#X text 627 816 vel;
#X obj 951 361 array define -yrange 0 127 \$0-arp 16;
#X obj 177 153 + 1;
#X obj 135 156 f 0;
#X msg 163 122 0;
#X obj 141 354 array get \$0-arp;
#X msg 195 329 1;
#X text 76 11 tick;
#X obj 334 10 inlet;
#X obj 129 218 mod;
#X obj 188 9 inlet;
#X text 234 12 reset;
#X text 842 28 step mod;
#X obj 958 387 array define -yrange 0 9 \$0-step 16;
#X msg 332 352 1;
#X obj 274 379 array get \$0-step;
#X obj 859 476 array set \$0-step;
#X obj 274 409 select 0 1 2 3 4 5 6 7 8;
#X obj 558 761 f;
#X obj 117 751 f;
#X obj 117 780 + 0;
#X obj 310 481 t b b;
#X obj 292 454 t b b;
#X msg 522 761 20;
#X obj 329 510 t b b;
#X msg 592 762 127;
#X obj 384 457 t b b b b;
#X msg 224 748 12;
#X msg 178 743 0;
#X text 928 125 7 - oct-;
#X obj 402 487 t b b b b;
#X obj 429 656 t b b;
#X obj 355 657 t b b;
#X msg 267 750 -12;
#X text 198 819 note;
#X msg 900 307 const 0;
#X obj 592 344 sel 0;
#X obj 129 280 t f f f f f f;
#X obj 639 398 + 1;
#X obj 597 401 f 0;
#X msg 656 352 0;
#X obj 595 457 mod 2;
#X obj 355 632 spigot 0;
#X obj 429 631 spigot 0;
#X msg 568 582 0;
#X obj 677 588 - 1;
#X obj 677 613 abs;
#X obj 354 224 + 1;
#X obj 312 227 f 0;
#X msg 340 193 0;
#X obj 308 271 mod 16;
#X obj 611 11 inlet;
#X text 661 9 chord size;
#X obj 476 10 inlet;
#X text 385 11 note;
#X text 527 11 vel;
#X msg 469 282;
#X msg 486 207 set;
#X obj 444 120 t f b;
#X msg 430 244 add2 \$1;
#X obj 602 85 t f b;
#X obj 81 82 t b b;
#X obj 107 47 bng 15 250 50 0 empty empty empty 17 7 0 10 -262144 -1
-1;
#X obj 556 816 outlet;
#X msg 889 429 1 2 3 1 2 8;
#X obj 687 276 t b b;
#X obj 117 819 outlet;
#X text 920 155 -1 - random generator;
#X obj 799 96 select -1;
#X obj 757 743 random 8;
#X obj 732 697 until;
#X msg 740 666 16;
#X msg 777 815 1 0 2 7 1 7 2 7 2 3 4 7 4 0 1 0;
#X msg 738 777 add2 \$1;
#X msg 845 754 set;
#X obj 799 153 t b b b;
#X obj 894 835 print;
#X connect 0 0 79 0;
#X connect 10 0 72 0;
#X connect 13 0 14 1;
#X connect 14 0 13 0;
#X connect 14 0 20 0;
#X connect 15 0 14 1;
#X connect 16 0 30 1;
#X connect 17 0 16 1;
#X connect 19 0 70 0;
#X connect 20 0 48 0;
#X connect 21 0 17 0;
#X connect 21 0 15 0;
#X connect 21 0 25 0;
#X connect 21 0 46 0;
#X connect 21 0 51 0;
#X connect 21 0 55 0;
#X connect 25 0 26 1;
#X connect 26 0 28 0;
#X connect 28 1 33 0;
#X connect 28 2 32 0;
#X connect 28 3 35 0;
#X connect 28 4 53 0;
#X connect 28 5 54 0;
#X connect 28 6 37 0;
#X connect 28 7 41 0;
#X connect 28 8 76 0;
#X connect 29 0 74 0;
#X connect 30 0 31 0;
#X connect 31 0 77 0;
#X connect 32 0 30 0;
#X connect 32 1 29 0;
#X connect 33 0 30 0;
#X connect 33 1 34 0;
#X connect 34 0 74 0;
#X connect 35 0 30 0;
#X connect 35 1 36 0;
#X connect 36 0 74 0;
#X connect 37 0 39 0;
#X connect 37 1 30 0;
#X connect 37 2 38 0;
#X connect 37 3 29 0;
#X connect 38 0 31 1;
#X connect 39 0 31 1;
#X connect 41 0 39 0;
#X connect 41 1 30 0;
#X connect 41 2 44 0;
#X connect 41 3 29 0;
#X connect 42 0 30 0;
#X connect 42 1 29 0;
#X connect 43 0 30 0;
#X connect 43 1 29 0;
#X connect 44 0 31 1;
#X connect 46 0 12 0;
#X connect 46 0 24 0;
#X connect 47 0 50 0;
#X connect 48 4 16 0;
#X connect 48 5 47 0;
#X connect 49 0 50 1;
#X connect 50 0 49 0;
#X connect 50 0 52 0;
#X connect 51 0 50 1;
#X connect 52 0 54 1;
#X connect 52 0 56 0;
#X connect 53 0 43 0;
#X connect 54 0 42 0;
#X connect 55 0 54 1;
#X connect 55 0 53 1;
#X connect 56 0 57 0;
#X connect 57 0 53 1;
#X connect 58 0 59 1;
#X connect 59 0 58 0;
#X connect 59 0 61 0;
#X connect 60 0 59 1;
#X connect 61 0 26 0;
#X connect 62 0 71 0;
#X connect 64 0 69 0;
#X connect 67 0 9 0;
#X connect 68 0 67 0;
#X connect 69 0 29 1;
#X connect 69 1 68 0;
#X connect 70 0 67 0;
#X connect 71 0 20 1;
#X connect 71 1 67 0;
#X connect 72 0 14 0;
#X connect 72 1 59 0;
#X connect 73 0 72 0;
#X connect 75 0 27 0;
#X connect 76 0 59 0;
#X connect 76 1 60 0;
#X connect 79 0 86 0;
#X connect 79 1 27 0;
#X connect 80 0 84 0;
#X connect 81 0 80 0;
#X connect 82 0 81 0;
#X connect 83 0 87 0;
#X connect 84 0 83 0;
#X connect 85 0 83 0;
#X connect 86 0 83 0;
#X connect 86 1 82 0;
#X connect 86 2 85 0;
