#N canvas 85 8 1508 879 12;
#X obj 1161 9 inlet;
#X obj 832 491 array set \$0-arp;
#X obj 28 9 inlet;
#X text 565 822 vel;
#X obj 69 162 + 1;
#X obj 28 162 f 0;
#X obj 28 270 array get \$0-arp;
#X msg 82 245 1;
#X text 76 8 tick;
#X obj 832 9 inlet;
#X obj 229 9 inlet;
#X text 278 8 reset;
#X text 1200 8 step mod;
#X obj 567 514 f;
#X obj 136 556 + 0;
#X msg 601 514 127;
#X msg 263 514 12;
#X msg 229 514 0;
#X msg 298 514 -12;
#X text 174 822 note;
#X msg 682 740 const 0;
#X obj 608 178 + 1;
#X obj 566 178 f 0;
#X msg 629 124 0;
#X obj 566 241 mod 16;
#X obj 1026 9 inlet;
#X obj 936 9 inlet;
#X text 883 8 note;
#X text 980 8 vel;
#X msg 848 96 set;
#X msg 832 51 add2 \$1;
#X obj 513 823 outlet;
#X obj 118 823 outlet;
#X text 1172 44 2 - soft;
#X text 1172 58 3 - norm;
#X text 1172 73 4 - hard;
#X text 1171 143 9 - random;
#X obj 682 808 array define -yrange 0 10 \$0-mod 16;
#X obj 1161 192 array set \$0-mod;
#X obj 566 320 array get \$0-mod;
#X text 632 513 soft/norm/hard;
#X obj 496 354 select 0 1 2 3 4 5 6 7 8 9;
#X msg 620 285 1;
#X text 1066 8 chord end;
#X msg 94 124 0;
#X text 1171 115 7 - oct+;
#X text 1171 129 8 - oct-;
#X text 334 513 norm/oct+/oct-;
#X msg 531 514 31;
#X obj 136 514 spigot;
#X msg 142 476 1;
#X msg 175 476 0;
#X text 1172 30 1 - skip;
#X obj 657 423 + 1;
#X obj 657 396 random 8;
#X text 1172 87 5 - odd;
#X text 1171 102 6 - even;
#X obj 352 424 spigot;
#X obj 415 427 spigot;
#X obj 422 345 tgl 15 0 empty empty empty 17 7 0 10 #fcfcfc #000000
#000000 0 1;
#X obj 454 345 tgl 15 0 empty empty empty 17 7 0 10 #fcfcfc #000000
#000000 0 1;
#X obj 566 87 t b b;
#X obj 390 246 sel 0;
#X obj 422 287 t b b;
#X obj 566 210 t f f;
#X msg 832 144 0 0 0 0;
#X obj 37 87 t b b;
#X obj 81 367 t b b b f b;
#X msg 1072 102 add2 0;
#X text 1171 158 0 - restart (default value if less than 16);
#X obj 1026 51 t b b b;
#X obj 28 195 mod 64;
#X obj 756 9 inlet;
#X obj 28 324 sel -1 0;
#X msg 473 287 1;
#X text 389 450 odd/even;
#X obj 28 51 t b b;
#X msg 191 727 0;
#X obj 118 727 f;
#X obj 159 653 delay 100;
#X text 238 652 send note off after note on;
#X text 562 8 alternative sequence chord;
#X obj 1340 9 inlet;
#X text 1378 8 step pos;
#X obj 566 124 delay 1;
#X obj 37 124 delay 1;
#X msg 693 462 56;
#X obj 261 822 pack 0 0;
#X msg 389 287 0;
#X obj 136 622 t f b f;
#X obj 159 683 t b b b;
#X obj 136 586 clip 0 127;
#X msg 952 148 0;
#X msg 1128 144 0;
#X obj 403 9 inlet;
#X text 443 10 direction;
#X text 444 24 1 - forward;
#X text 444 37 2 - backward;
#X text 443 53 3 - random;
#X obj 1033 315 == 1;
#X obj 1126 320 == 2;
#X obj 403 81 t f f f;
#X msg 1084 273 1;
#X obj 1087 352 spigot;
#X obj 994 348 spigot;
#X obj 962 420 ../common/list-rev;
#X obj 697 774 array define -yrange 0 127 \$0-arp 64;
#X connect 0 0 38 0;
#X connect 2 0 76 0;
#X connect 4 0 5 1;
#X connect 5 0 4 0;
#X connect 5 0 71 0;
#X connect 6 0 73 0;
#X connect 7 0 6 1;
#X connect 9 0 30 0;
#X connect 10 0 20 0;
#X connect 10 0 29 0;
#X connect 10 0 42 0;
#X connect 10 0 7 0;
#X connect 10 0 44 0;
#X connect 10 0 17 0;
#X connect 10 0 23 0;
#X connect 10 0 74 0;
#X connect 10 0 88 0;
#X connect 10 0 93 0;
#X connect 10 0 92 0;
#X connect 10 0 102 0;
#X connect 13 0 31 0;
#X connect 13 0 87 1;
#X connect 14 0 91 0;
#X connect 15 0 31 0;
#X connect 15 0 87 1;
#X connect 16 0 14 1;
#X connect 17 0 14 1;
#X connect 18 0 14 1;
#X connect 20 0 37 0;
#X connect 20 0 106 0;
#X connect 21 0 22 1;
#X connect 22 0 21 0;
#X connect 22 0 64 0;
#X connect 23 0 22 1;
#X connect 24 0 39 0;
#X connect 25 0 70 0;
#X connect 26 0 13 1;
#X connect 29 0 65 0;
#X connect 30 0 65 0;
#X connect 39 0 41 0;
#X connect 41 0 61 0;
#X connect 41 1 51 0;
#X connect 41 2 48 0;
#X connect 41 3 13 0;
#X connect 41 4 15 0;
#X connect 41 5 57 0;
#X connect 41 6 58 0;
#X connect 41 7 16 0;
#X connect 41 8 18 0;
#X connect 41 9 54 0;
#X connect 42 0 39 1;
#X connect 44 0 5 1;
#X connect 48 0 31 0;
#X connect 48 0 87 1;
#X connect 49 0 14 0;
#X connect 50 0 49 1;
#X connect 51 0 49 1;
#X connect 53 0 41 0;
#X connect 54 0 53 0;
#X connect 57 0 51 0;
#X connect 58 0 51 0;
#X connect 59 0 57 1;
#X connect 60 0 58 1;
#X connect 61 0 84 0;
#X connect 61 1 23 0;
#X connect 62 1 63 0;
#X connect 63 0 59 0;
#X connect 63 1 60 0;
#X connect 64 0 24 0;
#X connect 64 1 62 0;
#X connect 65 0 103 0;
#X connect 65 0 104 0;
#X connect 66 0 85 0;
#X connect 66 1 44 0;
#X connect 67 0 17 0;
#X connect 67 1 50 0;
#X connect 67 3 49 0;
#X connect 68 0 65 0;
#X connect 70 0 29 0;
#X connect 70 1 65 0;
#X connect 70 2 68 0;
#X connect 71 0 6 0;
#X connect 72 0 103 0;
#X connect 72 0 104 0;
#X connect 73 1 66 0;
#X connect 73 2 67 0;
#X connect 74 0 60 0;
#X connect 76 0 5 0;
#X connect 76 1 22 0;
#X connect 77 0 31 0;
#X connect 78 0 32 0;
#X connect 78 0 87 0;
#X connect 79 0 90 0;
#X connect 82 0 38 1;
#X connect 84 0 22 0;
#X connect 85 0 5 0;
#X connect 86 0 13 1;
#X connect 88 0 59 0;
#X connect 89 0 78 1;
#X connect 89 1 79 0;
#X connect 89 2 32 0;
#X connect 90 0 13 0;
#X connect 90 1 78 0;
#X connect 90 2 77 0;
#X connect 91 0 89 0;
#X connect 92 0 1 1;
#X connect 93 0 38 1;
#X connect 94 0 101 0;
#X connect 99 0 104 1;
#X connect 100 0 103 1;
#X connect 101 0 99 0;
#X connect 101 1 100 0;
#X connect 102 0 100 0;
#X connect 102 0 99 0;
#X connect 103 0 105 0;
#X connect 104 0 1 0;
#X connect 105 0 1 0;
