#N canvas 222 31 1413 879 12;
#X obj 822 11 inlet;
#X obj 375 177 array set \$0-arp;
#X obj 28 9 inlet;
#X text 607 819 vel;
#X obj 951 361 array define -yrange 0 127 \$0-arp 16;
#X obj 171 182 + 1;
#X obj 129 185 f 0;
#X obj 125 343 array get \$0-arp;
#X msg 179 318 1;
#X text 76 11 tick;
#X obj 373 12 inlet;
#X obj 1304 72 inlet;
#X text 1353 72 reset;
#X text 865 11 step mod;
#X obj 564 721 f;
#X obj 117 780 + 0;
#X msg 598 722 127;
#X msg 267 666 12;
#X msg 233 665 0;
#X msg 302 667 -12;
#X text 198 819 note;
#X msg 967 311 const 0;
#X obj 692 306 + 1;
#X obj 650 309 f 0;
#X msg 654 268 0;
#X obj 644 373 mod 16;
#X obj 217 16 inlet;
#X obj 610 15 inlet;
#X text 424 13 note;
#X text 661 16 vel;
#X msg 388 98 set;
#X msg 375 66 add2 \$1;
#X obj 556 816 outlet;
#X obj 117 819 outlet;
#X text 952 23 2 - soft;
#X text 952 37 3 - norm;
#X text 952 52 4 - hard;
#X text 951 122 9 - random;
#X text 951 137 0 - restart (default value);
#X obj 958 387 array define -yrange 0 10 \$0-mod 16;
#X obj 931 229 array set \$0-mod;
#X obj 635 461 array get \$0-mod;
#X text 629 722 soft/norm/hard;
#X obj 121 40 bng 15 250 50 0 empty empty empty 17 7 0 10 #fcfcfc #000000
#000000;
#X msg 603 645 5;
#X obj 612 491 select 0 1 2 3 4 5 6 7 8 9;
#X msg 670 434 1;
#X text 267 14 chord end;
#X msg 147 157 0;
#X obj 129 218 mod 16;
#X obj 555 775 f;
#X text 951 94 7 - oct+;
#X text 951 108 8 - oct-;
#X text 333 666 norm/oct+/oct-;
#X msg 528 721 31;
#X obj 156 628 spigot;
#X msg 188 599 1;
#X msg 230 598 0;
#X text 952 9 1 - skip;
#X obj 773 555 + 1;
#X obj 773 528 random 8;
#X text 952 66 5 - odd;
#X text 951 81 6 - even;
#X obj 374 753 spigot;
#X obj 438 752 spigot;
#X obj 422 723 tgl 15 0 empty empty empty 17 7 0 10 #fcfcfc #000000
#000000 0 1;
#X obj 482 725 tgl 15 0 empty empty empty 17 7 0 10 #fcfcfc #000000
#000000 0 1;
#X obj 620 235 t b b;
#X obj 499 386 sel 0;
#X obj 497 425 t b b;
#X obj 81 82 t b b b;
#X obj 647 341 t f f;
#X floatatom 163 268 5 0 0 0 - - - 0;
#X msg 376 133 20 20 40 40;
#X obj 110 113 t b b;
#X obj 200 402 route 0;
#X msg 947 201 9 9 9 9;
#X obj 172 476 t b b b f b;
#X connect 0 0 40 0;
#X connect 2 0 70 0;
#X connect 5 0 6 1;
#X connect 6 0 5 0;
#X connect 6 0 49 0;
#X connect 7 0 75 0;
#X connect 8 0 7 1;
#X connect 10 0 31 0;
#X connect 11 0 21 0;
#X connect 11 0 30 0;
#X connect 11 0 46 0;
#X connect 11 0 8 0;
#X connect 11 0 48 0;
#X connect 11 0 18 0;
#X connect 11 0 24 0;
#X connect 14 0 50 1;
#X connect 15 0 33 0;
#X connect 16 0 50 1;
#X connect 17 0 15 1;
#X connect 18 0 15 1;
#X connect 19 0 15 1;
#X connect 21 0 4 0;
#X connect 21 0 39 0;
#X connect 22 0 23 1;
#X connect 23 0 22 0;
#X connect 23 0 71 0;
#X connect 24 0 23 1;
#X connect 25 0 41 0;
#X connect 26 0 73 0;
#X connect 27 0 14 1;
#X connect 30 0 73 0;
#X connect 31 0 73 0;
#X connect 41 0 45 0;
#X connect 43 0 70 0;
#X connect 44 0 14 1;
#X connect 45 0 67 0;
#X connect 45 1 57 0;
#X connect 45 2 54 0;
#X connect 45 3 14 0;
#X connect 45 4 16 0;
#X connect 45 5 63 0;
#X connect 45 6 64 0;
#X connect 45 7 17 0;
#X connect 45 8 19 0;
#X connect 45 9 60 0;
#X connect 46 0 41 1;
#X connect 48 0 6 1;
#X connect 49 0 7 0;
#X connect 50 0 32 0;
#X connect 54 0 50 1;
#X connect 55 0 15 0;
#X connect 56 0 55 1;
#X connect 57 0 55 1;
#X connect 59 0 45 0;
#X connect 60 0 59 0;
#X connect 63 0 57 0;
#X connect 64 0 57 0;
#X connect 65 0 63 1;
#X connect 66 0 64 1;
#X connect 67 0 23 0;
#X connect 67 1 24 0;
#X connect 68 0 69 0;
#X connect 69 0 65 0;
#X connect 69 1 66 0;
#X connect 70 0 6 0;
#X connect 70 1 23 0;
#X connect 71 0 25 0;
#X connect 71 1 68 0;
#X connect 72 0 7 0;
#X connect 73 0 1 0;
#X connect 74 0 6 0;
#X connect 74 1 48 0;
#X connect 75 0 74 0;
#X connect 75 1 77 0;
#X connect 76 0 40 0;
#X connect 77 0 18 0;
#X connect 77 1 56 0;
#X connect 77 2 14 0;
#X connect 77 3 55 0;
#X connect 77 4 50 0;
