#N canvas 162 262 1391 606 12;
#X obj 196 17 inlet;
#X text 240 19 spigot;
#X obj 401 445 outlet;
#X obj 257 445 outlet;
#X text 306 444 value;
#X msg 263 114 0;
#X obj 535 19 loadbang;
#X obj 196 50 t f f f f f f f f f;
#X obj 535 48 t b b b b b b b b b;
#X obj 343 140 ../beat/enc-0-9;
#X obj 475 140 ../beat/enc-0-9;
#X obj 601 140 ../beat/enc-0-9;
#X obj 735 140 ../beat/enc-0-9;
#X obj 872 140 ../beat/enc-0-9;
#X obj 1008 140 ../beat/enc-0-9;
#X obj 1146 140 ../beat/enc-0-9;
#X obj 212 281 ../beat/enc-0-9;
#X obj 196 221 t f f f f f f f f f;
#X obj 535 219 t b b b b b b b b b;
#X obj 343 281 ../beat/enc-0-9;
#X obj 475 281 ../beat/enc-0-9;
#X obj 601 281 ../beat/enc-0-9;
#X obj 735 281 ../beat/enc-0-9;
#X obj 872 281 ../beat/enc-0-9;
#X obj 1008 281 ../beat/enc-0-9;
#X obj 1146 281 ../beat/enc-0-9;
#X msg 445 113 1;
#X msg 577 113 2;
#X msg 703 113 3;
#X msg 837 113 4;
#X msg 974 113 5;
#X msg 1110 113 6;
#X msg 1248 113 7;
#X msg 314 254 8;
#X msg 445 254 9;
#X msg 577 254 10;
#X msg 703 254 11;
#X msg 837 254 12;
#X msg 974 254 13;
#X msg 1110 254 14;
#X msg 1248 254 15;
#X msg 74 348 127;
#X obj 23 445 outlet;
#X text 75 444 chord;
#X text 454 444 pos (cc);
#X obj 23 375 ../beat/enc-0-9;
#X msg 125 348 1 1 9;
#X obj 105 318 t b b;
#X obj 212 140 ../beat/enc-0-9;
#X obj 272 85 t b b;
#X msg 314 114 1 1 9;
#X connect 0 0 7 0;
#X connect 5 0 48 1;
#X connect 6 0 8 0;
#X connect 7 0 17 0;
#X connect 7 1 48 0;
#X connect 7 2 9 0;
#X connect 7 3 10 0;
#X connect 7 4 11 0;
#X connect 7 5 12 0;
#X connect 7 6 13 0;
#X connect 7 7 14 0;
#X connect 7 8 15 0;
#X connect 8 0 18 0;
#X connect 8 1 49 0;
#X connect 8 2 26 0;
#X connect 8 3 27 0;
#X connect 8 4 28 0;
#X connect 8 5 29 0;
#X connect 8 6 30 0;
#X connect 8 7 31 0;
#X connect 8 8 32 0;
#X connect 9 0 3 0;
#X connect 9 1 2 0;
#X connect 10 0 3 0;
#X connect 10 1 2 0;
#X connect 11 0 3 0;
#X connect 11 1 2 0;
#X connect 12 0 3 0;
#X connect 12 1 2 0;
#X connect 13 0 3 0;
#X connect 13 1 2 0;
#X connect 14 0 3 0;
#X connect 14 1 2 0;
#X connect 15 0 3 0;
#X connect 15 1 2 0;
#X connect 16 0 3 0;
#X connect 16 1 2 0;
#X connect 17 0 45 0;
#X connect 17 1 16 0;
#X connect 17 2 19 0;
#X connect 17 3 20 0;
#X connect 17 4 21 0;
#X connect 17 5 22 0;
#X connect 17 6 23 0;
#X connect 17 7 24 0;
#X connect 17 8 25 0;
#X connect 18 0 47 0;
#X connect 18 1 33 0;
#X connect 18 2 34 0;
#X connect 18 3 35 0;
#X connect 18 4 36 0;
#X connect 18 5 37 0;
#X connect 18 6 38 0;
#X connect 18 7 39 0;
#X connect 18 8 40 0;
#X connect 19 0 3 0;
#X connect 19 1 2 0;
#X connect 20 0 3 0;
#X connect 20 1 2 0;
#X connect 21 0 3 0;
#X connect 21 1 2 0;
#X connect 22 0 3 0;
#X connect 22 1 2 0;
#X connect 23 0 3 0;
#X connect 23 1 2 0;
#X connect 24 0 3 0;
#X connect 24 1 2 0;
#X connect 25 0 3 0;
#X connect 25 1 2 0;
#X connect 26 0 9 1;
#X connect 27 0 10 1;
#X connect 28 0 11 1;
#X connect 29 0 12 1;
#X connect 30 0 13 1;
#X connect 31 0 14 1;
#X connect 32 0 15 1;
#X connect 33 0 16 1;
#X connect 34 0 19 1;
#X connect 35 0 20 1;
#X connect 36 0 21 1;
#X connect 37 0 22 1;
#X connect 38 0 23 1;
#X connect 39 0 24 1;
#X connect 40 0 25 1;
#X connect 41 0 45 1;
#X connect 45 0 42 0;
#X connect 46 0 45 2;
#X connect 47 0 41 0;
#X connect 47 1 46 0;
#X connect 48 0 3 0;
#X connect 48 1 2 0;
#X connect 49 0 5 0;
#X connect 49 1 50 0;
#X connect 50 0 48 2;
