#N canvas 132 536 571 219 12;
#X obj 21 93 f;
#X msg 39 65 1;
#X obj 62 93 + 1;
#X obj 21 123 sel;
#X obj 216 12 inlet;
#X obj 82 12 loadbang;
#X obj 21 12 inlet;
#X obj 21 158 outlet;
#X text 214 35 number of ticks;
#X text 27 35 tick;
#X obj 156 12 inlet;
#X text 156 35 reset;
#X connect 0 0 2 0;
#X connect 0 0 3 0;
#X connect 1 0 0 1;
#X connect 2 0 0 1;
#X connect 3 0 1 0;
#X connect 3 0 7 0;
#X connect 4 0 3 1;
#X connect 5 0 1 0;
#X connect 6 0 0 0;
#X connect 10 0 1 0;
