#N canvas 167 338 450 300 12;
#X obj 22 18 inlet;
#X obj 118 18 loadbang;
#X obj 72 111 + 1;
#X msg 118 49 0;
#X obj 22 134 f;
#X obj 72 134 sel \$1;
#X obj 72 169 outlet;
#X connect 0 0 4 0;
#X connect 1 0 3 0;
#X connect 2 0 5 0;
#X connect 3 0 4 1;
#X connect 4 0 2 0;
#X connect 5 0 3 0;
#X connect 5 0 6 0;
#X connect 5 1 4 1;
