#N canvas 196 270 255 228 10;
#X obj 32 89 pack 0 0 0 0;
#X obj 32 22 inlet;
#X obj 32 119 ../tools/metro-mult;
#X obj 171 190 bendout;
#X obj 32 152 * 100;
#X obj 32 53 unpack 0 0 0 0 0;
#X text 76 21 step sequence \, channel;
#X connect 0 0 2 0;
#X connect 1 0 5 0;
#X connect 2 0 4 0;
#X connect 4 0 3 0;
#X connect 5 0 0 0;
#X connect 5 1 0 1;
#X connect 5 2 0 2;
#X connect 5 3 0 3;
#X connect 5 4 3 1;
