#N canvas 208 530 271 277 12;
#X obj 46 27 ctlin;
#X obj 46 94 spigot 0;
#X obj 62 121 spigot 0;
#X obj 102 54 ==;
#X obj 46 185 outlet;
#X obj 103 185 outlet;
#X text 46 208 value;
#X text 102 208 controller;
#X obj 120 27 inlet;
#X text 166 26 channel;
#X connect 0 0 1 0;
#X connect 0 1 2 0;
#X connect 0 2 3 0;
#X connect 1 0 4 0;
#X connect 2 0 5 0;
#X connect 3 0 1 1;
#X connect 3 0 2 1;
#X connect 8 0 3 1;
