#N canvas 431 585 325 225 12;
#X obj 26 9 inlet;
#X text 69 8 channel;
#X obj 26 45 cc-in-all;
#X obj 174 9 inlet;
#X text 218 9 ctrl;
#X obj 26 119 spigot 0;
#X obj 86 80 ==;
#X obj 26 156 outlet;
#X text 26 179 value;
#X connect 0 0 2 0;
#X connect 2 0 5 0;
#X connect 2 1 6 0;
#X connect 3 0 6 1;
#X connect 5 0 7 0;
#X connect 6 0 5 1;
