#N canvas 954 87 468 474 12;
#X text 317 81 1) major;
#X obj 30 41 select 1 2 3 4 5 6 7 8 9;
#X text 318 305 9) minor9;
#X text 319 276 8) major9;
#X text 319 248 7) dom7;
#X text 318 219 6) dim;
#X text 318 192 5) minor7_5;
#X text 317 136 3) major7;
#X text 317 108 2) minor;
#X text 318 164 4) minor7;
#X obj 30 8 inlet;
#X obj 30 401 outlet;
#X msg 30 81 0 \, 4 \, 7 \, 12 \, -1;
#X msg 48 108 0 \, 3 \, 7 \, 12 \, -1;
#X msg 66 136 0 \, 4 \, 7 \, 11 \, -1;
#X msg 85 164 0 \, 3 \, 7 \, 10 \, -1;
#X msg 103 192 0 \, 3 \, 6 \, 10 \, -1;
#X msg 121 219 0 \, 3 \, 6 \, 9 \, -1;
#X msg 140 248 0 \, 4 \, 7 \, 10 \, -1;
#X msg 158 276 0 \, 4 \, 7 \, 11 \, 14 \, -1;
#X msg 176 305 0 \, 3 \, 7 \, 10 \, 14 \, -1;
#X connect 1 0 12 0;
#X connect 1 1 13 0;
#X connect 1 2 14 0;
#X connect 1 3 15 0;
#X connect 1 4 16 0;
#X connect 1 5 17 0;
#X connect 1 6 18 0;
#X connect 1 7 19 0;
#X connect 1 8 20 0;
#X connect 10 0 1 0;
#X connect 12 0 11 0;
#X connect 13 0 11 0;
#X connect 14 0 11 0;
#X connect 15 0 11 0;
#X connect 16 0 11 0;
#X connect 17 0 11 0;
#X connect 18 0 11 0;
#X connect 19 0 11 0;
#X connect 20 0 11 0;
