#N canvas 638 363 480 370 12;
#X obj 199 139 chord-map;
#X obj 37 10 inlet;
#X obj 217 10 inlet;
#X text 263 9 chord map;
#X obj 37 43 unpack 0 0;
#X text 91 9 note \, vel;
#X obj 199 113 f;
#X obj 43 215 +;
#X obj 37 73 t b f;
#X obj 43 277 outlet;
#X obj 43 243 clip 0 127;
#X obj 193 277 outlet;
#X text 241 276 vel;
#X text 92 276 note;
#X obj 325 277 outlet;
#X obj 199 165 moses 0;
#X text 376 276 chord-size;
#X connect 0 0 15 0;
#X connect 1 0 4 0;
#X connect 2 0 6 1;
#X connect 4 0 8 0;
#X connect 4 1 11 0;
#X connect 6 0 0 0;
#X connect 7 0 10 0;
#X connect 8 0 6 0;
#X connect 8 1 7 1;
#X connect 10 0 9 0;
#X connect 15 0 14 0;
#X connect 15 1 7 0;
