#N canvas 520 342 508 515 12;
#X obj 199 139 chord-map;
#X obj 37 10 inlet;
#X obj 217 10 inlet;
#X text 263 9 chord map;
#X obj 37 43 unpack 0 0;
#X text 91 9 note \, vel;
#X obj 199 113 f;
#X obj 43 206 +;
#X obj 37 73 t b f;
#X obj 43 329 outlet;
#X obj 43 234 clip 0 127;
#X obj 139 329 outlet;
#X obj 244 329 outlet;
#X obj 199 165 moses 0;
#X obj 139 299 f;
#X obj 43 261 t f b;
#X text 187 328 vel(1);
#X text 87 330 note(2);
#X text 295 328 chord-end;
#X obj 244 261 bang;
#X obj 244 295 spigot 0;
#X obj 157 204 t f f;
#X connect 0 0 13 0;
#X connect 1 0 4 0;
#X connect 2 0 6 1;
#X connect 4 0 8 0;
#X connect 4 1 21 0;
#X connect 6 0 0 0;
#X connect 7 0 10 0;
#X connect 8 0 6 0;
#X connect 8 1 7 1;
#X connect 10 0 15 0;
#X connect 13 0 19 0;
#X connect 13 1 7 0;
#X connect 14 0 11 0;
#X connect 15 0 9 0;
#X connect 15 1 14 0;
#X connect 19 0 20 0;
#X connect 20 0 12 0;
#X connect 21 0 14 1;
#X connect 21 1 20 1;
