#N canvas 21 136 1049 579 10;
#X text 507 104 on;
#X obj 260 7 loadbang;
#X msg 260 39 bang;
#X obj 485 7 midirealtimein;
#X obj 530 105 tgl 15 0 empty empty empty 17 7 0 10 #fcfcfc #000000
#000000 0 1;
#X obj 485 177 spigot 0;
#X obj 271 308 f;
#X msg 286 281 1;
#X obj 312 308 + 1;
#X msg 530 75 1;
#X obj 340 402 f;
#X obj 381 402 + 1;
#X obj 547 472 mod 16;
#X msg 355 377 0;
#X obj 547 502 + 1;
#X obj 493 502 + 1;
#X obj 493 472 mod 32;
#X obj 438 502 + 1;
#X obj 438 472 mod 64;
#X obj 378 502 + 1;
#X obj 378 472 mod 128;
#X obj 317 502 + 1;
#X obj 317 472 mod 256;
#X obj 280 433 sel 511;
#X obj 547 529 s cnt-16;
#X obj 493 529 s cnt-32;
#X obj 438 529 s cnt-64;
#X obj 378 529 s cnt-128;
#X obj 317 529 s cnt-256;
#X obj 485 43 route 248 250 251 252;
#X obj 329 7 r reset;
#X msg 577 75 0;
#X obj 340 433 t f f f f f f b;
#X obj 89 529 s tick;
#X obj 385 7 r reset-song;
#X msg 260 255 6;
#X obj 140 529 s tick-x2;
#X obj 209 529 s tick-x3;
#X obj 271 338 sel 6 3 2;
#X obj 226 362 t b b;
#X connect 1 0 2 0;
#X connect 2 0 13 0;
#X connect 2 0 35 0;
#X connect 3 0 29 0;
#X connect 4 0 5 1;
#X connect 5 0 6 0;
#X connect 6 0 8 0;
#X connect 6 0 38 0;
#X connect 7 0 6 1;
#X connect 8 0 6 1;
#X connect 9 0 4 0;
#X connect 10 0 11 0;
#X connect 10 0 32 0;
#X connect 11 0 10 1;
#X connect 12 0 14 0;
#X connect 13 0 10 1;
#X connect 14 0 24 0;
#X connect 15 0 25 0;
#X connect 16 0 15 0;
#X connect 17 0 26 0;
#X connect 18 0 17 0;
#X connect 19 0 27 0;
#X connect 20 0 19 0;
#X connect 21 0 28 0;
#X connect 22 0 21 0;
#X connect 23 0 13 0;
#X connect 29 0 5 0;
#X connect 29 1 9 0;
#X connect 29 2 9 0;
#X connect 29 3 31 0;
#X connect 30 0 2 0;
#X connect 31 0 4 0;
#X connect 31 0 2 0;
#X connect 32 0 23 0;
#X connect 32 1 22 0;
#X connect 32 2 20 0;
#X connect 32 3 18 0;
#X connect 32 4 16 0;
#X connect 32 5 12 0;
#X connect 34 0 2 0;
#X connect 35 0 6 1;
#X connect 38 0 7 0;
#X connect 38 0 39 0;
#X connect 39 0 33 0;
#X connect 39 1 10 0;
