#N canvas 90 168 1564 443 10;
#X text 579 99 on;
#X obj 31 6 loadbang;
#X msg 31 38 bang;
#X obj 1397 365 s beat-len;
#X obj 557 6 midirealtimein;
#X obj 315 308 + 1;
#X obj 274 308 f;
#X obj 274 338 sel 24;
#X obj 602 100 tgl 15 0 empty empty empty 17 7 0 10 -262144 -1 -1 0
1;
#X obj 274 365 s tick-4;
#X obj 1017 365 s tick-96;
#X obj 557 172 spigot 0;
#X text 647 394 anything over 16 ticks cannot be queued without changing
open counter, f 70;
#X msg 289 283 1;
#X msg 263 257 24;
#X obj 930 308 f;
#X msg 919 257 1;
#X msg 945 283 1;
#X obj 971 308 + 1;
#X obj 930 338 sel 2;
#X obj 930 365 s tick-48;
#X obj 840 308 f;
#X msg 855 283 1;
#X obj 881 308 + 1;
#X msg 829 257 2;
#X obj 840 338 sel 3;
#X obj 840 365 s tick-32;
#X obj 646 308 f;
#X msg 661 281 1;
#X obj 687 308 + 1;
#X obj 746 308 f;
#X msg 761 283 1;
#X obj 787 308 + 1;
#X msg 735 257 4;
#X obj 746 338 sel 4;
#X obj 746 365 s tick-24;
#X obj 549 308 f;
#X msg 564 282 1;
#X obj 590 308 + 1;
#X msg 538 256 8;
#X obj 549 338 sel 8;
#X obj 549 365 s tick-12;
#X msg 635 255 6;
#X obj 646 338 sel 6;
#X obj 646 365 s tick-16;
#X obj 504 308 + 1;
#X obj 463 308 f;
#X msg 478 283 1;
#X msg 452 257 12;
#X obj 463 338 sel 12;
#X obj 463 365 s tick-8;
#X obj 200 308 + 1;
#X obj 159 308 f;
#X msg 174 283 1;
#X msg 148 257 48;
#X obj 159 338 sel 48;
#X obj 159 365 s tick-2;
#X obj 83 308 + 1;
#X obj 42 308 f;
#X msg 57 283 1;
#X msg 31 257 96;
#X msg 602 70 1;
#X obj 42 365 s tick;
#X obj 65 386 s open;
#X obj 88 407 s fern;
#X obj 42 338 sel 96 91 75;
#X obj 417 308 + 1;
#X obj 376 308 f;
#X msg 391 283 1;
#X msg 365 257 16;
#X obj 376 338 sel 16;
#X obj 376 365 s tick-6;
#X obj 1115 238 f;
#X obj 1156 238 + 1;
#X obj 1115 180 r tick-16;
#X obj 1115 269 t f f f f f f;
#X obj 1322 308 mod 16;
#X msg 1130 213 0;
#X obj 1322 338 + 1;
#X obj 1268 338 + 1;
#X obj 1268 308 mod 32;
#X obj 1213 338 + 1;
#X obj 1213 308 mod 64;
#X obj 1153 338 + 1;
#X obj 1153 308 mod 128;
#X obj 1092 338 + 1;
#X obj 1092 308 mod 256;
#X obj 1055 269 sel 511;
#X obj 1322 365 s cnt-16;
#X obj 1268 365 s cnt-32;
#X obj 1213 365 s cnt-64;
#X obj 1153 365 s cnt-128;
#X obj 1092 365 s cnt-256;
#X obj 557 38 route 248 250 251 252;
#X msg 1357 6 1;
#X obj 1397 38 tgl 15 0 empty empty empty 17 7 0 10 -262144 -1 -1 0
1;
#X obj 1397 94 timer;
#X obj 1468 257 +;
#X obj 1468 283 / 2;
#X obj 1412 189 t b f f;
#X obj 1412 214 f 0;
#X obj 1468 338 int;
#X obj 1468 308 + 0.499999;
#X obj 1397 6 r tick-16;
#X obj 1412 163 expr 90000 / (6 * $f1);
#X obj 1397 65 sel 0 1;
#X obj 1468 365 s bpm;
#X obj 100 6 r reset;
#X connect 1 0 2 0;
#X connect 2 0 14 0;
#X connect 2 0 42 0;
#X connect 2 0 48 0;
#X connect 2 0 54 0;
#X connect 2 0 60 0;
#X connect 2 0 24 0;
#X connect 2 0 69 0;
#X connect 2 0 16 0;
#X connect 2 0 77 0;
#X connect 4 0 93 0;
#X connect 5 0 6 1;
#X connect 6 0 5 0;
#X connect 6 0 7 0;
#X connect 7 0 13 0;
#X connect 7 0 9 0;
#X connect 8 0 11 1;
#X connect 11 0 6 0;
#X connect 11 0 27 0;
#X connect 11 0 46 0;
#X connect 11 0 52 0;
#X connect 11 0 58 0;
#X connect 11 0 21 0;
#X connect 11 0 67 0;
#X connect 11 0 15 0;
#X connect 11 0 10 0;
#X connect 11 0 30 0;
#X connect 13 0 6 1;
#X connect 14 0 6 1;
#X connect 15 0 18 0;
#X connect 15 0 19 0;
#X connect 16 0 15 1;
#X connect 17 0 15 1;
#X connect 18 0 15 1;
#X connect 19 0 17 0;
#X connect 19 0 20 0;
#X connect 21 0 23 0;
#X connect 21 0 25 0;
#X connect 22 0 21 1;
#X connect 23 0 21 1;
#X connect 24 0 21 1;
#X connect 25 0 22 0;
#X connect 25 0 26 0;
#X connect 27 0 29 0;
#X connect 27 0 43 0;
#X connect 28 0 27 1;
#X connect 29 0 27 1;
#X connect 30 0 32 0;
#X connect 30 0 34 0;
#X connect 31 0 30 1;
#X connect 32 0 30 1;
#X connect 33 0 30 1;
#X connect 34 0 31 0;
#X connect 34 0 35 0;
#X connect 36 0 38 0;
#X connect 36 0 40 0;
#X connect 37 0 36 1;
#X connect 38 0 36 1;
#X connect 39 0 36 1;
#X connect 40 0 37 0;
#X connect 40 0 41 0;
#X connect 42 0 27 1;
#X connect 43 0 28 0;
#X connect 43 0 44 0;
#X connect 45 0 46 1;
#X connect 46 0 45 0;
#X connect 46 0 49 0;
#X connect 47 0 46 1;
#X connect 48 0 46 1;
#X connect 49 0 47 0;
#X connect 49 0 50 0;
#X connect 51 0 52 1;
#X connect 52 0 51 0;
#X connect 52 0 55 0;
#X connect 53 0 52 1;
#X connect 54 0 52 1;
#X connect 55 0 53 0;
#X connect 55 0 56 0;
#X connect 57 0 58 1;
#X connect 58 0 57 0;
#X connect 58 0 65 0;
#X connect 59 0 58 1;
#X connect 60 0 58 1;
#X connect 61 0 8 0;
#X connect 65 0 59 0;
#X connect 65 0 62 0;
#X connect 65 1 63 0;
#X connect 65 2 64 0;
#X connect 66 0 67 1;
#X connect 67 0 66 0;
#X connect 67 0 70 0;
#X connect 68 0 67 1;
#X connect 69 0 67 1;
#X connect 70 0 68 0;
#X connect 70 0 71 0;
#X connect 72 0 73 0;
#X connect 72 0 75 0;
#X connect 73 0 72 1;
#X connect 74 0 72 0;
#X connect 75 0 87 0;
#X connect 75 1 86 0;
#X connect 75 2 84 0;
#X connect 75 3 82 0;
#X connect 75 4 80 0;
#X connect 75 5 76 0;
#X connect 76 0 78 0;
#X connect 77 0 72 1;
#X connect 78 0 88 0;
#X connect 79 0 89 0;
#X connect 80 0 79 0;
#X connect 81 0 90 0;
#X connect 82 0 81 0;
#X connect 83 0 91 0;
#X connect 84 0 83 0;
#X connect 85 0 92 0;
#X connect 86 0 85 0;
#X connect 87 0 77 0;
#X connect 93 0 11 0;
#X connect 93 1 61 0;
#X connect 94 0 95 0;
#X connect 95 0 105 0;
#X connect 96 0 3 0;
#X connect 96 0 104 0;
#X connect 97 0 98 0;
#X connect 98 0 100 1;
#X connect 98 0 102 0;
#X connect 99 0 100 0;
#X connect 99 2 97 1;
#X connect 100 0 97 0;
#X connect 101 0 106 0;
#X connect 102 0 101 0;
#X connect 103 0 95 0;
#X connect 104 0 99 0;
#X connect 105 0 96 0;
#X connect 105 1 96 1;
#X connect 107 0 2 0;
