#N canvas 843 296 437 355 12;
#X msg 231 86 0;
#X msg 196 86 1;
#X obj 178 120 spigot 0;
#X obj 211 17 inlet;
#X obj 32 17 inlet;
#X obj 64 291 outlet;
#X obj 32 44 t b b;
#X text 76 16 initial tick;
#X obj 211 44 t b b;
#X text 256 16 double ticks;
#X obj 282 291 outlet;
#X text 117 290 tick;
#X text 332 290 done;
#X obj 178 158 t b b b;
#X connect 0 0 2 1;
#X connect 1 0 2 1;
#X connect 2 0 13 0;
#X connect 3 0 8 0;
#X connect 4 0 6 0;
#X connect 6 0 1 0;
#X connect 6 1 5 0;
#X connect 8 0 0 0;
#X connect 8 1 2 0;
#X connect 13 0 10 0;
#X connect 13 1 0 0;
#X connect 13 2 5 0;
