#N canvas 452 134 1043 629 10;
#X msg 194 429 34 0.25 2.75;
#X msg 194 258 add2 \$1;
#X msg 487 258 add2 \$1;
#X msg 152 429 -1;
#X msg 411 429 play 0;
#X obj 40 17 inlet;
#X obj 278 534 outlet;
#X msg 77 294 set 34;
#X msg 77 258 set set \$1;
#X msg 331 429 reset;
#X obj 258 337 t b b b b b;
#X text 603 257 we don't want the note playing on change \, but we
might do!;
#X obj 659 17 r reset;
#X msg 659 92 0;
#X obj 163 92 ../controller/encoder-val;
#X obj 472 92 ../controller/encoder-val;
#X obj 194 202 f;
#X obj 487 202 f;
#X obj 411 471 spigot;
#X obj 40 52 route play note int;
#X obj 163 17 inlet;
#X obj 472 17 inlet;
#X obj 352 17 inlet;
#X obj 727 429 route gran;
#X obj 712 459 /;
#X obj 472 131 t b b b b f f;
#X obj 596 427 route gran;
#X obj 581 457 /;
#X obj 163 131 t b b b b f f;
#X obj 814 519 print choise;
#X obj 712 513 s enc-val;
#X text 46 35 note def;
#X text 170 34 note len;
#X text 351 35 break def;
#X text 480 38 break len;
#X connect 0 0 6 0;
#X connect 1 0 0 0;
#X connect 2 0 0 0;
#X connect 3 0 6 0;
#X connect 4 0 18 0;
#X connect 5 0 19 0;
#X connect 5 0 26 0;
#X connect 7 0 0 0;
#X connect 8 0 7 0;
#X connect 9 0 6 0;
#X connect 10 1 3 0;
#X connect 10 2 0 0;
#X connect 10 3 9 0;
#X connect 10 4 4 0;
#X connect 12 0 13 0;
#X connect 13 0 16 1;
#X connect 13 0 17 1;
#X connect 14 0 28 0;
#X connect 15 0 25 0;
#X connect 16 0 1 0;
#X connect 17 0 2 0;
#X connect 18 0 6 0;
#X connect 19 1 8 0;
#X connect 19 2 18 1;
#X connect 19 3 14 0;
#X connect 20 0 14 0;
#X connect 21 0 15 0;
#X connect 22 0 15 0;
#X connect 22 0 23 0;
#X connect 23 0 24 1;
#X connect 24 0 30 0;
#X connect 25 0 10 0;
#X connect 25 1 17 0;
#X connect 25 2 16 0;
#X connect 25 3 7 0;
#X connect 25 4 17 1;
#X connect 25 5 24 0;
#X connect 26 0 27 1;
#X connect 27 0 30 0;
#X connect 28 0 10 0;
#X connect 28 1 17 0;
#X connect 28 2 16 0;
#X connect 28 3 7 0;
#X connect 28 4 16 1;
#X connect 28 5 27 0;
