#N canvas 777 292 1295 821 10;
#X msg 194 429 34 1.75 1.5;
#X msg 194 258 add2 \$1;
#X msg 355 258 add2 \$1;
#X msg 152 429 -1;
#X msg 411 429 play 0;
#X obj 340 131 t b b b b f;
#X obj 163 131 t b b b b f;
#X obj 40 17 inlet;
#X obj 278 534 outlet;
#X msg 83 294 set 34;
#X msg 83 258 set set \$1;
#X msg 331 429 reset;
#X obj 258 337 t b b b b b;
#X obj 97 17 r reps;
#X msg 82 429 play \$1;
#X text 471 257 we don't want the note playing on change \, but we
might do!;
#X obj 527 17 r reset;
#X msg 527 92 0;
#X obj 163 92 ../controller/encoder-val;
#X obj 340 92 ../controller/encoder-val;
#X obj 340 17 r br-len;
#X obj 163 17 r note-len;
#X obj 194 202 f;
#X obj 355 202 f;
#X obj 82 395 f;
#X obj 411 467 spigot;
#X obj 40 52 route play note int;
#X connect 0 0 8 0;
#X connect 1 0 0 0;
#X connect 2 0 0 0;
#X connect 3 0 8 0;
#X connect 4 0 25 0;
#X connect 5 0 12 0;
#X connect 5 1 23 0;
#X connect 5 2 22 0;
#X connect 5 3 9 0;
#X connect 5 4 23 1;
#X connect 6 0 12 0;
#X connect 6 1 23 0;
#X connect 6 2 22 0;
#X connect 6 3 9 0;
#X connect 6 4 22 1;
#X connect 7 0 26 0;
#X connect 9 0 0 0;
#X connect 10 0 9 0;
#X connect 11 0 8 0;
#X connect 12 0 24 0;
#X connect 12 1 3 0;
#X connect 12 2 0 0;
#X connect 12 3 11 0;
#X connect 12 4 4 0;
#X connect 13 0 24 1;
#X connect 16 0 17 0;
#X connect 17 0 22 1;
#X connect 17 0 23 1;
#X connect 18 0 6 0;
#X connect 19 0 5 0;
#X connect 20 0 19 0;
#X connect 21 0 18 0;
#X connect 22 0 1 0;
#X connect 23 0 2 0;
#X connect 24 0 14 0;
#X connect 25 0 8 0;
#X connect 26 1 10 0;
#X connect 26 2 25 1;
#X connect 26 3 19 0;
#X connect 26 3 18 0;
