#N canvas 801 221 1295 821 10;
#X msg 194 429 34 0 0;
#X msg 194 258 add2 \$1;
#X msg 487 254 add2 \$1;
#X msg 152 429 -1;
#X msg 411 429 play 0;
#X obj 472 127 t b b b b f;
#X obj 163 131 t b b b b f;
#X obj 40 17 inlet;
#X obj 278 534 outlet;
#X msg 77 294 set 34;
#X msg 77 258 set set \$1;
#X msg 331 429 reset;
#X obj 258 337 t b b b b b;
#X text 603 253 we don't want the note playing on change \, but we
might do!;
#X obj 659 17 r reset;
#X msg 659 88 0;
#X obj 163 92 ../controller/encoder-val;
#X obj 472 88 ../controller/encoder-val;
#X obj 194 202 f;
#X obj 487 198 f;
#X obj 411 471 spigot;
#X obj 40 52 route play note int;
#X obj 163 17 inlet;
#X obj 472 17 inlet;
#X obj 352 17 inlet;
#X connect 0 0 8 0;
#X connect 1 0 0 0;
#X connect 2 0 0 0;
#X connect 3 0 8 0;
#X connect 4 0 20 0;
#X connect 5 0 12 0;
#X connect 5 1 19 0;
#X connect 5 2 18 0;
#X connect 5 3 9 0;
#X connect 5 4 19 1;
#X connect 6 0 12 0;
#X connect 6 1 19 0;
#X connect 6 2 18 0;
#X connect 6 3 9 0;
#X connect 6 4 18 1;
#X connect 7 0 21 0;
#X connect 9 0 0 0;
#X connect 10 0 9 0;
#X connect 11 0 8 0;
#X connect 12 1 3 0;
#X connect 12 2 0 0;
#X connect 12 3 11 0;
#X connect 12 4 4 0;
#X connect 14 0 15 0;
#X connect 15 0 18 1;
#X connect 15 0 19 1;
#X connect 16 0 6 0;
#X connect 17 0 5 0;
#X connect 18 0 1 0;
#X connect 19 0 2 0;
#X connect 20 0 8 0;
#X connect 21 1 10 0;
#X connect 21 2 20 1;
#X connect 21 3 16 0;
#X connect 22 0 16 0;
#X connect 23 0 17 0;
#X connect 24 0 17 0;
