#N canvas 777 292 1295 821 10;
#X obj 163 133 spigot;
#X obj 163 17 r note_len;
#X obj 340 133 spigot;
#X obj 340 17 r br_len;
#X obj 199 240 float;
#X msg 199 467 34 4 0;
#X msg 199 296 add2 \$1;
#X obj 376 240 float;
#X msg 376 296 add2 \$1;
#X msg 152 467 -1;
#X msg 411 467 play 0;
#X obj 340 169 t b b b b f;
#X obj 163 169 t b b b b f;
#X obj 40 17 inlet;
#X obj 275 517 outlet;
#X obj 40 52 route play note;
#X msg 83 332 set 34;
#X msg 83 296 set set \$1;
#X msg 331 467 reset;
#X obj 258 375 t b b b b b;
#X obj 109 17 r reps;
#X obj 82 433 float;
#X msg 82 467 play \$1;
#X text 471 295 we don't want the note playing on change \, but we
might do!;
#X obj 527 17 r reset;
#X obj 163 92 ../controller/encoder_val;
#X msg 527 92 0;
#X obj 340 92 ../controller/encoder_val;
#X connect 0 0 12 0;
#X connect 1 0 25 0;
#X connect 2 0 11 0;
#X connect 3 0 27 0;
#X connect 4 0 6 0;
#X connect 5 0 14 0;
#X connect 6 0 5 0;
#X connect 7 0 8 0;
#X connect 8 0 5 0;
#X connect 9 0 14 0;
#X connect 10 0 14 0;
#X connect 11 0 19 0;
#X connect 11 1 7 0;
#X connect 11 2 4 0;
#X connect 11 3 16 0;
#X connect 11 4 7 1;
#X connect 12 0 19 0;
#X connect 12 1 7 0;
#X connect 12 2 4 0;
#X connect 12 3 16 0;
#X connect 12 4 4 1;
#X connect 13 0 15 0;
#X connect 15 0 0 1;
#X connect 15 0 2 1;
#X connect 15 1 17 0;
#X connect 15 2 25 0;
#X connect 15 2 27 0;
#X connect 16 0 5 0;
#X connect 17 0 16 0;
#X connect 18 0 14 0;
#X connect 19 0 21 0;
#X connect 19 1 9 0;
#X connect 19 2 5 0;
#X connect 19 3 18 0;
#X connect 19 4 10 0;
#X connect 20 0 21 1;
#X connect 21 0 22 0;
#X connect 24 0 26 0;
#X connect 25 0 0 0;
#X connect 26 0 7 1;
#X connect 26 0 4 1;
#X connect 27 0 2 0;
