#N canvas 179 71 1006 891 12;
#X obj 261 27 inlet;
#X obj 419 419 select 0 1 2 3 4 5 6;
#X text 564 180 0 sine;
#X text 564 210 2 saw-12;
#X text 564 226 3 triangle-12;
#X text 564 240 4 square-4;
#X text 564 254 5 square-12;
#X text 563 269 6 cosine;
#X obj 27 27 inlet;
#X obj 27 257 f;
#X obj 66 257 + 1;
#X obj 27 547 * 64;
#X obj 27 852 outlet;
#X obj 125 682 + 1;
#X obj 125 707 * 64;
#X obj 125 852 outlet;
#X obj 626 27 array define \$0-wave 67;
#X msg 419 444 add sinesum 64 1;
#X msg 438 467 add sinesum 64 0.5 0.33 0.25;
#X msg 499 586 add sinesum 64 1 0 0.5 0;
#X msg 479 547 add sinesum 64 1 0 -0.111111 0 0.04 0 -0.0204082 0 0.0123457
0 -0.00826446 0, f 38;
#X msg 458 491 add sinesum 64 0.5 0.33 0.25 0.166667 0.142857 0.125
0.111111 0.1 0.090909 0.833333 0.076923, f 37;
#X msg 536 654 add cosinesum 64 0 0 1;
#X msg 405 245 addsemi;
#X msg 400 219 set;
#X obj 409 281 f \$0;
#X obj 410 334 f \$0;
#X msg 412 386 add2 normalize 1;
#X obj 261 189 t b b b b f b b b;
#X msg 276 771 \; 1072-wave sinesum 64 1 \; 1072-wave normalize 1;
#X msg 409 306 add2 \$1-wave;
#X msg 410 358 add2 \$1-wave;
#X msg 515 613 add sinesum 64 1 0 0.2 0 0.1 0 0.08 0 0.05 0 0.03,
f 39;
#X text 564 196 1 saw-4;
#X text 74 26 tick;
#X obj 27 313 > 64;
#X obj 27 340 sel 0 1;
#X obj 27 372 f;
#X obj 27 287 t f f;
#X obj 27 513 tabread \$0-wave;
#X obj 800 277 f;
#X obj 832 277 + 1;
#X msg 818 223 -1;
#X obj 850 247 / 67;
#X msg 850 223 2;
#X obj 800 362 sel 0 1;
#X obj 800 392 f;
#X obj 800 335 > 1;
#X obj 800 306 t f f;
#X obj 800 418 t f b;
#X obj 832 449 spigot 0;
#X msg 901 418 0;
#X msg 868 418 1;
#X obj 832 476 delay 1;
#X obj 893 526 f;
#X obj 929 526 + 1;
#X msg 911 502 0;
#X obj 800 189 t b b b b b;
#X obj 826 771 tabwrite \$0-wave;
#X obj 261 127 moses 100;
#X obj 261 102 t b f;
#X obj 800 158 select 100;
#X text 675 180 100 ramp-up;
#X obj 92 220 f;
#X obj 826 526 t f b;
#X msg 111 190 0;
#X obj 94 456 - 64;
#X obj 94 482 abs;
#X obj 27 425 spigot 1;
#X obj 94 428 spigot 0;
#X obj 80 372 - 1;
#X obj 80 398 abs;
#X obj 125 822 change;
#X obj 27 822 change;
#X obj 125 735 int;
#X obj 27 735 int;
#X obj 160 682 / 2;
#X text 304 26 wave shape | step size | start pos | output range |
dir 0-normal 1-reverse | cut off, f 39;
#X obj 261 74 route wave step pos range dir cut;
#X obj 125 793 moses 200;
#X obj 27 764 moses -200;
#X obj 70 735 * -1;
#X obj 27 793 moses 200;
#X connect 0 0 78 0;
#X connect 1 0 17 0;
#X connect 1 1 18 0;
#X connect 1 2 21 0;
#X connect 1 3 20 0;
#X connect 1 4 19 0;
#X connect 1 5 32 0;
#X connect 1 6 22 0;
#X connect 8 0 9 0;
#X connect 9 0 10 0;
#X connect 9 0 38 0;
#X connect 10 0 9 1;
#X connect 11 0 75 0;
#X connect 13 0 14 0;
#X connect 14 0 74 0;
#X connect 17 0 29 0;
#X connect 18 0 29 0;
#X connect 19 0 29 0;
#X connect 20 0 29 0;
#X connect 21 0 29 0;
#X connect 22 0 29 0;
#X connect 23 0 29 0;
#X connect 24 0 29 0;
#X connect 25 0 30 0;
#X connect 26 0 31 0;
#X connect 27 0 29 0;
#X connect 28 1 29 0;
#X connect 28 2 27 0;
#X connect 28 3 26 0;
#X connect 28 4 1 0;
#X connect 28 5 25 0;
#X connect 28 6 23 0;
#X connect 28 7 24 0;
#X connect 30 0 29 0;
#X connect 31 0 29 0;
#X connect 32 0 29 0;
#X connect 35 0 36 0;
#X connect 36 0 37 0;
#X connect 36 1 63 0;
#X connect 37 0 68 0;
#X connect 37 0 69 0;
#X connect 38 0 35 0;
#X connect 38 1 37 1;
#X connect 39 0 11 0;
#X connect 39 0 13 0;
#X connect 40 0 41 0;
#X connect 40 0 48 0;
#X connect 41 0 40 1;
#X connect 42 0 40 1;
#X connect 43 0 41 1;
#X connect 44 0 43 0;
#X connect 45 0 46 0;
#X connect 45 0 52 0;
#X connect 45 1 51 0;
#X connect 46 0 49 0;
#X connect 47 0 45 0;
#X connect 48 0 47 0;
#X connect 48 1 46 1;
#X connect 49 0 64 0;
#X connect 49 1 50 0;
#X connect 50 0 53 0;
#X connect 51 0 50 1;
#X connect 52 0 50 1;
#X connect 53 0 40 0;
#X connect 54 0 55 0;
#X connect 54 0 58 1;
#X connect 55 0 54 1;
#X connect 56 0 54 1;
#X connect 57 0 40 0;
#X connect 57 1 52 0;
#X connect 57 2 42 0;
#X connect 57 3 44 0;
#X connect 57 4 56 0;
#X connect 59 0 28 0;
#X connect 59 1 61 0;
#X connect 60 0 65 0;
#X connect 60 1 59 0;
#X connect 61 0 57 0;
#X connect 63 0 9 1;
#X connect 64 0 58 0;
#X connect 64 1 54 0;
#X connect 65 0 63 1;
#X connect 66 0 67 0;
#X connect 67 0 39 0;
#X connect 68 0 39 0;
#X connect 69 0 66 0;
#X connect 70 0 71 0;
#X connect 71 0 68 1;
#X connect 72 0 15 0;
#X connect 73 0 12 0;
#X connect 74 0 79 0;
#X connect 75 0 80 0;
#X connect 76 0 14 1;
#X connect 78 0 60 0;
#X connect 78 1 10 1;
#X connect 78 2 63 1;
#X connect 78 3 11 1;
#X connect 78 3 66 1;
#X connect 78 3 76 0;
#X connect 78 4 70 0;
#X connect 78 4 69 1;
#X connect 78 5 79 1;
#X connect 78 5 81 0;
#X connect 78 5 82 1;
#X connect 79 0 72 0;
#X connect 80 1 82 0;
#X connect 81 0 80 1;
#X connect 82 0 73 0;
