#N canvas 1127 323 313 316 12;
#X obj 17 91 until;
#X obj 17 122 f;
#X obj 52 122 + 1;
#X msg 17 147 get \$1 1;
#X obj 17 176 list store;
#X obj 17 205 outlet;
#X obj 84 205 outlet;
#X obj 17 7 inlet;
#X msg 40 63 0;
#X obj 17 35 t b b l;
#X connect 0 0 1 0;
#X connect 1 0 2 0;
#X connect 1 0 3 0;
#X connect 2 0 1 1;
#X connect 3 0 4 0;
#X connect 4 0 5 0;
#X connect 4 1 0 1;
#X connect 4 1 6 0;
#X connect 7 0 9 0;
#X connect 8 0 1 1;
#X connect 9 0 0 0;
#X connect 9 1 8 0;
#X connect 9 2 4 1;
