#N canvas 622 370 287 433 12;
#X obj 27 14 inlet;
#X obj 92 122 until;
#X obj 115 96 0;
#X obj 92 66 t b b a;
#X obj 92 153 f;
#X obj 127 153 + 1;
#X msg 92 184 get \$1 1;
#X obj 92 251 list store;
#X obj 92 372 outlet;
#X obj 92 14 inlet;
#X obj 92 301 spigot 0;
#X msg 159 277 1;
#X obj 27 184 random;
#X msg 27 218 get \$1 1;
#X connect 0 0 12 0;
#X connect 1 0 4 0;
#X connect 2 0 4 1;
#X connect 3 0 1 0;
#X connect 3 1 2 0;
#X connect 3 2 7 1;
#X connect 4 0 5 0;
#X connect 4 0 6 0;
#X connect 4 0 12 1;
#X connect 5 0 4 1;
#X connect 6 0 7 0;
#X connect 7 0 10 0;
#X connect 7 1 1 1;
#X connect 7 1 11 0;
#X connect 9 0 3 0;
#X connect 10 0 8 0;
#X connect 11 0 10 1;
#X connect 12 0 13 0;
#X connect 13 0 7 0;
