#N canvas 532 303 412 408 12;
#X obj 155 8 inlet;
#X obj 195 354 outlet;
#X obj 239 162 list store;
#X msg 252 108 prepend \$1;
#X obj 239 193 route bang;
#X msg 195 313 48 45 42 38 48 45 42 38 55 52 49 45 55 52 49 45;
#X msg 306 262 add2 \$1;
#X msg 48 244 set;
#X obj 155 107 t b b b b;
#X obj 155 41 list-drip;
#X obj 306 230 list-drip;
#X obj 48 9 loadbang;
#X obj 155 74 sel 0;
#X obj 354 127 bng 15 250 50 0 empty empty empty 17 7 0 10 #fcfcfc
#000000 #000000;
#X connect 0 0 9 0;
#X connect 2 0 4 0;
#X connect 3 0 2 0;
#X connect 4 1 10 0;
#X connect 5 0 1 0;
#X connect 6 0 5 0;
#X connect 7 0 5 0;
#X connect 8 0 7 0;
#X connect 8 1 2 1;
#X connect 8 2 5 0;
#X connect 8 3 2 0;
#X connect 9 0 12 0;
#X connect 10 0 6 0;
#X connect 11 0 7 0;
#X connect 11 0 2 1;
#X connect 12 0 8 0;
#X connect 12 1 3 0;
#X connect 13 0 2 1;
