#N canvas 271 161 1216 735 12;
#X obj 30 642 outlet;
#X obj 30 20 inlet;
#X obj 190 20 loadbang;
#X obj 139 642 ../apc/ctl-pad-light;
#X obj 315 452 f;
#X obj 145 452 f;
#X obj 102 452 f;
#X msg 145 491 \$1 1;
#X msg 102 491 \$1 0;
#X text 29 666 arm;
#X obj 188 452 f;
#X msg 188 491 \$1 2;
#X obj 491 642 outlet;
#X obj 30 109 t b f;
#X obj 701 642 outlet;
#X text 710 666 mute/unmute;
#X obj 563 642 outlet;
#X text 564 666 record;
#X obj 643 642 outlet;
#X msg 232 491 \$1 3;
#X msg 272 491 \$1 4;
#X obj 30 59 route sel thru record clear mute;
#X obj 272 452 f;
#X obj 232 452 f;
#X obj 139 383 t f f f f f f;
#X obj 30 196 spigot 1;
#X msg 116 144 0;
#X msg 162 144 1;
#X obj 130 20 r reset;
#X obj 30 226 t b b b;
#X msg 315 491 \$1 5;
#X text 491 666 thru;
#X text 644 666 clear;
#X msg 279 550 set \$1 \$2;
#X msg 279 579 0 1;
#X obj 839 300 ../tools/toggle-sel;
#X obj 432 381 ../tools/toggle-sel;
#X obj 432 292 ../tools/toggle-sel;
#X msg 364 552 set \$1 \$2;
#X msg 364 581 8 1;
#X obj 432 343 t b b;
#X obj 839 265 spigot;
#X obj 432 248 spigot;
#X obj 320 322 spigot;
#X obj 701 509 t f f;
#X obj 733 542 == 0;
#X obj 563 509 t f f;
#X obj 491 509 t f f;
#X obj 595 542 == 0;
#X obj 523 542 == 0;
#X msg 878 240 1;
#X msg 471 223 1;
#X msg 359 292 1;
#X obj 162 109 t b b b b b b;
#X connect 1 0 21 0;
#X connect 2 0 53 0;
#X connect 4 0 30 0;
#X connect 5 0 7 0;
#X connect 6 0 8 0;
#X connect 7 0 3 0;
#X connect 7 0 33 0;
#X connect 8 0 3 0;
#X connect 10 0 11 0;
#X connect 11 0 3 0;
#X connect 13 0 25 0;
#X connect 13 1 24 0;
#X connect 19 0 3 0;
#X connect 19 0 33 0;
#X connect 20 0 3 0;
#X connect 21 0 13 0;
#X connect 21 1 41 0;
#X connect 21 2 42 0;
#X connect 21 3 53 0;
#X connect 21 4 43 0;
#X connect 22 0 20 0;
#X connect 23 0 19 0;
#X connect 24 0 6 1;
#X connect 24 1 5 1;
#X connect 24 2 10 1;
#X connect 24 3 23 1;
#X connect 24 4 22 1;
#X connect 24 5 4 1;
#X connect 25 0 29 0;
#X connect 26 0 25 1;
#X connect 27 0 25 1;
#X connect 28 0 53 0;
#X connect 29 0 0 0;
#X connect 29 1 4 0;
#X connect 29 2 26 0;
#X connect 30 0 3 0;
#X connect 30 0 33 0;
#X connect 33 0 34 0;
#X connect 34 0 3 0;
#X connect 35 0 34 0;
#X connect 35 1 10 0;
#X connect 35 2 47 0;
#X connect 36 0 5 0;
#X connect 36 1 23 0;
#X connect 36 2 44 0;
#X connect 37 0 40 0;
#X connect 37 1 22 0;
#X connect 37 2 46 0;
#X connect 38 0 39 0;
#X connect 40 0 36 0;
#X connect 40 1 36 0;
#X connect 41 0 35 0;
#X connect 42 0 37 0;
#X connect 43 0 36 0;
#X connect 44 0 14 0;
#X connect 44 1 45 0;
#X connect 45 0 42 1;
#X connect 45 0 41 1;
#X connect 46 0 16 0;
#X connect 46 1 48 0;
#X connect 47 0 12 0;
#X connect 47 1 49 0;
#X connect 48 0 41 1;
#X connect 48 0 43 1;
#X connect 49 0 42 1;
#X connect 49 0 43 1;
#X connect 50 0 41 1;
#X connect 51 0 42 1;
#X connect 52 0 43 1;
#X connect 53 0 27 0;
#X connect 53 1 4 0;
#X connect 53 2 18 0;
#X connect 53 3 50 0;
#X connect 53 4 51 0;
#X connect 53 5 52 0;
