#N canvas 261 385 857 571 12;
#X obj 36 18 inlet;
#X obj 135 18 r notes;
#X obj 223 398 unpack 0 0;
#X obj 65 448 spigot;
#X msg 52 304 1;
#X obj 135 448 spigot;
#X msg 174 304 0;
#X obj 69 116 t f f f f;
#X obj 239 333 spigot;
#X msg 299 304 1;
#X obj 103 74 t f f;
#X obj 299 176 sel 0;
#X obj 104 304 == 0;
#X obj 223 18 r tick-48;
#X obj 36 48 looper-sel;
#X obj 223 366 seq-rec-poly;
#X obj 550 18 inlet;
#X text 592 17 channel;
#X obj 135 495 outlet;
#X obj 204 495 outlet;
#X text 204 514 velocity;
#X text 136 514 note;
#X obj 36 176 t b b b b b b b b;
#X obj 345 269 f 32;
#X obj 370 18 inlet;
#X text 416 17 steps (seq-len);
#X obj 518 495 panic;
#X connect 0 0 14 0;
#X connect 1 0 5 0;
#X connect 1 0 8 0;
#X connect 2 0 3 0;
#X connect 2 1 19 0;
#X connect 3 0 18 0;
#X connect 4 0 3 1;
#X connect 5 0 18 0;
#X connect 6 0 5 1;
#X connect 7 1 5 1;
#X connect 7 2 8 1;
#X connect 7 3 15 2;
#X connect 8 0 15 1;
#X connect 9 0 15 3;
#X connect 10 0 12 0;
#X connect 10 1 11 0;
#X connect 11 0 9 0;
#X connect 11 1 26 0;
#X connect 12 0 3 1;
#X connect 13 0 15 0;
#X connect 14 0 22 0;
#X connect 14 1 5 1;
#X connect 14 2 7 0;
#X connect 14 3 22 0;
#X connect 14 4 10 0;
#X connect 15 0 2 0;
#X connect 16 0 26 1;
#X connect 22 1 4 0;
#X connect 22 2 15 4;
#X connect 22 3 6 0;
#X connect 22 4 9 0;
#X connect 22 5 26 0;
#X connect 22 6 23 0;
#X connect 23 0 15 5;
#X connect 24 0 23 1;
