#N canvas 684 168 722 384 12;
#X obj 46 135 spigot 0;
#X obj 65 161 spigot 0;
#X obj 118 81 ==;
#X obj 46 227 outlet;
#X obj 103 227 outlet;
#X obj 46 27 notein;
#X text 46 249 note;
#X text 102 249 velocity;
#X text 251 26 channel;
#X obj 210 27 inlet;
#X obj 46 81 spigot;
#X obj 104 27 inlet;
#X text 152 26 on/off;
#X obj 368 26 midirealtimein;
#X obj 368 119 spigot;
#X obj 368 225 outlet;
#X text 367 247 realtime;
#X obj 368 155 select 250 252 248;
#X msg 368 184 250;
#X msg 409 184 252;
#X msg 450 184 248;
#X obj 505 26 inlet;
#X obj 463 59 ==;
#X text 552 25 channel;
#X obj 368 82 spigot;
#X connect 0 0 3 0;
#X connect 1 0 4 0;
#X connect 2 0 0 1;
#X connect 2 0 1 1;
#X connect 5 0 10 0;
#X connect 5 1 1 0;
#X connect 5 2 2 0;
#X connect 9 0 2 1;
#X connect 10 0 0 0;
#X connect 11 0 10 1;
#X connect 11 0 24 1;
#X connect 13 0 24 0;
#X connect 13 1 22 0;
#X connect 14 0 17 0;
#X connect 17 0 18 0;
#X connect 17 1 19 0;
#X connect 17 2 20 0;
#X connect 18 0 15 0;
#X connect 19 0 15 0;
#X connect 20 0 15 0;
#X connect 21 0 22 1;
#X connect 22 0 14 1;
#X connect 24 0 14 0;
