#N canvas 299 162 1133 1020 10;
#X msg 81 94 next;
#X msg 162 94 reset;
#X msg 119 300 1;
#X obj 140 332 pack 0 0 0;
#X obj 120 228 unpack 0 0 0;
#X obj 394 204 *;
#X obj 197 300 *;
#X obj 394 238 delay;
#X obj 390 275 float;
#X obj 483 275 + 1;
#X obj 34 190 route size note;
#X msg 34 94 size;
#X msg 452 238 1;
#X obj 19 403 ==;
#X obj 81 427 sel 0;
#X obj 394 171 +;
#X obj 409 16 r beat-len;
#X obj 141 465 outlet;
#X obj 34 16 inlet;
#X obj 34 149 ../tools/sequence \$0;
#X text 70 11 play|restart|reset|offset: [note]|sequence: [note \,
dur \, break];
#X obj 34 54 route play restart reset offset;
#X obj 157 300 + 0;
#X obj 120 261 t b f;
#X connect 0 0 19 0;
#X connect 1 0 12 0;
#X connect 1 0 19 0;
#X connect 2 0 3 0;
#X connect 3 0 17 0;
#X connect 4 0 23 0;
#X connect 4 1 6 0;
#X connect 4 1 15 0;
#X connect 4 2 15 1;
#X connect 5 0 7 0;
#X connect 6 0 3 2;
#X connect 7 0 8 0;
#X connect 8 0 9 0;
#X connect 8 0 13 0;
#X connect 9 0 8 1;
#X connect 10 0 13 1;
#X connect 10 1 4 0;
#X connect 11 0 19 0;
#X connect 12 0 8 1;
#X connect 13 0 14 0;
#X connect 14 0 0 0;
#X connect 15 0 5 0;
#X connect 16 0 5 1;
#X connect 16 0 6 1;
#X connect 18 0 21 0;
#X connect 19 0 10 0;
#X connect 21 0 0 0;
#X connect 21 0 11 0;
#X connect 21 1 12 0;
#X connect 21 1 0 0;
#X connect 21 1 11 0;
#X connect 21 2 1 0;
#X connect 21 3 22 1;
#X connect 21 4 19 0;
#X connect 22 0 3 1;
#X connect 23 0 2 0;
#X connect 23 1 22 0;
