#N canvas 524 226 680 672 10;
#X msg 71 214 next;
#X msg 225 131 reset;
#X obj 137 486 pack 0 0 0;
#X obj 117 377 unpack 0 0 0;
#X obj 391 358 *;
#X obj 194 451 *;
#X obj 391 392 delay;
#X obj 480 425 + 1;
#X msg 31 214 size;
#X msg 406 202 1;
#X obj 16 557 ==;
#X obj 71 581 sel 0;
#X obj 391 325 +;
#X obj 406 16 r beat-len;
#X obj 137 619 outlet;
#X obj 30 16 inlet;
#X obj 154 451 + 0;
#X obj 117 415 t b f;
#X obj 31 344 route size note len;
#X msg 105 557 len \$1;
#X obj 391 464 ==;
#X obj 30 134 t b b b b;
#X msg 94 102 0;
#X obj 30 88 spigot 1;
#X msg 391 531 done;
#X obj 391 497 sel 1;
#X obj 331 271 div;
#X obj 331 248 *;
#X msg 331 201 1;
#X obj 225 106 t b b b;
#X obj 478 16 r reset;
#X obj 391 425 f;
#X text 67 8 play|reset|offset[pitch]|get seq len|note len per beat
(nlb)|type[-1 for ever|0 stop|1 normal with duration/break]|sequence[note
\, dur \, break];
#X obj 30 53 route play offset nlb type;
#X obj 117 451 f 1;
#X obj 31 303 sequence \$0;
#X obj 569 16 inlet;
#X obj 137 587 rnd-note;
#X connect 0 0 35 0;
#X connect 1 0 35 0;
#X connect 2 0 37 0;
#X connect 3 0 17 0;
#X connect 3 1 5 0;
#X connect 3 1 12 0;
#X connect 3 2 12 1;
#X connect 4 0 6 0;
#X connect 5 0 2 2;
#X connect 6 0 31 0;
#X connect 7 0 31 1;
#X connect 8 0 35 0;
#X connect 9 0 31 1;
#X connect 10 0 11 0;
#X connect 11 0 0 0;
#X connect 12 0 4 0;
#X connect 13 0 27 1;
#X connect 15 0 33 0;
#X connect 16 0 2 1;
#X connect 17 0 34 0;
#X connect 17 1 16 0;
#X connect 18 0 10 1;
#X connect 18 0 20 1;
#X connect 18 1 3 0;
#X connect 18 2 19 0;
#X connect 19 0 14 0;
#X connect 20 0 23 1;
#X connect 20 0 25 0;
#X connect 21 0 0 0;
#X connect 21 1 8 0;
#X connect 21 2 9 0;
#X connect 21 3 22 0;
#X connect 22 0 23 1;
#X connect 23 0 21 0;
#X connect 24 0 14 0;
#X connect 25 0 24 0;
#X connect 26 0 5 1;
#X connect 26 0 4 1;
#X connect 27 0 26 0;
#X connect 28 0 27 0;
#X connect 29 0 1 0;
#X connect 29 1 28 0;
#X connect 29 2 9 0;
#X connect 30 0 29 0;
#X connect 31 0 7 0;
#X connect 31 0 10 0;
#X connect 31 0 20 0;
#X connect 33 0 23 0;
#X connect 33 1 16 1;
#X connect 33 2 27 0;
#X connect 33 3 34 1;
#X connect 33 4 35 0;
#X connect 34 0 2 0;
#X connect 35 0 18 0;
#X connect 36 0 37 1;
#X connect 37 0 14 0;
