#N canvas 909 352 408 376 12;
#X obj 46 135 spigot 0;
#X obj 65 161 spigot 0;
#X obj 246 93 ==;
#X obj 46 300 outlet;
#X obj 103 300 outlet;
#X obj 46 27 notein;
#X text 47 324 note;
#X text 103 324 velocity;
#X text 305 26 channel;
#X obj 264 27 inlet;
#X obj 46 81 spigot;
#X obj 104 27 inlet;
#X text 152 26 on/off;
#X obj 65 108 spigot;
#X obj 104 54 t f f f;
#X obj 181 163 sel 0;
#X msg 213 266 0;
#X obj 46 234 t f f;
#X obj 126 266 f;
#X obj 181 234 t b b;
#X connect 0 0 17 0;
#X connect 1 0 4 0;
#X connect 2 0 0 1;
#X connect 2 0 1 1;
#X connect 5 0 10 0;
#X connect 5 1 13 0;
#X connect 5 2 2 0;
#X connect 9 0 2 1;
#X connect 10 0 0 0;
#X connect 11 0 14 0;
#X connect 13 0 1 0;
#X connect 14 0 15 0;
#X connect 14 1 10 1;
#X connect 14 2 13 1;
#X connect 15 0 19 0;
#X connect 16 0 4 0;
#X connect 17 0 3 0;
#X connect 17 1 18 1;
#X connect 18 0 3 0;
#X connect 19 0 18 0;
#X connect 19 1 16 0;
