#N canvas 909 352 486 366 12;
#X obj 46 135 spigot 0;
#X obj 65 161 spigot 0;
#X obj 102 95 ==;
#X obj 46 226 outlet;
#X obj 103 226 outlet;
#X obj 46 27 notein;
#X text 46 249 note;
#X text 102 249 velocity;
#X text 305 26 channel;
#X obj 264 27 inlet;
#X obj 46 81 spigot;
#X obj 104 27 inlet;
#X text 152 26 on/off;
#X connect 0 0 3 0;
#X connect 1 0 4 0;
#X connect 2 0 0 1;
#X connect 2 0 1 1;
#X connect 5 0 10 0;
#X connect 5 1 1 0;
#X connect 5 2 2 0;
#X connect 9 0 2 1;
#X connect 10 0 0 0;
#X connect 11 0 10 1;
