#N canvas 167 0 1508 941 12;
#X obj 791 14 inlet;
#X obj 144 14 inlet;
#X text 565 849 vel;
#X text 192 13 tick;
#X obj 335 14 inlet;
#X obj 238 14 inlet;
#X text 280 13 reset;
#X text 830 13 step mod;
#X obj 589 477 f;
#X obj 136 556 + 0;
#X msg 623 477 127;
#X msg 373 477 12;
#X msg 339 477 0;
#X msg 408 477 -12;
#X text 174 849 note;
#X msg 792 264 const 0;
#X obj 608 178 + 1;
#X obj 566 178 f 0;
#X msg 629 124 0;
#X obj 566 241 mod 16;
#X obj 439 14 inlet;
#X text 386 13 note;
#X text 483 13 vel;
#X obj 513 850 outlet;
#X obj 118 850 outlet;
#X text 802 46 2 - soft;
#X text 802 60 3 - norm;
#X text 802 75 4 - hard;
#X obj 792 293 array define -yrange 0 10 \$0-mod 16;
#X obj 791 223 array set \$0-mod;
#X obj 566 320 array get \$0-mod;
#X text 654 476 soft/norm/hard;
#X msg 620 285 1;
#X text 801 117 7 - oct+;
#X text 801 131 8 - oct-;
#X text 444 476 norm/oct+/oct-;
#X msg 553 477 31;
#X obj 136 514 spigot;
#X msg 142 476 1;
#X msg 175 476 0;
#X text 802 32 1 - skip;
#X obj 698 433 + 1;
#X text 802 89 5 - odd;
#X text 801 104 6 - even;
#X obj 352 424 spigot;
#X obj 415 427 spigot;
#X obj 422 345 tgl 15 0 empty empty empty 17 7 0 10 #fcfcfc #000000
#000000 0 1;
#X obj 454 345 tgl 15 0 empty empty empty 17 7 0 10 #fcfcfc #000000
#000000 0 1;
#X obj 566 87 t b b;
#X obj 390 246 sel 0;
#X obj 422 287 t b b;
#X obj 566 210 t f f;
#X obj 81 367 t b b b f b;
#X text 801 188 0 - restart (default value if less than 16);
#X msg 473 287 1;
#X text 389 450 odd/even;
#X msg 199 787 0;
#X obj 118 787 f;
#X obj 159 717 delay 100;
#X text 238 716 send note off after note on;
#X obj 970 14 inlet;
#X text 1008 13 step pos;
#X obj 566 124 delay 1;
#X msg 389 287 0;
#X obj 136 683 t f b f;
#X obj 136 586 clip 0 127;
#X msg 754 171 0;
#X obj 20 14 inlet;
#X text 66 13 spigot;
#X text 802 145 9 - doubles;
#X text 801 173 11 - random;
#X text 800 159 10 - triplets;
#X obj 496 354 select 0 1 2 3 4 5 6 7 8 9 10 11;
#X obj 698 406 random 10;
#X obj 159 747 t b b b b;
#X obj 302 527 r tick-x3;
#X obj 395 527 r tick-x2;
#X obj 144 58 t b b b;
#X floatatom 536 298 5 0 0 0 - - - 0;
#X obj 256 556 doubles;
#X obj 342 556 triplets;
#X obj 256 586 t b b;
#X obj 342 586 t b b;
#X obj 136 653 f;
#X obj 84 588 bng 15 250 50 0 empty empty empty 17 7 0 10 #fcfcfc #000000
#000000;
#X msg 259 683 47;
#X msg 219 683 87;
#X connect 0 0 29 0;
#X connect 1 0 77 0;
#X connect 4 0 52 0;
#X connect 5 0 15 0;
#X connect 5 0 32 0;
#X connect 5 0 12 0;
#X connect 5 0 18 0;
#X connect 5 0 54 0;
#X connect 5 0 63 0;
#X connect 5 0 66 0;
#X connect 8 0 23 0;
#X connect 9 0 65 0;
#X connect 10 0 23 0;
#X connect 11 0 9 1;
#X connect 12 0 9 1;
#X connect 13 0 9 1;
#X connect 15 0 28 0;
#X connect 16 0 17 1;
#X connect 17 0 16 0;
#X connect 17 0 51 0;
#X connect 18 0 17 1;
#X connect 19 0 30 0;
#X connect 20 0 8 1;
#X connect 30 0 72 0;
#X connect 32 0 30 1;
#X connect 36 0 23 0;
#X connect 37 0 9 0;
#X connect 38 0 37 1;
#X connect 39 0 37 1;
#X connect 41 0 72 0;
#X connect 44 0 39 0;
#X connect 45 0 39 0;
#X connect 46 0 44 1;
#X connect 47 0 45 1;
#X connect 48 0 62 0;
#X connect 48 1 18 0;
#X connect 49 1 50 0;
#X connect 50 0 46 0;
#X connect 50 1 47 0;
#X connect 51 0 19 0;
#X connect 51 1 49 0;
#X connect 52 0 12 0;
#X connect 52 1 38 0;
#X connect 52 2 85 0;
#X connect 52 3 37 0;
#X connect 54 0 47 0;
#X connect 56 0 23 0;
#X connect 57 0 24 0;
#X connect 58 0 74 0;
#X connect 60 0 29 1;
#X connect 62 0 17 0;
#X connect 63 0 46 0;
#X connect 64 0 57 1;
#X connect 64 1 58 0;
#X connect 64 2 24 0;
#X connect 65 0 83 1;
#X connect 66 0 29 1;
#X connect 72 0 48 0;
#X connect 72 1 39 0;
#X connect 72 2 36 0;
#X connect 72 3 8 0;
#X connect 72 4 10 0;
#X connect 72 5 44 0;
#X connect 72 6 45 0;
#X connect 72 7 11 0;
#X connect 72 8 13 0;
#X connect 72 9 79 0;
#X connect 72 10 80 0;
#X connect 72 11 73 0;
#X connect 73 0 41 0;
#X connect 74 0 8 0;
#X connect 74 1 57 0;
#X connect 74 2 56 0;
#X connect 75 0 79 1;
#X connect 76 0 80 1;
#X connect 77 1 17 0;
#X connect 78 0 72 0;
#X connect 79 0 81 0;
#X connect 79 1 86 0;
#X connect 80 0 82 0;
#X connect 80 1 86 0;
#X connect 81 0 83 0;
#X connect 81 1 85 0;
#X connect 82 0 83 0;
#X connect 82 1 85 0;
#X connect 83 0 64 0;
#X connect 84 0 83 0;
#X connect 85 0 58 1;
#X connect 86 0 58 1;
