#N canvas 299 177 565 625 10;
#X msg 81 93 next;
#X msg 162 94 reset;
#X msg 120 303 1;
#X obj 141 335 pack 0 0 0;
#X obj 120 275 bang;
#X obj 120 238 unpack 0 0 0;
#X obj 394 204 *;
#X obj 211 304 *;
#X obj 394 238 delay;
#X obj 390 275 float;
#X obj 483 275 + 1;
#X obj 34 190 route size note;
#X msg 34 94 size;
#X msg 452 238 1;
#X obj 19 504 ==;
#X obj 81 522 sel 0;
#X obj 394 171 +;
#X obj 409 16 r beat-len;
#X obj 141 566 outlet;
#X obj 34 16 inlet;
#X obj 34 54 route play restart reset;
#X text 100 11 play|restart|reset|sequence: [note \, dur \, break]
;
#X obj 34 149 ../tools/sequence \$0;
#X connect 0 0 22 0;
#X connect 1 0 13 0;
#X connect 1 0 22 0;
#X connect 2 0 3 0;
#X connect 3 0 18 0;
#X connect 4 0 2 0;
#X connect 5 0 3 1;
#X connect 5 0 4 0;
#X connect 5 1 7 0;
#X connect 5 1 16 0;
#X connect 5 2 16 1;
#X connect 6 0 8 0;
#X connect 7 0 3 2;
#X connect 8 0 9 0;
#X connect 9 0 10 0;
#X connect 9 0 14 0;
#X connect 10 0 9 1;
#X connect 11 0 14 1;
#X connect 11 1 5 0;
#X connect 12 0 22 0;
#X connect 13 0 9 1;
#X connect 14 0 15 0;
#X connect 15 0 0 0;
#X connect 16 0 6 0;
#X connect 17 0 6 1;
#X connect 17 0 7 1;
#X connect 19 0 20 0;
#X connect 20 0 0 0;
#X connect 20 0 12 0;
#X connect 20 1 13 0;
#X connect 20 1 0 0;
#X connect 20 1 12 0;
#X connect 20 2 1 0;
#X connect 20 3 22 0;
#X connect 22 0 11 0;
