#N canvas 812 656 285 277 12;
#X obj 120 27 r beat-#;
#X obj 46 94 spigot 0;
#X obj 65 120 spigot 0;
#X obj 102 54 ==;
#X obj 46 185 outlet;
#X obj 103 185 outlet;
#X obj 46 27 notein;
#X text 46 208 note;
#X text 102 208 velocity;
#X text 188 26 channel;
#X connect 0 0 3 1;
#X connect 1 0 4 0;
#X connect 2 0 5 0;
#X connect 3 0 1 1;
#X connect 3 0 2 1;
#X connect 6 0 1 0;
#X connect 6 1 2 0;
#X connect 6 2 3 0;
