#N canvas 419 162 1558 1474 10;
#X msg 71 214 next;
#X msg 238 214 reset;
#X msg 117 454 1;
#X obj 137 486 pack 0 0 0;
#X obj 117 377 unpack 0 0 0;
#X obj 391 358 *;
#X obj 194 454 *;
#X obj 391 392 delay;
#X obj 391 425 float;
#X obj 480 425 + 1;
#X msg 31 214 size;
#X msg 418 242 1;
#X obj 16 557 ==;
#X obj 71 581 sel 0;
#X obj 391 325 +;
#X obj 406 16 r beat-len;
#X obj 137 619 outlet;
#X obj 30 16 inlet;
#X obj 31 303 ../tools/sequence \$0;
#X obj 154 454 + 0;
#X obj 117 415 t b f;
#X obj 238 170 t b b;
#X text 68 8 play|reset|offset[pitch]|get seq len|sequence[note \,
dur \, break];
#X obj 30 53 route play reset offset;
#X obj 31 344 route size note len;
#X msg 105 557 len \$1;
#X obj 391 464 ==;
#X obj 30 134 t b b b b;
#X msg 94 102 0;
#X obj 30 88 spigot 1;
#X msg 391 531 done;
#X obj 391 497 sel 1;
#X connect 0 0 18 0;
#X connect 1 0 18 0;
#X connect 2 0 3 0;
#X connect 3 0 16 0;
#X connect 4 0 20 0;
#X connect 4 1 6 0;
#X connect 4 1 14 0;
#X connect 4 2 14 1;
#X connect 5 0 7 0;
#X connect 6 0 3 2;
#X connect 7 0 8 0;
#X connect 8 0 9 0;
#X connect 8 0 12 0;
#X connect 8 0 26 0;
#X connect 9 0 8 1;
#X connect 10 0 18 0;
#X connect 11 0 8 1;
#X connect 12 0 13 0;
#X connect 13 0 0 0;
#X connect 14 0 5 0;
#X connect 15 0 5 1;
#X connect 15 0 6 1;
#X connect 17 0 23 0;
#X connect 18 0 24 0;
#X connect 19 0 3 1;
#X connect 20 0 2 0;
#X connect 20 1 19 0;
#X connect 21 0 1 0;
#X connect 21 1 11 0;
#X connect 23 0 29 0;
#X connect 23 1 21 0;
#X connect 23 2 19 1;
#X connect 23 3 18 0;
#X connect 24 0 12 1;
#X connect 24 0 26 1;
#X connect 24 1 4 0;
#X connect 24 2 25 0;
#X connect 25 0 16 0;
#X connect 26 0 29 1;
#X connect 26 0 31 0;
#X connect 27 0 0 0;
#X connect 27 1 10 0;
#X connect 27 2 11 0;
#X connect 27 3 28 0;
#X connect 28 0 29 1;
#X connect 29 0 27 0;
#X connect 30 0 16 0;
#X connect 31 0 30 0;
