#N canvas 105 533 800 338 12;
#X obj 109 11 inlet;
#X obj 238 11 inlet;
#X obj 23 11 inlet;
#X text 29 35 spigot;
#X text 109 35 in-note;
#X text 239 35 in-chan;
#X obj 175 11 inlet;
#X obj 296 11 inlet;
#X text 175 35 out-cc;
#X text 303 35 out-chan;
#X obj 23 280 ctlout;
#X obj 23 63 ../controller/note-filter;
#X obj 66 92 sel 0;
#X connect 0 0 11 1;
#X connect 1 0 11 2;
#X connect 2 0 11 0;
#X connect 6 0 10 1;
#X connect 7 0 10 2;
#X connect 11 1 12 0;
#X connect 12 1 10 0;
