#N canvas 298 0 1192 928 12;
#X obj 791 14 inlet;
#X text 430 862 vel;
#X obj 158 25 inlet;
#X obj 34 23 inlet;
#X text 79 22 reset;
#X text 830 13 step mod;
#X obj 66 629 + 0;
#X msg 462 463 127;
#X msg 583 463 12;
#X msg 618 463 -12;
#X text 104 866 note;
#X msg 792 264 const 0;
#X obj 608 213 + 1;
#X obj 566 213 f 0;
#X msg 529 181 0;
#X obj 566 276 mod 16;
#X obj 462 22 inlet;
#X text 209 24 note;
#X text 506 21 vel;
#X obj 378 863 outlet;
#X obj 48 867 outlet;
#X text 802 75 4 - hard;
#X obj 791 233 array set \$0-mod;
#X obj 566 320 array get \$0-mod;
#X msg 620 296 1;
#X text 801 117 7 - oct+;
#X text 801 131 8 - oct-;
#X msg 427 463 31;
#X text 802 32 1 - skip;
#X obj 730 419 + 1;
#X text 802 89 5 - odd;
#X text 801 104 6 - even;
#X obj 342 399 spigot;
#X obj 396 399 spigot;
#X obj 403 365 tgl 15 0 empty empty empty 17 7 0 10 #fcfcfc #000000
#000000 0 1;
#X obj 435 365 tgl 15 0 empty empty empty 17 7 0 10 #fcfcfc #000000
#000000 0 1;
#X obj 371 293 sel 0;
#X obj 403 321 t b b;
#X obj 566 245 t f f;
#X text 801 188 0 - restart (default value if less than 16);
#X msg 454 321 1;
#X text 278 398 odd/even;
#X msg 352 822 0;
#X obj 48 826 f;
#X text 168 733 send note off after note on;
#X obj 970 14 inlet;
#X text 1008 13 step pos;
#X obj 566 181 delay 1;
#X msg 370 321 0;
#X obj 66 700 t f b f;
#X obj 66 659 clip 0 127;
#X msg 758 201 0;
#X text 801 173 11 - random;
#X obj 528 351 select 0 1 2 3 4 5 6 7 8 9 10 11;
#X obj 730 392 random 10;
#X obj 792 293 array define -yrange 0 11 \$0-mod 16;
#X obj 566 151 t b b b b;
#X obj 89 764 t b b;
#X obj 66 593 f;
#X msg 102 593 0;
#X text 638 494 oct+/oct-;
#X text 481 494 soft/hard;
#X text 802 46 2 - default;
#X text 802 60 3 - soft;
#X obj 444 761 f;
#X obj 236 495 t b b b;
#X obj 583 495 t b f b;
#X text 291 494 default;
#X obj 89 734 delay 100;
#X obj 915 439 bng 15 250 50 0 empty empty empty 17 7 0 10 #fcfcfc
#000000 #000000;
#X text 914 512 print contents;
#X obj 915 461 array get \$0-mod;
#X obj 915 487 print mode array;
#X obj 158 122 t b f;
#X obj 427 495 t b b f;
#X connect 0 0 22 0;
#X connect 2 0 73 0;
#X connect 3 0 11 0;
#X connect 3 0 24 0;
#X connect 3 0 14 0;
#X connect 3 0 40 0;
#X connect 3 0 48 0;
#X connect 3 0 51 0;
#X connect 3 0 59 0;
#X connect 6 0 50 0;
#X connect 7 0 74 0;
#X connect 8 0 66 0;
#X connect 9 0 66 0;
#X connect 11 0 55 0;
#X connect 12 0 13 1;
#X connect 13 0 12 0;
#X connect 13 0 38 0;
#X connect 14 0 13 1;
#X connect 15 0 23 0;
#X connect 16 0 64 1;
#X connect 23 0 53 0;
#X connect 24 0 23 1;
#X connect 27 0 74 0;
#X connect 29 0 53 0;
#X connect 32 0 65 0;
#X connect 33 0 65 0;
#X connect 34 0 32 1;
#X connect 35 0 33 1;
#X connect 36 1 37 0;
#X connect 37 0 34 0;
#X connect 37 1 35 0;
#X connect 38 0 15 0;
#X connect 38 1 36 0;
#X connect 40 0 35 0;
#X connect 42 0 19 0;
#X connect 43 0 20 0;
#X connect 45 0 22 1;
#X connect 47 0 13 0;
#X connect 48 0 34 0;
#X connect 49 0 43 1;
#X connect 49 1 68 0;
#X connect 49 2 20 0;
#X connect 50 0 49 0;
#X connect 51 0 22 1;
#X connect 53 0 56 0;
#X connect 53 2 65 0;
#X connect 53 3 27 0;
#X connect 53 4 7 0;
#X connect 53 5 32 0;
#X connect 53 6 33 0;
#X connect 53 7 8 0;
#X connect 53 8 9 0;
#X connect 53 9 65 0;
#X connect 53 10 65 0;
#X connect 53 11 54 0;
#X connect 54 0 29 0;
#X connect 56 0 47 0;
#X connect 57 0 43 0;
#X connect 57 1 42 0;
#X connect 58 0 6 0;
#X connect 59 0 6 1;
#X connect 64 0 19 0;
#X connect 65 0 58 0;
#X connect 65 1 59 0;
#X connect 65 2 64 0;
#X connect 66 0 58 0;
#X connect 66 1 6 1;
#X connect 66 2 64 0;
#X connect 68 0 57 0;
#X connect 69 0 71 0;
#X connect 71 0 72 0;
#X connect 73 0 13 0;
#X connect 73 1 58 1;
#X connect 74 0 58 0;
#X connect 74 1 59 0;
#X connect 74 2 19 0;
