#N canvas 343 358 406 233 10;
#X obj 135 155 ctlout 99;
#X obj 32 155 ctlout 98;
#X text 109 154 msb;
#X text 10 154 lsb;
#X obj 251 155 ctlout 6;
#X obj 113 20 inlet;
#X text 205 154 setting;
#X obj 232 20 inlet;
#X text 273 19 channel;
#X obj 113 46 unpack 0 0;
#X text 157 19 encoder;
#X obj 23 20 inlet;
#X text 57 19 value;
#X obj 135 129 f;
#X obj 32 129 f;
#X obj 23 46 t f b b;
#X connect 5 0 9 0;
#X connect 7 0 4 2;
#X connect 7 0 0 2;
#X connect 7 0 1 2;
#X connect 9 0 13 1;
#X connect 9 1 14 1;
#X connect 11 0 15 0;
#X connect 13 0 0 0;
#X connect 14 0 1 0;
#X connect 15 0 4 0;
#X connect 15 1 13 0;
#X connect 15 2 14 0;
