#N canvas 410 201 457 359 12;
#X obj 235 44 unpack 0 0 0;
#X obj 12 158 f;
#X obj 73 158 +;
#X obj 30 128 f;
#X obj 30 93 t b f;
#X obj 236 225 select;
#X obj 12 8 inlet;
#X text 56 7 tick;
#X obj 235 8 inlet;
#X text 291 7 start end step;
#X obj 12 297 outlet;
#X text 61 296 next val;
#X obj 151 297 outlet;
#X text 203 296 done;
#X connect 0 0 4 0;
#X connect 0 1 5 1;
#X connect 0 2 2 1;
#X connect 1 0 2 0;
#X connect 1 0 5 0;
#X connect 1 0 10 0;
#X connect 2 0 1 1;
#X connect 3 0 1 1;
#X connect 4 0 3 0;
#X connect 4 1 3 1;
#X connect 5 0 3 0;
#X connect 5 0 12 0;
#X connect 6 0 1 0;
#X connect 8 0 0 0;
