#N canvas 0 80 312 274 12;
#X obj 47 100 until;
#X obj 47 221 noteout 0;
#X obj 74 144 f;
#X obj 112 144 + 1;
#X msg 47 73 128;
#X msg 96 112 0;
#X text 48 240 panic;
#X obj 47 45 t b b b b;
#X obj 172 6 inlet;
#X text 217 6 channel;
#X obj 47 7 inlet;
#X text 99 6 bang;
#X connect 0 0 2 0;
#X connect 2 0 3 0;
#X connect 2 0 1 0;
#X connect 3 0 2 1;
#X connect 4 0 0 0;
#X connect 5 0 2 1;
#X connect 7 0 4 0;
#X connect 7 1 5 0;
#X connect 7 2 4 0;
#X connect 7 3 5 0;
#X connect 8 0 1 2;
#X connect 10 0 7 0;
