#N canvas 360 208 621 420 12;
#X obj 120 190 + 1;
#X obj 61 218 f;
#X obj 61 12 inlet;
#X obj 61 337 outlet;
#X obj 300 12 inlet;
#X obj 120 218 sel;
#X obj 316 254 + 1;
#X obj 264 287 f;
#X obj 316 287 sel;
#X obj 316 337 outlet;
#X text 105 11 next(bang);
#X text 112 336 next counter;
#X text 370 336 completed;
#X obj 300 47 unpack 0 0 0;
#X obj 282 254 f;
#X text 351 11 start | parts | repeats;
#X obj 340 79 t f b;
#X obj 79 190 f;
#X obj 300 79 t f f;
#X connect 0 0 5 0;
#X connect 1 0 0 0;
#X connect 1 0 3 0;
#X connect 2 0 1 0;
#X connect 4 0 13 0;
#X connect 5 0 7 0;
#X connect 5 0 17 0;
#X connect 5 1 1 1;
#X connect 6 0 8 0;
#X connect 7 0 6 0;
#X connect 8 0 9 0;
#X connect 8 0 14 0;
#X connect 8 1 7 1;
#X connect 13 0 18 0;
#X connect 13 1 16 0;
#X connect 13 2 8 1;
#X connect 14 0 7 1;
#X connect 16 0 5 1;
#X connect 16 1 17 0;
#X connect 17 0 1 1;
#X connect 18 0 14 1;
#X connect 18 1 17 1;
