#N canvas 360 208 621 420 12;
#X obj 120 138 + 1;
#X msg 76 138 0;
#X obj 61 167 f;
#X obj 61 12 inlet;
#X obj 61 337 outlet;
#X obj 300 12 inlet;
#X obj 300 47 unpack 0 0;
#X text 351 11 parts | repeats;
#X obj 119 168 sel;
#X obj 300 82 t f b b;
#X obj 349 213 + 1;
#X msg 305 213 0;
#X obj 290 242 f;
#X obj 349 242 sel;
#X obj 349 337 outlet;
#X text 105 11 next(bang);
#X text 112 336 next counter;
#X text 399 336 completed;
#X connect 0 0 8 0;
#X connect 1 0 2 1;
#X connect 2 0 0 0;
#X connect 2 0 4 0;
#X connect 3 0 2 0;
#X connect 5 0 6 0;
#X connect 6 0 9 0;
#X connect 6 1 13 1;
#X connect 8 0 1 0;
#X connect 8 0 12 0;
#X connect 8 1 2 1;
#X connect 9 0 8 1;
#X connect 9 1 1 0;
#X connect 9 2 11 0;
#X connect 10 0 13 0;
#X connect 11 0 12 1;
#X connect 12 0 10 0;
#X connect 13 0 11 0;
#X connect 13 0 14 0;
#X connect 13 1 12 1;
