#N canvas 453 18 1099 920 10;
#X obj 62 14 loadbang;
#X msg 62 39 bang;
#X obj 933 492 s ea-1-#;
#X obj 990 492 s ea-2-#;
#X msg 134 262 1;
#X msg 210 262 2;
#X obj 134 286 s apc-ctl-#;
#X obj 210 286 s apc-key-#;
#X msg 286 262 6;
#X obj 286 286 s kp3-#;
#X obj 594 286 s tr-s1-#;
#X obj 661 286 s tr-s2-#;
#X obj 725 286 s tr-d-#;
#X obj 414 286 s tr-m1-#;
#X obj 476 286 s tr-m2-#;
#X obj 671 492 s amb-1-#;
#X obj 733 492 s amb-2-#;
#X obj 540 286 s dbi-#;
#X msg 784 262 16;
#X obj 784 286 s tr-pr-#;
#X msg 338 262 7;
#X obj 338 286 s kp3-ctl-#;
#X obj 671 515 s pulse-#;
#X text 694 467 (8);
#X text 756 467 (9);
#X text 957 467 (15);
#X text 1017 467 (16);
#X msg 62 235 bang;
#X msg 76 327 bang;
#X text 226 356 (2);
#X text 284 356 (3);
#X text 342 356 (4);
#X text 400 356 (5);
#X text 455 356 (6);
#X msg 91 436 bang;
#X msg 203 357 18;
#X msg 261 357 19;
#X msg 318 357 20;
#X msg 375 357 21;
#X msg 432 357 22;
#X obj 615 492 s beat-#;
#X text 641 467 (7);
#X msg 161 468 33;
#X text 187 467 (1);
#X obj 161 492 s model-1-#;
#X msg 236 468 34;
#X text 262 467 (2);
#X obj 236 492 s model-2-#;
#X msg 313 468 35;
#X text 339 467 (3);
#X obj 313 492 s model-3-#;
#X text 414 467 (4);
#X msg 388 468 36;
#X obj 388 492 s model-4-#;
#X msg 464 468 37;
#X text 490 467 (5);
#X obj 464 492 s model-5-#;
#X msg 539 468 38;
#X text 565 467 (6);
#X obj 539 492 s model-6-#;
#X msg 615 468 39;
#X msg 414 262 8;
#X msg 476 262 9;
#X text 17 234 pd_1;
#X text 13 328 pd_2;
#X text 14 434 pd_3;
#X obj 126 14 r reset;
#X msg 594 262 13;
#X msg 661 262 14;
#X msg 725 262 15;
#X msg 149 136 0;
#X msg 217 136 0;
#X msg 291 136 0;
#X obj 149 165 ctlout 0 1;
#X obj 217 165 ctlout 0 17;
#X obj 291 165 ctlout 0 33;
#X obj 176 588 s zoom-#;
#X msg 105 534 bang;
#X text 17 531 pd_4;
#X msg 176 566 49;
#X text 202 565 (1);
#X msg 105 566 4;
#X msg 236 566 51;
#X text 262 565 (3);
#X obj 236 588 s m2s-#;
#X msg 62 262 1;
#X obj 62 286 s port-1-#;
#X obj 105 588 s port-4-#;
#X msg 76 357 2;
#X obj 76 381 s port-2-#;
#X text 316 565 (3);
#X obj 290 588 s m2s-real-#;
#X msg 290 566 3;
#X obj 878 492 s xv-#;
#X text 139 533 zoom pedal listens on omni so it has to be in on it's
own port m2s is only used for tune dev), f 94;
#X obj 566 381 s vd-#;
#X msg 366 136 0;
#X obj 366 165 ctlout 0 49;
#X msg 91 468 3;
#X obj 91 492 s port-3-#;
#X msg 441 136 0;
#X obj 441 165 ctlout 0 65;
#X msg 120 626 bang;
#X text 18 621 pd_5;
#X text 154 625 smpltrek, f 9;
#X msg 120 658 5;
#X msg 191 658 65;
#X text 217 657 (1);
#X obj 120 680 s port-5-#;
#X obj 263 680 s smpl-a-#;
#X obj 191 680 s smpl-1-#;
#X msg 263 658 66;
#X text 289 657 (2);
#X text 1014 657 (16);
#X msg 988 658 80;
#X obj 988 680 s smpl-proj-#;
#X text 938 657 (15);
#X msg 912 658 79;
#X obj 912 680 s smpl-pc-#;
#X text 700 657 (10);
#X msg 674 658 74;
#X obj 674 680 s smpl-10-#;
#X msg 671 468 40;
#X msg 733 468 41;
#X msg 990 468 48;
#X msg 933 468 47;
#X obj 797 492 s tr08-out-#;
#X obj 785 680 s tr08-in-#;
#X obj 601 680 s smpl-9-#;
#X text 627 657 (9);
#X msg 601 658 73;
#X msg 134 719 bang;
#X text 19 713 pd_6;
#X obj 62 66 t b b b b b b b;
#X obj 149 103 t b b b b b b;
#X msg 516 136 0;
#X obj 516 165 ctlout 0 81;
#X text 168 718 umidi-1, f 9;
#X msg 134 751 6;
#X obj 134 773 s port-6-#;
#X text 234 750 (1);
#X msg 208 751 81;
#X obj 208 773 s nothing;
#X msg 540 262 11;
#X text 589 356 (11);
#X msg 566 357 27;
#X text 742 750 (11);
#X msg 716 751 91;
#X obj 716 773 s drums-#;
#X text 901 467 (12);
#X msg 878 468 44;
#X msg 797 468 43;
#X text 820 467 (11);
#X msg 785 658 75;
#X text 808 657 (11);
#X connect 0 0 1 0;
#X connect 1 0 133 0;
#X connect 4 0 6 0;
#X connect 5 0 7 0;
#X connect 8 0 9 0;
#X connect 18 0 19 0;
#X connect 20 0 21 0;
#X connect 27 0 4 0;
#X connect 27 0 5 0;
#X connect 27 0 8 0;
#X connect 27 0 20 0;
#X connect 27 0 143 0;
#X connect 27 0 68 0;
#X connect 27 0 18 0;
#X connect 27 0 62 0;
#X connect 27 0 61 0;
#X connect 27 0 69 0;
#X connect 27 0 67 0;
#X connect 27 0 85 0;
#X connect 28 0 35 0;
#X connect 28 0 36 0;
#X connect 28 0 37 0;
#X connect 28 0 38 0;
#X connect 28 0 39 0;
#X connect 28 0 88 0;
#X connect 28 0 145 0;
#X connect 34 0 60 0;
#X connect 34 0 42 0;
#X connect 34 0 45 0;
#X connect 34 0 48 0;
#X connect 34 0 52 0;
#X connect 34 0 54 0;
#X connect 34 0 57 0;
#X connect 34 0 98 0;
#X connect 34 0 122 0;
#X connect 34 0 123 0;
#X connect 34 0 150 0;
#X connect 34 0 125 0;
#X connect 34 0 124 0;
#X connect 34 0 151 0;
#X connect 42 0 44 0;
#X connect 45 0 47 0;
#X connect 48 0 50 0;
#X connect 52 0 53 0;
#X connect 54 0 56 0;
#X connect 57 0 59 0;
#X connect 60 0 40 0;
#X connect 61 0 13 0;
#X connect 62 0 14 0;
#X connect 66 0 1 0;
#X connect 67 0 10 0;
#X connect 68 0 11 0;
#X connect 69 0 12 0;
#X connect 70 0 73 0;
#X connect 71 0 74 0;
#X connect 72 0 75 0;
#X connect 77 0 81 0;
#X connect 77 0 79 0;
#X connect 77 0 82 0;
#X connect 77 0 92 0;
#X connect 79 0 76 0;
#X connect 81 0 87 0;
#X connect 82 0 84 0;
#X connect 85 0 86 0;
#X connect 88 0 89 0;
#X connect 92 0 91 0;
#X connect 96 0 97 0;
#X connect 98 0 99 0;
#X connect 100 0 101 0;
#X connect 102 0 105 0;
#X connect 102 0 106 0;
#X connect 102 0 111 0;
#X connect 102 0 117 0;
#X connect 102 0 114 0;
#X connect 102 0 120 0;
#X connect 102 0 153 0;
#X connect 102 0 130 0;
#X connect 105 0 108 0;
#X connect 106 0 110 0;
#X connect 111 0 109 0;
#X connect 114 0 115 0;
#X connect 117 0 118 0;
#X connect 120 0 121 0;
#X connect 122 0 15 0;
#X connect 122 0 22 0;
#X connect 123 0 16 0;
#X connect 124 0 3 0;
#X connect 125 0 2 0;
#X connect 130 0 128 0;
#X connect 131 0 138 0;
#X connect 131 0 147 0;
#X connect 131 0 141 0;
#X connect 133 0 27 0;
#X connect 133 1 28 0;
#X connect 133 2 34 0;
#X connect 133 3 77 0;
#X connect 133 4 102 0;
#X connect 133 5 131 0;
#X connect 133 6 134 0;
#X connect 134 0 70 0;
#X connect 134 1 71 0;
#X connect 134 2 72 0;
#X connect 134 3 96 0;
#X connect 134 4 100 0;
#X connect 134 5 135 0;
#X connect 135 0 136 0;
#X connect 138 0 139 0;
#X connect 141 0 142 0;
#X connect 143 0 17 0;
#X connect 145 0 95 0;
#X connect 147 0 148 0;
#X connect 150 0 93 0;
#X connect 151 0 126 0;
#X connect 153 0 127 0;
