#N canvas 607 875 1099 679 10;
#X obj 62 14 loadbang;
#X msg 62 39 bang;
#X obj 925 383 s ea-1-#;
#X obj 986 383 s ea-2-#;
#X msg 134 262 1;
#X msg 210 262 2;
#X obj 134 286 s apc-ctl-#;
#X obj 210 286 s apc-key-#;
#X msg 286 262 6;
#X obj 286 286 s kp3-#;
#X obj 594 286 s tr-s1-#;
#X obj 661 286 s tr-s2-#;
#X obj 725 286 s tr-d-#;
#X obj 414 286 s tr-m1-#;
#X obj 476 286 s tr-m2-#;
#X obj 535 383 s amb-1-#;
#X obj 599 383 s amb-2-#;
#X msg 540 262 10;
#X obj 540 286 s dbi-#;
#X obj 665 383 s amb-3-#;
#X obj 730 383 s amb-4-#;
#X obj 795 383 s amb-5-#;
#X obj 861 383 s amb-6-#;
#X msg 784 262 16;
#X obj 784 286 s tr-pr-#;
#X msg 338 262 7;
#X obj 338 286 s kp3-ctl-#;
#X obj 674 491 s pulse-#;
#X text 558 358 (8);
#X text 622 358 (9);
#X text 688 358 (10);
#X text 754 358 (11);
#X text 820 358 (12);
#X msg 861 359 29;
#X text 884 358 (13);
#X text 949 358 (15);
#X text 1013 358 (16);
#X msg 925 359 31;
#X msg 986 359 32;
#X msg 62 235 bang;
#X msg 77 329 bang;
#X obj 146 383 s vd-1-#;
#X obj 204 383 s vd-2-#;
#X obj 262 383 s vd-3-#;
#X obj 319 383 s vd-4-#;
#X obj 376 383 s vd-5-#;
#X obj 433 383 s vd-6-#;
#X text 169 358 (1);
#X text 227 358 (2);
#X text 285 358 (3);
#X text 343 358 (4);
#X text 401 358 (5);
#X text 456 358 (6);
#X msg 92 435 bang;
#X msg 146 359 17;
#X msg 204 359 18;
#X msg 262 359 19;
#X msg 319 359 20;
#X msg 376 359 21;
#X msg 433 359 22;
#X msg 535 359 24;
#X msg 599 359 25;
#X msg 665 359 26;
#X msg 730 359 27;
#X msg 795 359 28;
#X obj 616 491 s beat-#;
#X text 642 466 (7);
#X msg 162 467 33;
#X text 188 466 (1);
#X obj 162 491 s model-1-#;
#X msg 237 467 34;
#X text 263 466 (2);
#X obj 237 491 s model-2-#;
#X msg 314 467 35;
#X text 340 466 (3);
#X obj 314 491 s model-3-#;
#X text 415 466 (4);
#X msg 389 467 36;
#X obj 389 491 s model-4-#;
#X msg 465 467 37;
#X text 491 466 (5);
#X obj 465 491 s model-5-#;
#X msg 540 467 38;
#X text 566 466 (6);
#X obj 540 491 s model-6-#;
#X msg 616 467 39;
#X msg 414 262 8;
#X msg 476 262 9;
#X text 17 234 pd_1;
#X text 13 328 pd_2;
#X text 14 434 pd_3;
#X obj 126 14 r reset;
#X msg 594 262 13;
#X msg 661 262 14;
#X msg 725 262 15;
#X text 700 466 (14);
#X msg 674 467 46;
#X msg 125 129 0;
#X obj 125 96 t b b b;
#X msg 203 129 0;
#X msg 293 129 0;
#X obj 125 158 ctlout 0 1;
#X obj 203 158 ctlout 0 17;
#X obj 293 158 ctlout 0 33;
#X obj 180 589 s zoom-#;
#X msg 109 535 bang;
#X obj 62 66 t b b b b b;
#X text 19 532 pd_4;
#X msg 180 567 49;
#X text 206 566 (1);
#X msg 109 567 4;
#X msg 241 567 51;
#X text 267 566 (3);
#X obj 241 589 s m2s-#;
#X text 143 534 zoom pedal listens on omni so it has to be in on it's
own port (minibrute is only used for tune dev), f 101;
#X msg 62 262 1;
#X obj 62 286 s port-1-#;
#X obj 109 589 s port-4-#;
#X msg 77 359 2;
#X obj 77 383 s port-2-#;
#X msg 92 467 2;
#X obj 92 491 s port-2-#;
#X text 321 566 (3);
#X obj 295 589 s m2s-real-#;
#X msg 295 567 3;
#X msg 490 359 23;
#X text 513 358 (7);
#X obj 490 383 s xv-#;
#X connect 0 0 1 0;
#X connect 1 0 106 0;
#X connect 4 0 6 0;
#X connect 5 0 7 0;
#X connect 8 0 9 0;
#X connect 17 0 18 0;
#X connect 23 0 24 0;
#X connect 25 0 26 0;
#X connect 33 0 22 0;
#X connect 37 0 2 0;
#X connect 38 0 3 0;
#X connect 39 0 4 0;
#X connect 39 0 5 0;
#X connect 39 0 8 0;
#X connect 39 0 25 0;
#X connect 39 0 17 0;
#X connect 39 0 93 0;
#X connect 39 0 23 0;
#X connect 39 0 87 0;
#X connect 39 0 86 0;
#X connect 39 0 94 0;
#X connect 39 0 92 0;
#X connect 39 0 115 0;
#X connect 40 0 54 0;
#X connect 40 0 55 0;
#X connect 40 0 56 0;
#X connect 40 0 57 0;
#X connect 40 0 58 0;
#X connect 40 0 59 0;
#X connect 40 0 37 0;
#X connect 40 0 38 0;
#X connect 40 0 60 0;
#X connect 40 0 63 0;
#X connect 40 0 62 0;
#X connect 40 0 64 0;
#X connect 40 0 61 0;
#X connect 40 0 33 0;
#X connect 40 0 118 0;
#X connect 40 0 125 0;
#X connect 53 0 85 0;
#X connect 53 0 67 0;
#X connect 53 0 70 0;
#X connect 53 0 73 0;
#X connect 53 0 77 0;
#X connect 53 0 79 0;
#X connect 53 0 82 0;
#X connect 53 0 96 0;
#X connect 53 0 120 0;
#X connect 54 0 41 0;
#X connect 55 0 42 0;
#X connect 56 0 43 0;
#X connect 57 0 44 0;
#X connect 58 0 45 0;
#X connect 59 0 46 0;
#X connect 60 0 15 0;
#X connect 61 0 16 0;
#X connect 62 0 19 0;
#X connect 63 0 20 0;
#X connect 64 0 21 0;
#X connect 67 0 69 0;
#X connect 70 0 72 0;
#X connect 73 0 75 0;
#X connect 77 0 78 0;
#X connect 79 0 81 0;
#X connect 82 0 84 0;
#X connect 85 0 65 0;
#X connect 86 0 13 0;
#X connect 87 0 14 0;
#X connect 91 0 1 0;
#X connect 92 0 10 0;
#X connect 93 0 11 0;
#X connect 94 0 12 0;
#X connect 96 0 27 0;
#X connect 97 0 101 0;
#X connect 98 0 97 0;
#X connect 98 1 99 0;
#X connect 98 2 100 0;
#X connect 99 0 102 0;
#X connect 100 0 103 0;
#X connect 105 0 110 0;
#X connect 105 0 108 0;
#X connect 105 0 111 0;
#X connect 105 0 124 0;
#X connect 106 0 39 0;
#X connect 106 1 40 0;
#X connect 106 2 53 0;
#X connect 106 3 105 0;
#X connect 106 4 98 0;
#X connect 108 0 104 0;
#X connect 110 0 117 0;
#X connect 111 0 113 0;
#X connect 115 0 116 0;
#X connect 118 0 119 0;
#X connect 120 0 121 0;
#X connect 124 0 123 0;
#X connect 125 0 127 0;
