#N canvas 526 159 472 478 12;
#X obj 29 12 ctlin;
#X obj 144 12 inlet;
#X text 145 31 ctl-#;
#X obj 264 12 inlet;
#X obj 29 282 f;
#X obj 68 130 spigot;
#X obj 107 101 ==;
#X obj 68 160 ==;
#X obj 29 191 spigot;
#X obj 29 217 - 64;
#X obj 29 246 t b f;
#X obj 66 282 +;
#X obj 29 380 clip 0 127;
#X obj 212 331 < 0;
#X obj 212 362 sel 1;
#X msg 212 391 0;
#X obj 267 362 sel 1;
#X obj 267 331 > 127;
#X msg 267 391 127;
#X text 267 31 initial;
#X obj 332 12 inlet;
#X text 335 31 range;
#X obj 332 57 unpack 0 0;
#X obj 332 82 t f f;
#X obj 399 82 t f f;
#X obj 82 12 inlet;
#X obj 200 12 inlet;
#X text 200 31 channel;
#X text 86 31 spigot;
#X obj 29 101 spigot 0;
#X obj 29 430 outlet;
#X connect 0 0 29 0;
#X connect 0 1 5 0;
#X connect 0 2 6 0;
#X connect 1 0 7 1;
#X connect 3 0 4 1;
#X connect 4 0 11 0;
#X connect 4 0 12 0;
#X connect 4 0 13 0;
#X connect 4 0 17 0;
#X connect 5 0 7 0;
#X connect 6 0 5 1;
#X connect 7 0 8 1;
#X connect 8 0 9 0;
#X connect 9 0 10 0;
#X connect 10 0 4 0;
#X connect 10 1 11 1;
#X connect 11 0 4 1;
#X connect 12 0 30 0;
#X connect 13 0 14 0;
#X connect 14 0 15 0;
#X connect 15 0 4 1;
#X connect 16 0 18 0;
#X connect 17 0 16 0;
#X connect 18 0 4 1;
#X connect 20 0 22 0;
#X connect 22 0 23 0;
#X connect 22 1 24 0;
#X connect 23 0 13 1;
#X connect 23 1 12 1;
#X connect 24 0 17 1;
#X connect 24 1 12 2;
#X connect 25 0 29 1;
#X connect 26 0 6 1;
#X connect 29 0 8 0;
