#N canvas 882 528 245 200 12;
#X obj 20 58 ==;
#X obj 20 94 sel 1;
#X obj 20 16 r reset-song;
#X obj 20 128 outlet;
#X obj 126 16 inlet;
#X connect 0 0 1 0;
#X connect 1 0 3 0;
#X connect 2 0 0 0;
#X connect 4 0 0 1;
