#N canvas 332 194 969 775 12;
#X obj 119 12 inlet;
#X obj 492 645 outlet;
#X text 588 147 no config defaults to passthru, f 19;
#X msg 300 156 0;
#X msg 336 156 1;
#X obj 492 188 spigot 1;
#X msg 511 156 0;
#X msg 545 156 1;
#X msg 152 156 0;
#X msg 185 156 1;
#X obj 283 188 spigot 0;
#X obj 132 188 spigot 0;
#X obj 189 383 + 1;
#X msg 150 383 0;
#X obj 132 415 f;
#X obj 189 415 sel;
#X obj 310 310 random;
#X obj 278 310 / 2;
#X obj 278 342 int;
#X obj 310 383 ==;
#X obj 310 415 sel 1;
#X obj 119 241 abs;
#X msg 236 483 0;
#X msg 270 483 1;
#X obj 250 524 sel;
#X obj 366 483 < 0;
#X obj 119 89 t f b f;
#X text 174 7 reg/rnd: <0 play when it doesn't match. >0 play when
it matches, f 40;
#X obj 278 241 abs;
#X obj 278 278 t f f;
#X obj 278 89 t f b f;
#X obj 67 12 inlet;
#X text 23 12 note;
#X obj 641 645 outlet;
#X obj 119 51 route reg rnd reset delay;
#X obj 641 618 delay 100;
#X obj 564 646 outlet;
#X obj 641 590 t b b b;
#X connect 0 0 34 0;
#X connect 3 0 10 1;
#X connect 4 0 10 1;
#X connect 5 0 1 0;
#X connect 6 0 5 1;
#X connect 7 0 5 1;
#X connect 8 0 11 1;
#X connect 9 0 11 1;
#X connect 10 0 16 0;
#X connect 11 0 14 0;
#X connect 12 0 15 0;
#X connect 13 0 14 1;
#X connect 14 0 12 0;
#X connect 15 0 13 0;
#X connect 15 0 22 0;
#X connect 15 1 14 1;
#X connect 15 1 23 0;
#X connect 16 0 19 0;
#X connect 17 0 18 0;
#X connect 18 0 19 1;
#X connect 19 0 20 0;
#X connect 20 0 22 0;
#X connect 20 1 23 0;
#X connect 21 0 15 1;
#X connect 22 0 24 0;
#X connect 23 0 24 0;
#X connect 24 0 1 0;
#X connect 24 1 37 0;
#X connect 25 0 24 1;
#X connect 26 0 21 0;
#X connect 26 1 6 0;
#X connect 26 1 3 0;
#X connect 26 1 9 0;
#X connect 26 2 25 0;
#X connect 28 0 29 0;
#X connect 29 0 17 0;
#X connect 29 1 16 1;
#X connect 30 0 28 0;
#X connect 30 1 8 0;
#X connect 30 1 4 0;
#X connect 30 1 6 0;
#X connect 30 2 25 0;
#X connect 31 0 5 0;
#X connect 31 0 10 0;
#X connect 31 0 11 0;
#X connect 34 0 26 0;
#X connect 34 1 30 0;
#X connect 34 2 7 0;
#X connect 34 2 3 0;
#X connect 34 2 8 0;
#X connect 34 3 35 1;
#X connect 35 0 33 0;
#X connect 37 0 35 0;
#X connect 37 1 33 0;
#X connect 37 2 36 0;
