#N canvas 884 159 443 574 12;
#X obj 48 16 inlet;
#X text 11 15 note;
#X obj 274 294 rnd-note;
#X obj 48 54 unpack 0 0 0;
#X obj 48 125 expr ($f1 < 8 || $f1 > 119);
#X obj 48 158 select 1;
#X obj 48 456 pack 0 0 0;
#X obj 48 410 f;
#X obj 101 198 bang;
#X obj 48 88 t f f f;
#X obj 274 352 + 8;
#X obj 274 323 f;
#X obj 328 16 inlet;
#X text 290 15 jump;
#X obj 328 54 route rnd;
#X msg 328 88 rnd \$1;
#X obj 48 491 outlet;
#X connect 0 0 3 0;
#X connect 2 0 11 0;
#X connect 2 1 7 0;
#X connect 3 0 9 0;
#X connect 3 1 6 1;
#X connect 3 2 6 2;
#X connect 4 0 5 0;
#X connect 5 0 7 0;
#X connect 5 1 8 0;
#X connect 6 0 16 0;
#X connect 7 0 6 0;
#X connect 8 0 2 0;
#X connect 9 0 4 0;
#X connect 9 1 7 1;
#X connect 9 2 11 1;
#X connect 10 0 6 0;
#X connect 11 0 10 0;
#X connect 12 0 14 0;
#X connect 14 0 15 0;
#X connect 14 1 10 1;
#X connect 15 0 2 1;
