#N canvas 0 50 1174 578 12;
#X obj 139 137 seq-midi-in;
#X obj 273 12 inlet;
#X text 338 17 channel;
#X obj 118 13 inlet;
#X text 163 14 rec-len;
#X obj 648 247 f;
#X obj 564 16 t f f;
#X obj 611 204 f;
#X obj 565 51 sel 48;
#X obj 555 414 print note;
#X obj 643 487 print pos;
#X obj 645 449 f;
#X obj 650 408 r cnt-64;
#X obj 565 83 t b b;
#X obj 555 313 spigot;
#X obj 646 278 > 0;
#X obj 555 363 t f b;
#X connect 1 0 0 1;
#X connect 3 0 0 0;
#X connect 5 0 15 0;
#X connect 6 0 8 0;
#X connect 6 1 7 1;
#X connect 7 0 14 0;
#X connect 8 0 13 0;
#X connect 11 0 10 0;
#X connect 12 0 11 1;
#X connect 13 0 5 0;
#X connect 13 1 7 0;
#X connect 14 0 16 0;
#X connect 15 0 14 1;
#X connect 16 0 9 0;
#X connect 16 1 11 0;
