#N canvas 426 260 469 458 12;
#X obj 251 16 notein;
#X obj 324 94 spigot;
#X obj 251 94 spigot;
#X obj 22 338 f;
#X obj 331 16 inlet;
#X text 373 15 channel;
#X obj 313 53 ==;
#X msg 91 285 0;
#X obj 91 16 r reset;
#X obj 251 380 outlet;
#X text 251 404 note;
#X text 308 404 vel;
#X obj 306 380 outlet;
#X obj 22 380 outlet;
#X text 20 404 pos;
#X obj 306 338 f;
#X obj 251 285 t b f b;
#X obj 17 16 r cnt-256;
#X obj 149 16 inlet;
#X obj 251 242 spigot;
#X obj 17 94 spigot;
#X msg 99 53 1;
#X msg 125 175 0;
#X obj 17 123 sel 256;
#X obj 149 53 + 1;
#X text 188 15 rec-len;
#X connect 0 0 2 0;
#X connect 0 1 1 0;
#X connect 0 2 6 0;
#X connect 1 0 15 1;
#X connect 2 0 19 0;
#X connect 3 0 13 0;
#X connect 4 0 6 1;
#X connect 6 0 2 1;
#X connect 6 0 1 1;
#X connect 7 0 3 1;
#X connect 8 0 7 0;
#X connect 8 0 21 0;
#X connect 15 0 12 0;
#X connect 16 0 15 0;
#X connect 16 1 9 0;
#X connect 16 2 3 0;
#X connect 17 0 20 0;
#X connect 18 0 24 0;
#X connect 19 0 16 0;
#X connect 20 0 23 0;
#X connect 21 0 20 1;
#X connect 21 0 19 1;
#X connect 22 0 20 1;
#X connect 22 0 19 1;
#X connect 23 0 22 0;
#X connect 23 1 3 1;
#X connect 24 0 23 1;
