#N canvas 226 125 1199 594 12;
#X obj 14 15 inlet;
#X text 53 13 tick;
#X obj 459 15 inlet;
#X text 499 15 reset;
#X obj 287 14 inlet;
#X obj 105 13 r note;
#X obj 71 166 seq-rec;
#X obj 105 88 pack 0 0 0;
#X obj 96 191 seq-rec;
#X obj 116 215 seq-rec;
#X obj 136 240 seq-rec;
#X obj 153 265 seq-rec;
#X obj 367 15 inlet;
#X text 326 13 rec;
#X text 408 15 play;
#X obj 357 349 outlet;
#X text 412 349 finished;
#X obj 21 349 outlet;
#X text 80 349 note;
#X obj 105 53 poly 6;
#X obj 105 121 route 1 2 3 4 5 6;
#X obj 174 291 seq-rec;
#X text 477 138 ticks should be at twice the resolution of the player:
regular 16 steps should be at tick-32 or higher;
#X connect 0 0 10 0;
#X connect 0 0 6 0;
#X connect 0 0 11 0;
#X connect 0 0 8 0;
#X connect 0 0 9 0;
#X connect 0 0 21 0;
#X connect 2 0 10 4;
#X connect 2 0 6 4;
#X connect 2 0 11 4;
#X connect 2 0 9 4;
#X connect 2 0 8 4;
#X connect 2 0 21 4;
#X connect 4 0 10 1;
#X connect 4 0 6 1;
#X connect 4 0 11 1;
#X connect 4 0 9 1;
#X connect 4 0 8 1;
#X connect 4 0 21 1;
#X connect 5 0 19 0;
#X connect 6 0 17 0;
#X connect 6 1 15 0;
#X connect 7 0 20 0;
#X connect 8 0 17 0;
#X connect 9 0 17 0;
#X connect 10 0 17 0;
#X connect 11 0 17 0;
#X connect 12 0 10 2;
#X connect 12 0 6 2;
#X connect 12 0 11 2;
#X connect 12 0 8 2;
#X connect 12 0 9 2;
#X connect 12 0 21 2;
#X connect 19 0 7 0;
#X connect 19 1 7 1;
#X connect 19 2 7 2;
#X connect 20 0 6 3;
#X connect 20 1 8 3;
#X connect 20 2 9 3;
#X connect 20 3 10 3;
#X connect 20 4 11 3;
#X connect 20 5 21 3;
#X connect 21 0 17 0;
