#N canvas 226 125 1199 594 12;
#X obj 14 15 inlet;
#X text 53 14 tick;
#X obj 459 15 inlet;
#X obj 287 15 inlet;
#X obj 71 166 seq-rec;
#X obj 105 88 pack 0 0 0;
#X obj 96 191 seq-rec;
#X obj 116 215 seq-rec;
#X obj 136 240 seq-rec;
#X obj 153 265 seq-rec;
#X obj 367 15 inlet;
#X text 326 14 rec;
#X text 408 14 play;
#X obj 357 349 outlet;
#X text 412 348 finished;
#X obj 21 349 outlet;
#X text 80 348 note;
#X obj 105 121 route 1 2 3 4 5 6;
#X obj 174 291 seq-rec;
#X text 477 138 ticks should be at twice the resolution of the player:
regular 16 steps should be at tick-32 or higher;
#X text 499 14 reset/clear;
#X obj 105 15 inlet;
#X text 150 14 notes, f 7;
#X obj 105 53 poly 2;
#X connect 0 0 6 0;
#X connect 0 0 4 0;
#X connect 0 0 8 0;
#X connect 0 0 9 0;
#X connect 0 0 7 0;
#X connect 0 0 18 0;
#X connect 2 0 6 4;
#X connect 2 0 4 4;
#X connect 2 0 8 4;
#X connect 2 0 9 4;
#X connect 2 0 7 4;
#X connect 2 0 18 4;
#X connect 3 0 6 1;
#X connect 3 0 4 1;
#X connect 3 0 8 1;
#X connect 3 0 9 1;
#X connect 3 0 7 1;
#X connect 3 0 18 1;
#X connect 4 0 15 0;
#X connect 4 1 13 0;
#X connect 5 0 17 0;
#X connect 6 0 15 0;
#X connect 7 0 15 0;
#X connect 8 0 15 0;
#X connect 9 0 15 0;
#X connect 10 0 6 2;
#X connect 10 0 4 2;
#X connect 10 0 8 2;
#X connect 10 0 9 2;
#X connect 10 0 7 2;
#X connect 10 0 18 2;
#X connect 17 0 4 3;
#X connect 17 1 6 3;
#X connect 17 2 7 3;
#X connect 17 3 8 3;
#X connect 17 4 9 3;
#X connect 17 5 18 3;
#X connect 18 0 15 0;
#X connect 21 0 23 0;
#X connect 23 0 5 0;
#X connect 23 1 5 1;
#X connect 23 2 5 2;
