#N canvas 1441 708 1143 817 12;
#X msg 444 45 const 0;
#X obj 121 16 inlet;
#X obj 10 16 inlet;
#X text 53 15 tick;
#X obj 10 113 spigot 0;
#X msg 116 164 0;
#X obj 556 718 outlet;
#X text 608 717 finished;
#X obj 444 16 inlet;
#X text 494 15 reset;
#X obj 10 216 f 0;
#X obj 49 216 + 1;
#X obj 70 404 bang;
#X text 169 15 rec;
#X obj 220 16 inlet;
#X text 268 15 play;
#X obj 269 551 tabread \$0-note;
#X obj 347 661 tabread \$0-velocity;
#X obj 269 518 t f f;
#X obj 269 488 spigot 0;
#X obj 220 69 t f f;
#X obj 39 551 t f f;
#X obj 39 518 spigot 0;
#X obj 54 704 array set \$0-velocity;
#X obj 13 651 array set \$0-note;
#X obj 108 488 spigot 0;
#X obj 108 518 unpack 0 0;
#X obj 556 692 bang;
#X obj 444 96 array define -yrange 0 127 \$0-velocity 128;
#X obj 455 72 array define -yrange 0 127 \$0-note 128;
#X obj 269 581 moses 1;
#X obj 347 632 f;
#X obj 315 606 t f b;
#X obj 294 692 pack 0 0;
#X obj 318 16 inlet;
#X text 367 15 note;
#X obj 56 286 + 1;
#X msg 407 72 127;
#X obj 10 314 mod 127;
#X obj 10 349 moses 127;
#X obj 181 216 f;
#X obj 121 45 t f f f f;
#X obj 181 95 sel 0;
#X obj 181 121 t b b b;
#X text 347 717 note;
#X obj 294 718 outlet;
#X text 51 742 rec;
#X text 290 742 play;
#X obj 220 42 change;
#X text 125 679 pos;
#X text 52 679 value;
#X obj 597 503 print;
#X obj 583 412 spigot;
#X obj 653 416 spigot;
#X obj 666 262 t f f;
#X msg 754 268 0;
#X msg 831 270 200;
#X obj 690 319 !=;
#X text 764 222 in case we need this for trigger recording;
#X msg 540 181 note;
#X msg 632 190 vel;
#X connect 0 0 28 0;
#X connect 0 0 29 0;
#X connect 1 0 41 0;
#X connect 2 0 4 0;
#X connect 4 0 10 0;
#X connect 5 0 10 1;
#X connect 5 0 19 1;
#X connect 5 0 22 1;
#X connect 5 0 4 1;
#X connect 8 0 0 0;
#X connect 8 0 5 0;
#X connect 8 0 37 0;
#X connect 10 0 11 0;
#X connect 10 0 38 0;
#X connect 11 0 10 1;
#X connect 12 0 5 0;
#X connect 12 0 27 0;
#X connect 14 0 48 0;
#X connect 16 0 30 0;
#X connect 17 0 33 1;
#X connect 18 0 16 0;
#X connect 18 1 31 1;
#X connect 19 0 18 0;
#X connect 20 0 4 1;
#X connect 20 1 19 1;
#X connect 21 0 23 1;
#X connect 21 1 24 1;
#X connect 22 0 21 0;
#X connect 25 0 26 0;
#X connect 26 0 24 0;
#X connect 26 1 23 0;
#X connect 27 0 6 0;
#X connect 30 1 32 0;
#X connect 31 0 17 0;
#X connect 32 0 33 0;
#X connect 32 1 31 0;
#X connect 33 0 45 0;
#X connect 34 0 25 0;
#X connect 36 0 38 1;
#X connect 37 0 36 0;
#X connect 37 0 39 1;
#X connect 38 0 39 0;
#X connect 38 0 40 1;
#X connect 39 0 19 0;
#X connect 39 0 22 0;
#X connect 39 1 12 0;
#X connect 40 0 36 0;
#X connect 40 0 39 1;
#X connect 41 0 4 1;
#X connect 41 1 22 1;
#X connect 41 2 25 1;
#X connect 41 3 42 0;
#X connect 42 0 43 0;
#X connect 43 0 40 0;
#X connect 43 1 5 0;
#X connect 43 2 27 0;
#X connect 48 0 20 0;
#X connect 52 0 51 0;
#X connect 53 0 51 0;
#X connect 54 0 53 0;
#X connect 54 1 57 0;
#X connect 55 0 57 1;
#X connect 56 0 57 1;
#X connect 57 0 53 1;
#X connect 57 0 52 1;
#X connect 59 0 52 0;
#X connect 60 0 54 0;
