#N canvas 294 163 820 776 12;
#X msg 444 102 const 0;
#X obj 137 16 inlet;
#X obj 10 16 inlet;
#X text 53 15 tick;
#X obj 565 695 outlet;
#X text 617 694 finished;
#X obj 444 16 inlet;
#X text 494 15 reset;
#X obj 10 102 f 0;
#X obj 49 102 + 1;
#X obj 182 315 bang;
#X text 185 15 rec;
#X obj 220 16 inlet;
#X text 268 15 play;
#X obj 299 511 tabread \$0-note;
#X obj 398 639 tabread \$0-velocity;
#X obj 299 458 t f f;
#X obj 299 425 spigot 0;
#X obj 10 458 t f f;
#X obj 10 425 spigot 0;
#X obj 17 639 array set \$0-velocity;
#X obj 84 511 array set \$0-note;
#X obj 84 425 spigot 0;
#X obj 84 458 unpack 0 0;
#X obj 565 669 bang;
#X obj 299 545 moses 1;
#X obj 377 602 f;
#X obj 345 575 t f b;
#X obj 345 669 pack 0 0;
#X obj 314 16 inlet;
#X text 363 15 note;
#X text 398 694 note;
#X obj 345 695 outlet;
#X text 17 720 rec;
#X text 342 720 play;
#X text 94 614 pos;
#X text 15 614 value;
#X obj 455 129 array define -yrange 0 127 \$0-note 1024;
#X obj 444 153 array define -yrange 0 127 \$0-velocity 1024;
#X obj 137 68 t f f;
#X msg 28 72 0;
#X obj 584 16 inlet;
#X obj 60 178 * 3;
#X obj 42 236 f;
#X obj 60 206 - 1;
#X obj 10 266 moses;
#X text 637 15 steps (seq-len);
#X text 91 177 looper resolution (quantisization);
#X connect 0 0 37 0;
#X connect 0 0 38 0;
#X connect 1 0 39 0;
#X connect 2 0 8 0;
#X connect 6 0 0 0;
#X connect 6 0 43 0;
#X connect 8 0 9 0;
#X connect 8 0 45 0;
#X connect 9 0 8 1;
#X connect 10 0 24 0;
#X connect 10 0 40 0;
#X connect 12 0 17 1;
#X connect 14 0 25 0;
#X connect 15 0 28 1;
#X connect 16 0 14 0;
#X connect 16 1 26 1;
#X connect 17 0 16 0;
#X connect 18 0 20 1;
#X connect 18 1 21 1;
#X connect 19 0 18 0;
#X connect 22 0 23 0;
#X connect 23 0 21 0;
#X connect 23 1 20 0;
#X connect 24 0 4 0;
#X connect 25 1 27 0;
#X connect 26 0 15 0;
#X connect 27 0 28 0;
#X connect 27 1 26 0;
#X connect 28 0 32 0;
#X connect 29 0 22 0;
#X connect 39 0 22 1;
#X connect 39 1 19 1;
#X connect 40 0 8 1;
#X connect 41 0 42 0;
#X connect 42 0 44 0;
#X connect 43 0 45 1;
#X connect 44 0 43 1;
#X connect 45 0 17 0;
#X connect 45 0 19 0;
#X connect 45 1 10 0;
