#N canvas 201 247 1259 714 10;
#X obj 520 356 list append;
#X obj 677 330 t l;
#X obj 583 330 list prepend;
#X obj 737 356 list append;
#X obj 899 330 t l;
#X obj 800 330 list prepend;
#X msg 973 177 const 0;
#X obj 159 138 moses 0;
#X obj 159 163 bang;
#X msg 213 341 0;
#X obj 260 370 + 1;
#X msg 432 438 0;
#X obj 475 469 + 1;
#X obj 198 404 + 1;
#X obj 417 508 mod;
#X obj 159 96 unpack 0 0 0;
#X obj 936 356 list append;
#X obj 999 330 list prepend;
#X obj 479 605 pack 0 0 0;
#X obj 417 540 t f f f;
#X obj 281 15 inlet;
#X obj 479 666 outlet;
#X text 456 86 reset;
#X obj 1097 330 t l;
#X text 9 150 -1 marks end of sequence;
#X text 113 495 bang -> size;
#X text 300 441 bang -> next note;
#X msg 299 629 size \$1;
#X msg 479 629 note \$1 \$2 \$3;
#X obj 993 212 array define \$0-notes;
#X obj 993 236 array define \$0-break;
#X obj 993 260 array define \$0-duration;
#X obj 936 386 array set \$0-break;
#X obj 737 386 array set \$0-duration;
#X obj 520 386 array set \$0-notes;
#X obj 665 574 tabread \$0-break;
#X obj 529 574 tabread \$0-duration;
#X obj 417 574 tabread \$0-notes;
#X obj 868 510 +;
#X msg 816 483 bang;
#X msg 884 483 0;
#X obj 281 53 route next size len reset;
#X text 735 482 bang -> len;
#X msg 801 629 len \$1;
#X obj 198 315 bang;
#X obj 499 85 bang;
#X text 431 14 get next note|get seq size|get seq len|reset|sequence:
[note \, dur \, break] | -1 marks end of sequence to pack;
#X obj 198 370 f;
#X obj 197 495 f;
#X obj 417 469 f;
#X obj 816 510 f;
#X obj 801 540 f;
#X msg 227 469 0;
#X connect 0 0 34 0;
#X connect 1 0 2 1;
#X connect 2 0 1 0;
#X connect 2 0 0 1;
#X connect 3 0 33 0;
#X connect 4 0 5 1;
#X connect 5 0 4 0;
#X connect 5 0 3 1;
#X connect 6 0 29 0;
#X connect 6 0 30 0;
#X connect 6 0 31 0;
#X connect 7 0 8 0;
#X connect 7 1 2 0;
#X connect 7 1 44 0;
#X connect 8 0 0 0;
#X connect 8 0 3 0;
#X connect 8 0 16 0;
#X connect 9 0 47 1;
#X connect 10 0 47 1;
#X connect 11 0 49 1;
#X connect 12 0 49 1;
#X connect 13 0 14 1;
#X connect 13 0 48 1;
#X connect 14 0 19 0;
#X connect 15 0 7 0;
#X connect 15 1 5 0;
#X connect 15 1 38 0;
#X connect 15 1 39 0;
#X connect 15 2 17 0;
#X connect 15 2 38 0;
#X connect 15 2 39 0;
#X connect 16 0 32 0;
#X connect 17 0 16 1;
#X connect 17 0 23 0;
#X connect 18 0 28 0;
#X connect 19 0 37 0;
#X connect 19 1 36 0;
#X connect 19 2 35 0;
#X connect 20 0 41 0;
#X connect 23 0 17 1;
#X connect 27 0 21 0;
#X connect 28 0 21 0;
#X connect 35 0 18 2;
#X connect 36 0 18 1;
#X connect 37 0 18 0;
#X connect 38 0 50 1;
#X connect 39 0 50 0;
#X connect 40 0 38 1;
#X connect 40 0 50 1;
#X connect 41 0 49 0;
#X connect 41 1 48 0;
#X connect 41 2 51 0;
#X connect 41 3 45 0;
#X connect 41 4 15 0;
#X connect 43 0 21 0;
#X connect 44 0 47 0;
#X connect 45 0 6 0;
#X connect 45 0 17 1;
#X connect 45 0 5 1;
#X connect 45 0 40 0;
#X connect 45 0 2 1;
#X connect 45 0 11 0;
#X connect 45 0 9 0;
#X connect 45 0 52 0;
#X connect 47 0 10 0;
#X connect 47 0 13 0;
#X connect 48 0 27 0;
#X connect 49 0 12 0;
#X connect 49 0 14 0;
#X connect 50 0 38 1;
#X connect 50 0 51 1;
#X connect 51 0 43 0;
#X connect 52 0 48 1;
