#N canvas 697 412 450 300 12;
#X obj 17 243 outlet;
#X obj 37 151 f;
#X msg 17 211 64 6 2;
#X msg 37 175 add2 \$1;
#X obj 228 11 inlet;
#X obj 112 11 inlet;
#X obj 17 11 inlet;
#X text 56 10 value;
#X obj 17 55 t b b b f;
#X msg 77 80 set \$1;
#X obj 57 103 f;
#X msg 57 127 add2 \$1;
#X text 151 10 parameter;
#X text 266 10 part;
#X connect 1 0 3 0;
#X connect 2 0 0 0;
#X connect 3 0 2 0;
#X connect 4 0 1 1;
#X connect 5 0 10 1;
#X connect 6 0 8 0;
#X connect 8 0 2 0;
#X connect 8 1 1 0;
#X connect 8 2 10 0;
#X connect 8 3 9 0;
#X connect 9 0 2 0;
#X connect 10 0 11 0;
#X connect 11 0 2 0;
