#N canvas 1051 325 361 351 12;
#X obj 116 25 inlet;
#X text 164 24 up to 5 notes to silence;
#X obj 116 56 unpack 0 0 0 0 0;
#X obj 98 99 sel;
#X obj 125 122 sel;
#X obj 152 145 sel;
#X obj 179 169 sel;
#X obj 207 193 sel;
#X msg 37 267 -1;
#X obj 28 25 inlet;
#X text 70 24 note;
#X obj 37 309 outlet;
#X connect 0 0 2 0;
#X connect 2 0 3 1;
#X connect 2 1 4 1;
#X connect 2 2 5 1;
#X connect 2 3 6 1;
#X connect 2 4 7 1;
#X connect 3 0 8 0;
#X connect 3 1 4 0;
#X connect 4 0 8 0;
#X connect 4 1 5 0;
#X connect 5 0 8 0;
#X connect 5 1 6 0;
#X connect 6 0 8 0;
#X connect 6 1 7 0;
#X connect 7 0 8 0;
#X connect 7 1 11 0;
#X connect 8 0 11 0;
#X connect 9 0 3 0;
