#N canvas 543 312 396 249 12;
#X obj 28 25 inlet;
#X obj 28 221 outlet;
#X text 70 24 note msg;
#X obj 155 25 inlet;
#X text 200 24 up to 5 notes to silence;
#X obj 28 60 unpack 0 0 0;
#X obj 28 191 pack 0 0 0;
#X obj 28 92 silence;
#X obj 67 121 silence;
#X obj 109 151 silence;
#X connect 0 0 5 0;
#X connect 3 0 7 1;
#X connect 3 0 8 1;
#X connect 3 0 9 1;
#X connect 5 0 7 0;
#X connect 5 1 8 0;
#X connect 5 2 9 0;
#X connect 6 0 1 0;
#X connect 7 0 6 0;
#X connect 8 0 6 1;
#X connect 9 0 6 2;
