#N canvas 500 230 791 699 12;
#X obj 19 22 inlet;
#X obj 51 423 noteout;
#X obj 51 388 makenote 1 10;
#X msg 51 124 arm;
#X obj 51 181 steps;
#X obj 51 217 f;
#X text 174 25 channel \, voice \, size(num of steps) \, steps \, tick
, f 31;
#X obj 19 81 t f b;
#X obj 51 352 swing;
#X obj 19 47 route ch voice swing;
#X obj 51 316 spigot 0;
#X obj 121 316 spigot 0;
#X msg 124 281 1;
#X msg 177 281 0;
#X obj 124 251 select 0;
#X connect 0 0 9 0;
#X connect 2 0 1 0;
#X connect 2 1 1 1;
#X connect 3 0 4 0;
#X connect 4 0 5 0;
#X connect 5 0 10 0;
#X connect 5 0 11 0;
#X connect 7 0 1 2;
#X connect 7 1 3 0;
#X connect 8 0 2 0;
#X connect 9 0 7 0;
#X connect 9 1 5 1;
#X connect 9 2 10 1;
#X connect 9 2 8 1;
#X connect 9 2 14 0;
#X connect 9 3 4 0;
#X connect 10 0 8 0;
#X connect 11 0 2 0;
#X connect 12 0 11 1;
#X connect 13 0 11 1;
#X connect 14 0 12 0;
#X connect 14 1 13 0;
