#N canvas 417 294 450 300 12;
#X obj 35 179 outlet;
#X obj 101 179 outlet;
#X obj 167 179 outlet;
#X obj 35 11 inlet;
#X obj 77 84 + 1;
#X msg 53 55 0;
#X obj 35 84 f;
#X obj 35 114 route 0 1 2;
#X text 122 114 0-arm 1-play 2-stop;
#X obj 100 11 loadbang;
#X connect 3 0 6 0;
#X connect 4 0 6 1;
#X connect 5 0 6 1;
#X connect 6 0 4 0;
#X connect 6 0 7 0;
#X connect 7 0 0 0;
#X connect 7 1 1 0;
#X connect 7 2 5 0;
#X connect 7 2 2 0;
#X connect 9 0 5 0;
