#N canvas 1063 130 414 385 12;
#X obj 19 22 inlet;
#X obj 51 290 noteout;
#X obj 51 255 makenote 1 10;
#X msg 51 124 arm;
#X obj 19 47 route ch voice;
#X obj 51 181 steps;
#X obj 51 217 f;
#X text 159 24 channel \, voice \, size(num of steps) \, steps \, tick
, f 31;
#X obj 19 81 t f b;
#X obj 192 225 print a;
#X connect 0 0 4 0;
#X connect 2 0 1 0;
#X connect 2 1 1 1;
#X connect 3 0 5 0;
#X connect 4 0 8 0;
#X connect 4 1 6 1;
#X connect 4 2 5 0;
#X connect 5 0 6 0;
#X connect 5 0 9 0;
#X connect 6 0 2 0;
#X connect 8 0 1 2;
#X connect 8 1 3 0;
