#N canvas 392 189 530 613 12;
#X obj 63 28 inlet;
#X obj 17 523 noteout;
#X obj 95 477 makenote 1 10;
#X msg 95 147 arm;
#X obj 95 214 steps;
#X obj 63 87 t f b;
#X obj 283 349 swing;
#X text 260 27 channel \, voice(pitch) \, size(num of steps) \, swing
delay \, delay \, steps \, tick, f 31;
#X obj 95 308 spigot 1;
#X obj 167 308 spigot 0;
#X obj 63 53 route ch swing delay;
#X obj 167 426 f;
#X msg 148 147 0;
#X msg 183 147 1;
#X obj 167 349 delay 0;
#X obj 167 263 bang;
#X obj 148 87 t b b f;
#X msg 275 147 0;
#X obj 283 263 bang;
#X obj 283 308 spigot 0;
#X obj 255 87 t b b b f;
#X msg 312 147 1;
#X connect 0 0 10 0;
#X connect 2 0 1 0;
#X connect 2 1 1 1;
#X connect 3 0 4 0;
#X connect 4 0 8 0;
#X connect 4 0 11 1;
#X connect 4 0 15 0;
#X connect 4 0 18 0;
#X connect 5 0 1 2;
#X connect 5 1 3 0;
#X connect 6 0 11 0;
#X connect 8 0 2 0;
#X connect 9 0 14 0;
#X connect 10 0 5 0;
#X connect 10 1 8 1;
#X connect 10 1 20 0;
#X connect 10 2 16 0;
#X connect 10 3 4 0;
#X connect 11 0 2 0;
#X connect 12 0 8 1;
#X connect 13 0 9 1;
#X connect 14 0 11 0;
#X connect 15 0 9 0;
#X connect 16 0 12 0;
#X connect 16 1 13 0;
#X connect 16 2 14 1;
#X connect 17 0 9 1;
#X connect 18 0 19 0;
#X connect 19 0 6 0;
#X connect 20 0 12 0;
#X connect 20 1 17 0;
#X connect 20 2 21 0;
#X connect 20 3 6 1;
#X connect 21 0 19 1;
