#N canvas 536 351 721 538 12;
#X obj 35 353 outlet;
#X obj 94 353 outlet;
#X obj 160 353 outlet;
#X obj 35 11 inlet;
#X obj 77 147 + 1;
#X msg 53 118 0;
#X obj 35 147 f;
#X obj 35 177 route 0 1 2;
#X text 122 177 0-arm 1-play 2-stop;
#X obj 100 11 loadbang;
#X obj 245 353 ../apc/ctl-pad-light;
#X msg 216 303 \$1 5;
#X obj 216 264 f;
#X obj 260 264 f;
#X obj 304 264 f;
#X msg 260 303 \$1 1;
#X msg 304 303 \$1 0;
#X obj 35 79 t b f;
#X connect 3 0 17 0;
#X connect 4 0 6 1;
#X connect 5 0 6 1;
#X connect 6 0 4 0;
#X connect 6 0 7 0;
#X connect 7 0 0 0;
#X connect 7 0 12 0;
#X connect 7 1 1 0;
#X connect 7 1 13 0;
#X connect 7 2 5 0;
#X connect 7 2 2 0;
#X connect 7 2 14 0;
#X connect 9 0 5 0;
#X connect 11 0 10 0;
#X connect 12 0 11 0;
#X connect 13 0 15 0;
#X connect 14 0 16 0;
#X connect 15 0 10 0;
#X connect 16 0 10 0;
#X connect 17 0 6 0;
#X connect 17 1 14 1;
#X connect 17 1 13 1;
#X connect 17 1 12 1;
