#N canvas 761 241 969 727 12;
#X obj 54 363 + 1;
#X obj 97 83 t b b b b b;
#X msg 134 253 0 0 0 0 0 0 0 0 0 0 0 0 0 0 0 0 0 0 0 0 0 0 0 0 0 0
0 0 0 0 0;
#X obj 52 6 inlet;
#X obj 13 177 spigot;
#X msg 79 126 0;
#X obj 13 363 f;
#X obj 115 5 r reset;
#X obj 13 391 mod;
#X msg 182 142 set resize \$1;
#X msg 182 173 resize 8;
#X obj 134 310 array set \$0-preset;
#X obj 13 423 tabread \$0-preset;
#X msg 171 389 set \$1-preset;
#X obj 171 339 f \$0;
#X obj 31 83 t f b f;
#X obj 13 451 select -1;
#X text 297 47 bang - carries the metronome ticks;
#X obj 52 48 route play arm size triplets bang;
#X obj 182 221 array define -yrange -1 127 \$0-preset;
#X obj 593 221 array define -yrange 0 1 \$0-triplets;
#X obj 595 310 array set \$0-triplets;
#X msg 600 389 set \$1-triplets;
#X obj 105 520 tabread \$0-triplets;
#X obj 55 657 outlet;
#X obj 55 628 f;
#X obj 105 550 select 0 1;
#X obj 138 588 triplets;
#X obj 190 3 inlet;
#X text 233 5 triplet ticks;
#X obj 73 481 t f f;
#X msg 59 309 0;
#X text 245 580 this thing triggers a leading 0 on first play;
#X connect 0 0 6 1;
#X connect 1 1 5 0;
#X connect 1 2 2 0;
#X connect 1 3 10 0;
#X connect 1 4 14 0;
#X connect 2 0 11 0;
#X connect 2 0 21 0;
#X connect 3 0 18 0;
#X connect 4 0 6 0;
#X connect 5 0 6 1;
#X connect 5 0 4 1;
#X connect 6 0 0 0;
#X connect 6 0 8 0;
#X connect 7 0 5 0;
#X connect 8 0 12 0;
#X connect 9 0 10 0;
#X connect 10 0 19 0;
#X connect 10 0 20 0;
#X connect 12 0 16 0;
#X connect 14 0 13 0;
#X connect 14 0 22 0;
#X connect 15 0 8 1;
#X connect 15 1 10 0;
#X connect 15 2 9 0;
#X connect 16 1 30 0;
#X connect 18 0 4 1;
#X connect 18 1 1 0;
#X connect 18 2 15 0;
#X connect 18 3 21 0;
#X connect 18 4 4 0;
#X connect 18 5 11 0;
#X connect 18 5 31 0;
#X connect 23 0 26 0;
#X connect 25 0 24 0;
#X connect 26 0 25 0;
#X connect 26 1 27 0;
#X connect 27 0 25 0;
#X connect 28 0 27 1;
#X connect 30 0 23 0;
#X connect 30 1 25 1;
#X connect 31 0 6 1;
