#N canvas 674 79 951 782 12;
#X obj 35 546 outlet;
#X obj 94 546 outlet;
#X obj 160 546 outlet;
#X obj 35 11 inlet;
#X obj 77 251 + 1;
#X msg 53 222 0;
#X obj 35 251 f;
#X obj 35 281 route 0 1 2;
#X text 120 281 0-arm 1-play 2-stop;
#X obj 100 11 loadbang;
#X obj 245 546 ../apc/ctl-pad-light;
#X msg 198 496 \$1 5;
#X obj 198 457 f;
#X obj 242 457 f;
#X obj 286 457 f;
#X msg 242 496 \$1 1;
#X msg 286 496 \$1 0;
#X obj 35 87 t b f;
#X obj 422 546 outlet;
#X text 34 570 arm;
#X obj 422 11 r pause;
#X text 98 570 play;
#X text 156 570 stop;
#X text 422 570 pause/resume;
#X obj 422 284 tgl 15 0 empty empty empty 17 7 0 10 -262144 -1 -1 1
1;
#X obj 330 457 f;
#X msg 330 496 \$1 2;
#X msg 357 241 0;
#X text 442 283 0-pause | 1-resume;
#X obj 422 198 spigot 0;
#X obj 315 323 route 0 1;
#X obj 132 113 select 1;
#X msg 132 137 1;
#X obj 35 183 spigot;
#X obj 609 11 r listen-lock;
#X obj 609 198 spigot 0;
#X msg 446 257 1;
#X obj 609 285 tgl 15 0 empty empty empty 17 7 0 10 -262144 -1 -1 0
1;
#X obj 375 457 f;
#X obj 498 323 route 0 1;
#X msg 375 496 \$1 6;
#X obj 609 546 outlet;
#X text 609 570 listen;
#X text 629 285 1-lock | 0-unlock;
#X msg 633 259 0;
#X obj 526 461 spigot;
#X msg 540 426 0;
#X msg 579 426 1;
#X obj 35 49 route listen;
#X obj 132 87 t f f f f;
#X connect 3 0 48 0;
#X connect 4 0 6 1;
#X connect 5 0 6 1;
#X connect 6 0 4 0;
#X connect 6 0 7 0;
#X connect 7 0 0 0;
#X connect 7 0 12 0;
#X connect 7 1 1 0;
#X connect 7 1 13 0;
#X connect 7 2 5 0;
#X connect 7 2 2 0;
#X connect 7 2 14 0;
#X connect 9 0 36 0;
#X connect 9 0 44 0;
#X connect 11 0 10 0;
#X connect 12 0 11 0;
#X connect 13 0 15 0;
#X connect 14 0 16 0;
#X connect 15 0 10 0;
#X connect 16 0 10 0;
#X connect 17 0 33 0;
#X connect 17 1 14 1;
#X connect 17 1 13 1;
#X connect 17 1 12 1;
#X connect 17 1 25 1;
#X connect 17 1 38 1;
#X connect 20 0 29 0;
#X connect 24 0 18 0;
#X connect 24 0 30 0;
#X connect 25 0 26 0;
#X connect 26 0 10 0;
#X connect 27 0 33 1;
#X connect 29 0 24 0;
#X connect 29 0 27 0;
#X connect 30 0 25 0;
#X connect 30 1 13 0;
#X connect 31 0 32 0;
#X connect 32 0 33 1;
#X connect 33 0 6 0;
#X connect 34 0 35 0;
#X connect 35 0 27 0;
#X connect 35 0 37 0;
#X connect 36 0 24 0;
#X connect 37 0 39 0;
#X connect 37 0 41 0;
#X connect 38 0 40 0;
#X connect 39 0 13 0;
#X connect 39 0 47 0;
#X connect 39 1 38 0;
#X connect 39 1 46 0;
#X connect 40 0 10 0;
#X connect 44 0 37 0;
#X connect 45 0 41 0;
#X connect 46 0 45 1;
#X connect 47 0 45 1;
#X connect 48 0 49 0;
#X connect 48 1 17 0;
#X connect 49 0 31 0;
#X connect 49 1 45 0;
#X connect 49 2 29 1;
#X connect 49 3 35 1;
