#N canvas 75 256 1500 688 12;
#X obj 54 363 + 1;
#X obj 73 476 outlet;
#X obj 93 83 t b b b b b;
#X obj 789 195 tabwrite;
#X obj 789 58 tgl 15 0 empty t0 empty 17 7 0 10 -262144 -1 -1 0 1;
#X msg 821 154 0;
#X obj 789 115 t f b;
#X obj 804 58 tgl 15 0 empty t1 empty 17 7 0 10 -262144 -1 -1 0 1;
#X obj 842 115 t f b;
#X msg 874 154 1;
#X obj 819 58 tgl 15 0 empty t2 empty 17 7 0 10 -262144 -1 -1 0 1;
#X obj 901 115 t f b;
#X msg 933 154 2;
#X obj 834 58 tgl 15 0 empty t3 empty 17 7 0 10 -262144 -1 -1 0 1;
#X obj 962 115 t f b;
#X msg 994 154 3;
#X obj 849 58 tgl 15 0 empty t4 empty 17 7 0 10 -262144 -1 -1 0 1;
#X obj 1021 115 t f b;
#X obj 864 58 tgl 15 0 empty t5 empty 17 7 0 10 -262144 -1 -1 0 1;
#X obj 1074 115 t f b;
#X obj 879 58 tgl 15 0 empty t6 empty 17 7 0 10 -262144 -1 -1 0 1;
#X obj 1133 115 t f b;
#X obj 894 58 tgl 15 0 empty t7 empty 17 7 0 10 -262144 -1 -1 0 1;
#X obj 1193 115 t f b;
#X msg 1053 154 4;
#X msg 1106 154 5;
#X msg 1165 154 6;
#X msg 1225 154 7;
#X obj 852 319 tabwrite;
#X obj 909 58 tgl 15 0 empty t8 empty 17 7 0 10 -262144 -1 -1 0 1;
#X obj 852 236 t f b;
#X obj 924 58 tgl 15 0 empty t9 empty 17 7 0 10 -262144 -1 -1 0 1;
#X obj 905 236 t f b;
#X obj 939 58 tgl 15 0 empty t10 empty 17 7 0 10 -262144 -1 -1 0 1
;
#X obj 964 236 t f b;
#X obj 954 58 tgl 15 0 empty t11 empty 17 7 0 10 -262144 -1 -1 0 1
;
#X obj 1025 236 t f b;
#X obj 969 58 tgl 15 0 empty t12 empty 17 7 0 10 -262144 -1 -1 0 1
;
#X obj 1084 236 t f b;
#X obj 984 58 tgl 15 0 empty t13 empty 17 7 0 10 -262144 -1 -1 0 1
;
#X obj 1137 236 t f b;
#X obj 999 58 tgl 15 0 empty t14 empty 17 7 0 10 -262144 -1 -1 0 1
;
#X obj 1196 236 t f b;
#X obj 1014 58 tgl 15 0 empty t15 empty 17 7 0 10 -262144 -1 -1 0 1
;
#X obj 1247 236 t f b;
#X msg 884 277 8;
#X msg 937 277 9;
#X msg 996 277 10;
#X msg 1057 277 11;
#X msg 1116 277 12;
#X msg 1169 277 13;
#X msg 1228 277 14;
#X msg 1279 277 15;
#X obj 902 474 tabwrite;
#X obj 1029 58 tgl 15 0 empty t16 empty 17 7 0 10 -262144 -1 -1 0 1
;
#X obj 902 383 t f b;
#X obj 1044 58 tgl 15 0 empty t17 empty 17 7 0 10 -262144 -1 -1 0 1
;
#X obj 955 383 t f b;
#X obj 1059 58 tgl 15 0 empty t18 empty 17 7 0 10 -262144 -1 -1 0 1
;
#X obj 1014 383 t f b;
#X obj 1074 58 tgl 15 0 empty t19 empty 17 7 0 10 -262144 -1 -1 0 1
;
#X obj 1075 383 t f b;
#X obj 1089 58 tgl 15 0 empty t20 empty 17 7 0 10 -262144 -1 -1 0 1
;
#X obj 1134 383 t f b;
#X obj 1104 58 tgl 15 0 empty t21 empty 17 7 0 10 -262144 -1 -1 0 1
;
#X obj 1187 383 t f b;
#X obj 1119 58 tgl 15 0 empty t22 empty 17 7 0 10 -262144 -1 -1 0 1
;
#X obj 1246 383 t f b;
#X obj 1134 58 tgl 15 0 empty t23 empty 17 7 0 10 -262144 -1 -1 0 1
;
#X obj 1307 383 t f b;
#X msg 934 430 16;
#X msg 987 430 17;
#X msg 1046 430 18;
#X msg 1107 430 19;
#X msg 1166 430 20;
#X msg 1219 430 21;
#X msg 1278 430 22;
#X msg 1339 430 23;
#X obj 1021 615 tabwrite;
#X obj 1149 58 tgl 15 0 empty t24 empty 17 7 0 10 -262144 -1 -1 0 1
;
#X obj 1021 520 t f b;
#X obj 1164 58 tgl 15 0 empty t25 empty 17 7 0 10 -262144 -1 -1 0 1
;
#X obj 1074 520 t f b;
#X obj 1179 58 tgl 15 0 empty t26 empty 17 7 0 10 -262144 -1 -1 0 1
;
#X obj 1133 520 t f b;
#X obj 1194 58 tgl 15 0 empty t27 empty 17 7 0 10 -262144 -1 -1 0 1
;
#X obj 1194 520 t f b;
#X obj 1209 58 tgl 15 0 empty t28 empty 17 7 0 10 -262144 -1 -1 0 1
;
#X obj 1253 520 t f b;
#X obj 1224 58 tgl 15 0 empty t29 empty 17 7 0 10 -262144 -1 -1 0 1
;
#X obj 1306 520 t f b;
#X obj 1239 58 tgl 15 0 empty t30 empty 17 7 0 10 -262144 -1 -1 0 1
;
#X obj 1365 520 t f b;
#X obj 1253 58 tgl 15 0 empty t31 empty 17 7 0 10 -262144 -1 -1 0 1
;
#X obj 1426 520 t f b;
#X msg 1053 571 24;
#X msg 1106 571 25;
#X msg 1165 571 26;
#X msg 1226 571 27;
#X msg 1285 571 28;
#X msg 1338 571 29;
#X msg 1397 571 30;
#X msg 1458 571 31;
#X msg 130 253 0 0 0 0 0 0 0 0 0 0 0 0 0 0 0 0 0 0 0 0 0 0 0 0 0 0
0 0 0 0 0;
#X obj 52 6 inlet;
#X obj 13 177 spigot;
#X msg 111 113 0;
#X obj 13 363 f;
#X obj 265 6 r reset;
#X obj 13 391 mod;
#X msg 182 142 set resize \$1;
#X msg 148 176 resize 4;
#X obj 52 48 route play arm size bang;
#X obj 130 296 array set \$0-preset;
#X obj 13 417 tabread \$0-preset;
#X msg 93 363 set \$1-preset;
#X obj 167 329 f \$0;
#X text 244 48 bang - carries the metronome ticks \, everything else
is the preset;
#X obj 31 83 t f b f;
#X text 790 36 1_____4________8_______12_______16_______20______24_______28______32
, f 70;
#X obj 13 445 select -1;
#X obj 148 202 array define -k -yrange -1 127 \$0-preset;
#A 0 0 0 0 1;
#X connect 0 0 107 1;
#X connect 2 1 106 0;
#X connect 2 2 103 0;
#X connect 2 3 111 0;
#X connect 2 4 116 0;
#X connect 4 0 6 0;
#X connect 5 0 3 1;
#X connect 6 0 3 0;
#X connect 6 1 5 0;
#X connect 7 0 8 0;
#X connect 8 0 3 0;
#X connect 8 1 9 0;
#X connect 9 0 3 1;
#X connect 10 0 11 0;
#X connect 11 0 3 0;
#X connect 11 1 12 0;
#X connect 12 0 3 1;
#X connect 13 0 14 0;
#X connect 14 0 3 0;
#X connect 14 1 15 0;
#X connect 15 0 3 1;
#X connect 16 0 17 0;
#X connect 17 0 3 0;
#X connect 17 1 24 0;
#X connect 18 0 19 0;
#X connect 19 0 3 0;
#X connect 19 1 25 0;
#X connect 20 0 21 0;
#X connect 21 0 3 0;
#X connect 21 1 26 0;
#X connect 22 0 23 0;
#X connect 23 0 3 0;
#X connect 23 1 27 0;
#X connect 24 0 3 1;
#X connect 25 0 3 1;
#X connect 26 0 3 1;
#X connect 27 0 3 1;
#X connect 29 0 30 0;
#X connect 30 0 28 0;
#X connect 30 1 45 0;
#X connect 31 0 32 0;
#X connect 32 0 28 0;
#X connect 32 1 46 0;
#X connect 33 0 34 0;
#X connect 34 0 28 0;
#X connect 34 1 47 0;
#X connect 35 0 36 0;
#X connect 36 0 28 0;
#X connect 36 1 48 0;
#X connect 37 0 38 0;
#X connect 38 0 28 0;
#X connect 38 1 49 0;
#X connect 39 0 40 0;
#X connect 40 0 28 0;
#X connect 40 1 50 0;
#X connect 41 0 42 0;
#X connect 42 0 28 0;
#X connect 42 1 51 0;
#X connect 43 0 44 0;
#X connect 44 0 28 0;
#X connect 44 1 52 0;
#X connect 45 0 28 1;
#X connect 46 0 28 1;
#X connect 47 0 28 1;
#X connect 48 0 28 1;
#X connect 49 0 28 1;
#X connect 50 0 28 1;
#X connect 51 0 28 1;
#X connect 52 0 28 1;
#X connect 54 0 55 0;
#X connect 55 0 53 0;
#X connect 55 1 70 0;
#X connect 56 0 57 0;
#X connect 57 0 53 0;
#X connect 57 1 71 0;
#X connect 58 0 59 0;
#X connect 59 0 53 0;
#X connect 59 1 72 0;
#X connect 60 0 61 0;
#X connect 61 0 53 0;
#X connect 61 1 73 0;
#X connect 62 0 63 0;
#X connect 63 0 53 0;
#X connect 63 1 74 0;
#X connect 64 0 65 0;
#X connect 65 0 53 0;
#X connect 65 1 75 0;
#X connect 66 0 67 0;
#X connect 67 0 53 0;
#X connect 67 1 76 0;
#X connect 68 0 69 0;
#X connect 69 0 53 0;
#X connect 69 1 77 0;
#X connect 70 0 53 1;
#X connect 71 0 53 1;
#X connect 72 0 53 1;
#X connect 73 0 53 1;
#X connect 74 0 53 1;
#X connect 75 0 53 1;
#X connect 76 0 53 1;
#X connect 77 0 53 1;
#X connect 79 0 80 0;
#X connect 80 0 78 0;
#X connect 80 1 95 0;
#X connect 81 0 82 0;
#X connect 82 0 78 0;
#X connect 82 1 96 0;
#X connect 83 0 84 0;
#X connect 84 0 78 0;
#X connect 84 1 97 0;
#X connect 85 0 86 0;
#X connect 86 0 78 0;
#X connect 86 1 98 0;
#X connect 87 0 88 0;
#X connect 88 0 78 0;
#X connect 88 1 99 0;
#X connect 89 0 90 0;
#X connect 90 0 78 0;
#X connect 90 1 100 0;
#X connect 91 0 92 0;
#X connect 92 0 78 0;
#X connect 92 1 101 0;
#X connect 93 0 94 0;
#X connect 94 0 78 0;
#X connect 94 1 102 0;
#X connect 95 0 78 1;
#X connect 96 0 78 1;
#X connect 97 0 78 1;
#X connect 98 0 78 1;
#X connect 99 0 78 1;
#X connect 100 0 78 1;
#X connect 101 0 78 1;
#X connect 102 0 78 1;
#X connect 103 0 113 0;
#X connect 104 0 112 0;
#X connect 105 0 107 0;
#X connect 106 0 107 1;
#X connect 106 0 105 1;
#X connect 107 0 0 0;
#X connect 107 0 109 0;
#X connect 108 0 106 0;
#X connect 109 0 114 0;
#X connect 110 0 111 0;
#X connect 111 0 121 0;
#X connect 112 0 105 1;
#X connect 112 1 2 0;
#X connect 112 2 118 0;
#X connect 112 3 105 0;
#X connect 112 4 113 0;
#X connect 114 0 120 0;
#X connect 115 0 3 0;
#X connect 115 0 28 0;
#X connect 115 0 53 0;
#X connect 115 0 78 0;
#X connect 116 0 115 0;
#X connect 118 0 109 1;
#X connect 118 1 111 0;
#X connect 118 2 110 0;
#X connect 120 1 1 0;
