#N canvas 904 79 721 716 12;
#X obj 35 546 outlet;
#X obj 94 546 outlet;
#X obj 160 546 outlet;
#X obj 35 11 inlet;
#X obj 77 251 + 1;
#X msg 53 222 0;
#X obj 35 251 f;
#X obj 35 281 route 0 1 2;
#X text 120 281 0-arm 1-play 2-stop;
#X obj 100 11 loadbang;
#X obj 245 546 ../apc/ctl-pad-light;
#X msg 218 496 \$1 5;
#X obj 218 457 f;
#X obj 262 457 f;
#X obj 306 457 f;
#X msg 262 496 \$1 1;
#X msg 306 496 \$1 0;
#X obj 35 46 t b f;
#X obj 422 546 outlet;
#X obj 238 11 inlet;
#X text 283 10 listen;
#X text 34 570 arm;
#X obj 422 11 r pause;
#X text 98 570 play;
#X text 156 570 stop;
#X text 422 570 pause/resume;
#X obj 422 177 tgl 15 0 empty empty empty 17 7 0 10 -262144 -1 -1 1
1;
#X obj 350 457 f;
#X msg 350 496 \$1 2;
#X msg 241 148 0;
#X text 442 176 0-pause | 1-resume;
#X obj 422 113 spigot 0;
#X obj 315 323 route 0 1;
#X obj 238 46 select 1;
#X msg 238 70 1;
#X obj 35 183 spigot;
#X msg 436 148 set 1;
#X connect 3 0 17 0;
#X connect 4 0 6 1;
#X connect 5 0 6 1;
#X connect 6 0 4 0;
#X connect 6 0 7 0;
#X connect 7 0 0 0;
#X connect 7 0 12 0;
#X connect 7 1 1 0;
#X connect 7 1 13 0;
#X connect 7 2 5 0;
#X connect 7 2 2 0;
#X connect 7 2 14 0;
#X connect 9 0 5 0;
#X connect 9 0 36 0;
#X connect 11 0 10 0;
#X connect 12 0 11 0;
#X connect 13 0 15 0;
#X connect 14 0 16 0;
#X connect 15 0 10 0;
#X connect 16 0 10 0;
#X connect 17 0 35 0;
#X connect 17 1 14 1;
#X connect 17 1 13 1;
#X connect 17 1 12 1;
#X connect 17 1 27 1;
#X connect 19 0 33 0;
#X connect 19 0 31 1;
#X connect 22 0 31 0;
#X connect 26 0 18 0;
#X connect 26 0 32 0;
#X connect 27 0 28 0;
#X connect 28 0 10 0;
#X connect 29 0 35 1;
#X connect 31 0 26 0;
#X connect 31 0 29 0;
#X connect 32 0 27 0;
#X connect 32 1 13 0;
#X connect 33 0 34 0;
#X connect 34 0 35 1;
#X connect 35 0 6 0;
#X connect 36 0 26 0;
