#N canvas 575 123 1016 866 12;
#X obj 30 767 outlet;
#X obj 89 767 outlet;
#X obj 155 767 outlet;
#X obj 30 20 inlet;
#X obj 72 350 + 1;
#X msg 48 321 0;
#X obj 30 380 route 0 1 2;
#X text 115 380 0-arm 1-play 2-stop;
#X obj 575 20 loadbang;
#X obj 240 767 ../apc/ctl-pad-light;
#X msg 193 717 \$1 5;
#X obj 193 678 f;
#X obj 237 678 f;
#X obj 281 678 f;
#X msg 237 717 \$1 1;
#X msg 281 717 \$1 0;
#X obj 414 767 outlet;
#X text 29 791 arm;
#X text 93 791 play;
#X text 151 791 stop;
#X text 412 791 pause/resume;
#X obj 414 574 tgl 15 0 empty empty empty 17 7 0 10 -262144 -1 -1 1
1;
#X obj 325 678 f;
#X msg 325 717 \$1 2;
#X text 434 573 0-pause | 1-resume;
#X obj 370 605 route 0 1;
#X msg 414 542 1;
#X obj 607 574 tgl 15 0 empty empty empty 17 7 0 10 -262144 -1 -1 0
1;
#X obj 370 678 f;
#X obj 467 605 route 0 1;
#X obj 607 767 outlet;
#X text 607 791 listen;
#X text 629 573 1-lock | 0-unlock;
#X obj 30 350 f 0;
#X msg 607 542 0;
#X msg 370 717 \$1 6;
#X obj 575 59 t b b;
#X obj 356 503 spigot 0;
#X obj 545 503 spigot 0;
#X msg 454 468 0;
#X msg 489 468 1;
#X obj 30 123 route listen pause sel;
#X obj 263 574 t f f f f f;
#X obj 545 434 bang;
#X obj 356 434 bang;
#X obj 356 403 spigot 1;
#X obj 545 403 spigot 1;
#X obj 409 374 == 0;
#X msg 578 698 0;
#X obj 779 767 outlet;
#X text 779 791 whatever else;
#X obj 30 183 t b f f;
#X obj 300 20 inlet;
#X obj 300 59 route listen pause sel;
#X msg 207 360;
#X msg 300 283 listen \$1;
#X msg 351 307 pause \$1;
#X msg 400 332 sel \$1;
#X obj 76 208 t f f f;
#X obj 300 259 f;
#X obj 350 259 f;
#X obj 400 260 f;
#X connect 3 0 41 0;
#X connect 4 0 33 1;
#X connect 5 0 33 1;
#X connect 6 0 0 0;
#X connect 6 0 11 0;
#X connect 6 0 39 0;
#X connect 6 1 1 0;
#X connect 6 1 12 0;
#X connect 6 1 40 0;
#X connect 6 2 5 0;
#X connect 6 2 2 0;
#X connect 6 2 13 0;
#X connect 6 2 39 0;
#X connect 6 2 48 0;
#X connect 8 0 36 0;
#X connect 10 0 9 0;
#X connect 11 0 10 0;
#X connect 12 0 14 0;
#X connect 13 0 15 0;
#X connect 14 0 9 0;
#X connect 15 0 9 0;
#X connect 21 0 16 0;
#X connect 21 0 25 0;
#X connect 21 0 46 1;
#X connect 22 0 23 0;
#X connect 23 0 9 0;
#X connect 25 0 28 0;
#X connect 25 1 12 0;
#X connect 26 0 21 0;
#X connect 27 0 30 0;
#X connect 27 0 29 0;
#X connect 27 0 47 0;
#X connect 28 0 35 0;
#X connect 29 0 12 0;
#X connect 29 1 22 0;
#X connect 33 0 4 0;
#X connect 33 0 6 0;
#X connect 34 0 27 0;
#X connect 35 0 9 0;
#X connect 36 0 26 0;
#X connect 36 1 34 0;
#X connect 37 0 21 0;
#X connect 38 0 27 0;
#X connect 39 0 37 1;
#X connect 39 0 38 1;
#X connect 40 0 37 1;
#X connect 40 0 38 1;
#X connect 41 0 46 0;
#X connect 41 1 45 0;
#X connect 41 2 51 0;
#X connect 41 3 49 0;
#X connect 42 0 11 1;
#X connect 42 1 12 1;
#X connect 42 2 13 1;
#X connect 42 3 22 1;
#X connect 42 4 28 1;
#X connect 43 0 38 0;
#X connect 44 0 37 0;
#X connect 45 0 44 0;
#X connect 46 0 43 0;
#X connect 47 0 45 1;
#X connect 48 0 30 0;
#X connect 51 0 33 0;
#X connect 51 1 42 0;
#X connect 51 2 58 0;
#X connect 52 0 53 0;
#X connect 53 0 59 0;
#X connect 53 1 60 0;
#X connect 53 2 61 0;
#X connect 53 3 41 0;
#X connect 55 0 41 0;
#X connect 56 0 41 0;
#X connect 57 0 41 0;
#X connect 58 0 59 1;
#X connect 58 1 60 1;
#X connect 58 2 61 1;
#X connect 59 0 55 0;
#X connect 60 0 56 0;
#X connect 61 0 57 0;
