#N canvas 491 219 1057 613 12;
#X obj 63 17 inlet;
#X obj 17 568 noteout;
#X msg 95 147 arm;
#X obj 95 214 steps;
#X obj 63 87 t f b;
#X obj 283 349 swing;
#X obj 95 308 spigot 1;
#X obj 167 308 spigot 0;
#X obj 63 53 route ch swing delay;
#X obj 167 381 f;
#X msg 148 147 0;
#X msg 183 147 1;
#X obj 167 349 delay 0;
#X obj 167 263 bang;
#X obj 148 87 t b b f;
#X msg 275 147 0;
#X obj 283 263 bang;
#X obj 283 308 spigot 0;
#X obj 255 87 t b b b f;
#X msg 312 147 1;
#X obj 453 17 inlet;
#X text 345 79 note duration (tick multipliers), f 19;
#X obj 509 17 r beat-len;
#X obj 491 83 *;
#X obj 95 498 makenote 127 250;
#X obj 598 17 inlet;
#X text 637 16 offset;
#X obj 95 442 + 0;
#X obj 702 17 inlet;
#X text 741 16 pause;
#X obj 95 470 spigot 1;
#X text 211 47 channel \, swing delay \, delay \, size(num of steps)
\, steps \, triplets \, tick, f 37;
#X obj 127 17 inlet;
#X text 171 16 triplet ticks;
#X connect 0 0 8 0;
#X connect 2 0 3 0;
#X connect 3 0 6 0;
#X connect 3 0 9 1;
#X connect 3 0 13 0;
#X connect 3 0 16 0;
#X connect 4 0 1 2;
#X connect 4 1 2 0;
#X connect 5 0 9 0;
#X connect 6 0 27 0;
#X connect 7 0 12 0;
#X connect 8 0 4 0;
#X connect 8 1 6 1;
#X connect 8 1 18 0;
#X connect 8 2 14 0;
#X connect 8 3 3 0;
#X connect 9 0 27 0;
#X connect 10 0 6 1;
#X connect 11 0 7 1;
#X connect 12 0 9 0;
#X connect 13 0 7 0;
#X connect 14 0 10 0;
#X connect 14 1 11 0;
#X connect 14 2 12 1;
#X connect 15 0 7 1;
#X connect 16 0 17 0;
#X connect 17 0 5 0;
#X connect 18 0 10 0;
#X connect 18 1 15 0;
#X connect 18 2 19 0;
#X connect 18 3 5 1;
#X connect 19 0 17 1;
#X connect 20 0 23 0;
#X connect 22 0 23 1;
#X connect 23 0 24 2;
#X connect 24 0 1 0;
#X connect 24 1 1 1;
#X connect 25 0 27 1;
#X connect 27 0 30 0;
#X connect 28 0 30 1;
#X connect 30 0 24 0;
#X connect 32 0 3 1;
