#N canvas 443 172 661 598 12;
#X obj 356 16 inlet;
#X obj 451 114 unpack 0 0;
#X obj 29 16 inlet;
#X text 75 15 tick;
#X obj 217 309 f;
#X obj 316 309 f;
#X obj 29 165 f;
#X obj 64 165 + 1;
#X msg 161 114 0;
#X obj 174 16 inlet;
#X text 219 15 0-pause/1-resume;
#X obj 29 78 spigot 0;
#X obj 29 193 mod 2;
#X obj 29 218 sel 0 1;
#X obj 174 45 t b f f;
#X obj 224 519 outlet;
#X obj 197 114 sel 0;
#X obj 217 218 spigot 0;
#X obj 316 218 spigot 0;
#X msg 356 165 0;
#X msg 394 165 1;
#X msg 263 165 0;
#X msg 302 165 1;
#X text 405 15 end on \, low/high \, ch;
#X obj 356 45 route low high ch;
#X obj 285 403 f;
#X msg 224 487 6 7 4;
#X msg 308 378 set \$1 7;
#X obj 262 351 t b b f;
#X msg 285 432 add2 \$1;
#X connect 0 0 24 0;
#X connect 1 0 4 1;
#X connect 1 1 5 1;
#X connect 2 0 11 0;
#X connect 4 0 28 0;
#X connect 5 0 28 0;
#X connect 6 0 7 0;
#X connect 6 0 12 0;
#X connect 7 0 6 1;
#X connect 8 0 6 1;
#X connect 9 0 14 0;
#X connect 11 0 6 0;
#X connect 12 0 13 0;
#X connect 13 0 4 0;
#X connect 13 1 5 0;
#X connect 14 0 8 0;
#X connect 14 1 16 0;
#X connect 14 2 11 1;
#X connect 16 0 17 0;
#X connect 16 0 18 0;
#X connect 17 0 4 0;
#X connect 18 0 5 0;
#X connect 19 0 18 1;
#X connect 20 0 18 1;
#X connect 21 0 17 1;
#X connect 22 0 17 1;
#X connect 24 0 22 0;
#X connect 24 0 19 0;
#X connect 24 1 21 0;
#X connect 24 1 20 0;
#X connect 24 2 25 1;
#X connect 24 3 1 0;
#X connect 25 0 29 0;
#X connect 26 0 15 0;
#X connect 27 0 26 0;
#X connect 28 0 26 0;
#X connect 28 1 25 0;
#X connect 28 2 27 0;
#X connect 29 0 26 0;
