#N canvas 782 350 644 439 12;
#X obj 356 16 inlet;
#X obj 444 142 unpack 0 0;
#X obj 29 16 inlet;
#X text 75 17 tick;
#X obj 223 311 f;
#X obj 282 315 f;
#X obj 82 148 f;
#X obj 117 149 + 1;
#X msg 101 119 0;
#X obj 174 15 inlet;
#X text 219 14 0-pause/1-resume;
#X obj 38 77 spigot 0;
#X obj 86 190 mod 2;
#X obj 86 215 sel 0 1;
#X obj 132 46 t b f f;
#X obj 152 403 outlet;
#X text 405 17 end on \, low/high;
#X obj 170 114 sel 0;
#X obj 356 51 route low high;
#X obj 240 208 spigot 0;
#X obj 342 215 spigot 0;
#X msg 360 168 0;
#X msg 399 168 1;
#X msg 263 164 0;
#X msg 302 164 1;
#X obj 314 405 ../encoder-set;
#X obj 409 374 ../../common/stutter;
#X floatatom 477 342 5 0 0 0 - - -;
#X msg 314 374 60 7 \$1;
#X msg 546 342 high \, 50 60;
#X obj 400 342 r tick -16;
#X connect 0 0 18 0;
#X connect 1 0 4 1;
#X connect 1 1 5 1;
#X connect 2 0 11 0;
#X connect 4 0 15 0;
#X connect 5 0 15 0;
#X connect 6 0 7 0;
#X connect 6 0 12 0;
#X connect 7 0 6 1;
#X connect 8 0 6 1;
#X connect 9 0 14 0;
#X connect 11 0 6 0;
#X connect 12 0 13 0;
#X connect 13 0 4 0;
#X connect 13 1 5 0;
#X connect 14 0 8 0;
#X connect 14 1 17 0;
#X connect 14 2 11 1;
#X connect 17 0 19 0;
#X connect 17 0 20 0;
#X connect 18 0 24 0;
#X connect 18 0 21 0;
#X connect 18 1 23 0;
#X connect 18 1 22 0;
#X connect 18 2 1 0;
#X connect 19 0 4 0;
#X connect 20 0 5 0;
#X connect 21 0 20 1;
#X connect 22 0 20 1;
#X connect 23 0 19 1;
#X connect 24 0 19 1;
#X connect 26 0 25 1;
#X connect 27 0 26 1;
#X connect 28 0 25 0;
#X connect 29 0 26 2;
#X connect 30 0 26 0;
