#N canvas 932 239 380 319 12;
#X obj 20 222 delay;
#X msg 115 33 0;
#X obj 72 80 + 1;
#X obj 21 126 sel 1;
#X obj 67 183 f;
#X msg 21 155 0;
#X obj 67 155 bang;
#X obj 21 33 t b b;
#X obj 21 7 inlet;
#X obj 20 251 outlet;
#X obj 115 7 r reset;
#X obj 21 80 f;
#X obj 222 7 inlet;
#X obj 255 222 timer;
#X obj 255 251 print time;
#X obj 255 106 f 0;
#X obj 297 106 + 1;
#X obj 255 139 mod 2;
#X obj 255 167 select 0;
#X obj 308 194 bang;
#X connect 0 0 9 0;
#X connect 1 0 11 1;
#X connect 2 0 11 1;
#X connect 3 0 1 0;
#X connect 3 0 5 0;
#X connect 3 1 6 0;
#X connect 4 0 0 1;
#X connect 5 0 0 1;
#X connect 6 0 4 0;
#X connect 7 0 11 0;
#X connect 7 1 0 0;
#X connect 8 0 7 0;
#X connect 10 0 1 0;
#X connect 11 0 2 0;
#X connect 11 0 3 0;
#X connect 12 0 4 1;
#X connect 13 0 14 0;
#X connect 15 0 16 0;
#X connect 15 0 17 0;
#X connect 16 0 15 1;
#X connect 17 0 18 0;
#X connect 18 0 13 0;
#X connect 18 1 19 0;
#X connect 19 0 13 1;
