#N canvas 963 501 901 650 12;
#X obj 293 7 r swing;
#X obj 20 222 delay;
#X obj 21 80 float;
#X msg 115 33 0;
#X obj 72 80 + 1;
#X obj 21 126 sel 1;
#X obj 67 183 f;
#X msg 21 155 0;
#X obj 67 155 bang;
#X obj 21 33 t b b;
#X obj 21 7 inlet;
#X obj 20 251 outlet;
#X obj 115 7 r reset;
#X connect 0 0 6 1;
#X connect 1 0 11 0;
#X connect 2 0 4 0;
#X connect 2 0 5 0;
#X connect 3 0 2 1;
#X connect 4 0 2 1;
#X connect 5 0 3 0;
#X connect 5 0 7 0;
#X connect 5 1 8 0;
#X connect 6 0 1 1;
#X connect 7 0 1 1;
#X connect 8 0 6 0;
#X connect 9 0 2 0;
#X connect 9 1 1 0;
#X connect 10 0 9 0;
#X connect 12 0 3 0;
