#N canvas 572 347 404 329 12;
#X obj 49 14 inlet;
#X obj 51 156 spigot 0;
#X obj 104 113 ==;
#X obj 51 214 outlet;
#X obj 51 185 > 0;
#X obj 51 78 cc-in;
#X text 100 13 ctrl-#;
#X obj 171 14 inlet;
#X text 216 13 channel;
#X connect 0 0 2 1;
#X connect 1 0 4 0;
#X connect 2 0 1 1;
#X connect 4 0 3 0;
#X connect 5 0 1 0;
#X connect 5 1 2 0;
#X connect 7 0 5 0;
