#N canvas 843 296 437 355 12;
#X msg 231 86 0;
#X msg 196 86 1;
#X obj 178 120 spigot 0;
#X msg 318 86 0;
#X msg 282 86 1;
#X obj 265 120 spigot 0;
#X obj 211 17 inlet;
#X text 256 16 triplet ticks;
#X obj 32 17 inlet;
#X obj 201 183 delay 1;
#X obj 211 44 t b b b b;
#X obj 64 291 outlet;
#X obj 178 147 t b b b;
#X obj 32 44 t b b;
#X text 76 16 initial tick;
#X obj 300 291 outlet;
#X text 115 290 tick;
#X text 354 292 done;
#X obj 265 147 t b b b;
#X connect 0 0 2 1;
#X connect 1 0 2 1;
#X connect 2 0 12 0;
#X connect 3 0 5 1;
#X connect 4 0 5 1;
#X connect 5 0 18 0;
#X connect 6 0 10 0;
#X connect 8 0 13 0;
#X connect 9 0 4 0;
#X connect 10 0 3 0;
#X connect 10 1 0 0;
#X connect 10 2 5 0;
#X connect 10 3 2 0;
#X connect 12 0 0 0;
#X connect 12 1 9 0;
#X connect 12 2 11 0;
#X connect 13 0 1 0;
#X connect 13 1 11 0;
#X connect 18 0 15 0;
#X connect 18 1 3 0;
#X connect 18 2 11 0;
