#N canvas 733 303 437 355 12;
#X msg 231 86 0;
#X msg 196 86 1;
#X obj 178 120 spigot 0;
#X msg 318 86 0;
#X msg 282 86 1;
#X obj 265 120 spigot 0;
#X obj 211 17 inlet;
#X text 256 16 triplet ticks;
#X obj 32 17 inlet;
#X text 83 16 comment;
#X obj 201 183 delay 1;
#X obj 211 44 t b b b b;
#X obj 64 291 outlet;
#X obj 178 147 t b b b;
#X obj 265 147 t b b;
#X obj 32 44 t b b;
#X connect 0 0 2 1;
#X connect 1 0 2 1;
#X connect 2 0 13 0;
#X connect 3 0 5 1;
#X connect 4 0 5 1;
#X connect 5 0 14 0;
#X connect 6 0 11 0;
#X connect 8 0 15 0;
#X connect 10 0 4 0;
#X connect 11 0 3 0;
#X connect 11 1 0 0;
#X connect 11 2 5 0;
#X connect 11 3 2 0;
#X connect 13 0 0 0;
#X connect 13 1 10 0;
#X connect 13 2 12 0;
#X connect 14 0 3 0;
#X connect 14 1 12 0;
#X connect 15 0 1 0;
#X connect 15 1 12 0;
