#N canvas 110 250 628 538 12;
#X obj 41 12 inlet;
#X obj 287 453 noteout;
#X obj 41 43 ../common/step-seq-sel-3 \$0;
#X obj 338 12 r dbi-#;
#X obj 395 12 r xv-#;
#X obj 166 205 ../controller/note-filter;
#X msg 252 155 42;
#X obj 284 270 f;
#X obj 398 205 ../common/note-in;
#X obj 515 12 r apc-key-#;
#X obj 189 87 t f f;
#X obj 252 180 t f f;
#X obj 166 235 bang;
#X msg 339 403 0;
#X obj 266 403 f;
#X obj 284 298 t f b f;
#X obj 307 359 t b b;
#X obj 307 329 delay 100;
#X connect 0 0 2 0;
#X connect 2 0 6 0;
#X connect 2 4 10 0;
#X connect 3 0 5 2;
#X connect 4 0 1 2;
#X connect 5 0 12 0;
#X connect 5 1 1 1;
#X connect 6 0 11 0;
#X connect 7 0 15 0;
#X connect 8 0 7 1;
#X connect 9 0 8 1;
#X connect 10 0 5 0;
#X connect 10 1 8 0;
#X connect 11 0 5 1;
#X connect 11 1 7 0;
#X connect 12 0 7 0;
#X connect 13 0 1 1;
#X connect 14 0 1 0;
#X connect 15 0 14 1;
#X connect 15 1 17 0;
#X connect 15 2 1 0;
#X connect 16 0 14 0;
#X connect 16 1 13 0;
#X connect 17 0 16 0;
