#N canvas 577 382 618 466 12;
#X obj 300 20 r dbi-#;
#X obj 106 20 inlet;
#X obj 114 416 outlet;
#X text 160 415 combined;
#X obj 236 416 outlet;
#X obj 333 416 outlet;
#X text 282 415 plain;
#X text 379 415 coloured;
#X obj 183 20 notein;
#X obj 466 416 outlet;
#X text 514 415 accent;
#X obj 183 93 spigot;
#X obj 263 55 ==;
#X obj 256 93 spigot;
#X obj 466 381 sel 127;
#X obj 247 222 + 12;
#X obj 106 55 + 35;
#X obj 183 180 t f f;
#X obj 229 251 sel;
#X obj 132 251 sel;
#X obj 183 148 spigot;
#X obj 222 123 > 0;
#X obj 466 353 f;
#X obj 132 310 t b b;
#X text 16 15 1-kick 2-snare1 3-snare2 4-tomH 5-tomL 6-Cymbal 7-Cowbell
8-ClHat 9-OpHat 10-FM, f 10;
#X connect 0 0 12 1;
#X connect 1 0 16 0;
#X connect 8 0 11 0;
#X connect 8 1 13 0;
#X connect 8 1 21 0;
#X connect 8 2 12 0;
#X connect 11 0 20 0;
#X connect 12 0 11 1;
#X connect 12 0 13 1;
#X connect 13 0 22 1;
#X connect 14 0 9 0;
#X connect 15 0 18 1;
#X connect 16 0 15 0;
#X connect 16 0 19 1;
#X connect 17 0 19 0;
#X connect 17 1 18 0;
#X connect 18 0 5 0;
#X connect 18 0 23 0;
#X connect 19 0 4 0;
#X connect 19 0 23 0;
#X connect 20 0 17 0;
#X connect 21 0 20 1;
#X connect 22 0 14 0;
#X connect 23 0 2 0;
#X connect 23 1 22 0;
