#N canvas 91 205 811 592 12;
#X obj 41 12 inlet;
#X obj 41 47 ../common/step-seq-sel-3 \$0;
#X obj 67 182 ../controller/note-xlate;
#X obj 421 12 r vd-#;
#X obj 312 12 r dbi-#;
#X obj 108 130 t b b;
#X obj 296 182 ../controller/note-xlate;
#X obj 337 130 t b b;
#X msg 378 156 62;
#X obj 41 77 t b b b b;
#X obj 521 182 ../controller/note-xlate;
#X obj 562 130 t b b;
#X obj 189 77 t f f f f;
#X obj 312 77 t f f f f;
#X obj 421 77 t f f f f;
#X obj 67 372 ../controller/note-xlate;
#X obj 108 320 t b b;
#X obj 296 372 ../controller/note-xlate;
#X obj 337 320 t b b;
#X obj 41 269 t b b b b;
#X obj 521 372 ../controller/note-xlate;
#X obj 562 320 t b b;
#X obj 189 269 t f f f f;
#X obj 312 269 t f f f f;
#X obj 421 269 t f f f f;
#X text 69 204 hi-tom - 1;
#X text 301 204 low-tom - 2;
#X text 533 204 cym - 3;
#X text 67 398 cow - 4;
#X text 299 398 ch - 5;
#X text 531 398 oh - 6;
#X msg 108 156 39;
#X msg 149 156 60;
#X msg 337 156 40;
#X msg 562 156 41;
#X msg 603 156 64;
#X msg 108 346 42;
#X msg 337 346 43;
#X msg 149 346 66;
#X msg 378 346 67;
#X msg 562 346 44;
#X msg 603 346 69;
#X connect 0 0 1 0;
#X connect 1 0 9 0;
#X connect 1 4 12 0;
#X connect 3 0 14 0;
#X connect 4 0 13 0;
#X connect 5 0 31 0;
#X connect 5 1 32 0;
#X connect 7 0 33 0;
#X connect 7 1 8 0;
#X connect 8 0 6 2;
#X connect 9 0 19 0;
#X connect 9 1 5 0;
#X connect 9 2 7 0;
#X connect 9 3 11 0;
#X connect 11 0 34 0;
#X connect 11 1 35 0;
#X connect 12 0 22 0;
#X connect 12 1 2 0;
#X connect 12 2 6 0;
#X connect 12 3 10 0;
#X connect 13 0 23 0;
#X connect 13 1 2 3;
#X connect 13 2 6 3;
#X connect 13 3 10 3;
#X connect 14 0 24 0;
#X connect 14 1 2 4;
#X connect 14 2 6 4;
#X connect 14 3 10 4;
#X connect 16 0 36 0;
#X connect 16 1 38 0;
#X connect 18 0 37 0;
#X connect 18 1 39 0;
#X connect 19 1 16 0;
#X connect 19 2 18 0;
#X connect 19 3 21 0;
#X connect 21 0 40 0;
#X connect 21 1 41 0;
#X connect 22 1 15 0;
#X connect 22 2 17 0;
#X connect 22 3 20 0;
#X connect 23 1 15 3;
#X connect 23 2 17 3;
#X connect 23 3 20 3;
#X connect 24 1 15 4;
#X connect 24 2 17 4;
#X connect 24 3 20 4;
#X connect 31 0 2 1;
#X connect 32 0 2 2;
#X connect 33 0 6 1;
#X connect 34 0 10 1;
#X connect 35 0 10 2;
#X connect 36 0 15 1;
#X connect 37 0 17 1;
#X connect 38 0 15 2;
#X connect 39 0 17 2;
#X connect 40 0 20 1;
#X connect 41 0 20 2;
