#N canvas 194 325 1175 690 12;
#X obj 325 24 r sample-#;
#X obj 36 24 inlet;
#X msg 129 118 1;
#X msg 222 139 0;
#X obj 307 204 f;
#X obj 129 142 t f f;
#X msg 161 234 play \$1;
#X obj 480 195 ../../controller/subpart-selector;
#X obj 708 24 loadbang;
#X msg 708 166 gran 1 \, min 0 \, max 1;
#X obj 480 311 select 0 1;
#X obj 169 173 ../../common/queued-open;
#X obj 36 234 ../setting;
#X msg 36 202 18 10 2;
#X msg 307 234 ch \$1;
#X obj 36 79 t b b b b b;
#X obj 36 54 ../../common/step-seq-sel-3 \$0;
#X msg 521 258 0;
#X msg 521 285 swing \$1;
#X msg 430 195 0;
#X obj 480 226 t f b;
#X msg 480 351 size 8 \, 5 11 11 11 11 11 11 11;
#X obj 169 24 r tick-4;
#X obj 169 599 ../../common/step-seq-player \$0;
#X obj 480 24 r enc-1;
#X connect 0 0 4 1;
#X connect 1 0 16 0;
#X connect 2 0 5 0;
#X connect 3 0 11 1;
#X connect 4 0 14 0;
#X connect 5 0 11 1;
#X connect 5 1 6 0;
#X connect 6 0 23 0;
#X connect 7 0 20 0;
#X connect 8 0 9 0;
#X connect 9 0 7 2;
#X connect 10 0 21 0;
#X connect 11 0 23 0;
#X connect 13 0 12 0;
#X connect 14 0 23 0;
#X connect 15 0 13 0;
#X connect 15 1 19 0;
#X connect 15 2 4 0;
#X connect 15 3 9 0;
#X connect 16 0 15 0;
#X connect 16 1 2 0;
#X connect 16 2 3 0;
#X connect 16 3 23 4;
#X connect 16 4 7 1;
#X connect 17 0 18 0;
#X connect 18 0 23 0;
#X connect 19 0 20 0;
#X connect 20 0 10 0;
#X connect 20 1 17 0;
#X connect 21 0 23 0;
#X connect 22 0 11 0;
#X connect 24 0 7 0;
