#N canvas 636 211 314 364 12;
#X obj 45 10 inlet;
#X obj 45 39 route bang from to;
#X obj 45 149 f;
#X obj 89 149 + 1;
#X obj 95 230 bang;
#X obj 95 255 delay 0;
#X obj 95 205 moses;
#X obj 45 310 outlet;
#X obj 188 114 f;
#X obj 188 76 bang;
#X connect 0 0 1 0;
#X connect 1 0 2 0;
#X connect 1 1 2 1;
#X connect 1 1 8 1;
#X connect 1 2 6 1;
#X connect 2 0 3 0;
#X connect 2 0 6 0;
#X connect 2 0 7 0;
#X connect 3 0 2 1;
#X connect 4 0 5 0;
#X connect 5 0 2 0;
#X connect 6 0 4 0;
#X connect 6 1 9 0;
#X connect 8 0 2 1;
#X connect 9 0 8 0;
