#N canvas 352 388 894 544 12;
#X obj 46 19 inlet;
#X obj 162 17 inlet;
#X text 56 40 spigot;
#X obj 47 441 noteout;
#X obj 47 400 f;
#X text 171 40 # in;
#X obj 228 17 inlet;
#X text 238 40 # out;
#X obj 46 123 ../common/note-in;
#X obj 46 219 delay 50;
#X obj 295 19 inlet;
#X text 297 44 delay;
#X obj 79 400 f;
#X obj 162 190 sel 0;
#X obj 130 161 t f f;
#X obj 46 190 spigot;
#X obj 47 285 delay 50;
#X obj 47 310 t b b;
#X msg 98 346 0;
#X obj 46 254 t b b b;
#X obj 46 157 t b f;
#X obj 46 71 -1;
#X obj 46 97 abs;
#X connect 0 0 21 0;
#X connect 1 0 8 1;
#X connect 4 0 3 0;
#X connect 6 0 3 2;
#X connect 8 0 20 0;
#X connect 8 1 14 0;
#X connect 9 0 19 0;
#X connect 10 0 9 1;
#X connect 12 0 3 1;
#X connect 13 1 12 1;
#X connect 14 0 15 1;
#X connect 14 1 13 0;
#X connect 15 0 9 0;
#X connect 16 0 17 0;
#X connect 17 0 4 0;
#X connect 17 1 18 0;
#X connect 18 0 3 1;
#X connect 19 0 16 0;
#X connect 19 1 4 0;
#X connect 19 2 12 0;
#X connect 20 0 15 0;
#X connect 20 1 4 1;
#X connect 21 0 22 0;
#X connect 22 0 8 0;
