#N canvas 365 606 422 238 12;
#X obj 46 19 inlet;
#X obj 162 17 inlet;
#X text 56 40 spigot;
#X obj 45 192 noteout;
#X obj 46 102 t b f;
#X obj 46 161 f;
#X text 171 40 # in;
#X obj 228 17 inlet;
#X text 238 40 # out;
#X obj 46 70 ../common/note-in;
#X obj 46 132 delay 50;
#X obj 295 19 inlet;
#X text 297 44 delay;
#X connect 0 0 9 0;
#X connect 1 0 9 1;
#X connect 4 0 10 0;
#X connect 4 1 5 1;
#X connect 5 0 3 0;
#X connect 7 0 3 2;
#X connect 9 0 4 0;
#X connect 9 1 3 1;
#X connect 10 0 5 0;
#X connect 11 0 10 1;
