#N canvas 364 494 243 224 10;
#X obj 54 137 ==;
#X obj 35 45 t f f f;
#X obj 35 16 inlet;
#X obj 54 162 outlet;
#X msg 129 45 -1;
#X obj 129 16 loadbang;
#X obj 74 110 f;
#X obj 74 77 bang;
#X connect 0 0 3 0;
#X connect 1 0 6 1;
#X connect 1 1 0 0;
#X connect 1 2 7 0;
#X connect 2 0 1 0;
#X connect 4 0 6 1;
#X connect 5 0 4 0;
#X connect 6 0 0 1;
#X connect 7 0 6 0;
