#N canvas 520 177 1224 767 12;
#X msg 121 452 ch \$1;
#X obj 169 599 ../common/step-seq-player \$0;
#X text 287 19 channel;
#X msg 33 213 3;
#X msg 74 213 4;
#X floatatom 243 20 5 0 0 0 - - -;
#X msg 981 452 arm;
#X msg 730 452 size 8 \, 61 62 61 67 62 61 -1 -1;
#X obj 470 20 r tick-8;
#X text 655 451 len;
#X obj 981 419 delay 5;
#X obj 730 419 delay 10;
#X obj 619 419 delay 15;
#X obj 520 419 delay 20;
#X msg 520 452 play 1;
#X msg 575 20 play 0;
#X msg 674 20 size 8 \, 61 62 61 67 62 61 -1 -1;
#X obj 33 123 f;
#X obj 68 123 + 1;
#X obj 33 151 mod 2;
#X obj 33 176 sel 0 1;
#X obj 147 20 loadbang;
#X msg 147 44 0;
#X obj 33 89 spigot;
#X obj 33 20 r tick;
#X msg 377 20 1;
#X obj 33 257 t b b b b b f;
#X msg 222 213 1;
#X msg 619 452 0.4;
#X msg 261 213 0;
#X obj 169 452 ../common/queued-open;
#X connect 0 0 1 0;
#X connect 3 0 26 0;
#X connect 4 0 26 0;
#X connect 5 0 26 0;
#X connect 6 0 1 0;
#X connect 7 0 1 0;
#X connect 8 0 30 0;
#X connect 10 0 6 0;
#X connect 11 0 7 0;
#X connect 12 0 28 0;
#X connect 13 0 14 0;
#X connect 14 0 1 0;
#X connect 15 0 1 0;
#X connect 16 0 1 0;
#X connect 17 0 18 0;
#X connect 17 0 19 0;
#X connect 18 0 17 1;
#X connect 19 0 20 0;
#X connect 20 0 3 0;
#X connect 20 1 4 0;
#X connect 21 0 22 0;
#X connect 22 0 17 1;
#X connect 22 0 23 1;
#X connect 23 0 17 0;
#X connect 24 0 23 0;
#X connect 25 0 23 1;
#X connect 26 1 13 0;
#X connect 26 2 12 0;
#X connect 26 3 11 0;
#X connect 26 4 10 0;
#X connect 26 5 0 0;
#X connect 27 0 30 1;
#X connect 28 0 1 2;
#X connect 29 0 30 1;
#X connect 30 0 1 0;
