#N canvas 84 142 450 300 10;
#X obj 99 67 - 16;
#X obj 99 44 unpack 0 0;
#X obj 99 90 pack 0 0;
#X obj 99 20 inlet;
#X obj 99 113 outlet;
#X connect 0 0 2 0;
#X connect 1 0 0 0;
#X connect 1 1 2 1;
#X connect 2 0 4 0;
#X connect 3 0 1 0;
