#N canvas 530 339 733 596 10;
#X obj 418 364 float;
#X obj 28 255 metro;
#X obj 277 364 float;
#X obj 342 364 + 1;
#X obj 310 265 <;
#X obj 451 265 >;
#X obj 481 364 - 1;
#X obj 277 300 spigot;
#X obj 418 300 spigot;
#X obj 120 319 ==;
#X msg 87 319 0;
#X obj 87 351 spigot;
#X obj 342 105 -;
#X obj 342 126 abs;
#X msg 304 327 0;
#X msg 445 327 0;
#X obj 43 20 inlet;
#X obj 349 466 outlet;
#X obj 43 62 unpack 0 0 0, f 30;
#X text 87 19 duration_beats \, start \, end;
#X obj 43 197 expr (($f1 * $f2) / $f3);
#X obj 43 167 float;
#X obj 43 86 t b f;
#X obj 290 20 r beat-len;
#X connect 0 0 6 0;
#X connect 0 0 9 0;
#X connect 0 0 17 0;
#X connect 1 0 8 0;
#X connect 1 0 7 0;
#X connect 1 0 10 0;
#X connect 2 0 3 0;
#X connect 2 0 9 0;
#X connect 2 0 17 0;
#X connect 3 0 2 1;
#X connect 4 0 7 1;
#X connect 5 0 8 1;
#X connect 6 0 0 1;
#X connect 7 0 2 0;
#X connect 8 0 0 0;
#X connect 9 0 11 1;
#X connect 10 0 11 0;
#X connect 11 0 1 0;
#X connect 12 0 13 0;
#X connect 13 0 20 2;
#X connect 14 0 2 1;
#X connect 15 0 0 1;
#X connect 16 0 18 0;
#X connect 18 0 22 0;
#X connect 18 1 12 0;
#X connect 18 1 5 0;
#X connect 18 1 4 0;
#X connect 18 1 2 1;
#X connect 18 1 0 1;
#X connect 18 2 12 1;
#X connect 18 2 5 1;
#X connect 18 2 4 1;
#X connect 18 2 9 1;
#X connect 20 0 1 1;
#X connect 20 0 1 0;
#X connect 21 0 20 0;
#X connect 22 0 21 0;
#X connect 22 1 20 1;
#X connect 23 0 21 1;
