#N canvas 651 315 391 421 10;
#X obj 179 204 + 1;
#X obj 178 124 <;
#X obj 268 124 >;
#X obj 269 204 - 1;
#X obj 145 167 spigot;
#X obj 235 167 spigot;
#X obj 178 21 inlet;
#X obj 217 353 outlet;
#X obj 145 205 f;
#X obj 235 204 f;
#X obj 21 21 inlet;
#X obj 66 21 inlet;
#X text 28 40 ticks;
#X text 72 40 start;
#X obj 21 124 t b b;
#X obj 21 90 spigot 0;
#X msg 66 62 1;
#X obj 127 318 !=;
#X obj 178 62 unpack 0 0, f 18;
#X text 222 20 range start \, end;
#X connect 0 0 8 1;
#X connect 1 0 4 1;
#X connect 2 0 5 1;
#X connect 3 0 9 1;
#X connect 4 0 8 0;
#X connect 5 0 9 0;
#X connect 6 0 18 0;
#X connect 8 0 0 0;
#X connect 8 0 7 0;
#X connect 8 0 17 0;
#X connect 9 0 3 0;
#X connect 9 0 7 0;
#X connect 9 0 17 0;
#X connect 10 0 15 0;
#X connect 11 0 16 0;
#X connect 14 0 4 0;
#X connect 14 1 5 0;
#X connect 15 0 14 0;
#X connect 16 0 15 1;
#X connect 17 0 15 1;
#X connect 18 0 8 1;
#X connect 18 0 1 0;
#X connect 18 0 2 0;
#X connect 18 0 9 1;
#X connect 18 1 17 1;
#X connect 18 1 1 1;
#X connect 18 1 2 1;
