#N canvas 353 183 1491 697 10;
#X obj 122 188 unpack 0 0;
#X obj 149 352 list append;
#X obj 314 314 t l;
#X obj 197 308 list prepend;
#X obj 445 116 bng 15 250 50 0 empty empty empty 0 -6 0 8 -262144 -1
-1;
#X text 461 114 clear;
#X obj 922 364 list append;
#X obj 1179 338 t l;
#X obj 970 320 list prepend;
#X obj 659 184 array define notes2;
#X obj 659 216 array define duration2;
#X msg 530 134 const 0;
#X obj 72 231 moses 0;
#X obj 76 276 bang;
#X obj 87 418 array set notes2;
#X msg 121 36 next;
#X msg 61 35 size;
#X msg 401 471 0;
#X obj 325 465 bng 15 250 50 0 empty empty empty 17 7 0 10 -262144
-1 -1;
#X obj 437 508 + 1;
#X obj 374 508 float;
#X obj 660 561 float;
#X msg 937 494 0;
#X obj 973 531 + 1;
#X obj 872 493 float;
#X msg 185 38 reset;
#X obj 178 79 route next size reset;
#X msg 275 35 50 2 \, 127 4 \, 256 6 \, -1;
#X obj 892 630 pack 0 0;
#X obj 896 670 print result;
#X obj 940 420 array set duration2;
#X obj 1000 576 tabread duration2;
#X obj 853 601 tabread notes2;
#X obj 370 576 print running;
#X obj 758 615 print idx;
#X obj 535 529 + 1;
#X obj 645 613 print size;
#X obj 706 495 0;
#X obj 754 559 mod;
#X connect 0 0 12 0;
#X connect 0 1 8 0;
#X connect 1 0 14 0;
#X connect 2 0 3 1;
#X connect 3 0 2 0;
#X connect 3 0 1 1;
#X connect 4 0 3 1;
#X connect 4 0 17 0;
#X connect 4 0 11 0;
#X connect 4 0 22 0;
#X connect 4 0 8 1;
#X connect 4 0 37 0;
#X connect 6 0 30 0;
#X connect 7 0 8 1;
#X connect 8 0 7 0;
#X connect 8 0 6 1;
#X connect 11 0 9 0;
#X connect 11 0 10 0;
#X connect 12 0 13 0;
#X connect 12 1 3 0;
#X connect 12 1 18 0;
#X connect 13 0 1 0;
#X connect 13 0 6 0;
#X connect 15 0 26 0;
#X connect 16 0 26 0;
#X connect 17 0 20 1;
#X connect 18 0 20 0;
#X connect 19 0 20 1;
#X connect 20 0 19 0;
#X connect 20 0 33 0;
#X connect 20 0 35 0;
#X connect 21 0 36 0;
#X connect 22 0 24 1;
#X connect 23 0 24 1;
#X connect 24 0 23 0;
#X connect 24 0 38 0;
#X connect 25 0 26 0;
#X connect 26 0 24 0;
#X connect 26 1 21 0;
#X connect 26 2 4 0;
#X connect 26 3 0 0;
#X connect 27 0 26 0;
#X connect 28 0 29 0;
#X connect 31 0 28 1;
#X connect 32 0 28 0;
#X connect 35 0 21 1;
#X connect 35 0 38 1;
#X connect 37 0 21 1;
#X connect 38 0 34 0;
#X connect 38 0 31 0;
#X connect 38 0 32 0;
