#N canvas 328 157 1147 826 10;
#X obj 520 356 list append;
#X obj 677 330 t l;
#X obj 583 330 list prepend;
#X obj 475 98 bng 15 250 50 0 empty empty empty 0 -6 0 8 -262144 -1
-1;
#X obj 737 356 list append;
#X obj 899 330 t l;
#X obj 800 330 list prepend;
#X msg 700 96 const 0;
#X obj 159 138 moses 0;
#X obj 159 163 bang;
#X msg 225 337 0;
#X obj 198 339 bng 15 250 50 0 empty empty empty 17 7 0 10 -262144
-1 -1;
#X obj 260 370 + 1;
#X obj 198 370 float;
#X obj 197 495 float;
#X msg 444 439 0;
#X obj 475 465 + 1;
#X obj 417 465 float;
#X obj 280 51 route next size reset;
#X obj 198 404 + 1;
#X obj 224 465 0;
#X obj 417 508 mod;
#X obj 720 155 array define break;
#X obj 720 179 array define duration;
#X obj 720 131 array define notes;
#X obj 520 386 array set notes;
#X obj 737 386 array set duration;
#X obj 520 574 tabread duration;
#X obj 417 574 tabread notes;
#X obj 159 96 unpack 0 0 0;
#X obj 936 356 list append;
#X obj 999 330 list prepend;
#X obj 936 386 array set break;
#X obj 479 605 pack 0 0 0;
#X obj 631 574 tabread break;
#X obj 417 540 t f f f;
#X obj 281 15 inlet;
#X obj 377 672 outlet;
#X text 441 98 reset;
#X obj 1097 330 t l;
#X text 9 150 -1 marks end of sequence;
#X text 113 495 bang -> size;
#X text 300 441 bang -> next note;
#X msg 298 637 size \$1;
#X msg 479 628 note \$1 \$2 \$3;
#X text 431 14 get next note|get sequence size|reset|sequence: [note
\, dur \, break];
#X connect 0 0 25 0;
#X connect 1 0 2 1;
#X connect 2 0 1 0;
#X connect 2 0 0 1;
#X connect 3 0 2 1;
#X connect 3 0 10 0;
#X connect 3 0 7 0;
#X connect 3 0 15 0;
#X connect 3 0 6 1;
#X connect 3 0 20 0;
#X connect 3 0 31 1;
#X connect 4 0 26 0;
#X connect 5 0 6 1;
#X connect 6 0 5 0;
#X connect 6 0 4 1;
#X connect 7 0 23 0;
#X connect 7 0 24 0;
#X connect 7 0 22 0;
#X connect 8 0 9 0;
#X connect 8 1 2 0;
#X connect 8 1 11 0;
#X connect 9 0 0 0;
#X connect 9 0 4 0;
#X connect 9 0 30 0;
#X connect 10 0 13 1;
#X connect 11 0 13 0;
#X connect 12 0 13 1;
#X connect 13 0 12 0;
#X connect 13 0 19 0;
#X connect 14 0 43 0;
#X connect 15 0 17 1;
#X connect 16 0 17 1;
#X connect 17 0 16 0;
#X connect 17 0 21 0;
#X connect 18 0 17 0;
#X connect 18 1 14 0;
#X connect 18 2 3 0;
#X connect 18 3 29 0;
#X connect 19 0 14 1;
#X connect 19 0 21 1;
#X connect 20 0 14 1;
#X connect 21 0 35 0;
#X connect 27 0 33 1;
#X connect 28 0 33 0;
#X connect 29 0 8 0;
#X connect 29 1 6 0;
#X connect 29 2 31 0;
#X connect 30 0 32 0;
#X connect 31 0 30 1;
#X connect 31 0 39 0;
#X connect 33 0 44 0;
#X connect 34 0 33 2;
#X connect 35 0 28 0;
#X connect 35 1 27 0;
#X connect 35 2 34 0;
#X connect 36 0 18 0;
#X connect 39 0 31 1;
#X connect 43 0 37 0;
#X connect 44 0 37 0;
