#N canvas 150 308 2746 1554 10;
#X obj 520 356 list append;
#X obj 677 330 t l;
#X obj 583 330 list prepend;
#X obj 475 98 bng 15 250 50 0 empty empty empty 0 -6 0 8 -262144 -1
-1;
#X obj 737 356 list append;
#X obj 899 330 t l;
#X obj 800 330 list prepend;
#X msg 700 96 const 0;
#X obj 159 138 moses 0;
#X obj 159 163 bang;
#X msg 225 337 0;
#X obj 198 339 bng 15 250 50 0 empty empty empty 17 7 0 10 -262144
-1 -1;
#X obj 260 370 + 1;
#X obj 198 370 float;
#X obj 197 495 float;
#X msg 444 439 0;
#X obj 475 465 + 1;
#X obj 417 465 float;
#X obj 198 404 + 1;
#X obj 224 465 0;
#X obj 417 508 mod;
#X obj 159 96 unpack 0 0 0;
#X obj 936 356 list append;
#X obj 999 330 list prepend;
#X obj 479 605 pack 0 0 0;
#X obj 417 540 t f f f;
#X obj 281 15 inlet;
#X obj 377 672 outlet;
#X text 441 98 reset;
#X obj 1097 330 t l;
#X text 9 150 -1 marks end of sequence;
#X text 113 495 bang -> size;
#X text 300 441 bang -> next note;
#X msg 299 629 size \$1;
#X msg 479 629 note \$1 \$2 \$3;
#X obj 720 131 array define \$0-notes;
#X obj 720 155 array define \$0-break;
#X obj 720 179 array define \$0-duration;
#X obj 936 386 array set \$0-break;
#X obj 737 386 array set \$0-duration;
#X obj 520 386 array set \$0-notes;
#X obj 665 574 tabread \$0-break;
#X obj 529 574 tabread \$0-duration;
#X obj 417 574 tabread \$0-notes;
#X obj 828 511 float;
#X obj 880 511 +;
#X msg 828 484 bang;
#X msg 896 484 0;
#X text 431 14 get next note|get seq size|get seq len|reset|sequence:
[note \, dur \, break];
#X obj 281 60 route next size len reset;
#X obj 801 540 float;
#X text 747 483 bang -> len;
#X msg 801 629 len \$1;
#X connect 0 0 40 0;
#X connect 1 0 2 1;
#X connect 2 0 1 0;
#X connect 2 0 0 1;
#X connect 3 0 2 1;
#X connect 3 0 10 0;
#X connect 3 0 7 0;
#X connect 3 0 15 0;
#X connect 3 0 6 1;
#X connect 3 0 19 0;
#X connect 3 0 23 1;
#X connect 3 0 47 0;
#X connect 4 0 39 0;
#X connect 5 0 6 1;
#X connect 6 0 5 0;
#X connect 6 0 4 1;
#X connect 7 0 35 0;
#X connect 7 0 36 0;
#X connect 7 0 37 0;
#X connect 8 0 9 0;
#X connect 8 1 2 0;
#X connect 8 1 11 0;
#X connect 9 0 0 0;
#X connect 9 0 4 0;
#X connect 9 0 22 0;
#X connect 10 0 13 1;
#X connect 11 0 13 0;
#X connect 12 0 13 1;
#X connect 13 0 12 0;
#X connect 13 0 18 0;
#X connect 14 0 33 0;
#X connect 15 0 17 1;
#X connect 16 0 17 1;
#X connect 17 0 16 0;
#X connect 17 0 20 0;
#X connect 18 0 14 1;
#X connect 18 0 20 1;
#X connect 19 0 14 1;
#X connect 20 0 25 0;
#X connect 21 0 8 0;
#X connect 21 1 6 0;
#X connect 21 1 45 0;
#X connect 21 1 46 0;
#X connect 21 2 23 0;
#X connect 21 2 45 0;
#X connect 21 2 46 0;
#X connect 22 0 38 0;
#X connect 23 0 22 1;
#X connect 23 0 29 0;
#X connect 24 0 34 0;
#X connect 25 0 43 0;
#X connect 25 1 42 0;
#X connect 25 2 41 0;
#X connect 26 0 49 0;
#X connect 29 0 23 1;
#X connect 33 0 27 0;
#X connect 34 0 27 0;
#X connect 41 0 24 2;
#X connect 42 0 24 1;
#X connect 43 0 24 0;
#X connect 44 0 45 1;
#X connect 44 0 50 1;
#X connect 45 0 44 1;
#X connect 46 0 44 0;
#X connect 47 0 45 1;
#X connect 47 0 44 1;
#X connect 49 0 17 0;
#X connect 49 1 14 0;
#X connect 49 2 50 0;
#X connect 49 3 3 0;
#X connect 49 4 21 0;
#X connect 50 0 52 0;
#X connect 52 0 27 0;
