#N canvas 143 202 1653 784 10;
#X obj 149 352 list append;
#X obj 314 314 t l;
#X obj 197 308 list prepend;
#X obj 445 116 bng 15 250 50 0 empty empty empty 0 -6 0 8 -262144 -1
-1;
#X text 461 114 clear;
#X obj 912 367 list append;
#X obj 1161 422 t l;
#X obj 970 320 list prepend;
#X msg 671 79 const 0;
#X obj 72 231 moses 0;
#X obj 76 276 bang;
#X msg 121 36 next;
#X msg 61 35 size;
#X msg 401 471 0;
#X obj 325 465 bng 15 250 50 0 empty empty empty 17 7 0 10 -262144
-1 -1;
#X obj 437 508 + 1;
#X obj 374 508 float;
#X obj 660 561 float;
#X msg 937 494 0;
#X obj 973 531 + 1;
#X obj 872 493 float;
#X msg 185 38 reset;
#X obj 221 90 route next size reset;
#X obj 875 710 print result;
#X obj 535 529 + 1;
#X obj 645 613 print size;
#X obj 706 495 0;
#X obj 780 532 mod;
#X obj 855 204 array define break;
#X obj 800 161 array define duration;
#X obj 800 129 array define notes;
#X obj 87 418 array set notes;
#X obj 940 420 array set duration;
#X obj 979 616 tabread duration;
#X obj 832 641 tabread notes;
#X obj 136 175 unpack 0 0 0;
#X obj 1272 345 list append;
#X obj 1421 325 t l;
#X obj 1327 285 list prepend;
#X obj 1290 401 array set break;
#X obj 871 670 pack 0 0 0;
#X obj 1199 584 tabread break;
#X msg 275 36 50 2 13 \, 127 4 14 \, 256 6 15 \, -1;
#X obj 807 564 t f f f;
#X connect 0 0 31 0;
#X connect 1 0 2 1;
#X connect 2 0 1 0;
#X connect 2 0 0 1;
#X connect 3 0 2 1;
#X connect 3 0 13 0;
#X connect 3 0 8 0;
#X connect 3 0 18 0;
#X connect 3 0 7 1;
#X connect 3 0 26 0;
#X connect 3 0 38 1;
#X connect 5 0 32 0;
#X connect 6 0 7 1;
#X connect 7 0 6 0;
#X connect 7 0 5 1;
#X connect 8 0 29 0;
#X connect 8 0 30 0;
#X connect 8 0 28 0;
#X connect 9 0 10 0;
#X connect 9 1 2 0;
#X connect 9 1 14 0;
#X connect 10 0 0 0;
#X connect 10 0 5 0;
#X connect 10 0 36 0;
#X connect 11 0 22 0;
#X connect 12 0 22 0;
#X connect 13 0 16 1;
#X connect 14 0 16 0;
#X connect 15 0 16 1;
#X connect 16 0 15 0;
#X connect 16 0 24 0;
#X connect 17 0 25 0;
#X connect 18 0 20 1;
#X connect 19 0 20 1;
#X connect 20 0 19 0;
#X connect 20 0 27 0;
#X connect 21 0 22 0;
#X connect 22 0 20 0;
#X connect 22 1 17 0;
#X connect 22 2 3 0;
#X connect 22 3 35 0;
#X connect 24 0 17 1;
#X connect 24 0 27 1;
#X connect 26 0 17 1;
#X connect 27 0 43 0;
#X connect 33 0 40 1;
#X connect 34 0 40 0;
#X connect 35 0 9 0;
#X connect 35 1 7 0;
#X connect 35 2 38 0;
#X connect 36 0 39 0;
#X connect 37 0 38 1;
#X connect 38 0 37 0;
#X connect 38 0 36 1;
#X connect 40 0 23 0;
#X connect 41 0 40 2;
#X connect 42 0 22 0;
#X connect 43 0 34 0;
#X connect 43 1 33 0;
#X connect 43 2 41 0;
