#N canvas 257 239 313 247 12;
#X obj 41 82 f 0;
#X msg 59 53 0;
#X obj 101 82 + 1;
#X obj 41 113 mod 2;
#X obj 142 8 inlet;
#X text 189 7 reset;
#X obj 41 8 inlet;
#X text 90 7 tick;
#X obj 41 191 outlet;
#X obj 41 140 - 1;
#X obj 41 166 abs;
#X text 93 194 starts 1 -> 0 -> 1;
#X connect 0 0 2 0;
#X connect 0 0 3 0;
#X connect 1 0 0 1;
#X connect 2 0 0 1;
#X connect 3 0 9 0;
#X connect 4 0 1 0;
#X connect 6 0 0 0;
#X connect 9 0 10 0;
#X connect 10 0 8 0;
