#N canvas 738 363 303 231 12;
#X obj 30 104 tgl 15 0 empty empty empty 17 7 0 10 -262144 -1 -1 0
1;
#X obj 30 46 bang;
#X msg 162 46 0;
#X obj 162 13 inlet;
#X text 205 12 reset;
#X obj 30 13 inlet;
#X text 73 12 trigger;
#X obj 30 174 outlet;
#X obj 86 174 outlet;
#X obj 30 126 sel 0 1;
#X obj 182 174 outlet;
#X connect 0 0 9 0;
#X connect 0 0 10 0;
#X connect 1 0 0 0;
#X connect 2 0 0 0;
#X connect 3 0 2 0;
#X connect 5 0 1 0;
#X connect 9 0 7 0;
#X connect 9 1 8 0;
