#N canvas 91 139 450 300 12;
#X obj 19 10 inlet;
#X obj 19 34 unpack 0 0 0 0 0;
#X obj 128 58 pipe 4;
#X obj 100 80 pipe 3;
#X obj 73 103 pipe 2;
#X obj 46 125 pipe 1;
#X text 73 8 values;
#X obj 19 207 outlet;
#X connect 0 0 1 0;
#X connect 1 0 7 0;
#X connect 1 1 5 0;
#X connect 1 2 4 0;
#X connect 1 3 3 0;
#X connect 1 4 2 0;
#X connect 2 0 7 0;
#X connect 3 0 7 0;
#X connect 4 0 7 0;
#X connect 5 0 7 0;
