#N canvas 548 356 852 499 10;
#X obj 24 12 inlet;
#X obj 74 375 outlet;
#X obj 24 113 encoder-val;
#X obj 261 375 outlet;
#X text 121 374 in-pattern;
#X text 303 374 controller-level;
#X obj 261 348 change;
#X obj 74 348 change;
#X obj 581 375 s enc-val;
#X msg 107 67 gran 1 \, min 0 \, max 9;
#X obj 107 17 loadbang;
#X obj 107 42 t b b;
#X connect 0 0 2 0;
#X connect 2 0 6 0;
#X connect 2 0 7 0;
#X connect 2 0 8 0;
#X connect 6 0 3 0;
#X connect 7 0 1 0;
#X connect 9 0 2 0;
#X connect 10 0 11 0;
#X connect 11 0 9 0;
#X connect 11 1 9 0;
