#N canvas 726 395 852 499 10;
#X obj 24 12 inlet;
#X obj 24 207 outlet;
#X obj 24 113 encoder-val;
#X obj 24 139 change;
#X obj 78 207 s enc-val;
#X obj 107 17 loadbang;
#X msg 107 67 gran 1 \, min 0 \, max 4;
#X connect 0 0 2 0;
#X connect 2 0 3 0;
#X connect 3 0 1 0;
#X connect 3 0 4 0;
#X connect 5 0 6 0;
#X connect 6 0 2 0;
