#N canvas 621 422 576 384 12;
#X obj 97 174 expr if (($f1 == $f3) && ($f2 == $f4) \, 1 \, 0);
#X obj 300 22 inlet;
#X obj 402 22 inlet;
#X text 307 46 want-ctl;
#X text 409 46 want-chan;
#X obj 2 322 outlet;
#X obj 2 22 ctlin;
#X obj 190 22 inlet;
#X obj 97 141 spigot;
#X obj 198 135 spigot;
#X obj 2 167 spigot;
#X obj 2 211 spigot;
#X text 201 46 spigot;
#X obj 129 322 outlet;
#X obj 180 322 outlet;
#X obj 129 261 select 1 0;
#X obj 351 322 outlet;
#X text 48 321 0-on 1-off;
#X text 408 321 1-on 0-off;
#X obj 351 261 - 1;
#X obj 351 292 abs;
#X obj 2 236 t f f f;
#X text 236 321 on/off;
#X connect 0 0 11 1;
#X connect 1 0 0 2;
#X connect 2 0 0 3;
#X connect 6 0 10 0;
#X connect 6 1 8 0;
#X connect 6 2 9 0;
#X connect 7 0 9 1;
#X connect 7 0 8 1;
#X connect 7 0 10 1;
#X connect 8 0 0 0;
#X connect 9 0 0 1;
#X connect 10 0 11 0;
#X connect 11 0 21 0;
#X connect 15 0 13 0;
#X connect 15 1 14 0;
#X connect 19 0 20 0;
#X connect 20 0 16 0;
#X connect 21 0 5 0;
#X connect 21 1 15 0;
#X connect 21 2 19 0;
