#N canvas 621 504 678 379 12;
#X obj 97 174 expr if (($f1 == $f3) && ($f2 == $f4) \, 1 \, 0);
#X obj 300 22 inlet;
#X obj 402 22 inlet;
#X text 307 46 want-ctl;
#X text 409 46 want-chan;
#X obj 2 322 outlet;
#X obj 2 22 ctlin;
#X obj 190 22 inlet;
#X obj 97 141 spigot;
#X obj 198 135 spigot;
#X obj 2 167 spigot;
#X obj 2 211 spigot;
#X text 201 46 spigot;
#X obj 129 322 outlet;
#X obj 180 322 outlet;
#X obj 129 261 select 1 0;
#X obj 351 322 outlet;
#X text 48 321 0-on 1-off;
#X text 408 321 1-on 0-off;
#X obj 351 261 - 1;
#X obj 351 292 abs;
#X obj 2 236 t f f f;
#X text 236 321 on/off;
#X obj 483 22 inlet;
#X text 499 46 set value;
#X obj 532 322 ctlout;
#X obj 532 292 spigot;
#X obj 533 112 t b b;
#X obj 483 112 t b b;
#X msg 61 212 0;
#X msg 97 213 1;
#X msg 532 245 0;
#X msg 570 245 127;
#X obj 483 83 sel 1 0;
#X connect 0 0 11 1;
#X connect 1 0 0 2;
#X connect 1 0 25 1;
#X connect 2 0 0 3;
#X connect 2 0 25 2;
#X connect 6 0 10 0;
#X connect 6 1 8 0;
#X connect 6 2 9 0;
#X connect 7 0 9 1;
#X connect 7 0 8 1;
#X connect 7 0 10 1;
#X connect 7 0 26 1;
#X connect 8 0 0 0;
#X connect 9 0 0 1;
#X connect 10 0 11 0;
#X connect 11 0 21 0;
#X connect 15 0 13 0;
#X connect 15 1 14 0;
#X connect 19 0 20 0;
#X connect 20 0 16 0;
#X connect 21 0 5 0;
#X connect 21 1 15 0;
#X connect 21 2 19 0;
#X connect 23 0 33 0;
#X connect 26 0 25 0;
#X connect 27 0 29 0;
#X connect 27 1 32 0;
#X connect 28 0 30 0;
#X connect 28 1 31 0;
#X connect 29 0 21 0;
#X connect 30 0 21 0;
#X connect 31 0 26 0;
#X connect 32 0 26 0;
#X connect 33 0 28 0;
#X connect 33 1 27 0;
