#N canvas 843 410 540 389 12;
#X obj 97 174 expr if (($f1 == $f3) && ($f2 == $f4) \, 1 \, 0);
#X obj 300 22 inlet;
#X obj 402 22 inlet;
#X text 307 46 want-ctl;
#X text 409 46 want-chan;
#X obj 2 295 outlet;
#X obj 2 22 ctlin;
#X obj 190 22 inlet;
#X obj 97 141 spigot;
#X obj 198 135 spigot;
#X obj 2 167 spigot;
#X obj 2 211 spigot;
#X text 58 294 cc-out;
#X text 201 46 spigot;
#X obj 129 295 outlet;
#X obj 180 295 outlet;
#X obj 2 236 t f f;
#X text 236 295 0-on 1-off;
#X obj 129 261 select 1 0;
#X connect 0 0 11 1;
#X connect 1 0 0 2;
#X connect 2 0 0 3;
#X connect 6 0 10 0;
#X connect 6 1 8 0;
#X connect 6 2 9 0;
#X connect 7 0 9 1;
#X connect 7 0 8 1;
#X connect 7 0 10 1;
#X connect 8 0 0 0;
#X connect 9 0 0 1;
#X connect 10 0 11 0;
#X connect 11 0 16 0;
#X connect 16 0 5 0;
#X connect 16 1 18 0;
#X connect 18 0 14 0;
#X connect 18 1 15 0;
