#N canvas 819 217 474 356 12;
#X obj 33 15 ctlin;
#X obj 141 15 inlet;
#X obj 72 133 spigot;
#X obj 111 104 ==;
#X obj 72 163 ==;
#X obj 33 194 spigot;
#X obj 86 15 inlet;
#X obj 251 15 inlet;
#X text 90 34 spigot;
#X obj 33 104 spigot 0;
#X text 251 34 ch-in;
#X obj 308 15 inlet;
#X text 308 34 ch-out;
#X obj 33 262 ctlout;
#X text 142 34 ctl in/out;
#X obj 141 57 unpack 0 0;
#X connect 0 0 9 0;
#X connect 0 1 2 0;
#X connect 0 2 3 0;
#X connect 1 0 15 0;
#X connect 2 0 4 0;
#X connect 3 0 2 1;
#X connect 4 0 5 1;
#X connect 5 0 13 0;
#X connect 6 0 9 1;
#X connect 7 0 3 1;
#X connect 9 0 5 0;
#X connect 11 0 13 2;
#X connect 15 0 4 1;
#X connect 15 1 13 1;
