#N canvas 819 217 670 248 12;
#X obj 141 15 inlet;
#X obj 33 15 inlet;
#X obj 360 15 inlet;
#X text 37 34 spigot;
#X text 360 34 ch-in;
#X obj 417 15 inlet;
#X text 417 34 ch-out;
#X obj 33 187 ctlout;
#X text 142 34 ctl in/out;
#X obj 141 57 unpack 0 0;
#X obj 33 102 cc-filter;
#X obj 232 15 inlet;
#X obj 232 57 unpack 0 0;
#X obj 53 135 f, f 2;
#X obj 73 135 f, f 2;
#X text 233 34 val off/on;
#X obj 186 187 outlet;
#X text 243 186 1-on 0-off;
#X connect 0 0 9 0;
#X connect 1 0 10 0;
#X connect 2 0 10 2;
#X connect 5 0 7 2;
#X connect 9 0 10 1;
#X connect 9 1 7 1;
#X connect 10 1 13 0;
#X connect 10 2 14 0;
#X connect 10 3 16 0;
#X connect 11 0 12 0;
#X connect 12 0 13 1;
#X connect 12 1 14 1;
#X connect 13 0 7 0;
#X connect 14 0 7 0;
