#N canvas 740 168 867 691 10;
#X msg 153 42 -1;
#X obj 109 100 ==;
#X msg 104 436 set \$1;
#X msg 195 496 34 play 1;
#X obj 109 138 sel 0;
#X msg 127 282 add2 arm;
#X obj 195 138 sel 1;
#X msg 195 282 add2 play;
#X msg 242 361 1;
#X msg 262 436 add2 1;
#X msg 242 396 set add2 \$1;
#X obj 55 42 t f f f f;
#X obj 55 10 inlet;
#X obj 195 643 outlet;
#X obj 187 10 loadbang;
#X obj 282 10 r reps;
#X msg 108 496 \$1 play 0;
#X obj 120 10 r reset;
#X obj 40 436 f;
#X obj 366 10 r listen;
#X msg 40 496 \$1 0;
#X obj 40 643 ../apc/ctl-pad-light;
#X msg 74 598 34 3;
#X msg 172 554 add2 5;
#X obj 109 172 t b b b b b;
#X obj 223 328 t b b b b b;
#X msg 286 554 add2 1;
#X connect 0 0 1 1;
#X connect 0 0 18 1;
#X connect 1 0 4 0;
#X connect 1 0 6 0;
#X connect 2 0 3 0;
#X connect 2 0 22 0;
#X connect 3 0 13 0;
#X connect 4 0 24 0;
#X connect 5 0 3 0;
#X connect 6 0 7 0;
#X connect 7 0 3 0;
#X connect 7 0 25 0;
#X connect 8 0 10 0;
#X connect 9 0 3 0;
#X connect 10 0 9 0;
#X connect 11 0 18 1;
#X connect 11 1 1 1;
#X connect 11 2 1 0;
#X connect 11 3 2 0;
#X connect 12 0 11 0;
#X connect 14 0 0 0;
#X connect 15 0 10 0;
#X connect 16 0 13 0;
#X connect 17 0 0 0;
#X connect 18 0 16 0;
#X connect 18 0 20 0;
#X connect 19 0 13 0;
#X connect 20 0 21 0;
#X connect 22 0 21 0;
#X connect 23 0 22 0;
#X connect 24 0 3 0;
#X connect 24 1 5 0;
#X connect 24 2 18 0;
#X connect 24 3 22 0;
#X connect 24 4 23 0;
#X connect 25 0 3 0;
#X connect 25 1 8 0;
#X connect 25 2 9 0;
#X connect 25 3 22 0;
#X connect 25 4 26 0;
#X connect 26 0 22 0;
