#N canvas 317 228 378 583 10;
#X msg 153 42 -1;
#X obj 109 100 ==;
#X msg 106 466 set \$1;
#X msg 195 499 11 play 8;
#X obj 109 138 sel 0;
#X msg 127 282 add2 arm;
#X obj 195 138 sel 1;
#X msg 195 282 add2 play;
#X msg 242 361 1;
#X msg 262 435 add2 1;
#X msg 242 396 set add2 \$1;
#X obj 28 436 float;
#X obj 55 42 t f f f f;
#X obj 109 169 t b b b;
#X obj 223 328 t b b b;
#X obj 55 10 inlet;
#X obj 195 536 outlet;
#X obj 187 10 loadbang;
#X obj 310 10 r reps;
#X msg 28 466 \$1 play 0;
#X obj 120 8 r reset;
#X connect 0 0 1 1;
#X connect 0 0 11 1;
#X connect 1 0 4 0;
#X connect 1 0 6 0;
#X connect 2 0 3 0;
#X connect 3 0 16 0;
#X connect 4 0 13 0;
#X connect 5 0 3 0;
#X connect 6 0 7 0;
#X connect 7 0 3 0;
#X connect 7 0 14 0;
#X connect 8 0 10 0;
#X connect 9 0 3 0;
#X connect 10 0 9 0;
#X connect 11 0 19 0;
#X connect 12 0 11 1;
#X connect 12 1 1 1;
#X connect 12 2 1 0;
#X connect 12 3 2 0;
#X connect 13 0 3 0;
#X connect 13 1 5 0;
#X connect 13 2 11 0;
#X connect 14 0 3 0;
#X connect 14 1 8 0;
#X connect 14 2 9 0;
#X connect 15 0 12 0;
#X connect 17 0 0 0;
#X connect 18 0 10 0;
#X connect 19 0 16 0;
#X connect 20 0 0 0;
