#N canvas 256 348 317 359 10;
#X msg 241 39 0;
#X obj 27 202 float;
#X obj 27 170 t b f;
#X obj 65 235 + \$1;
#X obj 23 12 inlet;
#X obj 241 12 r reset;
#X obj 28 324 outlet;
#X obj 128 64 moses 0;
#X obj 167 95 bang;
#X obj 23 39 route gran min max;
#X obj 28 271 expr if ($f1 >= $f2 \, $f1 \, $f2);
#X obj 28 293 expr if ($f1 <= $f2 \, $f1 \, $f2);
#X obj 167 134 float;
#X obj 27 134 -;
#X msg 128 95 0;
#X connect 0 0 1 1;
#X connect 1 0 3 0;
#X connect 2 0 1 0;
#X connect 2 1 3 1;
#X connect 3 0 10 0;
#X connect 4 0 9 0;
#X connect 5 0 0 0;
#X connect 7 0 14 0;
#X connect 7 1 8 0;
#X connect 8 0 12 0;
#X connect 9 0 12 1;
#X connect 9 0 13 1;
#X connect 9 1 10 1;
#X connect 9 2 11 1;
#X connect 9 3 7 0;
#X connect 10 0 11 0;
#X connect 11 0 6 0;
#X connect 11 0 1 1;
#X connect 12 0 2 0;
#X connect 13 0 2 0;
#X connect 14 0 13 0;
