#N canvas 1082 366 455 245 12;
#X obj 57 10 inlet;
#X obj 56 147 spigot 0;
#X obj 109 108 ==;
#X obj 56 188 outlet;
#X obj 56 73 cc-in;
#X text 100 9 ctrl-#;
#X obj 181 10 inlet;
#X text 226 9 channel;
#X connect 0 0 2 1;
#X connect 1 0 3 0;
#X connect 2 0 1 1;
#X connect 4 0 1 0;
#X connect 4 1 2 0;
#X connect 6 0 4 0;
