#N canvas 879 464 852 499 10;
#X obj 24 12 inlet;
#X obj 17 389 outlet;
#X obj 24 39 route gran min max;
#X obj 121 390 s enc-val;
#X obj 24 168 expr (128 / ((($f3/$f1) - ($f2/$f1)) + 1));
#X obj 17 316 expr (int($f1 / $f2) * $f3) + $f4;
#X connect 0 0 2 0;
#X connect 2 0 4 0;
#X connect 2 0 5 2;
#X connect 2 1 4 1;
#X connect 2 1 5 3;
#X connect 2 2 4 2;
#X connect 2 3 5 0;
#X connect 4 0 5 1;
#X connect 5 0 1 0;
#X connect 5 0 3 0;
