#N canvas 333 231 465 614 10;
#X obj 24 12 inlet;
#X obj 112 510 outlet;
#X obj 24 68 route gran min max;
#X obj 195 510 outlet;
#X obj 94 205 -;
#X obj 79 339 *;
#X obj 94 246 / 127;
#X obj 79 302 *;
#X obj 94 99 + 1;
#X obj 79 380 select;
#X obj 94 147 t f f;
#X obj 112 459 int;
#X obj 112 420 t f f;
#X connect 0 0 2 0;
#X connect 2 0 5 1;
#X connect 2 1 4 1;
#X connect 2 2 8 0;
#X connect 2 3 7 0;
#X connect 4 0 6 0;
#X connect 5 0 9 0;
#X connect 6 0 7 1;
#X connect 7 0 5 0;
#X connect 8 0 10 0;
#X connect 9 1 12 0;
#X connect 10 0 4 0;
#X connect 10 1 9 1;
#X connect 11 0 1 0;
#X connect 12 0 11 0;
#X connect 12 1 3 0;
