#N canvas 879 464 852 499 10;
#X obj 24 12 inlet;
#X obj 56 387 outlet;
#X obj 24 39 route gran min max;
#X obj 160 388 s enc-val;
#X obj 43 168 expr (128 / ((($f3/$f1) - ($f2/$f1)) + 1));
#X obj 56 314 expr (int($f1 / $f2) * $f3) + $f4;
#X obj 167 138 t f f;
#X obj 24 138 t b f f;
#X msg 24 228 0;
#X connect 0 0 2 0;
#X connect 2 0 7 0;
#X connect 2 1 6 0;
#X connect 2 2 4 2;
#X connect 2 3 5 0;
#X connect 4 0 5 1;
#X connect 5 0 1 0;
#X connect 5 0 3 0;
#X connect 6 0 4 1;
#X connect 6 1 5 3;
#X connect 7 0 8 0;
#X connect 7 1 4 0;
#X connect 7 2 5 2;
#X connect 8 0 5 0;
