#N canvas 54 188 1512 468 10;
#X obj 30 24 key;
#X obj 1000 85 moses 49;
#X obj 1062 85 moses 58;
#X obj 1062 115 - 48;
#X obj 1039 330 s reps;
#X obj 1152 328 s sel;
#X msg 1076 187 11;
#X obj 1143 146 route 113 119 101;
#X msg 1107 187 12;
#X msg 1135 187 13;
#X obj 1254 187 route 97 115 100;
#X msg 1190 226 21;
#X msg 1221 226 22;
#X msg 1253 226 23;
#X obj 1389 226 route 122 120 99;
#X msg 1325 261 31;
#X msg 1356 261 32;
#X msg 1389 261 33;
#X obj 892 330 s tune;
#X msg 864 115 1;
#X msg 926 115 2;
#X obj 926 85 select 61;
#X obj 864 85 select 45;
#X obj 1000 115 select 48;
#X msg 1000 148 -1;
#X floatatom 30 113 5 0 0 0 - - -;
#X obj 65 84 select 91;
#X obj 128 84 select 93;
#X obj 196 83 select 39;
#X obj 259 83 select 35;
#X msg 65 113 -1;
#X msg 128 114 1;
#X msg 196 113 -1;
#X msg 259 113 1;
#X obj 84 328 s note-len;
#X obj 213 328 s br-len;
#X obj 328 83 select 39;
#X obj 391 83 select 35;
#X msg 328 113 -1;
#X msg 391 113 1;
#X obj 459 83 select 39;
#X obj 522 83 select 35;
#X msg 459 113 -1;
#X msg 522 113 1;
#X obj 345 328 s offset;
#X obj 476 328 s nlb;
#X msg 590 114 -1;
#X msg 653 114 1;
#X obj 607 329 s subpart;
#X obj 717 84 select 39;
#X obj 780 84 select 35;
#X msg 717 114 -1;
#X msg 780 114 1;
#X obj 734 329 s swing;
#X obj 590 84 select 46;
#X obj 653 84 select 47;
#X connect 0 0 1 0;
#X connect 0 0 21 0;
#X connect 0 0 22 0;
#X connect 0 0 25 0;
#X connect 0 0 26 0;
#X connect 0 0 27 0;
#X connect 0 0 28 0;
#X connect 0 0 29 0;
#X connect 0 0 54 0;
#X connect 0 0 55 0;
#X connect 1 0 23 0;
#X connect 1 1 2 0;
#X connect 2 0 3 0;
#X connect 2 1 7 0;
#X connect 3 0 4 0;
#X connect 6 0 5 0;
#X connect 7 0 6 0;
#X connect 7 1 8 0;
#X connect 7 2 9 0;
#X connect 7 3 10 0;
#X connect 8 0 5 0;
#X connect 9 0 5 0;
#X connect 10 0 11 0;
#X connect 10 1 12 0;
#X connect 10 2 13 0;
#X connect 10 3 14 0;
#X connect 11 0 5 0;
#X connect 12 0 5 0;
#X connect 13 0 5 0;
#X connect 14 0 15 0;
#X connect 14 1 16 0;
#X connect 14 2 17 0;
#X connect 15 0 5 0;
#X connect 16 0 5 0;
#X connect 17 0 5 0;
#X connect 19 0 18 0;
#X connect 20 0 18 0;
#X connect 21 0 20 0;
#X connect 22 0 19 0;
#X connect 23 0 24 0;
#X connect 24 0 4 0;
#X connect 26 0 30 0;
#X connect 27 0 31 0;
#X connect 28 0 32 0;
#X connect 29 0 33 0;
#X connect 30 0 34 0;
#X connect 31 0 34 0;
#X connect 32 0 35 0;
#X connect 33 0 35 0;
#X connect 36 0 38 0;
#X connect 37 0 39 0;
#X connect 38 0 44 0;
#X connect 39 0 44 0;
#X connect 40 0 42 0;
#X connect 41 0 43 0;
#X connect 42 0 45 0;
#X connect 43 0 45 0;
#X connect 46 0 48 0;
#X connect 47 0 48 0;
#X connect 49 0 51 0;
#X connect 50 0 52 0;
#X connect 51 0 53 0;
#X connect 52 0 53 0;
#X connect 54 0 46 0;
#X connect 55 0 47 0;
