#N canvas 311 178 1315 468 10;
#X obj 30 24 key;
#X obj 766 70 moses 49;
#X obj 828 70 moses 58;
#X obj 828 97 - 48;
#X obj 805 328 s reps;
#X obj 970 328 s sel;
#X msg 894 187 11;
#X obj 961 153 route 113 119 101;
#X msg 925 187 12;
#X msg 953 187 13;
#X obj 1072 187 route 97 115 100;
#X msg 1008 226 21;
#X msg 1039 226 22;
#X msg 1071 226 23;
#X obj 1207 226 route 122 120 99;
#X msg 1143 261 31;
#X msg 1174 261 32;
#X msg 1207 261 33;
#X obj 652 328 s tune;
#X msg 607 109 1;
#X msg 686 109 2;
#X obj 686 78 select 61;
#X obj 607 78 select 45;
#X obj 766 97 select 48;
#X msg 766 128 -1;
#X floatatom 21 132 5 0 0 0 - - -, f 5;
#X obj 89 83 select 91;
#X obj 168 83 select 93;
#X obj 218 13 r reset;
#X msg 235 114 0;
#X obj 106 183 float;
#X obj 133 142 t b f;
#X obj 170 183 + \$1;
#X msg 168 114 0.25;
#X msg 89 114 -0.25;
#X obj 106 218 expr if ($f1 >= 0 \, $f1 \, 0);
#X obj 106 240 expr if ($f1 <= 64 \, $f1 \, 64);
#X obj 106 328 s note_len;
#X msg 436 111 0;
#X obj 307 180 float;
#X obj 334 139 t b f;
#X obj 371 180 + \$1;
#X msg 369 111 0.25;
#X msg 290 111 -0.25;
#X obj 307 215 expr if ($f1 >= 0 \, $f1 \, 0);
#X obj 307 237 expr if ($f1 <= 64 \, $f1 \, 64);
#X obj 290 80 select 39;
#X obj 369 80 select 35;
#X obj 307 325 s br_len;
#X connect 0 0 1 0;
#X connect 0 0 21 0;
#X connect 0 0 22 0;
#X connect 0 0 25 0;
#X connect 0 0 26 0;
#X connect 0 0 27 0;
#X connect 0 0 46 0;
#X connect 0 0 47 0;
#X connect 1 0 23 0;
#X connect 1 1 2 0;
#X connect 2 0 3 0;
#X connect 2 1 7 0;
#X connect 3 0 4 0;
#X connect 6 0 5 0;
#X connect 7 0 6 0;
#X connect 7 1 8 0;
#X connect 7 2 9 0;
#X connect 7 3 10 0;
#X connect 8 0 5 0;
#X connect 9 0 5 0;
#X connect 10 0 11 0;
#X connect 10 1 12 0;
#X connect 10 2 13 0;
#X connect 10 3 14 0;
#X connect 11 0 5 0;
#X connect 12 0 5 0;
#X connect 13 0 5 0;
#X connect 14 0 15 0;
#X connect 14 1 16 0;
#X connect 14 2 17 0;
#X connect 15 0 5 0;
#X connect 16 0 5 0;
#X connect 17 0 5 0;
#X connect 19 0 18 0;
#X connect 20 0 18 0;
#X connect 21 0 20 0;
#X connect 22 0 19 0;
#X connect 23 0 24 0;
#X connect 24 0 4 0;
#X connect 26 0 34 0;
#X connect 27 0 33 0;
#X connect 28 0 29 0;
#X connect 28 0 38 0;
#X connect 29 0 30 1;
#X connect 30 0 35 0;
#X connect 31 0 30 0;
#X connect 31 1 32 1;
#X connect 32 0 30 1;
#X connect 33 0 31 0;
#X connect 34 0 31 0;
#X connect 35 0 36 0;
#X connect 36 0 32 0;
#X connect 36 0 37 0;
#X connect 38 0 39 1;
#X connect 39 0 44 0;
#X connect 40 0 39 0;
#X connect 40 1 41 1;
#X connect 41 0 39 1;
#X connect 42 0 40 0;
#X connect 43 0 40 0;
#X connect 44 0 45 0;
#X connect 45 0 41 0;
#X connect 45 0 48 0;
#X connect 46 0 43 0;
#X connect 47 0 42 0;
