#N canvas 326 387 1315 468 10;
#X obj 30 24 key;
#X obj 766 83 moses 49;
#X obj 828 83 moses 58;
#X obj 828 113 - 48;
#X obj 805 328 s reps;
#X obj 970 328 s sel;
#X msg 894 187 11;
#X obj 961 146 route 113 119 101;
#X msg 925 187 12;
#X msg 953 187 13;
#X obj 1072 187 route 97 115 100;
#X msg 1008 226 21;
#X msg 1039 226 22;
#X msg 1071 226 23;
#X obj 1207 226 route 122 120 99;
#X msg 1143 261 31;
#X msg 1174 261 32;
#X msg 1207 261 33;
#X obj 652 328 s tune;
#X msg 607 113 1;
#X msg 686 113 2;
#X obj 686 83 select 61;
#X obj 607 83 select 45;
#X obj 766 113 select 48;
#X msg 766 146 -1;
#X floatatom 30 113 5 0 0 0 - - -, f 5;
#X obj 89 83 select 91;
#X obj 168 83 select 93;
#X obj 106 328 s note_len;
#X obj 290 83 select 39;
#X obj 369 83 select 35;
#X obj 307 328 s br_len;
#X msg 89 113 -1;
#X msg 168 113 1;
#X msg 290 113 -1;
#X msg 369 113 1;
#X connect 0 0 1 0;
#X connect 0 0 21 0;
#X connect 0 0 22 0;
#X connect 0 0 25 0;
#X connect 0 0 26 0;
#X connect 0 0 27 0;
#X connect 0 0 29 0;
#X connect 0 0 30 0;
#X connect 1 0 23 0;
#X connect 1 1 2 0;
#X connect 2 0 3 0;
#X connect 2 1 7 0;
#X connect 3 0 4 0;
#X connect 6 0 5 0;
#X connect 7 0 6 0;
#X connect 7 1 8 0;
#X connect 7 2 9 0;
#X connect 7 3 10 0;
#X connect 8 0 5 0;
#X connect 9 0 5 0;
#X connect 10 0 11 0;
#X connect 10 1 12 0;
#X connect 10 2 13 0;
#X connect 10 3 14 0;
#X connect 11 0 5 0;
#X connect 12 0 5 0;
#X connect 13 0 5 0;
#X connect 14 0 15 0;
#X connect 14 1 16 0;
#X connect 14 2 17 0;
#X connect 15 0 5 0;
#X connect 16 0 5 0;
#X connect 17 0 5 0;
#X connect 19 0 18 0;
#X connect 20 0 18 0;
#X connect 21 0 20 0;
#X connect 22 0 19 0;
#X connect 23 0 24 0;
#X connect 24 0 4 0;
#X connect 26 0 32 0;
#X connect 27 0 33 0;
#X connect 29 0 34 0;
#X connect 30 0 35 0;
#X connect 32 0 28 0;
#X connect 33 0 28 0;
#X connect 34 0 31 0;
#X connect 35 0 31 0;
