#N canvas 818 249 542 485 12;
#X obj 29 12 ctlin;
#X obj 144 12 inlet;
#X obj 68 130 spigot;
#X obj 107 101 ==;
#X obj 68 160 ==;
#X obj 29 191 spigot;
#X obj 277 12 inlet;
#X obj 82 12 inlet;
#X obj 200 12 inlet;
#X text 200 31 channel;
#X text 86 31 spigot;
#X obj 29 101 spigot 0;
#X obj 29 443 outlet;
#X text 280 31 initial \, lower \, higher;
#X obj 277 56 unpack 0 0 0;
#X obj 29 378 clip;
#X text 145 31 ctl;
#X obj 29 282 sel 1;
#X obj 29 410 change;
#X obj 29 312 f;
#X obj 29 219 t f f f b;
#X obj 29 251 expr if (($f1 == $f2 - 1 || $f1 == $f2 + 1) \, 1 \, 0)
, f 53;
#X obj 29 341 clip 0 127;
#X connect 0 0 11 0;
#X connect 0 1 2 0;
#X connect 0 2 3 0;
#X connect 1 0 4 1;
#X connect 2 0 4 0;
#X connect 3 0 2 1;
#X connect 4 0 5 1;
#X connect 5 0 20 0;
#X connect 6 0 14 0;
#X connect 7 0 11 1;
#X connect 8 0 3 1;
#X connect 11 0 5 0;
#X connect 14 0 20 0;
#X connect 14 1 15 1;
#X connect 14 2 15 2;
#X connect 15 0 18 0;
#X connect 17 0 19 0;
#X connect 18 0 12 0;
#X connect 19 0 22 0;
#X connect 20 0 21 0;
#X connect 20 1 19 1;
#X connect 21 0 17 0;
#X connect 22 0 21 1;
#X connect 22 0 15 0;
