#N canvas 818 249 542 485 12;
#X obj 91 8 inlet;
#X obj 217 7 inlet;
#X obj 29 8 inlet;
#X obj 147 8 inlet;
#X text 147 27 channel;
#X text 33 27 spigot;
#X obj 29 368 outlet;
#X text 220 26 initial \, lower \, higher;
#X obj 217 51 unpack 0 0 0;
#X obj 29 303 clip;
#X text 92 27 ctl;
#X obj 29 207 sel 1;
#X obj 29 335 change;
#X obj 29 237 f;
#X obj 29 176 expr if (($f1 == $f2 - 1 || $f1 == $f2 + 1) \, 1 \, 0)
, f 53;
#X obj 29 266 clip 0 127;
#X obj 29 91 cc-filter;
#X obj 29 144 t f f;
#X connect 0 0 16 1;
#X connect 1 0 8 0;
#X connect 2 0 16 0;
#X connect 3 0 16 2;
#X connect 8 0 17 0;
#X connect 8 1 9 1;
#X connect 8 2 9 2;
#X connect 9 0 12 0;
#X connect 11 0 13 0;
#X connect 12 0 6 0;
#X connect 13 0 15 0;
#X connect 14 0 11 0;
#X connect 15 0 14 1;
#X connect 15 0 9 0;
#X connect 16 0 17 0;
#X connect 17 0 14 0;
#X connect 17 1 13 1;
