#N canvas 567 219 901 580 10;
#X obj 30 24 key;
#X floatatom 64 67 5 0 0 0 - - -, f 5;
#X obj 184 60 moses 49;
#X floatatom 229 116 5 0 0 0 - - -, f 5;
#X floatatom 274 169 5 0 0 0 - - -, f 5;
#X obj 229 87 moses 58;
#X obj 229 138 - 48;
#X floatatom 229 161 5 0 0 0 - - -, f 5;
#X floatatom 184 83 5 0 0 0 - - -, f 5;
#X obj 184 105 == 48;
#X obj 216 190 s reps;
#X obj 165 366 r reps;
#X floatatom 165 389 5 0 0 0 - - -, f 5;
#X msg 184 128 -1;
#X obj 264 366 r sel;
#X floatatom 264 389 5 0 0 0 - - -, f 5;
#X obj 372 339 s sel;
#X msg 323 192 11;
#X obj 390 158 route 113 119 101;
#X msg 354 192 12;
#X msg 382 192 13;
#X obj 501 192 route 97 115 100;
#X msg 437 231 21;
#X msg 468 231 22;
#X msg 500 231 23;
#X obj 636 231 route 122 120 99;
#X msg 572 266 31;
#X msg 603 266 32;
#X msg 636 266 33;
#X connect 0 0 1 0;
#X connect 0 0 2 0;
#X connect 2 0 8 0;
#X connect 2 1 5 0;
#X connect 3 0 6 0;
#X connect 5 0 3 0;
#X connect 5 1 4 0;
#X connect 5 1 18 0;
#X connect 6 0 7 0;
#X connect 7 0 10 0;
#X connect 8 0 9 0;
#X connect 9 0 13 0;
#X connect 11 0 12 0;
#X connect 13 0 10 0;
#X connect 14 0 15 0;
#X connect 17 0 16 0;
#X connect 18 0 17 0;
#X connect 18 1 19 0;
#X connect 18 2 20 0;
#X connect 18 3 21 0;
#X connect 19 0 16 0;
#X connect 20 0 16 0;
#X connect 21 0 22 0;
#X connect 21 1 23 0;
#X connect 21 2 24 0;
#X connect 21 3 25 0;
#X connect 22 0 16 0;
#X connect 23 0 16 0;
#X connect 24 0 16 0;
#X connect 25 0 26 0;
#X connect 25 1 27 0;
#X connect 25 2 28 0;
#X connect 26 0 16 0;
#X connect 27 0 16 0;
#X connect 28 0 16 0;
