#N canvas 209 233 1368 666 12;
#X obj 58 140 timer;
#X obj 90 52 sel 0;
#X obj 122 85 bang;
#X obj 114 140 timer;
#X msg 193 52 set;
#X msg 19 330 add2 \$1;
#X obj 19 52 f;
#X msg 246 52 124;
#X obj 246 12 loadbang;
#X obj 246 85 expr (60000 / $i1);
#X obj 58 184 /;
#X obj 114 184 /;
#X obj 193 265 f;
#X obj 58 225 t f b b b;
#X msg 98 265 addcomma;
#X msg 103 411 40.2263 \, 33 1.08167 2.87545 \, 33 0.952475 3.26305
\, 33 0.760177 3.26005 \, 33 1.04862 3.07075 \, 33 1.01858 3.06775
\, 33 0.928438 3.12484 \, 33 1.02459 3.06174 \, 33 0.823275 3.05874
\, 33 0.973507 2.99864 \, 33 0.952475 185.781 \, 33 0.288447;
#X msg 225 327 set;
#X obj 622 308 +;
#X obj 590 334 f;
#X obj 622 334 +;
#X msg 614 251 0;
#X obj 604 365 f;
#X obj 604 395 t f f f;
#X obj 627 466 -;
#X obj 627 432 div;
#X obj 627 494 t b f;
#X obj 627 579 -;
#X msg 627 549 1;
#X obj 582 278 unpack f f f;
#X obj 659 527 abs;
#X obj 495 8 bng 15 250 50 0 empty empty empty 17 7 0 10 -262144 -1
-1;
#X obj 604 602 print total;
#X obj 627 631 print rounder;
#X obj 37 12 notein 2;
#X obj 556 28 t b b b b;
#X msg 582 61 33 0.952475 0.047525;
#X connect 0 0 10 0;
#X connect 1 0 0 1;
#X connect 1 0 3 0;
#X connect 1 1 2 0;
#X connect 2 0 0 0;
#X connect 2 0 3 1;
#X connect 3 0 11 0;
#X connect 4 0 15 0;
#X connect 5 0 15 0;
#X connect 6 0 5 0;
#X connect 7 0 9 0;
#X connect 8 0 7 0;
#X connect 8 0 4 0;
#X connect 9 0 10 1;
#X connect 9 0 11 1;
#X connect 10 0 13 0;
#X connect 11 0 12 1;
#X connect 12 0 5 0;
#X connect 13 0 5 0;
#X connect 13 1 6 0;
#X connect 13 2 14 0;
#X connect 13 3 12 0;
#X connect 14 0 15 0;
#X connect 16 0 15 0;
#X connect 17 0 19 0;
#X connect 18 0 19 1;
#X connect 19 0 18 0;
#X connect 19 0 21 1;
#X connect 20 0 18 1;
#X connect 20 0 19 1;
#X connect 21 0 22 0;
#X connect 22 0 31 0;
#X connect 22 1 24 0;
#X connect 22 2 23 1;
#X connect 23 0 25 0;
#X connect 24 0 23 0;
#X connect 25 0 27 0;
#X connect 25 1 29 0;
#X connect 26 0 32 0;
#X connect 27 0 26 0;
#X connect 28 1 17 0;
#X connect 28 2 17 1;
#X connect 29 0 26 1;
#X connect 30 0 34 0;
#X connect 33 0 6 1;
#X connect 33 1 1 0;
#X connect 34 0 21 0;
#X connect 34 1 35 0;
#X connect 34 2 20 0;
#X connect 35 0 28 0;
