#N canvas 566 316 769 589 12;
#X obj 37 12 notein 4;
#X obj 58 140 timer;
#X obj 90 52 sel 0;
#X obj 122 85 bang;
#X obj 114 140 timer;
#X msg 193 52 set;
#X msg 19 330 add2 \$1;
#X obj 19 52 f;
#X msg 246 52 124;
#X obj 246 12 loadbang;
#X obj 246 85 expr (60000 / $i1);
#X obj 58 184 /;
#X obj 114 184 /;
#X obj 193 265 f;
#X obj 58 225 t f b b b;
#X msg 98 265 addcomma;
#X msg 98 381;
#X connect 0 0 7 1;
#X connect 0 1 2 0;
#X connect 1 0 11 0;
#X connect 2 0 1 1;
#X connect 2 0 4 0;
#X connect 2 1 3 0;
#X connect 3 0 1 0;
#X connect 3 0 4 1;
#X connect 4 0 12 0;
#X connect 5 0 16 0;
#X connect 6 0 16 0;
#X connect 7 0 6 0;
#X connect 8 0 10 0;
#X connect 9 0 8 0;
#X connect 9 0 5 0;
#X connect 10 0 11 1;
#X connect 10 0 12 1;
#X connect 11 0 14 0;
#X connect 12 0 13 1;
#X connect 13 0 6 0;
#X connect 14 0 6 0;
#X connect 14 1 7 0;
#X connect 14 2 15 0;
#X connect 14 3 13 0;
#X connect 15 0 16 0;
