#N canvas 852 142 523 548 12;
#X obj 102 163 expr if (($f1 == $f3) && ($f2 == $f4) \, 1 \, 0);
#X obj 305 11 inlet;
#X obj 407 11 inlet;
#X obj 80 489 outlet;
#X obj 195 11 inlet;
#X obj 102 130 spigot;
#X obj 203 130 spigot;
#X obj 7 156 spigot;
#X text 206 35 spigot;
#X obj 7 11 notein;
#X text 312 35 want-note;
#X text 414 35 want-chan;
#X text 77 512 note vel;
#X obj 10 241 f;
#X obj 10 207 sel 1;
#X obj 161 489 outlet;
#X text 162 512 gate;
#X obj 161 340 > 0;
#X obj 301 489 outlet;
#X text 300 512 off;
#X obj 234 489 outlet;
#X text 237 512 on;
#X obj 301 465 bang;
#X obj 161 368 t f f;
#X obj 234 419 sel 1;
#X obj 12 489 outlet;
#X text 9 512 note;
#X obj 12 414 f;
#X obj 10 266 t b f f;
#X obj 7 70 t f f b;
#X connect 0 0 14 0;
#X connect 1 0 0 2;
#X connect 2 0 0 3;
#X connect 4 0 6 1;
#X connect 4 0 5 1;
#X connect 4 0 7 1;
#X connect 5 0 0 0;
#X connect 6 0 0 1;
#X connect 7 0 13 1;
#X connect 9 0 29 0;
#X connect 9 1 7 0;
#X connect 9 2 6 0;
#X connect 13 0 28 0;
#X connect 14 0 13 0;
#X connect 17 0 23 0;
#X connect 22 0 18 0;
#X connect 23 0 15 0;
#X connect 23 1 24 0;
#X connect 24 0 20 0;
#X connect 24 1 22 0;
#X connect 27 0 25 0;
#X connect 28 0 27 0;
#X connect 28 1 17 0;
#X connect 28 2 3 0;
#X connect 29 0 5 0;
#X connect 29 1 27 1;
