#N canvas 262 225 800 338 12;
#X obj 23 103 note-filter;
#X obj 93 11 inlet;
#X obj 323 11 inlet;
#X obj 23 11 inlet;
#X text 29 35 spigot;
#X text 93 35 in-note;
#X text 324 35 in-chan;
#X obj 159 11 inlet;
#X obj 381 11 inlet;
#X text 159 35 out-cc;
#X text 388 35 out-chan;
#X obj 216 11 inlet;
#X text 221 35 cc-on/cc-off;
#X obj 216 105 unpack 0 0;
#X obj 23 205 f;
#X obj 63 205 f;
#X obj 23 138 sel 0;
#X obj 55 173 bang;
#X obj 23 280 ctlout;
#X connect 0 1 16 0;
#X connect 1 0 0 1;
#X connect 2 0 0 2;
#X connect 3 0 0 0;
#X connect 7 0 18 1;
#X connect 8 0 18 2;
#X connect 11 0 13 0;
#X connect 13 0 15 1;
#X connect 13 1 14 1;
#X connect 14 0 18 0;
#X connect 15 0 18 0;
#X connect 16 0 14 0;
#X connect 16 1 17 0;
#X connect 17 0 15 0;
