#N canvas 763 212 438 239 12;
#X obj 159 191 noteout;
#X obj 100 90 ../controller/note-filter;
#X obj 11 8 inlet;
#X text 29 28 spigot;
#X obj 94 8 inlet;
#X obj 100 132 f 63;
#X obj 186 8 inlet;
#X obj 272 8 inlet;
#X obj 358 8 inlet;
#X text 104 28 note-in;
#X text 205 28 note-out;
#X text 282 28 #-in;
#X text 359 28 #-out;
#X msg 320 137 15;
#X obj 35 184 print h;
#X connect 1 0 5 0;
#X connect 1 0 14 0;
#X connect 1 1 0 1;
#X connect 1 1 14 0;
#X connect 2 0 1 0;
#X connect 4 0 1 1;
#X connect 5 0 0 0;
#X connect 6 0 5 1;
#X connect 7 0 1 2;
#X connect 8 0 0 2;
#X connect 13 0 0 2;
