#N canvas 940 368 578 379 12;
#X obj 102 163 expr if (($f1 == $f3) && ($f2 == $f4) \, 1 \, 0);
#X obj 305 11 inlet;
#X obj 407 11 inlet;
#X obj 10 281 outlet;
#X obj 195 11 inlet;
#X obj 102 130 spigot;
#X obj 203 130 spigot;
#X obj 7 156 spigot;
#X text 206 35 spigot;
#X obj 7 11 notein;
#X text 312 35 want-note;
#X text 414 35 want-chan;
#X text 66 280 note vel;
#X obj 10 241 f;
#X obj 10 207 sel 1;
#X connect 0 0 14 0;
#X connect 1 0 0 2;
#X connect 2 0 0 3;
#X connect 4 0 6 1;
#X connect 4 0 5 1;
#X connect 4 0 7 1;
#X connect 5 0 0 0;
#X connect 6 0 0 1;
#X connect 7 0 13 1;
#X connect 9 0 5 0;
#X connect 9 1 7 0;
#X connect 9 2 6 0;
#X connect 13 0 3 0;
#X connect 14 0 13 0;
