#N canvas 481 295 884 648 12;
#X obj 38 17 key;
#X obj 242 201 f;
#X obj 292 201 + 1;
#X msg 260 171 0;
#X obj 242 229 mod 2;
#X obj 266 356 spigot 0;
#X obj 242 255 t f f;
#X msg 203 325 1;
#X obj 189 357 spigot 1;
#X obj 125 114 t f f b;
#X obj 242 283 == 0;
#X msg 155 463 set \$1;
#X msg 98 463 set;
#X msg 241 515 48 8;
#X msg 298 463 add2 \$1;
#X obj 266 388 t b f;
#X obj 298 420 - 48;
#X obj 38 114 t b b b b;
#X obj 38 54 moses 48;
#X obj 38 83 sel 10;
#X obj 241 548 outlet;
#X msg 280 326 0;
#X obj 203 17 r reset;
#X obj 337 548 s enc-val;
#X obj 580 319 print;
#X obj 544 70 47 42 45;
#X obj 125 54 moses 58;
#X connect 0 0 18 0;
#X connect 0 0 24 0;
#X connect 1 0 4 0;
#X connect 1 0 2 0;
#X connect 2 0 1 1;
#X connect 3 0 1 1;
#X connect 4 0 6 0;
#X connect 5 0 15 0;
#X connect 6 0 10 0;
#X connect 6 1 5 1;
#X connect 7 0 8 1;
#X connect 8 0 11 0;
#X connect 9 0 8 0;
#X connect 9 1 5 0;
#X connect 9 2 1 0;
#X connect 10 0 8 1;
#X connect 11 0 13 0;
#X connect 12 0 13 0;
#X connect 13 0 20 0;
#X connect 14 0 13 0;
#X connect 15 0 13 0;
#X connect 15 1 16 0;
#X connect 16 0 14 0;
#X connect 16 0 23 0;
#X connect 17 0 7 0;
#X connect 17 1 21 0;
#X connect 17 2 3 0;
#X connect 17 3 12 0;
#X connect 18 0 19 0;
#X connect 18 1 26 0;
#X connect 19 0 17 0;
#X connect 21 0 5 1;
#X connect 22 0 3 0;
#X connect 22 0 21 0;
#X connect 22 0 7 0;
#X connect 22 0 12 0;
#X connect 26 0 9 0;
