#N canvas 400 485 581 337 12;
#X obj 193 8 inlet;
#X text 193 27 ch-in;
#X obj 245 8 inlet;
#X text 245 27 ch-out;
#X obj 25 267 ctlout;
#X obj 25 206 rel-enc;
#X obj 321 8 inlet;
#X text 324 27 initial \, lower \, higher;
#X obj 80 8 inlet;
#X obj 25 8 inlet;
#X text 29 27 spigot;
#X text 81 27 ctl in/out;
#X obj 80 58 unpack 0 0;
#X obj 498 8 inlet;
#X text 498 27 higher;
#X connect 0 0 5 2;
#X connect 2 0 4 2;
#X connect 5 0 4 0;
#X connect 6 0 5 3;
#X connect 8 0 12 0;
#X connect 9 0 5 0;
#X connect 12 0 5 1;
#X connect 12 1 4 1;
#X connect 13 0 5 4;
