#N canvas 946 226 614 529 12;
#X obj 29 12 ctlin;
#X obj 144 12 inlet;
#X obj 29 315 f;
#X obj 68 130 spigot;
#X obj 107 101 ==;
#X obj 68 160 ==;
#X obj 29 191 spigot;
#X obj 234 314 sel 1;
#X obj 289 314 sel 1;
#X obj 332 12 inlet;
#X obj 82 12 inlet;
#X obj 200 12 inlet;
#X text 200 31 channel;
#X text 86 31 spigot;
#X obj 29 101 spigot 0;
#X obj 29 420 outlet;
#X text 335 31 initial \, lower \, higher;
#X obj 332 57 unpack 0 0 0;
#X obj 66 315 + 1;
#X obj 61 243 moses 64;
#X msg 61 268 -1;
#X msg 114 268 1;
#X obj 29 213 t b f;
#X obj 289 348 f;
#X obj 29 369 clip;
#X obj 289 283 >;
#X obj 234 283 <;
#X obj 426 86 t f f f;
#X obj 234 345 f;
#X obj 367 86 t f f f;
#X text 145 31 ctl;
#X connect 0 0 14 0;
#X connect 0 1 3 0;
#X connect 0 2 4 0;
#X connect 1 0 5 1;
#X connect 2 0 18 0;
#X connect 2 0 24 0;
#X connect 2 0 25 0;
#X connect 2 0 26 0;
#X connect 3 0 5 0;
#X connect 4 0 3 1;
#X connect 5 0 6 1;
#X connect 6 0 22 0;
#X connect 7 0 28 0;
#X connect 8 0 23 0;
#X connect 9 0 17 0;
#X connect 10 0 14 1;
#X connect 11 0 4 1;
#X connect 14 0 6 0;
#X connect 17 0 2 1;
#X connect 17 1 29 0;
#X connect 17 2 27 0;
#X connect 18 0 2 1;
#X connect 19 0 20 0;
#X connect 19 1 21 0;
#X connect 20 0 18 1;
#X connect 21 0 18 1;
#X connect 22 0 2 0;
#X connect 22 1 19 0;
#X connect 23 0 2 1;
#X connect 24 0 15 0;
#X connect 25 0 8 0;
#X connect 26 0 7 0;
#X connect 27 0 25 1;
#X connect 27 1 24 2;
#X connect 27 2 23 1;
#X connect 28 0 2 1;
#X connect 29 0 26 1;
#X connect 29 1 24 1;
#X connect 29 2 28 1;
