#N canvas 88 44 1213 591 12;
#X obj 89 9 inlet;
#X obj 27 431 f;
#X obj 232 430 sel 1;
#X obj 287 430 sel 1;
#X obj 332 9 inlet;
#X obj 27 9 inlet;
#X obj 145 9 inlet;
#X text 145 32 channel;
#X text 31 32 spigot;
#X obj 27 536 outlet;
#X obj 332 54 unpack 0 0 0;
#X obj 60 432 + 1;
#X obj 50 359 moses 64;
#X obj 287 464 f;
#X obj 27 485 clip;
#X obj 287 399 >;
#X obj 232 399 <;
#X obj 426 86 t f f f;
#X obj 232 461 f;
#X obj 367 86 t f f f;
#X text 91 32 ctl;
#X obj 27 115 cc-filter;
#X obj 507 9 inlet;
#X text 76 535 value;
#X obj 259 536 outlet;
#X text 310 535 cc;
#X obj 27 329 t b f b;
#X obj 259 510 f;
#X obj 595 9 inlet;
#X text 610 32 direction: 0-up 1-dn;
#X obj 595 57 sel 0 1;
#X text 509 32 end;
#X text 338 32 initial/lower/higher;
#X obj 835 9 inlet;
#X text 851 32 step size;
#X floatatom 587 197 3 0 0 0 - - - 0;
#X floatatom 555 197 3 0 0 0 - - - 0;
#X obj 875 114 -;
#X msg 875 89 0;
#X msg 426 269 set \$1;
#X msg 483 269 set \$1;
#X msg 702 57 0;
#X obj 835 57 t b f b f;
#X obj 595 81 t b b;
#X obj 579 159 t f f;
#X obj 628 159 t f f;
#X floatatom 670 197 3 0 0 0 - - - 0;
#X floatatom 638 197 3 0 0 0 - - - 0;
#X obj 640 81 t b b;
#X msg 50 384 -2;
#X msg 103 384 2;
#X obj 971 9 loadbang;
#X msg 971 33 1;
#X obj 1071 9 inlet;
#X text 1087 32 set value;
#X obj 89 54 t b f f;
#X obj 27 510 change -1;
#X connect 0 0 55 0;
#X connect 1 0 11 0;
#X connect 1 0 14 0;
#X connect 1 0 15 0;
#X connect 1 0 16 0;
#X connect 2 0 18 0;
#X connect 3 0 13 0;
#X connect 4 0 10 0;
#X connect 5 0 21 0;
#X connect 6 0 21 2;
#X connect 10 0 1 1;
#X connect 10 1 19 0;
#X connect 10 2 17 0;
#X connect 11 0 1 1;
#X connect 12 0 49 0;
#X connect 12 1 50 0;
#X connect 13 0 1 1;
#X connect 14 0 56 0;
#X connect 15 0 3 0;
#X connect 16 0 2 0;
#X connect 17 0 15 1;
#X connect 17 1 14 2;
#X connect 17 2 13 1;
#X connect 18 0 1 1;
#X connect 19 0 16 1;
#X connect 19 1 14 1;
#X connect 19 2 18 1;
#X connect 21 0 26 0;
#X connect 22 0 17 0;
#X connect 26 0 1 0;
#X connect 26 1 12 0;
#X connect 26 2 27 0;
#X connect 27 0 24 0;
#X connect 28 0 30 0;
#X connect 30 0 43 0;
#X connect 30 1 48 0;
#X connect 33 0 42 0;
#X connect 35 0 40 0;
#X connect 36 0 39 0;
#X connect 37 0 44 0;
#X connect 38 0 37 0;
#X connect 39 0 49 0;
#X connect 40 0 50 0;
#X connect 41 0 30 0;
#X connect 42 0 41 0;
#X connect 42 1 45 0;
#X connect 42 2 38 0;
#X connect 42 3 37 1;
#X connect 43 0 36 0;
#X connect 43 1 35 0;
#X connect 44 0 36 0;
#X connect 44 1 46 0;
#X connect 45 0 35 0;
#X connect 45 1 47 0;
#X connect 46 0 40 0;
#X connect 47 0 39 0;
#X connect 48 0 47 0;
#X connect 48 1 46 0;
#X connect 49 0 11 1;
#X connect 50 0 11 1;
#X connect 51 0 52 0;
#X connect 52 0 42 0;
#X connect 53 0 1 0;
#X connect 55 0 1 0;
#X connect 55 1 21 1;
#X connect 55 2 27 1;
#X connect 56 0 9 0;
