#N canvas 507 426 974 404 12;
#X obj 193 8 inlet;
#X text 193 27 ch-in;
#X obj 245 8 inlet;
#X text 245 27 ch-out;
#X obj 25 319 ctlout;
#X obj 25 206 rel-enc;
#X obj 321 8 inlet;
#X obj 80 8 inlet;
#X obj 25 8 inlet;
#X text 29 27 spigot;
#X text 81 27 ctl in/out;
#X obj 80 58 unpack 0 0;
#X obj 580 8 inlet;
#X text 580 27 higher;
#X obj 491 8 inlet;
#X obj 491 58 unpack 0 0;
#X obj 25 250 clip 0 127;
#X obj 147 252 f;
#X text 182 253 initial set / reset;
#X obj 147 110 t b f;
#X obj 658 8 inlet;
#X msg 658 58 0;
#X obj 147 215 spigot 1;
#X text 668 27 don't init;
#X text 497 27 end;
#X obj 759 8 inlet;
#X text 774 27 direction: 0-up 1-dn;
#X text 323 27 initial/lower/higher;
#X connect 0 0 5 2;
#X connect 2 0 4 2;
#X connect 5 0 16 0;
#X connect 5 0 17 1;
#X connect 6 0 5 3;
#X connect 7 0 11 0;
#X connect 8 0 5 0;
#X connect 11 0 5 1;
#X connect 11 1 19 0;
#X connect 12 0 5 4;
#X connect 14 0 15 0;
#X connect 15 0 16 1;
#X connect 15 1 16 2;
#X connect 16 0 4 0;
#X connect 17 0 4 0;
#X connect 19 0 22 0;
#X connect 19 1 4 1;
#X connect 20 0 21 0;
#X connect 21 0 22 1;
#X connect 22 0 17 0;
#X connect 25 0 5 5;
