#N canvas 309 248 802 569 12;
#X obj 89 9 inlet;
#X obj 27 242 f;
#X obj 232 241 sel 1;
#X obj 287 241 sel 1;
#X obj 332 9 inlet;
#X obj 27 9 inlet;
#X obj 145 9 inlet;
#X text 145 32 channel;
#X text 31 32 spigot;
#X obj 27 347 outlet;
#X obj 332 57 unpack 0 0 0;
#X obj 64 242 + 1;
#X obj 50 170 moses 64;
#X msg 50 195 -1;
#X msg 103 195 1;
#X obj 287 275 f;
#X obj 27 296 clip;
#X obj 287 210 >;
#X obj 232 210 <;
#X obj 426 86 t f f f;
#X obj 232 272 f;
#X obj 367 86 t f f f;
#X text 90 32 ctl;
#X obj 27 73 cc-filter;
#X obj 507 9 inlet;
#X obj 27 321 change;
#X text 76 347 value;
#X obj 259 347 outlet;
#X text 310 346 cc;
#X obj 27 140 t b f b;
#X obj 259 321 f;
#X obj 595 9 inlet;
#X text 610 32 direction: 0-up 1-dn;
#X obj 595 55 sel 0 1;
#X msg 565 86 set -1;
#X msg 622 86 set 1;
#X msg 620 118 set 1;
#X msg 670 118 set -1;
#X text 509 32 end;
#X text 338 32 initial/lower/higher;
#X connect 0 0 23 1;
#X connect 0 0 30 1;
#X connect 1 0 11 0;
#X connect 1 0 16 0;
#X connect 1 0 17 0;
#X connect 1 0 18 0;
#X connect 2 0 20 0;
#X connect 3 0 15 0;
#X connect 4 0 10 0;
#X connect 5 0 23 0;
#X connect 6 0 23 2;
#X connect 10 0 1 1;
#X connect 10 1 21 0;
#X connect 10 2 19 0;
#X connect 11 0 1 1;
#X connect 12 0 13 0;
#X connect 12 1 14 0;
#X connect 13 0 11 1;
#X connect 14 0 11 1;
#X connect 15 0 1 1;
#X connect 16 0 25 0;
#X connect 17 0 3 0;
#X connect 18 0 2 0;
#X connect 19 0 17 1;
#X connect 19 1 16 2;
#X connect 19 2 15 1;
#X connect 20 0 1 1;
#X connect 21 0 18 1;
#X connect 21 1 16 1;
#X connect 21 2 20 1;
#X connect 23 0 29 0;
#X connect 24 0 19 0;
#X connect 25 0 9 0;
#X connect 29 0 1 0;
#X connect 29 1 12 0;
#X connect 29 2 30 0;
#X connect 30 0 27 0;
#X connect 31 0 33 0;
#X connect 33 0 34 0;
#X connect 33 0 35 0;
#X connect 33 1 36 0;
#X connect 33 1 37 0;
#X connect 34 0 13 0;
#X connect 35 0 14 0;
#X connect 36 0 13 0;
#X connect 37 0 14 0;
