#N canvas 825 458 1056 404 12;
#X obj 275 8 inlet;
#X text 275 27 ch-in;
#X obj 327 8 inlet;
#X text 327 27 ch-out;
#X obj 25 206 rel-enc;
#X obj 411 8 inlet;
#X text 414 27 initial \, lower \, higher;
#X obj 115 8 inlet;
#X obj 25 8 inlet;
#X text 29 27 spigot;
#X obj 670 8 inlet;
#X text 670 27 higher;
#X obj 581 8 inlet;
#X text 586 27 clip;
#X obj 581 61 unpack 0 0;
#X obj 25 250 clip 0 127;
#X obj 25 292 ../common/nrpn;
#X text 116 27 ctl in;
#X obj 173 8 inlet;
#X text 173 27 nrpn-out;
#X obj 411 51 unpack 0 0 0;
#X connect 0 0 4 2;
#X connect 2 0 16 2;
#X connect 4 0 15 0;
#X connect 5 0 4 3;
#X connect 5 0 20 0;
#X connect 7 0 4 1;
#X connect 8 0 4 0;
#X connect 10 0 4 4;
#X connect 12 0 14 0;
#X connect 14 0 15 1;
#X connect 14 1 15 2;
#X connect 15 0 16 0;
#X connect 18 0 16 1;
#X connect 20 0 15 0;
