#N canvas 137 305 205 178 10;
#X obj 80 13 inlet;
#X obj 29 13 inlet;
#X msg 89 37 -1;
#X obj 80 92 outlet;
#X obj 29 61 select -1;
#X connect 0 0 4 1;
#X connect 1 0 4 0;
#X connect 2 0 4 1;
#X connect 4 0 2 0;
#X connect 4 1 3 0;
