#N canvas 832 606 280 219 12;
#X obj 40 76 skip;
#X obj 40 111 skip;
#X obj 40 146 outlet;
#X obj 99 13 inlet;
#X obj 40 13 inlet;
#X obj 99 38 unpack 0 0;
#X connect 0 0 1 0;
#X connect 1 0 2 0;
#X connect 3 0 5 0;
#X connect 4 0 0 0;
#X connect 5 0 0 1;
#X connect 5 1 1 1;
