#N canvas 577 518 852 499 10;
#X obj 24 12 inlet;
#X obj 73 11 inlet;
#X obj 74 284 outlet;
#X obj 74 224 f;
#X obj 74 158 expr ($i1 == 0) && ($i2 == 1);
#X msg 50 96 1;
#X msg 20 96 0;
#X obj 74 252 t f b b;
#X obj 74 184 sel 1;
#X text 263 157 don't send triggers if subpart was not changed;
#X obj 24 43 encoder-val;
#X connect 0 0 10 0;
#X connect 1 0 4 0;
#X connect 3 0 7 0;
#X connect 4 0 8 0;
#X connect 5 0 4 1;
#X connect 6 0 4 1;
#X connect 7 0 2 0;
#X connect 7 2 6 0;
#X connect 8 0 3 0;
#X connect 10 0 3 1;
#X connect 10 0 5 0;
