#N canvas 671 318 852 499 10;
#X obj 24 12 inlet;
#X obj 74 12 inlet;
#X obj 74 375 outlet;
#X obj 24 113 encoder-val;
#X text 112 11 listen;
#X obj 199 12 inlet;
#X text 235 12 conf;
#X obj 24 75 spigot 0;
#X obj 261 375 outlet;
#X text 121 374 in-pattern;
#X text 303 374 controller-level;
#X obj 261 348 change;
#X obj 74 348 change;
#X obj 438 331 print thing;
#X obj 581 375 s enc-val;
#X msg 190 81 0;
#X connect 0 0 7 0;
#X connect 1 0 7 1;
#X connect 3 0 11 0;
#X connect 3 0 12 0;
#X connect 3 0 14 0;
#X connect 5 0 3 0;
#X connect 7 0 3 0;
#X connect 11 0 8 0;
#X connect 12 0 2 0;
#X connect 12 0 13 0;
#X connect 15 0 7 1;
