#N canvas 696 518 852 499 10;
#X obj 24 12 inlet;
#X obj 74 12 inlet;
#X obj 74 375 outlet;
#X obj 74 294 f;
#X obj 74 228 expr ($i1 == 0) && ($i2 == 1);
#X msg 50 166 1;
#X msg 20 166 0;
#X obj 74 322 t f b b;
#X obj 74 261 sel 1;
#X obj 24 113 encoder-val;
#X text 263 227 decide if subpart was changed;
#X obj 74 39 t f f;
#X text 112 11 listen;
#X obj 199 12 inlet;
#X text 235 12 conf;
#X obj 24 75 spigot 0;
#X obj 261 375 outlet;
#X text 121 374 in-pattern;
#X text 303 374 controller-level;
#X obj 261 348 change;
#X obj 74 348 change;
#X connect 0 0 15 0;
#X connect 1 0 11 0;
#X connect 3 0 7 0;
#X connect 4 0 8 0;
#X connect 5 0 4 1;
#X connect 6 0 4 1;
#X connect 7 0 20 0;
#X connect 7 2 6 0;
#X connect 8 0 3 0;
#X connect 9 0 3 1;
#X connect 9 0 5 0;
#X connect 9 0 19 0;
#X connect 11 0 4 0;
#X connect 11 1 15 1;
#X connect 13 0 9 0;
#X connect 15 0 9 0;
#X connect 19 0 16 0;
#X connect 20 0 2 0;
