#N canvas 577 518 852 499 10;
#X obj 24 12 inlet;
#X obj 74 12 inlet;
#X obj 74 284 outlet;
#X obj 74 224 f;
#X obj 74 158 expr ($i1 == 0) && ($i2 == 1);
#X msg 50 96 1;
#X msg 20 96 0;
#X obj 74 252 t f b b;
#X obj 74 191 sel 1;
#X obj 24 43 encoder-val;
#X text 123 12 listen value;
#X text 263 157 decide if subpart was changed;
#X connect 0 0 9 0;
#X connect 1 0 4 0;
#X connect 3 0 7 0;
#X connect 4 0 8 0;
#X connect 5 0 4 1;
#X connect 6 0 4 1;
#X connect 7 0 2 0;
#X connect 7 2 6 0;
#X connect 8 0 3 0;
#X connect 9 0 3 1;
#X connect 9 0 5 0;
