#N canvas 79 146 900 675 12;
#X msg 140 116 1;
#X obj 41 12 inlet;
#X msg 181 116 0;
#X msg 140 147 \$1;
#X obj 41 80 t b b b b;
#X obj 185 81 t b b b;
#X obj 117 80 t b b b;
#X obj 41 47 ../../common/step-seq-sel-3 \$0;
#X obj 101 178 spigot;
#X obj 118 326 ../../ambika/multi;
#X obj 101 210 t b b b b b b;
#X obj 153 410 ../../zoom/program;
#X msg 153 385 47;
#X obj 101 269 ../../pulse/pc;
#X msg 118 301 0 3;
#X msg 101 237 416;
#X connect 0 0 3 0;
#X connect 1 0 7 0;
#X connect 2 0 3 0;
#X connect 3 0 8 1;
#X connect 4 0 8 0;
#X connect 5 1 2 0;
#X connect 6 0 8 0;
#X connect 6 1 0 0;
#X connect 7 0 4 0;
#X connect 7 1 6 0;
#X connect 7 2 5 0;
#X connect 8 0 10 0;
#X connect 10 0 15 0;
#X connect 10 1 14 0;
#X connect 10 3 12 0;
#X connect 12 0 11 0;
#X connect 14 0 9 0;
#X connect 15 0 13 0;
