#N canvas 159 282 1414 500 12;
#X text 54 213 cutoff;
#X obj 11 8 inlet;
#X text 53 7 spigot;
#X obj 122 8 inlet;
#X text 164 7 arm;
#X text 334 213 res;
#X text 589 213 drive;
#X obj 105 162 r beat-#;
#X obj 55 190 ../../../controller/rel-enc-xlate;
#X obj 57 128 t b b;
#X obj 176 162 r pulse-#;
#X obj 383 162 r beat-#;
#X obj 333 190 ../../../controller/rel-enc-xlate;
#X obj 335 128 t b b;
#X obj 454 162 r pulse-#;
#X obj 638 162 r beat-#;
#X obj 588 190 ../../../controller/rel-enc-xlate;
#X obj 709 162 r pulse-#;
#X msg 57 162 21 50;
#X msg 590 162 21 76;
#X msg 526 162 0 0 7;
#X msg 335 162 21 56;
#X obj 947 162 r beat-#;
#X obj 897 190 ../../../controller/rel-enc-xlate;
#X obj 1018 162 r pulse-#;
#X text 898 213 volume;
#X msg 1167 162 2;
#X msg 845 162 2;
#X obj 899 128 t b b b;
#X obj 590 128 t b b b;
#X msg 781 162 0 0 127;
#X msg 1090 162 52 52 100;
#X msg 899 162 21 57;
#X msg 248 162 27 27 67;
#X obj 104 323 r beat-#;
#X obj 54 351 ../../../controller/rel-enc-xlate;
#X msg 247 323 0 0 50;
#X obj 56 289 t b b;
#X obj 175 323 r tr-pr-#;
#X msg 56 323 21 33;
#X obj 122 34 t b b b b b;
#X obj 11 34 t f f f f f;
#X text 55 374 reverb;
#X connect 1 0 41 0;
#X connect 3 0 40 0;
#X connect 7 0 8 2;
#X connect 9 0 18 0;
#X connect 9 1 33 0;
#X connect 10 0 8 3;
#X connect 11 0 12 2;
#X connect 13 0 21 0;
#X connect 13 1 20 0;
#X connect 14 0 12 3;
#X connect 15 0 16 2;
#X connect 17 0 16 3;
#X connect 18 0 8 1;
#X connect 19 0 16 1;
#X connect 20 0 12 4;
#X connect 21 0 12 1;
#X connect 22 0 23 2;
#X connect 24 0 23 3;
#X connect 26 0 23 8;
#X connect 27 0 16 8;
#X connect 28 0 32 0;
#X connect 28 1 31 0;
#X connect 28 2 26 0;
#X connect 29 0 19 0;
#X connect 29 1 30 0;
#X connect 29 2 27 0;
#X connect 30 0 16 4;
#X connect 31 0 23 4;
#X connect 32 0 23 1;
#X connect 33 0 8 4;
#X connect 34 0 35 2;
#X connect 36 0 35 4;
#X connect 37 0 39 0;
#X connect 37 1 36 0;
#X connect 38 0 35 3;
#X connect 39 0 35 1;
#X connect 40 0 9 0;
#X connect 40 1 13 0;
#X connect 40 2 29 0;
#X connect 40 3 28 0;
#X connect 40 4 37 0;
#X connect 41 0 8 0;
#X connect 41 1 12 0;
#X connect 41 2 16 0;
#X connect 41 3 23 0;
#X connect 41 4 35 0;
