#N canvas 155 185 1414 648 12;
#X text 54 213 cutoff;
#X obj 11 8 inlet;
#X text 53 7 spigot;
#X obj 230 8 inlet;
#X text 272 7 arm;
#X text 334 213 res;
#X text 589 213 drive;
#X obj 105 162 r beat-#;
#X obj 55 190 ../../../controller/rel-enc-xlate;
#X obj 57 128 t b b;
#X obj 176 162 r pulse-#;
#X obj 383 162 r beat-#;
#X obj 333 190 ../../../controller/rel-enc-xlate;
#X obj 335 128 t b b;
#X obj 454 162 r pulse-#;
#X obj 638 162 r beat-#;
#X obj 588 190 ../../../controller/rel-enc-xlate;
#X obj 709 162 r pulse-#;
#X msg 57 162 21 50;
#X msg 590 162 21 76;
#X msg 526 162 0 0 7;
#X msg 335 162 21 56;
#X obj 947 162 r beat-#;
#X obj 897 190 ../../../controller/rel-enc-xlate;
#X obj 1018 162 r pulse-#;
#X text 898 213 volume;
#X obj 899 128 t b b b;
#X obj 590 128 t b b b;
#X msg 781 162 0 0 127;
#X msg 1090 162 52 52 100;
#X msg 899 162 21 57;
#X msg 248 162 27 27 67;
#X obj 96 489 r beat-#;
#X obj 46 517 ../../../controller/rel-enc-xlate;
#X msg 239 489 0 0 50;
#X obj 48 455 t b b;
#X obj 167 489 r tr-pr-#;
#X msg 48 489 21 33;
#X text 47 540 reverb;
#X obj 101 287 r beat-#;
#X obj 51 315 ../../../controller/rel-enc-xlate;
#X obj 172 287 r pulse-#;
#X obj 410 287 r beat-#;
#X obj 360 315 ../../../controller/rel-enc-xlate;
#X obj 481 287 r pulse-#;
#X obj 362 253 t b b b;
#X obj 53 253 t b b b;
#X msg 244 287 51 51 127;
#X msg 553 287 14 14 127;
#X text 52 338 env f - decay;
#X text 361 338 env f - sustain;
#X obj 11 34 t f f f f f f f;
#X obj 230 34 t b b b b b b b;
#X msg 53 287 21 15;
#X msg 362 287 21 16;
#X msg 845 162 1;
#X msg 1167 162 1;
#X msg 321 287 1;
#X msg 630 287 1;
#X connect 1 0 51 0;
#X connect 3 0 52 0;
#X connect 7 0 8 2;
#X connect 9 0 18 0;
#X connect 9 1 31 0;
#X connect 10 0 8 3;
#X connect 11 0 12 2;
#X connect 13 0 21 0;
#X connect 13 1 20 0;
#X connect 14 0 12 3;
#X connect 15 0 16 2;
#X connect 17 0 16 3;
#X connect 18 0 8 1;
#X connect 19 0 16 1;
#X connect 20 0 12 4;
#X connect 21 0 12 1;
#X connect 22 0 23 2;
#X connect 24 0 23 3;
#X connect 26 0 30 0;
#X connect 26 1 29 0;
#X connect 26 2 56 0;
#X connect 27 0 19 0;
#X connect 27 1 28 0;
#X connect 27 2 55 0;
#X connect 28 0 16 4;
#X connect 29 0 23 4;
#X connect 30 0 23 1;
#X connect 31 0 8 4;
#X connect 32 0 33 2;
#X connect 34 0 33 4;
#X connect 35 0 37 0;
#X connect 35 1 34 0;
#X connect 36 0 33 3;
#X connect 37 0 33 1;
#X connect 39 0 40 2;
#X connect 41 0 40 3;
#X connect 42 0 43 2;
#X connect 44 0 43 3;
#X connect 45 0 54 0;
#X connect 45 1 48 0;
#X connect 45 2 58 0;
#X connect 46 0 53 0;
#X connect 46 1 47 0;
#X connect 46 2 57 0;
#X connect 47 0 40 4;
#X connect 48 0 43 4;
#X connect 51 0 8 0;
#X connect 51 1 12 0;
#X connect 51 2 16 0;
#X connect 51 3 23 0;
#X connect 51 4 40 0;
#X connect 51 5 43 0;
#X connect 51 6 33 0;
#X connect 52 0 9 0;
#X connect 52 1 13 0;
#X connect 52 2 27 0;
#X connect 52 3 26 0;
#X connect 52 4 46 0;
#X connect 52 5 45 0;
#X connect 52 6 35 0;
#X connect 53 0 40 1;
#X connect 54 0 43 1;
#X connect 55 0 16 8;
#X connect 56 0 23 8;
#X connect 57 0 40 8;
#X connect 58 0 43 8;
