#N canvas 343 231 1137 782 10;
#X msg 28 74 play \$1;
#X obj 28 15 inlet;
#X obj 906 15 r ea-2-#;
#X msg 145 166 ch \$1;
#X obj 145 143 f;
#X msg 178 383 reset;
#X msg 171 493 play 0;
#X msg 38 166 nlb 1;
#X msg 81 166 offset 0;
#X obj 28 40 route play arm listen;
#X obj 201 74 t f f;
#X obj 265 15 r tick;
#X msg 265 573 play 1;
#X obj 265 546 spigot 0;
#X msg 310 506 0;
#X msg 347 505 1;
#X obj 455 220 sel 0;
#X obj 455 247 t b b;
#X obj 102 15 r reset;
#X obj 310 463 select 0;
#X msg 677 573 play 1;
#X msg 633 384 1;
#X msg 665 384 0;
#X msg 702 384 size 16 \, -1 -1 33 -1 -1 -1 33 -1 -1 -1 33 -1 33 33
-1 33, f 17;
#X msg 541 573 play 0;
#X obj 605 282 t b b b b b b b;
#X obj 524 15 r tick-16;
#X msg 494 329 33 0.952475 0.047525 \, -1, f 13;
#X obj 494 248 sel 1 2 3 4 5;
#X msg 231 491 offset \$1;
#X msg 231 418 3;
#X msg 272 418 0;
#X msg 822 384 0.2;
#X obj 102 74 t b b b b b b;
#X obj 978 586 f;
#X obj 913 586 f;
#X msg 978 615 3 13 \$1;
#X obj 455 104 spigot 0;
#X obj 852 586 f;
#X obj 455 15 r enc-3;
#X msg 913 615 8 12 \$1;
#X obj 494 282 t b b b b b b;
#X obj 998 423 bng 15 250 50 0 empty empty empty 17 7 0 10 -262144
-1 -1;
#X msg 852 615 7.5 7 \$1;
#X obj 524 417 ../../../common/queued-open;
#X obj 913 647 ../../../electribe/encoder-set;
#X obj 586 647 ../../../common/step-seq-player \$0;
#X obj 28 647 ../../../electribe/sequence-player;
#X connect 0 0 47 0;
#X connect 1 0 9 0;
#X connect 2 0 4 1;
#X connect 2 0 34 1;
#X connect 2 0 35 1;
#X connect 2 0 38 1;
#X connect 3 0 46 0;
#X connect 3 0 47 0;
#X connect 4 0 3 0;
#X connect 5 0 47 0;
#X connect 6 0 47 0;
#X connect 7 0 47 0;
#X connect 8 0 47 0;
#X connect 9 0 0 0;
#X connect 9 0 19 0;
#X connect 9 1 33 0;
#X connect 9 2 10 0;
#X connect 10 1 37 1;
#X connect 11 0 13 0;
#X connect 12 0 47 0;
#X connect 13 0 12 0;
#X connect 14 0 13 1;
#X connect 15 0 13 1;
#X connect 16 0 17 0;
#X connect 16 1 28 0;
#X connect 17 0 6 0;
#X connect 17 0 22 0;
#X connect 17 1 14 0;
#X connect 18 0 33 0;
#X connect 19 0 14 0;
#X connect 19 0 24 0;
#X connect 20 0 46 0;
#X connect 21 0 44 1;
#X connect 22 0 44 1;
#X connect 23 0 46 0;
#X connect 24 0 46 0;
#X connect 25 0 21 0;
#X connect 25 1 23 0;
#X connect 25 2 32 0;
#X connect 25 5 20 0;
#X connect 25 6 14 0;
#X connect 26 0 44 0;
#X connect 27 0 47 0;
#X connect 28 0 41 0;
#X connect 28 1 25 0;
#X connect 28 4 34 0;
#X connect 29 0 47 0;
#X connect 30 0 29 0;
#X connect 31 0 29 0;
#X connect 32 0 46 2;
#X connect 33 0 7 0;
#X connect 33 1 8 0;
#X connect 33 2 4 0;
#X connect 33 3 27 0;
#X connect 33 4 38 0;
#X connect 33 5 5 0;
#X connect 34 0 36 0;
#X connect 35 0 40 0;
#X connect 36 0 45 0;
#X connect 37 0 16 0;
#X connect 38 0 43 0;
#X connect 39 0 37 0;
#X connect 40 0 45 0;
#X connect 41 0 27 0;
#X connect 41 1 5 0;
#X connect 41 2 15 0;
#X connect 41 3 24 0;
#X connect 41 4 30 0;
#X connect 41 5 35 0;
#X connect 42 0 38 0;
#X connect 43 0 45 0;
#X connect 44 0 46 0;
