#N canvas 642 129 1076 872 12;
#X obj 36 18 inlet;
#X msg 541 189 0;
#X obj 36 80 t b b b b b;
#X obj 218 18 r ea-2-#;
#X obj 315 366 moses 9;
#X obj 377 366 moses 22;
#X obj 452 366 moses 34;
#X obj 530 366 moses 46;
#X obj 606 366 moses 56;
#X obj 753 541 random;
#X msg 400 439 25;
#X msg 475 439 18;
#X msg 553 439 15;
#X msg 629 439 12;
#X msg 711 439 6;
#X obj 688 366 moses 58;
#X obj 753 567 moses 5;
#X msg 268 331 bang;
#X msg 704 541 bang;
#X obj 377 400 t b b f;
#X obj 452 400 t b b f;
#X obj 530 400 t b b f;
#X obj 606 400 t b b f;
#X obj 688 400 t b b f;
#X msg 342 720 set \$1;
#X msg 342 760 44 7 0 \, -1;
#X msg 447 760 play 1;
#X msg 787 439 58 0.25 0.5 \, -1;
#X msg 869 683 add2 \$1 0;
#X msg 851 656 addcomma;
#X msg 834 629 add2 -1;
#X msg 218 760 ch \$1;
#X msg 506 760 reset;
#X obj 764 400 t b b b;
#X obj 799 602 t b b b b f b;
#X msg 764 472 play 18;
#X obj 315 18 r tick;
#X msg 508 270 5;
#X obj 315 331 random 74;
#X msg 486 186 1;
#X obj 36 48 ../../../common/step-seq-sel-3 \$0;
#X obj 315 227 ../../../common/queued-open;
#X obj 315 296 ../../../common/beat-skip;
#X obj 291 821 ../../../electribe/sequence-player;
#X connect 0 0 40 0;
#X connect 1 0 41 1;
#X connect 2 2 37 0;
#X connect 2 4 42 1;
#X connect 3 0 31 0;
#X connect 4 0 17 0;
#X connect 4 1 5 0;
#X connect 5 0 19 0;
#X connect 5 1 6 0;
#X connect 6 0 20 0;
#X connect 6 1 7 0;
#X connect 7 0 21 0;
#X connect 7 1 8 0;
#X connect 8 0 22 0;
#X connect 8 1 15 0;
#X connect 9 0 16 0;
#X connect 10 0 9 1;
#X connect 11 0 9 1;
#X connect 12 0 9 1;
#X connect 13 0 9 1;
#X connect 14 0 9 1;
#X connect 15 0 23 0;
#X connect 15 1 33 0;
#X connect 16 0 18 0;
#X connect 16 1 34 0;
#X connect 17 0 38 0;
#X connect 18 0 9 0;
#X connect 19 0 9 0;
#X connect 19 1 10 0;
#X connect 19 2 24 0;
#X connect 20 0 9 0;
#X connect 20 1 11 0;
#X connect 20 2 24 0;
#X connect 21 0 9 0;
#X connect 21 1 12 0;
#X connect 21 2 24 0;
#X connect 22 0 9 0;
#X connect 22 1 13 0;
#X connect 22 2 24 0;
#X connect 23 0 9 0;
#X connect 23 1 14 0;
#X connect 23 2 24 0;
#X connect 24 0 25 0;
#X connect 25 0 43 0;
#X connect 26 0 43 0;
#X connect 27 0 43 0;
#X connect 28 0 25 0;
#X connect 29 0 25 0;
#X connect 30 0 25 0;
#X connect 31 0 43 0;
#X connect 32 0 43 0;
#X connect 33 0 35 0;
#X connect 33 1 27 0;
#X connect 33 2 32 0;
#X connect 34 0 26 0;
#X connect 34 1 25 0;
#X connect 34 2 30 0;
#X connect 34 3 29 0;
#X connect 34 4 28 0;
#X connect 34 5 32 0;
#X connect 35 0 43 0;
#X connect 36 0 41 0;
#X connect 37 0 42 2;
#X connect 38 0 4 0;
#X connect 39 0 41 1;
#X connect 40 0 2 0;
#X connect 40 1 39 0;
#X connect 40 2 1 0;
#X connect 41 0 42 0;
#X connect 42 0 38 0;
