#N canvas -27 55 1667 887 10;
#X msg 545 610 ch \$1;
#X obj 575 584 f;
#X msg 620 705 0.2;
#X obj 725 12 r ea-1-#;
#X msg 55 741 b d \, p 13;
#X msg 424 668 0;
#X msg 455 668 1;
#X msg 504 705 play \$1;
#X msg 524 668 0;
#X msg 495 668 1;
#X obj 314 12 r tick-16;
#X msg 657 705 12;
#X obj 767 703 f;
#X msg 238 741 4 4;
#X msg 685 705 17;
#X msg 969 528 size 5 \, 57 60 64 65 64;
#X msg 508 431 size 3 \, 57 60 64;
#X msg 961 348 0;
#X msg 995 244 1;
#X obj 950 12 r tick;
#X obj 950 382 spigot 0;
#X msg 1115 395 2;
#X obj 638 383 t b b b;
#X msg 1058 310 size 3 \, 57 60 60;
#X obj 41 12 inlet;
#X obj 238 703 t b b;
#X obj 455 330 t b b b b b b b b b b b b;
#X msg 950 506 size 3 \, 57 60 60;
#X obj 995 350 t f b b f;
#X obj 822 163 spigot;
#X obj 822 188 - 45;
#X obj 1037 286 t b b b b;
#X msg 1133 424 0 2 9999;
#X obj 950 480 sel 0 1;
#X obj 1104 584 sel 2 3 4 5 6 7 8 9;
#X msg 1194 424 2 10 9999;
#X msg 1016 575 size 3;
#X msg 1104 615 57 60 64;
#X msg 1117 637 57 60 65;
#X msg 1131 663 57 60 67;
#X msg 1201 683 57 60 69;
#X msg 1330 653 57 -1 -1 -1 -1;
#X msg 1346 682 57 60 -1 -1 -1;
#X msg 1337 624 -1 -1 -1 -1 -1;
#X obj 989 549 t f b;
#X obj 455 12 r enc-1;
#X obj 822 12 r notes;
#X obj 822 66 unpack 0 0;
#X obj 455 199 sel 0 1 2 3 4 5 6 7 8 9;
#X obj 455 105 spigot 0;
#X msg 767 741 7.5 7 \$1;
#X obj 535 106 spigot 0;
#X obj 535 161 + 5;
#X obj 535 12 r enc-2;
#X obj 594 235 t b b;
#X msg 709 106 2;
#X obj 41 82 t b b b b b b b b b;
#X obj 218 68 t f f f f f f;
#X obj 535 59 t f f;
#X msg 672 106 4;
#X obj 934 649 f;
#X msg 934 680 0 6 \$1;
#X obj 983 649 f;
#X msg 983 680 127 6 \$1;
#X obj 1071 349 t b b b b b;
#X obj 995 206 t b b;
#X obj 1189 353 t b b;
#X obj 40 39 ../../../common/step-seq-sel-3 \$0;
#X obj 535 133 ../../../controller/skip;
#X obj 314 705 ../../../common/queued-open;
#X obj 950 424 ../../../common/beat-skip;
#X obj 950 455 ../../../common/part-iterator;
#X obj 1167 712 ../../../common/silence-msg-3;
#X obj 874 800 ../../../kp3/pad-off;
#X obj 767 778 ../../../electribe/encoder-set;
#X obj 566 800 ../../../common/step-seq-player \$0;
#X obj 377 778 ../../../kp3/pad-on;
#X obj 238 779 ../../../kp3/touch;
#X obj 55 779 ../../../electribe/pattern;
#X msg 990 745 0 20;
#X obj 990 778 ../../../kp3/pc;
#X connect 0 0 75 0;
#X connect 1 0 0 0;
#X connect 2 0 75 2;
#X connect 3 0 12 1;
#X connect 3 0 1 1;
#X connect 3 0 62 1;
#X connect 3 0 60 1;
#X connect 4 0 78 0;
#X connect 5 0 69 1;
#X connect 6 0 69 1;
#X connect 7 0 75 0;
#X connect 8 0 7 0;
#X connect 9 0 7 0;
#X connect 10 0 69 0;
#X connect 11 0 75 3;
#X connect 12 0 50 0;
#X connect 13 0 77 0;
#X connect 14 0 75 3;
#X connect 15 0 75 0;
#X connect 16 0 75 0;
#X connect 17 0 20 1;
#X connect 18 0 28 0;
#X connect 19 0 20 0;
#X connect 20 0 70 0;
#X connect 21 0 70 2;
#X connect 22 0 16 0;
#X connect 22 1 11 0;
#X connect 22 2 17 0;
#X connect 23 0 75 0;
#X connect 24 0 67 0;
#X connect 25 0 13 0;
#X connect 25 1 76 0;
#X connect 26 2 11 0;
#X connect 26 3 9 0;
#X connect 26 4 16 0;
#X connect 26 5 2 0;
#X connect 26 6 12 0;
#X connect 26 7 79 0;
#X connect 26 8 73 0;
#X connect 26 9 1 0;
#X connect 26 10 17 0;
#X connect 26 11 32 0;
#X connect 27 0 75 0;
#X connect 28 0 20 1;
#X connect 28 1 70 1;
#X connect 28 2 21 0;
#X connect 28 3 33 0;
#X connect 29 0 30 0;
#X connect 30 0 75 3;
#X connect 31 1 23 0;
#X connect 31 2 17 0;
#X connect 32 0 71 1;
#X connect 33 0 27 0;
#X connect 33 1 15 0;
#X connect 33 2 44 0;
#X connect 34 0 37 0;
#X connect 34 1 38 0;
#X connect 34 2 39 0;
#X connect 34 3 38 0;
#X connect 34 4 37 0;
#X connect 34 5 38 0;
#X connect 34 6 39 0;
#X connect 34 7 40 0;
#X connect 35 0 71 1;
#X connect 36 0 75 0;
#X connect 37 0 72 0;
#X connect 38 0 72 0;
#X connect 39 0 72 0;
#X connect 40 0 72 0;
#X connect 41 0 72 1;
#X connect 42 0 72 1;
#X connect 43 0 72 1;
#X connect 44 0 34 0;
#X connect 44 1 36 0;
#X connect 45 0 49 0;
#X connect 46 0 47 0;
#X connect 47 0 29 0;
#X connect 48 1 14 0;
#X connect 48 2 11 0;
#X connect 48 3 31 0;
#X connect 48 4 22 0;
#X connect 48 5 65 0;
#X connect 48 6 64 0;
#X connect 48 7 66 0;
#X connect 48 8 54 0;
#X connect 48 9 5 0;
#X connect 49 0 48 0;
#X connect 50 0 74 0;
#X connect 51 0 68 0;
#X connect 52 0 48 0;
#X connect 53 0 58 0;
#X connect 54 0 42 0;
#X connect 54 1 55 0;
#X connect 55 0 68 1;
#X connect 56 0 25 0;
#X connect 56 1 4 0;
#X connect 56 4 26 0;
#X connect 56 5 5 0;
#X connect 56 6 8 0;
#X connect 56 8 59 0;
#X connect 57 1 49 1;
#X connect 57 3 29 1;
#X connect 57 4 51 1;
#X connect 58 0 51 0;
#X connect 59 0 68 1;
#X connect 60 0 61 0;
#X connect 61 0 74 0;
#X connect 62 0 63 0;
#X connect 63 0 74 0;
#X connect 64 0 35 0;
#X connect 64 1 43 0;
#X connect 64 2 79 0;
#X connect 64 3 73 0;
#X connect 64 4 60 0;
#X connect 65 0 18 0;
#X connect 66 0 41 0;
#X connect 66 1 62 0;
#X connect 67 0 56 0;
#X connect 67 1 9 0;
#X connect 67 1 6 0;
#X connect 67 2 8 0;
#X connect 67 2 17 0;
#X connect 67 3 75 4;
#X connect 67 4 57 0;
#X connect 68 0 52 0;
#X connect 69 0 75 0;
#X connect 70 0 71 0;
#X connect 71 0 33 0;
#X connect 72 0 75 0;
#X connect 79 0 80 0;
