#N canvas 158 327 1441 644 12;
#X obj 25 16 inlet;
#X obj 322 485 noteout;
#X obj 322 40 unpack 0 0;
#X obj 322 16 r notes;
#X obj 322 110 spigot;
#X msg 25 90 0;
#X obj 25 40 ../../../common/step-seq-sel-3 \$0;
#X obj 508 110 spigot;
#X obj 253 65 t f f;
#X msg 629 163 0;
#X obj 508 163 select 0 1 2 3 4;
#X obj 25 65 t b b b b b b b;
#X obj 508 133 t f b;
#X obj 412 16 r pulse-#;
#X obj 165 16 r pulse-#;
#X obj 41 485 ../../../pulse/pc;
#X obj 508 16 r enc-4;
#X obj 783 16 r tr-pr-#;
#X msg 41 443 415;
#X connect 0 0 6 0;
#X connect 2 0 4 0;
#X connect 2 1 1 1;
#X connect 3 0 2 0;
#X connect 4 0 1 0;
#X connect 5 0 4 1;
#X connect 6 0 11 0;
#X connect 6 4 8 0;
#X connect 7 0 12 0;
#X connect 8 0 7 1;
#X connect 8 1 4 1;
#X connect 11 0 5 0;
#X connect 11 1 18 0;
#X connect 12 0 10 0;
#X connect 12 1 9 0;
#X connect 13 0 1 2;
#X connect 16 0 7 0;
#X connect 18 0 15 0;
