#N canvas 417 397 941 597 12;
#X obj 244 13 r beat-#;
#X obj 704 187 ../common/note-in;
#X text 634 107 select 0 26 52 78 104;
#X text 456 9 level mod-amt mod-rate select bit-red fold drive gain
, f 61;
#X text 457 26 17/18 29/30 46/47 14/15 49 50 51 52;
#X text 457 61 pitch eg-at eg-rel send decay body tune pan;
#X text 457 78 26/27 20/21 23/24 103 117 118 119 10;
#X obj 36 181 ../common/encoder-in;
#X msg 36 142 14;
#X obj 36 105 bng 15 250 50 0 empty empty empty 17 7 0 10 -262144 -1
-1;
#X text 697 124 0 9 18;
#X text 690 140 0 3 6;
#X obj 36 270 select 0 26 52 78 104;
#X obj 211 272 select 9 35 61;
#X obj 351 273 select 87 113 96;
#X obj 34 430 f 0;
#X obj 210 429 f 0;
#X obj 353 426 f 0;
#X msg 36 297 0;
#X msg 211 297 0;
#X msg 351 297 0;
#X msg 242 327 9;
#X msg 274 297 18;
#X msg 387 327 3;
#X msg 423 297 6;
#X msg 64 327 26;
#X msg 93 297 52;
#X msg 122 327 78;
#X msg 151 297 104;
#X obj 35 387 t b f;
#X obj 208 382 t b f;
#X obj 354 376 t b f;
#X obj 262 196 t b b b;
#X obj 196 504 expr ($i1 + $i2 + $i3);
#X obj 196 558 ctlout;
#X obj 635 401 ctlout;
#X obj 560 216 ../common/cc-in;
#X obj 664 265 t f f;
#X obj 641 344 f;
#X text 364 11 model 116;
#X text 364 28 0-string;
#X text 365 41 1-tube;
#X obj 698 298 select 14;
#X connect 0 0 1 0;
#X connect 0 0 7 1;
#X connect 0 0 34 2;
#X connect 0 0 35 2;
#X connect 0 0 36 0;
#X connect 7 0 12 0;
#X connect 8 0 7 0;
#X connect 8 0 34 1;
#X connect 9 0 8 0;
#X connect 12 0 18 0;
#X connect 12 1 25 0;
#X connect 12 2 26 0;
#X connect 12 3 27 0;
#X connect 12 4 28 0;
#X connect 12 5 13 0;
#X connect 13 0 19 0;
#X connect 13 1 21 0;
#X connect 13 2 22 0;
#X connect 13 3 14 0;
#X connect 14 0 20 0;
#X connect 14 1 23 0;
#X connect 14 2 24 0;
#X connect 15 0 33 0;
#X connect 16 0 33 1;
#X connect 17 0 33 2;
#X connect 18 0 29 0;
#X connect 19 0 30 0;
#X connect 20 0 31 0;
#X connect 21 0 30 0;
#X connect 22 0 30 0;
#X connect 23 0 31 0;
#X connect 24 0 31 0;
#X connect 25 0 29 0;
#X connect 26 0 29 0;
#X connect 27 0 29 0;
#X connect 28 0 29 0;
#X connect 29 0 32 0;
#X connect 29 1 15 1;
#X connect 30 0 32 0;
#X connect 30 1 16 1;
#X connect 31 0 32 0;
#X connect 31 1 17 1;
#X connect 32 0 15 0;
#X connect 32 1 16 0;
#X connect 32 2 17 0;
#X connect 33 0 34 0;
#X connect 36 0 38 1;
#X connect 36 1 37 0;
#X connect 37 0 35 1;
#X connect 37 1 42 0;
#X connect 38 0 35 0;
#X connect 42 1 38 0;
